<svg width="44" height="44" viewBox="0 0 44 44" fill="none" xmlns="http://www.w3.org/2000/svg">
<g filter="url(#filter0_b_240_1161)">
<rect width="44" height="44" rx="22" fill="#F96262"/>
</g>
<path d="M11.4 11.9927C10.8477 11.9927 10.4 12.4404 10.4 12.9927C10.4 13.545 10.8477 13.9927 11.4 13.9927V11.9927ZM13.6925 12.9927L14.6578 12.7313C14.5397 12.2954 14.1441 11.9927 13.6925 11.9927V12.9927ZM17.4179 26.7479L16.4527 27.0093C16.5829 27.4903 17.0475 27.802 17.5419 27.7402L17.4179 26.7479ZM28.8806 25.3151L29.0046 26.3073C29.4293 26.2543 29.7731 25.9368 29.8598 25.5177L28.8806 25.3151ZM30.6 17.0046L31.5793 17.2072C31.6402 16.9127 31.5653 16.6064 31.3754 16.3732C31.1855 16.14 30.9007 16.0046 30.6 16.0046V17.0046ZM14.7791 17.0046L13.8139 17.266L14.7791 17.0046ZM11.4 13.9927H13.6925V11.9927H11.4V13.9927ZM17.5419 27.7402L29.0046 26.3073L28.7566 24.3228L17.2939 25.7556L17.5419 27.7402ZM29.8598 25.5177L31.5793 17.2072L29.6207 16.802L27.9013 25.1125L29.8598 25.5177ZM12.7273 13.2541L13.8139 17.266L15.7443 16.7432L14.6578 12.7313L12.7273 13.2541ZM13.8139 17.266L16.4527 27.0093L18.3831 26.4865L15.7443 16.7432L13.8139 17.266ZM30.6 16.0046H14.7791V18.0046H30.6V16.0046ZM20 30.4999C20 30.7761 19.7761 30.9999 19.5 30.9999V32.9999C20.8807 32.9999 22 31.8807 22 30.4999H20ZM19.5 30.9999C19.2239 30.9999 19 30.7761 19 30.4999H17C17 31.8807 18.1193 32.9999 19.5 32.9999V30.9999ZM19 30.4999C19 30.2238 19.2239 29.9999 19.5 29.9999V27.9999C18.1193 27.9999 17 29.1192 17 30.4999H19ZM19.5 29.9999C19.7761 29.9999 20 30.2238 20 30.4999H22C22 29.1192 20.8807 27.9999 19.5 27.9999V29.9999ZM28 30.4999C28 30.7761 27.7761 30.9999 27.5 30.9999V32.9999C28.8807 32.9999 30 31.8807 30 30.4999H28ZM27.5 30.9999C27.2239 30.9999 27 30.7761 27 30.4999H25C25 31.8807 26.1193 32.9999 27.5 32.9999V30.9999ZM27 30.4999C27 30.2238 27.2239 29.9999 27.5 29.9999V27.9999C26.1193 27.9999 25 29.1192 25 30.4999H27ZM27.5 29.9999C27.7761 29.9999 28 30.2238 28 30.4999H30C30 29.1192 28.8807 27.9999 27.5 27.9999V29.9999Z" fill="white"/>
<defs>
<filter id="filter0_b_240_1161" x="-6" y="-6" width="56" height="56" filterUnits="userSpaceOnUse" color-interpolation-filters="sRGB">
<feFlood flood-opacity="0" result="BackgroundImageFix"/>
<feGaussianBlur in="BackgroundImageFix" stdDeviation="3"/>
<feComposite in2="SourceAlpha" operator="in" result="effect1_backgroundBlur_240_1161"/>
<feBlend mode="normal" in="SourceGraphic" in2="effect1_backgroundBlur_240_1161" result="shape"/>
</filter>
</defs>
</svg>
