<svg width="414" height="338" viewBox="0 0 414 338" fill="none" xmlns="http://www.w3.org/2000/svg">
<defs>
<filter id="filter0_f_1674_9182" x="79.1357" y="115.109" width="270.12" height="243.582" filterUnits="userSpaceOnUse" color-interpolation-filters="sRGB">
<feFlood flood-opacity="0" result="BackgroundImageFix"/>
<feBlend mode="normal" in="SourceGraphic" in2="BackgroundImageFix" result="shape"/>
<feGaussianBlur stdDeviation="36" result="effect1_foregroundBlur_1674_9182"/>
</filter>
<filter id="filter1_di_1674_9182" x="151.267" y="189.398" width="127.667" height="76.5781" filterUnits="userSpaceOnUse" color-interpolation-filters="sRGB">
<feFlood flood-opacity="0" result="BackgroundImageFix"/>
<feColorMatrix in="SourceAlpha" type="matrix" values="0 0 0 0 0 0 0 0 0 0 0 0 0 0 0 0 0 0 127 0" result="hardAlpha"/>
<feOffset dx="8" dy="8"/>
<feGaussianBlur stdDeviation="8"/>
<feColorMatrix type="matrix" values="0 0 0 0 1 0 0 0 0 0.87451 0 0 0 0 0.423529 0 0 0 1 0"/>
<feBlend mode="normal" in2="BackgroundImageFix" result="effect1_dropShadow_1674_9182"/>
<feBlend mode="normal" in="SourceGraphic" in2="effect1_dropShadow_1674_9182" result="shape"/>
<feColorMatrix in="SourceAlpha" type="matrix" values="0 0 0 0 0 0 0 0 0 0 0 0 0 0 0 0 0 0 127 0" result="hardAlpha"/>
<feOffset dx="16" dy="16"/>
<feGaussianBlur stdDeviation="16"/>
<feComposite in2="hardAlpha" operator="arithmetic" k2="-1" k3="1"/>
<feColorMatrix type="matrix" values="0 0 0 0 0 0 0 0 0 0 0 0 0 0 0 0 0 0 0.25 0"/>
<feBlend mode="normal" in2="shape" result="effect2_innerShadow_1674_9182"/>
</filter>
<filter id="filter2_i_1674_9182" x="185.091" y="226.098" width="44.0178" height="20.0391" filterUnits="userSpaceOnUse" color-interpolation-filters="sRGB">
<feFlood flood-opacity="0" result="BackgroundImageFix"/>
<feBlend mode="normal" in="SourceGraphic" in2="BackgroundImageFix" result="shape"/>
<feColorMatrix in="SourceAlpha" type="matrix" values="0 0 0 0 0 0 0 0 0 0 0 0 0 0 0 0 0 0 127 0" result="hardAlpha"/>
<feOffset dy="8"/>
<feGaussianBlur stdDeviation="8"/>
<feComposite in2="hardAlpha" operator="arithmetic" k2="-1" k3="1"/>
<feColorMatrix type="matrix" values="0 0 0 0 0.51276 0 0 0 0 0.0415645 0 0 0 0 0.0415645 0 0 0 0.4 0"/>
<feBlend mode="normal" in2="shape" result="effect1_innerShadow_1674_9182"/>
</filter>
<filter id="filter3_ddii_1674_9182" x="150.078" y="156.32" width="56.2676" height="40.3242" filterUnits="userSpaceOnUse" color-interpolation-filters="sRGB">
<feFlood flood-opacity="0" result="BackgroundImageFix"/>
<feColorMatrix in="SourceAlpha" type="matrix" values="0 0 0 0 0 0 0 0 0 0 0 0 0 0 0 0 0 0 127 0" result="hardAlpha"/>
<feOffset dx="4" dy="4"/>
<feGaussianBlur stdDeviation="4"/>
<feColorMatrix type="matrix" values="0 0 0 0 0.0727691 0 0 0 0 0.00493009 0 0 0 0 0.216927 0 0 0 0.4 0"/>
<feBlend mode="normal" in2="BackgroundImageFix" result="effect1_dropShadow_1674_9182"/>
<feColorMatrix in="SourceAlpha" type="matrix" values="0 0 0 0 0 0 0 0 0 0 0 0 0 0 0 0 0 0 127 0" result="hardAlpha"/>
<feOffset dx="1" dy="1"/>
<feGaussianBlur stdDeviation="2"/>
<feComposite in2="hardAlpha" operator="out"/>
<feColorMatrix type="matrix" values="0 0 0 0 0.0119274 0 0 0 0 0.0199607 0 0 0 0 0.21276 0 0 0 0.4 0"/>
<feBlend mode="normal" in2="effect1_dropShadow_1674_9182" result="effect2_dropShadow_1674_9182"/>
<feBlend mode="normal" in="SourceGraphic" in2="effect2_dropShadow_1674_9182" result="shape"/>
<feColorMatrix in="SourceAlpha" type="matrix" values="0 0 0 0 0 0 0 0 0 0 0 0 0 0 0 0 0 0 127 0" result="hardAlpha"/>
<feOffset dx="6" dy="6"/>
<feGaussianBlur stdDeviation="16"/>
<feComposite in2="hardAlpha" operator="arithmetic" k2="-1" k3="1"/>
<feColorMatrix type="matrix" values="0 0 0 0 0.76276 0 0 0 0 0.388636 0 0 0 0 0.122215 0 0 0 1 0"/>
<feBlend mode="normal" in2="shape" result="effect3_innerShadow_1674_9182"/>
<feColorMatrix in="SourceAlpha" type="matrix" values="0 0 0 0 0 0 0 0 0 0 0 0 0 0 0 0 0 0 127 0" result="hardAlpha"/>
<feOffset dx="-6" dy="-6"/>
<feGaussianBlur stdDeviation="16"/>
<feComposite in2="hardAlpha" operator="arithmetic" k2="-1" k3="1"/>
<feColorMatrix type="matrix" values="0 0 0 0 0.354427 0 0 0 0 0.180009 0 0 0 0 0.0538352 0 0 0 1 0"/>
<feBlend mode="normal" in2="effect3_innerShadow_1674_9182" result="effect4_innerShadow_1674_9182"/>
</filter>
<filter id="filter4_dii_1674_9182" x="213.856" y="156.32" width="56.2676" height="40.3242" filterUnits="userSpaceOnUse" color-interpolation-filters="sRGB">
<feFlood flood-opacity="0" result="BackgroundImageFix"/>
<feColorMatrix in="SourceAlpha" type="matrix" values="0 0 0 0 0 0 0 0 0 0 0 0 0 0 0 0 0 0 127 0" result="hardAlpha"/>
<feOffset dx="4" dy="4"/>
<feGaussianBlur stdDeviation="4"/>
<feColorMatrix type="matrix" values="0 0 0 0 0.075147 0 0 0 0 0.00953788 0 0 0 0 0.15865 0 0 0 0.4 0"/>
<feBlend mode="normal" in2="BackgroundImageFix" result="effect1_dropShadow_1674_9182"/>
<feBlend mode="normal" in="SourceGraphic" in2="effect1_dropShadow_1674_9182" result="shape"/>
<feColorMatrix in="SourceAlpha" type="matrix" values="0 0 0 0 0 0 0 0 0 0 0 0 0 0 0 0 0 0 127 0" result="hardAlpha"/>
<feOffset dx="6" dy="6"/>
<feGaussianBlur stdDeviation="16"/>
<feComposite in2="hardAlpha" operator="arithmetic" k2="-1" k3="1"/>
<feColorMatrix type="matrix" values="0 0 0 0 0.76276 0 0 0 0 0.388636 0 0 0 0 0.122215 0 0 0 1 0"/>
<feBlend mode="normal" in2="shape" result="effect2_innerShadow_1674_9182"/>
<feColorMatrix in="SourceAlpha" type="matrix" values="0 0 0 0 0 0 0 0 0 0 0 0 0 0 0 0 0 0 127 0" result="hardAlpha"/>
<feOffset dx="-6" dy="-6"/>
<feGaussianBlur stdDeviation="16"/>
<feComposite in2="hardAlpha" operator="arithmetic" k2="-1" k3="1"/>
<feColorMatrix type="matrix" values="0 0 0 0 0.354427 0 0 0 0 0.180009 0 0 0 0 0.0538352 0 0 0 1 0"/>
<feBlend mode="normal" in2="effect2_innerShadow_1674_9182" result="effect3_innerShadow_1674_9182"/>
</filter>
<radialGradient id="paint0_radial_1674_9182" cx="0" cy="0" r="1" gradientUnits="userSpaceOnUse" gradientTransform="translate(124.189 205.371) rotate(61.3895) scale(19.9783)">
<stop stop-color="#FFCE21"/>
<stop offset="1" stop-color="#F2911E"/>
</radialGradient>
<radialGradient id="paint1_radial_1674_9182" cx="0" cy="0" r="1" gradientUnits="userSpaceOnUse" gradientTransform="translate(3.18889 7.97222) rotate(61.3895) scale(19.9783)">
<stop stop-color="#FFCE21"/>
<stop offset="1" stop-color="#F2911E"/>
</radialGradient>
<radialGradient id="paint2_radial_1674_9182" cx="0" cy="0" r="1" gradientUnits="userSpaceOnUse" gradientTransform="translate(179.994 159.133) rotate(78.559) scale(136.649)">
<stop stop-color="#FFEA9F"/>
<stop offset="0.122763" stop-color="#FFE380"/>
<stop offset="0.415997" stop-color="#FFD250"/>
<stop offset="0.643669" stop-color="#FFC122"/>
<stop offset="1" stop-color="#FFB422"/>
</radialGradient>
<radialGradient id="paint3_radial_1674_9182" cx="0" cy="0" r="1" gradientUnits="userSpaceOnUse" gradientTransform="translate(179.994 159.133) rotate(78.559) scale(136.649)">
<stop offset="0.557292" stop-color="#E35D12" stop-opacity="0"/>
<stop offset="1" stop-color="#FF24F6" stop-opacity="0.3"/>
</radialGradient>
<linearGradient id="paint4_linear_1674_9182" x1="207.1" y1="197.398" x2="207.1" y2="241.976" gradientUnits="userSpaceOnUse">
<stop stop-color="#60310F"/>
<stop offset="0.450755" stop-color="#7D3807"/>
</linearGradient>
<linearGradient id="paint5_linear_1674_9182" x1="207.1" y1="226.098" x2="207.1" y2="238.137" gradientUnits="userSpaceOnUse">
<stop stop-color="#F04343"/>
<stop offset="0.231992" stop-color="#EF4343"/>
<stop offset="0.377834" stop-color="#E13737"/>
<stop offset="1" stop-color="#C72121"/>
</linearGradient>
<clipPath id="clip0_1674_9182">
<rect width="414" height="338" fill="white"/>
</clipPath>
</defs>
<g clip-path="url(#clip0_1674_9182)">
<rect width="414" height="338" fill="white"/>
<path opacity="0.1" d="M371.294 271C358.633 271 345.599 268.033 332.565 261.727C316.18 253.938 305.381 242.81 302.029 230.57C300.912 229.828 299.423 229.457 298.306 228.715C286.017 221.297 277.452 207.944 274.473 191.623C270.376 169.739 275.217 147.484 284.155 127.825C283.41 123.003 283.038 118.181 283.41 112.988C284.527 95.5553 293.092 79.9767 306.126 72.1874C314.691 66.9945 325.117 66.2527 334.055 68.4782C346.344 60.6889 361.984 53.2705 380.603 52.1577C397.733 51.045 414.119 55.8669 426.78 65.1399C441.675 61.0598 459.178 64.0271 471.094 73.671C480.776 81.8312 487.479 94.0716 489.714 107.796C490.831 114.101 490.458 121.149 489.341 127.825C502.002 143.775 507.588 163.433 503.864 181.238C500.885 195.703 491.203 209.427 477.425 219.813C478.914 223.522 479.659 227.602 479.287 231.683C478.169 245.036 466.998 254.68 456.571 258.389C444.654 262.469 431.993 260.985 421.939 259.131C412.257 265.807 400.712 266.549 395.499 266.549C388.051 269.516 379.859 271 371.294 271ZM307.243 232.795C312.829 246.148 327.352 254.68 334.427 257.647C355.281 267.291 376.88 269.145 394.009 262.098C394.009 262.098 394.01 262.098 394.382 262.098C395.871 261.356 397.361 260.985 398.851 259.872C401.457 258.389 404.436 256.534 406.671 254.68C401.457 252.825 396.244 249.858 391.775 246.148C389.913 244.665 388.424 242.81 386.934 240.956C376.135 240.585 364.591 239.101 353.791 235.021C351.185 234.279 348.95 233.166 346.716 232.053C335.917 235.021 321.021 237.246 307.243 232.795ZM411.884 256.534C410.022 258.018 408.16 259.502 405.926 260.985C409.277 260.243 412.629 259.131 415.98 257.647C414.491 257.276 413.374 256.905 411.884 256.534ZM426.78 255.051C435.345 256.534 445.772 256.905 455.454 253.567C464.763 250.229 474.445 242.068 475.19 230.941C475.563 227.973 474.818 225.006 474.073 222.039C471.466 223.893 468.487 225.377 465.508 226.861C456.199 231.683 446.144 234.65 436.462 236.505C434.6 245.036 430.876 250.97 426.78 255.051ZM415.608 252.825C417.47 253.196 419.332 253.567 420.822 253.938C425.29 250.229 429.014 245.036 431.248 237.617C430.131 237.988 428.642 237.988 427.525 238.359C423.801 243.923 420.077 248.745 415.608 252.825ZM392.892 240.956C393.637 241.697 394.009 242.068 394.754 242.81C399.223 246.89 405.181 249.487 410.767 251.341C414.491 248.003 418.215 243.923 421.566 239.101C415.98 239.843 410.767 240.214 405.926 240.585C401.83 240.956 397.361 240.956 392.892 240.956ZM389.168 236.505C394.754 236.505 400.34 236.505 405.554 236.134C411.512 235.763 418.215 235.392 424.918 234.279C426.78 231.312 429.014 227.973 430.876 224.264C431.248 223.151 431.993 222.039 432.366 221.297C431.621 216.104 429.759 210.169 427.152 204.235C419.704 207.202 411.512 209.057 403.692 209.798C396.616 212.395 389.541 215.362 382.838 218.7C382.465 218.7 382.093 219.071 381.721 219.071C383.583 226.119 385.817 232.054 389.168 236.505ZM353.419 230.199C354.164 230.57 354.536 230.57 355.281 230.941C364.591 234.279 374.273 235.763 383.583 236.505C380.976 232.054 378.742 226.861 377.252 220.926C369.804 224.264 361.612 227.602 353.419 230.199ZM432.738 230.199C431.993 231.312 431.621 232.424 430.876 233.537C431.248 233.537 431.993 233.166 432.366 233.166C432.366 232.795 432.366 232.795 432.366 232.424C432.738 231.683 432.738 230.941 432.738 230.199ZM436.834 222.039C437.207 225.377 437.207 228.715 436.834 232.053C445.772 230.199 454.709 227.232 462.901 223.151C465.881 221.668 468.86 219.813 471.466 217.959C468.86 213.137 464.391 208.686 458.805 206.089C454.709 203.864 449.868 202.751 445.027 202.009C442.792 209.057 440.186 215.733 436.834 222.039ZM305.753 227.232C317.297 232.054 330.331 231.312 341.13 229.086C327.724 220.555 319.532 208.315 316.925 193.107C309.85 203.122 304.264 213.508 305.381 225.006C305.381 225.748 305.753 226.49 305.753 227.232ZM320.649 187.543C322.138 205.347 331.076 219.071 347.461 227.602C357.515 225.006 367.197 220.926 376.507 216.475C375.762 213.508 375.39 210.911 375.018 207.944C369.804 206.831 364.591 204.976 359.377 202.751C352.674 199.413 336.662 190.511 335.917 174.561C335.917 174.19 335.917 173.448 335.917 173.077C334.427 173.077 332.938 173.077 331.448 173.077C329.214 176.416 326.979 179.383 324.373 182.721L322.883 184.576C322.511 185.318 321.766 186.43 320.649 187.543ZM286.017 134.873C278.941 152.306 275.59 171.594 278.941 190.882C281.548 205.718 289.741 218.329 300.54 225.006C300.54 225.006 300.912 225.006 300.912 225.377C299.423 210.911 307.988 197.558 316.553 186.06C317.67 184.576 318.415 183.463 319.532 181.979L321.021 180.125C322.883 177.528 324.745 174.932 326.607 172.336C318.414 170.852 310.594 167.514 304.264 162.321C295.699 155.644 289.368 145.629 286.017 134.873ZM446.516 198.3C451.73 199.042 456.571 200.525 461.04 202.38C466.998 205.347 472.211 210.169 475.19 215.733C487.852 206.46 496.416 193.849 499.396 180.496C502.747 164.917 498.278 147.855 488.224 133.76C486.362 140.807 483.755 148.226 480.031 155.644C472.211 170.852 461.412 183.463 448.378 192.736C448.006 194.591 447.261 196.445 446.516 198.3ZM379.859 209.057C380.231 210.911 380.603 212.766 380.976 214.62H381.348C384.7 213.137 388.051 211.653 391.403 210.169C387.307 210.169 383.21 209.798 379.859 209.057ZM431.621 202.751C433.483 206.831 434.6 210.911 435.717 214.62C437.579 210.54 439.069 206.46 440.558 202.009C437.579 202.009 434.6 202.38 431.621 202.751ZM379.114 204.605C386.934 206.089 394.754 206.46 402.574 205.718C409.65 203.122 417.098 200.896 424.918 199.413C421.939 193.478 418.215 187.543 413.746 181.979C402.947 185.689 390.658 186.801 379.486 184.947C378.742 191.252 378.742 197.929 379.114 204.605ZM340.758 172.706C340.758 173.448 340.758 173.819 340.758 174.561C341.13 188.285 356.771 196.816 361.612 199.042C365.708 200.896 370.177 202.751 374.645 203.864C374.273 197.187 374.273 190.881 375.018 184.205C370.177 183.092 365.708 181.608 361.612 179.383C356.771 177.157 352.674 174.19 348.95 171.223C346.344 171.594 343.737 172.336 340.758 172.706ZM418.215 180.125C422.683 186.06 426.407 192.365 429.386 198.3C434.6 196.074 439.813 193.107 444.282 189.769C450.613 167.514 452.475 144.146 449.868 121.149C449.123 114.843 448.006 109.279 446.889 104.086C436.834 100.377 425.663 98.1517 413.374 96.668C408.16 95.9262 402.947 95.9262 398.478 95.9262C394.382 103.715 391.403 112.247 388.424 120.407L388.051 121.891C385.072 130.422 381.348 139.695 376.507 147.855C379.486 148.597 382.465 149.709 385.817 151.193C386.189 150.451 386.562 149.709 387.306 148.597C393.265 137.84 400.34 130.422 408.533 126.342C419.332 121.149 431.621 122.632 438.696 130.051C445.399 136.727 447.261 148.597 442.792 158.241C438.324 168.255 429.014 174.932 422.311 178.27C420.822 179.012 419.332 179.754 418.215 180.125ZM440.558 197.929C440.931 197.929 441.675 197.929 442.048 197.929C442.048 197.558 442.42 197.187 442.42 196.445C442.048 196.816 441.303 197.558 440.558 197.929ZM452.102 105.941C453.219 110.392 453.964 115.585 454.709 120.778C457.316 142.291 455.826 164.546 450.613 185.689C461.04 177.157 469.977 166.03 476.308 153.419C480.404 145.258 483.383 137.098 484.872 128.938C482.266 125.971 479.659 123.374 476.68 120.778C469.232 114.843 461.412 109.65 452.102 105.941ZM380.231 180.496C390.658 182.35 401.085 181.608 411.139 178.27C406.671 173.077 401.83 167.884 396.616 163.433C393.637 160.837 390.658 158.612 387.679 157.128C383.955 164.175 381.721 172.336 380.231 180.496ZM353.791 168.997C356.771 171.223 360.122 173.448 363.474 175.303C367.197 177.157 371.294 178.641 375.762 179.754C377.252 171.223 379.859 163.063 383.21 155.273C379.859 153.79 376.507 152.677 373.528 151.935C369.059 158.241 363.846 163.804 357.143 167.514C356.026 167.884 354.909 168.255 353.791 168.997ZM389.168 153.048C392.52 154.902 395.871 157.499 399.223 160.095C405.181 164.917 410.395 170.481 415.236 176.787C416.725 176.045 418.215 175.674 419.704 174.932C426.035 171.594 434.227 166.03 438.324 157.128C442.048 148.968 440.558 139.324 434.972 133.76C428.269 127.083 417.47 127.454 409.65 130.793C402.202 134.502 395.871 140.807 390.286 151.193C390.286 151.193 389.541 151.935 389.168 153.048ZM334.427 168.626C335.172 168.626 335.917 168.626 336.662 168.626C337.406 165.659 338.524 163.063 340.013 160.837C340.013 160.466 339.641 160.466 339.641 160.095C338.151 162.692 336.289 165.659 334.427 168.626ZM288.623 128.196C291.23 140.436 297.561 151.564 306.87 158.612C313.573 163.804 321.394 166.772 329.214 167.885C332.193 163.433 334.8 159.353 337.034 154.902C335.544 151.935 334.8 148.968 334.055 145.629C331.448 130.422 338.896 114.101 353.047 103.715C353.047 94.8134 351.185 87.395 347.088 81.8313C344.109 77.7511 339.641 74.7838 334.427 72.9292C331.076 75.1547 327.724 77.7511 325.118 79.9767C311.339 91.8461 297.933 108.908 288.623 128.196ZM342.992 164.546C342.247 165.659 341.875 166.772 341.503 167.885C342.62 167.514 344.109 167.514 345.227 167.143C344.482 166.401 343.737 165.288 342.992 164.546ZM345.599 160.837C347.088 162.692 348.206 164.175 350.068 165.659C351.557 164.917 353.047 164.175 354.536 163.433C360.122 160.466 364.591 156.015 368.315 151.193C366.08 151.193 364.218 151.193 362.356 151.564C356.398 152.306 350.068 155.644 345.599 160.837ZM342.247 155.644C342.62 156.015 342.62 156.757 342.992 157.128C347.833 151.564 354.909 148.226 361.612 147.113C364.591 146.742 367.942 146.742 371.294 147.113C376.507 138.953 380.231 129.309 383.583 120.407L383.955 118.923C386.934 111.134 389.541 103.345 393.265 95.9262C380.976 96.2971 370.921 99.2645 361.984 103.715C360.494 104.457 359.005 105.57 357.515 106.312C357.515 108.167 357.143 110.392 356.771 112.618C355.281 126.712 350.44 140.807 342.247 155.644ZM353.047 110.392C343.365 118.923 336.662 131.905 338.896 145.629C339.268 147.113 339.641 148.968 340.013 150.451C346.716 137.469 350.812 124.858 352.674 112.247C352.674 111.505 353.047 110.763 353.047 110.392ZM450.613 100.748C461.784 104.828 471.094 110.392 479.287 117.439C481.521 119.294 483.383 121.149 485.617 123.374C485.99 118.181 485.99 113.359 485.245 108.537C483.383 95.9262 477.052 84.4277 468.487 77.3802C458.433 69.22 444.282 66.2527 431.621 68.8491C434.228 71.0746 436.834 73.671 438.696 76.2675C443.537 82.5731 447.634 90.7333 450.613 100.748ZM324.745 71.8164C319.159 71.8164 313.573 73.3001 308.36 76.2675C296.444 83.3149 288.623 97.4099 287.506 113.73C287.506 116.327 287.506 118.552 287.506 121.149C296.816 103.715 309.477 88.5078 322.511 77.7512C324.373 76.2675 326.607 74.4129 328.841 72.5583C327.724 71.8164 326.235 71.8164 324.745 71.8164ZM339.641 70.3328C344.109 72.5583 348.206 75.5256 351.185 79.6057C355.281 85.1695 357.515 92.5879 357.888 101.119C358.633 100.748 359.377 100.377 360.122 100.006C370.177 94.8134 381.721 91.8461 395.871 91.4752C399.968 84.4277 404.809 77.7511 411.512 72.5583C414.491 70.3328 418.215 68.1073 421.566 66.6236C410.022 59.2052 395.871 55.496 380.976 56.6087C364.963 57.7215 350.812 63.6562 339.641 70.3328ZM401.085 91.4752C405.181 91.4752 409.65 91.8461 414.118 92.217C425.663 93.3297 436.089 95.5553 445.399 98.8935C442.792 91.1042 439.441 84.4277 434.972 78.8639C432.366 75.5256 429.386 72.5583 426.035 69.9618C421.939 71.4455 417.842 73.3001 414.118 76.2675C408.905 80.3476 404.436 85.5404 401.085 91.4752Z" fill="#263238"/>
<path opacity="0.1" d="M8.29374 271C-4.36749 271 -17.4011 268.033 -30.4347 261.727C-46.8198 253.938 -57.6191 242.81 -60.9706 230.57C-62.0878 229.828 -63.5773 229.457 -64.6945 228.715C-76.9833 221.297 -85.5483 207.944 -88.5274 191.623C-92.6237 169.739 -87.7826 147.484 -78.8453 127.825C-79.5901 123.003 -79.9624 118.181 -79.5901 112.988C-78.4729 95.5553 -69.908 79.9767 -56.8744 72.1874C-48.3094 66.9945 -37.8825 66.2527 -28.9452 68.4782C-16.6563 60.6889 -1.01599 53.2705 17.6035 52.1577C34.7334 51.045 51.1185 55.8669 63.7798 65.1399C78.6753 61.0598 96.1776 64.0271 108.094 73.671C117.776 81.8312 124.479 94.0716 126.714 107.796C127.831 114.101 127.458 121.149 126.341 127.825C139.002 143.775 144.588 163.433 140.864 181.238C137.885 195.703 128.203 209.427 114.425 219.813C115.914 223.522 116.659 227.602 116.287 231.683C115.169 245.036 103.998 254.68 93.5709 258.389C81.6544 262.469 68.9932 260.985 58.9387 259.131C49.2566 265.807 37.7125 266.549 32.499 266.549C25.0512 269.516 16.8587 271 8.29374 271ZM-55.7572 232.795C-50.1713 246.148 -35.6482 254.68 -28.5728 257.647C-7.71897 267.291 13.8796 269.145 31.0095 262.098C31.0095 262.098 31.0095 262.098 31.3819 262.098C32.8715 261.356 34.361 260.985 35.8506 259.872C38.4573 258.389 41.4364 256.534 43.6707 254.68C38.4573 252.825 33.2438 249.858 28.7751 246.148C26.9132 244.665 25.4237 242.81 23.9341 240.956C13.1348 240.585 1.59074 239.101 -9.20853 235.021C-11.8153 234.279 -14.0496 233.166 -16.2839 232.053C-27.0832 235.021 -41.9788 237.246 -55.7572 232.795ZM48.8842 256.534C47.0222 258.018 45.1603 259.502 42.9259 260.985C46.2774 260.243 49.6289 259.131 52.9804 257.647C51.4909 257.276 50.3737 256.905 48.8842 256.534ZM63.7798 255.051C72.3447 256.534 82.7716 256.905 92.4537 253.567C101.763 250.229 111.445 242.068 112.19 230.941C112.563 227.973 111.818 225.006 111.073 222.039C108.466 223.893 105.487 225.377 102.508 226.861C93.1985 231.683 83.144 234.65 73.4618 236.505C71.5999 245.036 67.876 250.97 63.7798 255.051ZM52.6081 252.825C54.47 253.196 56.3319 253.567 57.8215 253.938C62.2902 250.229 66.0141 245.036 68.2484 237.617C67.1312 237.988 65.6417 237.988 64.5245 238.359C60.8006 243.923 57.0768 248.745 52.6081 252.825ZM29.8923 240.956C30.6371 241.697 31.0095 242.068 31.7543 242.81C36.2229 246.89 42.1812 249.487 47.767 251.341C51.4909 248.003 55.2148 243.923 58.5663 239.101C52.9804 239.843 47.767 240.214 42.9259 240.585C38.8297 240.956 34.361 240.956 29.8923 240.956ZM26.1684 236.505C31.7543 236.505 37.3401 236.505 42.5536 236.134C48.5118 235.763 55.2148 235.392 61.9178 234.279C63.7798 231.312 66.0141 227.973 67.876 224.264C68.2484 223.151 68.9932 222.039 69.3656 221.297C68.6208 216.104 66.7588 210.169 64.1521 204.235C56.7043 207.202 48.5118 209.057 40.6916 209.798C33.6162 212.395 26.5408 215.362 19.8378 218.7C19.4654 218.7 19.093 219.071 18.7206 219.071C20.5826 226.119 22.8169 232.054 26.1684 236.505ZM-9.58089 230.199C-8.83611 230.57 -8.46372 230.57 -7.71895 230.941C1.59078 234.279 11.2729 235.763 20.5826 236.505C17.9759 232.054 15.7415 226.861 14.252 220.926C6.80421 224.264 -1.38833 227.602 -9.58089 230.199ZM69.7379 230.199C68.9932 231.312 68.6208 232.424 67.876 233.537C68.2484 233.537 68.9932 233.166 69.3656 233.166C69.3656 232.795 69.3656 232.795 69.3656 232.424C69.738 231.683 69.7379 230.941 69.7379 230.199ZM73.8342 222.039C74.2066 225.377 74.2066 228.715 73.8342 232.053C82.7716 230.199 91.7089 227.232 99.9015 223.151C102.881 221.668 105.86 219.813 108.466 217.959C105.86 213.137 101.391 208.686 95.8052 206.089C91.7089 203.864 86.8678 202.751 82.0268 202.009C79.7925 209.057 77.1857 215.733 73.8342 222.039ZM-57.2467 227.232C-45.7027 232.054 -32.669 231.312 -21.8697 229.086C-35.2758 220.555 -43.4683 208.315 -46.075 193.107C-53.1504 203.122 -58.7363 213.508 -57.6191 225.006C-57.6191 225.748 -57.2467 226.49 -57.2467 227.232ZM-42.3511 187.543C-40.8616 205.347 -31.9243 219.071 -15.5391 227.602C-5.48463 225.006 4.19749 220.926 13.5072 216.475C12.7624 213.508 12.39 210.911 12.0176 207.944C6.80418 206.831 1.59074 204.976 -3.6227 202.751C-10.3257 199.413 -26.3384 190.511 -27.0832 174.561C-27.0832 174.19 -27.0832 173.448 -27.0832 173.077C-28.5728 173.077 -30.0623 173.077 -31.5519 173.077C-33.7862 176.416 -36.0205 179.383 -38.6273 182.721L-40.1168 184.576C-40.4892 185.318 -41.234 186.43 -42.3511 187.543ZM-76.9833 134.873C-84.0587 152.306 -87.4102 171.594 -84.0587 190.882C-81.452 205.718 -73.2595 218.329 -62.4602 225.006C-62.4602 225.006 -62.0878 225.006 -62.0878 225.377C-63.5773 210.911 -55.0124 197.558 -46.4475 186.06C-45.3303 184.576 -44.5855 183.463 -43.4683 181.979L-41.9788 180.125C-40.1168 177.528 -38.2549 174.932 -36.393 172.336C-44.5855 170.852 -52.4057 167.514 -58.7363 162.321C-67.3013 155.644 -73.6318 145.629 -76.9833 134.873ZM83.5164 198.3C88.7298 199.042 93.5709 200.525 98.0395 202.38C103.998 205.347 109.211 210.169 112.19 215.733C124.852 206.46 133.416 193.849 136.396 180.496C139.747 164.917 135.278 147.855 125.224 133.76C123.362 140.807 120.755 148.226 117.031 155.644C109.211 170.852 98.4119 183.463 85.3783 192.736C85.0059 194.591 84.2612 196.445 83.5164 198.3ZM16.8587 209.057C17.2311 210.911 17.6035 212.766 17.9759 214.62H18.3483C21.6998 213.137 25.0513 211.653 28.4028 210.169C24.3065 210.169 20.2102 209.798 16.8587 209.057ZM68.6208 202.751C70.4828 206.831 71.5999 210.911 72.7171 214.62C74.579 210.54 76.0686 206.46 77.5581 202.009C74.579 202.009 71.5999 202.38 68.6208 202.751ZM16.1139 204.605C23.9341 206.089 31.7543 206.46 39.5745 205.718C46.6499 203.122 54.0976 200.896 61.9178 199.413C58.9387 193.478 55.2148 187.543 50.7461 181.979C39.9469 185.689 27.658 186.801 16.4863 184.947C15.7416 191.252 15.7415 197.929 16.1139 204.605ZM-22.2422 172.706C-22.2422 173.448 -22.2422 173.819 -22.2422 174.561C-21.8698 188.285 -6.2294 196.816 -1.38834 199.042C2.70794 200.896 7.17661 202.751 11.6453 203.864C11.2729 197.187 11.2729 190.881 12.0176 184.205C7.17657 183.092 2.70794 181.608 -1.38834 179.383C-6.2294 177.157 -10.3257 174.19 -14.0496 171.223C-16.6563 171.594 -19.263 172.336 -22.2422 172.706ZM55.2148 180.125C59.6835 186.06 63.4073 192.365 66.3865 198.3C71.5999 196.074 76.8134 193.107 81.282 189.769C87.6126 167.514 89.4746 144.146 86.8679 121.149C86.1231 114.843 85.0059 109.279 83.8887 104.086C73.8342 100.377 62.6626 98.1517 50.3737 96.668C45.1603 95.9262 39.9468 95.9262 35.4782 95.9262C31.3819 103.715 28.4028 112.247 25.4237 120.407L25.0512 121.891C22.0721 130.422 18.3483 139.695 13.5072 147.855C16.4863 148.597 19.4654 149.709 22.8169 151.193C23.1893 150.451 23.5617 149.709 24.3065 148.597C30.2647 137.84 37.3401 130.422 45.5327 126.342C56.3319 121.149 68.6208 122.632 75.6962 130.051C82.3992 136.727 84.2612 148.597 79.7925 158.241C75.3238 168.255 66.0141 174.932 59.3111 178.27C57.8215 179.012 56.332 179.754 55.2148 180.125ZM77.5581 197.929C77.9305 197.929 78.6753 197.929 79.0477 197.929C79.0477 197.558 79.4201 197.187 79.4201 196.445C79.0477 196.816 78.3029 197.558 77.5581 197.929ZM89.1022 105.941C90.2194 110.392 90.9642 115.585 91.7089 120.778C94.3157 142.291 92.8261 164.546 87.6126 185.689C98.0395 177.157 106.977 166.03 113.308 153.419C117.404 145.258 120.383 137.098 121.872 128.938C119.266 125.971 116.659 123.374 113.68 120.778C106.232 114.843 98.4119 109.65 89.1022 105.941ZM17.2311 180.496C27.658 182.35 38.0849 181.608 48.1394 178.27C43.6707 173.077 38.8297 167.884 33.6162 163.433C30.6371 160.837 27.658 158.612 24.6789 157.128C20.955 164.175 18.7207 172.336 17.2311 180.496ZM-9.20853 168.997C-6.22942 171.223 -2.8779 173.448 0.473602 175.303C4.19749 177.157 8.29379 178.641 12.7625 179.754C14.252 171.223 16.8587 163.063 20.2102 155.273C16.8587 153.79 13.5072 152.677 10.5281 151.935C6.05943 158.241 0.846001 163.804 -5.857 167.514C-6.97417 167.884 -8.09137 168.255 -9.20853 168.997ZM26.1684 153.048C29.5199 154.902 32.8714 157.499 36.2229 160.095C42.1812 164.917 47.3946 170.481 52.2357 176.787C53.7252 176.045 55.2148 175.674 56.7043 174.932C63.0349 171.594 71.2275 166.03 75.3238 157.128C79.0477 148.968 77.5581 139.324 71.9723 133.76C65.2693 127.083 54.47 127.454 46.6498 130.793C39.202 134.502 32.8714 140.807 27.2856 151.193C27.2856 151.193 26.5408 151.935 26.1684 153.048ZM-28.5728 168.626C-27.828 168.626 -27.0832 168.626 -26.3384 168.626C-25.5936 165.659 -24.4765 163.063 -22.9869 160.837C-22.9869 160.466 -23.3593 160.466 -23.3593 160.095C-24.8489 162.692 -26.7108 165.659 -28.5728 168.626ZM-74.3766 128.196C-71.7699 140.436 -65.4393 151.564 -56.1295 158.612C-49.4265 163.804 -41.6064 166.772 -33.7862 167.885C-30.8071 163.433 -28.2004 159.353 -25.966 154.902C-27.4556 151.935 -28.2004 148.968 -28.9452 145.629C-31.5519 130.422 -24.1041 114.101 -9.95331 103.715C-9.95331 94.8134 -11.8153 87.395 -15.9116 81.8313C-18.8907 77.7511 -23.3593 74.7838 -28.5728 72.9292C-31.9243 75.1547 -35.2758 77.7511 -37.8825 79.9767C-51.6609 91.8461 -65.0669 108.908 -74.3766 128.196ZM-20.0078 164.546C-20.7526 165.659 -21.125 166.772 -21.4974 167.885C-20.3802 167.514 -18.8907 167.514 -17.7735 167.143C-18.5183 166.401 -19.263 165.288 -20.0078 164.546ZM-17.4011 160.837C-15.9115 162.692 -14.7944 164.175 -12.9324 165.659C-11.4429 164.917 -9.95333 164.175 -8.46377 163.433C-2.87794 160.466 1.59078 156.015 5.31467 151.193C3.08034 151.193 1.21837 151.193 -0.643578 151.564C-6.6018 152.306 -12.9324 155.644 -17.4011 160.837ZM-20.7526 155.644C-20.3802 156.015 -20.3802 156.757 -20.0078 157.128C-15.1667 151.564 -8.09135 148.226 -1.38834 147.113C1.59077 146.742 4.94224 146.742 8.29374 147.113C13.5072 138.953 17.2311 129.309 20.5826 120.407L20.955 118.923C23.9341 111.134 26.5408 103.345 30.2647 95.9262C17.9759 96.2971 7.92135 99.2645 -1.01599 103.715C-2.50555 104.457 -3.99509 105.57 -5.48465 106.312C-5.48465 108.167 -5.85703 110.392 -6.22942 112.618C-7.71897 126.712 -12.56 140.807 -20.7526 155.644ZM-9.95331 110.392C-19.6354 118.923 -26.3384 131.905 -24.1041 145.629C-23.7317 147.113 -23.3593 148.968 -22.9869 150.451C-16.2839 137.469 -12.1877 124.858 -10.3257 112.247C-10.3257 111.505 -9.95331 110.763 -9.95331 110.392ZM87.6126 100.748C98.7843 104.828 108.094 110.392 116.287 117.439C118.521 119.294 120.383 121.149 122.617 123.374C122.99 118.181 122.99 113.359 122.245 108.537C120.383 95.9262 114.052 84.4277 105.487 77.3802C95.4328 69.22 81.282 66.2527 68.6208 68.8491C71.2275 71.0746 73.8342 73.671 75.6962 76.2675C80.5372 82.5731 84.6335 90.7333 87.6126 100.748ZM-38.2549 71.8164C-43.8407 71.8164 -49.4266 73.3001 -54.64 76.2675C-66.5565 83.3149 -74.3766 97.4099 -75.4938 113.73C-75.4938 116.327 -75.4938 118.552 -75.4938 121.149C-66.1841 103.715 -53.5228 88.5078 -40.4892 77.7512C-38.6273 76.2675 -36.3929 74.4129 -34.1586 72.5583C-35.2758 71.8164 -36.7653 71.8164 -38.2549 71.8164ZM-23.3593 70.3328C-18.8907 72.5583 -14.7944 75.5256 -11.8152 79.6057C-7.71897 85.1695 -5.48463 92.5879 -5.11224 101.119C-4.36745 100.748 -3.62271 100.377 -2.87794 100.006C7.17657 94.8134 18.7207 91.8461 32.8714 91.4752C36.9677 84.4277 41.8088 77.7511 48.5118 72.5583C51.4909 70.3328 55.2148 68.1073 58.5663 66.6236C47.0222 59.2052 32.8714 55.496 17.9759 56.6087C1.96314 57.7215 -12.1877 63.6562 -23.3593 70.3328ZM38.0849 91.4752C42.1812 91.4752 46.6498 91.8461 51.1185 92.217C62.6626 93.3297 73.0895 95.5553 82.3992 98.8935C79.7925 91.1042 76.441 84.4277 71.9723 78.8639C69.3656 75.5256 66.3865 72.5583 63.035 69.9618C58.9387 71.4455 54.8424 73.3001 51.1185 76.2675C45.905 80.3476 41.4364 85.5404 38.0849 91.4752Z" fill="#263238"/>
<ellipse cx="133.756" cy="210.154" rx="12.7556" ry="12.7556" fill="url(#paint0_radial_1674_9182)"/>
<circle cx="12.7556" cy="12.7556" r="12.7556" transform="matrix(-1 0 0 1 293.2 197.398)" fill="url(#paint1_radial_1674_9182)"/>
<circle cx="207.1" cy="216.533" r="76.5333" fill="url(#paint2_radial_1674_9182)"/>
<circle cx="207.1" cy="216.533" r="76.5333" fill="url(#paint3_radial_1674_9182)"/>
<g filter="url(#filter0_f_1674_9182)">
<path d="M202.317 280.313C241.944 280.313 274.067 248.189 274.067 208.563C274.067 201.09 272.925 193.884 270.805 187.109C274.945 196.058 277.256 206.027 277.256 216.535C277.256 255.281 245.846 286.69 207.1 286.69C184.246 286.69 163.945 275.763 151.136 258.847C164.154 272.096 182.276 280.313 202.317 280.313Z" fill="#C1092A" fill-opacity="0.6"/>
</g>
<g filter="url(#filter1_di_1674_9182)">
<path d="M207.1 197.398C183.308 197.398 162.456 213.343 159.387 233.967C158.613 237.864 161.672 241.18 165.755 241.899C166.845 242.09 167.954 241.899 169.027 241.63C174.66 240.217 193.839 235.665 207.1 235.665C220.361 235.665 239.539 240.217 245.173 241.63C246.246 241.899 247.355 242.091 248.445 241.899C252.528 241.18 255.587 237.864 254.813 233.967C251.744 213.343 230.892 197.398 207.1 197.398Z" fill="url(#paint4_linear_1674_9182)"/>
</g>
<g filter="url(#filter2_i_1674_9182)">
<path fill-rule="evenodd" clip-rule="evenodd" d="M229.109 238.137C226.764 231.236 217.8 226.098 207.1 226.098C196.399 226.098 187.435 231.236 185.091 238.137C192.275 236.814 200.435 235.664 207.1 235.664C213.765 235.664 221.925 236.814 229.109 238.137Z" fill="url(#paint5_linear_1674_9182)"/>
</g>
<g filter="url(#filter3_ddii_1674_9182)">
<path fill-rule="evenodd" clip-rule="evenodd" d="M162.551 164.737C162.979 163.028 164.71 161.989 166.419 162.416L191.93 168.794C193.323 169.142 194.311 170.378 194.344 171.814C194.378 173.249 193.448 174.53 192.073 174.942L160.184 184.509C158.497 185.015 156.719 184.058 156.213 182.371C155.707 180.684 156.664 178.906 158.351 178.4L179.127 172.167L164.872 168.604C163.163 168.176 162.124 166.445 162.551 164.737Z" fill="#894819"/>
</g>
<g filter="url(#filter4_dii_1674_9182)">
<path fill-rule="evenodd" clip-rule="evenodd" d="M251.65 164.737C251.223 163.028 249.491 161.989 247.783 162.416L222.271 168.794C220.879 169.142 219.89 170.378 219.857 171.814C219.824 173.249 220.753 174.53 222.129 174.942L254.017 184.509C255.704 185.015 257.482 184.058 257.988 182.371C258.494 180.684 257.537 178.906 255.85 178.4L235.075 172.167L249.329 168.604C251.038 168.176 252.077 166.445 251.65 164.737Z" fill="#894819"/>
</g>
</g>
</svg>
