<svg width="22" height="24" viewBox="0 0 22 24" fill="none" xmlns="http://www.w3.org/2000/svg">
<path d="M5.46074 22.4702L4.96074 21.6042H4.96074L5.46074 22.4702ZM4.53775 21.7762L3.5454 21.6528L4.53775 21.7762ZM3.80711 17.894L2.93499 18.3835L2.94108 18.394L3.80711 17.894ZM2.70408 15.9286L3.5762 15.4391L3.5701 15.4286L2.70408 15.9286ZM20.061 14.0408L20.561 14.9068L20.061 14.0408ZM19.9356 12.9072L20.3433 11.994L20.3432 11.994L19.9356 12.9072ZM16.9724 10.293L16.1 10.7819L16.1064 10.793L16.9724 10.293ZM15.9252 8.42431L16.7977 7.93541L16.7912 7.92431L15.9252 8.42431ZM5.4479 5.59019L5.9479 6.45622L5.4479 5.59019ZM12.3694 22.3786L12.8694 23.2447L12.3694 22.3786ZM5.5301 21.8997C5.6845 20.6584 5.59038 18.9827 4.67313 17.394L2.94108 18.394C3.57912 19.4991 3.66353 20.703 3.5454 21.6528L5.5301 21.8997ZM4.67916 17.4046L3.57613 15.4392L1.83202 16.418L2.93505 18.3834L4.67916 17.4046ZM20.3432 11.994C19.4835 11.6102 18.4879 10.9178 17.8384 9.79302L16.1064 10.793C17.0229 12.3805 18.4005 13.317 19.5279 13.8203L20.3432 11.994ZM17.8448 9.80416L16.7976 7.93545L15.0528 8.91316L16.1 10.7819L17.8448 9.80416ZM16.7912 7.92431C14.393 3.77036 9.09215 2.33148 4.9479 4.72416L5.9479 6.45622C9.12781 4.6203 13.2087 5.71917 15.0592 8.92431L16.7912 7.92431ZM20.561 14.9068C21.2189 14.5269 21.3642 13.8246 21.3038 13.3354C21.2436 12.8477 20.9529 12.2662 20.3433 11.994L19.5279 13.8203C19.3473 13.7397 19.3222 13.6079 19.3189 13.5805C19.3153 13.5517 19.3087 13.3204 19.561 13.1748L20.561 14.9068ZM3.5701 15.4286C1.75046 12.2769 2.82116 8.26144 5.9479 6.45622L4.9479 4.72416C0.856812 7.08616 -0.529389 12.3281 1.83805 16.4286L3.5701 15.4286ZM4.96074 21.6042C5.07731 21.5369 5.19935 21.5263 5.28776 21.54C5.36731 21.5523 5.41363 21.5817 5.4342 21.5976C5.45561 21.6141 5.47837 21.6382 5.49781 21.678C5.51826 21.7198 5.54284 21.7973 5.5301 21.8997L3.5454 21.6528C3.46163 22.3262 3.82195 22.8796 4.21217 23.1808C4.60302 23.4825 5.29182 23.7225 5.96074 23.3363L4.96074 21.6042ZM19.561 13.1748L4.96074 21.6042L5.96074 23.3363L20.561 14.9068L19.561 13.1748ZM12.9336 18.1558C13.5595 19.24 13.1665 20.7638 11.8694 21.5126L12.8694 23.2447C15.0161 22.0053 15.9037 19.3001 14.6656 17.1558L12.9336 18.1558ZM11.8694 21.5126C10.5724 22.2615 9.0562 21.84 8.43026 20.7558L6.69821 21.7558C7.93624 23.9001 10.7228 24.484 12.8694 23.2447L11.8694 21.5126ZM5.46034 2.81173C5.84694 3.48134 5.61751 4.33757 4.9479 4.72416L5.9479 6.45622C7.5741 5.51733 8.13127 3.43792 7.19239 1.81173L5.46034 2.81173ZM4.9479 4.72416C4.27829 5.11076 3.42207 4.88134 3.03547 4.21173L1.30342 5.21173C2.2423 6.83792 4.32171 7.3951 5.9479 6.45622L4.9479 4.72416ZM3.03547 4.21173C2.64887 3.54212 2.87829 2.68589 3.5479 2.29929L2.5479 0.567243C0.921707 1.50613 0.364531 3.58553 1.30342 5.21173L3.03547 4.21173ZM3.5479 2.29929C4.21751 1.91269 5.07374 2.14212 5.46034 2.81173L7.19239 1.81173C6.2535 0.185534 4.1741 -0.371642 2.5479 0.567243L3.5479 2.29929Z" fill="#1F1F1F"/>
</svg>
