<svg width="35" height="35" viewBox="0 0 35 35" fill="none" xmlns="http://www.w3.org/2000/svg">
    <path d="M0 17.5C0 3.5 3.5 0 17.5 0C31.5 0 35 3.5 35 17.5C35 31.5 31.5 35 17.5 35C3.5 35 0 31.5 0 17.5Z"
        fill="#C1EEFF" />
    <path
        d="M12.7813 11.9955C12.7813 10.3386 14.2084 9 15.9688 9H23.9375C25.6979 9 27.125 10.3431 27.125 12V24C27.125 25.6569 25.6979 27 23.9375 27H11.1871C11.1871 27 12.7808 27 12.7812 25C12.7815 23.5909 12.7814 16.2249 12.7813 11.9955Z"
        fill="#6283F9" />
    <path
        d="M15.9688 13.5C15.9688 12.6716 16.6823 12 17.5625 12H22.3438C23.224 12 23.9375 12.6716 23.9375 13.5C23.9375 14.3284 23.224 15 22.3438 15H17.5625C16.6823 15 15.9688 14.3284 15.9688 13.5Z"
        fill="white" />
    <path fill-rule="evenodd" clip-rule="evenodd"
        d="M15.9688 18.25C15.9688 17.8358 16.3255 17.5 16.7656 17.5H23.1406C23.5807 17.5 23.9375 17.8358 23.9375 18.25C23.9375 18.6642 23.5807 19 23.1406 19H16.7656C16.3255 19 15.9688 18.6642 15.9688 18.25Z"
        fill="white" />
    <path
        d="M8 17C8 15.8954 8.95139 15 10.125 15H11.1875V24.5C11.1875 25.3284 10.474 26 9.59375 26C8.71355 26 8 25.3284 8 24.5V17Z"
        fill="white" />

</svg>