<svg width="35" height="36" viewBox="0 0 35 36" fill="none" xmlns="http://www.w3.org/2000/svg">
<rect y="0.5" width="35" height="35" rx="12" fill="#FFDEBF"/>
<path d="M22.5 14V11C22.5 10.7348 22.3946 10.4804 22.2071 10.2929C22.0196 10.1054 21.7652 10 21.5 10H11.5C10.9696 10 10.4609 10.2107 10.0858 10.5858C9.71071 10.9609 9.5 11.4696 9.5 12C9.5 12.5304 9.71071 13.0391 10.0858 13.4142C10.4609 13.7893 10.9696 14 11.5 14H23.5C23.7652 14 24.0196 14.1054 24.2071 14.2929C24.3946 14.4804 24.5 14.7348 24.5 15V18M24.5 15V25C24.5 25.2652 24.3946 25.5196 24.2071 25.7071C24.0196 25.8946 23.7652 26 23.5 26H11.5C10.9696 26 10.4609 25.7893 10.0858 25.4142C9.71071 25.0391 9.5 24.5304 9.5 24V12" fill="white"/>
<path d="M22.5 14V11C22.5 10.7348 22.3946 10.4804 22.2071 10.2929C22.0196 10.1054 21.7652 10 21.5 10H11.5C10.9696 10 10.4609 10.2107 10.0858 10.5858C9.71071 10.9609 9.5 11.4696 9.5 12M9.5 12C9.5 12.5304 9.71071 13.0391 10.0858 13.4142C10.4609 13.7893 10.9696 14 11.5 14H23.5C23.7652 14 24.0196 14.1054 24.2071 14.2929C24.3946 14.4804 24.5 14.7348 24.5 15M9.5 12V24C9.5 24.5304 9.71071 25.0391 10.0858 25.4142C10.4609 25.7893 10.9696 26 11.5 26H23.5C23.7652 26 24.0196 25.8946 24.2071 25.7071C24.3946 25.5196 24.5 25.2652 24.5 25V15M24.5 15V18" stroke="#F9AA62" stroke-width="2" stroke-linecap="round" stroke-linejoin="round"/>
<path d="M25.5 18V22H21.5C20.9696 22 20.4609 21.7893 20.0858 21.4142C19.7107 21.0391 19.5 20.5304 19.5 20C19.5 19.4696 19.7107 18.9609 20.0858 18.5858C20.4609 18.2107 20.9696 18 21.5 18H25.5Z" stroke="#F9AA62" stroke-width="2" stroke-linecap="round" stroke-linejoin="round"/>
</svg>
