<svg width="42" height="42" viewBox="0 0 42 42" fill="none" xmlns="http://www.w3.org/2000/svg">
<g clip-path="url(#clip0_926_13665)">
<path d="M0.0328979 8.34138C0.0328979 7.08494 1.05144 6.06641 2.30787 6.06641L5.34117 6.06641C6.59759 6.06641 7.61614 7.08494 7.61614 8.34138C7.61614 9.59781 6.59759 10.6164 5.34117 10.6164H2.30787C1.05144 10.6164 0.0328979 9.59781 0.0328979 8.34138Z" fill="#F96262"/>
<path d="M0.0328979 20.4742C0.0328979 19.2177 1.05144 18.1992 2.30787 18.1992H5.34117C6.59759 18.1992 7.61614 19.2177 7.61614 20.4742C7.61614 21.7306 6.59759 22.7491 5.34117 22.7491H2.30787C1.05144 22.7491 0.0328979 21.7306 0.0328979 20.4742Z" fill="#F96262"/>
<path d="M0.0328979 32.607C0.0328979 31.3505 1.05144 30.332 2.30787 30.332H5.34117C6.59759 30.332 7.61614 31.3505 7.61614 32.607C7.61614 33.8634 6.59759 34.882 5.34117 34.882H2.30787C1.05144 34.882 0.0328979 33.8634 0.0328979 32.607Z" fill="#F96262"/>
<path fill-rule="evenodd" clip-rule="evenodd" d="M4.58295 6.06669V10.6166H5.34132C6.59775 10.6166 7.6163 9.59808 7.6163 8.34166C7.6163 7.08522 6.59775 6.06669 5.34132 6.06669H4.58295ZM5.34132 3.03339H5.3393C6.35573 1.22315 8.29388 0 10.5177 0L35.2331 0C38.5109 0 41.1678 2.65709 41.1678 5.93477L41.1678 35.0147C41.1678 38.2923 38.5109 40.9495 35.2331 40.9495H10.5177C8.29393 40.9495 6.35582 39.7264 5.33937 37.9162H5.34129C8.27296 37.9162 10.6496 35.5396 10.6496 32.608C10.6496 29.6763 8.27296 27.2998 5.34129 27.2998H4.58295V25.7831H5.34129C8.27296 25.7831 10.6496 23.4067 10.6496 20.4749C10.6496 17.5433 8.27296 15.1667 5.34129 15.1667H4.58295V13.6499H5.34132C8.273 13.6499 10.6496 11.2733 10.6496 8.34166C10.6496 5.40999 8.273 3.03339 5.34132 3.03339ZM5.34129 34.8828H4.58295V30.333H5.34129C6.59773 30.333 7.61626 31.3515 7.61626 32.608C7.61626 33.8643 6.59773 34.8828 5.34129 34.8828ZM5.34129 22.7499H4.58295L4.58295 18.2001H5.34129C6.59773 18.2001 7.61626 19.2186 7.61626 20.4749C7.61626 21.7314 6.59773 22.7499 5.34129 22.7499ZM17.0953 6.82491C16.0483 6.82491 15.1995 7.67369 15.1995 8.72072C15.1995 9.76775 16.0483 10.6165 17.0953 10.6165L33.0202 10.6165C34.0672 10.6165 34.916 9.76775 34.916 8.72072C34.916 7.67369 34.0672 6.82491 33.0202 6.82491L17.0953 6.82491ZM15.1995 17.8205C15.1995 16.7736 16.0483 15.9248 17.0953 15.9248L33.0202 15.9248C34.0672 15.9248 34.916 16.7736 34.916 17.8205C34.916 18.8677 34.0672 19.7163 33.0202 19.7163L17.0953 19.7163C16.0483 19.7163 15.1995 18.8677 15.1995 17.8205ZM17.0953 25.0248C16.0483 25.0248 15.1995 25.8734 15.1995 26.9206C15.1995 27.9675 16.0483 28.8164 17.0953 28.8164L28.4702 28.8164C29.5171 28.8164 30.366 27.9675 30.366 26.9206C30.366 25.8734 29.5171 25.0248 28.4702 25.0248L17.0953 25.0248Z" fill="#F96262"/>
</g>
<defs>
<clipPath id="clip0_926_13665">
<rect width="41.4234" height="41.4234" fill="white"/>
</clipPath>
</defs>
</svg>
