<svg width="27" height="42" viewBox="0 0 27 42" fill="none" xmlns="http://www.w3.org/2000/svg">
<defs>
<linearGradient id="paint0_linear_1312_66995" x1="5.41122" y1="14.2674" x2="20.8098" y2="14.2674" gradientUnits="userSpaceOnUse">
<stop stop-color="#91410D"/>
<stop offset="1" stop-color="#CC8139"/>
</linearGradient>
<linearGradient id="paint1_linear_1312_66995" x1="19.3038" y1="34.193" x2="5.6133" y2="20.5025" gradientUnits="userSpaceOnUse">
<stop stop-color="#91410D"/>
<stop offset="1" stop-color="#CC8139"/>
</linearGradient>
<linearGradient id="paint2_linear_1312_66995" x1="5.96921" y1="20.8586" x2="22.5384" y2="37.4277" gradientUnits="userSpaceOnUse">
<stop stop-color="#91410D"/>
<stop offset="1" stop-color="#CC8139"/>
</linearGradient>
<linearGradient id="paint3_linear_1312_66995" x1="25.9594" y1="40.8486" x2="0.396998" y2="15.2862" gradientUnits="userSpaceOnUse">
<stop stop-color="#91410D"/>
<stop offset="1" stop-color="#F4A75D"/>
</linearGradient>
<linearGradient id="paint4_linear_1312_66995" x1="16.0681" y1="6.7982" x2="13.618" y2="7.9882" gradientUnits="userSpaceOnUse">
<stop stop-color="white"/>
<stop offset="1" stop-color="#121E3D"/>
</linearGradient>
</defs>
<path d="M7.90002 18.0998V15.2998C7.90002 13.8998 9.00002 12.7998 10.4 12.7998H15.8C17.2 12.7998 18.3 13.8998 18.3 15.2998V18.0998H20.8V15.2998C20.8 12.4998 18.6 10.2998 15.8 10.2998H10.4C7.60002 10.2998 5.40002 12.4998 5.40002 15.2998V18.0998H7.90002Z" fill="url(#paint0_linear_1312_66995)"/>
<path d="M13.1 41.0999C20.3349 41.0999 26.2 35.2348 26.2 27.9999C26.2 20.765 20.3349 14.8999 13.1 14.8999C5.86508 14.8999 0 20.765 0 27.9999C0 35.2348 5.86508 41.0999 13.1 41.0999Z" fill="url(#paint1_linear_1312_66995)"/>
<path d="M13.1 40.4001C19.9483 40.4001 25.5 34.8484 25.5 28.0001C25.5 21.1518 19.9483 15.6001 13.1 15.6001C6.25168 15.6001 0.700012 21.1518 0.700012 28.0001C0.700012 34.8484 6.25168 40.4001 13.1 40.4001Z" fill="url(#paint2_linear_1312_66995)"/>
<path d="M13.1 38.5999C18.9542 38.5999 23.7 33.8541 23.7 27.9999C23.7 22.1457 18.9542 17.3999 13.1 17.3999C7.24579 17.3999 2.5 22.1457 2.5 27.9999C2.5 33.8541 7.24579 38.5999 13.1 38.5999Z" fill="url(#paint3_linear_1312_66995)"/>
<path d="M12.9943 34.208C12.3169 34.208 11.7063 34.048 11.1623 33.728C10.6183 33.408 10.1863 32.9787 9.86625 32.44C9.54625 31.896 9.38625 31.2933 9.38625 30.632H11.3383C11.3383 30.9307 11.4076 31.2027 11.5463 31.448C11.6903 31.6933 11.8876 31.8907 12.1383 32.04C12.3889 32.184 12.6743 32.256 12.9943 32.256C13.2876 32.256 13.5596 32.184 13.8103 32.04C14.0663 31.8907 14.2716 31.6933 14.4263 31.448C14.5809 31.2027 14.6583 30.9307 14.6583 30.632C14.6583 30.2427 14.5543 29.92 14.3463 29.664C14.1383 29.4027 13.8476 29.208 13.4743 29.08C13.1063 28.952 12.6769 28.888 12.1863 28.888V27.384C12.8476 27.384 13.3703 27.2587 13.7543 27.008C14.1436 26.7573 14.3383 26.3893 14.3383 25.904C14.3383 25.6533 14.2743 25.424 14.1463 25.216C14.0183 25.008 13.8476 24.8427 13.6343 24.72C13.4263 24.592 13.1969 24.528 12.9462 24.528C12.6903 24.528 12.4423 24.592 12.2023 24.72C11.9623 24.8427 11.7649 25.008 11.6103 25.216C11.4609 25.424 11.3863 25.6533 11.3863 25.904H9.43425C9.43425 25.4453 9.52758 25.016 9.71425 24.616C9.90092 24.2107 10.1569 23.856 10.4823 23.552C10.8129 23.248 11.1863 23.0107 11.6023 22.84C12.0236 22.664 12.4636 22.576 12.9223 22.576C13.5249 22.576 14.0823 22.7253 14.5943 23.024C15.1063 23.3227 15.5169 23.7227 15.8263 24.224C16.1356 24.7253 16.2903 25.2853 16.2903 25.904C16.2903 26.336 16.1889 26.76 15.9863 27.176C15.7836 27.592 15.4956 27.8853 15.1223 28.056C15.4476 28.1733 15.7196 28.3707 15.9383 28.648C16.1569 28.92 16.3223 29.232 16.4343 29.584C16.5516 29.9307 16.6103 30.28 16.6103 30.632C16.6103 31.288 16.4449 31.888 16.1143 32.432C15.7836 32.9707 15.3436 33.4027 14.7943 33.728C14.2503 34.048 13.6503 34.208 12.9943 34.208Z" fill="#1F1F1F"/>
<path opacity="0.45" d="M3.20001 28.6999C3.20001 22.8999 7.9 18.0999 13.8 18.0999C16.5 18.0999 19 19.1999 20.9 20.8999C19 18.7999 16.2 17.3999 13.1 17.3999C7.30001 17.3999 2.5 22.0999 2.5 27.9999C2.5 31.0999 3.8 33.8999 6 35.7999C4.3 33.8999 3.20001 31.3999 3.20001 28.6999Z" fill="white"/>
<path opacity="0.67" d="M19.8 19.7998C21.3 21.5998 22.7 24.4998 22.7 26.9998C22.7 32.7998 18 37.5998 12.1 37.5998C9.60002 37.5998 6.70002 36.1998 4.90002 34.6998C6.80002 37.0998 9.80002 38.5998 13.1 38.5998C18.9 38.5998 23.7 33.8998 23.7 27.9998C23.7 24.6998 22.2 21.7998 19.8 19.7998Z" fill="#933116"/>
<path d="M14.5 0.100098L9.79999 12.9001C9.59999 13.6001 9.99999 14.3001 10.8 14.3001H11.8L17 0.200073H14.5V0.100098Z" fill="#28AFDF"/>
<path d="M16.9999 0.100098L11.7 14.2001H14.2L19.3999 0.100098H16.9999Z" fill="white"/>
<path d="M19.3999 0.100098L15.3999 10.9001L14.2 14.2001H15.8999C16.0999 14.2001 16.3999 14.1001 16.4999 14.0001C16.5999 13.9001 16.6999 13.7001 16.7999 13.6001L21.7999 0.100098H19.3999Z" fill="#F96262"/>
<path opacity="0.69" d="M18.2 10L16.9 13.5C16.8 13.7 16.7 13.8 16.6 13.9C16.4 14.1 16.2 14.1 16 14.1H10.8C10.1 14.1 9.59999 13.4 9.79999 12.7L14.5 0L18.2 10Z" fill="url(#paint4_linear_1312_66995)"/>
<path d="M11.4 0.100098H9L14.2 14.2001H15.9C16.1 14.2001 16.4 14.1001 16.5 14.0001L15.4 10.9001L11.4 0.100098Z" fill="#28AFDF"/>
<path d="M6.5 0.100098L11.8 14.2001H14.2L9 0.100098H6.5Z" fill="white"/>
<path d="M4.09998 0.100098L9.09998 13.6001C9.19998 14.0001 9.59998 14.3001 10.1 14.3001H11.8L6.59998 0.200073H4.09998V0.100098Z" fill="#F96262"/>
</svg>
