<svg width="12" height="11" viewBox="0 0 12 11" fill="none" xmlns="http://www.w3.org/2000/svg">
<path d="M10.834 4.58212L1.17867 4.58203M8.28091 0.582031V2.58203M3.9103 0.582031V2.58203M3.62236 10.4185H8.2115C9.12941 10.4185 9.58837 10.4185 9.93897 10.255C10.2474 10.1112 10.4981 9.88169 10.6552 9.59944C10.8339 9.27857 10.8339 8.85854 10.8339 8.01846V3.81846C10.8339 2.97838 10.8339 2.55834 10.6552 2.23747C10.4981 1.95523 10.2474 1.72576 9.93897 1.58195C9.58837 1.41846 9.12942 1.41846 8.2115 1.41846H3.62236C2.70445 1.41846 2.24549 1.41846 1.8949 1.58195C1.5865 1.72576 1.33577 1.95523 1.17864 2.23747C1 2.55834 1 2.97838 1 3.81846V8.01846C1 8.85854 1 9.27857 1.17864 9.59944C1.33577 9.88169 1.5865 10.1112 1.8949 10.255C2.24549 10.4185 2.70445 10.4185 3.62236 10.4185Z" stroke="#1F1F1F" stroke-linecap="round" stroke-linejoin="round"/>
</svg>
