<svg width="40" height="40" viewBox="0 0 40 40" fill="none" xmlns="http://www.w3.org/2000/svg">
<rect width="40" height="40" rx="20" fill="#F96262" fill-opacity="0.2"/>
<path d="M11 13C11 11.8954 11.8954 11 13 11H16.2792C16.7097 11 17.0918 11.2754 17.2279 11.6838L18.7257 16.1772C18.8831 16.6493 18.6694 17.1653 18.2243 17.3879L15.967 18.5165C17.0692 20.9612 19.0388 22.9308 21.4835 24.033L22.6121 21.7757C22.8347 21.3306 23.3507 21.1169 23.8228 21.2743L28.3162 22.7721C28.7246 22.9082 29 23.2903 29 23.7208V27C29 28.1046 28.1046 29 27 29H26C17.7157 29 11 22.2843 11 14V13Z" stroke="#F96262" stroke-width="2" stroke-linecap="round" stroke-linejoin="round"/>
</svg>
