<svg width="45" height="45" viewBox="0 0 45 45" fill="none" xmlns="http://www.w3.org/2000/svg">
<circle cx="22.5" cy="22.5" r="22.5" fill="#F6F6F6"/>
<path d="M12.4 12.9927C11.8477 12.9927 11.4 13.4404 11.4 13.9927C11.4 14.545 11.8477 14.9927 12.4 14.9927V12.9927ZM14.6925 13.9927L15.6578 13.7313C15.5397 13.2954 15.1441 12.9927 14.6925 12.9927V13.9927ZM18.4179 27.7479L17.4527 28.0093C17.5829 28.4903 18.0475 28.802 18.5419 28.7402L18.4179 27.7479ZM29.8806 26.3151L30.0046 27.3073C30.4293 27.2543 30.7731 26.9368 30.8598 26.5177L29.8806 26.3151ZM31.6 18.0046L32.5793 18.2072C32.6402 17.9127 32.5653 17.6064 32.3754 17.3732C32.1855 17.14 31.9007 17.0046 31.6 17.0046V18.0046ZM15.7791 18.0046L14.8139 18.266L15.7791 18.0046ZM12.4 14.9927H14.6925V12.9927H12.4V14.9927ZM18.5419 28.7402L30.0046 27.3073L29.7566 25.3228L18.2939 26.7556L18.5419 28.7402ZM30.8598 26.5177L32.5793 18.2072L30.6207 17.802L28.9013 26.1125L30.8598 26.5177ZM13.7273 14.2541L14.8139 18.266L16.7443 17.7432L15.6578 13.7313L13.7273 14.2541ZM14.8139 18.266L17.4527 28.0093L19.3831 27.4865L16.7443 17.7432L14.8139 18.266ZM31.6 17.0046H15.7791V19.0046H31.6V17.0046ZM21 31.4999C21 31.7761 20.7761 31.9999 20.5 31.9999V33.9999C21.8807 33.9999 23 32.8807 23 31.4999H21ZM20.5 31.9999C20.2239 31.9999 20 31.7761 20 31.4999H18C18 32.8807 19.1193 33.9999 20.5 33.9999V31.9999ZM20 31.4999C20 31.2238 20.2239 30.9999 20.5 30.9999V28.9999C19.1193 28.9999 18 30.1192 18 31.4999H20ZM20.5 30.9999C20.7761 30.9999 21 31.2238 21 31.4999H23C23 30.1192 21.8807 28.9999 20.5 28.9999V30.9999ZM29 31.4999C29 31.7761 28.7761 31.9999 28.5 31.9999V33.9999C29.8807 33.9999 31 32.8807 31 31.4999H29ZM28.5 31.9999C28.2239 31.9999 28 31.7761 28 31.4999H26C26 32.8807 27.1193 33.9999 28.5 33.9999V31.9999ZM28 31.4999C28 31.2238 28.2239 30.9999 28.5 30.9999V28.9999C27.1193 28.9999 26 30.1192 26 31.4999H28ZM28.5 30.9999C28.7761 30.9999 29 31.2238 29 31.4999H31C31 30.1192 29.8807 28.9999 28.5 28.9999V30.9999Z" fill="#1F1F1F"/>
</svg>
