<svg width="35" height="35" viewBox="0 0 35 35" fill="none" xmlns="http://www.w3.org/2000/svg">
<rect width="35" height="35" rx="12" fill="#FFDEBF"/>
<path fill-rule="evenodd" clip-rule="evenodd" d="M13.5 10.5C13.5 8.84315 14.8432 7.5 16.5 7.5H18.5C20.1569 7.5 21.5 8.84315 21.5 10.5V12.5C21.5 13.0523 21.0523 13.5 20.5 13.5H14.5C13.9477 13.5 13.5 13.0523 13.5 12.5V10.5ZM16.5 9.5C15.9477 9.5 15.5 9.94772 15.5 10.5V11.5H19.5V10.5C19.5 9.94772 19.0523 9.5 18.5 9.5H16.5Z" fill="#FCC490"/>
<path d="M10.5 20.5C8.29086 20.5 6.5 22.2909 6.5 24.5C6.5 26.7091 8.29086 28.5 10.5 28.5H24.5C26.7091 28.5 28.5 26.7091 28.5 24.5C28.5 22.2909 26.7091 20.5 24.5 20.5H10.5Z" fill="#F9AA62"/>
<path d="M13.5 11.5C12.9477 11.5 12.5 11.9477 12.5 12.5V18.5C12.5 19.0523 12.9477 19.5 13.5 19.5H21.5C22.0523 19.5 22.5 19.0523 22.5 18.5V12.5C22.5 11.9477 22.0523 11.5 21.5 11.5H13.5Z" fill="#F9AA62"/>
<path fill-rule="evenodd" clip-rule="evenodd" d="M13.1215 23.5H10.8789V25.5H13.1215V23.5Z" fill="#FCC490"/>
<path fill-rule="evenodd" clip-rule="evenodd" d="M18.6215 23.5H16.3789V25.5H18.6215V23.5Z" fill="#FCC490"/>
<path fill-rule="evenodd" clip-rule="evenodd" d="M24.1215 23.5H21.8789V25.5H24.1215V23.5Z" fill="#FCC490"/>
</svg>
