<svg width="261" height="171" viewBox="0 0 261 171" fill="none" xmlns="http://www.w3.org/2000/svg">
<path d="M43.4714 96.286C42.4301 96.286 41.4511 96.0807 40.5344 95.67C39.6178 95.252 38.8111 94.68 38.1144 93.954C37.4251 93.2207 36.8824 92.37 36.4864 91.402C36.0978 90.434 35.9034 89.4 35.9034 88.3C35.9034 87.2 36.0978 86.166 36.4864 85.198C36.8824 84.23 37.4251 83.383 38.1144 82.657C38.8111 81.9237 39.6178 81.3517 40.5344 80.941C41.4511 80.523 42.4301 80.314 43.4714 80.314C44.7181 80.314 45.8658 80.6037 46.9144 81.183C47.9631 81.7623 48.8321 82.5323 49.5214 83.493L47.8824 84.373C47.3691 83.6983 46.7201 83.163 45.9354 82.767C45.1581 82.3637 44.3368 82.162 43.4714 82.162C42.6721 82.162 41.9241 82.3233 41.2274 82.646C40.5381 82.9687 39.9331 83.4123 39.4124 83.977C38.8918 84.5417 38.4848 85.1943 38.1914 85.935C37.8981 86.6757 37.7514 87.464 37.7514 88.3C37.7514 89.1433 37.8981 89.9353 38.1914 90.676C38.4921 91.4167 38.9028 92.0693 39.4234 92.634C39.9514 93.1987 40.5601 93.6423 41.2494 93.965C41.9461 94.2803 42.6868 94.438 43.4714 94.438C44.3661 94.438 45.1948 94.2363 45.9574 93.833C46.7274 93.4223 47.3691 92.887 47.8824 92.227L49.5214 93.118C48.8321 94.0787 47.9631 94.8487 46.9144 95.428C45.8658 96 44.7181 96.286 43.4714 96.286ZM61.4717 89.158V96H59.6237V89.565C59.6237 89.0077 59.4881 88.5017 59.2167 88.047C58.9454 87.5923 58.5824 87.233 58.1277 86.969C57.6731 86.6977 57.1671 86.562 56.6097 86.562C56.0597 86.562 55.5537 86.6977 55.0917 86.969C54.6371 87.233 54.2741 87.5923 54.0027 88.047C53.7314 88.5017 53.5957 89.0077 53.5957 89.565V96H51.7477V79.5H53.5957V86.375C53.9844 85.8617 54.4757 85.4547 55.0697 85.154C55.6637 84.846 56.3091 84.692 57.0057 84.692C57.8271 84.692 58.5751 84.8937 59.2497 85.297C59.9317 85.693 60.4707 86.2283 60.8667 86.903C61.2701 87.5777 61.4717 88.3293 61.4717 89.158ZM68.2967 96.286C67.2847 96.286 66.3607 96.0257 65.5247 95.505C64.6961 94.9843 64.0324 94.2877 63.5337 93.415C63.0424 92.535 62.7967 91.5633 62.7967 90.5C62.7967 89.6933 62.9397 88.9417 63.2257 88.245C63.5117 87.541 63.9041 86.925 64.4027 86.397C64.9087 85.8617 65.4954 85.4437 66.1627 85.143C66.8301 84.8423 67.5414 84.692 68.2967 84.692C69.1254 84.692 69.8844 84.8607 70.5737 85.198C71.2704 85.528 71.8644 85.99 72.3557 86.584C72.8544 87.178 73.2247 87.8673 73.4667 88.652C73.7161 89.4367 73.8077 90.2763 73.7417 91.171H64.7657C64.8537 91.7943 65.0591 92.3517 65.3817 92.843C65.7044 93.327 66.1151 93.712 66.6137 93.998C67.1197 94.284 67.6807 94.4307 68.2967 94.438C68.9567 94.438 69.5544 94.2693 70.0897 93.932C70.6251 93.5873 71.0577 93.118 71.3877 92.524L73.2687 92.964C72.8287 93.9393 72.1651 94.7387 71.2777 95.362C70.3904 95.978 69.3967 96.286 68.2967 96.286ZM64.7107 89.719H71.8827C71.8241 89.103 71.6261 88.542 71.2887 88.036C70.9514 87.5227 70.5224 87.112 70.0017 86.804C69.4811 86.496 68.9127 86.342 68.2967 86.342C67.6807 86.342 67.1161 86.4923 66.6027 86.793C66.0894 87.0937 65.6641 87.5007 65.3267 88.014C64.9967 88.52 64.7914 89.0883 64.7107 89.719ZM83.1099 93.096L84.7599 93.987C84.2613 94.6837 83.6269 95.241 82.8569 95.659C82.0943 96.077 81.2656 96.286 80.3709 96.286C79.3589 96.286 78.4349 96.0257 77.5989 95.505C76.7703 94.9843 76.1066 94.2877 75.6079 93.415C75.1166 92.535 74.8709 91.5633 74.8709 90.5C74.8709 89.6933 75.0139 88.9417 75.2999 88.245C75.5859 87.541 75.9783 86.925 76.4769 86.397C76.9829 85.8617 77.5696 85.4437 78.2369 85.143C78.9043 84.8423 79.6156 84.692 80.3709 84.692C81.2656 84.692 82.0943 84.901 82.8569 85.319C83.6269 85.737 84.2613 86.298 84.7599 87.002L83.1099 87.893C82.7579 87.4603 82.3399 87.1267 81.8559 86.892C81.3719 86.6573 80.8769 86.54 80.3709 86.54C79.6889 86.54 79.0693 86.7233 78.5119 87.09C77.9619 87.4493 77.5256 87.9297 77.2029 88.531C76.8803 89.1323 76.7189 89.7887 76.7189 90.5C76.7189 91.2113 76.8803 91.8677 77.2029 92.469C77.5329 93.063 77.9729 93.5397 78.5229 93.899C79.0803 94.2583 79.6963 94.438 80.3709 94.438C80.9136 94.438 81.4233 94.3133 81.8999 94.064C82.3766 93.8147 82.7799 93.492 83.1099 93.096ZM95.4734 96H93.3504L90.4244 90.951L88.4004 93.371V96H86.5524V79.5H88.4004V90.5L93.0094 85H95.4184L91.6784 89.455L95.4734 96ZM112.34 80.6H114.518L109.304 89.037V96H107.456V89.037L102.242 80.6H104.42L108.38 87.013L112.34 80.6ZM119.43 96.286C118.418 96.286 117.494 96.0257 116.658 95.505C115.829 94.9843 115.165 94.2877 114.667 93.415C114.175 92.535 113.93 91.5633 113.93 90.5C113.93 89.6933 114.073 88.9417 114.359 88.245C114.645 87.541 115.037 86.925 115.536 86.397C116.042 85.8617 116.628 85.4437 117.296 85.143C117.963 84.8423 118.674 84.692 119.43 84.692C120.442 84.692 121.362 84.9523 122.191 85.473C123.027 85.9937 123.69 86.694 124.182 87.574C124.68 88.454 124.93 89.4293 124.93 90.5C124.93 91.2993 124.787 92.0473 124.501 92.744C124.215 93.4407 123.819 94.0567 123.313 94.592C122.814 95.12 122.231 95.5343 121.564 95.835C120.904 96.1357 120.192 96.286 119.43 96.286ZM119.43 94.438C120.119 94.438 120.739 94.2583 121.289 93.899C121.846 93.5323 122.282 93.052 122.598 92.458C122.92 91.8567 123.082 91.204 123.082 90.5C123.082 89.7813 122.917 89.1213 122.587 88.52C122.264 87.9187 121.828 87.4383 121.278 87.079C120.728 86.7197 120.112 86.54 119.43 86.54C118.74 86.54 118.121 86.7233 117.571 87.09C117.021 87.4493 116.584 87.9297 116.262 88.531C115.939 89.1323 115.778 89.7887 115.778 90.5C115.778 91.2333 115.943 91.9007 116.273 92.502C116.603 93.096 117.046 93.569 117.604 93.921C118.161 94.2657 118.77 94.438 119.43 94.438ZM126.159 91.82V85H128.007V91.413C128.007 91.9703 128.143 92.4763 128.414 92.931C128.686 93.3857 129.049 93.7487 129.503 94.02C129.965 94.284 130.471 94.416 131.021 94.416C131.579 94.416 132.081 94.284 132.528 94.02C132.983 93.7487 133.346 93.3857 133.617 92.931C133.889 92.4763 134.024 91.9703 134.024 91.413V85H135.872L135.883 96H134.035L134.024 94.603C133.636 95.1163 133.144 95.527 132.55 95.835C131.956 96.1357 131.315 96.286 130.625 96.286C129.804 96.286 129.052 96.088 128.37 95.692C127.696 95.2887 127.157 94.7497 126.753 94.075C126.357 93.4003 126.159 92.6487 126.159 91.82ZM138.093 96V85H139.941V86.375C140.33 85.8617 140.821 85.4547 141.415 85.154C142.009 84.846 142.655 84.692 143.351 84.692C143.777 84.692 144.187 84.747 144.583 84.857L143.835 86.705C143.535 86.6097 143.241 86.562 142.955 86.562C142.405 86.562 141.899 86.6977 141.437 86.969C140.983 87.233 140.62 87.5923 140.348 88.047C140.077 88.5017 139.941 89.0077 139.941 89.565V96H138.093ZM151.744 96V80.6H153.592V96H151.744ZM166.294 89.158V96H164.446V89.565C164.446 89.0077 164.31 88.5017 164.039 88.047C163.768 87.5923 163.405 87.233 162.95 86.969C162.495 86.6977 161.989 86.562 161.432 86.562C160.882 86.562 160.376 86.6977 159.914 86.969C159.459 87.233 159.096 87.5923 158.825 88.047C158.554 88.5017 158.418 89.0077 158.418 89.565V96H156.57V85H158.418V86.375C158.807 85.8617 159.298 85.4547 159.892 85.154C160.486 84.846 161.131 84.692 161.828 84.692C162.649 84.692 163.397 84.8937 164.072 85.297C164.754 85.693 165.293 86.2283 165.689 86.903C166.092 87.5777 166.294 88.3293 166.294 89.158ZM174.192 86.848H171.695L171.684 96H169.836L169.847 86.848H167.955V85H169.847L169.836 81.546H171.684L171.695 85H174.192V86.848ZM180.724 96.286C179.712 96.286 178.788 96.0257 177.952 95.505C177.124 94.9843 176.46 94.2877 175.961 93.415C175.47 92.535 175.224 91.5633 175.224 90.5C175.224 89.6933 175.367 88.9417 175.653 88.245C175.939 87.541 176.332 86.925 176.83 86.397C177.336 85.8617 177.923 85.4437 178.59 85.143C179.258 84.8423 179.969 84.692 180.724 84.692C181.553 84.692 182.312 84.8607 183.001 85.198C183.698 85.528 184.292 85.99 184.783 86.584C185.282 87.178 185.652 87.8673 185.894 88.652C186.144 89.4367 186.235 90.2763 186.169 91.171H177.193C177.281 91.7943 177.487 92.3517 177.809 92.843C178.132 93.327 178.543 93.712 179.041 93.998C179.547 94.284 180.108 94.4307 180.724 94.438C181.384 94.438 181.982 94.2693 182.517 93.932C183.053 93.5873 183.485 93.118 183.815 92.524L185.696 92.964C185.256 93.9393 184.593 94.7387 183.705 95.362C182.818 95.978 181.824 96.286 180.724 96.286ZM177.138 89.719H184.31C184.252 89.103 184.054 88.542 183.716 88.036C183.379 87.5227 182.95 87.112 182.429 86.804C181.909 86.496 181.34 86.342 180.724 86.342C180.108 86.342 179.544 86.4923 179.03 86.793C178.517 87.0937 178.092 87.5007 177.754 88.014C177.424 88.52 177.219 89.0883 177.138 89.719ZM188.023 96V85H189.871V86.375C190.26 85.8617 190.751 85.4547 191.345 85.154C191.939 84.846 192.584 84.692 193.281 84.692C193.706 84.692 194.117 84.747 194.513 84.857L193.765 86.705C193.464 86.6097 193.171 86.562 192.885 86.562C192.335 86.562 191.829 86.6977 191.367 86.969C190.912 87.233 190.549 87.5923 190.278 88.047C190.007 88.5017 189.871 89.0077 189.871 89.565V96H188.023ZM205.632 89.158V96H203.784V89.565C203.784 89.0077 203.648 88.5017 203.377 88.047C203.106 87.5923 202.743 87.233 202.288 86.969C201.833 86.6977 201.327 86.562 200.77 86.562C200.22 86.562 199.714 86.6977 199.252 86.969C198.797 87.233 198.434 87.5923 198.163 88.047C197.892 88.5017 197.756 89.0077 197.756 89.565V96H195.908V85H197.756V86.375C198.145 85.8617 198.636 85.4547 199.23 85.154C199.824 84.846 200.469 84.692 201.166 84.692C201.987 84.692 202.735 84.8937 203.41 85.297C204.092 85.693 204.631 86.2283 205.027 86.903C205.43 87.5777 205.632 88.3293 205.632 89.158ZM212.457 96.286C211.445 96.286 210.521 96.0257 209.685 95.505C208.856 94.9843 208.193 94.2877 207.694 93.415C207.203 92.535 206.957 91.5633 206.957 90.5C206.957 89.6933 207.1 88.9417 207.386 88.245C207.672 87.541 208.064 86.925 208.563 86.397C209.069 85.8617 209.656 85.4437 210.323 85.143C210.99 84.8423 211.702 84.692 212.457 84.692C213.286 84.692 214.045 84.8607 214.734 85.198C215.431 85.528 216.025 85.99 216.516 86.584C217.015 87.178 217.385 87.8673 217.627 88.652C217.876 89.4367 217.968 90.2763 217.902 91.171H208.926C209.014 91.7943 209.219 92.3517 209.542 92.843C209.865 93.327 210.275 93.712 210.774 93.998C211.28 94.284 211.841 94.4307 212.457 94.438C213.117 94.438 213.715 94.2693 214.25 93.932C214.785 93.5873 215.218 93.118 215.548 92.524L217.429 92.964C216.989 93.9393 216.325 94.7387 215.438 95.362C214.551 95.978 213.557 96.286 212.457 96.286ZM208.871 89.719H216.043C215.984 89.103 215.786 88.542 215.449 88.036C215.112 87.5227 214.683 87.112 214.162 86.804C213.641 86.496 213.073 86.342 212.457 86.342C211.841 86.342 211.276 86.4923 210.763 86.793C210.25 87.0937 209.824 87.5007 209.487 88.014C209.157 88.52 208.952 89.0883 208.871 89.719ZM225.325 86.848H222.828L222.817 96H220.969L220.98 86.848H219.088V85H220.98L220.969 81.546H222.817L222.828 85H225.325V86.848Z" fill="white"/>
<path d="M167.972 24.8554C163.054 19.9891 157.446 16.1545 151.145 13.3517C144.845 10.5489 138.099 9.14754 130.908 9.14754C129.31 9.14754 127.727 9.22454 126.16 9.37854C124.592 9.53254 123.286 9.73274 122.241 9.97913L119.66 7.48435C120.95 7.11475 122.518 6.82215 124.362 6.60656C126.206 6.39096 128.388 6.28316 130.908 6.28316C138.591 6.28316 145.752 7.76155 152.39 10.7183C159.028 13.6751 164.898 17.7407 170 22.915L167.972 24.8554ZM153.035 39.7317C152.236 38.9925 151.53 38.3765 150.915 37.8838C150.3 37.391 149.501 36.8982 148.518 36.4054L143.447 31.231C144.861 31.6006 146.535 32.4014 148.472 33.6334C150.408 34.8654 152.359 36.467 154.326 38.4381L153.035 39.7317ZM160.688 61.3532L130.816 31.3234C126.697 31.385 122.748 32.2474 118.968 33.9106C115.188 35.5738 112.007 37.7914 109.426 40.5633L107.489 38.6229C110.071 35.9742 113.129 33.7104 116.663 31.8316C120.197 29.9528 123.993 28.8286 128.05 28.459L112.284 12.7511C109.333 13.7983 106.168 15.4461 102.787 17.6945C99.4066 19.9429 96.4255 22.3299 93.844 24.8554L92 22.915C94.7045 20.2047 97.6548 17.7253 100.851 15.4769C104.047 13.2285 107.059 11.5191 109.887 10.3487L101.035 1.47839L102.511 0L162.255 59.8748L160.688 61.3532ZM130.908 62L122.887 53.9612C123.931 52.9141 125.13 52.0979 126.482 51.5127C127.835 50.9275 129.31 50.6349 130.908 50.6349C132.506 50.6349 133.981 50.9275 135.333 51.5127C136.686 52.0979 137.884 52.9141 138.929 53.9612L130.908 62Z" fill="white"/>
<rect x="57.5" y="121.5" width="147" height="49" rx="24.5" fill="white" stroke="white"/>
<path d="M101.832 139.4V141.596H97.9799V152H95.7839V141.596H91.9319V139.4H101.832ZM102.461 152L102.452 143H104.648L104.657 143.801C104.963 143.477 105.329 143.222 105.755 143.036C106.181 142.844 106.64 142.748 107.132 142.748C107.462 142.748 107.792 142.796 108.122 142.892L107.258 145.106C107.03 145.016 106.802 144.971 106.574 144.971C106.22 144.971 105.896 145.058 105.602 145.232C105.314 145.4 105.083 145.631 104.909 145.925C104.741 146.213 104.657 146.534 104.657 146.888V152H102.461ZM115.271 143H117.602L112.679 156.5H110.348L111.977 152L108.737 143H111.14L113.075 148.994L115.271 143ZM127.934 139.4H130.463L135.044 152H132.713L131.903 149.768H126.503L125.693 152H123.362L127.934 139.4ZM127.304 147.572H131.093L129.194 142.379L127.304 147.572ZM142.616 143H144.812V152.171C144.812 152.819 144.68 153.407 144.416 153.935C144.152 154.469 143.792 154.925 143.336 155.303C142.88 155.687 142.358 155.981 141.77 156.185C141.182 156.395 140.564 156.5 139.916 156.5C139.286 156.5 138.68 156.371 138.098 156.113C137.516 155.855 137 155.501 136.55 155.051C136.106 154.607 135.767 154.1 135.533 153.53L137.54 152.621C137.66 152.951 137.84 153.239 138.08 153.485C138.326 153.737 138.608 153.932 138.926 154.07C139.244 154.214 139.574 154.286 139.916 154.286C140.264 154.286 140.597 154.238 140.915 154.142C141.239 154.046 141.53 153.905 141.788 153.719C142.046 153.539 142.247 153.317 142.391 153.053C142.541 152.795 142.616 152.501 142.616 152.171V150.902C142.334 151.298 141.98 151.619 141.554 151.865C141.128 152.111 140.636 152.234 140.078 152.234C139.43 152.234 138.824 152.111 138.26 151.865C137.696 151.619 137.198 151.28 136.766 150.848C136.34 150.41 136.004 149.906 135.758 149.336C135.518 148.766 135.398 148.154 135.398 147.5C135.398 146.846 135.518 146.234 135.758 145.664C136.004 145.094 136.34 144.593 136.766 144.161C137.198 143.723 137.696 143.381 138.26 143.135C138.824 142.889 139.43 142.766 140.078 142.766C140.636 142.766 141.128 142.889 141.554 143.135C141.98 143.375 142.334 143.693 142.616 144.089V143ZM140.105 150.119C140.567 150.119 140.975 150.002 141.329 149.768C141.689 149.528 141.971 149.21 142.175 148.814C142.379 148.412 142.481 147.974 142.481 147.5C142.481 147.02 142.376 146.582 142.166 146.186C141.962 145.79 141.68 145.472 141.32 145.232C140.966 144.992 140.561 144.872 140.105 144.872C139.655 144.872 139.244 144.992 138.872 145.232C138.5 145.466 138.203 145.781 137.981 146.177C137.759 146.573 137.648 147.014 137.648 147.5C137.648 147.986 137.759 148.427 137.981 148.823C138.203 149.219 138.5 149.534 138.872 149.768C139.244 150.002 139.655 150.119 140.105 150.119ZM153.553 143H155.749V152H153.553L153.454 150.884C153.208 151.286 152.881 151.613 152.473 151.865C152.071 152.111 151.594 152.234 151.042 152.234C150.376 152.234 149.752 152.108 149.17 151.856C148.588 151.604 148.075 151.256 147.631 150.812C147.193 150.368 146.848 149.855 146.596 149.273C146.35 148.691 146.227 148.067 146.227 147.401C146.227 146.759 146.344 146.156 146.578 145.592C146.818 145.028 147.151 144.533 147.577 144.107C148.003 143.681 148.495 143.348 149.053 143.108C149.611 142.868 150.211 142.748 150.853 142.748C151.447 142.748 151.978 142.88 152.446 143.144C152.92 143.408 153.322 143.744 153.652 144.152L153.553 143ZM150.988 150.119C151.456 150.119 151.87 150.002 152.23 149.768C152.59 149.534 152.872 149.219 153.076 148.823C153.28 148.421 153.382 147.98 153.382 147.5C153.382 147.014 153.28 146.573 153.076 146.177C152.872 145.775 152.587 145.457 152.221 145.223C151.861 144.989 151.45 144.872 150.988 144.872C150.526 144.872 150.103 144.992 149.719 145.232C149.341 145.466 149.038 145.781 148.81 146.177C148.588 146.573 148.477 147.014 148.477 147.5C148.477 147.986 148.591 148.427 148.819 148.823C149.047 149.219 149.35 149.534 149.728 149.768C150.112 150.002 150.532 150.119 150.988 150.119ZM157.542 143H159.738V152H157.542V143ZM158.658 141.839C158.334 141.839 158.061 141.734 157.839 141.524C157.617 141.308 157.506 141.038 157.506 140.714C157.506 140.396 157.617 140.129 157.839 139.913C158.061 139.697 158.331 139.589 158.649 139.589C158.967 139.589 159.234 139.697 159.45 139.913C159.672 140.129 159.783 140.396 159.783 140.714C159.783 141.038 159.675 141.308 159.459 141.524C159.243 141.734 158.976 141.839 158.658 141.839ZM170.075 146.312V152H167.879V146.888C167.879 146.534 167.792 146.213 167.618 145.925C167.444 145.631 167.21 145.4 166.916 145.232C166.628 145.058 166.307 144.971 165.953 144.971C165.599 144.971 165.275 145.058 164.981 145.232C164.693 145.4 164.462 145.631 164.288 145.925C164.12 146.213 164.036 146.534 164.036 146.888V152H161.84L161.831 143H164.027L164.036 143.801C164.342 143.477 164.708 143.222 165.134 143.036C165.56 142.844 166.019 142.748 166.511 142.748C167.165 142.748 167.762 142.91 168.302 143.234C168.842 143.552 169.271 143.981 169.589 144.521C169.913 145.055 170.075 145.652 170.075 146.312Z" fill="#EA503D"/>
</svg>
