<svg width="8" height="8" viewBox="0 0 8 8" fill="none" xmlns="http://www.w3.org/2000/svg">
<g id="Group">
<g id="Group_2">
<g id="Group_3">
<path id="Vector" d="M4 0C1.79444 0 0 1.68229 0 3.74999C0 5.81769 1.79444 7.49998 4 7.49998C6.20555 7.49998 8 5.81769 8 3.74999C8 1.68229 6.20557 0 4 0ZM4 7.1739C1.98608 7.1739 0.347821 5.63803 0.347821 3.74999C0.347821 1.86195 1.98608 0.326081 4 0.326081C6.01391 0.326081 7.65217 1.86195 7.65217 3.74999C7.65217 5.63803 6.01391 7.1739 4 7.1739Z" fill="#A4A4A4"/>
<path id="Vector_2" d="M3.99997 6.1958C3.90397 6.1958 3.82605 6.26885 3.82605 6.35885V6.68493C3.82605 6.77493 3.90397 6.84798 3.99997 6.84798C4.09597 6.84798 4.17389 6.77493 4.17389 6.68493V6.35885C4.17389 6.26885 4.09597 6.1958 3.99997 6.1958Z" fill="#A4A4A4"/>
<path id="Vector_3" d="M7.13038 3.5874H6.78256C6.68656 3.5874 6.60864 3.66045 6.60864 3.75045C6.60864 3.84045 6.68656 3.91348 6.78256 3.91348H7.13038C7.22638 3.91348 7.3043 3.84044 7.3043 3.75044C7.3043 3.66044 7.22638 3.5874 7.13038 3.5874Z" fill="#A4A4A4"/>
<path id="Vector_4" d="M1.21731 3.5874H0.869475C0.773475 3.5874 0.695557 3.66045 0.695557 3.75045C0.695557 3.84045 0.773475 3.91348 0.869475 3.91348H1.2173C1.3133 3.91348 1.39121 3.84044 1.39121 3.75044C1.39121 3.66044 1.31331 3.5874 1.21731 3.5874Z" fill="#A4A4A4"/>
<path id="Vector_5" d="M6.09049 1.55941L5.84457 1.78996C5.77674 1.85354 5.77674 1.95692 5.84457 2.02051C5.87866 2.05247 5.92317 2.06812 5.9677 2.06812C6.01223 2.06812 6.05674 2.05215 6.09083 2.02051L6.33675 1.78996C6.40458 1.72637 6.40458 1.623 6.33675 1.55941C6.26892 1.49582 6.15866 1.49582 6.09049 1.55941Z" fill="#A4A4A4"/>
<path id="Vector_6" d="M1.90958 5.47945L1.66366 5.71C1.59584 5.77359 1.59584 5.87696 1.66366 5.94055C1.69775 5.97251 1.74227 5.98816 1.78679 5.98816C1.83132 5.98816 1.87583 5.97219 1.90992 5.94055L2.15584 5.71C2.22367 5.64641 2.22367 5.54304 2.15584 5.47945C2.08802 5.41586 1.97741 5.41554 1.90958 5.47945Z" fill="#A4A4A4"/>
<path id="Vector_7" d="M6.09049 5.47933C6.02266 5.41574 5.9124 5.41574 5.84457 5.47933C5.77674 5.54292 5.77674 5.64629 5.84457 5.70988L6.09049 5.94043C6.12458 5.97239 6.16909 5.98804 6.21362 5.98804C6.25815 5.98804 6.30266 5.97207 6.33675 5.94043C6.40458 5.87684 6.40458 5.77347 6.33675 5.70988L6.09049 5.47933Z" fill="#A4A4A4"/>
<path id="Vector_8" d="M1.90958 1.55941C1.84176 1.49582 1.73149 1.49582 1.66366 1.55941C1.59584 1.623 1.59584 1.72637 1.66366 1.78996L1.90958 2.02051C1.94367 2.05247 1.98818 2.06812 2.03271 2.06812C2.07724 2.06812 2.12175 2.05215 2.15584 2.02051C2.22367 1.95692 2.22367 1.85354 2.15584 1.78996L1.90958 1.55941Z" fill="#A4A4A4"/>
<path id="Vector_9" d="M4.1739 3.29105V0.815392C4.1739 0.725392 4.09598 0.652344 3.99998 0.652344C3.90398 0.652344 3.82606 0.725392 3.82606 0.815392V3.29105C3.62397 3.35855 3.47824 3.53789 3.47824 3.75017C3.47824 3.8255 3.49807 3.89593 3.53041 3.95952L2.60519 4.82723C2.53736 4.89082 2.53736 4.9942 2.60519 5.05778C2.63928 5.08974 2.68379 5.1054 2.72832 5.1054C2.77285 5.1054 2.81736 5.08942 2.85145 5.05778L3.77668 4.19007C3.8445 4.22071 3.91963 4.2393 3.99998 4.2393C4.28764 4.2393 4.52172 4.01985 4.52172 3.75017C4.52172 3.53789 4.37599 3.35855 4.1739 3.29105ZM3.99998 3.91322C3.95545 3.91322 3.91546 3.89627 3.88486 3.87018C3.88277 3.8679 3.88207 3.86496 3.87964 3.86267C3.87721 3.86039 3.87408 3.85974 3.87199 3.85778C3.84416 3.82909 3.82608 3.79191 3.82608 3.75017C3.82608 3.66049 3.904 3.58712 4 3.58712C4.096 3.58712 4.1739 3.66051 4.1739 3.75017C4.1739 3.83985 4.09598 3.91322 3.99998 3.91322Z" fill="#A4A4A4"/>
</g>
</g>
</g>
</svg>
