<svg width="24" height="24" viewBox="0 0 24 24" fill="none" xmlns="http://www.w3.org/2000/svg">
<path d="M17.1329 17.1341C20.0892 14.1778 20.0892 9.38471 17.1329 6.42843C14.1766 3.47215 9.38357 3.47215 6.42728 6.42843C3.471 9.38471 3.471 14.1778 6.42728 17.1341C9.38357 20.0904 14.1766 20.0904 17.1329 17.1341Z" fill="white"/>
<path fill-rule="evenodd" clip-rule="evenodd" d="M6.96477 6.96574C4.30524 9.62527 4.30524 13.9372 6.96477 16.5968C9.6243 19.2563 13.9362 19.2563 16.5958 16.5968C19.2553 13.9372 19.2553 9.62528 16.5958 6.96574C13.9362 4.30621 9.6243 4.30621 6.96477 6.96574ZM5.89014 17.6714C2.6371 14.4184 2.6371 9.14415 5.89014 5.89111C9.14317 2.63808 14.4174 2.63808 17.6704 5.89111C20.9234 9.14415 20.9234 14.4184 17.6704 17.6714C14.4174 20.9244 9.14317 20.9244 5.89014 17.6714Z" fill="#1F1F1F"/>
<path fill-rule="evenodd" clip-rule="evenodd" d="M11.3091 5.65191V4.23828H12.2515V5.65191H11.3091Z" fill="#1F1F1F"/>
<path fill-rule="evenodd" clip-rule="evenodd" d="M15.55 7.24153L16.513 6.59766L16.9637 6.8962L16.0008 7.54008L15.55 7.24153Z" fill="#1F1F1F"/>
<path fill-rule="evenodd" clip-rule="evenodd" d="M17.906 11.3086H19.3196V11.7798H17.906V11.3086Z" fill="#1F1F1F"/>
<path fill-rule="evenodd" clip-rule="evenodd" d="M16.4688 16.0195L17.4346 16.9825L16.9868 17.4332L16.021 16.4702L16.4688 16.0195Z" fill="#1F1F1F"/>
<path fill-rule="evenodd" clip-rule="evenodd" d="M12.7227 17.9062V18.8487H11.7803V17.9062H12.7227Z" fill="#1F1F1F"/>
<path fill-rule="evenodd" clip-rule="evenodd" d="M8.01056 16.4695L7.04691 17.4332L6.59692 16.9832L7.56057 16.0195L8.01056 16.4695Z" fill="#1F1F1F"/>
<path fill-rule="evenodd" clip-rule="evenodd" d="M5.65458 12.2525H4.71216V11.7812H5.65458V12.2525Z" fill="#1F1F1F"/>
<path fill-rule="evenodd" clip-rule="evenodd" d="M7.56057 8.01129L6.59692 7.04764L7.04691 6.59766L8.01056 7.56131L7.56057 8.01129Z" fill="#1F1F1F"/>
<path d="M13.6649 2.35938H10.3665V4.24422H13.6649V2.35938Z" fill="#1F1F1F"/>
<path d="M14.1362 1.41406H9.42407V2.8277H14.1362V1.41406Z" fill="#1F1F1F"/>
<path d="M18.3148 5.08045L17.4255 5.75L18.7819 7.55153L19.6712 6.88198L18.3148 5.08045Z" fill="#1F1F1F"/>
<path d="M18.6709 4.07655L17.7817 4.74609L19.8398 7.47922L20.729 6.80967L18.6709 4.07655Z" fill="#1F1F1F"/>
<path fill-rule="evenodd" clip-rule="evenodd" d="M6.96477 6.96574C4.30524 9.62527 4.30524 13.9372 6.96477 16.5968C9.6243 19.2563 13.9362 19.2563 16.5958 16.5968C19.2553 13.9372 19.2553 9.62528 16.5958 6.96574C13.9362 4.30621 9.6243 4.30621 6.96477 6.96574ZM5.89014 17.6714C2.6371 14.4184 2.6371 9.14415 5.89014 5.89111C9.14317 2.63808 14.4174 2.63808 17.6704 5.89111C20.9234 9.14415 20.9234 14.4184 17.6704 17.6714C14.4174 20.9244 9.14317 20.9244 5.89014 17.6714Z" fill="#1F1F1F"/>
<path d="M12.1372 9.63672V11.7786L13.2081 12.8495" stroke="#151515" stroke-width="2" stroke-linecap="square"/>
</svg>
