<svg width="45" height="30" viewBox="0 0 45 30" fill="none" xmlns="http://www.w3.org/2000/svg">
<path d="M38.5033 21.1315C41.8896 17.7452 41.8896 12.2548 38.5033 8.86853C35.117 5.48221 29.6267 5.48221 26.2404 8.86853C22.854 12.2548 22.854 17.7452 26.2404 21.1315C29.6267 24.5178 35.117 24.5178 38.5033 21.1315Z" fill="#FEE475"/>
<path d="M38.3482 20.9764C41.6489 17.6757 41.6489 12.3243 38.3482 9.02357C35.0475 5.72288 29.6961 5.72289 26.3954 9.02357C23.0947 12.3243 23.0947 17.6757 26.3954 20.9764C29.6961 24.2771 35.0475 24.2771 38.3482 20.9764Z" fill="#FED425"/>
<path d="M38.3618 9.03906L26.4114 20.9895C27.2137 21.7869 28.1706 22.4198 29.237 22.8484L40.2207 11.8697C39.7921 10.8032 39.1592 9.84141 38.3618 9.03906Z" fill="#FFE67C"/>
<path d="M40.6092 16.8789L34.2502 23.2379C37.4098 22.5202 39.8916 20.0335 40.6092 16.8789Z" fill="#FFE67C"/>
<path d="M28.22 7.63956L25.0107 10.8489C24.6568 11.4769 24.3777 12.1496 24.1934 12.8623L30.2334 6.82227C29.5207 7.00666 28.848 7.28573 28.22 7.63956Z" fill="#FFE67C"/>
<path d="M37.2504 8.10352L25.4744 19.8795C25.6139 20.0739 25.7584 20.2633 25.9079 20.4427L37.8135 8.53708C37.6291 8.38259 37.4447 8.23807 37.2504 8.10352Z" fill="#FFE67C"/>
<path d="M32.5361 21.2787C35.9187 21.2787 38.6608 18.5366 38.6608 15.154C38.6608 11.7714 35.9187 9.0293 32.5361 9.0293C29.1535 9.0293 26.4114 11.7714 26.4114 15.154C26.4114 18.5366 29.1535 21.2787 32.5361 21.2787Z" fill="#FFE67C"/>
<path d="M36.7026 19.3308C39.0944 16.939 39.0944 13.061 36.7026 10.6692C34.3108 8.27737 30.4328 8.27737 28.041 10.6692C25.6492 13.061 25.6492 16.939 28.041 19.3308C30.4328 21.7226 34.3108 21.7226 36.7026 19.3308Z" fill="#FEB724"/>
<path d="M26.5806 15.3297C26.5806 11.9459 29.3215 9.20499 32.7053 9.20499C34.31 9.20499 35.7702 9.82294 36.8666 10.8346C35.7503 9.62859 34.1506 8.87109 32.3764 8.87109C28.9926 8.87109 26.2517 11.612 26.2517 14.9958C26.2517 16.7699 27.0092 18.3697 28.2152 19.486C27.1986 18.3996 26.5806 16.9394 26.5806 15.3297Z" fill="#FB9D12"/>
<path d="M32.3715 6.65899C37.1058 6.65899 40.9481 10.4514 41.0378 15.1658C41.0378 15.111 41.0428 15.0562 41.0428 15.0014C41.0428 10.2122 37.1606 6.33008 32.3715 6.33008C27.5823 6.33008 23.7002 10.2122 23.7002 15.0014C23.7002 15.0562 23.7052 15.111 23.7052 15.1658C23.7949 10.4564 27.6372 6.65899 32.3715 6.65899Z" fill="white"/>
<path d="M18.3944 21.1334C21.7807 17.7471 21.7807 12.2568 18.3944 8.87048C15.0081 5.48416 9.51779 5.48416 6.13147 8.87048C2.74515 12.2568 2.74515 17.7471 6.13147 21.1334C9.51779 24.5197 15.0081 24.5197 18.3944 21.1334Z" fill="#FEE475"/>
<path d="M18.2393 20.9784C21.54 17.6777 21.54 12.3262 18.2393 9.02553C14.9386 5.72484 9.58717 5.72484 6.28648 9.02553C2.9858 12.3262 2.98579 17.6777 6.28648 20.9784C9.58717 24.2791 14.9386 24.2791 18.2393 20.9784Z" fill="#FED425"/>
<path d="M18.2529 9.04102L6.30249 20.9915C7.10483 21.7888 8.06167 22.4217 9.12814 22.8503L20.1118 11.8716C19.6832 10.8052 19.0503 9.84336 18.2529 9.04102Z" fill="#FFE67C"/>
<path d="M20.5003 16.8809L14.1414 23.2398C17.3009 22.5222 19.7827 20.0354 20.5003 16.8809Z" fill="#FFE67C"/>
<path d="M8.11114 7.64151L4.90177 10.8509C4.54794 11.4788 4.26886 12.1516 4.08447 12.8642L10.1245 6.82422C9.41184 7.00861 8.73906 7.28768 8.11114 7.64151Z" fill="#FFE67C"/>
<path d="M17.1415 8.10547L5.36548 19.8815C5.50502 20.0758 5.64954 20.2652 5.79904 20.4446L17.7046 8.53903C17.5202 8.38455 17.3359 8.24002 17.1415 8.10547Z" fill="#FFE67C"/>
<path d="M12.4272 21.2807C15.8098 21.2807 18.5519 18.5386 18.5519 15.156C18.5519 11.7734 15.8098 9.03125 12.4272 9.03125C9.04462 9.03125 6.30249 11.7734 6.30249 15.156C6.30249 18.5386 9.04462 21.2807 12.4272 21.2807Z" fill="#FFE67C"/>
<path d="M16.5937 19.3327C18.9855 16.9409 18.9855 13.063 16.5937 10.6712C14.2019 8.27933 10.3239 8.27933 7.93211 10.6712C5.54028 13.063 5.54028 16.9409 7.93211 19.3327C10.3239 21.7246 14.2019 21.7246 16.5937 19.3327Z" fill="#FEB724"/>
<path d="M6.47173 15.3317C6.47173 11.9479 9.21266 9.20694 12.5965 9.20694C14.2011 9.20694 15.6613 9.8249 16.7577 10.8365C15.6414 9.63054 14.0417 8.87305 12.2675 8.87305C8.88375 8.87305 6.14282 11.614 6.14282 14.9978C6.14282 16.7719 6.90032 18.3716 8.10632 19.4879C7.08969 18.4015 6.47173 16.9413 6.47173 15.3317Z" fill="#FB9D12"/>
<path d="M12.2626 6.65899C16.9969 6.65899 20.8392 10.4514 20.9289 15.1658C20.9289 15.111 20.9339 15.0562 20.9339 15.0014C20.9339 10.2122 17.0518 6.33008 12.2626 6.33008C7.47346 6.33008 3.59131 10.2122 3.59131 15.0014C3.59131 15.0562 3.59629 15.111 3.59629 15.1658C3.686 10.4564 7.52828 6.65899 12.2626 6.65899Z" fill="white"/>
<path d="M29.6865 22.5C33.8287 18.3579 33.8287 11.6421 29.6865 7.5C25.5444 3.35787 18.8287 3.35786 14.6865 7.5C10.5444 11.6421 10.5444 18.3579 14.6865 22.5C18.8287 26.6421 25.5444 26.6421 29.6865 22.5Z" fill="#FEE475"/>
<path d="M29.4967 22.3103C33.5341 18.273 33.5341 11.727 29.4967 7.68965C25.4593 3.65226 18.9134 3.65226 14.876 7.68965C10.8386 11.727 10.8386 18.273 14.876 22.3103C18.9134 26.3477 25.4593 26.3477 29.4967 22.3103Z" fill="#FED425"/>
<path d="M29.513 7.71094L14.8953 22.3287C15.8767 23.304 17.0471 24.0782 18.3516 24.6024L31.7867 11.1734C31.2625 9.86885 30.4883 8.69236 29.513 7.71094Z" fill="#FFE67C"/>
<path d="M32.2621 17.2988L24.4839 25.0771C28.3486 24.1993 31.3843 21.1575 32.2621 17.2988Z" fill="#FFE67C"/>
<path d="M17.1083 5.99776L13.1826 9.92346C12.7498 10.6915 12.4084 11.5145 12.1829 12.3862L19.571 4.99805C18.6993 5.22359 17.8763 5.56496 17.1083 5.99776Z" fill="#FFE67C"/>
<path d="M28.1534 6.56445L13.749 20.9688C13.9197 21.2066 14.0965 21.4382 14.2794 21.6577L28.8422 7.09479C28.6167 6.90582 28.3912 6.72904 28.1534 6.56445Z" fill="#FFE67C"/>
<path d="M22.387 22.6827C26.5246 22.6827 29.8788 19.3285 29.8788 15.191C29.8788 11.0534 26.5246 7.69922 22.387 7.69922C18.2494 7.69922 14.8953 11.0534 14.8953 15.191C14.8953 19.3285 18.2494 22.6827 22.387 22.6827Z" fill="#FFE67C"/>
<path d="M27.4838 20.2974C30.4095 17.3717 30.4095 12.6283 27.4838 9.70259C24.5581 6.77691 19.8146 6.77691 16.889 9.70259C13.9633 12.6283 13.9633 17.3717 16.889 20.2974C19.8146 23.2231 24.5581 23.2231 27.4838 20.2974Z" fill="#FEB724"/>
<path d="M15.1025 15.4041C15.1025 11.265 18.4552 7.91233 22.5943 7.91233C24.5571 7.91233 26.3432 8.66821 27.6843 9.90566C26.3188 8.43047 24.3621 7.50391 22.1919 7.50391C18.0529 7.50391 14.7002 10.8566 14.7002 14.9957C14.7002 17.1658 15.6268 19.1225 17.1019 20.488C15.8584 19.1591 15.1025 17.373 15.1025 15.4041Z" fill="#FB9D12"/>
<path d="M22.1856 4.79685C27.9766 4.79685 32.6764 9.43576 32.7862 15.2024C32.7862 15.1353 32.7923 15.0683 32.7923 15.0012C32.7923 9.14316 28.0436 4.39453 22.1856 4.39453C16.3275 4.39453 11.5789 9.14316 11.5789 15.0012C11.5789 15.0683 11.585 15.1353 11.585 15.2024C11.6947 9.44186 16.3945 4.79685 22.1856 4.79685Z" fill="#FFE67C"/>
</svg>
