<svg width="229" height="208" viewBox="0 0 229 208" fill="none" xmlns="http://www.w3.org/2000/svg">
<path d="M114 208C160.35 208 197.923 170.426 197.923 124.077C197.923 77.7278 160.35 40.1543 114 40.1543C67.651 40.1543 30.0775 77.7278 30.0775 124.077C30.0775 170.426 67.651 208 114 208Z" fill="#FEE0E0"/>
<defs>
<linearGradient id="paint0_linear_926_8586" x1="71.895" y1="198.098" x2="71.2761" y2="48.1294" gradientUnits="userSpaceOnUse">
<stop stop-color="#E94531"/>
<stop offset="1" stop-color="#F09185"/>
</linearGradient>
<linearGradient id="paint1_linear_926_8586" x1="183.19" y1="36.7507" x2="181.294" y2="52.5885" gradientUnits="userSpaceOnUse">
<stop stop-color="#E94531"/>
<stop offset="1" stop-color="#F09185"/>
</linearGradient>
<linearGradient id="paint2_linear_926_8586" x1="206.228" y1="35.9937" x2="202.783" y2="62.6276" gradientUnits="userSpaceOnUse">
<stop stop-color="#E94531"/>
<stop offset="1" stop-color="#F09185"/>
</linearGradient>
<linearGradient id="paint3_linear_926_8586" x1="205.635" y1="62.5855" x2="204.738" y2="69.3346" gradientUnits="userSpaceOnUse">
<stop stop-color="#E94531"/>
<stop offset="1" stop-color="#F09185"/>
</linearGradient>
<linearGradient id="paint4_linear_926_8586" x1="104.494" y1="49.2348" x2="145.011" y2="20.0769" gradientUnits="userSpaceOnUse">
<stop stop-color="#E94531"/>
<stop offset="1" stop-color="#F09185"/>
</linearGradient>
<linearGradient id="paint5_linear_926_8586" x1="168.543" y1="113.436" x2="168.516" y2="92.0641" gradientUnits="userSpaceOnUse">
<stop stop-color="#E94531"/>
<stop offset="1" stop-color="#F09185"/>
</linearGradient>
</defs>
<path d="M75.4603 130.868L105.142 49.3633L179.563 128.052L108.024 160.892C88.6529 169.785 68.1666 150.896 75.4603 130.868Z" fill="#EE8071"/>
<path d="M75.4603 130.868L105.142 49.3633L179.563 128.052L108.024 160.892C88.6529 169.785 68.1666 150.896 75.4603 130.868Z" fill="url(#paint0_linear_926_8586)"/>
<path d="M151.878 80.0647C162.148 91.0073 170.423 101.853 175.503 110.533C178.044 114.877 179.771 118.655 180.557 121.618C180.949 123.099 181.099 124.351 181.013 125.355C180.926 126.355 180.61 127.075 180.1 127.553C179.591 128.031 178.852 128.302 177.849 128.324C176.842 128.347 175.602 128.118 174.148 127.633C171.241 126.661 167.58 124.699 163.406 121.887C155.064 116.268 144.765 107.323 134.494 96.3803C124.224 85.4377 115.949 74.5924 110.87 65.9117C108.328 61.5678 106.601 57.79 105.816 54.8273C105.423 53.3456 105.273 52.0936 105.36 51.0898C105.446 50.09 105.763 49.3702 106.272 48.8919C106.782 48.4136 107.52 48.1433 108.523 48.1206C109.531 48.0979 110.771 48.3268 112.224 48.8125C115.132 49.7836 118.792 51.7464 122.967 54.5581C131.308 60.1768 141.608 69.1221 151.878 80.0647Z" fill="#1F1F1F" stroke="#1F1F1F"/>
<mask id="mask0_926_8586" style="mask-type:alpha" maskUnits="userSpaceOnUse" x="73" y="64" width="96" height="99">
<path d="M74.9973 130.337L100.11 64.248L168.68 133.736L107.097 160.83C87.6085 169.404 67.4346 150.24 74.9973 130.337Z" fill="#EE7B6D"/>
</mask>
<g mask="url(#mask0_926_8586)">
<path fill-rule="evenodd" clip-rule="evenodd" d="M104.588 115.743C90.2825 96.9726 83.0441 74.5945 80.7095 59.5704L92.2293 57.7734C94.3307 71.2971 100.964 91.7405 113.854 108.654C126.624 125.409 145.306 138.475 171.949 138.475V150.155C140.855 150.155 119.016 134.673 104.588 115.743Z" fill="#1F1F1F"/>
<path fill-rule="evenodd" clip-rule="evenodd" d="M106.124 112.154C91.8181 93.3828 84.5797 71.0046 82.2451 55.9805L93.7649 54.1836C95.8664 67.7072 102.499 88.1506 115.39 105.065C128.16 121.819 143.857 137 170.5 137L173.485 146.566C142.391 146.566 120.551 131.083 106.124 112.154Z" fill="white"/>
<path fill-rule="evenodd" clip-rule="evenodd" d="M87.698 139.335C73.3921 120.564 66.1537 98.1863 63.8191 83.1622L75.3389 81.3652C77.4404 94.8889 84.0733 115.332 96.9641 132.246C109.733 149.001 128.416 162.066 155.059 162.066V173.747C123.965 173.747 102.125 158.265 87.698 139.335Z" fill="white"/>
</g>
<path d="M180.238 51.0994L180.238 51.0992C181.5 47.8925 182.003 44.6958 182.534 41.3269C182.624 40.7523 182.715 40.1728 182.811 39.5874L180.238 51.0994ZM180.238 51.0994C180.05 51.5763 179.509 51.8119 179.034 51.6238L179.031 51.6227C178.554 51.4377 178.319 50.899 178.506 50.4231L178.506 50.423M180.238 51.0994L178.506 50.423M178.506 50.423C179.723 47.3304 180.204 44.2316 180.689 41.1031M178.506 50.423L180.689 41.1031M182.043 38.5217C181.538 38.4383 181.059 38.7822 180.975 39.2891L182.043 38.5217ZM182.043 38.5217C182.551 38.6054 182.894 39.0823 182.811 39.5873L182.043 38.5217ZM180.689 41.1031C180.782 40.4997 180.876 39.8951 180.975 39.2893L180.689 41.1031Z" fill="#FF4040"/>
<path d="M180.238 51.0994L180.238 51.0992C181.5 47.8925 182.003 44.6958 182.534 41.3269C182.624 40.7523 182.715 40.1728 182.811 39.5874L180.238 51.0994ZM180.238 51.0994C180.05 51.5763 179.509 51.8119 179.034 51.6238L179.031 51.6227C178.554 51.4377 178.319 50.899 178.506 50.4231L178.506 50.423M180.238 51.0994L178.506 50.423M178.506 50.423C179.723 47.3304 180.204 44.2316 180.689 41.1031M178.506 50.423L180.689 41.1031M182.043 38.5217C181.538 38.4383 181.059 38.7822 180.975 39.2891L182.043 38.5217ZM182.043 38.5217C182.551 38.6054 182.894 39.0823 182.811 39.5873L182.043 38.5217ZM180.689 41.1031C180.782 40.4997 180.876 39.8951 180.975 39.2893L180.689 41.1031Z" fill="url(#paint1_linear_926_8586)"/>
<path d="M180.238 51.0994L180.238 51.0992C181.5 47.8925 182.003 44.6958 182.534 41.3269C182.624 40.7523 182.715 40.1728 182.811 39.5874L180.238 51.0994ZM180.238 51.0994C180.05 51.5763 179.509 51.8119 179.034 51.6238L179.031 51.6227C178.554 51.4377 178.319 50.899 178.506 50.4231L178.506 50.423M180.238 51.0994L178.506 50.423M178.506 50.423C179.723 47.3304 180.204 44.2316 180.689 41.1031M178.506 50.423L180.689 41.1031M182.043 38.5217C181.538 38.4383 181.059 38.7822 180.975 39.2891L182.043 38.5217ZM182.043 38.5217C182.551 38.6054 182.894 39.0823 182.811 39.5873L182.043 38.5217ZM180.689 41.1031C180.782 40.4997 180.876 39.8951 180.975 39.2893L180.689 41.1031Z" stroke="#FF4040"/>
<path d="M187.664 59.629L187.664 59.6294C187.243 59.9214 186.663 59.8166 186.369 59.396C186.077 58.9784 186.18 58.4011 186.601 58.108C193.81 53.1176 200.873 46.3979 206.126 39.3566L206.126 39.3563C206.431 38.9468 207.015 38.8608 207.429 39.1668C207.839 39.4702 207.925 40.0509 207.62 40.4615C202.256 47.652 195.034 54.524 187.664 59.629Z" fill="#FF4040"/>
<path d="M187.664 59.629L187.664 59.6294C187.243 59.9214 186.663 59.8166 186.369 59.396C186.077 58.9784 186.18 58.4011 186.601 58.108C193.81 53.1176 200.873 46.3979 206.126 39.3566L206.126 39.3563C206.431 38.9468 207.015 38.8608 207.429 39.1668C207.839 39.4702 207.925 40.0509 207.62 40.4615C202.256 47.652 195.034 54.524 187.664 59.629Z" fill="url(#paint2_linear_926_8586)"/>
<path d="M187.664 59.629L187.664 59.6294C187.243 59.9214 186.663 59.8166 186.369 59.396C186.077 58.9784 186.18 58.4011 186.601 58.108C193.81 53.1176 200.873 46.3979 206.126 39.3566L206.126 39.3563C206.431 38.9468 207.015 38.8608 207.429 39.1668C207.839 39.4702 207.925 40.0509 207.62 40.4615C202.256 47.652 195.034 54.524 187.664 59.629Z" stroke="#FF4040"/>
<path d="M207.417 64.4959L207.418 64.4968C207.558 64.9815 207.276 65.496 206.78 65.64C201.004 67.2902 194.661 68.1234 188.888 66.3611C188.396 66.2109 188.121 65.6899 188.27 65.2046L188.27 65.2043C188.419 64.7185 188.939 64.4407 189.431 64.591L189.431 64.591C194.95 66.2749 200.938 65.3826 206.266 63.8585C206.761 63.7185 207.276 64.0048 207.417 64.4959Z" fill="#FF4040"/>
<path d="M207.417 64.4959L207.418 64.4968C207.558 64.9815 207.276 65.496 206.78 65.64C201.004 67.2902 194.661 68.1234 188.888 66.3611C188.396 66.2109 188.121 65.6899 188.27 65.2046L188.27 65.2043C188.419 64.7185 188.939 64.4407 189.431 64.591L189.431 64.591C194.95 66.2749 200.938 65.3826 206.266 63.8585C206.761 63.7185 207.276 64.0048 207.417 64.4959Z" fill="url(#paint3_linear_926_8586)"/>
<path d="M207.417 64.4959L207.418 64.4968C207.558 64.9815 207.276 65.496 206.78 65.64C201.004 67.2902 194.661 68.1234 188.888 66.3611C188.396 66.2109 188.121 65.6899 188.27 65.2046L188.27 65.2043C188.419 64.7185 188.939 64.4407 189.431 64.591L189.431 64.591C194.95 66.2749 200.938 65.3826 206.266 63.8585C206.761 63.7185 207.276 64.0048 207.417 64.4959Z" stroke="#FF4040"/>
<circle cx="189.187" cy="77.0484" r="4.28866" fill="#F4BB1B"/>
<circle cx="153.448" cy="32.732" r="4.28866" fill="#F4BB1B"/>
<path d="M161.699 51.6474C161.329 50.1149 159.149 50.1149 158.779 51.6474L158.3 53.6325C158.168 54.1801 157.74 54.6077 157.192 54.7399L155.207 55.2191C153.675 55.589 153.675 57.7688 155.207 58.1388L157.192 58.6179C157.74 58.7501 158.168 59.1777 158.3 59.7254L158.779 61.7104C159.149 63.2429 161.329 63.2429 161.699 61.7104L162.178 59.7254C162.31 59.1777 162.738 58.7501 163.285 58.6179L165.27 58.1388C166.803 57.7688 166.803 55.589 165.27 55.2191L163.285 54.7399C162.738 54.6077 162.31 54.1801 162.178 53.6325L161.699 51.6474Z" fill="#28ADDE"/>
<path fill-rule="evenodd" clip-rule="evenodd" d="M143.417 18.6606C143.85 19.7627 143.308 21.0075 142.206 21.4409C139.06 22.6779 135.029 26.6626 132.337 31.6223C130.288 35.3976 129.293 39.2102 129.71 42.3305C130.969 40.5336 132.476 39.0597 134.224 38.1129C137.358 36.4157 140.933 36.5958 144.394 38.9544C147.418 41.0152 148.651 43.9477 148.324 46.8695C148.012 49.6631 146.308 52.1886 143.996 53.7752C141.65 55.3854 138.534 56.128 135.32 55.1438C133.498 54.5859 131.751 53.5071 130.152 51.8689C128.626 57.8075 128.681 65.2462 131.203 71.8252C131.626 72.9311 131.073 74.1711 129.968 74.5949C128.862 75.0187 127.622 74.4658 127.198 73.3599C123.873 64.6834 124.305 54.7741 127.016 47.557C126.939 47.4178 126.863 47.2767 126.787 47.1337C123.935 41.7483 125.643 34.9659 128.567 29.5766C131.515 24.1457 136.189 19.1986 140.637 17.4497C141.739 17.0163 142.983 17.5584 143.417 18.6606ZM131.832 47.1883C133.451 49.4889 135.131 50.6008 136.576 51.0431C138.395 51.6001 140.168 51.2006 141.57 50.239C143.005 49.2537 143.908 47.7775 144.062 46.3931C144.203 45.1369 143.764 43.7149 141.979 42.4984C139.716 40.9565 137.858 41.0221 136.267 41.8839C134.68 42.7432 133.11 44.5415 131.832 47.1883Z" fill="#FF4040"/>
<path fill-rule="evenodd" clip-rule="evenodd" d="M143.417 18.6606C143.85 19.7627 143.308 21.0075 142.206 21.4409C139.06 22.6779 135.029 26.6626 132.337 31.6223C130.288 35.3976 129.293 39.2102 129.71 42.3305C130.969 40.5336 132.476 39.0597 134.224 38.1129C137.358 36.4157 140.933 36.5958 144.394 38.9544C147.418 41.0152 148.651 43.9477 148.324 46.8695C148.012 49.6631 146.308 52.1886 143.996 53.7752C141.65 55.3854 138.534 56.128 135.32 55.1438C133.498 54.5859 131.751 53.5071 130.152 51.8689C128.626 57.8075 128.681 65.2462 131.203 71.8252C131.626 72.9311 131.073 74.1711 129.968 74.5949C128.862 75.0187 127.622 74.4658 127.198 73.3599C123.873 64.6834 124.305 54.7741 127.016 47.557C126.939 47.4178 126.863 47.2767 126.787 47.1337C123.935 41.7483 125.643 34.9659 128.567 29.5766C131.515 24.1457 136.189 19.1986 140.637 17.4497C141.739 17.0163 142.983 17.5584 143.417 18.6606ZM131.832 47.1883C133.451 49.4889 135.131 50.6008 136.576 51.0431C138.395 51.6001 140.168 51.2006 141.57 50.239C143.005 49.2537 143.908 47.7775 144.062 46.3931C144.203 45.1369 143.764 43.7149 141.979 42.4984C139.716 40.9565 137.858 41.0221 136.267 41.8839C134.68 42.7432 133.11 44.5415 131.832 47.1883Z" fill="url(#paint4_linear_926_8586)"/>
<path fill-rule="evenodd" clip-rule="evenodd" d="M212.638 102.524C190.162 94.1702 172.96 104.558 167.398 110.434C166.041 111.867 163.779 111.929 162.346 110.572C160.913 109.215 160.851 106.953 162.208 105.52C169.271 98.0584 189.378 86.2536 215.129 95.8245C216.979 96.5122 217.921 98.5694 217.233 100.42C216.546 102.27 214.488 103.212 212.638 102.524Z" fill="#FF4040"/>
<path fill-rule="evenodd" clip-rule="evenodd" d="M212.638 102.524C190.162 94.1702 172.96 104.558 167.398 110.434C166.041 111.867 163.779 111.929 162.346 110.572C160.913 109.215 160.851 106.953 162.208 105.52C169.271 98.0584 189.378 86.2536 215.129 95.8245C216.979 96.5122 217.921 98.5694 217.233 100.42C216.546 102.27 214.488 103.212 212.638 102.524Z" fill="url(#paint5_linear_926_8586)"/>
<path fill-rule="evenodd" clip-rule="evenodd" d="M189.772 110.036C190.274 109.852 190.801 109.608 191.208 109.254C191.692 108.835 191.888 108.294 192.02 107.725C192.19 106.994 192.258 106.215 192.463 105.483C192.539 105.211 192.686 105.108 192.749 105.063C192.907 104.947 193.068 104.916 193.219 104.928C193.398 104.941 193.644 105.011 193.806 105.319C193.829 105.363 193.859 105.431 193.879 105.523C193.894 105.59 193.903 105.802 193.919 105.889C193.958 106.103 193.99 106.318 194.021 106.533C194.122 107.251 194.181 107.861 194.502 108.52C194.939 109.415 195.376 109.963 195.968 110.206C196.541 110.44 197.227 110.396 198.102 110.212C198.185 110.191 198.268 110.174 198.349 110.159C198.735 110.09 199.104 110.35 199.18 110.745C199.256 111.14 199.011 111.525 198.628 111.612C198.548 111.63 198.47 111.647 198.392 111.663C197.209 111.964 195.839 113.038 195.043 113.978C194.798 114.268 194.439 115.079 194.072 115.596C193.802 115.978 193.498 116.229 193.243 116.318C193.072 116.378 192.928 116.369 192.809 116.339C192.636 116.295 192.492 116.198 192.382 116.045C192.322 115.961 192.267 115.849 192.24 115.706C192.227 115.637 192.226 115.461 192.226 115.382C192.152 115.118 192.06 114.86 191.994 114.594C191.835 113.959 191.523 113.556 191.153 113.025C190.807 112.528 190.435 112.215 189.89 111.966C189.819 111.948 189.247 111.804 189.045 111.721C188.75 111.6 188.609 111.397 188.558 111.288C188.471 111.102 188.462 110.94 188.479 110.805C188.505 110.606 188.592 110.435 188.747 110.298C188.842 110.212 188.985 110.129 189.177 110.088C189.325 110.057 189.717 110.038 189.772 110.036ZM193.129 109C193.155 109.061 193.184 109.122 193.214 109.183C193.852 110.494 194.567 111.226 195.435 111.581L195.464 111.593C194.883 112.036 194.357 112.531 193.956 113.006C193.79 113.202 193.571 113.608 193.334 114.024C193.119 113.306 192.768 112.798 192.325 112.163C191.988 111.678 191.634 111.313 191.199 111.016C191.536 110.838 191.858 110.629 192.139 110.386C192.606 109.98 192.914 109.51 193.129 109Z" fill="#28ADDE"/>
<path d="M60.1885 121.294C60.1348 121.745 59.7244 122.066 59.2733 122.009C58.8255 121.952 58.5032 121.539 58.5601 121.087L60.1885 121.294ZM60.1885 121.294L60.685 121.353C60.5985 122.08 59.9371 122.596 59.2108 122.505L59.2102 122.505C58.4894 122.413 57.9728 121.751 58.0639 121.025M60.1885 121.294L60.6847 121.355C61.1407 117.66 62.7068 114.588 65.4715 112.101L65.4717 112.101C66.0128 111.614 66.0593 110.777 65.5725 110.233C65.0878 109.686 64.2503 109.639 63.7074 110.127L58.0639 121.025M58.0639 121.025C58.5994 116.689 60.4545 113.055 63.7073 110.127L58.0639 121.025Z" fill="#011625" stroke="#011625"/>
<path d="M22.3112 128.889L22.3109 128.889C21.3728 128.585 20.9331 127.787 20.8686 126.895C20.8076 126.084 21.0839 125.135 21.2435 124.702C21.5584 123.845 21.9486 123.022 22.4001 122.237C18.7677 117.447 12.3379 116.31 7.35167 119.647L7.35109 119.648C6.74093 120.055 5.92326 119.886 5.51785 119.28L5.51602 119.278L5.51603 119.278C5.11587 118.672 5.27397 117.85 5.88349 117.443C11.8131 113.473 19.4105 114.622 23.9655 119.967C24.3874 119.448 24.8383 118.953 25.3126 118.485L25.3128 118.484C31.2195 112.654 41.1949 112.692 49.6751 118.459L49.6752 118.459C51.0604 119.401 52.2552 120.903 53.2815 122.72C54.3104 124.543 55.1875 126.715 55.9229 129.035C57.2644 133.267 58.178 138.028 58.7969 141.996C59.2402 140.276 59.7595 138.58 60.3226 136.882L60.3226 136.882C60.5694 136.139 60.8152 135.391 61.0618 134.642C64.0005 125.71 67.0474 116.449 73.1096 108.991L73.1108 108.99C73.5731 108.425 74.4052 108.338 74.97 108.805C75.5357 109.269 75.6149 110.103 75.1572 110.667L75.1571 110.667C69.3844 117.77 66.4829 126.604 63.617 135.329C63.3545 136.128 63.0924 136.926 62.8283 137.722L62.8283 137.722C61.8452 140.684 61.0096 143.612 60.4927 146.669L60.4925 146.67C60.4723 146.788 60.452 146.906 60.4318 147.023C60.2938 147.823 60.1588 148.605 60.0645 149.397C60.0647 149.4 60.065 149.403 60.0656 149.408C60.0678 149.427 60.0726 149.454 60.0813 149.493C60.0883 149.524 60.0961 149.556 60.1053 149.593C60.1079 149.604 60.1106 149.615 60.1134 149.627C60.1255 149.676 60.1395 149.734 60.1513 149.795L60.1522 149.8C60.2053 150.087 60.2455 150.407 60.2203 150.674L60.22 150.678C60.1701 151.168 59.9417 151.547 59.6122 151.795L59.6099 151.797C59.3685 151.977 59.0531 152.105 58.6532 152.097L58.6478 152.097L58.6478 152.097C58.3613 152.089 57.8829 152.001 57.5505 151.468C57.5061 151.397 57.4753 151.314 57.4564 151.26C57.4322 151.191 57.4068 151.106 57.3814 151.007C57.3305 150.809 57.2764 150.543 57.232 150.212L57.2319 150.211C57.1878 149.877 57.1346 149.439 57.0709 148.913C56.6461 145.411 55.7489 138.014 53.8947 131.469L53.8947 131.469C53.2103 129.051 52.4127 126.765 51.4633 124.866C50.51 122.958 49.4269 121.489 48.1959 120.652C40.6921 115.549 32.1272 115.479 27.1652 120.375C26.5516 120.98 25.989 121.635 25.4859 122.332C25.6778 122.875 25.8484 123.555 25.9517 124.257C26.0714 125.071 26.1066 125.955 25.9549 126.708L25.9549 126.708C25.7955 127.498 25.4301 128.186 24.8344 128.614L22.3112 128.889ZM22.3112 128.889C23.3653 129.229 24.2073 129.066 24.8342 128.615L22.3112 128.889Z" fill="#011625" stroke="#011625"/>
</svg>
