<svg width="35" height="36" viewBox="0 0 35 36" fill="none" xmlns="http://www.w3.org/2000/svg">
<rect y="0.5" width="35" height="35" rx="12" fill="#FFDEBF"/>
<path fill-rule="evenodd" clip-rule="evenodd" d="M21.9079 13.5146C21.5174 13.1283 21.6229 12.3976 22.1436 11.8825L23.0864 10.9498C23.6071 10.4348 24.3458 10.3304 24.7363 10.7167C25.1268 11.103 25.0213 11.8337 24.5006 12.3488L23.5578 13.2815C23.0371 13.7965 22.2984 13.9009 21.9079 13.5146Z" fill="white"/>
<path fill-rule="evenodd" clip-rule="evenodd" d="M18.5809 13.0419C18.0474 12.9005 17.7695 12.2155 17.9601 11.5119L18.3052 10.2379C18.4958 9.53426 19.0827 9.0785 19.6162 9.2199C20.1496 9.3613 20.4276 10.0463 20.237 10.7499L19.8919 12.024C19.7013 12.7276 19.1144 13.1833 18.5809 13.0419Z" fill="white"/>
<path fill-rule="evenodd" clip-rule="evenodd" d="M22.4475 16.8668C22.5904 17.3945 23.2829 17.6695 23.9942 17.481L25.2821 17.1396C25.9934 16.9511 26.4541 16.3704 26.3112 15.8427C26.1682 15.315 25.4757 15.04 24.7645 15.2286L23.4766 15.5699C22.7653 15.7585 22.3045 16.3391 22.4475 16.8668Z" fill="white"/>
<path fill-rule="evenodd" clip-rule="evenodd" d="M18.9155 22.6393C16.4171 21.3839 14.3705 19.4366 13.0651 17.0693L14.6458 16.1314C15.1412 15.8375 15.3545 15.236 15.1535 14.7003L13.2559 9.6449C13.1038 9.23965 12.7033 8.97904 12.2669 9.00133L10.1354 9.11016C9.93985 9.12015 9.75686 9.16894 9.59295 9.24818C8.98043 9.413 8.52466 9.93606 8.5064 10.5672C8.50214 10.7143 8.5 10.862 8.5 11.0101C8.5 11.5314 8.52655 12.0473 8.57852 12.5565C9.38897 20.4986 16.3664 26.7432 24.9525 26.9993C25.1008 27.0037 25.2447 26.9877 25.3813 26.954C25.9634 27.0183 26.4899 26.5673 26.4899 25.9705L26.4899 25.7529C26.4947 25.7135 26.4979 25.6735 26.4992 25.6332C26.5016 25.562 26.4984 25.4918 26.4899 25.4231L26.4899 23.4797C26.4899 22.8683 26.0847 22.3293 25.4928 22.1533L21.408 20.9391C20.8596 20.776 20.2661 20.9599 19.9095 21.4032L18.9155 22.6393Z" fill="#F9AA62"/>
</svg>
