<svg width="224" height="174" viewBox="0 0 224 174" fill="none" xmlns="http://www.w3.org/2000/svg">
<defs>
<linearGradient id="paint0_linear_926_9837" x1="112.663" y1="94.2069" x2="112.462" y2="22.4086" gradientUnits="userSpaceOnUse">
<stop stop-color="#E94531"/>
<stop offset="1" stop-color="#F09185"/>
</linearGradient>
<linearGradient id="paint1_linear_926_9837" x1="129.745" y1="187.96" x2="110.318" y2="42.0655" gradientUnits="userSpaceOnUse">
<stop offset="0.16" stop-color="#F2CA8C"/>
<stop offset="0.8431" stop-color="#FFE9C9"/>
</linearGradient>
<linearGradient id="paint2_linear_926_9837" x1="96.5933" y1="153.073" x2="80.0137" y2="28.5629" gradientUnits="userSpaceOnUse">
<stop offset="0.0387338" stop-color="#F2CA8C"/>
<stop offset="0.8431" stop-color="#FFE9C9"/>
</linearGradient>
<linearGradient id="paint3_linear_926_9837" x1="69.9349" y1="131.731" x2="69.9349" y2="84.067" gradientUnits="userSpaceOnUse">
<stop stop-color="#FF8600"/>
<stop offset="0.9944" stop-color="#FFC66E"/>
</linearGradient>
<linearGradient id="paint4_linear_926_9837" x1="69.9352" y1="129.965" x2="69.9352" y2="86.4555" gradientUnits="userSpaceOnUse">
<stop stop-color="#FDE49F"/>
<stop offset="0.9944" stop-color="white"/>
</linearGradient>
<linearGradient id="paint5_linear_926_9837" x1="69.9343" y1="128.197" x2="69.9343" y2="88.1099" gradientUnits="userSpaceOnUse">
<stop stop-color="#FBB900"/>
<stop offset="0.9944" stop-color="#FFE26E"/>
</linearGradient>
<linearGradient id="paint6_linear_926_9837" x1="160.64" y1="129.931" x2="160.64" y2="93.1631" gradientUnits="userSpaceOnUse">
<stop stop-color="#FF8600"/>
<stop offset="0.9944" stop-color="#FFC66E"/>
</linearGradient>
<linearGradient id="paint7_linear_926_9837" x1="160.64" y1="128.57" x2="160.64" y2="95.0071" gradientUnits="userSpaceOnUse">
<stop stop-color="#FDE49F"/>
<stop offset="0.9944" stop-color="white"/>
</linearGradient>
<linearGradient id="paint8_linear_926_9837" x1="160.64" y1="127.205" x2="160.64" y2="96.2816" gradientUnits="userSpaceOnUse">
<stop stop-color="#FBB900"/>
<stop offset="0.9944" stop-color="#FFE26E"/>
</linearGradient>
<linearGradient id="paint9_linear_926_9837" x1="18.9504" y1="17.6423" x2="6.9529" y2="-0.264428" gradientUnits="userSpaceOnUse">
<stop offset="0.048268" stop-color="#D30E39"/>
<stop offset="0.0510475" stop-color="#D30F39"/>
<stop offset="0.2778" stop-color="#EB3A5D"/>
<stop offset="0.393" stop-color="#F44B6A"/>
<stop offset="0.8057" stop-color="#FD9FB9"/>
</linearGradient>
<linearGradient id="paint10_linear_926_9837" x1="13.379" y1="56.6614" x2="9.58056" y2="45.9485" gradientUnits="userSpaceOnUse">
<stop offset="0.048268" stop-color="#D30E39"/>
<stop offset="0.0510475" stop-color="#D30F39"/>
<stop offset="0.2778" stop-color="#EB3A5D"/>
<stop offset="0.393" stop-color="#F44B6A"/>
<stop offset="0.8057" stop-color="#FD9FB9"/>
</linearGradient>
<linearGradient id="paint11_linear_926_9837" x1="27.7198" y1="36.4382" x2="17.8715" y2="38.9074" gradientUnits="userSpaceOnUse">
<stop offset="0.1111" stop-color="#FBB900"/>
<stop offset="0.1176" stop-color="#FBBA03"/>
<stop offset="0.2106" stop-color="#FCC829"/>
<stop offset="0.303" stop-color="#FED447"/>
<stop offset="0.3934" stop-color="#FEDC5D"/>
<stop offset="0.481" stop-color="#FFE06A"/>
<stop offset="0.5626" stop-color="#FFE26E"/>
<stop offset="0.6505" stop-color="#FFE473"/>
<stop offset="0.7583" stop-color="#FFE982"/>
<stop offset="0.8766" stop-color="#FFF39B"/>
<stop offset="0.9994" stop-color="#FFFFBD"/>
</linearGradient>
<linearGradient id="paint12_linear_926_9837" x1="24.1961" y1="44.6125" x2="23.9777" y2="37.6875" gradientUnits="userSpaceOnUse">
<stop stop-color="#278CCA"/>
<stop offset="0.2778" stop-color="#27A2D8"/>
<stop offset="0.393" stop-color="#28B1E0"/>
<stop offset="0.8057" stop-color="#69D7FF"/>
</linearGradient>
<linearGradient id="paint13_linear_926_9837" x1="12.5001" y1="32.6795" x2="12.4624" y2="27.2533" gradientUnits="userSpaceOnUse">
<stop stop-color="#278CCA"/>
<stop offset="0.2778" stop-color="#27A2D8"/>
<stop offset="0.393" stop-color="#28B1E0"/>
<stop offset="0.8057" stop-color="#69D7FF"/>
</linearGradient>
<linearGradient id="paint14_linear_926_9837" x1="18.2757" y1="39.8255" x2="17.7335" y2="26.8319" gradientUnits="userSpaceOnUse">
<stop stop-color="#278CCA"/>
<stop offset="0.2778" stop-color="#27A2D8"/>
<stop offset="0.393" stop-color="#28B1E0"/>
<stop offset="0.8057" stop-color="#69D7FF"/>
</linearGradient>
<linearGradient id="paint15_linear_926_9837" x1="3.66696" y1="29.8519" x2="2.69788" y2="11.9562" gradientUnits="userSpaceOnUse">
<stop stop-color="#278CCA"/>
<stop offset="0.2778" stop-color="#27A2D8"/>
<stop offset="0.393" stop-color="#28B1E0"/>
<stop offset="0.8057" stop-color="#69D7FF"/>
</linearGradient>
<linearGradient id="paint16_linear_926_9837" x1="210.947" y1="66.549" x2="187.162" y2="73.7008" gradientUnits="userSpaceOnUse">
<stop offset="0.1111" stop-color="#FBB900"/>
<stop offset="0.1176" stop-color="#FBBA03"/>
<stop offset="0.2106" stop-color="#FCC829"/>
<stop offset="0.303" stop-color="#FED447"/>
<stop offset="0.3934" stop-color="#FEDC5D"/>
<stop offset="0.481" stop-color="#FFE06A"/>
<stop offset="0.5626" stop-color="#FFE26E"/>
<stop offset="0.6505" stop-color="#FFE473"/>
<stop offset="0.7583" stop-color="#FFE982"/>
<stop offset="0.8766" stop-color="#FFF39B"/>
<stop offset="0.9994" stop-color="#FFFFBD"/>
</linearGradient>
<linearGradient id="paint17_linear_926_9837" x1="202.216" y1="83.4371" x2="201.84" y2="69.1257" gradientUnits="userSpaceOnUse">
<stop stop-color="#278CCA"/>
<stop offset="0.2778" stop-color="#27A2D8"/>
<stop offset="0.393" stop-color="#28B1E0"/>
<stop offset="0.8057" stop-color="#69D7FF"/>
</linearGradient>
<linearGradient id="paint18_linear_926_9837" x1="206.961" y1="31.8278" x2="189.74" y2="41.6125" gradientUnits="userSpaceOnUse">
<stop offset="0.1111" stop-color="#FBB900"/>
<stop offset="0.1176" stop-color="#FBBA03"/>
<stop offset="0.2106" stop-color="#FCC829"/>
<stop offset="0.303" stop-color="#FED447"/>
<stop offset="0.3934" stop-color="#FEDC5D"/>
<stop offset="0.481" stop-color="#FFE06A"/>
<stop offset="0.5626" stop-color="#FFE26E"/>
<stop offset="0.6505" stop-color="#FFE473"/>
<stop offset="0.7583" stop-color="#FFE982"/>
<stop offset="0.8766" stop-color="#FFF39B"/>
<stop offset="0.9994" stop-color="#FFFFBD"/>
</linearGradient>
<linearGradient id="paint19_linear_926_9837" x1="199.293" y1="39.6777" x2="199.2" y2="33.0222" gradientUnits="userSpaceOnUse">
<stop stop-color="#278CCA"/>
<stop offset="0.2778" stop-color="#27A2D8"/>
<stop offset="0.393" stop-color="#28B1E0"/>
<stop offset="0.8057" stop-color="#69D7FF"/>
</linearGradient>
<linearGradient id="paint20_linear_926_9837" x1="204.716" y1="46.2863" x2="221.32" y2="48.0953" gradientUnits="userSpaceOnUse">
<stop offset="0.048268" stop-color="#D30E39"/>
<stop offset="0.0510475" stop-color="#D30F39"/>
<stop offset="0.2778" stop-color="#EB3A5D"/>
<stop offset="0.393" stop-color="#F44B6A"/>
<stop offset="0.8057" stop-color="#FD9FB9"/>
</linearGradient>
<linearGradient id="paint21_linear_926_9837" x1="209.132" y1="56.9559" x2="203.898" y2="43.0657" gradientUnits="userSpaceOnUse">
<stop offset="0.048268" stop-color="#D30E39"/>
<stop offset="0.0510475" stop-color="#D30F39"/>
<stop offset="0.2778" stop-color="#EB3A5D"/>
<stop offset="0.393" stop-color="#F44B6A"/>
<stop offset="0.8057" stop-color="#FD9FB9"/>
</linearGradient>
<linearGradient id="paint22_linear_926_9837" x1="220.156" y1="46.8973" x2="221.125" y2="29.0016" gradientUnits="userSpaceOnUse">
<stop offset="0.1943" stop-color="#FD9FB9"/>
<stop offset="0.607" stop-color="#F44B6A"/>
<stop offset="0.7222" stop-color="#EB3A5D"/>
<stop offset="0.949" stop-color="#D30F39"/>
<stop offset="0.9517" stop-color="#D30E39"/>
</linearGradient>
</defs>
<path d="M176.018 64H44.9815C42.7777 64 41 65.7691 41 67.9622V132H180V67.9622C180 65.7837 178.208 64 176.018 64Z" fill="white"/>
<path d="M188.327 55.8619L177.255 84.6383C174.344 83.5208 171.079 84.9618 169.962 87.8733L124.805 70.5074L104.527 62.6994C105.645 59.7879 104.189 56.5236 101.292 55.406L112.365 26.6296C112.732 25.6591 113.35 24.8504 114.1 24.2475C115.614 23.027 117.717 22.63 119.658 23.3799L185.092 48.5685C188.004 49.686 189.445 52.9504 188.327 55.8619Z" fill="url(#paint0_linear_926_9837)"/>
<path d="M173.197 95.1812L144.347 170.159C143.229 173.07 139.965 174.526 137.053 173.394L85.0294 153.366L71.619 148.205C68.7076 147.088 67.2518 143.823 68.3841 140.912L97.2193 65.9342C100.131 67.0517 103.395 65.6107 104.513 62.6992L124.79 70.5072L169.947 87.8878C168.844 90.7993 170.285 94.0636 173.197 95.1812Z" fill="url(#paint1_linear_926_9837)"/>
<path d="M109.821 66.495C110.659 66.8185 111.615 66.392 111.938 65.5539C112.262 64.7157 111.835 63.7599 110.997 63.4365C110.159 63.113 109.203 63.5394 108.88 64.3775C108.556 65.2304 108.968 66.1715 109.821 66.495Z" fill="white"/>
<path d="M116.526 69.0809C117.364 69.4044 118.319 68.978 118.643 68.1398C118.966 67.3017 118.54 66.3459 117.702 66.0224C116.864 65.6989 115.908 66.1253 115.584 66.9635C115.261 67.8016 115.673 68.7574 116.526 69.0809Z" fill="white"/>
<path d="M123.231 71.6551C124.069 71.9786 125.025 71.5522 125.349 70.714C125.672 69.8759 125.246 68.9201 124.408 68.5966C123.569 68.2731 122.614 68.6995 122.29 69.5377C121.967 70.3905 122.393 71.3316 123.231 71.6551Z" fill="white"/>
<path d="M129.936 74.245C130.774 74.5685 131.73 74.142 132.054 73.3039C132.377 72.4657 131.951 71.51 131.112 71.1865C130.274 70.863 129.319 71.2894 128.995 72.1275C128.672 72.9657 129.098 73.9215 129.936 74.245Z" fill="white"/>
<path d="M136.656 76.8192C137.494 77.1427 138.45 76.7162 138.774 75.8781C139.097 75.0399 138.671 74.0842 137.833 73.7607C136.994 73.4372 136.039 73.8636 135.715 74.7017C135.392 75.5546 135.803 76.4957 136.656 76.8192Z" fill="white"/>
<path d="M145.577 78.015C145.659 77.1173 144.998 76.3231 144.1 76.2411C143.202 76.1592 142.408 76.8205 142.326 77.7183C142.244 78.616 142.905 79.4102 143.803 79.4921C144.701 79.5741 145.495 78.9128 145.577 78.015Z" fill="white"/>
<path d="M151.643 81.7717C152.364 81.2305 152.51 80.2074 151.969 79.4864C151.427 78.7655 150.404 78.6197 149.683 79.1608C148.962 79.7019 148.817 80.7251 149.358 81.446C149.899 82.167 150.922 82.3128 151.643 81.7717Z" fill="white"/>
<path d="M158.99 83.1869C159.072 82.2892 158.411 81.495 157.513 81.413C156.615 81.3311 155.821 81.9924 155.739 82.8901C155.657 83.7879 156.319 84.5821 157.216 84.664C158.114 84.746 158.908 84.0847 158.99 83.1869Z" fill="white"/>
<path d="M165.386 86.6107C165.926 85.8891 165.779 84.8662 165.058 84.326C164.336 83.7858 163.313 83.9328 162.773 84.6544C162.233 85.376 162.38 86.3989 163.101 86.9391C163.823 87.4793 164.846 87.3323 165.386 86.6107Z" fill="white"/>
<path d="M122.715 106.652C121.789 109.049 120.142 110.784 117.775 111.828C115.407 112.872 113.011 112.931 110.584 112.004C108.158 111.063 106.408 109.416 105.364 107.049C104.32 104.682 104.247 102.299 105.173 99.9026C106.114 97.4764 107.761 95.7413 110.114 94.6972C112.467 93.6679 114.863 93.6091 117.304 94.5502C119.73 95.4913 121.48 97.1235 122.539 99.4762C123.583 101.829 123.642 104.226 122.715 106.652ZM115.51 106.77C116.481 106.343 117.157 105.652 117.54 104.667C117.922 103.682 117.892 102.696 117.451 101.726C117.01 100.741 116.304 100.064 115.319 99.682C114.334 99.2997 113.349 99.3291 112.378 99.7702C111.393 100.211 110.717 100.917 110.334 101.902C109.952 102.888 109.981 103.858 110.423 104.829C110.864 105.799 111.57 106.461 112.555 106.843C113.555 107.211 114.54 107.196 115.51 106.77ZM139.655 104.49L107.452 130.738L104.129 127.12L136.17 100.755L139.655 104.49ZM138.39 124.356C139.449 126.709 139.508 129.091 138.567 131.532C137.626 133.958 135.979 135.693 133.626 136.737C131.273 137.766 128.877 137.825 126.436 136.884C124.009 135.943 122.26 134.311 121.201 131.958C120.142 129.605 120.083 127.223 121.024 124.782C121.966 122.356 123.612 120.621 125.965 119.577C128.318 118.548 130.715 118.489 133.156 119.43C135.596 120.356 137.346 122.003 138.39 124.356ZM131.376 131.635C132.347 131.208 133.023 130.517 133.406 129.532C133.788 128.547 133.758 127.562 133.317 126.591C132.876 125.606 132.17 124.929 131.185 124.547C130.2 124.165 129.215 124.194 128.244 124.635C127.259 125.076 126.583 125.782 126.2 126.767C125.818 127.753 125.847 128.723 126.289 129.694C126.73 130.664 127.436 131.326 128.421 131.708C129.421 132.076 130.406 132.061 131.376 131.635Z" fill="#D8AB71"/>
<path d="M124.082 52.2347C122.906 52.867 121.627 52.9111 120.23 52.367C118.906 51.8524 117.965 51.0142 117.421 49.8379C116.877 48.6615 116.862 47.4116 117.362 46.0882C117.877 44.7501 118.73 43.8385 119.936 43.3532C121.127 42.868 122.391 42.8827 123.715 43.3973C124.332 43.6326 124.891 43.9708 125.391 44.4266C125.891 44.8678 126.229 45.353 126.42 45.8824L124.479 46.7352C124.391 46.4117 124.215 46.1176 123.965 45.8677C123.7 45.6177 123.406 45.4265 123.053 45.2942C122.332 45.0148 121.656 45.0442 121.009 45.353C120.362 45.6618 119.891 46.2059 119.597 46.9558C119.303 47.7204 119.289 48.4409 119.553 49.1026C119.818 49.7643 120.303 50.2349 121.024 50.4995C121.818 50.8083 122.538 50.7495 123.171 50.3231L124.082 52.2347Z" fill="white"/>
<path d="M134.904 52.8236C134.39 54.1617 133.537 55.0881 132.331 55.588C131.14 56.088 129.861 56.088 128.508 55.5586C127.17 55.0439 126.214 54.1911 125.67 53.0147C125.111 51.8384 125.096 50.5885 125.611 49.2357C126.126 47.8829 126.979 46.9712 128.17 46.5007C129.346 46.0302 130.625 46.0449 131.963 46.5595C133.316 47.0889 134.272 47.9123 134.831 49.0593C135.404 50.2209 135.419 51.4708 134.904 52.8236ZM132.699 51.9707C132.993 51.2208 132.993 50.5003 132.728 49.8386C132.463 49.1769 131.963 48.7064 131.258 48.427C130.537 48.1476 129.861 48.177 129.228 48.4858C128.581 48.7946 128.126 49.3387 127.831 50.0886C127.537 50.8532 127.523 51.5737 127.773 52.2501C128.037 52.9265 128.523 53.3971 129.243 53.6764C129.964 53.9558 130.64 53.9264 131.287 53.6029C131.934 53.2941 132.405 52.7354 132.699 51.9707Z" fill="white"/>
<path d="M143.065 57.2057C142.668 58.235 142.021 58.9408 141.095 59.3085C140.183 59.6908 139.169 59.6614 138.066 59.2349C136.963 58.8085 136.198 58.1468 135.787 57.2646C135.375 56.3823 135.36 55.4265 135.757 54.3825L137.801 49.0742L139.845 49.8683L137.86 55.0148C137.669 55.5147 137.639 55.9853 137.772 56.4264C137.904 56.8675 138.242 57.1763 138.786 57.3822C139.33 57.588 139.801 57.588 140.183 57.3528C140.566 57.1175 140.86 56.7499 141.066 56.2499L143.051 51.1034L145.109 51.8975L143.065 57.2057Z" fill="white"/>
<path d="M152.226 57.6454C151.991 58.2777 151.623 58.7335 151.138 59.0276C150.653 59.3217 150.138 59.454 149.579 59.4393C149.035 59.4099 148.432 59.2776 147.8 59.0423L146.771 58.6453L145.535 61.8655L143.477 61.0715L146.756 52.543L149.888 53.7487C150.903 54.131 151.623 54.6604 152.079 55.3074C152.535 55.9397 152.579 56.719 152.226 57.6454ZM150.167 56.8661C150.417 56.2191 150.064 55.7044 149.094 55.3368L148.197 54.9839L147.418 56.9984L148.285 57.3366C149.27 57.7189 149.903 57.5572 150.167 56.8661Z" fill="white"/>
<path d="M161.74 63.1439C161.225 64.482 160.372 65.4084 159.166 65.9083C157.975 66.4083 156.696 66.4083 155.343 65.8789C154.005 65.3643 153.049 64.5114 152.505 63.3351C151.947 62.1587 151.932 60.9088 152.447 59.556C152.961 58.2032 153.814 57.2916 155.005 56.821C156.182 56.3505 157.461 56.3652 158.799 56.8798C160.152 57.4092 161.107 58.2326 161.666 59.3796C162.24 60.5559 162.254 61.7911 161.74 63.1439ZM159.534 62.291C159.828 61.5411 159.828 60.8206 159.564 60.1589C159.299 59.4972 158.799 59.0267 158.093 58.7473C157.373 58.4679 156.696 58.4973 156.064 58.8061C155.417 59.1149 154.961 59.659 154.667 60.4089C154.373 61.1735 154.358 61.894 154.608 62.5704C154.873 63.2468 155.358 63.7174 156.079 63.9968C156.799 64.2761 157.475 64.2467 158.122 63.9232C158.769 63.6144 159.24 63.0704 159.534 62.291Z" fill="white"/>
<path d="M169.195 70.9549L166.857 70.058L165.578 63.1616L165.549 63.1469L163.446 68.7346L161.446 67.9699L164.725 59.4414L167.078 60.3384L168.357 67.22L168.387 67.2347L170.475 61.6471L172.475 62.4117L169.195 70.9549Z" fill="white"/>
<path opacity="0.23" d="M137.492 133.87L87.0267 145.559L73.6163 140.398C70.7049 139.281 69.2491 136.016 70.3814 133.105L99.2313 58.1126C102.143 59.2302 105.407 57.7892 106.525 54.8777C107.642 51.9662 106.187 48.7019 103.29 47.5843L114.362 18.8079C114.73 17.8374 115.347 17.0287 116.097 16.4258L121.053 37.8353C118.009 38.5411 116.127 41.5702 116.832 44.614C117.538 47.6578 120.567 49.54 123.611 48.8342L126.817 62.6857L141.727 127.091C142.433 130.135 140.536 133.164 137.492 133.87Z" fill="#703800"/>
<path d="M37.4148 52.7743L30.4597 22.7333C29.7539 19.6895 31.6507 16.6604 34.6945 15.9546L102.996 0.147407C106.04 -0.558402 109.069 1.33846 109.775 4.38226L116.73 34.4233C113.686 35.1291 111.804 38.1582 112.51 41.202L44.1935 57.0092C43.4877 53.9654 40.4586 52.0832 37.4148 52.7743Z" fill="#F4BB1B"/>
<path d="M58.0896 142.044L39.9591 63.7725C43.0029 63.0667 44.8851 60.0376 44.1793 56.9938L112.496 41.1719C113.202 44.2157 116.231 46.0978 119.274 45.392L137.39 123.649C138.096 126.692 136.199 129.722 133.155 130.427L64.8536 146.249C61.8245 146.97 58.7807 145.073 58.0896 142.044Z" fill="url(#paint2_linear_926_9837)"/>
<path d="M50.7076 57.1875C51.5899 56.9816 52.1339 56.0994 51.9281 55.2171C51.7222 54.3348 50.84 53.7908 49.9577 53.9966C49.0754 54.2025 48.5314 55.0848 48.7372 55.967C48.9431 56.8346 49.8254 57.3786 50.7076 57.1875Z" fill="white"/>
<path d="M57.7071 55.5547C58.5894 55.3488 59.1335 54.4665 58.9276 53.5843C58.7217 52.702 57.8395 52.158 56.9572 52.3638C56.075 52.5697 55.5309 53.4519 55.7367 54.3342C55.9426 55.2165 56.8249 55.7605 57.7071 55.5547Z" fill="white"/>
<path d="M65.3838 53.6021C66.0781 53.0272 66.1748 51.9983 65.5999 51.304C65.025 50.6097 63.9961 50.513 63.3018 51.0879C62.6075 51.6628 62.5108 52.6917 63.0857 53.386C63.6606 54.0803 64.6895 54.1771 65.3838 53.6021Z" fill="white"/>
<path d="M72.8311 51.3809C73.1963 50.5567 72.8242 49.5925 72 49.2274C71.1758 48.8622 70.2117 49.2343 69.8465 50.0585C69.4813 50.8826 69.8534 51.8468 70.6776 52.212C71.5018 52.5772 72.4659 52.205 72.8311 51.3809Z" fill="white"/>
<path d="M78.719 50.7031C79.6012 50.4972 80.1453 49.615 79.9394 48.7327C79.7336 47.8505 78.8513 47.3064 77.9691 47.5123C77.0868 47.7181 76.5427 48.6004 76.7486 49.4826C76.9545 50.3502 77.8367 50.8943 78.719 50.7031Z" fill="white"/>
<path d="M85.7185 49.0703C86.6008 48.8644 87.1448 47.9822 86.939 47.0999C86.7331 46.2176 85.8508 45.6736 84.9686 45.8795C84.0863 46.0853 83.5422 46.9676 83.7481 47.8498C83.954 48.7321 84.8362 49.2762 85.7185 49.0703Z" fill="white"/>
<path d="M92.7177 47.4531C93.6 47.2473 94.1441 46.365 93.9382 45.4827C93.7324 44.6005 92.8501 44.0564 91.9678 44.2623C91.0856 44.4681 90.5415 45.3504 90.7474 46.2327C90.9532 47.1149 91.8355 47.659 92.7177 47.4531Z" fill="white"/>
<path d="M99.7173 45.8359C100.6 45.6301 101.144 44.7478 100.938 43.8655C100.732 42.9833 99.8496 42.4392 98.9673 42.6451C98.0851 42.8509 97.541 43.7332 97.7469 44.6155C97.9674 45.483 98.835 46.0418 99.7173 45.8359Z" fill="white"/>
<path d="M106.731 44.2031C107.614 43.9973 108.158 43.115 107.952 42.2327C107.746 41.3505 106.864 40.8064 105.982 41.0123C105.099 41.2181 104.555 42.1004 104.761 42.9826C104.967 43.8649 105.849 44.409 106.731 44.2031Z" fill="white"/>
<path d="M83.8791 83.2103C84.4526 85.7101 84.0703 88.0628 82.688 90.2684C81.3205 92.4594 79.3649 93.8563 76.821 94.4445C74.2771 95.0326 71.9097 94.6356 69.7188 93.2681C67.5278 91.9006 66.1309 89.9596 65.5575 87.4599C64.9693 84.916 65.3663 82.5633 66.7338 80.3871C68.1013 78.2109 70.057 76.8286 72.6008 76.2405C75.1447 75.6523 77.4974 76.0346 79.703 77.3874C81.9087 78.7255 83.2909 80.6665 83.8791 83.2103ZM77.9826 87.3423C78.5561 86.4453 78.7179 85.4895 78.4826 84.4602C78.2473 83.4309 77.6738 82.6369 76.7622 82.0634C75.8505 81.4899 74.88 81.3282 73.8507 81.5635C72.8214 81.7987 72.0274 82.3722 71.4539 83.2839C70.8804 84.1955 70.7187 85.166 70.9539 86.1953C71.1892 87.2246 71.7627 88.0187 72.6744 88.5627C73.586 89.1215 74.5418 89.2685 75.5711 89.0333C76.6151 88.798 77.4092 88.2392 77.9826 87.3423ZM96.7013 71.9174L84.7467 111.707L79.9677 110.575L91.7312 70.7852L96.7013 71.9174ZM106.803 89.0774C108.994 90.4302 110.391 92.3712 110.979 94.915C111.567 97.4589 111.17 99.8116 109.803 101.988C108.435 104.164 106.48 105.546 103.936 106.134C101.392 106.723 99.0393 106.34 96.8336 104.987C94.6427 103.635 93.2458 101.694 92.6576 99.1499C92.0694 96.606 92.4664 94.2533 93.8339 92.0771C95.2015 89.9008 97.1571 88.5186 99.701 87.9304C102.245 87.3423 104.598 87.7246 106.803 89.0774ZM105.068 99.0469C105.642 98.15 105.803 97.1942 105.568 96.1649C105.333 95.1356 104.759 94.3415 103.848 93.7681C102.936 93.1946 101.965 93.0329 100.936 93.2681C99.9068 93.5034 99.1128 94.0769 98.5393 94.9885C97.9659 95.9002 97.8041 96.8707 98.0394 97.9C98.2747 98.9293 98.8481 99.7233 99.7598 100.267C100.671 100.826 101.627 100.973 102.657 100.738C103.701 100.503 104.495 99.9439 105.068 99.0469Z" fill="#D8AB71"/>
<path d="M55.1509 36.6884C54.5333 37.8647 53.4893 38.6146 52.0336 38.9528C50.6513 39.2763 49.4015 39.0999 48.2987 38.4382C47.1958 37.7765 46.4753 36.7472 46.1518 35.365C45.8283 33.9681 46.0195 32.7329 46.74 31.6595C47.4605 30.586 48.5045 29.8949 49.8867 29.5714C50.5337 29.4244 51.1807 29.395 51.8424 29.4832C52.5041 29.5714 53.0629 29.7773 53.5187 30.1155L52.4012 31.9094C52.1512 31.6889 51.8424 31.5418 51.4895 31.483C51.1366 31.4242 50.7837 31.4242 50.4161 31.5124C49.6662 31.6889 49.1221 32.0859 48.7545 32.7182C48.3869 33.3505 48.2986 34.0563 48.4898 34.8356C48.681 35.6443 49.0633 36.2472 49.6514 36.6442C50.2396 37.0413 50.9013 37.1589 51.6512 36.9824C52.4747 36.7913 53.0334 36.3502 53.3275 35.6443L55.1509 36.6884Z" fill="white"/>
<path d="M64.4296 31.1024C64.7531 32.4993 64.562 33.7492 63.8562 34.8373C63.1503 35.9255 62.0916 36.6313 60.68 36.9548C59.2831 37.2783 58.0185 37.1018 56.901 36.4401C55.7835 35.7784 55.063 34.7491 54.7395 33.3522C54.416 31.9406 54.6071 30.7054 55.3276 29.6614C56.0334 28.6027 57.1069 27.9116 58.5038 27.5881C59.9154 27.2646 61.18 27.4116 62.2828 28.0439C63.4003 28.6762 64.1061 29.6908 64.4296 31.1024ZM62.1357 31.6318C61.9593 30.8377 61.5623 30.2496 60.9741 29.8526C60.3712 29.4555 59.7095 29.3379 58.9596 29.5144C58.2097 29.6908 57.6656 30.0878 57.3127 30.7054C56.9598 31.323 56.8716 32.0288 57.048 32.8228C57.2392 33.6316 57.6215 34.2345 58.2244 34.6462C58.8126 35.0579 59.489 35.1755 60.2389 34.9991C60.9888 34.8226 61.5329 34.4256 61.9005 33.7933C62.2387 33.161 62.3269 32.4405 62.1357 31.6318Z" fill="white"/>
<path d="M73.6643 30.1598C73.9142 31.2332 73.7672 32.1743 73.2231 32.9978C72.6791 33.8212 71.8262 34.3653 70.6646 34.6299C69.5029 34.8946 68.503 34.777 67.6649 34.277C66.8267 33.7771 66.2827 32.9831 66.0327 31.9096L64.7534 26.3661L66.8856 25.8661L68.1354 31.2332C68.2531 31.7626 68.503 32.1743 68.8559 32.4537C69.2088 32.7331 69.6794 32.8213 70.2381 32.689C70.8116 32.5566 71.1939 32.2919 71.3851 31.8802C71.5762 31.4685 71.6056 30.998 71.488 30.4686L70.2381 25.1015L72.385 24.6016L73.6643 30.1598Z" fill="white"/>
<path d="M81.4858 25.3975C81.6329 26.0445 81.5888 26.6327 81.3535 27.1473C81.1182 27.662 80.7653 28.059 80.2948 28.3531C79.8242 28.6472 79.2655 28.8678 78.6038 29.0148L77.5304 29.2648L78.3097 32.6174L76.1629 33.1173L74.1042 24.2212L77.3686 23.4713C78.4273 23.2213 79.3243 23.2507 80.0448 23.5301C80.7947 23.8095 81.2653 24.427 81.4858 25.3975ZM79.339 25.8975C79.1772 25.2211 78.6038 25.0005 77.5892 25.2358L76.6481 25.4563L77.1333 27.5591L78.045 27.3532C79.0743 27.1032 79.5155 26.618 79.339 25.8975Z" fill="white"/>
<path d="M92.4555 24.6181C92.779 26.015 92.5878 27.2648 91.882 28.353C91.1762 29.4411 90.1175 30.1469 88.7059 30.4704C87.309 30.7939 86.0444 30.6174 84.9269 29.9557C83.8093 29.294 83.0888 28.2647 82.7653 26.8678C82.4418 25.4562 82.633 24.221 83.3535 23.177C84.0593 22.1183 85.1327 21.4272 86.5297 21.1037C87.9413 20.7802 89.2058 20.9273 90.3087 21.5595C91.4115 22.1918 92.1173 23.2064 92.4555 24.6181ZM90.1469 25.1474C89.9705 24.3534 89.5735 23.7652 88.9853 23.3682C88.3824 22.9712 87.7207 22.8535 86.9708 23.03C86.2209 23.2064 85.6768 23.6034 85.3239 24.221C84.971 24.8386 84.8828 25.5444 85.0592 26.3385C85.2504 27.1472 85.6327 27.7501 86.2356 28.1618C86.8237 28.5735 87.5001 28.6912 88.2501 28.5147C89 28.3383 89.544 27.9412 89.9117 27.3089C90.2499 26.6767 90.3381 25.9562 90.1469 25.1474Z" fill="white"/>
<path d="M102.999 26.8961L100.558 27.4549L95.632 22.4701L95.5879 22.4848L96.9848 28.2931L94.8967 28.7783L92.8381 19.8822L95.2938 19.3087L100.205 24.2935L100.249 24.2788L98.8522 18.4852L100.94 18L102.999 26.8961Z" fill="white"/>
<path opacity="0.23" d="M92.658 106.151C92.658 115.738 85.9676 123.767 76.9979 125.811C75.5422 126.134 74.0423 126.311 72.4984 126.311C70.4692 126.311 68.5282 126.017 66.6754 125.458C65.8226 125.208 64.9991 124.899 64.2051 124.531C61.3819 123.252 58.9115 121.355 56.9558 118.988C56.3824 118.297 55.8677 117.576 55.3825 116.812C54.3385 115.135 53.5297 113.297 53.0004 111.342C52.5592 109.68 52.324 107.945 52.324 106.136C52.324 96.6666 58.8674 88.7116 67.6753 86.55C69.2193 86.1677 70.8368 85.9766 72.4837 85.9766C72.866 85.9766 73.2336 85.9913 73.6012 86.006C74.5129 86.0501 75.3951 86.1677 76.2627 86.3295C79.3506 86.9176 82.1885 88.2116 84.6001 90.035C85.3059 90.5643 85.9676 91.1378 86.5998 91.7554C89.0555 94.1669 90.9082 97.2107 91.8787 100.637C92.3934 102.401 92.658 104.239 92.658 106.151Z" fill="#703800"/>
<path d="M90.099 106.46C90.099 116.047 83.4085 124.075 74.4388 126.119C72.9831 126.443 71.4832 126.619 69.9393 126.619C67.9101 126.619 65.9691 126.325 64.1163 125.766C63.2635 125.516 62.4401 125.208 61.646 124.84C58.8228 123.561 56.3524 121.664 54.3968 119.296C53.8233 118.605 53.3086 117.885 52.8234 117.12C51.7794 115.444 50.9706 113.606 50.4413 111.65C50.0002 109.989 49.7649 108.253 49.7649 106.445C49.7649 96.9752 56.3083 89.0202 65.1163 86.8586C66.6602 86.4763 68.2777 86.2852 69.9246 86.2852C70.3069 86.2852 70.6745 86.2999 71.0421 86.3146C71.9538 86.3587 72.836 86.4763 73.7036 86.6381C76.7915 87.2262 79.6295 88.5202 82.041 90.3436C82.7468 90.8729 83.4085 91.4464 84.0408 92.064C86.4964 94.4755 88.3491 97.5193 89.3196 100.945C89.8343 102.71 90.099 104.548 90.099 106.46Z" fill="url(#paint3_linear_926_9837)"/>
<path d="M69.9397 124.062C79.6606 124.062 87.5409 116.181 87.5409 106.46C87.5409 96.7397 79.6606 88.8594 69.9397 88.8594C60.2189 88.8594 52.3386 96.7397 52.3386 106.46C52.3386 116.181 60.2189 124.062 69.9397 124.062Z" fill="url(#paint4_linear_926_9837)"/>
<path d="M69.9389 121.503C78.2467 121.503 84.9815 114.768 84.9815 106.461C84.9815 98.1528 78.2467 91.418 69.9389 91.418C61.6311 91.418 54.8964 98.1528 54.8964 106.461C54.8964 114.768 61.6311 121.503 69.9389 121.503Z" fill="url(#paint5_linear_926_9837)"/>
<path opacity="0.3" d="M82.0564 90.3578L61.6321 124.854C58.8088 123.575 56.3385 121.678 54.3828 119.311L73.719 86.6523C76.807 87.2405 79.6449 88.5345 82.0564 90.3578Z" fill="white"/>
<path opacity="0.3" d="M89.3347 100.96L74.4392 126.119C72.9834 126.442 71.4836 126.619 69.9396 126.619C67.9104 126.619 65.9694 126.325 64.1167 125.766L84.0705 92.0781C86.5261 94.5043 88.3642 97.5482 89.3347 100.96Z" fill="white"/>
<path opacity="0.3" d="M71.0574 86.3294L52.824 117.135C51.78 115.459 50.9713 113.621 50.4419 111.665L65.1169 86.8882C66.6608 86.5058 68.2783 86.3147 69.9252 86.3147C70.3075 86.3 70.6898 86.3147 71.0574 86.3294Z" fill="white"/>
<path d="M67.7046 105.698C68.6604 104.742 69.1456 103.58 69.1456 102.228C69.1456 100.86 68.6604 99.6985 67.7046 98.7427C66.7488 97.8017 65.5725 97.3164 64.2197 97.3164C62.8669 97.3164 61.6905 97.8017 60.7347 98.7427C59.7789 99.6838 59.2937 100.86 59.2937 102.228C59.2937 103.566 59.7789 104.742 60.7347 105.698C61.6905 106.654 62.8669 107.139 64.2197 107.139C65.5725 107.139 66.7488 106.654 67.7046 105.698ZM65.249 103.242C64.9549 103.522 64.6167 103.669 64.2197 103.669C63.8226 103.669 63.4844 103.536 63.1904 103.242C62.8963 102.963 62.7639 102.625 62.7639 102.228C62.7639 101.831 62.911 101.492 63.1904 101.198C63.4844 100.904 63.8079 100.772 64.2197 100.772C64.6167 100.772 64.9549 100.919 65.249 101.198C65.5431 101.492 65.6754 101.816 65.6754 102.228C65.6754 102.625 65.5284 102.948 65.249 103.242Z" fill="#E6A225"/>
<path d="M79.1445 107.18C78.1888 106.239 77.0124 105.754 75.6596 105.754C74.3068 105.754 73.1305 106.239 72.1747 107.18C71.2189 108.136 70.7336 109.298 70.7336 110.665C70.7336 112.033 71.2189 113.194 72.1747 114.15C73.1305 115.091 74.3068 115.576 75.6596 115.576C77.0124 115.576 78.1888 115.091 79.1445 114.15C80.1003 113.209 80.5856 112.033 80.5856 110.665C80.5856 109.298 80.1003 108.121 79.1445 107.18ZM76.6742 111.665C76.3801 111.944 76.0419 112.091 75.6449 112.091C75.2479 112.091 74.9097 111.959 74.6156 111.665C74.3215 111.386 74.1892 111.047 74.1892 110.65C74.1892 110.253 74.3362 109.915 74.6156 109.621C74.9097 109.327 75.2332 109.195 75.6449 109.195C76.0419 109.195 76.3801 109.342 76.6742 109.621C76.9683 109.915 77.1006 110.239 77.1006 110.65C77.1153 111.062 76.9683 111.386 76.6742 111.665Z" fill="#E6A225"/>
<path d="M76.3662 98.1967C76.3368 98.0938 76.2632 98.0056 76.1603 97.9467L73.9399 96.8733C73.7488 96.7851 73.5135 96.8586 73.4106 97.0351L63.5734 114.43C63.5146 114.533 63.4998 114.636 63.544 114.754C63.5734 114.857 63.6469 114.945 63.7498 115.004L65.8672 116.048C65.9261 116.077 65.9849 116.092 66.0437 116.092C66.1907 116.092 66.3231 116.018 66.3966 115.886L76.3368 98.5202C76.3956 98.4173 76.4103 98.2996 76.3662 98.1967Z" fill="#E6A225"/>
<path d="M68.7481 102.227C68.7481 103.462 68.3069 104.521 67.4247 105.403C66.5424 106.285 65.469 106.727 64.2191 106.727C62.9693 106.727 61.8958 106.285 61.0136 105.403C60.1313 104.521 59.6902 103.462 59.6902 102.227C59.6902 100.977 60.1313 99.9037 61.0136 99.0361C61.8958 98.1686 62.9693 97.7274 64.2191 97.7274C65.469 97.7274 66.5424 98.1686 67.4247 99.0361C68.3069 99.9037 68.7481 100.977 68.7481 102.227ZM65.5278 103.521C65.8954 103.168 66.0719 102.727 66.0719 102.227C66.0719 101.712 65.8954 101.286 65.5278 100.918C65.1602 100.551 64.7191 100.374 64.2191 100.374C63.7045 100.374 63.2781 100.551 62.9104 100.918C62.5428 101.286 62.3664 101.727 62.3664 102.227C62.3664 102.742 62.5428 103.168 62.9104 103.521C63.2781 103.874 63.7192 104.05 64.2191 104.05C64.7191 104.065 65.1602 103.874 65.5278 103.521ZM75.9826 98.3156L66.0425 115.681L63.925 114.637L73.7623 97.2422L75.9826 98.3156ZM78.8647 107.462C79.7469 108.329 80.1881 109.403 80.1881 110.653C80.1881 111.902 79.7469 112.976 78.8647 113.843C77.9824 114.711 76.909 115.152 75.6591 115.152C74.4092 115.152 73.3358 114.711 72.4536 113.843C71.5713 112.976 71.1302 111.902 71.1302 110.653C71.1302 109.403 71.5713 108.329 72.4536 107.462C73.3358 106.594 74.4092 106.153 75.6591 106.153C76.909 106.153 77.9824 106.594 78.8647 107.462ZM76.9678 111.961C77.3354 111.608 77.5119 111.167 77.5119 110.667C77.5119 110.153 77.3354 109.726 76.9678 109.359C76.6002 108.991 76.1591 108.815 75.6591 108.815C75.1445 108.815 74.718 108.991 74.3504 109.359C73.9828 109.726 73.8064 110.167 73.8064 110.667C73.8064 111.182 73.9828 111.608 74.3504 111.961C74.718 112.314 75.1592 112.491 75.6591 112.491C76.1591 112.491 76.6002 112.314 76.9678 111.961Z" fill="white"/>
<path opacity="0.23" d="M173.913 110.445C173.913 117.841 168.752 124.032 161.841 125.605C160.723 125.855 159.562 126.002 158.371 126.002C156.812 126.002 155.297 125.767 153.886 125.34C153.224 125.149 152.592 124.899 151.974 124.62C149.798 123.635 147.886 122.164 146.387 120.356C145.945 119.826 145.548 119.267 145.181 118.679C144.372 117.385 143.755 115.974 143.343 114.459C143.005 113.18 142.813 111.842 142.813 110.445C142.813 103.137 147.857 97.0051 154.65 95.3435C155.842 95.0494 157.091 94.9023 158.371 94.9023C158.665 94.9023 158.944 94.917 159.238 94.9318C159.944 94.9759 160.62 95.0494 161.297 95.1817C163.679 95.6376 165.87 96.6228 167.723 98.0344C168.267 98.4461 168.781 98.8872 169.267 99.3725C171.163 101.24 172.59 103.593 173.34 106.225C173.707 107.548 173.913 108.974 173.913 110.445Z" fill="#703800"/>
<path d="M176.192 110.445C176.192 117.841 171.031 124.032 164.12 125.605C163.002 125.855 161.841 126.002 160.65 126.002C159.091 126.002 157.577 125.767 156.165 125.34C155.503 125.149 154.871 124.899 154.253 124.62C152.077 123.635 150.166 122.164 148.666 120.356C148.225 119.826 147.828 119.267 147.46 118.679C146.651 117.385 146.034 115.974 145.622 114.459C145.284 113.18 145.093 111.842 145.093 110.445C145.093 103.137 150.136 97.0051 156.93 95.3435C158.121 95.0494 159.37 94.9023 160.65 94.9023C160.944 94.9023 161.223 94.917 161.517 94.9318C162.223 94.9759 162.9 95.0494 163.576 95.1817C165.958 95.6376 168.149 96.6228 170.002 98.0344C170.546 98.4461 171.06 98.8872 171.546 99.3725C173.443 101.24 174.869 103.593 175.619 106.225C175.986 107.548 176.192 108.974 176.192 110.445Z" fill="url(#paint6_linear_926_9837)"/>
<path d="M160.635 124.019C168.13 124.019 174.207 117.943 174.207 110.447C174.207 102.951 168.13 96.875 160.635 96.875C153.139 96.875 147.062 102.951 147.062 110.447C147.062 117.943 153.139 124.019 160.635 124.019Z" fill="url(#paint7_linear_926_9837)"/>
<path d="M160.635 122.047C167.043 122.047 172.237 116.853 172.237 110.445C172.237 104.038 167.043 98.8438 160.635 98.8438C154.228 98.8438 149.033 104.038 149.033 110.445C149.033 116.853 154.228 122.047 160.635 122.047Z" fill="url(#paint8_linear_926_9837)"/>
<path opacity="0.3" d="M170.001 98.0206L154.252 124.621C152.076 123.636 150.164 122.165 148.665 120.357L163.56 95.168C165.942 95.6091 168.133 96.609 170.001 98.0206Z" fill="white"/>
<path opacity="0.3" d="M175.603 106.196L164.119 125.606C163.001 125.856 161.839 126.003 160.648 126.003C159.09 126.003 157.575 125.767 156.164 125.341L171.544 99.3438C173.441 101.211 174.853 103.564 175.603 106.196Z" fill="white"/>
<path opacity="0.3" d="M161.501 94.9189L147.429 118.681C146.621 117.387 146.003 115.976 145.591 114.461L156.914 95.3453C158.105 95.0512 159.355 94.9042 160.634 94.9042C160.928 94.8895 161.222 94.8895 161.501 94.9189Z" fill="white"/>
<path d="M158.914 109.845C159.649 109.11 160.031 108.213 160.031 107.169C160.031 106.125 159.664 105.213 158.914 104.478C158.179 103.743 157.267 103.375 156.223 103.375C155.179 103.375 154.267 103.743 153.532 104.478C152.797 105.213 152.415 106.11 152.415 107.169C152.415 108.213 152.782 109.11 153.532 109.845C154.267 110.58 155.179 110.962 156.223 110.962C157.282 110.962 158.179 110.58 158.914 109.845ZM157.017 107.948C156.796 108.169 156.532 108.272 156.223 108.272C155.914 108.272 155.65 108.169 155.429 107.948C155.208 107.727 155.105 107.478 155.105 107.169C155.105 106.86 155.208 106.595 155.444 106.375C155.664 106.154 155.929 106.036 156.238 106.036C156.546 106.036 156.811 106.139 157.032 106.375C157.252 106.595 157.37 106.86 157.37 107.169C157.355 107.478 157.238 107.727 157.017 107.948Z" fill="#E6A225"/>
<path d="M167.736 110.99C167.001 110.254 166.089 109.887 165.045 109.887C164.001 109.887 163.089 110.254 162.354 110.99C161.619 111.725 161.237 112.622 161.237 113.68C161.237 114.724 161.604 115.636 162.354 116.371C163.089 117.107 164.001 117.474 165.045 117.474C166.089 117.474 167.001 117.107 167.736 116.371C168.471 115.636 168.853 114.739 168.853 113.68C168.853 112.622 168.486 111.725 167.736 110.99ZM165.839 114.46C165.618 114.68 165.354 114.783 165.045 114.783C164.736 114.783 164.472 114.68 164.251 114.46C164.03 114.239 163.927 113.989 163.927 113.68C163.927 113.372 164.03 113.107 164.266 112.886C164.486 112.666 164.751 112.548 165.06 112.548C165.368 112.548 165.633 112.651 165.854 112.886C166.074 113.107 166.192 113.372 166.192 113.68C166.177 113.989 166.06 114.239 165.839 114.46Z" fill="#E6A225"/>
<path d="M165.604 104.066C165.575 103.978 165.516 103.919 165.442 103.875L163.737 103.051C163.59 102.978 163.413 103.036 163.325 103.184L155.738 116.594C155.693 116.667 155.679 116.756 155.708 116.844C155.738 116.932 155.796 116.991 155.87 117.035L157.502 117.844C157.546 117.858 157.59 117.873 157.634 117.873C157.737 117.873 157.855 117.814 157.899 117.711L165.56 104.316C165.619 104.242 165.634 104.154 165.604 104.066Z" fill="#E6A225"/>
<path d="M159.724 107.17C159.724 108.126 159.386 108.949 158.709 109.625C158.033 110.302 157.209 110.64 156.239 110.64C155.268 110.64 154.445 110.302 153.769 109.625C153.092 108.949 152.754 108.126 152.754 107.17C152.754 106.199 153.092 105.376 153.769 104.714C154.445 104.038 155.268 103.7 156.239 103.7C157.209 103.7 158.033 104.038 158.709 104.714C159.386 105.391 159.724 106.199 159.724 107.17ZM157.239 108.17C157.518 107.89 157.665 107.567 157.665 107.17C157.665 106.773 157.518 106.435 157.239 106.155C156.959 105.876 156.621 105.729 156.224 105.729C155.827 105.729 155.489 105.876 155.21 106.155C154.93 106.435 154.783 106.773 154.783 107.17C154.783 107.567 154.93 107.89 155.21 108.17C155.489 108.449 155.827 108.581 156.224 108.581C156.621 108.581 156.959 108.449 157.239 108.17ZM165.311 104.155L157.65 117.551L156.018 116.742L163.606 103.332L165.311 104.155ZM167.517 111.214C168.193 111.89 168.532 112.713 168.532 113.669C168.532 114.64 168.193 115.463 167.517 116.125C166.841 116.801 166.017 117.139 165.047 117.139C164.076 117.139 163.253 116.801 162.576 116.125C161.9 115.448 161.562 114.625 161.562 113.669C161.562 112.699 161.9 111.875 162.576 111.214C163.253 110.537 164.076 110.199 165.047 110.199C166.017 110.199 166.841 110.537 167.517 111.214ZM166.061 114.684C166.341 114.404 166.488 114.081 166.488 113.684C166.488 113.287 166.341 112.949 166.061 112.669C165.782 112.39 165.444 112.243 165.047 112.243C164.65 112.243 164.312 112.39 164.032 112.669C163.753 112.949 163.606 113.287 163.606 113.684C163.606 114.081 163.753 114.404 164.032 114.684C164.312 114.963 164.65 115.096 165.047 115.096C165.444 115.096 165.782 114.963 166.061 114.684Z" fill="white"/>
<path d="M110.5 113.172C72.1141 113.172 41 109.066 41 104V153.441C41 155.96 45.4365 158 50.916 158H170.084C175.564 158 180 155.96 180 153.441V104C180 109.066 148.886 113.172 110.5 113.172Z" fill="white"/>
<path d="M24.5877 74.3673L23.3525 71L22.1173 74.3673L19 76.0142L22.1173 77.6611L23.3525 81.0284L24.5877 77.6611L27.705 76.0142L24.5877 74.3673Z" fill="#FEE17F"/>
<path d="M22.8081 91.2027L22.1023 89.2617L21.3818 91.2027L19.5731 92.1585L21.3818 93.1143L22.1023 95.0552L22.8081 93.1143L24.6167 92.1585L22.8081 91.2027Z" fill="white"/>
<path d="M36.836 80.5588L35.0273 75.6328L33.2334 80.5588L28.675 82.9556L33.2334 85.3524L35.0273 90.2784L36.836 85.3524L41.3943 82.9556L36.836 80.5588Z" fill="#FEE17F"/>
<path d="M192.822 76.8823L193.896 73.9414L194.969 76.8823L197.689 78.3086L194.969 79.7496L193.896 82.6758L192.822 79.7496L190.102 78.3086L192.822 76.8823Z" fill="white"/>
<path d="M186.616 69.338L187.455 67L188.307 69.338L190.469 70.4702L188.307 71.6172L187.455 73.9405L186.616 71.6172L184.455 70.4702L186.616 69.338Z" fill="#FEE17F"/>
<path d="M180.75 79.7186L182.235 75.6602L183.705 79.7186L187.455 81.6889L183.705 83.6593L182.235 87.7177L180.75 83.6593L177 81.6889L180.75 79.7186Z" fill="#FEE17F"/>
<path d="M8.92749 4.67619C8.92749 4.67619 9.10394 12.6018 15.2651 14.4252L18.8382 12.9106C12.3242 11.1902 12.133 2 12.133 2L8.92749 4.67619Z" fill="url(#paint9_linear_926_9837)"/>
<path d="M4.57544 52.155C4.57544 52.155 7.89862 56.3605 11.9717 54.8312L13.2804 52.5521C9.06027 54.2725 5.20773 49.3906 5.20773 49.3906L4.57544 52.155Z" fill="url(#paint10_linear_926_9837)"/>
<path d="M21.8086 39.0711C21.8086 39.0711 21.2645 42.7619 23.9848 44.1L25.764 43.6736C22.882 42.3649 23.5143 38.0859 23.5143 38.0859L21.8086 39.0711Z" fill="url(#paint11_linear_926_9837)"/>
<path d="M21.8086 39.0711C21.8086 39.0711 21.2645 42.7619 23.9848 44.1L25.764 43.6736C22.882 42.3649 23.5143 38.0859 23.5143 38.0859L21.8086 39.0711Z" fill="url(#paint12_linear_926_9837)"/>
<path d="M18.0741 27.5703C18.0741 27.5703 8.85446 31.6287 3.85498 28.5261C3.85498 28.5261 9.07503 34.2755 16.486 31.5405L17.6477 29.7171L18.0741 27.5703Z" fill="url(#paint13_linear_926_9837)"/>
<path d="M17.4716 38.8633L14.8248 35.1725C14.8248 35.1725 15.0307 29.6877 18.0745 27.5703L20.5007 29.9377C20.5007 29.9377 17.3687 33.6138 17.4716 38.8633Z" fill="url(#paint14_linear_926_9837)"/>
<path d="M3.85501 28.525C3.85501 28.525 -4.6294 20.8641 3.57563 12.9531L6.03126 15.0706C6.03126 15.0706 -0.218094 20.1289 3.85501 28.525Z" fill="url(#paint15_linear_926_9837)"/>
<path d="M206.101 72.6293C206.101 72.6293 205.925 80.555 199.764 82.3783L196.191 80.8638C202.705 79.1434 202.896 69.9531 202.896 69.9531L206.101 72.6293Z" fill="url(#paint16_linear_926_9837)"/>
<path d="M206.101 72.6293C206.101 72.6293 205.925 80.555 199.764 82.3783L196.191 80.8638C202.705 79.1434 202.896 69.9531 202.896 69.9531L206.101 72.6293Z" fill="url(#paint17_linear_926_9837)"/>
<path d="M202.705 36.1746C202.705 36.1746 199.382 40.38 195.309 38.8508L194 36.5716C198.22 38.292 202.073 33.4102 202.073 33.4102L202.705 36.1746Z" fill="url(#paint18_linear_926_9837)"/>
<path d="M202.705 36.1746C202.705 36.1746 199.382 40.38 195.309 38.8508L194 36.5716C198.22 38.292 202.073 33.4102 202.073 33.4102L202.705 36.1746Z" fill="url(#paint19_linear_926_9837)"/>
<path d="M205.749 44.6172C205.749 44.6172 214.969 48.6756 219.968 45.573C219.968 45.573 214.748 51.3224 207.337 48.5874L206.175 46.764L205.749 44.6172Z" fill="url(#paint20_linear_926_9837)"/>
<path d="M206.352 55.9101L208.998 52.2193C208.998 52.2193 208.793 46.7346 205.749 44.6172L203.323 46.9846C203.323 46.9846 206.455 50.6607 206.352 55.9101Z" fill="url(#paint21_linear_926_9837)"/>
<path d="M219.968 45.5719C219.968 45.5719 228.452 37.9109 220.247 30L217.792 32.1174C217.792 32.1174 224.041 37.1757 219.968 45.5719Z" fill="url(#paint22_linear_926_9837)"/>
</svg>
