<svg width="260" height="78" viewBox="0 0 260 78" fill="none" xmlns="http://www.w3.org/2000/svg">
<mask id="path-1-inside-1_1884_8961" fill="white">
<path fill-rule="evenodd" clip-rule="evenodd" d="M181 7.7037C181.339 7.7037 181.672 7.68344 182 7.6441V70.3559C181.672 70.3166 181.339 70.2963 181 70.2963C176.582 70.2963 173 73.7454 173 78H10C4.47715 78 0 73.5229 0 68V10C0 4.47715 4.47715 0 10 0H173C173 4.25464 176.582 7.7037 181 7.7037Z"/>
</mask>
<path fill-rule="evenodd" clip-rule="evenodd" d="M181 7.7037C181.339 7.7037 181.672 7.68344 182 7.6441V70.3559C181.672 70.3166 181.339 70.2963 181 70.2963C176.582 70.2963 173 73.7454 173 78H10C4.47715 78 0 73.5229 0 68V10C0 4.47715 4.47715 0 10 0H173C173 4.25464 176.582 7.7037 181 7.7037Z" fill="white"/>
<path d="M182 7.6441H184V5.38957L181.762 5.65837L182 7.6441ZM182 70.3559L181.762 72.3416L184 72.6104V70.3559H182ZM173 78V80H175V78H173ZM173 0H175V-2H173V0ZM181.762 5.65837C181.513 5.68822 181.259 5.7037 181 5.7037V9.7037C181.418 9.7037 181.832 9.67866 182.238 9.62984L181.762 5.65837ZM184 70.3559V7.6441H180V70.3559H184ZM181 72.2963C181.259 72.2963 181.513 72.3118 181.762 72.3416L182.238 68.3702C181.832 68.3213 181.418 68.2963 181 68.2963V72.2963ZM175 78C175 74.9204 177.614 72.2963 181 72.2963V68.2963C175.549 68.2963 171 72.5703 171 78H175ZM10 80H173V76H10V80ZM-2 68C-2 74.6274 3.37258 80 10 80V76C5.58172 76 2 72.4183 2 68H-2ZM-2 10V68H2V10H-2ZM10 -2C3.37258 -2 -2 3.37258 -2 10H2C2 5.58172 5.58172 2 10 2V-2ZM173 -2H10V2H173V-2ZM181 5.7037C177.614 5.7037 175 3.0796 175 0H171C171 5.42968 175.549 9.7037 181 9.7037V5.7037Z" fill="#E9E9EC" mask="url(#path-1-inside-1_1884_8961)"/>
<mask id="path-3-inside-2_1884_8961" fill="white">
<path fill-rule="evenodd" clip-rule="evenodd" d="M189 0C189 4.25464 185.418 7.7037 181 7.7037V70.2963C185.418 70.2963 189 73.7454 189 78H250C255.523 78 260 73.5229 260 68V10C260 4.47715 255.523 0 250 0H189Z"/>
</mask>
<path fill-rule="evenodd" clip-rule="evenodd" d="M189 0C189 4.25464 185.418 7.7037 181 7.7037V70.2963C185.418 70.2963 189 73.7454 189 78H250C255.523 78 260 73.5229 260 68V10C260 4.47715 255.523 0 250 0H189Z" fill="white"/>
<path d="M181 7.7037V5.7037H179V7.7037H181ZM189 0V-2H187V0H189ZM181 70.2963H179V72.2963H181V70.2963ZM189 78H187V80H189V78ZM181 9.7037C186.451 9.7037 191 5.42968 191 0H187C187 3.0796 184.386 5.7037 181 5.7037V9.7037ZM183 70.2963V7.7037H179V70.2963H183ZM181 72.2963C184.386 72.2963 187 74.9204 187 78H191C191 72.5703 186.451 68.2963 181 68.2963V72.2963ZM250 76H189V80H250V76ZM258 68C258 72.4183 254.418 76 250 76V80C256.627 80 262 74.6274 262 68H258ZM258 10V68H262V10H258ZM250 2C254.418 2 258 5.58172 258 10H262C262 3.37258 256.627 -2 250 -2V2ZM189 2H250V-2H189V2Z" fill="#E9E9EC" mask="url(#path-3-inside-2_1884_8961)"/>
<path d="M179.066 17.072C179.38 18.4177 180.726 19.2476 182.072 18.9336C183.418 18.6196 184.248 17.2738 183.934 15.9281C183.62 14.5823 182.274 13.7524 180.928 14.0664C179.582 14.3804 178.752 15.7262 179.066 17.072Z" fill="white"/>
<path d="M179.066 26.072C179.38 27.4177 180.726 28.2476 182.072 27.9336C183.418 27.6196 184.248 26.2738 183.934 24.9281C183.62 23.5823 182.274 22.7524 180.928 23.0664C179.582 23.3804 178.752 24.7262 179.066 26.072Z" fill="white"/>
<path d="M179.066 35.072C179.38 36.4177 180.726 37.2476 182.072 36.9336C183.418 36.6196 184.248 35.2738 183.934 33.9281C183.62 32.5823 182.274 31.7524 180.928 32.0664C179.582 32.3804 178.752 33.7262 179.066 35.072Z" fill="white"/>
<path d="M179.066 44.072C179.38 45.4177 180.726 46.2476 182.072 45.9336C183.418 45.6196 184.248 44.2738 183.934 42.9281C183.62 41.5823 182.274 40.7524 180.928 41.0664C179.582 41.3804 178.752 42.7262 179.066 44.072Z" fill="white"/>
<path d="M179.066 53.072C179.38 54.4177 180.726 55.2476 182.072 54.9336C183.418 54.6196 184.248 53.2738 183.934 51.9281C183.62 50.5823 182.274 49.7524 180.928 50.0664C179.582 50.3804 178.752 51.7262 179.066 53.072Z" fill="white"/>
<path d="M179.066 62.072C179.38 63.4177 180.726 64.2476 182.072 63.9336C183.418 63.6196 184.248 62.2738 183.934 60.9281C183.62 59.5823 182.274 58.7524 180.928 59.0664C179.582 59.3804 178.752 60.7262 179.066 62.072Z" fill="white"/>
</svg>
