<svg width="32" height="35" viewBox="0 0 32 35" fill="none" xmlns="http://www.w3.org/2000/svg">
<defs>
<linearGradient id="paint0_linear_926_10045" x1="16.5861" y1="18.9744" x2="16.5456" y2="4.51371" gradientUnits="userSpaceOnUse">
<stop stop-color="#E94531"/>
<stop offset="1" stop-color="#F09185"/>
</linearGradient>
<linearGradient id="paint1_linear_926_10045" x1="20.0263" y1="37.8572" x2="16.1136" y2="8.47314" gradientUnits="userSpaceOnUse">
<stop offset="0.16" stop-color="#F2CA8C"/>
<stop offset="0.8431" stop-color="#FFE9C9"/>
</linearGradient>
<linearGradient id="paint2_linear_926_10045" x1="13.3494" y1="30.8307" x2="10.0101" y2="5.75343" gradientUnits="userSpaceOnUse">
<stop offset="0.0387338" stop-color="#F2CA8C"/>
<stop offset="0.8431" stop-color="#FFE9C9"/>
</linearGradient>
</defs>
<path d="M31.8254 11.2514L29.5953 17.0472C29.0089 16.8221 28.3515 17.1123 28.1264 17.6987L19.0314 14.2011L14.9474 12.6285C15.1725 12.0422 14.8793 11.3847 14.2959 11.1596L16.526 5.36384C16.6 5.16837 16.7244 5.00549 16.8754 4.88406C17.1805 4.63825 17.604 4.55829 17.9949 4.70933L31.1738 9.78248C31.7602 10.0076 32.0504 10.665 31.8254 11.2514Z" fill="url(#paint0_linear_926_10045)"/>
<path d="M28.7779 19.171L22.9673 34.272C22.7422 34.8584 22.0847 35.1516 21.4983 34.9235L11.0203 30.8899L8.3194 29.8504C7.73301 29.6253 7.43982 28.9678 7.66786 28.3814L13.4755 13.2804C14.0619 13.5055 14.7193 13.2153 14.9444 12.6289L19.0284 14.2015L28.1234 17.7021C27.9012 18.2884 28.1915 18.9459 28.7779 19.171Z" fill="url(#paint1_linear_926_10045)"/>
<path d="M16.0141 13.3917C16.1829 13.4569 16.3754 13.371 16.4405 13.2022C16.5057 13.0334 16.4198 12.8409 16.251 12.7757C16.0822 12.7106 15.8897 12.7965 15.8245 12.9653C15.7594 13.137 15.8423 13.3266 16.0141 13.3917Z" fill="white"/>
<path d="M17.3645 13.9113C17.5334 13.9764 17.7259 13.8905 17.791 13.7217C17.8562 13.5529 17.7703 13.3604 17.6015 13.2953C17.4327 13.2301 17.2402 13.316 17.175 13.4848C17.1099 13.6536 17.1928 13.8461 17.3645 13.9113Z" fill="white"/>
<path d="M18.7153 14.4308C18.8841 14.4959 19.0766 14.4101 19.1417 14.2413C19.2069 14.0724 19.121 13.8799 18.9522 13.8148C18.7834 13.7496 18.5909 13.8355 18.5257 14.0043C18.4606 14.1761 18.5465 14.3656 18.7153 14.4308Z" fill="white"/>
<path d="M20.0657 14.9542C20.2345 15.0194 20.427 14.9335 20.4922 14.7647C20.5573 14.5959 20.4715 14.4034 20.3027 14.3382C20.1338 14.2731 19.9413 14.359 19.8762 14.5278C19.811 14.6966 19.8969 14.8891 20.0657 14.9542Z" fill="white"/>
<path d="M21.419 15.4699C21.5878 15.535 21.7803 15.4491 21.8455 15.2803C21.9106 15.1115 21.8247 14.919 21.6559 14.8538C21.4871 14.7887 21.2946 14.8746 21.2295 15.0434C21.1643 15.2152 21.2472 15.4047 21.419 15.4699Z" fill="white"/>
<path d="M23.2158 15.7129C23.2323 15.532 23.0991 15.3721 22.9183 15.3556C22.7375 15.3391 22.5775 15.4723 22.561 15.6531C22.5445 15.8339 22.6777 15.9938 22.8585 16.0104C23.0393 16.0269 23.1993 15.8937 23.2158 15.7129Z" fill="white"/>
<path d="M24.4374 16.4691C24.5826 16.3601 24.612 16.1541 24.503 16.0089C24.394 15.8637 24.1879 15.8343 24.0427 15.9433C23.8975 16.0523 23.8681 16.2583 23.9771 16.4035C24.0861 16.5488 24.2922 16.5781 24.4374 16.4691Z" fill="white"/>
<path d="M25.9172 16.7519C25.9337 16.5711 25.8005 16.4112 25.6197 16.3946C25.4389 16.3781 25.2789 16.5113 25.2624 16.6921C25.2459 16.873 25.3791 17.0329 25.5599 17.0494C25.7407 17.0659 25.9007 16.9327 25.9172 16.7519Z" fill="white"/>
<path d="M27.2055 17.4434C27.3143 17.298 27.2847 17.092 27.1393 16.9832C26.994 16.8744 26.788 16.904 26.6792 17.0493C26.5704 17.1947 26.6 17.4007 26.7453 17.5095C26.8907 17.6183 27.0967 17.5887 27.2055 17.4434Z" fill="white"/>
<path d="M18.6101 21.4819C18.4235 21.9647 18.0918 22.3141 17.615 22.5244C17.1382 22.7347 16.6555 22.7465 16.1668 22.5599C15.6782 22.3704 15.3257 22.0387 15.1155 21.5619C14.9052 21.0851 14.8904 20.6053 15.077 20.1226C15.2665 19.6339 15.5982 19.2845 16.0721 19.0742C16.5459 18.8669 17.0286 18.855 17.5203 19.0446C18.0089 19.2341 18.3613 19.5628 18.5746 20.0367C18.7848 20.5105 18.7967 20.9933 18.6101 21.4819ZM17.1589 21.5056C17.3544 21.4197 17.4906 21.2806 17.5676 21.0821C17.6446 20.8837 17.6387 20.6853 17.5499 20.4898C17.461 20.2914 17.3189 20.1552 17.1204 20.0782C16.922 20.0012 16.7236 20.0071 16.5281 20.0959C16.3297 20.1848 16.1935 20.3269 16.1165 20.5254C16.0395 20.7238 16.0454 20.9192 16.1342 21.1147C16.2231 21.3102 16.3652 21.4434 16.5637 21.5204C16.7651 21.5945 16.9635 21.5915 17.1589 21.5056ZM22.0218 21.0466L15.536 26.333L14.8667 25.6044L21.3199 20.2944L22.0218 21.0466ZM21.7671 25.0477C21.9804 25.5215 21.9922 26.0013 21.8027 26.4929C21.6131 26.9816 21.2814 27.331 20.8076 27.5413C20.3337 27.7486 19.851 27.7604 19.3594 27.5709C18.8707 27.3814 18.5183 27.0526 18.3051 26.5788C18.0918 26.1049 18.08 25.6252 18.2695 25.1335C18.4591 24.6449 18.7908 24.2954 19.2646 24.0851C19.7385 23.8778 20.2212 23.866 20.7128 24.0555C21.2044 24.2421 21.5569 24.5738 21.7671 25.0477ZM20.3545 26.5136C20.5499 26.4277 20.6862 26.2885 20.7632 26.0901C20.8402 25.8917 20.8342 25.6933 20.7454 25.4978C20.6565 25.2994 20.5144 25.1632 20.316 25.0862C20.1175 25.0092 19.9191 25.0151 19.7237 25.1039C19.5252 25.1928 19.389 25.3349 19.312 25.5333C19.235 25.7318 19.2409 25.9272 19.3298 26.1227C19.4186 26.3182 19.5608 26.4514 19.7592 26.5284C19.9606 26.6025 20.159 26.5995 20.3545 26.5136Z" fill="#D8AB71"/>
<path d="M18.8858 10.5201C18.6489 10.6474 18.3912 10.6563 18.1099 10.5467C17.8433 10.4431 17.6538 10.2743 17.5442 10.0373C17.4346 9.80042 17.4317 9.54869 17.5324 9.28215C17.636 9.01265 17.8078 8.82903 18.0506 8.7313C18.2905 8.63357 18.5452 8.63653 18.8118 8.74018C18.9362 8.78757 19.0487 8.85568 19.1494 8.94749C19.2501 9.03634 19.3182 9.13407 19.3567 9.24069L18.9658 9.41246C18.948 9.3473 18.9125 9.28807 18.8621 9.23773C18.8088 9.18738 18.7496 9.14888 18.6785 9.12222C18.5334 9.06596 18.3972 9.07188 18.2668 9.13407C18.1365 9.19626 18.0418 9.30584 17.9825 9.45688C17.9233 9.61088 17.9203 9.756 17.9736 9.88927C18.027 10.0225 18.1247 10.1173 18.2698 10.1706C18.4297 10.2328 18.5748 10.221 18.7022 10.1351L18.8858 10.5201Z" fill="white"/>
<path d="M21.0654 10.6389C20.9617 10.9084 20.7899 11.095 20.5471 11.1957C20.3072 11.2964 20.0495 11.2964 19.7771 11.1898C19.5076 11.0861 19.3151 10.9144 19.2055 10.6774C19.093 10.4405 19.09 10.1888 19.1937 9.91631C19.2973 9.64385 19.4691 9.46023 19.709 9.36546C19.9459 9.27069 20.2035 9.27366 20.473 9.37731C20.7455 9.48393 20.938 9.64977 21.0506 9.88078C21.1661 10.1147 21.169 10.3665 21.0654 10.6389ZM20.6211 10.4672C20.6804 10.3161 20.6804 10.171 20.627 10.0377C20.5737 9.90447 20.473 9.8097 20.3309 9.75343C20.1858 9.69716 20.0495 9.70308 19.9222 9.76528C19.7919 9.82747 19.7001 9.93705 19.6408 10.0881C19.5816 10.2421 19.5787 10.3872 19.629 10.5234C19.6823 10.6597 19.78 10.7544 19.9252 10.8107C20.0703 10.867 20.2065 10.8611 20.3368 10.7959C20.4671 10.7337 20.5619 10.6212 20.6211 10.4672Z" fill="white"/>
<path d="M22.7091 11.5206C22.6292 11.7279 22.4989 11.87 22.3123 11.9441C22.1287 12.0211 21.9243 12.0151 21.7022 11.9292C21.4801 11.8434 21.3261 11.7101 21.2432 11.5324C21.1602 11.3547 21.1573 11.1622 21.2372 10.9519L21.6489 9.88281L22.0606 10.0427L21.6607 11.0793C21.6222 11.18 21.6163 11.2747 21.643 11.3636C21.6696 11.4524 21.7377 11.5146 21.8473 11.5561C21.9569 11.5976 22.0517 11.5976 22.1287 11.5502C22.2057 11.5028 22.2649 11.4287 22.3064 11.3281L22.7062 10.2915L23.1208 10.4514L22.7091 11.5206Z" fill="white"/>
<path d="M24.5542 11.6097C24.5069 11.737 24.4328 11.8288 24.3351 11.8881C24.2374 11.9473 24.1337 11.974 24.0212 11.971C23.9116 11.9651 23.7902 11.9384 23.6628 11.891L23.4555 11.8111L23.2067 12.4597L22.7921 12.2997L23.4525 10.582L24.0834 10.8249C24.2877 10.9019 24.4328 11.0085 24.5246 11.1388C24.6164 11.2662 24.6253 11.4231 24.5542 11.6097ZM24.1396 11.4527C24.19 11.3224 24.1189 11.2188 23.9234 11.1447L23.7428 11.0737L23.5858 11.4794L23.7605 11.5475C23.959 11.6245 24.0863 11.5919 24.1396 11.4527Z" fill="white"/>
<path d="M26.4704 12.7171C26.3667 12.9866 26.195 13.1731 25.9521 13.2738C25.7122 13.3745 25.4546 13.3745 25.1821 13.2679C24.9126 13.1643 24.7201 12.9925 24.6105 12.7556C24.498 12.5186 24.495 12.2669 24.5987 11.9944C24.7023 11.722 24.8741 11.5384 25.114 11.4436C25.3509 11.3488 25.6086 11.3518 25.8781 11.4554C26.1505 11.5621 26.343 11.7279 26.4556 11.9589C26.5711 12.1958 26.574 12.4446 26.4704 12.7171ZM26.0262 12.5453C26.0854 12.3942 26.0854 12.2491 26.0321 12.1159C25.9788 11.9826 25.8781 11.8878 25.7359 11.8316C25.5908 11.7753 25.4546 11.7812 25.3272 11.8434C25.1969 11.9056 25.1051 12.0152 25.0459 12.1662C24.9866 12.3202 24.9837 12.4653 25.034 12.6016C25.0873 12.7378 25.1851 12.8326 25.3302 12.8888C25.4753 12.9451 25.6115 12.9392 25.7418 12.874C25.8722 12.8118 25.9669 12.7023 26.0262 12.5453Z" fill="white"/>
<path d="M27.9721 14.2916L27.5012 14.1109L27.2436 12.7219L27.2376 12.719L26.8141 13.8444L26.4114 13.6904L27.0718 11.9727L27.5457 12.1533L27.8033 13.5393L27.8092 13.5423L28.2298 12.4169L28.6325 12.5709L27.9721 14.2916Z" fill="white"/>
<path opacity="0.23" d="M21.5866 26.9626L11.4226 29.317L8.72162 28.2775C8.13523 28.0524 7.84204 27.395 8.07008 26.8086L13.8807 11.7046C14.467 11.9297 15.1245 11.6395 15.3496 11.0531C15.5747 10.4667 15.2815 9.80922 14.698 9.58414L16.9281 3.78837C17.0021 3.5929 17.1265 3.43002 17.2776 3.30859L18.2756 7.62062C17.6626 7.76278 17.2835 8.37286 17.4256 8.9859C17.5678 9.59895 18.1779 9.97803 18.7909 9.83587L19.4365 12.6257L22.4396 25.5973C22.5817 26.2103 22.1997 26.8204 21.5866 26.9626Z" fill="#703800"/>
<path d="M1.43051 10.6291L0.0296888 4.57864C-0.112466 3.9656 0.269575 3.35552 0.882618 3.21336L14.6391 0.0296888C15.2521 -0.112466 15.8622 0.269575 16.0043 0.882618L17.4052 6.93308C16.7921 7.07524 16.413 7.68532 16.5552 8.29836L2.79578 11.482C2.65363 10.869 2.04355 10.4899 1.43051 10.6291Z" fill="#F4BB1B"/>
<path d="M5.59447 28.6093L1.94287 12.8449C2.55591 12.7027 2.93499 12.0927 2.79284 11.4796L16.5522 8.29297C16.6944 8.90601 17.3045 9.28509 17.9175 9.14294L21.5662 24.9044C21.7083 25.5174 21.3263 26.1275 20.7132 26.2696L6.95679 29.4563C6.34671 29.6014 5.73367 29.2193 5.59447 28.6093Z" fill="url(#paint2_linear_926_10045)"/>
<path d="M4.10727 11.5147C4.28497 11.4732 4.39454 11.2955 4.35308 11.1179C4.31162 10.9402 4.13393 10.8306 3.95623 10.872C3.77854 10.9135 3.66896 11.0912 3.71042 11.2689C3.75189 11.4436 3.92958 11.5532 4.10727 11.5147Z" fill="white"/>
<path d="M5.51706 11.1866C5.69476 11.1451 5.80433 10.9674 5.76287 10.7897C5.72141 10.612 5.54372 10.5025 5.36602 10.5439C5.18833 10.5854 5.07875 10.7631 5.12021 10.9408C5.16168 11.1185 5.33937 11.228 5.51706 11.1866Z" fill="white"/>
<path d="M7.06327 10.7928C7.2031 10.677 7.22259 10.4698 7.10679 10.33C6.991 10.1901 6.78377 10.1706 6.64394 10.2864C6.5041 10.4022 6.48462 10.6095 6.60041 10.7493C6.71621 10.8891 6.92344 10.9086 7.06327 10.7928Z" fill="white"/>
<path d="M8.56315 10.3486C8.6367 10.1826 8.56175 9.98841 8.39576 9.91486C8.22976 9.84131 8.03558 9.91626 7.96203 10.0823C7.88848 10.2482 7.96342 10.4424 8.12942 10.516C8.29541 10.5895 8.4896 10.5146 8.56315 10.3486Z" fill="white"/>
<path d="M9.74912 10.21C9.92681 10.1686 10.0364 9.99086 9.99493 9.81317C9.95347 9.63547 9.77577 9.5259 9.59808 9.56736C9.42039 9.60882 9.31081 9.78651 9.35227 9.96421C9.39373 10.1389 9.57143 10.2485 9.74912 10.21Z" fill="white"/>
<path d="M11.1584 9.88189C11.3361 9.84043 11.4457 9.66274 11.4042 9.48504C11.3628 9.30735 11.1851 9.19777 11.0074 9.23923C10.8297 9.28069 10.7201 9.45839 10.7616 9.63608C10.803 9.81378 10.9807 9.92335 11.1584 9.88189Z" fill="white"/>
<path d="M12.5682 9.55767C12.7459 9.51621 12.8555 9.33852 12.814 9.16082C12.7726 8.98313 12.5949 8.87355 12.4172 8.91501C12.2395 8.95648 12.1299 9.13417 12.1714 9.31186C12.2128 9.48956 12.3905 9.59913 12.5682 9.55767Z" fill="white"/>
<path d="M13.9781 9.22955C14.1558 9.18809 14.2654 9.01039 14.2239 8.8327C14.1825 8.655 14.0048 8.54543 13.8271 8.58689C13.6494 8.62835 13.5398 8.80604 13.5813 8.98374C13.6257 9.15847 13.8004 9.27101 13.9781 9.22955Z" fill="white"/>
<path d="M15.391 8.90142C15.5687 8.85996 15.6782 8.68227 15.6368 8.50457C15.5953 8.32688 15.4176 8.2173 15.2399 8.25876C15.0622 8.30023 14.9527 8.47792 14.9941 8.65561C15.0356 8.83331 15.2133 8.94288 15.391 8.90142Z" fill="white"/>
<path d="M10.7897 16.7603C10.9052 17.2638 10.8282 17.7376 10.5498 18.1819C10.2744 18.6232 9.88053 18.9045 9.36819 19.023C8.85584 19.1414 8.37902 19.0615 7.93775 18.786C7.49648 18.5106 7.21513 18.1197 7.09963 17.6162C6.98117 17.1039 7.06113 16.63 7.33656 16.1917C7.61198 15.7534 8.00587 15.475 8.51822 15.3566C9.03057 15.2381 9.50442 15.3151 9.94865 15.5876C10.3929 15.8571 10.6713 16.248 10.7897 16.7603ZM9.60215 17.5925C9.71765 17.4119 9.75023 17.2194 9.70284 17.0121C9.65546 16.8048 9.53995 16.6448 9.35634 16.5293C9.17272 16.4138 8.97726 16.3813 8.76995 16.4286C8.56264 16.476 8.40272 16.5915 8.28722 16.7751C8.17171 16.9588 8.13914 17.1542 8.18652 17.3615C8.23391 17.5688 8.34941 17.7288 8.53302 17.8383C8.71664 17.9509 8.90914 17.9805 9.11645 17.9331C9.32672 17.8857 9.48665 17.7732 9.60215 17.5925ZM13.3722 14.4859L10.9645 22.4998L10.002 22.2718L12.3712 14.2578L13.3722 14.4859ZM15.4068 17.942C15.8481 18.2145 16.1294 18.6054 16.2479 19.1177C16.3664 19.6301 16.2864 20.1039 16.011 20.5422C15.7355 20.9806 15.3417 21.2589 14.8293 21.3774C14.317 21.4959 13.8431 21.4189 13.3989 21.1464C12.9576 20.8739 12.6762 20.483 12.5578 19.9707C12.4393 19.4583 12.5193 18.9845 12.7947 18.5462C13.0701 18.1078 13.464 17.8295 13.9764 17.711C14.4887 17.5925 14.9626 17.6695 15.4068 17.942ZM15.0573 19.9499C15.1728 19.7693 15.2054 19.5768 15.158 19.3695C15.1106 19.1622 14.9951 19.0022 14.8115 18.8867C14.6279 18.7712 14.4325 18.7387 14.2251 18.786C14.0178 18.8334 13.8579 18.9489 13.7424 19.1325C13.6269 19.3162 13.5943 19.5116 13.6417 19.7189C13.6891 19.9262 13.8046 20.0862 13.9882 20.1957C14.1718 20.3083 14.3643 20.3379 14.5716 20.2905C14.7819 20.2431 14.9418 20.1306 15.0573 19.9499Z" fill="#D8AB71"/>
<path d="M5.0024 7.39085C4.87802 7.62777 4.66774 7.77881 4.37455 7.84693C4.09616 7.91208 3.84443 7.87654 3.62231 7.74327C3.4002 7.61 3.25508 7.40269 3.18993 7.12431C3.12477 6.84296 3.16327 6.59419 3.30839 6.37799C3.4535 6.1618 3.66378 6.02261 3.94216 5.95745C4.07247 5.92784 4.20278 5.92191 4.33605 5.93968C4.46932 5.95745 4.58186 5.99891 4.67367 6.06703L4.44859 6.42834C4.39824 6.38392 4.33605 6.3543 4.26497 6.34245C4.19389 6.33061 4.12282 6.33061 4.04878 6.34838C3.89774 6.38392 3.78816 6.46388 3.71412 6.59123C3.64008 6.71857 3.62231 6.86073 3.66081 7.01769C3.69932 7.18058 3.77631 7.302 3.89478 7.38196C4.01324 7.46192 4.14651 7.48562 4.29755 7.45008C4.4634 7.41158 4.57594 7.32273 4.63517 7.18058L5.0024 7.39085Z" fill="white"/>
<path d="M6.87133 6.26473C6.93648 6.54607 6.89798 6.79781 6.75583 7.01696C6.61367 7.23612 6.40044 7.37827 6.11613 7.44343C5.83478 7.50858 5.58009 7.47304 5.35501 7.33977C5.12993 7.2065 4.98482 6.99919 4.91966 6.71785C4.85451 6.43354 4.89301 6.18476 5.03812 5.97449C5.18028 5.76126 5.39647 5.62207 5.67782 5.55691C5.96213 5.49176 6.21683 5.52137 6.43894 5.64872C6.66402 5.77607 6.80617 5.98042 6.87133 6.26473ZM6.40933 6.37134C6.37379 6.21142 6.29382 6.09296 6.17536 6.01299C6.05394 5.93303 5.92067 5.90934 5.76963 5.94488C5.61859 5.98042 5.50901 6.06038 5.43794 6.18476C5.36686 6.30915 5.34909 6.4513 5.38463 6.61123C5.42313 6.77411 5.50013 6.89554 5.62155 6.97846C5.74001 7.06139 5.87624 7.08508 6.02728 7.04954C6.17832 7.014 6.2879 6.93404 6.36194 6.80669C6.43006 6.67934 6.44783 6.53423 6.40933 6.37134Z" fill="white"/>
<path d="M8.73099 6.07259C8.78133 6.28879 8.75172 6.47833 8.64214 6.64418C8.53256 6.81002 8.36079 6.9196 8.12683 6.97291C7.89286 7.02622 7.69148 7.00252 7.52267 6.90183C7.35386 6.80114 7.24428 6.64121 7.19394 6.42502L6.93628 5.30851L7.36571 5.20782L7.61744 6.28879C7.64113 6.3954 7.69148 6.47833 7.76256 6.5346C7.83363 6.59087 7.9284 6.60864 8.04094 6.58198C8.15644 6.55533 8.23344 6.50202 8.27194 6.4191C8.31044 6.33617 8.31637 6.2414 8.29267 6.13479L8.04094 5.05382L8.47333 4.95312L8.73099 6.07259Z" fill="white"/>
<path d="M10.3066 5.11371C10.3363 5.24401 10.3274 5.36248 10.28 5.46613C10.2326 5.56979 10.1615 5.64975 10.0668 5.70898C9.97199 5.76821 9.85945 5.81263 9.72618 5.84225L9.50999 5.8926L9.66695 6.56783L9.23456 6.66852L8.81995 4.87678L9.47741 4.72574C9.69064 4.67539 9.8713 4.68132 10.0164 4.73759C10.1675 4.79386 10.2622 4.91824 10.3066 5.11371ZM9.87426 5.2144C9.84168 5.07817 9.72618 5.03374 9.52183 5.08113L9.3323 5.12555L9.43003 5.54906L9.61364 5.50759C9.82095 5.45725 9.9098 5.35951 9.87426 5.2144Z" fill="white"/>
<path d="M12.5156 4.95613C12.5808 5.23748 12.5423 5.48921 12.4001 5.70837C12.258 5.92752 12.0447 6.06968 11.7604 6.13483C11.4791 6.19999 11.2244 6.16445 10.9993 6.03118C10.7742 5.89791 10.6291 5.6906 10.5639 5.40925C10.4988 5.12494 10.5373 4.87617 10.6824 4.6659C10.8246 4.45267 11.0408 4.31347 11.3221 4.24832C11.6064 4.18317 11.8611 4.21278 12.0832 4.34013C12.3053 4.46747 12.4475 4.67182 12.5156 4.95613ZM12.0507 5.06275C12.0151 4.90282 11.9352 4.78436 11.8167 4.7044C11.6953 4.62444 11.562 4.60074 11.411 4.63628C11.2599 4.67182 11.1503 4.75178 11.0793 4.87617C11.0082 5.00056 10.9904 5.14271 11.026 5.30263C11.0645 5.46552 11.1415 5.58694 11.2629 5.66987C11.3813 5.75279 11.5176 5.77648 11.6686 5.74095C11.8197 5.70541 11.9292 5.62544 12.0033 5.4981C12.0714 5.37075 12.0892 5.22563 12.0507 5.06275Z" fill="white"/>
<path d="M14.6395 5.41674L14.1478 5.52928L13.1557 4.52531L13.1468 4.52828L13.4282 5.69809L13.0076 5.79582L12.593 4.00408L13.0876 3.88858L14.0768 4.89255L14.0856 4.88959L13.8043 3.72273L14.2248 3.625L14.6395 5.41674Z" fill="white"/>
</svg>
