<svg width="124" height="70" viewBox="0 0 124 70" fill="none" xmlns="http://www.w3.org/2000/svg">
<defs>
<linearGradient id="paint0_linear_2131_8960" x1="62.3267" y1="52.0438" x2="62.2157" y2="12.3803" gradientUnits="userSpaceOnUse">
<stop stop-color="#E94531"/>
<stop offset="1" stop-color="#F09185"/>
</linearGradient>
<linearGradient id="paint1_linear_2131_8960" x1="71.763" y1="103.834" x2="61.031" y2="23.2381" gradientUnits="userSpaceOnUse">
<stop offset="0.16" stop-color="#F2CA8C"/>
<stop offset="0.8431" stop-color="#FFE9C9"/>
</linearGradient>
<linearGradient id="paint2_linear_2131_8960" x1="53.4492" y1="84.5636" x2="44.2901" y2="15.7805" gradientUnits="userSpaceOnUse">
<stop offset="0.0387338" stop-color="#F2CA8C"/>
<stop offset="0.8431" stop-color="#FFE9C9"/>
</linearGradient>
<linearGradient id="paint3_linear_2131_8960" x1="38.7223" y1="72.7735" x2="38.7223" y2="46.4426" gradientUnits="userSpaceOnUse">
<stop stop-color="#FF8600"/>
<stop offset="0.9944" stop-color="#FFC66E"/>
</linearGradient>
<linearGradient id="paint4_linear_2131_8960" x1="38.7225" y1="71.7937" x2="38.7225" y2="47.758" gradientUnits="userSpaceOnUse">
<stop stop-color="#FDE49F"/>
<stop offset="0.9944" stop-color="white"/>
</linearGradient>
<linearGradient id="paint5_linear_2131_8960" x1="38.7221" y1="70.8179" x2="38.7221" y2="48.6725" gradientUnits="userSpaceOnUse">
<stop stop-color="#FBB900"/>
<stop offset="0.9944" stop-color="#FFE26E"/>
</linearGradient>
<linearGradient id="paint6_linear_2131_8960" x1="88.8307" y1="71.7767" x2="88.8307" y2="51.465" gradientUnits="userSpaceOnUse">
<stop stop-color="#FF8600"/>
<stop offset="0.9944" stop-color="#FFC66E"/>
</linearGradient>
<linearGradient id="paint7_linear_2131_8960" x1="88.8304" y1="71.025" x2="88.8304" y2="52.4837" gradientUnits="userSpaceOnUse">
<stop stop-color="#FDE49F"/>
<stop offset="0.9944" stop-color="white"/>
</linearGradient>
<linearGradient id="paint8_linear_2131_8960" x1="88.8307" y1="70.2731" x2="88.8307" y2="53.1901" gradientUnits="userSpaceOnUse">
<stop stop-color="#FBB900"/>
<stop offset="0.9944" stop-color="#FFE26E"/>
</linearGradient>
<linearGradient id="paint9_linear_2131_8960" x1="10.557" y1="9.74673" x2="3.9292" y2="-0.145466" gradientUnits="userSpaceOnUse">
<stop offset="0.048268" stop-color="#D30E39"/>
<stop offset="0.0510475" stop-color="#D30F39"/>
<stop offset="0.2778" stop-color="#EB3A5D"/>
<stop offset="0.393" stop-color="#F44B6A"/>
<stop offset="0.8057" stop-color="#FD9FB9"/>
</linearGradient>
<linearGradient id="paint10_linear_2131_8960" x1="7.47916" y1="31.3017" x2="5.38081" y2="25.3836" gradientUnits="userSpaceOnUse">
<stop offset="0.048268" stop-color="#D30E39"/>
<stop offset="0.0510475" stop-color="#D30F39"/>
<stop offset="0.2778" stop-color="#EB3A5D"/>
<stop offset="0.393" stop-color="#F44B6A"/>
<stop offset="0.8057" stop-color="#FD9FB9"/>
</linearGradient>
<linearGradient id="paint11_linear_2131_8960" x1="15.4015" y1="20.1288" x2="9.96101" y2="21.4929" gradientUnits="userSpaceOnUse">
<stop offset="0.1111" stop-color="#FBB900"/>
<stop offset="0.1176" stop-color="#FBBA03"/>
<stop offset="0.2106" stop-color="#FCC829"/>
<stop offset="0.303" stop-color="#FED447"/>
<stop offset="0.3934" stop-color="#FEDC5D"/>
<stop offset="0.481" stop-color="#FFE06A"/>
<stop offset="0.5626" stop-color="#FFE26E"/>
<stop offset="0.6505" stop-color="#FFE473"/>
<stop offset="0.7583" stop-color="#FFE982"/>
<stop offset="0.8766" stop-color="#FFF39B"/>
<stop offset="0.9994" stop-color="#FFFFBD"/>
</linearGradient>
<linearGradient id="paint12_linear_2131_8960" x1="13.4549" y1="24.6445" x2="13.3343" y2="20.819" gradientUnits="userSpaceOnUse">
<stop stop-color="#278CCA"/>
<stop offset="0.2778" stop-color="#27A2D8"/>
<stop offset="0.393" stop-color="#28B1E0"/>
<stop offset="0.8057" stop-color="#69D7FF"/>
</linearGradient>
<linearGradient id="paint13_linear_2131_8960" x1="6.9937" y1="18.0529" x2="6.97289" y2="15.0553" gradientUnits="userSpaceOnUse">
<stop stop-color="#278CCA"/>
<stop offset="0.2778" stop-color="#27A2D8"/>
<stop offset="0.393" stop-color="#28B1E0"/>
<stop offset="0.8057" stop-color="#69D7FF"/>
</linearGradient>
<linearGradient id="paint14_linear_2131_8960" x1="10.1843" y1="22.0006" x2="9.88478" y2="14.8225" gradientUnits="userSpaceOnUse">
<stop stop-color="#278CCA"/>
<stop offset="0.2778" stop-color="#27A2D8"/>
<stop offset="0.393" stop-color="#28B1E0"/>
<stop offset="0.8057" stop-color="#69D7FF"/>
</linearGradient>
<linearGradient id="paint15_linear_2131_8960" x1="2.11399" y1="16.4916" x2="1.57864" y2="6.60552" gradientUnits="userSpaceOnUse">
<stop stop-color="#278CCA"/>
<stop offset="0.2778" stop-color="#27A2D8"/>
<stop offset="0.393" stop-color="#28B1E0"/>
<stop offset="0.8057" stop-color="#69D7FF"/>
</linearGradient>
<linearGradient id="paint16_linear_2131_8960" x1="116.622" y1="36.764" x2="103.482" y2="40.7149" gradientUnits="userSpaceOnUse">
<stop offset="0.1111" stop-color="#FBB900"/>
<stop offset="0.1176" stop-color="#FBBA03"/>
<stop offset="0.2106" stop-color="#FCC829"/>
<stop offset="0.303" stop-color="#FED447"/>
<stop offset="0.3934" stop-color="#FEDC5D"/>
<stop offset="0.481" stop-color="#FFE06A"/>
<stop offset="0.5626" stop-color="#FFE26E"/>
<stop offset="0.6505" stop-color="#FFE473"/>
<stop offset="0.7583" stop-color="#FFE982"/>
<stop offset="0.8766" stop-color="#FFF39B"/>
<stop offset="0.9994" stop-color="#FFFFBD"/>
</linearGradient>
<linearGradient id="paint17_linear_2131_8960" x1="111.798" y1="46.0934" x2="111.591" y2="38.1874" gradientUnits="userSpaceOnUse">
<stop stop-color="#278CCA"/>
<stop offset="0.2778" stop-color="#27A2D8"/>
<stop offset="0.393" stop-color="#28B1E0"/>
<stop offset="0.8057" stop-color="#69D7FF"/>
</linearGradient>
<linearGradient id="paint18_linear_2131_8960" x1="114.42" y1="17.5829" x2="104.906" y2="22.9882" gradientUnits="userSpaceOnUse">
<stop offset="0.1111" stop-color="#FBB900"/>
<stop offset="0.1176" stop-color="#FBBA03"/>
<stop offset="0.2106" stop-color="#FCC829"/>
<stop offset="0.303" stop-color="#FED447"/>
<stop offset="0.3934" stop-color="#FEDC5D"/>
<stop offset="0.481" stop-color="#FFE06A"/>
<stop offset="0.5626" stop-color="#FFE26E"/>
<stop offset="0.6505" stop-color="#FFE473"/>
<stop offset="0.7583" stop-color="#FFE982"/>
<stop offset="0.8766" stop-color="#FFF39B"/>
<stop offset="0.9994" stop-color="#FFFFBD"/>
</linearGradient>
<linearGradient id="paint19_linear_2131_8960" x1="110.183" y1="21.9194" x2="110.132" y2="18.2427" gradientUnits="userSpaceOnUse">
<stop stop-color="#278CCA"/>
<stop offset="0.2778" stop-color="#27A2D8"/>
<stop offset="0.393" stop-color="#28B1E0"/>
<stop offset="0.8057" stop-color="#69D7FF"/>
</linearGradient>
<linearGradient id="paint20_linear_2131_8960" x1="113.179" y1="25.5705" x2="122.352" y2="26.5698" gradientUnits="userSpaceOnUse">
<stop offset="0.048268" stop-color="#D30E39"/>
<stop offset="0.0510475" stop-color="#D30F39"/>
<stop offset="0.2778" stop-color="#EB3A5D"/>
<stop offset="0.393" stop-color="#F44B6A"/>
<stop offset="0.8057" stop-color="#FD9FB9"/>
</linearGradient>
<linearGradient id="paint21_linear_2131_8960" x1="115.618" y1="31.4647" x2="112.727" y2="23.7914" gradientUnits="userSpaceOnUse">
<stop offset="0.048268" stop-color="#D30E39"/>
<stop offset="0.0510475" stop-color="#D30F39"/>
<stop offset="0.2778" stop-color="#EB3A5D"/>
<stop offset="0.393" stop-color="#F44B6A"/>
<stop offset="0.8057" stop-color="#FD9FB9"/>
</linearGradient>
<linearGradient id="paint22_linear_2131_8960" x1="121.708" y1="25.9088" x2="122.244" y2="16.0227" gradientUnits="userSpaceOnUse">
<stop offset="0.1943" stop-color="#FD9FB9"/>
<stop offset="0.607" stop-color="#F44B6A"/>
<stop offset="0.7222" stop-color="#EB3A5D"/>
<stop offset="0.949" stop-color="#D30F39"/>
<stop offset="0.9517" stop-color="#D30E39"/>
</linearGradient>
</defs>
<path d="M97.326 35.3555H24.9374C23.72 35.3555 22.7379 36.3328 22.7379 37.5443V72.9206H99.5255V37.5443C99.5255 36.3408 98.5353 35.3555 97.326 35.3555Z" fill="white"/>
<path d="M104.126 30.8609L98.009 46.7578C96.4007 46.1404 94.5973 46.9365 93.98 48.5449L69.0339 38.9515L57.8321 34.6381C58.4495 33.0297 57.6453 31.2264 56.045 30.609L62.1617 14.7121C62.3648 14.176 62.706 13.7292 63.1203 13.3962C63.957 12.722 65.1186 12.5026 66.1908 12.9169L102.339 26.8318C103.947 27.4492 104.743 29.2525 104.126 30.8609Z" fill="url(#paint0_linear_2131_8960)"/>
<path d="M95.7671 52.5807L79.8296 94.0004C79.2122 95.6088 77.4089 96.413 75.8005 95.7875L47.061 84.7238L39.6527 81.8726C38.0443 81.2552 37.2401 79.4519 37.8656 77.8435L53.795 36.4238C55.4034 37.0412 57.2067 36.2451 57.8241 34.6367L69.0259 38.9501L93.9719 48.5516C93.3627 50.16 94.1588 51.9633 95.7671 52.5807Z" fill="url(#paint1_linear_2131_8960)"/>
<path d="M60.7565 36.7338C61.2195 36.9125 61.7475 36.677 61.9262 36.2139C62.1049 35.7509 61.8694 35.2229 61.4063 35.0442C60.9433 34.8655 60.4153 35.1011 60.2366 35.5641C60.0579 36.0352 60.2853 36.5551 60.7565 36.7338Z" fill="white"/>
<path d="M64.4603 38.1635C64.9234 38.3422 65.4514 38.1067 65.6301 37.6436C65.8088 37.1806 65.5732 36.6526 65.1102 36.4739C64.6472 36.2952 64.1192 36.5308 63.9405 36.9938C63.7618 37.4568 63.9892 37.9848 64.4603 38.1635Z" fill="white"/>
<path d="M68.1648 39.5854C68.6278 39.7641 69.1558 39.5285 69.3345 39.0655C69.5132 38.6025 69.2777 38.0745 68.8147 37.8958C68.3516 37.7171 67.8236 37.9526 67.6449 38.4157C67.4662 38.8868 67.7018 39.4067 68.1648 39.5854Z" fill="white"/>
<path d="M71.8688 41.0151C72.3318 41.1938 72.8598 40.9582 73.0385 40.4952C73.2172 40.0322 72.9817 39.5042 72.5186 39.3255C72.0556 39.1468 71.5276 39.3823 71.3489 39.8453C71.1702 40.3084 71.4058 40.8364 71.8688 41.0151Z" fill="white"/>
<path d="M75.5811 42.4369C76.0441 42.6157 76.5721 42.3801 76.7508 41.9171C76.9295 41.4541 76.6939 40.9261 76.2309 40.7473C75.7679 40.5686 75.2399 40.8042 75.0612 41.2672C74.8825 41.7384 75.1099 42.2582 75.5811 42.4369Z" fill="white"/>
<path d="M80.5091 43.098C80.5544 42.6021 80.1891 42.1633 79.6932 42.1181C79.1972 42.0728 78.7585 42.4381 78.7132 42.9341C78.6679 43.43 79.0333 43.8687 79.5292 43.914C80.0251 43.9593 80.4639 43.594 80.5091 43.098Z" fill="white"/>
<path d="M83.8602 45.1745C84.2585 44.8755 84.339 44.3103 84.0401 43.912C83.7412 43.5138 83.176 43.4332 82.7777 43.7322C82.3794 44.0311 82.2989 44.5963 82.5978 44.9946C82.8967 45.3929 83.4619 45.4734 83.8602 45.1745Z" fill="white"/>
<path d="M87.9191 45.9535C87.9643 45.4576 87.599 45.0188 87.1031 44.9735C86.6071 44.9283 86.1684 45.2936 86.1231 45.7895C86.0778 46.2855 86.4432 46.7242 86.9391 46.7695C87.435 46.8148 87.8738 46.4494 87.9191 45.9535Z" fill="white"/>
<path d="M91.4523 47.8472C91.7508 47.4486 91.6695 46.8835 91.2709 46.5851C90.8723 46.2867 90.3072 46.3679 90.0088 46.7665C89.7103 47.1651 89.7915 47.7302 90.1902 48.0287C90.5888 48.3271 91.1539 48.2459 91.4523 47.8472Z" fill="white"/>
<path d="M67.8799 58.9173C67.3682 60.2414 66.4584 61.1999 65.1505 61.7766C63.8427 62.3534 62.5187 62.3859 61.1783 61.8741C59.838 61.3542 58.8714 60.4444 58.2946 59.1366C57.7179 57.8288 57.6773 56.5128 58.189 55.1888C58.7089 53.8485 59.6187 52.8899 60.9184 52.3132C62.2181 51.7446 63.5422 51.7121 64.8906 52.232C66.2309 52.7518 67.1976 53.6535 67.7824 54.9532C68.3592 56.2529 68.3917 57.577 67.8799 58.9173ZM63.8996 58.9823C64.4357 58.7467 64.8094 58.3649 65.0206 57.8207C65.2318 57.2764 65.2155 56.7322 64.9718 56.196C64.7281 55.6518 64.3382 55.2781 63.794 55.0669C63.2497 54.8557 62.7055 54.872 62.1694 55.1157C61.6251 55.3594 61.2515 55.7493 61.0403 56.2935C60.8291 56.8378 60.8453 57.3739 61.089 57.91C61.3327 58.4461 61.7226 58.8117 62.2668 59.0229C62.8192 59.226 63.3635 59.2178 63.8996 58.9823ZM77.2377 57.7232L59.4481 72.2229L57.6123 70.2247L75.3126 55.6599L77.2377 57.7232ZM76.5391 68.6975C77.124 69.9972 77.1565 71.3131 76.6366 72.6616C76.1167 74.0019 75.207 74.9604 73.9073 75.5372C72.6076 76.1058 71.2835 76.1383 69.9351 75.6184C68.5947 75.0985 67.6281 74.1969 67.0432 72.8972C66.4584 71.5975 66.4259 70.2815 66.9458 68.9331C67.4656 67.5928 68.3754 66.6342 69.6751 66.0575C70.9748 65.4889 72.2989 65.4564 73.6473 65.9763C74.9958 66.488 75.9624 67.3978 76.5391 68.6975ZM72.6644 72.7185C73.2005 72.4829 73.5742 72.1011 73.7854 71.5568C73.9966 71.0126 73.9804 70.4683 73.7367 69.9322C73.493 69.388 73.1031 69.0143 72.5588 68.8031C72.0146 68.5919 71.4703 68.6082 70.9342 68.8518C70.39 69.0955 70.0163 69.4854 69.8051 70.0297C69.5939 70.5739 69.6101 71.1101 69.8538 71.6462C70.0975 72.1823 70.4874 72.5479 71.0317 72.7591C71.584 72.9621 72.1283 72.954 72.6644 72.7185Z" fill="#D8AB71"/>
<path d="M68.6348 28.8554C67.985 29.2047 67.2783 29.2291 66.5066 28.9285C65.7755 28.6442 65.2556 28.1812 64.9551 27.5313C64.6545 26.8815 64.6464 26.191 64.9226 25.4599C65.2069 24.7207 65.678 24.2171 66.3441 23.949C67.0021 23.681 67.7007 23.6891 68.4318 23.9734C68.7729 24.1034 69.0816 24.2902 69.3578 24.542C69.634 24.7857 69.8208 25.0538 69.9264 25.3462L68.8542 25.8174C68.8054 25.6386 68.708 25.4762 68.5699 25.3381C68.4237 25.2 68.2612 25.0944 68.0662 25.0213C67.6682 24.867 67.2945 24.8832 66.9371 25.0538C66.5797 25.2244 66.3198 25.5249 66.1573 25.9392C65.9948 26.3616 65.9867 26.7596 66.1329 27.1252C66.2792 27.4907 66.5472 27.7507 66.9452 27.8969C67.3839 28.0675 67.7819 28.035 68.1312 27.7994L68.6348 28.8554Z" fill="white"/>
<path d="M74.6131 29.1811C74.3288 29.9203 73.8577 30.432 73.1916 30.7082C72.5336 30.9844 71.8269 30.9844 71.0796 30.692C70.3404 30.4077 69.8124 29.9365 69.5118 29.2867C69.2031 28.6368 69.195 27.9464 69.4793 27.199C69.7636 26.4517 70.2348 25.9481 70.8928 25.6881C71.5426 25.4282 72.2493 25.4363 72.9885 25.7206C73.7358 26.0131 74.2639 26.4679 74.5725 27.1016C74.8893 27.7433 74.8975 28.4337 74.6131 29.1811ZM73.3947 28.7099C73.5571 28.2956 73.5571 27.8976 73.4109 27.5321C73.2647 27.1665 72.9885 26.9066 72.5986 26.7523C72.2006 26.5979 71.8269 26.6142 71.4776 26.7848C71.1202 26.9553 70.8684 27.2559 70.7059 27.6702C70.5435 28.0926 70.5353 28.4906 70.6734 28.8643C70.8197 29.2379 71.0877 29.4979 71.4857 29.6522C71.8838 29.8065 72.2574 29.7903 72.6149 29.6116C72.9723 29.441 73.2322 29.1323 73.3947 28.7099Z" fill="white"/>
<path d="M79.1215 31.6015C78.9022 32.1701 78.5448 32.56 78.033 32.7631C77.5294 32.9743 76.9689 32.958 76.3597 32.7224C75.7504 32.4869 75.328 32.1213 75.1006 31.6339C74.8731 31.1466 74.865 30.6186 75.0843 30.0418L76.2135 27.1094L77.3426 27.548L76.246 30.3911C76.1404 30.6673 76.1241 30.9272 76.1972 31.1709C76.2703 31.4146 76.4571 31.5852 76.7577 31.6989C77.0583 31.8127 77.3182 31.8127 77.5294 31.6827C77.7406 31.5527 77.9031 31.3496 78.0168 31.0735L79.1134 28.2304L80.2506 28.669L79.1215 31.6015Z" fill="white"/>
<path d="M84.1821 31.8461C84.0522 32.1954 83.8491 32.4472 83.581 32.6096C83.313 32.7721 83.0286 32.8452 82.72 32.8371C82.4194 32.8208 82.0864 32.7477 81.7371 32.6178L81.1685 32.3984L80.4861 34.1774L79.3489 33.7387L81.1603 29.0273L82.8906 29.6934C83.451 29.9046 83.8491 30.1971 84.1009 30.5545C84.3527 30.9038 84.3771 31.3343 84.1821 31.8461ZM83.0449 31.4155C83.183 31.0581 82.988 30.7738 82.4519 30.5707L81.9564 30.3758L81.5259 31.4886L82.0051 31.6755C82.5494 31.8867 82.8987 31.7973 83.0449 31.4155Z" fill="white"/>
<path d="M89.438 34.8842C89.1537 35.6234 88.6825 36.1352 88.0164 36.4113C87.3585 36.6875 86.6517 36.6875 85.9044 36.3951C85.1652 36.1108 84.6372 35.6396 84.3367 34.9898C84.028 34.3399 84.0199 33.6495 84.3042 32.9022C84.5885 32.1548 85.0596 31.6512 85.7176 31.3913C86.3674 31.1313 87.0741 31.1394 87.8134 31.4237C88.5607 31.7162 89.0887 32.1711 89.3974 32.8047C89.7142 33.4545 89.7223 34.1369 89.438 34.8842ZM88.2195 34.4131C88.382 33.9988 88.382 33.6007 88.2357 33.2352C88.0895 32.8697 87.8133 32.6097 87.4234 32.4554C87.0254 32.301 86.6517 32.3173 86.3024 32.4879C85.945 32.6585 85.6932 32.959 85.5307 33.3733C85.3683 33.7957 85.3602 34.1937 85.4983 34.5674C85.6445 34.9411 85.9125 35.201 86.3106 35.3553C86.7086 35.5097 87.0823 35.4934 87.4397 35.3147C87.7971 35.1441 88.057 34.8436 88.2195 34.4131Z" fill="white"/>
<path d="M93.5566 39.1963L92.2651 38.7008L91.5583 34.8911L91.5421 34.883L90.3805 37.9697L89.2758 37.5473L91.0872 32.8359L92.3869 33.3314L93.0936 37.1331L93.1099 37.1412L94.2633 34.0544L95.3681 34.4768L93.5566 39.1963Z" fill="white"/>
<path opacity="0.23" d="M76.0428 73.9535L48.1643 80.4114L40.756 77.5602C39.1476 76.9428 38.3434 75.1395 38.9689 73.5311L54.9064 32.1032C56.5148 32.7206 58.3181 31.9245 58.9355 30.3161C59.5529 28.7078 58.7487 26.9044 57.1484 26.2871L63.2651 10.3902C63.4682 9.85404 63.8094 9.40727 64.2236 9.07422L66.9611 20.9015C65.2797 21.2914 64.2399 22.9647 64.6298 24.6462C65.0197 26.3277 66.6931 27.3675 68.3745 26.9776L70.1454 34.6295L78.3822 70.2087C78.7721 71.8902 77.7242 73.5636 76.0428 73.9535Z" fill="#703800"/>
<path d="M20.7574 29.154L16.9152 12.5585C16.5253 10.877 17.5731 9.20368 19.2546 8.81377L56.9865 0.0814319C58.6679 -0.308477 60.3413 0.739404 60.7312 2.42089L64.5735 19.0164C62.892 19.4063 61.8522 21.0797 62.2421 22.7612L24.5022 31.4935C24.1122 29.812 22.4389 28.7723 20.7574 29.154Z" fill="#F4BB1B"/>
<path d="M32.1786 78.4706L22.1628 35.2313C23.8443 34.8414 24.8841 33.168 24.4942 31.4866L62.2341 22.7461C62.624 24.4276 64.2974 25.4673 65.9789 25.0774L75.9866 68.3086C76.3765 69.9901 75.3286 71.6635 73.6471 72.0534L35.9153 80.7938C34.2419 81.1919 32.5604 80.144 32.1786 78.4706Z" fill="url(#paint2_linear_2131_8960)"/>
<path d="M28.1007 31.5914C28.5881 31.4777 28.8886 30.9903 28.7749 30.5029C28.6612 30.0156 28.1738 29.715 27.6864 29.8287C27.199 29.9424 26.8985 30.4298 27.0122 30.9172C27.1259 31.3965 27.6133 31.697 28.1007 31.5914Z" fill="white"/>
<path d="M31.9674 30.6891C32.4548 30.5754 32.7553 30.088 32.6416 29.6006C32.5279 29.1132 32.0405 28.8127 31.5531 28.9264C31.0657 29.0401 30.7652 29.5275 30.8789 30.0149C30.9926 30.5023 31.48 30.8028 31.9674 30.6891Z" fill="white"/>
<path d="M36.2082 29.6107C36.5917 29.2931 36.6451 28.7247 36.3275 28.3412C36.0099 27.9576 35.4415 27.9042 35.058 28.2218C34.6744 28.5394 34.621 29.1078 34.9386 29.4913C35.2562 29.8749 35.8246 29.9283 36.2082 29.6107Z" fill="white"/>
<path d="M40.3222 28.3866C40.5239 27.9313 40.3183 27.3987 39.863 27.1969C39.4077 26.9952 38.8751 27.2008 38.6734 27.6561C38.4716 28.1114 38.6772 28.644 39.1325 28.8457C39.5878 29.0475 40.1204 28.8419 40.3222 28.3866Z" fill="white"/>
<path d="M43.5749 28.0094C44.0623 27.8957 44.3629 27.4083 44.2492 26.9209C44.1354 26.4335 43.648 26.133 43.1607 26.2467C42.6733 26.3604 42.3727 26.8478 42.4864 27.3352C42.6002 27.8145 43.0876 28.115 43.5749 28.0094Z" fill="white"/>
<path d="M47.4415 27.1071C47.9289 26.9933 48.2295 26.506 48.1157 26.0186C48.002 25.5312 47.5146 25.2306 47.0272 25.3444C46.5399 25.4581 46.2393 25.9455 46.353 26.4328C46.4667 26.9202 46.9541 27.2208 47.4415 27.1071Z" fill="white"/>
<path d="M51.3082 26.2164C51.7956 26.1027 52.0962 25.6153 51.9824 25.1279C51.8687 24.6406 51.3813 24.34 50.8939 24.4537C50.4065 24.5674 50.106 25.0548 50.2197 25.5422C50.3334 26.0296 50.8208 26.3302 51.3082 26.2164Z" fill="white"/>
<path d="M55.1749 25.3219C55.6623 25.2082 55.9629 24.7208 55.8491 24.2334C55.7354 23.746 55.248 23.4455 54.7606 23.5592C54.2732 23.6729 53.9727 24.1603 54.0864 24.6477C54.2083 25.127 54.6875 25.4356 55.1749 25.3219Z" fill="white"/>
<path d="M59.0499 24.4196C59.5373 24.3058 59.8379 23.8185 59.7241 23.3311C59.6104 22.8437 59.123 22.5431 58.6356 22.6569C58.1482 22.7706 57.8477 23.258 57.9614 23.7453C58.0751 24.2327 58.5625 24.5333 59.0499 24.4196Z" fill="white"/>
<path d="M46.4255 45.9695C46.7423 47.3504 46.5311 48.6501 45.7676 49.8686C45.0121 51.0789 43.9318 51.8506 42.5265 52.1755C41.1212 52.5005 39.8133 52.2811 38.603 51.5257C37.3926 50.7703 36.621 49.698 36.3042 48.3171C35.9792 46.9118 36.1986 45.6121 36.954 44.4099C37.7095 43.2076 38.7898 42.4441 40.1951 42.1191C41.6004 41.7942 42.9001 42.0054 44.1186 42.7527C45.337 43.4919 46.1006 44.5642 46.4255 45.9695ZM43.1682 48.2521C43.485 47.7566 43.5743 47.2286 43.4444 46.66C43.3144 46.0913 42.9976 45.6527 42.494 45.3359C41.9903 45.0191 41.4542 44.9297 40.8856 45.0597C40.317 45.1897 39.8783 45.5065 39.5615 46.0101C39.2447 46.5137 39.1554 47.0499 39.2853 47.6185C39.4153 48.1871 39.7321 48.6258 40.2357 48.9263C40.7394 49.235 41.2674 49.3162 41.836 49.1862C42.4127 49.0563 42.8514 48.7476 43.1682 48.2521ZM53.5089 39.7309L46.9048 61.7121L44.2648 61.0866L50.7633 39.1055L53.5089 39.7309ZM59.0895 49.2106C60.2998 49.9579 61.0715 51.0302 61.3964 52.4355C61.7214 53.8408 61.502 55.1405 60.7466 56.3427C59.9911 57.5449 58.9108 58.3085 57.5055 58.6334C56.1002 58.9583 54.8005 58.7471 53.582 57.9998C52.3717 57.2525 51.6 56.1802 51.275 54.7749C50.9501 53.3696 51.1694 52.07 51.9249 50.8677C52.6803 49.6655 53.7607 48.9019 55.166 48.577C56.5713 48.2521 57.871 48.4633 59.0895 49.2106ZM58.1309 54.7181C58.4477 54.2226 58.5371 53.6946 58.4071 53.126C58.2772 52.5573 57.9604 52.1187 57.4567 51.8019C56.9531 51.4851 56.417 51.3957 55.8484 51.5257C55.2797 51.6557 54.8411 51.9725 54.5243 52.4761C54.2075 52.9797 54.1181 53.5159 54.2481 54.0845C54.3781 54.6531 54.6949 55.0917 55.1985 55.3923C55.7021 55.701 56.2301 55.7822 56.7988 55.6522C57.3755 55.5223 57.8141 55.2136 58.1309 54.7181Z" fill="#D8AB71"/>
<path d="M30.5553 20.2695C30.2142 20.9193 29.6374 21.3336 28.8332 21.5204C28.0697 21.6991 27.3792 21.6016 26.77 21.2361C26.1607 20.8706 25.7627 20.302 25.584 19.5384C25.4053 18.7667 25.5109 18.0843 25.9089 17.4914C26.307 16.8984 26.8837 16.5166 27.6473 16.3379C28.0047 16.2566 28.3621 16.2404 28.7276 16.2891C29.0932 16.3379 29.4019 16.4516 29.6537 16.6384L29.0363 17.6294C28.8982 17.5076 28.7276 17.4264 28.5327 17.3939C28.3377 17.3614 28.1428 17.3614 27.9397 17.4101C27.5254 17.5076 27.2249 17.7269 27.0218 18.0762C26.8187 18.4255 26.77 18.8154 26.8756 19.2459C26.9812 19.6927 27.1924 20.0258 27.5173 20.2451C27.8422 20.4644 28.2078 20.5294 28.622 20.4319C29.0769 20.3263 29.3856 20.0826 29.5481 19.6927L30.5553 20.2695Z" fill="white"/>
<path d="M35.6811 17.1817C35.8599 17.9534 35.7543 18.6438 35.3643 19.245C34.9744 19.8461 34.3896 20.236 33.6097 20.4147C32.8381 20.5934 32.1395 20.4959 31.5221 20.1304C30.9048 19.7648 30.5067 19.1962 30.328 18.4245C30.1493 17.6447 30.2549 16.9624 30.6529 16.3856C31.0428 15.8008 31.6358 15.419 32.4075 15.2403C33.1873 15.0615 33.8859 15.1428 34.4952 15.4921C35.1125 15.8414 35.5024 16.4019 35.6811 17.1817ZM34.4139 17.4741C34.3165 17.0355 34.0971 16.7105 33.7722 16.4912C33.4392 16.2719 33.0736 16.2069 32.6593 16.3044C32.2451 16.4019 31.9445 16.6212 31.7496 16.9624C31.5546 17.3035 31.5059 17.6934 31.6033 18.1321C31.7089 18.5789 31.9201 18.9119 32.2532 19.1393C32.5781 19.3668 32.9518 19.4318 33.3661 19.3343C33.7803 19.2368 34.0809 19.0175 34.284 18.6682C34.4708 18.3189 34.5195 17.9209 34.4139 17.4741Z" fill="white"/>
<path d="M40.7827 16.6643C40.9208 17.2573 40.8396 17.7772 40.539 18.232C40.2385 18.6869 39.7673 18.9875 39.1256 19.1337C38.4839 19.2799 37.9315 19.2149 37.4685 18.9388C37.0055 18.6626 36.7049 18.2239 36.5668 17.6309L35.8601 14.5685L37.038 14.2923L37.7284 17.2573C37.7934 17.5497 37.9315 17.7772 38.1265 17.9315C38.3214 18.0858 38.5813 18.1346 38.89 18.0615C39.2068 17.9884 39.418 17.8421 39.5236 17.6147C39.6292 17.3872 39.6455 17.1273 39.5805 16.8349L38.89 13.8699L40.076 13.5938L40.7827 16.6643Z" fill="white"/>
<path d="M45.1036 14.0333C45.1848 14.3907 45.1604 14.7156 45.0304 15C44.9005 15.2843 44.7055 15.5036 44.4456 15.666C44.1856 15.8285 43.877 15.9504 43.5114 16.0316L42.9184 16.1697L43.349 18.0217L42.163 18.2979L41.0258 13.3835L42.8291 12.9692C43.4139 12.8311 43.9095 12.8473 44.3075 13.0017C44.7218 13.156 44.9817 13.4972 45.1036 14.0333ZM43.9176 14.3095C43.8282 13.9358 43.5114 13.814 42.9509 13.9439L42.4311 14.0658L42.6991 15.2274L43.2027 15.1137C43.7714 14.9756 44.0151 14.7075 43.9176 14.3095Z" fill="white"/>
<path d="M51.1636 13.5996C51.3423 14.3713 51.2367 15.0618 50.8468 15.6629C50.4569 16.264 49.872 16.6539 49.0922 16.8326C48.3205 17.0114 47.6219 16.9139 47.0045 16.5483C46.3872 16.1828 45.9891 15.6142 45.8104 14.8425C45.6317 14.0627 45.7373 13.3803 46.1354 12.8036C46.5253 12.2187 47.1183 11.8369 47.89 11.6582C48.6698 11.4795 49.3684 11.5607 49.9776 11.91C50.5868 12.2593 50.9767 12.8198 51.1636 13.5996ZM49.8882 13.8921C49.7908 13.4534 49.5714 13.1285 49.2465 12.9092C48.9135 12.6899 48.5479 12.6249 48.1337 12.7224C47.7194 12.8198 47.4188 13.0392 47.2239 13.3803C47.0289 13.7215 46.9802 14.1114 47.0776 14.5501C47.1832 14.9968 47.3944 15.3299 47.7275 15.5573C48.0524 15.7848 48.4261 15.8497 48.8404 15.7523C49.2546 15.6548 49.5552 15.4355 49.7583 15.0862C49.9451 14.7369 49.9938 14.3389 49.8882 13.8921Z" fill="white"/>
<path d="M56.9881 14.8598L55.6396 15.1685L52.9184 12.4147L52.894 12.4229L53.6657 15.6315L52.5122 15.8996L51.375 10.9851L52.7316 10.6683L55.4447 13.422L55.469 13.4139L54.6974 10.2134L55.8508 9.94531L56.9881 14.8598Z" fill="white"/>
<path opacity="0.23" d="M51.2751 58.641C51.2751 63.9373 47.5791 68.3725 42.624 69.5016C41.8198 69.6803 40.9912 69.7778 40.1383 69.7778C39.0173 69.7778 37.9451 69.6153 36.9216 69.3066C36.4504 69.1685 35.9955 68.998 35.5569 68.7949C33.9972 68.0882 32.6326 67.0403 31.5522 65.7325C31.2354 65.3507 30.9511 64.9527 30.683 64.5302C30.1063 63.6042 29.6595 62.5888 29.3671 61.5085C29.1234 60.5905 28.9934 59.632 28.9934 58.6329C28.9934 53.4016 32.6082 49.007 37.4739 47.8129C38.3269 47.6017 39.2204 47.4961 40.1302 47.4961C40.3414 47.4961 40.5445 47.5042 40.7475 47.5123C41.2512 47.5367 41.7386 47.6017 42.2178 47.6911C43.9237 48.016 45.4914 48.7308 46.8236 49.7381C47.2135 50.0305 47.5791 50.3473 47.9284 50.6885C49.2849 52.0207 50.3084 53.7021 50.8446 55.5948C51.1289 56.5696 51.2751 57.585 51.2751 58.641Z" fill="#703800"/>
<path d="M49.8615 58.8129C49.8615 64.1091 46.1655 68.5444 41.2104 69.6735C40.4062 69.8522 39.5777 69.9497 38.7247 69.9497C37.6038 69.9497 36.5315 69.7872 35.508 69.4785C35.0368 69.3404 34.582 69.1698 34.1433 68.9668C32.5837 68.2601 31.219 67.2122 30.1386 65.9043C29.8218 65.5226 29.5375 65.1245 29.2694 64.7021C28.6927 63.7761 28.2459 62.7607 27.9535 61.6803C27.7098 60.7624 27.5798 59.8039 27.5798 58.8048C27.5798 53.5735 31.1946 49.1789 36.0604 47.9848C36.9133 47.7736 37.8068 47.668 38.7166 47.668C38.9278 47.668 39.1309 47.6761 39.334 47.6842C39.8376 47.7086 40.325 47.7736 40.8043 47.8629C42.5101 48.1878 44.0779 48.9027 45.4101 49.9099C45.8 50.2024 46.1655 50.5192 46.5148 50.8604C47.8714 52.1925 48.8949 53.874 49.431 55.7667C49.7153 56.7415 49.8615 57.7569 49.8615 58.8129Z" fill="url(#paint3_linear_2131_8960)"/>
<path d="M38.7251 68.5327C44.0951 68.5327 48.4484 64.1794 48.4484 58.8093C48.4484 53.4392 44.0951 49.0859 38.7251 49.0859C33.355 49.0859 29.0017 53.4392 29.0017 58.8093C29.0017 64.1794 33.355 68.5327 38.7251 68.5327Z" fill="url(#paint4_linear_2131_8960)"/>
<path d="M38.7246 67.1199C43.3141 67.1199 47.0346 63.3994 47.0346 58.8099C47.0346 54.2205 43.3141 50.5 38.7246 50.5C34.1352 50.5 30.4147 54.2205 30.4147 58.8099C30.4147 63.3994 34.1352 67.1199 38.7246 67.1199Z" fill="url(#paint5_linear_2131_8960)"/>
<path opacity="0.3" d="M45.4184 49.9181L34.1354 68.9749C32.5758 68.2682 31.2111 67.2203 30.1307 65.9125L40.8126 47.8711C42.5185 48.196 44.0862 48.9109 45.4184 49.9181Z" fill="white"/>
<path opacity="0.3" d="M49.4391 55.7735L41.2104 69.6722C40.4062 69.8509 39.5776 69.9484 38.7247 69.9484C37.6037 69.9484 36.5314 69.7859 35.5079 69.4772L46.531 50.8672C47.8876 52.2075 48.9029 53.889 49.4391 55.7735Z" fill="white"/>
<path opacity="0.3" d="M39.3422 47.6912L29.2696 64.7091C28.6928 63.7831 28.246 62.7677 27.9536 61.6873L36.0605 47.9999C36.9134 47.7887 37.8069 47.6831 38.7167 47.6831C38.9279 47.6749 39.1391 47.6831 39.3422 47.6912Z" fill="white"/>
<path d="M37.4902 58.388C38.0182 57.86 38.2862 57.2183 38.2862 56.4709C38.2862 55.7155 38.0182 55.0738 37.4902 54.5458C36.9622 54.0259 36.3123 53.7578 35.565 53.7578C34.8177 53.7578 34.1678 54.0259 33.6398 54.5458C33.1118 55.0656 32.8438 55.7155 32.8438 56.4709C32.8438 57.2101 33.1118 57.86 33.6398 58.388C34.1678 58.916 34.8177 59.1841 35.565 59.1841C36.3123 59.1841 36.9622 58.916 37.4902 58.388ZM36.1336 57.0314C35.9711 57.1858 35.7843 57.267 35.565 57.267C35.3457 57.267 35.1588 57.1939 34.9964 57.0314C34.8339 56.8771 34.7608 56.6903 34.7608 56.4709C34.7608 56.2516 34.842 56.0648 34.9964 55.9023C35.1588 55.7399 35.3375 55.6667 35.565 55.6667C35.7843 55.6667 35.9711 55.748 36.1336 55.9023C36.2961 56.0648 36.3692 56.2435 36.3692 56.4709C36.3692 56.6903 36.2879 56.869 36.1336 57.0314Z" fill="#E6A225"/>
<path d="M43.81 59.2059C43.282 58.686 42.6321 58.418 41.8848 58.418C41.1375 58.418 40.4876 58.686 39.9596 59.2059C39.4316 59.7339 39.1636 60.3756 39.1636 61.1311C39.1636 61.8865 39.4316 62.5283 39.9596 63.0563C40.4876 63.5761 41.1375 63.8442 41.8848 63.8442C42.6321 63.8442 43.282 63.5761 43.81 63.0563C44.338 62.5364 44.6061 61.8865 44.6061 61.1311C44.6061 60.3756 44.338 59.7258 43.81 59.2059ZM42.4453 61.6835C42.2828 61.8378 42.096 61.919 41.8767 61.919C41.6574 61.919 41.4705 61.8459 41.3081 61.6835C41.1456 61.5291 41.0725 61.3423 41.0725 61.123C41.0725 60.9036 41.1537 60.7168 41.3081 60.5543C41.4705 60.3919 41.6492 60.3188 41.8767 60.3188C42.096 60.3188 42.2828 60.4 42.4453 60.5543C42.6078 60.7168 42.6809 60.8955 42.6809 61.123C42.689 61.3504 42.6078 61.5291 42.4453 61.6835Z" fill="#E6A225"/>
<path d="M42.275 54.2439C42.2588 54.1871 42.2181 54.1383 42.1613 54.1058L40.9347 53.5128C40.8291 53.4641 40.6991 53.5047 40.6423 53.6022L35.2079 63.2118C35.1754 63.2687 35.1673 63.3256 35.1917 63.3905C35.2079 63.4474 35.2485 63.4961 35.3054 63.5286L36.4751 64.1054C36.5076 64.1216 36.5401 64.1297 36.5726 64.1297C36.6538 64.1297 36.7269 64.0891 36.7675 64.016L42.2588 54.4226C42.2913 54.3658 42.2994 54.3008 42.275 54.2439Z" fill="#E6A225"/>
<path d="M38.0667 56.4725C38.0667 57.1548 37.823 57.7397 37.3356 58.2271C36.8482 58.7145 36.2552 58.9582 35.5648 58.9582C34.8743 58.9582 34.2813 58.7145 33.7939 58.2271C33.3066 57.7397 33.0629 57.1548 33.0629 56.4725C33.0629 55.782 33.3066 55.189 33.7939 54.7098C34.2813 54.2305 34.8743 53.9868 35.5648 53.9868C36.2552 53.9868 36.8482 54.2305 37.3356 54.7098C37.823 55.189 38.0667 55.782 38.0667 56.4725ZM36.2877 57.1873C36.4908 56.9924 36.5883 56.7487 36.5883 56.4725C36.5883 56.1882 36.4908 55.9526 36.2877 55.7495C36.0847 55.5464 35.841 55.449 35.5648 55.449C35.2805 55.449 35.0449 55.5464 34.8418 55.7495C34.6388 55.9526 34.5413 56.1963 34.5413 56.4725C34.5413 56.7568 34.6388 56.9924 34.8418 57.1873C35.0449 57.3823 35.2886 57.4798 35.5648 57.4798C35.841 57.4879 36.0847 57.3823 36.2877 57.1873ZM42.0633 54.3117L36.5721 63.9051L35.4023 63.3284L40.8367 53.7188L42.0633 54.3117ZM43.6554 59.3643C44.1428 59.8436 44.3865 60.4366 44.3865 61.127C44.3865 61.8175 44.1428 62.4105 43.6554 62.8897C43.168 63.369 42.575 63.6127 41.8846 63.6127C41.1941 63.6127 40.6011 63.369 40.1137 62.8897C39.6263 62.4105 39.3826 61.8175 39.3826 61.127C39.3826 60.4366 39.6263 59.8436 40.1137 59.3643C40.6011 58.885 41.1941 58.6414 41.8846 58.6414C42.575 58.6414 43.168 58.885 43.6554 59.3643ZM42.6075 61.85C42.8106 61.655 42.9081 61.4113 42.9081 61.1352C42.9081 60.8508 42.8106 60.6153 42.6075 60.4122C42.4044 60.2091 42.1607 60.1116 41.8846 60.1116C41.6003 60.1116 41.3647 60.2091 41.1616 60.4122C40.9585 60.6153 40.8611 60.859 40.8611 61.1352C40.8611 61.4195 40.9585 61.655 41.1616 61.85C41.3647 62.0449 41.6084 62.1424 41.8846 62.1424C42.1607 62.1424 42.4044 62.0449 42.6075 61.85Z" fill="white"/>
<path opacity="0.23" d="M96.1629 61.0119C96.1629 65.0978 93.3117 68.5177 89.4938 69.3868C88.8765 69.5249 88.2348 69.6062 87.5768 69.6062C86.7157 69.6062 85.8791 69.4762 85.0992 69.2406C84.7337 69.135 84.3844 68.9969 84.0432 68.8426C82.841 68.2983 81.785 67.486 80.9565 66.4869C80.7128 66.1945 80.4934 65.8858 80.2904 65.5608C79.8436 64.846 79.5024 64.0662 79.275 63.2295C79.0881 62.5228 78.9825 61.7836 78.9825 61.0119C78.9825 56.9747 81.7688 53.5874 85.5216 52.6695C86.1796 52.507 86.8701 52.4258 87.5768 52.4258C87.7392 52.4258 87.8936 52.4339 88.0561 52.442C88.446 52.4664 88.8196 52.507 89.1933 52.5801C90.5092 52.8319 91.7196 53.3762 92.7431 54.156C93.0436 54.3834 93.3279 54.6271 93.596 54.8952C94.6439 55.9268 95.4318 57.2265 95.8461 58.6806C96.0492 59.4117 96.1629 60.1996 96.1629 61.0119Z" fill="#703800"/>
<path d="M97.422 61.0119C97.422 65.0978 94.5707 68.5177 90.7529 69.3868C90.1355 69.5249 89.4938 69.6062 88.8358 69.6062C87.9748 69.6062 87.1381 69.4762 86.3583 69.2406C85.9927 69.135 85.6434 68.9969 85.3023 68.8426C84.1 68.2983 83.044 67.486 82.2155 66.4869C81.9718 66.1945 81.7525 65.8858 81.5494 65.5608C81.1026 64.846 80.7615 64.0662 80.534 63.2295C80.3472 62.5228 80.2416 61.7836 80.2416 61.0119C80.2416 56.9747 83.0278 53.5874 86.7807 52.6695C87.4387 52.507 88.1291 52.4258 88.8358 52.4258C88.9983 52.4258 89.1526 52.4339 89.3151 52.442C89.705 52.4664 90.0787 52.507 90.4523 52.5801C91.7683 52.8319 92.9786 53.3762 94.0021 54.156C94.3027 54.3834 94.587 54.6271 94.855 54.8952C95.9029 55.9268 96.6909 57.2265 97.1051 58.6806C97.3082 59.4117 97.422 60.1996 97.422 61.0119Z" fill="url(#paint6_linear_2131_8960)"/>
<path d="M88.8276 68.5109C92.9684 68.5109 96.3252 65.1541 96.3252 61.0133C96.3252 56.8724 92.9684 53.5156 88.8276 53.5156C84.6868 53.5156 81.33 56.8724 81.33 61.0133C81.33 65.1541 84.6868 68.5109 88.8276 68.5109Z" fill="url(#paint7_linear_2131_8960)"/>
<path d="M88.8278 67.4237C92.3675 67.4237 95.237 64.5543 95.237 61.0146C95.237 57.4749 92.3675 54.6055 88.8278 54.6055C85.2882 54.6055 82.4187 57.4749 82.4187 61.0146C82.4187 64.5543 85.2882 67.4237 88.8278 67.4237Z" fill="url(#paint8_linear_2131_8960)"/>
<path opacity="0.3" d="M94.0016 54.1501L85.3017 68.8448C84.0995 68.3006 83.0435 67.4883 82.215 66.4891L90.4437 52.5742C91.7596 52.8179 92.97 53.3703 94.0016 54.1501Z" fill="white"/>
<path opacity="0.3" d="M97.0964 58.6643L90.7523 69.3868C90.1349 69.5249 89.4932 69.6061 88.8352 69.6061C87.9742 69.6061 87.1375 69.4761 86.3577 69.2406L94.8544 54.8789C95.9023 55.9105 96.6821 57.2102 97.0964 58.6643Z" fill="white"/>
<path opacity="0.3" d="M89.3065 52.4353L81.5327 65.5623C81.086 64.8474 80.7448 64.0676 80.5173 63.2309L86.7721 52.6709C87.4301 52.5084 88.1206 52.4272 88.8273 52.4272C88.9897 52.4191 89.1522 52.4191 89.3065 52.4353Z" fill="white"/>
<path d="M87.8773 60.6796C88.2834 60.2735 88.4946 59.778 88.4946 59.2012C88.4946 58.6245 88.2916 58.1209 87.8773 57.7147C87.4711 57.3085 86.9675 57.1055 86.3908 57.1055C85.814 57.1055 85.3104 57.3085 84.9042 57.7147C84.4981 58.1209 84.2869 58.6164 84.2869 59.2012C84.2869 59.778 84.4899 60.2735 84.9042 60.6796C85.3104 61.0858 85.814 61.297 86.3908 61.297C86.9756 61.297 87.4711 61.0858 87.8773 60.6796ZM86.8294 59.6318C86.7076 59.7536 86.5613 59.8105 86.3908 59.8105C86.2202 59.8105 86.0739 59.7536 85.9521 59.6318C85.8303 59.5099 85.7734 59.3718 85.7734 59.2012C85.7734 59.0306 85.8303 58.8844 85.9602 58.7626C86.0821 58.6407 86.2283 58.5758 86.3989 58.5758C86.5695 58.5758 86.7157 58.6326 86.8375 58.7626C86.9594 58.8844 87.0244 59.0306 87.0244 59.2012C87.0162 59.3718 86.9512 59.5099 86.8294 59.6318Z" fill="#E6A225"/>
<path d="M92.7507 61.3124C92.3445 60.9062 91.8409 60.7031 91.2642 60.7031C90.6874 60.7031 90.1838 60.9062 89.7776 61.3124C89.3715 61.7185 89.1603 62.214 89.1603 62.7989C89.1603 63.3756 89.3634 63.8793 89.7776 64.2854C90.1838 64.6916 90.6874 64.8946 91.2642 64.8946C91.8409 64.8946 92.3445 64.6916 92.7507 64.2854C93.1569 63.8793 93.3681 63.3838 93.3681 62.7989C93.3681 62.214 93.165 61.7185 92.7507 61.3124ZM91.7028 63.2294C91.581 63.3513 91.4348 63.4081 91.2642 63.4081C91.0936 63.4081 90.9474 63.3513 90.8255 63.2294C90.7037 63.1076 90.6468 62.9695 90.6468 62.7989C90.6468 62.6283 90.7037 62.4821 90.8336 62.3602C90.9555 62.2384 91.1017 62.1734 91.2723 62.1734C91.4429 62.1734 91.5891 62.2303 91.7109 62.3602C91.8328 62.4821 91.8978 62.6283 91.8978 62.7989C91.8896 62.9695 91.8247 63.1076 91.7028 63.2294Z" fill="#E6A225"/>
<path d="M91.5731 57.4881C91.5568 57.4394 91.5243 57.4069 91.4837 57.3825L90.5414 56.9276C90.4602 56.887 90.3627 56.9195 90.314 57.0008L86.1225 64.409C86.0981 64.4496 86.09 64.4984 86.1062 64.5471C86.1225 64.5959 86.155 64.6283 86.1956 64.6527L87.0972 65.0995C87.1216 65.1076 87.146 65.1157 87.1704 65.1157C87.2272 65.1157 87.2922 65.0832 87.3166 65.0264L91.5487 57.6262C91.5812 57.5856 91.5893 57.5369 91.5731 57.4881Z" fill="#E6A225"/>
<path d="M88.3245 59.2022C88.3245 59.7302 88.1376 60.1851 87.764 60.5587C87.3903 60.9324 86.9354 61.1192 86.3993 61.1192C85.8632 61.1192 85.4083 60.9324 85.0346 60.5587C84.661 60.1851 84.4741 59.7302 84.4741 59.2022C84.4741 58.666 84.661 58.2111 85.0346 57.8456C85.4083 57.4719 85.8632 57.2851 86.3993 57.2851C86.9354 57.2851 87.3903 57.4719 87.764 57.8456C88.1376 58.2193 88.3245 58.666 88.3245 59.2022ZM86.9517 59.7545C87.106 59.6002 87.1872 59.4215 87.1872 59.2022C87.1872 58.9828 87.106 58.796 86.9517 58.6417C86.7973 58.4873 86.6105 58.4061 86.3912 58.4061C86.1718 58.4061 85.985 58.4873 85.8307 58.6417C85.6763 58.796 85.5951 58.9828 85.5951 59.2022C85.5951 59.4215 85.6763 59.6002 85.8307 59.7545C85.985 59.9089 86.1718 59.982 86.3912 59.982C86.6105 59.982 86.7973 59.9089 86.9517 59.7545ZM91.4113 57.5369L87.1791 64.9371L86.2774 64.4903L90.469 57.082L91.4113 57.5369ZM92.6297 61.436C93.0034 61.8097 93.1902 62.2646 93.1902 62.7926C93.1902 63.3287 93.0034 63.7836 92.6297 64.1491C92.2561 64.5228 91.8012 64.7096 91.265 64.7096C90.7289 64.7096 90.274 64.5228 89.9004 64.1491C89.5267 63.7755 89.3399 63.3206 89.3399 62.7926C89.3399 62.2565 89.5267 61.8016 89.9004 61.436C90.274 61.0624 90.7289 60.8755 91.265 60.8755C91.8012 60.8755 92.2561 61.0624 92.6297 61.436ZM91.8255 63.3531C91.9799 63.1987 92.0611 63.02 92.0611 62.8007C92.0611 62.5814 91.9799 62.3945 91.8255 62.2402C91.6712 62.0859 91.4844 62.0046 91.265 62.0046C91.0457 62.0046 90.8589 62.0859 90.7045 62.2402C90.5502 62.3945 90.469 62.5814 90.469 62.8007C90.469 63.02 90.5502 63.1987 90.7045 63.3531C90.8589 63.5074 91.0457 63.5805 91.265 63.5805C91.4844 63.5805 91.6712 63.5074 91.8255 63.3531Z" fill="white"/>
<path d="M61 64.4737C40.0121 64.4737 23 61.1276 23 57V97.2852C23 99.338 25.4257 101 28.4217 101H93.5783C96.5743 101 99 99.338 99 97.2852V57C99 61.1276 81.9879 64.4737 61 64.4737Z" fill="white"/>
<path d="M13.6713 41.0829L12.9889 39.2227L12.3066 41.0829L10.5845 41.9926L12.3066 42.9024L12.9889 44.7626L13.6713 42.9024L15.3934 41.9926L13.6713 41.0829Z" fill="#FEE17F"/>
<path d="M12.6882 50.3848L12.2983 49.3125L11.9003 50.3848L10.9011 50.9128L11.9003 51.4408L12.2983 52.513L12.6882 51.4408L13.6874 50.9128L12.6882 50.3848Z" fill="white"/>
<path d="M20.4375 44.5025L19.4384 41.7812L18.4474 44.5025L15.9292 45.8266L18.4474 47.1506L19.4384 49.8719L20.4375 47.1506L22.9557 45.8266L20.4375 44.5025Z" fill="#FEE17F"/>
<path d="M106.608 42.4723L107.201 40.8477L107.794 42.4723L109.297 43.2602L107.794 44.0563L107.201 45.6728L106.608 44.0563L105.106 43.2602L106.608 42.4723Z" fill="white"/>
<path d="M103.18 38.3033L103.643 37.0117L104.114 38.3033L105.308 38.9288L104.114 39.5624L103.643 40.8458L103.18 39.5624L101.986 38.9288L103.18 38.3033Z" fill="#FEE17F"/>
<path d="M99.9393 44.0389L100.76 41.7969L101.572 44.0389L103.643 45.1273L101.572 46.2158L100.76 48.4578L99.9393 46.2158L97.8679 45.1273L99.9393 44.0389Z" fill="#FEE17F"/>
<path d="M5.02002 2.58387C5.02002 2.58387 5.1175 6.96223 8.52108 7.9695L10.495 7.13281C6.89646 6.18241 6.79086 1.10547 6.79086 1.10547L5.02002 2.58387Z" fill="url(#paint9_linear_2131_8960)"/>
<path d="M2.61584 28.8123C2.61584 28.8123 4.45167 31.1355 6.70177 30.2907L7.42473 29.0316C5.09339 29.982 2.96514 27.2852 2.96514 27.2852L2.61584 28.8123Z" fill="url(#paint10_linear_2131_8960)"/>
<path d="M12.136 21.5833C12.136 21.5833 11.8354 23.6222 13.3382 24.3614L14.3211 24.1258C12.729 23.4029 13.0783 21.0391 13.0783 21.0391L12.136 21.5833Z" fill="url(#paint11_linear_2131_8960)"/>
<path d="M12.136 21.5833C12.136 21.5833 11.8354 23.6222 13.3382 24.3614L14.3211 24.1258C12.729 23.4029 13.0783 21.0391 13.0783 21.0391L12.136 21.5833Z" fill="url(#paint12_linear_2131_8960)"/>
<path d="M10.0729 15.2305C10.0729 15.2305 4.97975 17.4724 2.2179 15.7585C2.2179 15.7585 5.1016 18.9346 9.19565 17.4237L9.83737 16.4164L10.0729 15.2305Z" fill="url(#paint13_linear_2131_8960)"/>
<path d="M9.74011 21.469L8.27795 19.4301C8.27795 19.4301 8.39168 16.4002 10.0732 15.2305L11.4135 16.5383C11.4135 16.5383 9.68325 18.5691 9.74011 21.469Z" fill="url(#paint14_linear_2131_8960)"/>
<path d="M2.21788 15.7586C2.21788 15.7586 -2.46916 11.5265 2.06354 7.15625L3.4201 8.32598C3.4201 8.32598 -0.0322245 11.1203 2.21788 15.7586Z" fill="url(#paint15_linear_2131_8960)"/>
<path d="M113.945 40.1229C113.945 40.1229 113.847 44.5013 110.444 45.5086L108.47 44.6719C112.068 43.7215 112.174 38.6445 112.174 38.6445L113.945 40.1229Z" fill="url(#paint16_linear_2131_8960)"/>
<path d="M113.945 40.1229C113.945 40.1229 113.847 44.5013 110.444 45.5086L108.47 44.6719C112.068 43.7215 112.174 38.6445 112.174 38.6445L113.945 40.1229Z" fill="url(#paint17_linear_2131_8960)"/>
<path d="M112.068 19.9842C112.068 19.9842 110.233 22.3074 107.982 21.4626L107.26 20.2035C109.591 21.1539 111.719 18.457 111.719 18.457L112.068 19.9842Z" fill="url(#paint18_linear_2131_8960)"/>
<path d="M112.068 19.9842C112.068 19.9842 110.233 22.3074 107.982 21.4626L107.26 20.2035C109.591 21.1539 111.719 18.457 111.719 18.457L112.068 19.9842Z" fill="url(#paint19_linear_2131_8960)"/>
<path d="M113.75 24.6484C113.75 24.6484 118.843 26.8904 121.605 25.1764C121.605 25.1764 118.721 28.3526 114.627 26.8417L113.985 25.8344L113.75 24.6484Z" fill="url(#paint20_linear_2131_8960)"/>
<path d="M114.083 30.887L115.545 28.8481C115.545 28.8481 115.431 25.8182 113.75 24.6484L112.409 25.9563C112.409 25.9563 114.14 27.987 114.083 30.887Z" fill="url(#paint21_linear_2131_8960)"/>
<path d="M121.605 25.1766C121.605 25.1766 126.292 20.9445 121.759 16.5742L120.402 17.7439C120.402 17.7439 123.855 20.5383 121.605 25.1766Z" fill="url(#paint22_linear_2131_8960)"/>
</svg>
