<svg width="37" height="32" viewBox="0 0 37 32" fill="none" xmlns="http://www.w3.org/2000/svg">
<defs>
<linearGradient id="paint0_linear_926_31832" x1="19.4764" y1="9.50318" x2="16.1629" y2="28.3802" gradientUnits="userSpaceOnUse">
<stop stop-color="#FFE17A"/>
<stop offset="1" stop-color="#FE9902"/>
</linearGradient>
<linearGradient id="paint1_linear_926_31832" x1="19.9772" y1="2.78733" x2="19.9772" y2="10.5237" gradientUnits="userSpaceOnUse">
<stop stop-color="#FFE17A"/>
<stop offset="1" stop-color="#FE9902"/>
</linearGradient>
<linearGradient id="paint2_linear_926_31832" x1="32.6823" y1="12.838" x2="32.6823" y2="17.6732" gradientUnits="userSpaceOnUse">
<stop stop-color="#FFE17A"/>
<stop offset="1" stop-color="#FE9902"/>
</linearGradient>
<linearGradient id="paint3_linear_926_31832" x1="5.10187" y1="7.99623" x2="5.10187" y2="12.8314" gradientUnits="userSpaceOnUse">
<stop stop-color="#FFE17A"/>
<stop offset="1" stop-color="#FE9902"/>
</linearGradient>
</defs>
<path d="M31.3631 16.0683C31.1373 15.8198 30.8426 15.6337 30.5128 15.5313C30.183 15.4289 29.8313 15.4144 29.4978 15.4893L23.2971 16.8617L20.9249 10.6487C20.8104 10.358 20.6161 10.0989 20.3617 9.89764C20.1074 9.69642 19.8021 9.56035 19.477 9.50328C19.1518 9.4462 18.8185 9.47017 18.5108 9.57273C18.2031 9.6753 17.9322 9.8528 17.7255 10.0872L13.3791 15.1208L8.01652 11.7187C7.72786 11.5347 7.3918 11.4285 7.04634 11.4119C6.70088 11.3954 6.35979 11.4693 6.06163 11.6251C5.76347 11.781 5.52013 12.0127 5.35912 12.294C5.19811 12.5754 5.12585 12.8951 5.15051 13.2171L6.03577 25.2172C6.05222 25.4494 6.11897 25.6773 6.23197 25.887C6.34498 26.0967 6.50189 26.2839 6.69321 26.4372C6.95186 26.6469 7.26477 26.7887 7.59875 26.8477C7.76118 26.876 7.92648 26.8829 8.08982 26.8683C13.7673 25.887 19.0625 26.8683 24.2579 29.7063C24.7202 29.909 25.2453 29.9343 25.7179 29.7767C25.951 29.6994 26.1632 29.5774 26.3411 29.4185C26.519 29.2596 26.6587 29.0672 26.7515 28.8535L31.6822 17.8742C31.8141 17.5797 31.8542 17.2544 31.7978 16.9353C31.7415 16.6162 31.5909 16.3159 31.3631 16.0683Z" fill="#FFAA00"/>
<path d="M31.3631 16.0683C31.1373 15.8198 30.8426 15.6337 30.5128 15.5313C30.183 15.4289 29.8313 15.4144 29.4978 15.4893L23.2971 16.8617L20.9249 10.6487C20.8104 10.358 20.6161 10.0989 20.3617 9.89764C20.1074 9.69642 19.8021 9.56035 19.477 9.50328C19.1518 9.4462 18.8185 9.47017 18.5108 9.57273C18.2031 9.6753 17.9322 9.8528 17.7255 10.0872L13.3791 15.1208L8.01652 11.7187C7.72786 11.5347 7.3918 11.4285 7.04634 11.4119C6.70088 11.3954 6.35979 11.4693 6.06163 11.6251C5.76347 11.781 5.52013 12.0127 5.35912 12.294C5.19811 12.5754 5.12585 12.8951 5.15051 13.2171L6.03577 25.2172C6.05222 25.4494 6.11897 25.6773 6.23197 25.887C6.34498 26.0967 6.50189 26.2839 6.69321 26.4372C6.95186 26.6469 7.26477 26.7887 7.59875 26.8477C7.76118 26.876 7.92648 26.8829 8.08982 26.8683C13.7673 25.887 19.0625 26.8683 24.2579 29.7063C24.7202 29.909 25.2453 29.9343 25.7179 29.7767C25.951 29.6994 26.1632 29.5774 26.3411 29.4185C26.519 29.2596 26.6587 29.0672 26.7515 28.8535L31.6822 17.8742C31.8141 17.5797 31.8542 17.2544 31.7978 16.9353C31.7415 16.6162 31.5909 16.3159 31.3631 16.0683Z" fill="url(#paint0_linear_926_31832)"/>
<circle cx="19.9772" cy="6.64969" r="3.86236" transform="rotate(9.95586 19.9772 6.64969)" fill="#FFAA00"/>
<circle cx="19.9772" cy="6.64969" r="3.86236" transform="rotate(9.95586 19.9772 6.64969)" fill="url(#paint1_linear_926_31832)"/>
<circle cx="17.6399" cy="19.9633" r="2.89677" transform="rotate(9.95586 17.6399 19.9633)" fill="#FFDE67"/>
<circle cx="32.6823" cy="15.252" r="2.41397" transform="rotate(9.95586 32.6823 15.252)" fill="#FFAA00"/>
<circle cx="32.6823" cy="15.252" r="2.41397" transform="rotate(9.95586 32.6823 15.252)" fill="url(#paint2_linear_926_31832)"/>
<circle cx="5.10187" cy="10.4102" r="2.41397" transform="rotate(9.95586 5.10187 10.4102)" fill="#FFAA00"/>
<circle cx="5.10187" cy="10.4102" r="2.41397" transform="rotate(9.95586 5.10187 10.4102)" fill="url(#paint3_linear_926_31832)"/>
<circle cx="10.2568" cy="20.1418" r="1.44838" transform="rotate(9.95586 10.2568 20.1418)" fill="#FFDE67"/>
<circle cx="24.5225" cy="22.6438" r="1.44838" transform="rotate(9.95586 24.5225 22.6438)" fill="#FFDE67"/>
</svg>
