<svg width="14" height="14" viewBox="0 0 14 14" fill="none" xmlns="http://www.w3.org/2000/svg">
<g id="price-tag-tag_svgrepo.com" clip-path="url(#clip0_4024_2403)">
<path id="Vector" d="M6.3593 14L13.9911 6.34918L13.2798 0.731219L7.65898 0L0.0090332 7.64995L6.3593 14Z" fill="#DB2B42"/>
<path id="Vector_2" d="M10.3921 4.99702C11.1541 4.99702 11.7719 4.37924 11.7719 3.61716C11.7719 2.85509 11.1541 2.2373 10.3921 2.2373C9.62999 2.2373 9.01221 2.85509 9.01221 3.61716C9.01221 4.37924 9.62999 4.99702 10.3921 4.99702Z" fill="white"/>
<path id="Vector_3" d="M10.392 2.45549C11.0335 2.45549 11.5534 2.97545 11.5534 3.61688C11.5534 4.25831 11.0335 4.77827 10.392 4.77827C9.7506 4.77827 9.23064 4.25831 9.23064 3.61688C9.23064 2.97545 9.7506 2.45549 10.392 2.45549ZM10.392 2.01855C9.51072 2.01855 8.7937 2.73557 8.7937 3.61688C8.7937 4.49819 9.51072 5.21521 10.392 5.21521C11.2733 5.21521 11.9904 4.49819 11.9904 3.61688C11.9904 2.73557 11.2733 2.01855 10.392 2.01855Z" fill="#8AD5DD"/>
</g>
<defs>
<clipPath id="clip0_4024_2403">
<rect width="14" height="14" fill="white"/>
</clipPath>
</defs>
</svg>
