<svg width="15" height="4" viewBox="0 0 15 4" fill="none" xmlns="http://www.w3.org/2000/svg">
<path d="M7.84446 0.464844C8.60538 0.464844 9.22223 1.0817 9.22223 1.84262C9.22223 2.60355 8.60538 3.2204 7.84446 3.2204C7.08353 3.2204 6.46668 2.60355 6.46668 1.84262C6.46668 1.0817 7.08353 0.464844 7.84446 0.464844Z" fill="#132D2F"/>
<path d="M2.33334 0.464844C3.09427 0.464844 3.71112 1.0817 3.71112 1.84262C3.71112 2.60355 3.09427 3.2204 2.33334 3.2204C1.57242 3.2204 0.955566 2.60355 0.955566 1.84262C0.955566 1.0817 1.57242 0.464844 2.33334 0.464844Z" fill="#132D2F"/>
<path d="M13.3556 0.464844C14.1165 0.464844 14.7333 1.0817 14.7333 1.84262C14.7333 2.60355 14.1165 3.2204 13.3556 3.2204C12.5946 3.2204 11.9778 2.60355 11.9778 1.84262C11.9778 1.0817 12.5946 0.464844 13.3556 0.464844Z" fill="#132D2F"/>
</svg>
