<svg width="42" height="42" viewBox="0 0 42 42" fill="none" xmlns="http://www.w3.org/2000/svg">
<rect x="1" y="1" width="40" height="40" rx="20" fill="#F96262" fill-opacity="0.1" stroke="#F96262"/>
<path d="M21 24.575C20.8667 24.575 20.7417 24.5543 20.625 24.513C20.5083 24.4717 20.4 24.4007 20.3 24.3L16.7 20.7C16.5167 20.5167 16.425 20.2833 16.425 20C16.425 19.7167 16.5167 19.4833 16.7 19.3C16.8833 19.1167 17.121 19.021 17.413 19.013C17.705 19.005 17.9423 19.0923 18.125 19.275L20 21.15V14C20 13.7167 20.096 13.479 20.288 13.287C20.48 13.095 20.7173 12.9993 21 13C21.2833 13 21.521 13.096 21.713 13.288C21.905 13.48 22.0007 13.7173 22 14V21.15L23.875 19.275C24.0583 19.0917 24.296 19.004 24.588 19.012C24.88 19.02 25.1173 19.116 25.3 19.3C25.4833 19.4833 25.575 19.7167 25.575 20C25.575 20.2833 25.4833 20.5167 25.3 20.7L21.7 24.3C21.6 24.4 21.4917 24.471 21.375 24.513C21.2583 24.555 21.1333 24.5757 21 24.575ZM15 29C14.45 29 13.979 28.804 13.587 28.412C13.195 28.02 12.9993 27.5493 13 27V25C13 24.7167 13.096 24.479 13.288 24.287C13.48 24.095 13.7173 23.9993 14 24C14.2833 24 14.521 24.096 14.713 24.288C14.905 24.48 15.0007 24.7173 15 25V27H27V25C27 24.7167 27.096 24.479 27.288 24.287C27.48 24.095 27.7173 23.9993 28 24C28.2833 24 28.521 24.096 28.713 24.288C28.905 24.48 29.0007 24.7173 29 25V27C29 27.55 28.804 28.021 28.412 28.413C28.02 28.805 27.5493 29.0007 27 29H15Z" fill="#F96262"/>
</svg>
