<svg width="35" height="36" viewBox="0 0 35 36" fill="none" xmlns="http://www.w3.org/2000/svg">
<rect y="0.5" width="35" height="35" rx="12" fill="#FFC8C8"/>
<g clip-path="url(#clip0_4169_11687)">
<path d="M17.5 30C24.1274 30 29.5 24.6274 29.5 18C29.5 11.3726 24.1274 6 17.5 6C10.8726 6 5.5 11.3726 5.5 18C5.5 24.6274 10.8726 30 17.5 30Z" fill="#F96262" fill-opacity="0.5"/>
<path d="M18.9971 6.09286C18.5066 6.03178 18.007 6 17.5 6C10.8726 6 5.5 11.3726 5.5 18C5.5 24.6274 10.8726 30 17.5 30C18.3232 30 19.127 29.9169 19.9036 29.7591C14.3596 24.2942 14.1724 10.6991 18.9971 6.09286Z" fill="#F96262"/>
<path d="M27.613 17.6486H23.8467C23.8014 15.9302 23.4259 14.1283 22.7538 12.4144C22.6403 12.1251 22.5183 11.8385 22.3884 11.5555C23.0531 11.3604 23.682 11.1264 24.2655 10.8543C24.4414 10.7722 24.5176 10.5631 24.4355 10.3871C24.3535 10.2111 24.1443 10.1349 23.9683 10.217C23.3837 10.4896 22.7494 10.7222 22.0763 10.9137C21.5737 9.93185 20.9778 9.00635 20.3148 8.18491C20.1928 8.03388 19.9716 8.01011 19.8204 8.13218C19.6693 8.25414 19.6457 8.47544 19.7676 8.62657C20.3691 9.37178 20.9132 10.2072 21.3781 11.0938C20.217 11.3639 19.0434 11.4999 17.8515 11.5226V7.88721C17.8515 7.693 17.6942 7.53564 17.5 7.53564C17.3058 7.53564 17.1484 7.693 17.1484 7.88721V11.5226C15.9565 11.4999 14.7829 11.3639 13.6218 11.0938C14.0867 10.2072 14.6308 9.37183 15.2323 8.62657C15.3543 8.47544 15.3306 8.25414 15.1796 8.13218C15.0285 8.01025 14.8071 8.03374 14.6852 8.18491C14.0222 9.00639 13.4262 9.93189 12.9236 10.9137C12.2505 10.7222 11.6163 10.4896 11.0316 10.217C10.8558 10.135 10.6465 10.2111 10.5644 10.3871C10.4824 10.563 10.5585 10.7722 10.7345 10.8543C11.3179 11.1263 11.9468 11.3603 12.6116 11.5555C12.4817 11.8384 12.3597 12.1251 12.2462 12.4143C11.574 14.1283 11.1985 15.9301 11.1531 17.6486H7.38696C7.19281 17.6486 7.0354 17.806 7.0354 18.0002C7.0354 18.1944 7.19281 18.3517 7.38696 18.3517H11.1532C11.1985 20.0703 11.574 21.872 12.2462 23.586C12.3597 23.8752 12.4817 24.1619 12.6116 24.4449C11.9469 24.64 11.3179 24.874 10.7345 25.1461C10.5585 25.2281 10.4824 25.4373 10.5644 25.6133C10.6465 25.7892 10.8557 25.8654 11.0316 25.7833C11.6163 25.5107 12.2505 25.2781 12.9236 25.0866C13.4262 26.0684 14.0221 26.994 14.6852 27.8155C14.8074 27.9668 15.0289 27.9899 15.1796 27.8682C15.3306 27.7462 15.3543 27.5249 15.2323 27.3738C14.6307 26.6285 14.0867 25.7931 13.6218 24.9065C14.7666 24.6402 15.9398 24.5008 17.1484 24.4778V28.1132C17.1484 28.3074 17.3058 28.4647 17.5 28.4647C17.6942 28.4647 17.8515 28.3074 17.8515 28.1132V24.4779C19.0434 24.5005 20.217 24.6365 21.3781 24.9066C20.9132 25.7932 20.3691 26.6286 19.7676 27.3738C19.6457 27.525 19.6693 27.7463 19.8204 27.8682C19.9714 27.9902 20.1928 27.9666 20.3148 27.8155C20.9778 26.994 21.5737 26.0685 22.0763 25.0867C22.7494 25.2782 23.3837 25.5108 23.9683 25.7834C24.1443 25.8655 24.3535 25.7894 24.4355 25.6134C24.5176 25.4373 24.4414 25.2282 24.2655 25.1462C23.682 24.874 23.0531 24.64 22.3884 24.4449C22.5183 24.162 22.6403 23.8753 22.7538 23.586C23.4259 21.8721 23.8014 20.0703 23.8467 18.3518H27.613C27.8072 18.3518 27.9645 18.1944 27.9645 18.0002C27.9645 17.806 27.8072 17.6486 27.613 17.6486ZM17.1484 23.7746C15.8701 23.798 14.5736 23.9493 13.3012 24.2593C13.158 23.9535 13.0239 23.6432 12.9008 23.3293C12.2605 21.6967 11.9021 19.9837 11.8567 18.3517H17.1484V23.7746ZM17.1484 17.6486H11.8567C11.9021 16.0167 12.2605 14.3037 12.9008 12.6711C13.0239 12.3572 13.158 12.0468 13.3012 11.741C14.5736 12.051 15.8699 12.2024 17.1484 12.2258V17.6486ZM22.0991 23.3293C21.976 23.6433 21.8419 23.9535 21.6987 24.2594C20.4239 23.9489 19.1275 23.798 17.8515 23.7746V18.3518H23.1432C23.0979 19.9837 22.7394 21.6967 22.0991 23.3293ZM17.8515 17.6486V12.2258C19.1273 12.2024 20.4237 12.0516 21.6987 11.7411C21.8419 12.0469 21.9761 12.3572 22.0991 12.6711C22.7394 14.3037 23.0979 16.0168 23.1432 17.6487H17.8515V17.6486Z" fill="white"/>
</g>
<defs>
<clipPath id="clip0_4169_11687">
<rect width="24" height="24" fill="white" transform="translate(5.5 6)"/>
</clipPath>
</defs>
</svg>
