<svg width="159" height="159" viewBox="0 0 159 159" fill="none" xmlns="http://www.w3.org/2000/svg">
<g id="Frame" clip-path="url(#clip0_3437_3435)">
<path id="Vector" d="M79.3973 158.795C123.247 158.795 158.795 123.247 158.795 79.3973C158.795 35.5474 123.247 0 79.3973 0C35.5474 0 0 35.5474 0 79.3973C0 123.247 35.5474 158.795 79.3973 158.795Z" fill="url(#paint0_linear_3437_3435)"/>
<path id="Vector_2" d="M79.3966 157.985C122.8 157.985 157.985 122.8 157.985 79.3972C157.985 35.9942 122.8 0.809082 79.3966 0.809082C35.9936 0.809082 0.808533 35.9942 0.808533 79.3972C0.808533 122.8 35.9936 157.985 79.3966 157.985Z" fill="url(#paint1_linear_3437_3435)"/>
<path id="Vector_3" d="M79.3966 157.139C122.332 157.139 157.138 122.333 157.138 79.3974C157.138 36.4619 122.332 1.65576 79.3966 1.65576C36.461 1.65576 1.65491 36.4619 1.65491 79.3974C1.65491 122.333 36.461 157.139 79.3966 157.139Z" fill="url(#paint2_radial_3437_3435)"/>
<path id="Vector_4" d="M79.3966 157.139C122.332 157.139 157.138 122.333 157.138 79.3974C157.138 36.4619 122.332 1.65576 79.3966 1.65576C36.461 1.65576 1.65491 36.4619 1.65491 79.3974C1.65491 122.333 36.461 157.139 79.3966 157.139Z" fill="url(#paint3_radial_3437_3435)"/>
<g id="Frame_2" clip-path="url(#clip1_3437_3435)">
<g id="Group">
<path id="Vector_5" d="M67.4518 135.397C64.9787 135.396 62.3103 134.283 59.0543 131.893C56.2229 129.815 53.2659 127.009 50.1349 124.039C48.8811 122.849 47.5838 121.618 46.2651 120.407C45.8329 120.011 45.5153 119.518 45.3697 119.02C45.1805 118.37 45.293 117.743 45.6859 117.255C46.1954 116.624 46.796 116.492 47.2096 116.492C48.0802 116.492 48.7327 117.06 48.7865 117.109C48.9343 117.241 52.8758 120.726 55.1569 122.679C55.3578 122.851 55.5567 123.021 55.7541 123.191C59.889 126.738 63.4598 129.8 67.3958 129.8C67.4642 129.8 67.5332 129.8 67.6009 129.798C68.9403 129.762 70.6076 129.066 72.5567 127.728C74.204 126.598 76.0432 125.034 78.3444 122.807C78.8794 122.29 79.4028 121.768 79.9088 121.263C81.7067 119.468 83.4044 117.773 85.3914 116.512C87.6566 115.075 89.9709 114.406 92.6752 114.406C92.8741 114.406 93.0777 114.41 93.2807 114.418C96.458 114.535 100.736 116.911 105.997 121.48C109.755 124.744 112.705 128.02 112.886 128.221C113.486 128.854 113.673 129.677 113.376 130.373C113.108 131.001 112.499 131.392 111.788 131.392C111.331 131.392 110.622 131.231 109.84 130.461C109.813 130.435 107.052 127.749 103.515 125.109C99.134 121.838 95.4769 120.057 92.941 119.957C92.8789 119.954 92.8154 119.954 92.7533 119.954C89.9329 119.954 87.2956 122.507 83.6467 126.041C83.5017 126.182 83.3547 126.323 83.2062 126.467C79.8191 129.744 73.2926 135.262 67.6375 135.395C67.5753 135.395 67.5146 135.397 67.4531 135.397H67.4518Z" fill="#301D0F"/>
<path id="Vector_6" d="M67.6202 134.675C72.5187 134.562 78.4645 130.055 82.7057 125.95C86.7943 121.995 89.6464 119.107 92.9693 119.238C99.5006 119.494 109.917 129.528 110.344 129.948C112.085 131.657 113.562 129.968 112.356 128.708C112.356 128.708 100.509 115.405 93.2545 115.137C86.4525 114.885 83.2497 119.064 78.8449 123.324C74.8957 127.147 70.8541 130.432 67.6209 130.516C63.1277 130.635 59.3125 127.182 54.6902 123.226C52.349 121.221 48.3501 117.684 48.3053 117.642C48.1216 117.475 47.0384 116.725 46.2465 117.707C45.7162 118.364 46.1132 119.292 46.7518 119.878C54.6681 127.149 61.4921 134.818 67.6202 134.675Z" fill="url(#paint4_radial_3437_3435)"/>
</g>
</g>
<g id="Frame_3" clip-path="url(#clip2_3437_3435)">
<path id="Vector_7" d="M105.6 34.4556C93.9027 34.4556 83.9014 41.7215 79.8646 51.9865C75.8278 41.7221 65.8265 34.4556 54.1295 34.4556C38.8618 34.4556 26.4855 46.8326 26.4855 62.0996C26.4855 77.3674 38.8618 89.7444 54.1295 89.7444C65.8272 89.7444 75.8285 82.4785 79.8646 72.2134C83.9014 82.4778 93.902 89.7444 105.6 89.7444C120.868 89.7444 133.244 77.3674 133.244 62.0996C133.244 46.8326 120.867 34.4556 105.6 34.4556Z" fill="url(#paint5_linear_3437_3435)"/>
<path id="Vector_8" d="M104.197 31.542C92.4998 31.542 82.4985 38.8072 78.4624 49.0729C74.4242 38.8079 64.425 31.542 52.7266 31.542C37.4596 31.542 25.0826 43.919 25.0826 59.1861C25.0826 74.4538 37.4596 86.8301 52.7266 86.8301C64.425 86.8301 74.4249 79.5649 78.4624 69.2999C82.4992 79.5642 92.4998 86.8301 104.197 86.8301C119.465 86.8301 131.842 74.4538 131.842 59.1861C131.841 43.9183 119.465 31.542 104.197 31.542Z" fill="url(#paint6_linear_3437_3435)"/>
<g id="Group_2">
<path id="Vector_9" d="M25.8373 60.625C25.8373 75.8921 38.2136 88.2691 53.4813 88.2691C68.7484 88.2691 81.1247 75.8921 81.1247 60.625C81.1247 45.358 68.7484 32.981 53.4813 32.981C38.2143 32.981 25.8373 45.3573 25.8373 60.625Z" fill="url(#paint7_radial_3437_3435)"/>
<path id="Vector_10" d="M132.596 60.625C132.596 75.8921 120.22 88.2691 104.953 88.2691C89.685 88.2691 77.308 75.8921 77.308 60.625C77.308 45.358 89.685 32.981 104.953 32.981C120.22 32.981 132.596 45.3573 132.596 60.625Z" fill="url(#paint8_radial_3437_3435)"/>
</g>
<g id="Group_3">
<path id="Vector_11" d="M64.8517 60.2925C64.8517 69.564 59.5928 77.0805 53.1064 77.0805C46.62 77.0805 41.3618 69.5633 41.3618 60.2925C41.3618 51.021 46.62 43.5059 53.1064 43.5059C59.5928 43.5059 64.8517 51.021 64.8517 60.2925Z" fill="#D2D2D2"/>
<path id="Vector_12" d="M65.5158 60.9572C65.5158 70.2295 60.2576 77.746 53.7712 77.746C47.2848 77.746 42.0259 70.2295 42.0259 60.9572C42.0259 51.6857 47.2848 44.1699 53.7712 44.1699C60.2576 44.1699 65.5158 51.6857 65.5158 60.9572Z" fill="black"/>
<path id="Vector_13" d="M65.1001 60.5419C65.1001 69.8135 59.842 77.3286 53.3556 77.3286C46.8685 77.3286 41.6103 69.8128 41.6103 60.5419C41.6103 51.2704 46.8685 43.7539 53.3556 43.7539C59.842 43.7532 65.1001 51.2704 65.1001 60.5419Z" fill="url(#paint9_radial_3437_3435)"/>
<path id="Vector_14" d="M56.7344 60.5426C56.7344 64.0513 55.2218 66.8951 53.3556 66.8951C51.4894 66.8951 49.976 64.0513 49.976 60.5426C49.976 57.0339 51.4894 54.1895 53.3556 54.1895C55.2218 54.1888 56.7344 57.0339 56.7344 60.5426Z" fill="url(#paint10_radial_3437_3435)"/>
<path id="Vector_15" d="M65.6014 73.5607C65.6014 75.3958 64.1136 76.8844 62.2785 76.8844C60.4433 76.8844 58.9555 75.3965 58.9555 73.5607C58.9555 71.7249 60.4433 70.2378 62.2785 70.2378C64.1129 70.2378 65.6014 71.7256 65.6014 73.5607Z" fill="white"/>
</g>
<g id="Group_4">
<path id="Vector_16" d="M92.3273 60.2925C92.3273 69.564 97.5861 77.0805 104.073 77.0805C110.559 77.0805 115.817 69.5633 115.817 60.2925C115.817 51.021 110.559 43.5059 104.073 43.5059C97.5868 43.5059 92.3273 51.021 92.3273 60.2925Z" fill="#D2D2D2"/>
<path id="Vector_17" d="M91.6637 60.9572C91.6637 70.2295 96.9219 77.746 103.409 77.746C109.895 77.746 115.154 70.2295 115.154 60.9572C115.154 51.6857 109.895 44.1699 103.409 44.1699C96.9219 44.1699 91.6637 51.6857 91.6637 60.9572Z" fill="black"/>
<path id="Vector_18" d="M92.0787 60.5419C92.0787 69.8135 97.3368 77.3286 103.823 77.3286C110.31 77.3286 115.568 69.8128 115.568 60.5419C115.568 51.2704 110.31 43.7539 103.823 43.7539C97.3368 43.7532 92.0787 51.2704 92.0787 60.5419Z" fill="url(#paint11_radial_3437_3435)"/>
<path id="Vector_19" d="M100.444 60.5426C100.444 64.0513 101.957 66.8951 103.823 66.8951C105.689 66.8951 107.203 64.0513 107.203 60.5426C107.203 57.0339 105.689 54.1895 103.823 54.1895C101.958 54.1888 100.444 57.0339 100.444 60.5426Z" fill="url(#paint12_radial_3437_3435)"/>
<path id="Vector_20" d="M91.5781 73.5607C91.5781 75.3958 93.0653 76.8844 94.9011 76.8844C96.7362 76.8844 98.2247 75.3965 98.2247 73.5607C98.2247 71.7249 96.7362 70.2378 94.9011 70.2378C93.066 70.2378 91.5781 71.7256 91.5781 73.5607Z" fill="white"/>
</g>
<path id="Vector_21" d="M79.217 66.1572L79.2515 65.1678L79.1998 52.1612C77.0415 46.2568 72.2011 40.8246 66.1579 37.646C62.2191 35.5748 57.8495 34.428 53.2976 34.419C40.3358 34.3928 29.4446 43.2797 26.3536 55.2784C26.2149 55.9888 26.1023 56.7089 26.0188 57.438C39.0137 55.7713 61.3803 54.0432 79.217 66.1572Z" fill="#301D0F"/>
<path id="Vector_22" d="M105.119 34.419C100.567 34.428 96.1977 35.5748 92.2589 37.646C86.2157 40.8246 81.3746 46.2575 79.217 52.1612V66.1572C97.0269 54.0605 119.41 55.7658 132.414 57.4304C132.294 56.3934 132.118 55.3737 131.886 54.3733C128.489 42.8358 117.753 34.3941 105.119 34.419Z" fill="#301D0F"/>
<path id="Vector_23" d="M79.1811 57.6618L79.217 50.5099C81.3607 44.6434 86.119 39.2872 92.1235 36.1286C96.0361 34.0705 100.43 32.99 104.952 32.981C118.598 32.9534 129.934 42.8677 132.188 55.8688C119.3 54.2022 96.4213 53.2294 79.2163 65.9447L79.1811 57.6618Z" fill="url(#paint13_radial_3437_3435)"/>
<path id="Vector_24" d="M79.253 57.6618L79.2171 50.5099C77.0733 44.6434 72.3157 39.2872 66.3105 36.1286C62.3973 34.0705 58.0042 32.99 53.482 32.981C39.836 32.9534 28.5002 42.8677 26.246 55.8688C39.1332 54.2022 62.012 53.2294 79.2171 65.9447L79.253 57.6618Z" fill="url(#paint14_radial_3437_3435)"/>
</g>
</g>
<defs>
<linearGradient id="paint0_linear_3437_3435" x1="23.2545" y1="23.2552" x2="135.539" y2="135.54" gradientUnits="userSpaceOnUse">
<stop stop-color="#FFF000"/>
<stop offset="0.1826" stop-color="#FFE700"/>
<stop offset="0.4803" stop-color="#FECF00"/>
<stop offset="0.8541" stop-color="#FDA700"/>
<stop offset="1" stop-color="#FC9600"/>
</linearGradient>
<linearGradient id="paint1_linear_3437_3435" x1="23.8268" y1="23.8274" x2="134.967" y2="134.967" gradientUnits="userSpaceOnUse">
<stop stop-color="#FC9600"/>
<stop offset="1" stop-color="#FFE664"/>
</linearGradient>
<radialGradient id="paint2_radial_3437_3435" cx="0" cy="0" r="1" gradientUnits="userSpaceOnUse" gradientTransform="translate(72.2032 74.3623) scale(80.9442 80.9442)">
<stop stop-color="#FFFFA0"/>
<stop offset="0.1073" stop-color="#FFFB97"/>
<stop offset="0.2822" stop-color="#FEF17F"/>
<stop offset="0.5032" stop-color="#FEE157"/>
<stop offset="0.7589" stop-color="#FDCB20"/>
<stop offset="0.897" stop-color="#FCBE00"/>
<stop offset="1" stop-color="#FCA000"/>
</radialGradient>
<radialGradient id="paint3_radial_3437_3435" cx="0" cy="0" r="1" gradientUnits="userSpaceOnUse" gradientTransform="translate(72.2032 74.3623) scale(84.2412 84.2412)">
<stop stop-color="#FFFFA0"/>
<stop offset="0.1022" stop-color="#FFFB97"/>
<stop offset="0.2689" stop-color="#FEF17F"/>
<stop offset="0.4794" stop-color="#FEE157"/>
<stop offset="0.723" stop-color="#FDCB20"/>
<stop offset="0.8545" stop-color="#FCBE00"/>
<stop offset="0.95" stop-color="#FCA000"/>
<stop offset="0.9681" stop-color="#FCA400"/>
<stop offset="0.9868" stop-color="#FCB100"/>
<stop offset="1" stop-color="#FCBE00"/>
</radialGradient>
<radialGradient id="paint4_radial_3437_3435" cx="0" cy="0" r="1" gradientUnits="userSpaceOnUse" gradientTransform="translate(79.3968 124.902) scale(24.6067 24.6067)">
<stop stop-color="#783C00"/>
<stop offset="1" stop-color="#3C1400"/>
</radialGradient>
<linearGradient id="paint5_linear_3437_3435" x1="47.4491" y1="29.6849" x2="112.28" y2="94.5155" gradientUnits="userSpaceOnUse">
<stop stop-color="#FFF000"/>
<stop offset="0.1826" stop-color="#FFE700"/>
<stop offset="0.4803" stop-color="#FECF00"/>
<stop offset="0.8541" stop-color="#FDA700"/>
<stop offset="1" stop-color="#FC9600"/>
</linearGradient>
<linearGradient id="paint6_linear_3437_3435" x1="46.0465" y1="26.7708" x2="110.877" y2="91.601" gradientUnits="userSpaceOnUse">
<stop stop-color="#FC9600"/>
<stop offset="1" stop-color="#FFF000"/>
</linearGradient>
<radialGradient id="paint7_radial_3437_3435" cx="0" cy="0" r="1" gradientUnits="userSpaceOnUse" gradientTransform="translate(55.6084 60.6247) scale(29.9573 29.9573)">
<stop offset="0.6425" stop-color="white"/>
<stop offset="0.7857" stop-color="#FDFDFD"/>
<stop offset="0.8622" stop-color="#F5F5F5"/>
<stop offset="0.923" stop-color="#E7E7E7"/>
<stop offset="0.9752" stop-color="#D4D4D4"/>
<stop offset="1" stop-color="#C8C8C8"/>
</radialGradient>
<radialGradient id="paint8_radial_3437_3435" cx="0" cy="0" r="1" gradientUnits="userSpaceOnUse" gradientTransform="translate(102.825 60.713) scale(29.8467 29.8467)">
<stop offset="0.6425" stop-color="white"/>
<stop offset="0.7857" stop-color="#FDFDFD"/>
<stop offset="0.8622" stop-color="#F5F5F5"/>
<stop offset="0.923" stop-color="#E7E7E7"/>
<stop offset="0.9752" stop-color="#D4D4D4"/>
<stop offset="1" stop-color="#C8C8C8"/>
</radialGradient>
<radialGradient id="paint9_radial_3437_3435" cx="0" cy="0" r="1" gradientUnits="userSpaceOnUse" gradientTransform="translate(53.3554 60.5701) scale(11.9695 17.029)">
<stop stop-color="#A0A0A0"/>
<stop offset="0.1487" stop-color="#7A7A7A"/>
<stop offset="0.3204" stop-color="#555555"/>
<stop offset="0.4929" stop-color="#393939"/>
<stop offset="0.6642" stop-color="#242424"/>
<stop offset="0.8339" stop-color="#181818"/>
<stop offset="1" stop-color="#141414"/>
</radialGradient>
<radialGradient id="paint10_radial_3437_3435" cx="0" cy="0" r="1" gradientUnits="userSpaceOnUse" gradientTransform="translate(53.3556 60.5419) scale(3.3791 6.35288)">
<stop offset="0.6303" stop-color="white"/>
<stop offset="0.7505" stop-color="#FCFCFC"/>
<stop offset="0.8259" stop-color="#F4F4F4"/>
<stop offset="0.889" stop-color="#E5E5E5"/>
<stop offset="0.945" stop-color="#D1D1D1"/>
<stop offset="0.9963" stop-color="#B6B6B6"/>
<stop offset="1" stop-color="#B4B4B4"/>
</radialGradient>
<radialGradient id="paint11_radial_3437_3435" cx="0" cy="0" r="1" gradientUnits="userSpaceOnUse" gradientTransform="translate(103.823 60.5701) rotate(180) scale(11.9696 17.0291)">
<stop stop-color="#A0A0A0"/>
<stop offset="0.1487" stop-color="#7A7A7A"/>
<stop offset="0.3204" stop-color="#555555"/>
<stop offset="0.4929" stop-color="#393939"/>
<stop offset="0.6642" stop-color="#242424"/>
<stop offset="0.8339" stop-color="#181818"/>
<stop offset="1" stop-color="#141414"/>
</radialGradient>
<radialGradient id="paint12_radial_3437_3435" cx="0" cy="0" r="1" gradientUnits="userSpaceOnUse" gradientTransform="translate(103.824 60.5419) rotate(180) scale(3.37921 6.35309)">
<stop offset="0.6303" stop-color="white"/>
<stop offset="0.7505" stop-color="#FCFCFC"/>
<stop offset="0.8259" stop-color="#F4F4F4"/>
<stop offset="0.889" stop-color="#E5E5E5"/>
<stop offset="0.945" stop-color="#D1D1D1"/>
<stop offset="0.9963" stop-color="#B6B6B6"/>
<stop offset="1" stop-color="#B4B4B4"/>
</radialGradient>
<radialGradient id="paint13_radial_3437_3435" cx="0" cy="0" r="1" gradientUnits="userSpaceOnUse" gradientTransform="translate(109.137 59.4051) scale(31.7117)">
<stop stop-color="#FFFFA0"/>
<stop offset="0.087" stop-color="#FFFB97"/>
<stop offset="0.2288" stop-color="#FEF17F"/>
<stop offset="0.408" stop-color="#FEE157"/>
<stop offset="0.6153" stop-color="#FDCB20"/>
<stop offset="0.7273" stop-color="#FCBE00"/>
<stop offset="0.95" stop-color="#FC9600"/>
</radialGradient>
<radialGradient id="paint14_radial_3437_3435" cx="0" cy="0" r="1" gradientUnits="userSpaceOnUse" gradientTransform="translate(49.2973 59.4051) rotate(180) scale(31.7117 31.7117)">
<stop stop-color="#FFFFA0"/>
<stop offset="0.087" stop-color="#FFFB97"/>
<stop offset="0.2288" stop-color="#FEF17F"/>
<stop offset="0.408" stop-color="#FEE157"/>
<stop offset="0.6153" stop-color="#FDCB20"/>
<stop offset="0.7273" stop-color="#FCBE00"/>
<stop offset="0.95" stop-color="#FC9600"/>
</radialGradient>
<clipPath id="clip0_3437_3435">
<rect width="158.795" height="158.795" fill="white"/>
</clipPath>
<clipPath id="clip1_3437_3435">
<rect width="68.2348" height="20.9906" fill="white" transform="translate(45.28 114.406)"/>
</clipPath>
<clipPath id="clip2_3437_3435">
<rect width="108.162" height="58.202" fill="white" transform="translate(25.0826 31.542)"/>
</clipPath>
</defs>
</svg>
