<svg width="300" height="300" viewBox="0 0 300 300" fill="none" xmlns="http://www.w3.org/2000/svg">
<path d="M190.512 150.432L116.712 149.73L94.3441 149.622H88.2601H86.6821C86.5025 149.605 86.3217 149.605 86.1421 149.622C86.3207 149.65 86.5014 149.662 86.6821 149.658L88.2601 149.694L94.3441 149.766L116.712 149.886L190.512 149.934C219.312 149.934 245.412 149.97 264.312 150.108C273.756 150.174 281.4 150.264 286.68 150.36C289.326 150.414 291.372 150.468 292.764 150.516C293.474 150.5 294.183 150.555 294.882 150.678C294.182 150.787 293.473 150.834 292.764 150.816C291.372 150.852 289.32 150.888 286.68 150.906C281.4 150.954 273.756 150.966 264.312 150.906C245.4 150.948 219.324 150.726 190.512 150.432Z" fill="#EBEBEB"/>
<path d="M189.942 156.846L117.132 144.846L95.0519 141.312L89.0519 140.4L87.4859 140.178C87.3099 140.144 87.1312 140.126 86.9519 140.124C87.1237 140.181 87.3005 140.221 87.4799 140.244L89.0339 140.526L95.0339 141.534L117.114 145.08L190.008 156.42C218.472 160.83 244.236 164.862 262.872 167.892C272.19 169.404 279.726 170.664 284.928 171.576C287.532 172.026 289.548 172.398 290.928 172.662C291.633 172.752 292.326 172.915 292.998 173.148C292.288 173.148 291.579 173.083 290.88 172.956C289.5 172.782 287.472 172.5 284.88 172.122C279.654 171.36 272.1 170.202 262.776 168.726C244.086 165.78 218.352 161.556 189.942 156.846Z" fill="#EBEBEB"/>
<path d="M188.352 163.092L118.374 139.92L97.1341 133.002L91.3441 131.166L89.8321 130.704C89.6619 130.646 89.4874 130.602 89.3101 130.572C89.4717 130.653 89.6404 130.719 89.8141 130.77L91.3021 131.286L97.0621 133.218L118.296 140.148L188.496 162.678C215.898 171.45 240.696 179.436 258.618 185.322C267.582 188.262 274.818 190.68 279.81 192.384C282.306 193.236 284.244 193.914 285.546 194.388C286.227 194.592 286.886 194.861 287.514 195.192C286.812 195.083 286.121 194.911 285.45 194.676C284.112 194.292 282.156 193.698 279.636 192.918C274.596 191.352 267.324 189.036 258.348 186.132C240.396 180.324 215.658 172.152 188.352 163.092Z" fill="#EBEBEB"/>
<path d="M185.79 169.008L120.39 135.27L100.518 125.142L95.1181 122.43L93.7021 121.74C93.5406 121.658 93.3743 121.586 93.2041 121.524C93.3525 121.628 93.509 121.721 93.6721 121.8L95.0581 122.544L100.458 125.34L120.324 135.48L186 168.63C211.662 181.542 234.882 193.278 251.64 201.87C260.04 206.166 266.784 209.67 271.44 212.136C273.768 213.336 275.568 214.332 276.786 215.004C277.421 215.307 278.024 215.672 278.586 216.096C277.91 215.88 277.256 215.603 276.63 215.268C275.376 214.668 273.534 213.786 271.17 212.622C266.442 210.294 259.632 206.88 251.238 202.614C234.438 194.094 211.314 182.19 185.79 169.008Z" fill="#EBEBEB"/>
<path d="M182.322 174.456L123.06 131.052L105.06 117.984L100.134 114.468C99.5759 114.078 99.1499 113.778 98.8379 113.568C98.6991 113.456 98.5482 113.359 98.3879 113.28C98.5186 113.403 98.6569 113.517 98.8019 113.622L100.056 114.57L104.928 118.17L122.928 131.25L182.592 174.12C205.89 190.836 226.962 206.004 242.148 217.074C249.744 222.606 255.87 227.118 260.082 230.274C262.188 231.846 263.814 233.082 264.882 233.928C265.465 234.326 266.005 234.783 266.496 235.29C265.861 234.977 265.259 234.603 264.696 234.174C263.544 233.394 261.87 232.23 259.716 230.718C255.42 227.718 249.234 223.266 241.614 217.764C226.392 206.736 205.434 191.4 182.322 174.456Z" fill="#EBEBEB"/>
<path d="M178.032 179.298L126.336 127.338C119.7 120.738 114.336 115.38 110.592 111.666C108.732 109.836 107.28 108.414 106.278 107.436L105.144 106.344C105.02 106.215 104.885 106.097 104.742 105.99C104.85 106.134 104.971 106.269 105.102 106.392L106.2 107.52L110.448 111.816L126.18 127.5L178.38 178.998C198.78 199.086 217.182 217.302 230.442 230.568C237.072 237.198 242.412 242.568 246.072 246.342C247.908 248.22 249.318 249.69 250.272 250.698C250.786 251.181 251.25 251.713 251.658 252.288C251.084 251.877 250.549 251.413 250.062 250.902C249.048 249.966 247.572 248.556 245.688 246.732C241.92 243.084 236.508 237.732 229.848 231.132C216.474 217.95 198.192 199.596 178.032 179.298Z" fill="#EBEBEB"/>
<path d="M173.028 183.432L130.158 124.2L117.078 106.302L113.478 101.46L112.536 100.2C112.433 100.057 112.321 99.9206 112.2 99.792C112.281 99.9512 112.377 100.102 112.488 100.242L113.382 101.526L116.904 106.416L129.966 124.32L173.4 183.18C190.362 206.142 205.692 226.98 216.696 242.106C222.198 249.672 226.62 255.816 229.65 260.106C231.162 262.242 232.326 263.904 233.1 265.044C233.53 265.606 233.904 266.209 234.216 266.844C233.713 266.351 233.257 265.813 232.854 265.236C232.002 264.15 230.766 262.53 229.194 260.436C226.044 256.236 221.538 250.164 215.994 242.616C204.912 227.508 189.744 206.574 173.028 183.432Z" fill="#EBEBEB"/>
<path d="M167.436 186.738L134.496 121.596L124.41 101.904L121.632 96.5999C121.308 95.9999 121.068 95.5499 120.888 95.2199C120.809 95.0615 120.719 94.9091 120.618 94.7639C120.674 94.9316 120.744 95.0942 120.828 95.2499L121.512 96.6599C122.112 97.9019 123.048 99.7139 124.212 102.06L134.28 121.758L167.826 186.6C180.942 211.896 192.78 234.828 201.246 251.478C205.482 259.8 208.878 266.55 211.188 271.236C212.346 273.576 213.228 275.4 213.816 276.636C214.151 277.253 214.425 277.903 214.632 278.574C214.214 278.009 213.848 277.406 213.54 276.774C212.874 275.574 211.908 273.774 210.69 271.476C208.242 266.856 204.75 260.148 200.49 251.844C191.94 235.2 180.276 212.178 167.436 186.738Z" fill="#EBEBEB"/>
<path d="M161.4 189.144L139.248 119.7L132.432 98.7001C131.61 96.2401 130.974 94.3261 130.536 93.0001C130.314 92.3641 130.146 91.8781 130.026 91.5241C129.973 91.3532 129.907 91.1867 129.828 91.0261C129.858 91.2034 129.902 91.378 129.96 91.5481C130.068 91.9021 130.218 92.3941 130.41 93.0421L132.21 98.7661C133.824 103.752 136.146 110.922 139.008 119.766L161.808 189.006C170.724 216.006 178.758 240.504 184.464 258.258C187.32 267.138 189.594 274.332 191.13 279.318C191.898 281.808 192.48 283.746 192.858 285.066C193.094 285.727 193.261 286.411 193.356 287.106C193.029 286.486 192.764 285.834 192.564 285.162C192.096 283.866 191.43 281.952 190.59 279.486C188.91 274.548 186.54 267.384 183.642 258.516C177.852 240.792 170.004 216.252 161.4 189.144Z" fill="#EBEBEB"/>
<path d="M155.028 190.578C150.828 162.456 147.006 137.01 144.228 118.578C142.806 109.38 141.654 101.94 140.85 96.7681L139.89 90.8461C139.77 90.1861 139.686 89.6761 139.62 89.3101C139.596 89.1333 139.558 88.9588 139.506 88.7881C139.507 88.9671 139.523 89.1457 139.554 89.3221C139.602 89.6881 139.674 90.1981 139.764 90.8641C139.962 92.2441 140.256 94.2361 140.628 96.8041C141.426 101.97 142.572 109.404 143.994 118.614C146.928 137.034 150.972 162.444 155.442 190.524C159.912 218.604 163.962 244.008 166.764 262.428C168.168 271.638 169.272 279.096 169.992 284.262C170.352 286.842 170.592 288.846 170.778 290.208C170.904 290.897 170.96 291.596 170.946 292.296C170.727 291.632 170.57 290.949 170.478 290.256C170.22 288.906 169.878 286.914 169.434 284.34C168.564 279.204 167.364 271.74 165.924 262.56C163.044 244.14 159.216 218.688 155.028 190.578Z" fill="#EBEBEB"/>
<path d="M148.518 191.016C148.776 162.588 149.01 136.866 149.178 118.224C149.22 108.918 149.25 101.424 149.274 96.162C149.274 93.57 149.274 91.554 149.274 90.162C149.274 89.49 149.274 88.962 149.274 88.602C149.281 88.4254 149.271 88.2486 149.244 88.074C149.235 88.2499 149.235 88.4261 149.244 88.602C149.244 88.974 149.244 89.49 149.202 90.162C149.202 91.554 149.166 93.57 149.13 96.162C149.13 101.388 149.07 108.918 149.022 118.224V191.016C149.022 219.426 149.022 245.16 148.896 263.784C148.83 273.096 148.746 280.632 148.65 285.84C148.596 288.444 148.548 290.466 148.494 291.84C148.509 292.54 148.455 293.239 148.332 293.928C148.223 293.238 148.177 292.539 148.194 291.84C148.152 290.466 148.122 288.444 148.092 285.84C148.044 280.632 148.026 273.09 148.05 263.778C148.02 245.154 148.236 219.426 148.518 191.016Z" fill="#EBEBEB"/>
<path d="M142.008 190.452C146.748 162.414 151.008 137.052 154.14 118.644L157.74 96.87C158.142 94.308 158.448 92.316 158.664 90.942L158.886 89.394C158.92 89.22 158.938 89.0432 158.94 88.866C158.887 89.0369 158.847 89.2113 158.82 89.388C158.754 89.748 158.658 90.258 158.538 90.918C158.304 92.292 157.938 94.278 157.518 96.834C156.672 101.994 155.448 109.434 153.918 118.608C150.984 137.028 146.928 162.438 142.452 190.524C137.976 218.61 133.926 244.008 130.866 262.386C129.336 271.572 128.064 279.006 127.146 284.136C126.684 286.704 126.318 288.69 126.048 290.04C125.952 290.735 125.787 291.418 125.556 292.08C125.556 291.38 125.62 290.681 125.748 289.992C125.922 288.63 126.204 286.626 126.594 284.046C127.362 278.892 128.532 271.446 130.02 262.248C132.984 243.858 137.256 218.472 142.008 190.452Z" fill="#EBEBEB"/>
<path d="M135.678 188.892L159.126 119.892L166.128 98.9399L167.988 93.228C168.186 92.586 168.342 92.0939 168.45 91.7399C168.515 91.5646 168.566 91.3839 168.6 91.2C168.519 91.3573 168.452 91.5221 168.402 91.692L167.874 93.162C167.424 94.482 166.764 96.39 165.924 98.844C164.262 103.812 161.868 110.958 158.904 119.79C153.066 137.526 145.008 161.994 136.104 189.03C127.2 216.066 119.148 240.522 113.19 258.198C110.19 267.036 107.79 274.176 106.038 279.096C105.174 281.562 104.49 283.464 104.01 284.754C103.808 285.426 103.537 286.076 103.2 286.692C103.31 285.999 103.484 285.318 103.722 284.658C104.112 283.344 104.712 281.406 105.522 278.922C107.1 273.954 109.446 266.778 112.386 257.922C118.236 240.228 126.504 215.826 135.678 188.892Z" fill="#EBEBEB"/>
<path d="M129.678 186.372C143.016 161.172 155.094 138.372 163.842 121.842L174.102 102.234C175.302 99.924 176.208 98.13 176.85 96.888L177.546 95.484C177.635 95.3303 177.708 95.1674 177.762 94.998C177.66 95.1437 177.568 95.2961 177.486 95.454L176.736 96.828C176.076 98.058 175.128 99.828 173.904 102.138L163.632 121.734C155.034 138.336 143.166 161.25 130.032 186.564C116.898 211.878 105.066 234.786 96.3601 251.316C92.0101 259.578 88.4581 266.256 85.9681 270.846C84.7201 273.144 83.7421 274.92 83.0641 276.12C82.7525 276.754 82.3808 277.357 81.9541 277.92C82.1745 277.255 82.4578 276.612 82.8001 276C83.4001 274.758 84.3001 272.946 85.4761 270.6C87.8341 265.938 91.2961 259.2 95.6101 250.938C104.262 234.36 116.322 211.542 129.678 186.372Z" fill="#EBEBEB"/>
<path d="M124.152 182.952L168.126 124.482L181.362 106.698L184.926 101.838L185.838 100.566C185.946 100.423 186.044 100.272 186.132 100.116C186.005 100.242 185.888 100.378 185.784 100.524L184.824 101.766C183.978 102.876 182.754 104.496 181.188 106.566L167.934 124.338L124.5 183.198C107.568 206.184 92.1961 226.998 80.9821 241.962C75.3721 249.45 70.7821 255.498 67.6201 259.65C66.0241 261.726 64.7761 263.334 63.9121 264.408C63.51 264.986 63.0496 265.52 62.5381 266.004C62.8572 265.369 63.237 264.766 63.6721 264.204C64.4581 263.07 65.6341 261.414 67.1701 259.296C70.2361 255.054 74.7181 248.946 80.2921 241.434C91.4401 226.434 106.968 205.758 124.152 182.952Z" fill="#EBEBEB"/>
<path d="M119.232 178.722L171.894 127.722C178.59 121.158 184.008 115.854 187.8 112.2L192.084 107.946L193.188 106.824C193.318 106.701 193.438 106.569 193.548 106.428C193.404 106.534 193.267 106.65 193.14 106.776C192.87 107.034 192.492 107.376 191.994 107.856L187.644 112.056L171.75 127.584L119.55 179.064C99.198 199.17 80.736 217.35 67.29 230.436C60.57 236.976 55.11 242.244 51.3 245.862C49.398 247.662 47.916 249.06 46.89 249.996C46.4003 250.502 45.8616 250.958 45.282 251.358C45.6975 250.789 46.1655 250.261 46.68 249.78C47.634 248.784 49.08 247.332 50.88 245.472C54.6 241.716 60 236.4 66.684 229.8C80.064 216.66 98.664 198.6 119.232 178.722Z" fill="#EBEBEB"/>
<path d="M115.044 173.79L175.11 131.478L193.248 118.572L198.15 115.026L199.416 114.09C199.565 113.988 199.706 113.874 199.836 113.748C199.678 113.834 199.525 113.93 199.38 114.036L198.078 114.924L193.116 118.392L174.972 131.292L115.296 174.138C92.0159 190.884 70.8959 206.01 55.5719 216.87C47.8979 222.306 41.6699 226.674 37.3439 229.656C35.1779 231.15 33.4919 232.302 32.3339 233.064C31.7696 233.487 31.167 233.857 30.5339 234.168C31.0296 233.66 31.5743 233.201 32.1599 232.8C33.2579 231.96 34.8959 230.742 37.0139 229.2C41.2559 226.092 47.4239 221.64 55.0739 216.18C70.3679 205.26 91.5839 190.29 115.044 173.79Z" fill="#EBEBEB"/>
<path d="M111.684 168.282L177.72 135.75L197.682 125.796L203.082 123.048L204.48 122.316C204.792 122.148 204.948 122.058 204.948 122.052C204.776 122.106 204.609 122.176 204.45 122.262L203.022 122.934L197.574 125.598L177.6 135.54L111.876 168.666C86.232 181.608 62.994 193.302 46.116 201.666C37.674 205.866 30.834 209.202 26.082 211.488C23.682 212.628 21.882 213.498 20.598 214.074C19.9729 214.409 19.3155 214.681 18.636 214.884C19.2025 214.473 19.8049 214.113 20.436 213.81C21.636 213.15 23.436 212.196 25.806 210.99C30.486 208.59 37.284 205.134 45.702 200.916C62.568 192.474 85.896 180.954 111.684 168.282Z" fill="#EBEBEB"/>
<path d="M109.242 162.312L179.646 140.436L200.946 133.704L206.724 131.832L208.218 131.322C208.392 131.275 208.561 131.21 208.722 131.13C208.545 131.161 208.37 131.205 208.2 131.262L206.682 131.706L200.88 133.506L179.568 140.22L109.368 162.738C81.9781 171.546 57.1681 179.484 39.1681 185.118C30.1681 187.944 22.8781 190.194 17.8201 191.718C15.2941 192.48 13.3261 193.056 11.9881 193.428C11.3183 193.661 10.6268 193.826 9.92407 193.92C10.5552 193.597 11.2163 193.335 11.8981 193.14C13.2061 192.678 15.1441 192.018 17.6521 191.19C22.6561 189.534 29.9221 187.182 38.9101 184.326C56.8801 178.584 81.7561 170.832 109.242 162.312Z" fill="#EBEBEB"/>
<path d="M107.778 156.042L180.798 145.362L202.908 142.02L208.908 141.066L210.468 140.796C210.647 140.775 210.824 140.737 210.996 140.682C210.815 140.687 210.635 140.703 210.456 140.73L208.89 140.94L202.89 141.798L180.774 145.128L107.856 156.468C79.404 160.914 53.628 164.904 34.956 167.676C25.614 169.068 18.054 170.16 12.822 170.874C10.206 171.228 8.17197 171.474 6.78597 171.654C6.08674 171.776 5.37766 171.832 4.66797 171.822C5.34351 171.6 6.03866 171.444 6.74397 171.354C8.11197 171.102 10.128 170.754 12.744 170.322C17.958 169.464 25.506 168.27 34.836 166.842C53.478 163.986 79.278 160.2 107.778 156.042Z" fill="#EBEBEB"/>
<path d="M107.334 149.622L181.134 150.222L203.508 150.3H209.586H211.17C211.524 150.3 211.71 150.3 211.71 150.3C211.531 150.273 211.351 150.261 211.17 150.264L209.586 150.228L203.508 150.162L181.152 150L107.352 150.048C78.552 150.084 52.452 150.048 33.552 149.964C24.108 149.91 16.464 149.832 11.184 149.736C8.544 149.688 6.492 149.64 5.1 149.586C4.39676 149.605 3.69333 149.555 3 149.436C3.70249 149.327 4.41331 149.281 5.124 149.298C6.51 149.256 8.562 149.22 11.202 149.196C16.488 149.142 24.132 149.124 33.576 149.142C52.434 149.172 78.528 149.364 107.334 149.622Z" fill="#EBEBEB"/>
<path d="M107.898 143.208L180.72 155.124L202.8 158.628L208.8 159.54L210.366 159.756C210.544 159.79 210.725 159.808 210.906 159.81C210.734 159.754 210.557 159.714 210.378 159.69L208.824 159.414L202.824 158.412L180.744 154.89L107.832 143.634C79.362 139.26 53.592 135.234 34.95 132.234C25.632 130.734 18.096 129.48 12.894 128.58C10.29 128.13 8.27397 127.764 6.89397 127.5C6.19081 127.403 5.49793 127.243 4.82397 127.02C5.53415 127.011 6.2435 127.071 6.94197 127.2C8.32797 127.374 10.356 127.656 12.972 128.034C18.198 128.79 25.752 129.936 35.076 131.4C53.742 134.34 79.482 138.534 107.898 143.208Z" fill="#EBEBEB"/>
<path d="M109.476 136.962L179.484 160.044L200.736 166.932L206.532 168.732L208.044 169.188C208.213 169.249 208.388 169.296 208.566 169.326C208.404 169.246 208.235 169.18 208.062 169.128L206.568 168.612L200.808 166.686L179.562 159.78L109.362 137.34C81.9479 128.604 57.1319 120.648 39.2099 114.786C30.2459 111.858 23.0099 109.452 18.0059 107.748C15.5099 106.902 13.5779 106.224 12.2699 105.75C11.5843 105.568 10.9189 105.316 10.2839 105C10.9858 105.108 11.6766 105.279 12.3479 105.51C13.6859 105.894 15.6479 106.488 18.1679 107.268C23.2079 108.822 30.4859 111.132 39.4619 114.024C57.4139 119.79 82.1639 127.932 109.476 136.962Z" fill="#EBEBEB"/>
<path d="M112.032 131.04L177.486 164.694L197.4 174.798L202.8 177.504L204.222 178.194C204.379 178.279 204.544 178.349 204.714 178.404C204.567 178.302 204.413 178.212 204.252 178.134L202.86 177.39L197.46 174.6L177.6 164.484L111.834 131.4C86.1599 118.518 62.9219 106.8 46.1579 98.2381C37.7579 93.9541 31.0019 90.4381 26.3579 88.0021C24.0299 86.8021 22.2299 85.8121 21.0119 85.1401C20.3759 84.8392 19.7726 84.4732 19.2119 84.0481C19.886 84.2636 20.5387 84.5408 21.1619 84.8761C22.4219 85.4761 24.2639 86.3521 26.6279 87.5101C31.3559 89.8321 38.1719 93.2461 46.5779 97.4941C63.3539 106.008 86.4959 117.888 112.032 131.04Z" fill="#EBEBEB"/>
<path d="M115.5 125.586L174.816 168.918L192.852 181.962L197.784 185.472L199.08 186.372C199.222 186.48 199.372 186.576 199.53 186.66C199.403 186.533 199.264 186.419 199.116 186.318L197.862 185.4L192.984 181.8L174.954 168.744L115.242 125.946C91.92 109.26 70.842 94.1461 55.626 83.0641C48.024 77.5441 41.892 73.0441 37.68 69.9001C35.574 68.3281 33.942 67.0981 32.88 66.2521C32.2981 65.8505 31.7557 65.3944 31.26 64.8901C31.8931 65.2082 32.4957 65.5837 33.06 66.0121C34.206 66.7861 35.886 67.9441 38.04 69.4561C42.342 72.4561 48.534 76.8961 56.16 82.3921C71.4 93.3601 92.358 108.66 115.5 125.586Z" fill="#EBEBEB"/>
<path d="M119.784 120.738L171.54 172.638L187.308 188.292L191.622 192.492L192.756 193.578C192.883 193.706 193.019 193.824 193.164 193.932C193.056 193.788 192.935 193.653 192.804 193.53L191.712 192.402L187.464 188.112L171.708 172.452L119.472 121.014C99.0721 100.956 80.6221 82.7641 67.3501 69.5101C60.7081 62.9101 55.3501 57.5101 51.6961 53.7541C49.8601 51.8821 48.4441 50.4121 47.4961 49.4101C46.9818 48.928 46.5175 48.3953 46.1101 47.8201C46.689 48.2276 47.2275 48.6897 47.7181 49.2001C48.7261 50.1601 50.2021 51.6001 52.0921 53.4001C55.8661 57.0481 61.2841 62.3581 67.9501 68.9581C81.2881 82.1341 99.6001 100.464 119.784 120.738Z" fill="#EBEBEB"/>
<path d="M124.8 116.598L167.724 175.8C173.244 183.336 177.72 189.438 180.822 193.68L184.422 198.51C184.83 199.05 185.148 199.464 185.376 199.758C185.476 199.907 185.591 200.045 185.718 200.172C185.633 200.015 185.537 199.865 185.43 199.722L184.524 198.438L181.002 193.548L167.916 175.662L124.422 116.862C107.43 93.9181 92.0819 73.1161 81.0539 57.9961C75.5459 50.4001 71.1119 44.2801 68.0759 40.0141C66.5639 37.8781 65.3999 36.2161 64.6199 35.0761C64.1907 34.5135 63.8169 33.9107 63.5039 33.2761C64.0086 33.767 64.4647 34.3055 64.8659 34.8841C65.7179 35.9701 66.9539 37.5841 68.5319 39.6841C71.6879 43.8841 76.1999 49.9441 81.7319 57.4861C92.8379 72.5641 108.036 93.4801 124.8 116.598Z" fill="#EBEBEB"/>
<path d="M130.362 113.286L163.362 178.386C167.622 186.684 171.072 193.386 173.472 198.066C174.672 200.37 175.614 202.158 176.256 203.394C176.58 203.994 176.826 204.45 177 204.774C177.078 204.936 177.171 205.091 177.276 205.236C177.215 205.068 177.142 204.903 177.06 204.744L176.4 203.34L173.694 197.94C171.294 193.278 167.856 186.54 163.602 178.254L129.972 113.454C116.826 88.1701 104.958 65.2621 96.468 48.6541C92.226 40.3261 88.8 33.6001 86.502 28.8961C85.344 26.5561 84.462 24.7321 83.874 23.4961C83.5356 22.8794 83.2602 22.2301 83.052 21.5581C83.472 22.1223 83.8377 22.725 84.144 23.3581C84.816 24.5581 85.782 26.3581 87.006 28.6501C89.46 33.2641 92.958 39.9721 97.236 48.2701C105.804 64.8661 117.492 87.8641 130.362 113.286Z" fill="#EBEBEB"/>
<path d="M136.41 110.874C145.092 137.976 152.946 162.51 158.61 180.288C161.496 189.144 163.83 196.314 165.456 201.288C166.278 203.748 166.914 205.662 167.358 206.982C167.58 207.618 167.748 208.11 167.868 208.458C167.921 208.629 167.987 208.796 168.066 208.956C168.04 208.78 167.996 208.607 167.934 208.44L167.484 206.946C167.058 205.614 166.452 203.688 165.684 201.216C164.07 196.236 161.742 189.066 158.862 180.216L135.996 111C127.05 84.0001 118.986 59.5261 113.256 41.7721C110.4 32.9101 108.102 25.7161 106.56 20.7301C105.786 18.2401 105.204 16.3021 104.826 14.9821C104.594 14.3196 104.425 13.6365 104.322 12.9421C104.648 13.5652 104.913 14.2182 105.114 14.8921C105.588 16.1821 106.254 18.0961 107.1 20.5621C108.786 25.5001 111.168 32.6581 114.072 41.5201C119.88 59.2441 127.758 83.7721 136.41 110.874Z" fill="#EBEBEB"/>
<path d="M142.8 109.428C147.048 137.544 150.894 162.99 153.678 181.428C155.112 190.626 156.276 198.066 157.086 203.232C157.506 205.794 157.83 207.78 158.052 209.154C158.172 209.814 158.262 210.354 158.328 210.69C158.348 210.867 158.386 211.042 158.442 211.212C158.441 211.035 158.425 210.858 158.394 210.684C158.34 210.312 158.274 209.802 158.184 209.136L157.308 203.202C156.504 198.03 155.346 190.602 153.918 181.398C150.96 162.978 146.88 137.598 142.368 109.494C137.856 81.39 133.782 56.022 130.968 37.602C129.51 28.398 128.4 20.94 127.674 15.78C127.308 13.2 127.074 11.196 126.876 9.83399C126.75 9.14337 126.694 8.44185 126.708 7.73999C126.926 8.40626 127.083 9.09112 127.176 9.78599C127.434 11.136 127.776 13.128 128.232 15.696C129.108 20.832 130.32 28.296 131.772 37.476C134.682 55.878 138.546 81.324 142.8 109.428Z" fill="#EBEBEB"/>
<path d="M149.28 108.984C149.058 137.412 148.854 163.134 148.68 181.782C148.68 191.082 148.626 198.582 148.614 203.838C148.614 206.43 148.614 208.446 148.614 209.838C148.614 210.51 148.614 211.038 148.614 211.398C148.611 211.575 148.621 211.751 148.644 211.926C148.672 211.751 148.684 211.575 148.68 211.398C148.68 211.026 148.68 210.51 148.716 209.838C148.716 208.446 148.752 206.43 148.776 203.838C148.776 198.612 148.824 191.082 148.86 181.782C148.86 163.134 148.8 137.382 148.77 108.984C148.74 80.586 148.698 54.846 148.806 36.216C148.854 26.904 148.932 19.368 149.022 14.16C149.07 11.556 149.118 9.53402 149.166 8.16002C149.151 7.46037 149.205 6.76093 149.328 6.07202C149.437 6.76243 149.483 7.46128 149.466 8.16002C149.508 9.53402 149.544 11.556 149.574 14.16C149.634 19.368 149.658 26.91 149.646 36.222C149.706 54.846 149.526 80.574 149.28 108.984Z" fill="#EBEBEB"/>
<path d="M155.784 109.542C151.086 137.586 146.832 162.942 143.748 181.362C142.254 190.548 141.048 197.982 140.208 203.142C139.812 205.704 139.506 207.696 139.29 209.07C139.194 209.736 139.122 210.27 139.068 210.618C139.037 210.792 139.021 210.969 139.02 211.146C139.071 210.977 139.11 210.805 139.134 210.63C139.206 210.264 139.296 209.754 139.416 209.094C139.65 207.72 140.016 205.734 140.43 203.178C141.27 198.018 142.488 190.578 143.982 181.398C146.898 162.972 150.918 137.556 155.382 109.47C159.846 81.384 163.8 55.98 166.848 37.596C168.366 28.404 169.626 20.97 170.538 15.834C170.994 13.272 171.366 11.28 171.63 9.936C171.728 9.24226 171.89 8.55925 172.116 7.896C172.124 8.59647 172.062 9.29599 171.93 9.984C171.762 11.346 171.48 13.344 171.096 15.924C170.334 21.078 169.17 28.524 167.694 37.728C164.742 56.124 160.506 81.51 155.784 109.542Z" fill="#EBEBEB"/>
<path d="M162.12 111.09L138.762 180.144C135.822 188.982 133.44 196.14 131.79 201.108C130.992 203.574 130.368 205.494 129.936 206.82L129.474 208.314C129.412 208.481 129.366 208.654 129.336 208.83C129.416 208.669 129.484 208.503 129.54 208.332C129.66 207.984 129.834 207.492 130.062 206.862L132 201.18L138.99 180.222C144.804 162.48 152.832 138.006 161.7 110.958C170.568 83.91 178.59 59.442 184.5 41.76C187.464 32.916 189.9 25.776 191.622 20.85C192.48 18.384 193.164 16.476 193.644 15.192C193.848 14.5186 194.12 13.8674 194.454 13.248C194.346 13.9407 194.173 14.6217 193.938 15.282C193.548 16.602 192.948 18.534 192.138 21.024C190.56 25.998 188.226 33.174 185.298 42.024C179.496 59.736 171.264 84.15 162.12 111.09Z" fill="#EBEBEB"/>
<path d="M168.126 113.61L134.046 178.2C129.732 186.474 126.246 193.2 123.81 197.82L121.068 203.172L120.372 204.576C120.287 204.732 120.215 204.894 120.156 205.062C120.261 204.918 120.353 204.766 120.432 204.606L121.182 203.232C121.842 202.002 122.79 200.232 124.008 197.922L134.256 178.308L167.742 113.4C180.792 88.0679 192.648 65.1479 201.342 48.5999C205.68 40.3259 209.22 33.6479 211.71 29.0519C212.952 26.7539 213.924 24.9719 214.608 23.7719C214.916 23.1373 215.286 22.5344 215.712 21.9719C215.49 22.6379 215.209 23.2825 214.872 23.8979C214.272 25.1399 213.378 26.9579 212.202 29.2979C209.85 33.9599 206.4 40.6979 202.098 48.9719C193.476 65.5859 181.446 88.4159 168.126 113.61Z" fill="#EBEBEB"/>
<path d="M173.658 117L129.756 175.524L116.556 193.326L112.998 198.192C112.602 198.738 112.302 199.164 112.086 199.464C111.978 199.607 111.88 199.758 111.792 199.914C111.919 199.788 112.036 199.652 112.14 199.506L113.1 198.264C113.94 197.148 115.164 195.534 116.73 193.464L129.96 175.674L173.316 116.76C190.224 93.756 205.566 72.96 216.762 57.96C222.36 50.46 226.92 44.412 230.1 40.254C231.69 38.172 232.938 36.57 233.802 35.49C234.204 34.9123 234.664 34.3775 235.176 33.894C234.859 34.5302 234.479 35.1331 234.042 35.694C233.262 36.828 232.08 38.49 230.55 40.608C227.49 44.856 223.014 50.964 217.452 58.488C206.31 73.494 190.8 94.2 173.658 117Z" fill="#EBEBEB"/>
<path d="M178.578 121.242L126 172.32L110.142 187.872C108.294 189.714 106.854 191.148 105.858 192.132L104.76 193.254C104.629 193.377 104.508 193.512 104.4 193.656C104.543 193.547 104.679 193.428 104.808 193.302L105.948 192.222L110.298 188.022L126.168 172.476L178.29 120.93C198.618 100.8 217.056 82.596 230.49 69.492C237.204 62.946 242.658 57.666 246.456 54.048C248.358 52.248 249.846 50.844 250.866 49.908C251.359 49.4039 251.897 48.946 252.474 48.54C252.06 49.1104 251.592 49.6389 251.076 50.118C250.122 51.12 248.676 52.578 246.876 54.438C243.18 58.164 237.798 63.51 231.114 70.092C217.698 83.256 199.122 101.322 178.578 121.242Z" fill="#EBEBEB"/>
<path d="M182.778 126.168L122.778 168.552L104.658 181.488C102.54 183.018 100.89 184.212 99.756 185.04L98.478 186C98.3308 186.1 98.1923 186.213 98.064 186.336C98.2241 186.256 98.3767 186.161 98.52 186.054L99.816 185.166L104.772 181.686L122.904 168.768L182.52 125.82C205.776 109.02 226.86 93.894 242.19 83.01C249.852 77.568 256.08 73.2 260.4 70.2C262.566 68.706 264.252 67.554 265.404 66.792C265.966 66.3652 266.569 65.9953 267.204 65.688C266.703 66.1862 266.157 66.6362 265.572 67.032C264.474 67.872 262.836 69.096 260.718 70.632C256.482 73.746 250.32 78.204 242.676 83.676C227.4 94.644 206.214 109.638 182.778 126.168Z" fill="#EBEBEB"/>
<path d="M186.144 131.676L120.144 164.286L100.2 174.27L94.8001 177L93.4081 177.732C93.0961 177.906 92.9341 177.996 92.9401 178.002C93.1123 177.948 93.2791 177.878 93.4381 177.792L94.8601 177.114L100.308 174.444L120.264 164.478L185.952 131.274C211.584 118.296 234.81 106.578 251.676 98.19C260.106 93.99 266.946 90.636 271.692 88.35C274.092 87.204 275.892 86.328 277.176 85.752C277.803 85.4192 278.46 85.146 279.138 84.936C278.575 85.3536 277.972 85.7153 277.338 86.016C276.138 86.682 274.308 87.63 271.968 88.842C267.294 91.242 260.502 94.716 252.084 98.946C235.23 107.4 211.914 118.968 186.144 131.676Z" fill="#EBEBEB"/>
<path d="M188.592 137.634L118.2 159.6L96.9059 166.362L91.1339 168.246L89.6339 168.75C89.4608 168.802 89.2923 168.868 89.1299 168.948C89.3093 168.919 89.4859 168.875 89.6579 168.816L91.1699 168.366L96.9779 166.566L118.272 159.816C136.272 154.032 161.04 146.016 188.472 137.214C215.904 128.412 240.672 120.414 258.672 114.744C267.672 111.906 274.956 109.65 280.008 108.144C282.534 107.382 284.502 106.806 285.84 106.428C286.511 106.199 287.202 106.033 287.904 105.93C287.275 106.261 286.614 106.524 285.93 106.716C284.622 107.178 282.684 107.844 280.182 108.672C275.178 110.34 267.918 112.698 258.93 115.566C240.936 121.302 216.066 129.084 188.592 137.634Z" fill="#EBEBEB"/>
<path d="M190.062 143.904L117.054 154.704L94.9499 158.076L88.9499 159.036L87.3959 159.306C87.217 159.329 87.0403 159.367 86.8679 159.42C87.0469 159.419 87.2255 159.403 87.4019 159.372L88.9739 159.162L94.9739 158.292L117.078 154.938L189.984 143.508C218.442 138.996 244.2 135 262.884 132.18C272.22 130.776 279.78 129.678 285.012 128.958C287.628 128.598 289.662 128.358 291.048 128.166C291.747 128.04 292.456 127.984 293.166 127.998C292.49 128.22 291.795 128.376 291.09 128.466C289.722 128.718 287.706 129.066 285.09 129.504C279.882 130.374 272.334 131.574 263.004 133.014C244.356 135.894 218.556 139.722 190.062 143.904Z" fill="#EBEBEB"/>
<path d="M227.334 222.84C224.318 219.385 220.39 216.848 216 215.52C212.946 214.662 208.314 213.876 203.598 215.028C200.74 215.703 198.11 217.119 195.972 219.132C193.446 221.532 191.52 224.79 190.248 228.876C190.151 229.177 190.118 229.495 190.149 229.81C190.18 230.124 190.275 230.429 190.428 230.706C190.578 230.986 190.782 231.233 191.03 231.432C191.277 231.631 191.562 231.778 191.868 231.864L199.884 234.114C200.434 234.263 201.019 234.212 201.535 233.969C202.05 233.726 202.463 233.307 202.698 232.788C203.76 230.388 206.442 226.566 212.466 228.15C213.995 228.523 215.369 229.363 216.398 230.554C217.427 231.744 218.06 233.225 218.208 234.792C218.347 236.118 218.172 237.458 217.697 238.704C217.222 239.95 216.459 241.066 215.472 241.962C212.352 244.878 208.272 244.314 206.13 243.714C204.943 243.384 203.674 243.537 202.599 244.138C201.523 244.739 200.729 245.74 200.388 246.924L197.988 255.546C197.824 256.151 197.904 256.796 198.21 257.344C198.516 257.891 199.025 258.297 199.626 258.474L207.426 260.67C208.031 260.833 208.677 260.754 209.224 260.448C209.771 260.141 210.177 259.633 210.354 259.032L210.864 257.232C210.87 257.211 210.883 257.192 210.9 257.178C210.917 257.164 210.938 257.156 210.96 257.154C214.378 256.927 217.704 255.952 220.704 254.298C225.75 251.49 229.17 246.99 230.904 240.936C233.274 232.254 230.274 226.308 227.334 222.84Z" fill="#E0E0E0"/>
<path d="M203.262 261.852L202.578 261.66C201.007 261.218 199.325 261.417 197.902 262.215C196.479 263.013 195.43 264.344 194.988 265.914C194.546 267.485 194.745 269.167 195.543 270.59C196.341 272.014 197.671 273.062 199.242 273.504L199.926 273.696C200.704 273.915 201.517 273.979 202.319 273.884C203.122 273.788 203.897 273.536 204.602 273.141C205.307 272.746 205.927 272.216 206.427 271.581C206.927 270.947 207.297 270.22 207.516 269.442C207.735 268.664 207.799 267.851 207.704 267.049C207.608 266.247 207.356 265.471 206.961 264.766C206.566 264.061 206.036 263.441 205.401 262.941C204.767 262.441 204.04 262.071 203.262 261.852Z" fill="#E0E0E0"/>
<path d="M244.536 175.086C242.457 173.984 240.109 173.491 237.762 173.664C235.61 173.82 233.533 174.52 231.726 175.698C230.484 176.546 229.485 177.705 228.828 179.058C228.023 180.85 227.694 182.82 227.874 184.776C227.883 184.938 227.925 185.097 227.997 185.242C228.07 185.388 228.171 185.517 228.294 185.622C228.418 185.729 228.562 185.81 228.717 185.86C228.873 185.909 229.037 185.926 229.2 185.91L233.448 185.52C233.741 185.497 234.016 185.367 234.219 185.154C234.423 184.942 234.541 184.662 234.552 184.368C234.618 183.018 235.206 180.702 238.38 180.36C239.18 180.258 239.992 180.407 240.703 180.788C241.414 181.169 241.988 181.762 242.346 182.484C242.656 183.094 242.817 183.768 242.817 184.452C242.817 185.136 242.656 185.81 242.346 186.42C241.386 188.388 239.346 188.862 238.194 188.97C237.565 189.031 236.986 189.337 236.582 189.823C236.177 190.308 235.981 190.933 236.034 191.562L236.448 196.134C236.46 196.294 236.504 196.45 236.577 196.593C236.651 196.735 236.752 196.862 236.875 196.965C236.998 197.068 237.14 197.145 237.294 197.192C237.447 197.239 237.609 197.255 237.768 197.238L241.914 196.86C242.074 196.847 242.23 196.803 242.372 196.729C242.515 196.655 242.641 196.553 242.743 196.429C242.846 196.306 242.922 196.163 242.968 196.009C243.015 195.855 243.029 195.694 243.012 195.534L242.922 194.574C242.922 194.563 242.926 194.551 242.932 194.542C242.939 194.532 242.948 194.525 242.958 194.52C244.552 193.784 245.966 192.706 247.098 191.364C248.04 190.223 248.739 188.902 249.152 187.481C249.565 186.06 249.683 184.57 249.498 183.102C249.108 178.506 246.6 176.208 244.536 175.086Z" fill="#F5F5F5"/>
<path d="M240.156 198.18L239.796 198.21C239.377 198.241 238.969 198.356 238.594 198.547C238.22 198.738 237.888 199.001 237.617 199.322C237.346 199.644 237.142 200.015 237.017 200.416C236.892 200.817 236.848 201.239 236.888 201.657C236.928 202.076 237.051 202.482 237.25 202.852C237.449 203.222 237.719 203.548 238.046 203.812C238.373 204.076 238.749 204.272 239.152 204.389C239.556 204.506 239.979 204.541 240.396 204.492L240.756 204.462C241.175 204.431 241.583 204.317 241.958 204.126C242.332 203.935 242.664 203.671 242.935 203.35C243.206 203.029 243.41 202.657 243.535 202.256C243.66 201.855 243.704 201.433 243.664 201.015C243.624 200.596 243.501 200.19 243.302 199.82C243.103 199.45 242.833 199.124 242.506 198.86C242.179 198.596 241.803 198.4 241.399 198.283C240.996 198.166 240.573 198.131 240.156 198.18Z" fill="#F5F5F5"/>
<path d="M74.3279 77.4421C72.9093 76.0851 71.138 75.1537 69.2159 74.7541C67.4544 74.3919 65.63 74.4807 63.9119 75.0121C62.7192 75.4064 61.6514 76.108 60.8159 77.0461C59.7613 78.3018 59.0483 79.8084 58.7459 81.4201C58.7181 81.5518 58.7169 81.6878 58.7424 81.82C58.768 81.9522 58.8198 82.0779 58.8947 82.1898C58.9696 82.3016 59.0662 82.3973 59.1788 82.4713C59.2913 82.5452 59.4175 82.5958 59.5499 82.6201L63.0479 83.2801C63.2885 83.3238 63.5368 83.28 63.748 83.1568C63.9592 83.0336 64.1195 82.839 64.1999 82.6081C64.4215 81.7714 64.9641 81.0558 65.71 80.6166C66.4558 80.1774 67.3448 80.0501 68.1839 80.2621C68.8496 80.362 69.4676 80.6672 69.9516 81.1351C70.4356 81.6029 70.7615 82.2102 70.8839 82.8721C70.9931 83.4324 70.9691 84.0104 70.8138 84.5597C70.6585 85.1089 70.3763 85.614 69.9899 86.0341C68.7899 87.3961 66.9899 87.3061 66.0719 87.1321C65.5543 87.0371 65.0201 87.1502 64.5853 87.4468C64.1505 87.7433 63.8503 88.1995 63.7499 88.7161L63.0419 92.4841C63.015 92.6162 63.0146 92.7523 63.0409 92.8846C63.0672 93.0168 63.1196 93.1424 63.195 93.2542C63.2704 93.3659 63.3674 93.4615 63.4802 93.5353C63.593 93.6091 63.7194 93.6597 63.8519 93.6841L67.2599 94.3261C67.392 94.3522 67.5278 94.352 67.6598 94.3253C67.7917 94.2987 67.917 94.2462 68.0286 94.1709C68.1401 94.0956 68.2357 93.999 68.3097 93.8866C68.3837 93.7743 68.4348 93.6483 68.4599 93.5161L68.6039 92.7241C68.6079 92.7154 68.6137 92.7077 68.621 92.7015C68.6282 92.6953 68.6368 92.6907 68.6459 92.6881C70.093 92.4601 71.473 91.9195 72.6899 91.1041C73.7084 90.4052 74.5733 89.5056 75.2316 88.4604C75.8898 87.4152 76.3276 86.2466 76.5179 85.0261C77.2139 81.2281 75.7139 78.8101 74.3279 77.4421Z" fill="#F5F5F5"/>
<path d="M65.5501 94.9741L65.2501 94.9201C64.9109 94.8563 64.5624 94.8599 64.2246 94.9307C63.8868 95.0016 63.5662 95.1382 63.2813 95.333C62.9963 95.5277 62.7524 95.7766 62.5637 96.0656C62.3749 96.3546 62.2449 96.6779 62.1811 97.0171C62.1172 97.3563 62.1209 97.7047 62.1917 98.0425C62.2625 98.3804 62.3992 98.7009 62.594 98.9859C62.7887 99.2709 63.0376 99.5147 63.3266 99.7035C63.6155 99.8923 63.9389 100.022 64.2781 100.086L64.5781 100.146C65.2492 100.241 65.9311 100.073 66.4818 99.678C67.0326 99.2829 67.4098 98.6906 67.535 98.0244C67.6602 97.3583 67.5237 96.6695 67.154 96.1013C66.7843 95.5332 66.2098 95.1295 65.5501 94.9741Z" fill="#F5F5F5"/>
<path d="M238.2 78.642C236.123 77.5323 233.775 77.0311 231.426 77.196C229.279 77.3449 227.205 78.0343 225.396 79.2C224.149 80.0429 223.144 81.197 222.48 82.548C221.669 84.3384 221.332 86.3076 221.502 88.266C221.51 88.4286 221.551 88.5878 221.623 88.734C221.694 88.8802 221.795 89.0103 221.919 89.1164C222.042 89.2225 222.186 89.3023 222.341 89.3511C222.496 89.3998 222.66 89.4165 222.822 89.4L227.076 89.028C227.369 89.0062 227.644 88.8774 227.849 88.6662C228.054 88.4549 228.174 88.1758 228.186 87.882C228.258 86.532 228.852 84.222 232.026 83.886C232.827 83.7881 233.638 83.9417 234.348 84.3255C235.057 84.7093 235.63 85.3043 235.986 86.028C236.295 86.6379 236.457 87.3121 236.457 87.996C236.457 88.6799 236.295 89.3541 235.986 89.964C235.02 91.932 232.986 92.394 231.822 92.502C231.193 92.56 230.613 92.8633 230.206 93.3462C229.8 93.8291 229.6 94.4527 229.65 95.082L230.052 99.654C230.063 99.8145 230.107 99.9711 230.18 100.115C230.253 100.258 230.354 100.385 230.477 100.489C230.6 100.592 230.743 100.67 230.896 100.717C231.05 100.765 231.212 100.78 231.372 100.764L235.512 100.398C235.671 100.386 235.827 100.342 235.969 100.269C236.111 100.196 236.238 100.096 236.341 99.9733C236.443 99.8509 236.521 99.7092 236.568 99.5565C236.615 99.4037 236.632 99.2431 236.616 99.084L236.532 98.118C236.533 98.1067 236.537 98.0957 236.543 98.0863C236.549 98.0768 236.558 98.0691 236.568 98.064C238.164 97.3361 239.582 96.267 240.72 94.932C241.671 93.796 242.38 92.4778 242.803 91.058C243.226 89.6383 243.354 88.1471 243.18 86.676C242.766 82.086 240.246 79.8 238.2 78.642Z" fill="#EBEBEB"/>
<path d="M233.736 101.718L233.376 101.754C232.963 101.79 232.562 101.907 232.195 102.097C231.827 102.288 231.501 102.55 231.235 102.867C230.969 103.184 230.767 103.55 230.643 103.945C230.518 104.34 230.472 104.755 230.508 105.168C230.544 105.58 230.661 105.982 230.852 106.349C231.042 106.717 231.304 107.043 231.621 107.309C231.938 107.575 232.304 107.777 232.699 107.901C233.094 108.026 233.509 108.072 233.922 108.036L234.282 108.006C235.109 107.925 235.872 107.522 236.403 106.882C236.935 106.243 237.192 105.42 237.12 104.592C237.049 103.763 236.653 102.997 236.019 102.459C235.385 101.921 234.565 101.655 233.736 101.718Z" fill="#EBEBEB"/>
<path d="M110.4 216.906C107.802 215.735 104.926 215.319 102.102 215.706C99.5144 216.057 97.0579 217.058 94.9621 218.616C93.521 219.729 92.3992 221.203 91.7101 222.888C90.866 225.113 90.6117 227.519 90.9721 229.872C90.997 230.067 91.0608 230.255 91.1596 230.425C91.2585 230.595 91.3904 230.743 91.5476 230.861C91.7048 230.979 91.8841 231.065 92.0748 231.112C92.2656 231.16 92.4639 231.169 92.6581 231.138L97.7641 230.358C98.1143 230.302 98.4329 230.122 98.6618 229.851C98.8908 229.581 99.0151 229.237 99.0121 228.882C99.0121 227.25 99.5341 224.406 103.344 223.752C104.304 223.57 105.296 223.692 106.184 224.101C107.071 224.51 107.808 225.185 108.294 226.032C108.714 226.746 108.96 227.549 109.012 228.375C109.064 229.202 108.921 230.029 108.594 230.79C107.574 233.238 105.126 233.964 103.758 234.18C103.006 234.303 102.333 234.716 101.884 235.332C101.434 235.947 101.246 236.715 101.358 237.468L102.198 242.964C102.259 243.349 102.469 243.695 102.784 243.926C103.099 244.156 103.492 244.253 103.878 244.194L108.852 243.432C109.239 243.373 109.586 243.163 109.818 242.848C110.049 242.533 110.147 242.139 110.088 241.752L109.908 240.6C109.907 240.587 109.909 240.573 109.916 240.561C109.922 240.55 109.932 240.54 109.944 240.534C111.826 239.528 113.465 238.121 114.744 236.412C115.796 234.959 116.539 233.306 116.927 231.555C117.315 229.804 117.34 227.991 117 226.23C116.148 220.704 112.926 218.106 110.4 216.906Z" fill="#EBEBEB"/>
<path d="M106.8 245.136L106.368 245.202C105.367 245.355 104.468 245.899 103.868 246.715C103.268 247.53 103.017 248.551 103.17 249.552C103.323 250.553 103.867 251.452 104.683 252.052C105.498 252.652 106.519 252.903 107.52 252.75L107.958 252.684C108.454 252.608 108.929 252.435 109.358 252.175C109.787 251.915 110.16 251.573 110.457 251.169C110.754 250.765 110.968 250.306 111.087 249.819C111.207 249.332 111.229 248.827 111.153 248.331C111.077 247.835 110.904 247.36 110.644 246.931C110.384 246.502 110.042 246.129 109.638 245.832C109.234 245.535 108.775 245.321 108.288 245.202C107.801 245.082 107.296 245.06 106.8 245.136Z" fill="#EBEBEB"/>
<path d="M65.5859 112.896C61.9363 111.247 57.8957 110.661 53.9279 111.204C50.2933 111.701 46.8439 113.111 43.9019 115.302C41.8825 116.868 40.31 118.937 39.3419 121.302C38.1654 124.428 37.8161 127.805 38.3279 131.106C38.3616 131.38 38.4502 131.645 38.5883 131.884C38.7265 132.123 38.9113 132.332 39.1319 132.498C39.3538 132.664 39.6066 132.784 39.8756 132.851C40.1445 132.918 40.424 132.931 40.6979 132.888L47.8979 131.778C48.3896 131.7 48.837 131.449 49.1586 131.069C49.4802 130.689 49.6545 130.206 49.6499 129.708C49.6499 127.404 50.3699 123.414 55.7219 122.508C57.0692 122.25 58.4635 122.418 59.7109 122.989C60.9583 123.56 61.9968 124.506 62.6819 125.694C63.2736 126.695 63.6211 127.821 63.6961 128.981C63.7712 130.142 63.5717 131.303 63.1139 132.372C61.6919 135.816 58.2539 136.842 56.3339 137.172C55.272 137.339 54.3193 137.919 53.6832 138.786C53.0471 139.652 52.7792 140.735 52.9379 141.798L54.1379 149.52C54.2334 150.047 54.5293 150.516 54.9633 150.829C55.3974 151.142 55.9359 151.275 56.4659 151.2L63.4559 150.114C63.9979 150.028 64.4839 149.732 64.8077 149.289C65.1315 148.846 65.2667 148.293 65.1839 147.75L64.9319 146.13C64.9299 146.11 64.9341 146.091 64.9437 146.074C64.9534 146.056 64.9681 146.043 64.9859 146.034C67.6138 144.613 69.8992 142.635 71.6819 140.238C74.6819 136.182 75.7559 131.376 74.9159 125.952C73.7099 118.2 69.1739 114.6 65.5859 112.896Z" fill="#EBEBEB"/>
<path d="M60.6001 152.568L60.0001 152.664C59.304 152.772 58.6359 153.016 58.0341 153.382C57.4322 153.748 56.9084 154.229 56.4925 154.798C56.0766 155.366 55.7767 156.011 55.6101 156.696C55.4434 157.38 55.4132 158.091 55.5211 158.787C55.6291 159.483 55.8731 160.151 56.2392 160.753C56.6053 161.355 57.0864 161.879 57.655 162.295C58.8033 163.135 60.2382 163.484 61.6441 163.266L62.2441 163.17C62.9403 163.062 63.6083 162.818 64.2101 162.452C64.812 162.086 65.3358 161.605 65.7517 161.036C66.1676 160.468 66.4675 159.823 66.6342 159.138C66.8008 158.454 66.8311 157.743 66.7231 157.047C66.6152 156.351 66.3712 155.683 66.005 155.081C65.6389 154.479 65.1578 153.955 64.5892 153.539C64.0207 153.123 63.3757 152.824 62.6913 152.657C62.0068 152.49 61.2963 152.46 60.6001 152.568Z" fill="#EBEBEB"/>
<path d="M166.632 64.0022L172.032 64.9022C175.381 68.9004 180.104 71.5014 185.274 72.194C190.443 72.8865 195.684 71.6206 199.968 68.645C204.251 65.6693 207.266 61.1992 208.421 56.1132C209.576 51.0272 208.787 45.6932 206.209 41.1595C203.631 36.6258 199.45 33.2204 194.489 31.6125C189.527 30.0047 184.144 30.3107 179.396 32.4705C174.649 34.6302 170.881 38.4875 168.834 43.2841C166.786 48.0807 166.606 53.4699 168.33 58.3922L166.632 64.0022Z" fill="white"/>
<path d="M166.632 64.0021C166.632 64.0021 166.632 63.8821 166.728 63.6421L167.034 62.5681C167.322 61.6021 167.736 60.1681 168.27 58.3681L168.306 58.2421L168.384 58.3501L168.27 58.4041C167.125 55.1912 166.787 51.7462 167.286 48.3721C167.623 46.1564 168.304 44.0066 169.302 42.0001C170.459 39.7407 172.014 37.7083 173.892 36.0001C175.987 34.1143 178.434 32.6606 181.092 31.7221C183.971 30.6815 187.046 30.2981 190.092 30.6001C193.322 30.9252 196.435 31.9775 199.2 33.6781C202.1 35.4765 204.508 37.967 206.208 40.9261C207.081 42.4266 207.772 44.0259 208.266 45.6901C208.386 46.1041 208.464 46.5241 208.56 46.9441C208.671 47.3542 208.755 47.7711 208.812 48.1921C208.866 48.6121 208.914 49.0381 208.968 49.4521L209.04 50.0521V50.6521C209.146 53.934 208.495 57.1962 207.138 60.1861C205.869 63.0115 203.975 65.5123 201.6 67.5001C199.423 69.3254 196.907 70.7018 194.196 71.5501C191.739 72.3052 189.165 72.6041 186.6 72.4321L184.842 72.2281C184.242 72.1441 183.714 71.9941 183.168 71.8861C182.117 71.644 181.087 71.3149 180.09 70.9021C176.944 69.6077 174.163 67.5621 171.99 64.9441H172.026L168 64.2541L166.974 64.0681L166.632 64.0021L166.998 64.0501L168.048 64.2121L172.05 64.8121C174.228 67.3897 176.999 69.3994 180.126 70.6681C181.116 71.072 182.137 71.3931 183.18 71.6281C183.726 71.7301 184.272 71.8801 184.842 71.9581L186.582 72.1501C189.11 72.3096 191.646 72.0046 194.064 71.2501C196.737 70.4057 199.216 69.0416 201.36 67.2361C203.692 65.2883 205.558 62.8423 206.82 60.0781C208.151 57.1276 208.787 53.9111 208.68 50.6761V50.0761L208.608 49.4761C208.554 49.0681 208.506 48.6541 208.452 48.2341C208.393 47.8198 208.311 47.4092 208.206 47.0041C208.104 46.5961 208.026 46.1761 207.912 45.8041C207.427 44.1624 206.746 42.5851 205.884 41.1061C204.209 38.1928 201.838 35.7397 198.984 33.9661C196.255 32.2773 193.177 31.231 189.984 30.9061C187.013 30.611 184.014 30.9757 181.2 31.9741C178.577 32.8938 176.161 34.3209 174.09 36.1741C172.225 37.8621 170.682 39.8748 169.536 42.1141C168.542 44.0911 167.86 46.2103 167.514 48.3961C167.005 51.7405 167.316 55.1584 168.42 58.3561L168.576 58.8001L168.312 58.4161H168.42C167.862 60.2161 167.424 61.6081 167.13 62.5621C166.98 63.0301 166.866 63.3901 166.788 63.6481C166.71 63.9061 166.632 64.0021 166.632 64.0021Z" fill="#263238"/>
<path d="M192.456 41.862C191.04 40.9541 189.398 40.4634 187.716 40.446C186.178 40.4274 184.66 40.8012 183.306 41.532C182.369 42.0585 181.587 42.822 181.038 43.746C180.353 44.9727 179.996 46.3551 180 47.76C180.003 47.985 180.094 48.2001 180.252 48.36C180.33 48.4403 180.423 48.5045 180.526 48.5487C180.629 48.593 180.74 48.6165 180.852 48.618H183.9C184.115 48.6263 184.326 48.555 184.492 48.4178C184.658 48.2806 184.768 48.0869 184.8 47.874C184.848 47.1337 185.186 46.4422 185.741 45.9501C186.296 45.4579 187.023 45.2049 187.764 45.246C188.339 45.222 188.908 45.3778 189.391 45.6918C189.874 46.0057 190.247 46.4623 190.458 46.998C190.639 47.4523 190.71 47.943 190.665 48.4299C190.62 48.9169 190.461 49.3863 190.2 49.8C189.861 50.307 189.397 50.7177 188.852 50.9921C188.308 51.2665 187.701 51.3953 187.092 51.366C186.642 51.3707 186.211 51.553 185.894 51.8731C185.578 52.1933 185.4 52.6256 185.4 53.076V56.358C185.402 56.5877 185.494 56.8074 185.657 56.9693C185.82 57.1311 186.04 57.222 186.27 57.222H189.27C189.384 57.222 189.497 57.1994 189.602 57.1556C189.707 57.1118 189.803 57.0477 189.883 56.9668C189.963 56.8859 190.027 56.79 190.07 56.6845C190.113 56.5789 190.135 56.4659 190.134 56.352V55.638C190.134 55.6294 190.137 55.621 190.142 55.6144C190.148 55.6078 190.156 55.6034 190.164 55.602C191.343 55.1719 192.414 54.4901 193.302 53.604C194.042 52.8483 194.62 51.9501 195.001 50.964C195.383 49.978 195.56 48.9246 195.522 47.868C195.569 46.688 195.311 45.5159 194.774 44.4641C194.237 43.4124 193.439 42.5163 192.456 41.862Z" fill="#FF725E"/>
<path d="M187.95 58.0381H187.692C187.115 58.0715 186.572 58.3254 186.177 58.7473C185.781 59.1692 185.563 59.727 185.566 60.3053C185.57 60.8837 185.796 61.4385 186.197 61.8551C186.598 62.2717 187.144 62.5184 187.722 62.5441H187.986C188.583 62.5393 189.153 62.2977 189.572 61.8723C189.99 61.447 190.223 60.8728 190.218 60.2761C190.213 59.6793 189.972 59.1089 189.546 58.6904C189.121 58.2718 188.547 58.0393 187.95 58.0441V58.0381Z" fill="#FF725E"/>
<path d="M196.23 91.0502C182.064 81.5222 165.222 78.1262 154.182 78.1262C143.838 78.1262 128.628 79.7582 114.858 87.5222C106.496 92.1615 99.5002 98.9172 94.5719 107.112C88.7639 116.796 85.6139 128.778 85.2239 142.722C85.1966 143.753 85.3763 144.779 85.7522 145.739C86.1281 146.699 86.6927 147.574 87.4125 148.313C88.1324 149.051 88.993 149.638 89.9434 150.038C90.8938 150.438 91.9147 150.643 92.9459 150.642H120.06C121.919 150.635 123.713 149.961 125.116 148.742C126.519 147.523 127.438 145.84 127.704 144C128.904 135.498 133.956 121.2 154.242 120.834C169.692 120.57 176.07 131.76 178.098 136.584C181.392 144.432 180.552 153.738 175.86 161.478C168.648 173.4 155.4 175.2 148.11 175.2C144.098 175.211 140.254 176.807 137.414 179.641C134.574 182.474 132.968 186.315 132.948 190.326V219.498C132.951 221.547 133.766 223.511 135.215 224.959C136.663 226.408 138.627 227.223 140.676 227.226H167.076C169.125 227.223 171.088 226.408 172.537 224.959C173.986 223.511 174.801 221.547 174.804 219.498V213.39C174.805 213.319 174.828 213.249 174.87 213.191C174.912 213.133 174.97 213.09 175.038 213.066C185.547 209.325 195.112 203.333 203.064 195.51C216.396 182.25 223.158 165.138 223.158 144.648C223.2 115.326 208.518 99.3122 196.23 91.0502Z" fill="#FF725E"/>
<path d="M153.216 240.852H155.352C160.339 240.941 165.091 242.984 168.586 246.542C172.082 250.099 174.04 254.888 174.04 259.875C174.04 264.863 172.082 269.651 168.586 273.208C165.091 276.766 160.339 278.809 155.352 278.898H153.216C148.229 278.809 143.477 276.766 139.982 273.208C136.486 269.651 134.528 264.863 134.528 259.875C134.528 254.888 136.486 250.099 139.982 246.542C143.477 242.984 148.229 240.941 153.216 240.852Z" fill="#263238"/>
<path d="M140.574 232.89H166.974C168.989 232.919 170.934 232.148 172.381 230.745C173.829 229.343 174.661 227.423 174.696 225.408V213.48C174.698 213.411 174.722 213.343 174.764 213.288C174.806 213.232 174.864 213.19 174.93 213.168C179.278 211.609 183.444 209.583 187.356 207.126C170.49 207.006 139.746 206.838 132.852 207.084V225.408C132.887 227.423 133.719 229.343 135.166 230.745C136.614 232.148 138.558 232.919 140.574 232.89Z" fill="#263238"/>
<path d="M162.318 100.74L145.374 51.5401C141.774 39.2221 131.646 31.0321 119.43 34.9501L118.326 35.3821C112.95 37.4577 108.552 41.4814 106.009 46.6524C103.465 51.8234 102.961 57.7626 104.598 63.2881C107.76 73.9501 111.384 85.6861 113.598 91.2061C118.176 102.606 130.158 99.4261 130.158 99.4261C130.158 99.4261 132.828 107.04 133.98 110.466L140.19 116.598L142.752 113.796L162.318 100.74Z" fill="#FFBF9D"/>
<path d="M130.158 99.4261C130.158 99.4261 137.562 97.0261 143.4 89.2261C143.4 89.2261 143.142 99.2461 131.286 102.636L130.158 99.4261Z" fill="#F96262"/>
<path d="M112.884 71.0581C113.046 71.4862 113.368 71.8344 113.783 72.0292C114.197 72.224 114.671 72.2502 115.104 72.1021C115.319 72.0385 115.519 71.9325 115.693 71.7902C115.866 71.648 116.01 71.4724 116.114 71.2739C116.219 71.0753 116.283 70.8579 116.302 70.6343C116.321 70.4107 116.295 70.1855 116.226 69.9721C116.066 69.542 115.744 69.1914 115.33 68.9952C114.915 68.799 114.44 68.7728 114.006 68.9221C113.79 68.9863 113.59 69.093 113.416 69.2358C113.243 69.3787 113.099 69.5548 112.995 69.7538C112.89 69.9528 112.827 70.1707 112.808 70.3947C112.789 70.6187 112.814 70.8443 112.884 71.0581Z" fill="#263238"/>
<path d="M108.81 66.8582C109.092 66.9962 110.01 65.5922 111.75 64.9202C113.49 64.2482 115.146 64.6262 115.254 64.3202C115.314 64.1882 114.954 63.8822 114.234 63.7202C113.266 63.4846 112.249 63.5559 111.324 63.9242C110.407 64.273 109.623 64.903 109.086 65.7242C108.708 66.3422 108.672 66.8042 108.81 66.8582Z" fill="#263238"/>
<path d="M127.638 65.2081C127.926 65.3401 128.838 63.9421 130.578 63.2641C132.318 62.5861 133.98 62.9701 134.088 62.6641C134.142 62.5321 133.788 62.2261 133.068 62.0641C132.098 61.8297 131.079 61.9009 130.152 62.2681C129.237 62.6187 128.456 63.2485 127.92 64.0681C127.536 64.6921 127.5 65.1481 127.638 65.2081Z" fill="#263238"/>
<path d="M125.172 76.5901C125.142 76.4881 123.972 76.7221 122.106 77.1901C121.638 77.3161 121.176 77.3941 120.984 77.1181C120.764 76.6678 120.689 76.1608 120.768 75.6661C120.768 74.4101 120.768 73.0941 120.768 71.7181C120.732 66.1201 120.516 61.5841 120.294 61.5901C120.072 61.5961 119.916 66.1321 119.952 71.7301C119.952 73.1101 119.97 74.4261 120.006 75.6781C119.934 76.3316 120.093 76.9897 120.456 77.5381C120.584 77.6706 120.739 77.7729 120.912 77.8373C121.084 77.9016 121.269 77.9265 121.452 77.9101C121.729 77.88 122.001 77.8155 122.262 77.7181C124.092 77.1121 125.202 76.6921 125.172 76.5901Z" fill="#263238"/>
<path d="M123.558 55.29C123.972 55.644 125.502 54.51 127.572 53.658C129.642 52.806 131.496 52.458 131.532 51.918C131.532 51.66 131.028 51.39 130.152 51.318C129.011 51.2566 127.872 51.456 126.819 51.9009C125.767 52.3459 124.83 53.0248 124.08 53.886C123.528 54.558 123.372 55.116 123.558 55.29Z" fill="#263238"/>
<path d="M106.722 61.7041C107.244 61.9681 108.522 61.0141 110.262 60.3541C112.002 59.6941 113.568 59.4421 113.754 58.8961C113.826 58.6381 113.442 58.2961 112.662 58.1761C111.601 58.0257 110.519 58.1646 109.53 58.5781C108.532 58.9562 107.657 59.5993 106.998 60.4381C106.536 61.0741 106.488 61.5661 106.722 61.7041Z" fill="#263238"/>
<path d="M147.534 59.85C147.696 59.688 154.524 54.45 157.302 62.412C160.08 70.374 151.536 71.514 151.44 71.292C151.344 71.07 147.534 59.85 147.534 59.85Z" fill="#FFBF9D"/>
<path d="M152.814 67.428C152.814 67.392 152.988 67.476 153.258 67.506C153.637 67.5306 154.011 67.4081 154.302 67.164C155.034 66.564 155.274 64.98 154.812 63.564C154.592 62.8748 154.221 62.2434 153.726 61.716C153.564 61.4949 153.352 61.3162 153.106 61.195C152.861 61.0738 152.59 61.0138 152.316 61.02C152.142 61.0332 151.978 61.1071 151.853 61.2289C151.728 61.3506 151.65 61.5124 151.632 61.686C151.602 61.944 151.71 62.088 151.668 62.112C151.626 62.136 151.452 62.04 151.404 61.692C151.38 61.4821 151.429 61.2704 151.542 61.092C151.704 60.8497 151.953 60.6797 152.238 60.618C152.587 60.5686 152.943 60.6094 153.271 60.7365C153.6 60.8636 153.891 61.0727 154.116 61.344C154.693 61.9148 155.123 62.6168 155.37 63.39C155.88 65.01 155.586 66.798 154.548 67.53C154.357 67.6666 154.137 67.7585 153.905 67.799C153.674 67.8395 153.436 67.8276 153.21 67.764C152.898 67.614 152.79 67.452 152.814 67.428Z" fill="#F96262"/>
<path d="M131.166 75.7862C130.89 75.8642 131.496 77.7002 130.362 79.5242C129.228 81.3482 127.212 81.8042 127.284 82.0622C127.284 82.1882 127.836 82.2722 128.67 82.0202C129.751 81.6776 130.675 80.9634 131.28 80.0042C131.856 79.0843 132.054 77.9769 131.832 76.9142C131.646 76.1222 131.292 75.7382 131.166 75.7862Z" fill="#263238"/>
<path d="M84.7559 57.7081C84.7344 57.1916 84.9127 56.6866 85.2539 56.2981C85.9739 55.4401 87.0539 55.1401 88.0559 54.7681C90.5585 53.8226 92.8148 52.3232 94.6559 50.3821C93.7341 50.2766 92.835 50.0254 91.9919 49.6381C90.2579 48.8101 88.8299 47.1061 88.8119 45.1861C88.7938 45.007 88.8162 44.8261 88.8774 44.6568C88.9387 44.4875 89.0373 44.3341 89.1659 44.2081C89.6279 43.8661 90.2579 44.2081 90.7619 44.4901C92.4059 45.3961 93.7019 45.5761 95.3999 44.7781C96.4376 44.3381 97.3626 43.6695 98.1059 42.8221C98.1059 42.7741 98.1419 42.7201 98.1659 42.6721C98.4299 42.0721 98.6879 41.5561 98.9459 41.0221C100.89 37.0081 102.738 34.0501 105.006 32.0221C108.336 29.0941 114.606 26.1781 119.01 25.8181C123.414 25.4581 128.214 27.4501 130.236 31.3981C131.826 28.6801 135.234 27.4981 138.39 27.6361L138.444 27.5821C141.906 27.5821 144.798 30.2281 146.814 33.0421L147.132 33.5101C148.752 34.8052 150.66 35.692 152.694 36.0961C153.054 36.1621 153.468 36.2521 153.624 36.5821C153.674 36.7565 153.679 36.9411 153.637 37.1178C153.595 37.2945 153.508 37.4572 153.384 37.5901C152.828 38.3775 152.102 39.0296 151.26 39.4981C151.807 40.1485 152.409 40.7507 153.06 41.2981C153.618 41.7661 154.26 42.3241 154.188 43.0441C154.128 43.3177 153.987 43.5666 153.782 43.7574C153.577 43.9483 153.319 44.072 153.042 44.1121C152.484 44.181 151.918 44.132 151.38 43.9681L153.276 46.0681C152.226 46.6508 151.055 46.9796 149.856 47.0281C150.234 50.1901 151.656 55.7941 151.602 58.0441C149.508 58.8241 148.914 58.7761 148.002 59.5021C146.802 60.4441 148.17 62.6941 146.136 62.6341C145.104 62.6041 142.488 59.6341 141.858 58.8241C137.656 53.3526 134.679 47.0422 133.128 40.3201C131.372 39.4088 129.457 38.8445 127.488 38.6581L127.668 38.7301C124.02 38.7301 119.958 38.9341 117.414 41.5441C115.44 43.5661 114.912 46.5421 113.814 49.1521C111.75 54.0961 108.624 57.4441 103.65 59.4421C104.43 63.1081 106.32 68.8861 107.298 72.2221L102.198 66.6541V66.6841C101.85 66.385 101.518 66.0686 101.202 65.7361L101.094 65.6401C100.59 65.1181 100.098 64.5961 99.5219 64.1041V64.1461C98.3219 66.3301 94.8479 64.8601 95.5739 62.4661C95.7155 61.9881 95.9301 61.5347 96.2099 61.1221C95.9458 61.6506 95.5496 62.1017 95.0597 62.4319C94.5698 62.762 94.0028 62.9598 93.4139 63.0061C92.8234 63.0308 92.2413 62.8602 91.7576 62.5207C91.2738 62.1812 90.9155 61.6918 90.7379 61.1281C90.6491 60.7371 90.6644 60.3296 90.7823 59.9464C90.9002 59.5632 91.1166 59.2176 91.4099 58.9441C90.0101 59.5689 88.455 59.7591 86.9459 59.4901C85.9139 59.3221 84.8399 58.8361 84.7559 57.7081Z" fill="#263238"/>
<path d="M127.068 34.0442C127.599 34.2184 128.115 34.4372 128.61 34.6982C129.918 35.4842 130.999 36.5965 131.748 37.9262C132.292 38.8353 132.741 39.7985 133.086 40.8002C133.47 41.8682 133.788 43.0442 134.13 44.2862C134.471 45.5908 134.892 46.8732 135.39 48.1262C135.664 48.7894 135.986 49.4311 136.356 50.0462C136.711 50.7175 137.232 51.2874 137.868 51.7022C138.146 51.8616 138.462 51.9455 138.783 51.9455C139.104 51.9455 139.419 51.8616 139.698 51.7022C140.24 51.3995 140.663 50.9213 140.898 50.3462C141.225 49.2577 141.252 48.1008 140.976 46.9982L140.742 47.1122C141.402 47.8651 142.168 48.5179 143.016 49.0502C143.825 49.536 144.79 49.6908 145.71 49.4822C146.133 49.3878 146.523 49.1804 146.838 48.8822C147.12 48.582 147.304 48.2033 147.366 47.7962C147.429 47.4187 147.39 47.0312 147.252 46.6742C147.117 46.3468 146.873 46.0757 146.562 45.9062L146.472 46.0562C147.444 46.6074 148.521 46.9468 149.634 47.0522C149.926 47.0674 150.218 47.0674 150.51 47.0522C150.61 47.0611 150.71 47.0611 150.81 47.0522C150.71 47.038 150.609 47.038 150.51 47.0522C150.219 47.0451 149.928 47.021 149.64 46.9802C148.554 46.8379 147.508 46.481 146.562 45.9302L146.478 46.0862C146.754 46.263 146.969 46.5215 147.091 46.8259C147.214 47.1302 147.239 47.4652 147.162 47.7842C147.103 48.1484 146.933 48.4856 146.676 48.7502C146.395 49.0291 146.042 49.2244 145.656 49.3142C144.793 49.4936 143.895 49.3392 143.142 48.8822C142.323 48.3541 141.581 47.7139 140.94 46.9802L140.646 46.6682L140.706 47.0942C140.967 48.1476 140.942 49.2516 140.634 50.2922C140.426 50.7991 140.054 51.2216 139.578 51.4922C139.34 51.6279 139.071 51.6993 138.798 51.6993C138.524 51.6993 138.255 51.6279 138.018 51.4922C137.428 51.1003 136.947 50.5657 136.62 49.9382C136.248 49.3173 135.923 48.6695 135.648 48.0002C135.152 46.7587 134.731 45.4884 134.388 44.1962C134.034 42.9602 133.71 41.7962 133.314 40.7042C132.954 39.6898 132.487 38.7163 131.922 37.8002C131.145 36.4531 130.02 35.3401 128.664 34.5782C128.165 34.3123 127.626 34.1318 127.068 34.0442Z" fill="#455A64"/>
<path d="M95.0999 58.0202C95.0999 58.0202 95.1359 58.0202 95.2199 58.0682L95.5859 58.1762C95.7827 58.2367 95.983 58.2848 96.1859 58.3202C96.4631 58.3775 96.7437 58.4176 97.0259 58.4402C98.8322 58.6018 100.65 58.3132 102.318 57.6002C104.797 56.537 106.914 54.7781 108.414 52.5362C110.219 49.7909 111.444 46.7058 112.014 43.4702C112.362 41.7662 112.542 40.0802 112.836 38.4782C113.067 36.9365 113.522 35.4368 114.186 34.0262C114.78 32.7533 115.683 31.6497 116.814 30.8162C117.327 30.4573 117.894 30.1818 118.494 30.0002C119.054 29.8371 119.633 29.7504 120.216 29.7422C121.227 29.7308 122.23 29.9354 123.156 30.3422C123.855 30.6467 124.5 31.0643 125.064 31.5782C125.517 32.044 125.92 32.5569 126.264 33.1082C126.264 33.1082 126.264 33.0662 126.21 32.9942L126.03 32.6582C125.775 32.2376 125.471 31.8489 125.124 31.5002C124.561 30.9608 123.912 30.5188 123.204 30.1922C122.263 29.7601 121.24 29.535 120.204 29.5322C119.595 29.5348 118.99 29.6196 118.404 29.7842C117.774 29.9675 117.179 30.2511 116.64 30.6242C115.466 31.473 114.525 32.6038 113.904 33.9122C113.238 35.3361 112.778 36.8471 112.536 38.4002C112.242 40.0142 112.062 41.6942 111.714 43.3862C111.157 46.5917 109.962 49.6524 108.198 52.3862C106.733 54.5991 104.663 56.3443 102.234 57.4142C100.601 58.1422 98.8157 58.4614 97.0319 58.3442C96.3821 58.2742 95.7369 58.166 95.0999 58.0202Z" fill="#455A64"/>
<path d="M92.2378 53.2861C92.4055 53.3547 92.5807 53.403 92.7598 53.4302C93.2382 53.5308 93.7236 53.595 94.2118 53.6221C94.9399 53.6673 95.6704 53.6512 96.3958 53.5741C97.2828 53.47 98.1584 53.2852 99.0118 53.0222C99.8612 52.7482 100.683 52.3946 101.466 51.9661C102.099 51.6185 102.701 51.217 103.266 50.7661C103.649 50.4643 104.008 50.1333 104.34 49.7761C104.574 49.5181 104.7 49.3741 104.682 49.3561C104.664 49.3381 104.118 49.8781 103.14 50.6041C102.57 51.0311 101.968 51.4142 101.34 51.7501C99.7931 52.578 98.1068 53.1129 96.3658 53.3281C95.6466 53.4055 94.9226 53.4296 94.1998 53.4001C92.9998 53.4001 92.2498 53.2321 92.2378 53.2861Z" fill="#455A64"/>
<path d="M114 136.458C113.898 136.458 115.26 143.298 116.592 150.36H117.012C115.68 143.298 114.108 136.428 114 136.458Z" fill="#263238"/>
<path d="M119.748 150.702C123.6 150.702 127.146 147.93 127.686 144.15C128.886 135.66 133.74 121.296 154.158 120.942C169.716 120.678 176.262 131.688 178.098 136.59C181.008 144.36 180.648 153.798 175.92 161.526C168.66 173.4 155.298 175.2 147.984 175.248C143.962 175.242 140.101 176.826 137.243 179.655C134.384 182.484 132.761 186.329 132.726 190.35V222.072L174.864 221.274V213.36C174.865 213.288 174.889 213.218 174.932 213.16C174.975 213.102 175.035 213.059 175.104 213.036C183.259 210.199 190.851 205.948 197.532 200.478L194.79 163.95C194.79 163.95 202.806 148.536 202.41 145.068C198.78 113.388 188.01 95.4601 183.624 93.7861C178.71 91.9141 159.726 92.8261 159.726 92.8261C159.726 92.8261 151.524 108 140.022 109.698C133.62 110.634 131.286 102.642 131.286 102.642L116.4 111.36C105.816 116.7 103.764 137.46 103.572 150.702H119.748Z" fill="#455A64"/>
<g opacity="0.3">
<path d="M168.6 169.368C177.09 171.528 185.466 174.264 193.962 176.424C194.608 176.523 195.208 176.816 195.684 177.264C196.314 177.99 196.17 179.064 195.888 180C194.906 182.912 193.136 185.496 190.776 187.464C188.928 189.084 186.714 190.464 184.26 190.644C181.53 190.86 178.902 189.594 176.598 188.118C170.607 184.279 165.739 178.924 162.486 172.596C162.486 172.596 164.478 171.774 166.002 170.958C166.895 170.475 167.763 169.944 168.6 169.368Z" fill="black"/>
</g>
<path d="M177.924 136.8C181.32 144.636 180.456 153.93 175.614 161.664C173.2 165.594 169.813 168.835 165.78 171.072C169.433 175.17 173.496 178.884 177.906 182.154C182.244 185.232 192.246 184.356 196.038 177.618C200.718 169.296 201.108 148.056 201.108 148.056L201.996 135.246L175.836 131.238L175.626 131.958C176.542 133.496 177.312 135.117 177.924 136.8Z" fill="#FFBF9D"/>
<path d="M132.372 131.4L130.884 133.8C129.75 134.586 128.676 134.154 127.974 132.702L111.87 108.192L115.794 105.696L133.578 129.204C133.578 129.204 133.83 130.422 132.372 131.4Z" fill="#455A64"/>
<path d="M95.1719 107.742C92.7156 106.351 90.6225 104.4 89.0631 102.047C87.5037 99.6942 86.5222 97.0062 86.1984 94.2021C85.8746 91.3981 86.2177 88.5571 87.1998 85.9108C88.1819 83.2644 89.7753 80.8874 91.85 78.9735C93.9247 77.0595 96.4222 75.6627 99.1391 74.8968C101.856 74.1308 104.715 74.0175 107.484 74.5659C110.253 75.1143 112.853 76.309 115.073 78.0527C117.293 79.7964 119.069 82.0398 120.258 84.6001C121.858 88.043 122.324 91.9054 121.587 95.6299C120.85 99.3545 118.949 102.749 116.158 105.323C113.367 107.897 109.83 109.518 106.058 109.951C102.287 110.385 98.4743 109.609 95.1719 107.736V107.742ZM112.236 77.5981C108.767 75.6373 104.711 74.9804 100.8 75.7457C96.8897 76.511 93.381 78.6483 90.9069 81.7722C88.4328 84.8961 87.156 88.8011 87.3068 92.7832C87.4577 96.7652 89.0261 100.562 91.7294 103.49C94.4327 106.418 98.093 108.284 102.05 108.751C106.008 109.219 110.002 108.257 113.313 106.039C116.624 103.822 119.034 100.494 120.108 96.6567C121.182 92.8193 120.85 88.7243 119.172 85.1101C117.702 81.9424 115.276 79.3152 112.236 77.5981Z" fill="#263238"/>
<path d="M95.9339 106.992C93.4775 105.601 91.3844 103.65 89.8251 101.297C88.2657 98.9442 87.2841 96.2562 86.9603 93.4521C86.6366 90.6481 86.9797 87.8071 87.9618 85.1608C88.9439 82.5144 90.5372 80.1374 92.612 78.2235C94.6867 76.3095 97.1842 74.9127 99.901 74.1468C102.618 73.3808 105.477 73.2675 108.246 73.8159C111.015 74.3643 113.615 75.559 115.835 77.3027C118.055 79.0464 119.831 81.2898 121.02 83.8501C122.618 87.2931 123.082 91.1548 122.345 94.8784C121.607 98.6021 119.706 101.995 116.916 104.569C114.126 107.143 110.591 108.765 106.82 109.2C103.049 109.635 99.2371 108.862 95.9339 106.992ZM112.998 76.8481C109.53 74.8885 105.476 74.2322 101.567 74.9976C97.6576 75.763 94.1505 77.8996 91.6775 81.0224C89.2046 84.1452 87.9286 88.0486 88.0794 92.0291C88.2303 96.0096 89.7982 99.8053 92.5004 102.732C95.2026 105.659 98.8614 107.524 102.817 107.991C106.773 108.458 110.766 107.497 114.076 105.28C117.385 103.064 119.794 99.738 120.868 95.9022C121.943 92.0664 121.611 87.9731 119.934 84.3601C118.463 81.1931 116.038 78.5662 112.998 76.8481Z" fill="#455A64"/>
<path d="M119.67 91.6502C119.662 91.5524 119.662 91.4541 119.67 91.3562C119.673 91.0758 119.661 90.7954 119.634 90.5162C119.559 89.4854 119.357 88.4678 119.034 87.4862C118.819 86.8093 118.558 86.1478 118.254 85.5062C117.905 84.7725 117.504 84.0647 117.054 83.3882C116.552 82.642 115.99 81.9377 115.374 81.2822C114.718 80.5689 113.997 79.9181 113.22 79.3382C112.443 78.7609 111.611 78.2624 110.736 77.8502C109.917 77.4743 109.068 77.1692 108.198 76.9382C106.718 76.558 105.188 76.4043 103.662 76.4822C102.63 76.5322 101.607 76.6891 100.608 76.9502C100.254 77.0342 100.008 77.1422 99.8039 77.1902C99.7101 77.2226 99.6138 77.2467 99.5159 77.2622C99.603 77.2195 99.6933 77.1834 99.7859 77.1542C99.9719 77.0882 100.236 76.9742 100.59 76.8782C101.587 76.5856 102.613 76.4065 103.65 76.3442C105.193 76.2459 106.741 76.3896 108.24 76.7702C109.124 76.997 109.988 77.3002 110.82 77.6762C111.705 78.0945 112.547 78.5989 113.334 79.1822C114.117 79.7718 114.846 80.4305 115.512 81.1502C116.134 81.8167 116.699 82.5331 117.204 83.2922C117.654 83.9793 118.055 84.697 118.404 85.4402C118.706 86.0916 118.963 86.7632 119.172 87.4502C119.484 88.4425 119.665 89.4711 119.712 90.5102C119.712 90.8762 119.712 91.1642 119.712 91.3562C119.704 91.455 119.69 91.5532 119.67 91.6502Z" fill="white"/>
<path d="M100.968 106.242C100.968 106.194 101.796 106.5 103.176 106.692L103.722 106.758C103.908 106.758 104.106 106.758 104.322 106.758C104.73 106.794 105.168 106.758 105.624 106.758C107.624 106.665 109.579 106.137 111.354 105.21C111.74 105.011 112.117 104.793 112.482 104.556C112.656 104.442 112.824 104.34 112.98 104.226L113.412 103.902C114.51 103.044 115.068 102.366 115.098 102.402C114.983 102.568 114.852 102.723 114.708 102.864C114.555 103.048 114.388 103.221 114.21 103.38C113.982 103.592 113.744 103.792 113.496 103.98L113.064 104.322C112.914 104.442 112.74 104.544 112.572 104.664C112.206 104.91 111.828 105.136 111.438 105.342C109.646 106.293 107.663 106.828 105.636 106.908C105.168 106.908 104.724 106.908 104.316 106.908C104.106 106.908 103.908 106.908 103.716 106.86L103.17 106.782C102.856 106.739 102.546 106.677 102.24 106.596C102.005 106.549 101.775 106.485 101.55 106.404C101.352 106.366 101.157 106.312 100.968 106.242Z" fill="white"/>
<path d="M113.298 94.7581C113.262 94.7941 110.898 92.4601 108.078 89.5381C105.258 86.6161 102.96 84.2161 103.002 84.1801C103.044 84.1441 105.402 86.4781 108.216 89.4001C111.03 92.3221 113.34 94.7221 113.298 94.7581Z" fill="white"/>
<path d="M110.538 99.4562C110.478 99.4044 110.422 99.3482 110.37 99.2882L109.908 98.7902L108.24 96.9302C106.83 95.3582 104.88 93.1922 102.696 90.8222C100.512 88.4522 98.4958 86.3342 97.0618 84.8222L95.3458 83.0222C95.1538 82.8182 94.9978 82.6562 94.8838 82.5242C94.8283 82.4673 94.7763 82.4072 94.7278 82.3442C94.7942 82.3884 94.8547 82.4408 94.9078 82.5002L95.3938 82.9742C95.8198 83.3882 96.4198 83.9942 97.1578 84.7742C98.6338 86.2862 100.65 88.3742 102.84 90.7742C105.03 93.1742 106.956 95.3222 108.342 96.9182C109.032 97.7162 109.59 98.3642 109.968 98.8202L110.4 99.3422C110.45 99.3755 110.496 99.4137 110.538 99.4562Z" fill="white"/>
<g opacity="0.3">
<path d="M95.9219 77.5022L117.936 101.4C117.936 101.4 116.136 103.89 114.522 105L92.0459 80.5202C93.1307 79.2731 94.447 78.2482 95.9219 77.5022Z" fill="white"/>
</g>
<g opacity="0.3">
<path d="M90.1559 83.2742L111.804 106.572C111.804 106.572 112.002 106.68 110.514 107.058L89.5439 84.4562C89.6555 84.0208 89.8648 83.6166 90.1559 83.2742Z" fill="white"/>
</g>
<path d="M147.138 121.71C142.512 117.996 131.184 108.912 130.662 108.672C130.014 108.366 120.042 104.826 118.128 105.96C116.214 107.094 111.096 113.532 111.096 113.532C111.096 113.532 111.582 117.528 116.052 114.666L120.048 112.11L124.8 113.22C124.8 113.22 119.004 115.62 117.78 116.91C116.556 118.2 114.6 123.054 115.8 124.2C116.525 124.864 117.44 125.283 118.416 125.4C118.416 125.4 116.016 128.796 120.264 130.848C120.264 130.848 120.864 133.698 122.976 134.82C125.088 135.942 128.976 135.54 128.976 135.54C129.219 135.406 129.428 135.22 129.588 134.993C129.747 134.767 129.854 134.508 129.899 134.235C129.944 133.961 129.927 133.682 129.848 133.416C129.769 133.151 129.631 132.906 129.444 132.702C128.1 130.902 125.622 130.68 125.622 130.68L128.694 128.88C130.132 129.429 131.47 130.212 132.654 131.196C134.3 129.115 136.18 127.23 138.258 125.58C141.408 123.306 147.138 121.71 147.138 121.71Z" fill="#FFBF9D"/>
<path d="M127.482 123.216C127.331 123.194 127.177 123.194 127.026 123.216C126.619 123.274 126.218 123.367 125.826 123.492C124.508 123.918 123.322 124.678 122.384 125.698C121.446 126.717 120.788 127.963 120.474 129.312C120.381 129.716 120.322 130.128 120.3 130.542C120.278 130.693 120.278 130.847 120.3 130.998C120.348 130.998 120.354 130.35 120.624 129.354C120.969 128.048 121.628 126.846 122.543 125.851C123.458 124.857 124.601 124.101 125.874 123.648C126.84 123.324 127.488 123.258 127.482 123.216Z" fill="#F96262"/>
<path d="M127.686 118.05C127.523 118.038 127.359 118.05 127.2 118.086C127.01 118.103 126.822 118.133 126.636 118.176C126.387 118.222 126.141 118.28 125.898 118.35C125.26 118.526 124.64 118.759 124.044 119.046C123.318 119.408 122.627 119.836 121.98 120.324C121.342 120.823 120.753 121.381 120.222 121.992C119.791 122.494 119.407 123.034 119.076 123.606C118.926 123.84 118.818 124.074 118.716 124.272C118.628 124.442 118.55 124.616 118.482 124.794C118.413 124.942 118.361 125.097 118.326 125.256C118.368 125.256 118.62 124.656 119.214 123.69C119.558 123.139 119.947 122.617 120.378 122.13C120.909 121.538 121.491 120.994 122.118 120.504C122.779 119.973 123.481 119.495 124.218 119.076C124.772 118.823 125.348 118.622 125.94 118.476C127.002 118.2 127.692 118.092 127.686 118.05Z" fill="#F96262"/>
<path d="M128.556 112.116C128.357 112.009 128.134 111.957 127.908 111.966C127.369 111.941 126.832 112.038 126.336 112.248C125.825 112.435 125.376 112.762 125.04 113.19C124.776 113.502 124.674 113.742 124.698 113.754C125.184 113.213 125.771 112.773 126.426 112.458C127.106 112.204 127.83 112.088 128.556 112.116Z" fill="#F96262"/>
<path d="M181.8 93.312C181.8 93.312 196.434 94.716 201.078 107.43C204.762 117.522 206.766 147.75 205.842 148.368L180 147.54C179.664 140.172 177.678 134.484 174.894 130.806L181.8 93.312Z" fill="#455A64"/>
<path d="M180.384 147.54C180.566 147.61 180.738 147.705 180.894 147.822C181.206 148.02 181.656 148.326 182.19 148.722C183.583 149.76 184.897 150.901 186.12 152.136C187.345 153.367 188.489 154.676 189.546 156.054C189.948 156.582 190.26 157.02 190.47 157.332C190.591 157.484 190.69 157.651 190.764 157.83C190.27 157.31 189.805 156.763 189.372 156.192C188.52 155.172 187.326 153.792 185.898 152.352C184.681 151.13 183.397 149.976 182.052 148.896C181.02 148.068 180.36 147.6 180.384 147.54Z" fill="#F96262"/>
<path d="M177.306 116.442C177.39 116.442 176.916 119.688 176.25 123.642C175.584 127.596 174.966 130.8 174.882 130.8C174.798 130.8 175.272 127.56 175.938 123.6C176.604 119.64 177.222 116.43 177.306 116.442Z" fill="#263238"/>
<path d="M144.792 207.108C144.931 207.07 145.074 207.048 145.218 207.042L146.454 206.916L151.002 206.484C154.836 206.118 160.128 205.566 165.966 204.828C171.804 204.09 177.066 203.304 180.87 202.71L185.382 201.99L186.582 201.804C186.724 201.777 186.869 201.763 187.014 201.762C186.878 201.812 186.737 201.848 186.594 201.87L185.394 202.11C184.338 202.32 182.802 202.596 180.9 202.926C177.102 203.58 171.834 204.396 165.996 205.14C160.158 205.884 154.854 206.394 150.996 206.706C149.076 206.862 147.516 206.976 146.442 207.036L145.2 207.102C145.064 207.112 144.928 207.114 144.792 207.108Z" fill="#263238"/>
<path d="M142.506 203.244C142.859 203.184 143.216 203.152 143.574 203.148L146.478 202.992L156.078 202.5L165.678 201.948L168.582 201.78C168.937 201.752 169.294 201.752 169.65 201.78C169.303 201.858 168.949 201.906 168.594 201.924C167.91 201.99 166.92 202.08 165.696 202.182C163.242 202.386 159.852 202.626 156.096 202.83C152.34 203.034 148.956 203.166 146.496 203.232C145.296 203.262 144.276 203.28 143.586 203.286C143.225 203.298 142.864 203.284 142.506 203.244Z" fill="#263238"/>
<path d="M101.358 148.536C101.448 148.168 101.607 147.819 101.826 147.51C102.109 147.088 102.494 146.745 102.945 146.51C103.395 146.276 103.898 146.159 104.406 146.17C104.913 146.181 105.41 146.319 105.851 146.572C106.291 146.825 106.661 147.185 106.926 147.618C106.927 147.206 107.064 146.807 107.316 146.481C107.568 146.156 107.92 145.923 108.318 145.818C108.68 145.732 109.058 145.743 109.415 145.848C109.771 145.953 110.095 146.15 110.352 146.418C110.885 146.856 111.255 147.46 111.402 148.134C112.032 146.718 115.266 146.892 115.662 147.954C115.662 147.954 118.446 144.906 119.862 146.406C120.462 147.006 120.204 147.984 119.808 148.938C119.286 150.216 118.944 150.738 118.26 152.16L115.62 152.298C115.398 153.126 114.93 156.498 114.834 157.332C114.776 158.187 114.53 159.019 114.114 159.768C113.902 160.14 113.599 160.452 113.234 160.675C112.869 160.899 112.454 161.026 112.026 161.046C111.598 161.046 111.187 160.88 110.88 160.582C110.573 160.284 110.394 159.878 110.382 159.45C110.231 160.166 109.884 160.827 109.38 161.358C109.125 161.617 108.809 161.807 108.461 161.912C108.112 162.017 107.744 162.033 107.388 161.958C107.034 161.867 106.725 161.651 106.519 161.35C106.312 161.049 106.223 160.683 106.266 160.32C105.33 160.974 103.938 160.392 103.344 159.42C102.75 158.448 102.744 157.23 102.744 156.09C102.87 155.046 102.776 153.987 102.468 152.982C102.388 152.84 102.32 152.691 102.264 152.538C102.234 152.289 102.222 152.039 102.228 151.788C102.195 151.256 102.088 150.731 101.91 150.228C101.868 150.114 101.826 150.006 101.778 149.898C101.652 149.616 101.46 149.376 101.316 149.106C101.283 149.049 101.26 148.986 101.25 148.92C101.264 148.787 101.3 148.657 101.358 148.536Z" fill="#FFBF9D"/>
<path d="M98.3998 147.072C98.0491 147.034 97.6943 147.072 97.3598 147.184C97.0252 147.296 96.7189 147.479 96.4618 147.72C95.9038 148.32 95.7718 149.832 95.8618 150.666C96.8398 150.852 97.3618 150.636 98.3338 150.816C98.5438 150.858 98.7118 150.816 98.8858 150.924C99.3358 151.248 99.2638 152.322 99.4438 152.844C99.6337 153.285 99.9855 153.635 100.426 153.824C100.867 154.013 101.364 154.025 101.814 153.858C102.257 153.67 102.636 153.359 102.906 152.961C103.177 152.563 103.326 152.095 103.338 151.614C103.348 150.645 102.995 149.707 102.348 148.986C101.858 148.411 101.254 147.944 100.575 147.615C99.8952 147.285 99.1545 147.1 98.3998 147.072Z" fill="#FFBF9D"/>
<path d="M115.026 155.946C114.924 155.946 115.326 154.146 115.584 151.914C115.696 150.968 115.73 150.015 115.686 149.064C115.636 148.666 115.612 148.265 115.614 147.864C115.791 148.24 115.891 148.648 115.908 149.064C116.022 150.031 116.022 151.007 115.908 151.974C115.802 152.934 115.634 153.886 115.404 154.824C115.333 155.214 115.206 155.592 115.026 155.946Z" fill="#F96262"/>
<path d="M110.268 159.786C110.311 159.212 110.399 158.642 110.532 158.082C110.718 157.038 110.988 155.598 111.192 153.996C111.374 152.628 111.458 151.248 111.444 149.868C111.444 148.812 111.354 148.158 111.402 148.152C111.57 148.707 111.659 149.283 111.666 149.862C111.746 151.264 111.69 152.671 111.498 154.062C111.321 155.44 111.07 156.808 110.748 158.16C110.642 158.717 110.481 159.261 110.268 159.786Z" fill="#F96262"/>
<path d="M106.242 160.476C106.316 159.838 106.427 159.205 106.572 158.58C106.845 157.06 107.028 155.525 107.118 153.984C107.198 152.443 107.184 150.898 107.076 149.358C106.999 148.721 106.959 148.08 106.956 147.438C107.024 147.599 107.069 147.768 107.088 147.942C107.154 148.266 107.226 148.746 107.298 149.34C107.469 150.888 107.513 152.447 107.43 154.002C107.345 155.557 107.13 157.103 106.788 158.622C106.656 159.222 106.53 159.672 106.428 159.99C106.396 160.162 106.333 160.326 106.242 160.476Z" fill="#F96262"/>
<path d="M100.938 148.722C101.245 148.785 101.529 148.93 101.76 149.142C102.36 149.609 102.821 150.232 103.092 150.942C103.385 151.645 103.448 152.422 103.272 153.162C103.098 153.762 102.732 153.942 102.72 153.906C102.869 153.657 102.982 153.389 103.056 153.108C103.159 152.414 103.071 151.705 102.804 151.056C102.539 150.397 102.129 149.806 101.604 149.328C101.22 148.938 100.914 148.8 100.938 148.722Z" fill="#F96262"/>
</svg>
