<svg width="35" height="36" viewBox="0 0 35 36" fill="none" xmlns="http://www.w3.org/2000/svg">
<rect y="0.5" width="35" height="35" rx="12" fill="#C1EEFF"/>
<path d="M8.5 12C8.5 10.3431 9.84315 9 11.5 9H18C19.6569 9 21 10.3431 21 12V24C21 25.6569 19.6569 27 18 27H11.5C9.84315 27 8.5 25.6569 8.5 24V12Z" fill="#6283F9"/>
<path fill-rule="evenodd" clip-rule="evenodd" d="M10.5 16.25C10.5 15.8358 10.8358 15.5 11.25 15.5H15.75C16.1642 15.5 16.5 15.8358 16.5 16.25C16.5 16.6642 16.1642 17 15.75 17H11.25C10.8358 17 10.5 16.6642 10.5 16.25Z" fill="white"/>
<path fill-rule="evenodd" clip-rule="evenodd" d="M10.5 19.75C10.5 19.3358 10.8358 19 11.25 19H17.75C18.1642 19 18.5 19.3358 18.5 19.75C18.5 20.1642 18.1642 20.5 17.75 20.5H11.25C10.8358 20.5 10.5 20.1642 10.5 19.75Z" fill="white"/>
<path d="M23 10.5C23 9.94772 23.4477 9.5 24 9.5H25.5C26.0523 9.5 26.5 9.94772 26.5 10.5V24.1848C26.5 24.3899 26.4369 24.5902 26.3192 24.7582L25.2415 26.2978C25.0027 26.639 24.4973 26.639 24.2585 26.2978L23.1808 24.7582C23.0631 24.5902 23 24.3899 23 24.1848V10.5Z" fill="white"/>
</svg>
