<svg width="60" height="60" viewBox="0 0 60 60" fill="none" xmlns="http://www.w3.org/2000/svg">
<rect width="60" height="60" rx="30" fill="url(#paint0_linear_3774_11218)"/>
<path d="M39.7555 38.6065L36.3182 35.2458L36.2376 35.1233C36.0878 34.9742 35.883 34.8902 35.6692 34.8902C35.4554 34.8902 35.2505 34.9742 35.1007 35.1233C32.1795 37.8033 27.6781 37.949 24.582 35.4637C21.4859 32.9784 20.7557 28.6334 22.8757 25.3102C24.9957 21.987 29.3081 20.7168 32.9528 22.3421C36.5976 23.9674 38.4438 27.9838 37.267 31.7276C37.1823 31.9981 37.2515 32.2922 37.4487 32.4992C37.6459 32.7062 37.9411 32.7946 38.223 32.7311C38.505 32.6676 38.7309 32.4619 38.8156 32.1914C40.2224 27.7486 38.0977 22.9676 33.8161 20.9411C29.5345 18.9146 24.3808 20.2508 21.6891 24.0854C18.9973 27.92 19.5752 33.1021 23.0489 36.2795C26.5227 39.4569 31.8498 39.6759 35.5841 36.7949L38.6277 39.7705C38.942 40.0765 39.4502 40.0765 39.7645 39.7705C40.0785 39.4602 40.0785 38.9606 39.7645 38.6503L39.7555 38.6065Z" fill="white"/>
<defs>
<linearGradient id="paint0_linear_3774_11218" x1="7.80496" y1="65.8579" x2="7.55463" y2="-0.546523" gradientUnits="userSpaceOnUse">
<stop stop-color="#E94531"/>
<stop offset="1" stop-color="#F09185"/>
</linearGradient>
</defs>
</svg>
