<svg width="35" height="35" viewBox="0 0 35 35" fill="none" xmlns="http://www.w3.org/2000/svg">
<path d="M0 17.5C0 3.5 3.5 0 17.5 0C31.5 0 35 3.5 35 17.5C35 31.5 31.5 35 17.5 35C3.5 35 0 31.5 0 17.5Z" fill="#FFC8C8"/>
<path fill-rule="evenodd" clip-rule="evenodd" d="M9.33266 17.961C8.37245 14.9631 9.4955 11.236 12.6428 10.223C14.2983 9.68871 16.3414 10.1344 17.502 11.7353C18.5965 10.0753 20.6985 9.69229 22.3523 10.223C25.4986 11.236 26.628 14.9631 25.6687 17.961C24.1742 22.7128 18.9598 25.188 17.502 25.188C16.0452 25.188 10.8772 22.7683 9.33266 17.961Z" fill="#F96262" stroke="#F96262" stroke-width="1.5" stroke-linecap="round" stroke-linejoin="round"/>
<path d="M20.8462 13.5918C21.9263 13.7028 22.602 14.5592 22.5617 15.7592" stroke="#FFC8C8" stroke-width="1.5" stroke-linecap="round" stroke-linejoin="round"/>
</svg>
