<svg width="28" height="30" viewBox="0 0 28 30" fill="none" xmlns="http://www.w3.org/2000/svg">
<path d="M5.96266 24.6293C5.98766 24.5859 6.01327 24.5427 6.03949 24.4996C7.95171 21.3622 9.05869 17.6519 9.05869 13.6568C9.05869 10.4379 11.587 7.82841 14.7058 7.82841C17.8245 7.82841 20.3528 10.4379 20.3528 13.6568C20.3528 15.1388 20.2551 16.5981 20.0658 18.0281M17.0765 28C17.9401 26.2209 18.6481 24.3474 19.1822 22.3994M24.6019 24.0488C25.5125 20.7466 26 17.2605 26 13.6568C26 7.21894 20.9435 2 14.7059 2C12.6487 2 10.72 2.56765 9.05882 3.55948M2 20.0158C2.90446 18.0942 3.41176 15.9367 3.41176 13.6568C3.41176 11.5336 3.96176 9.54298 4.92272 7.82841M14.7057 13.6568C14.7057 18.7818 13.2815 23.5634 10.8194 27.6031" stroke="#F96262" stroke-width="2.5" stroke-linecap="round" stroke-linejoin="round"/>
</svg>
