<svg width="40" height="40" viewBox="0 0 40 40" fill="none" xmlns="http://www.w3.org/2000/svg">
<rect width="40" height="40" rx="20" fill="#F96262" fill-opacity="0.2"/>
<path d="M27 11L22 16M27 11H23M27 11V15M19 24V30M16 27H22M15 19C15 20.0609 15.4214 21.0783 16.1716 21.8284C16.9217 22.5786 17.9391 23 19 23C20.0609 23 21.0783 22.5786 21.8284 21.8284C22.5786 21.0783 23 20.0609 23 19C23 17.9391 22.5786 16.9217 21.8284 16.1716C21.0783 15.4214 20.0609 15 19 15C17.9391 15 16.9217 15.4214 16.1716 16.1716C15.4214 16.9217 15 17.9391 15 19Z" stroke="#F96262" stroke-width="2" stroke-linecap="round" stroke-linejoin="round"/>
</svg>
