<svg width="27" height="42" viewBox="0 0 27 42" fill="none" xmlns="http://www.w3.org/2000/svg">
<defs>
<linearGradient id="paint0_linear_1312_66923" x1="5.41122" y1="14.2706" x2="20.8098" y2="14.2706" gradientUnits="userSpaceOnUse">
<stop stop-color="#F78614"/>
<stop offset="1" stop-color="#FFBE06"/>
</linearGradient>
<linearGradient id="paint1_linear_1312_66923" x1="19.3038" y1="34.1961" x2="5.61331" y2="20.5056" gradientUnits="userSpaceOnUse">
<stop stop-color="#F78614"/>
<stop offset="1" stop-color="#FFBE06"/>
</linearGradient>
<linearGradient id="paint2_linear_1312_66923" x1="5.96921" y1="20.8617" x2="22.5384" y2="37.4309" gradientUnits="userSpaceOnUse">
<stop stop-color="#F78614"/>
<stop offset="1" stop-color="#FFBE06"/>
</linearGradient>
<linearGradient id="paint3_linear_1312_66923" x1="25.9594" y1="40.8517" x2="0.397018" y2="15.2893" gradientUnits="userSpaceOnUse">
<stop stop-color="#F78614"/>
<stop offset="1" stop-color="#FFBE06"/>
</linearGradient>
<linearGradient id="paint4_linear_1312_66923" x1="16.0681" y1="6.8013" x2="13.618" y2="7.9913" gradientUnits="userSpaceOnUse">
<stop stop-color="white"/>
<stop offset="1" stop-color="#121E3D"/>
</linearGradient>
</defs>
<path d="M7.90002 18.0999V15.3999C7.90002 13.9999 9.00002 12.8999 10.4 12.8999H15.8C17.2 12.8999 18.3 13.9999 18.3 15.3999V18.1999H20.8V15.3999C20.8 12.5999 18.6 10.3999 15.8 10.3999H10.4C7.60002 10.3999 5.40002 12.5999 5.40002 15.3999V18.1999H7.90002V18.0999Z" fill="url(#paint0_linear_1312_66923)"/>
<path d="M13.1 41.0999C20.3349 41.0999 26.2 35.2348 26.2 27.9999C26.2 20.765 20.3349 14.8999 13.1 14.8999C5.86508 14.8999 0 20.765 0 27.9999C0 35.2348 5.86508 41.0999 13.1 41.0999Z" fill="url(#paint1_linear_1312_66923)"/>
<path d="M13.1 40.4001C19.9483 40.4001 25.5 34.8484 25.5 28.0001C25.5 21.1518 19.9483 15.6001 13.1 15.6001C6.25168 15.6001 0.700012 21.1518 0.700012 28.0001C0.700012 34.8484 6.25168 40.4001 13.1 40.4001Z" fill="url(#paint2_linear_1312_66923)"/>
<path d="M13.1 38.5999C18.9542 38.5999 23.7 33.8541 23.7 27.9999C23.7 22.1457 18.9542 17.3999 13.1 17.3999C7.24579 17.3999 2.5 22.1457 2.5 27.9999C2.5 33.8541 7.24579 38.5999 13.1 38.5999Z" fill="url(#paint3_linear_1312_66923)"/>
<path d="M12.4074 34V24.752H10.9994L11.5274 22.8H14.3594V34H12.4074Z" fill="#1F1F1F"/>
<path opacity="0.45" d="M3.20001 28.6999C3.20001 22.8999 7.9 18.0999 13.8 18.0999C16.5 18.0999 19 19.1999 20.9 20.8999C19 18.7999 16.2 17.3999 13.1 17.3999C7.30001 17.3999 2.5 22.0999 2.5 27.9999C2.5 31.0999 3.8 33.8999 6 35.7999C4.3 33.8999 3.20001 31.3999 3.20001 28.6999Z" fill="white"/>
<path opacity="0.67" d="M19.8 19.7998C21.3 21.5998 22.7 24.4998 22.7 26.9998C22.7 32.7998 18 37.5998 12.1 37.5998C9.60002 37.5998 6.70002 36.1998 4.90002 34.6998C6.80002 37.0998 9.80002 38.5998 13.1 38.5998C18.9 38.5998 23.7 33.8998 23.7 27.9998C23.7 24.6998 22.2 21.7998 19.8 19.7998Z" fill="#F44B16"/>
<path d="M14.5 0.100098L9.79999 12.9001C9.59999 13.6001 9.99999 14.3001 10.8 14.3001H11.8L17 0.200104H14.5V0.100098Z" fill="#28AFDF"/>
<path d="M16.9999 0.100098L11.7 14.2001H14.2L19.3999 0.100098H16.9999Z" fill="white"/>
<path d="M19.3999 0.100098L15.3999 10.9001L14.2 14.2001H15.8999C16.0999 14.2001 16.3999 14.1001 16.4999 14.0001C16.5999 13.9001 16.6999 13.7001 16.7999 13.6001L21.7999 0.100098H19.3999Z" fill="#F96262"/>
<path opacity="0.69" d="M18.2 10L16.9 13.5C16.8 13.7 16.7 13.8 16.6 13.9C16.4 14.1 16.2 14.1 16 14.1H10.8C10.1 14.1 9.59999 13.4 9.79999 12.7L14.5 0L18.2 10Z" fill="url(#paint4_linear_1312_66923)"/>
<path d="M11.4 0.100098H9L14.2 14.2001H15.9C16.1 14.2001 16.4 14.1001 16.5 14.0001L15.4 10.9001L11.4 0.100098Z" fill="#28AFDF"/>
<path d="M6.5 0.100098L11.8 14.2001H14.2L9 0.100098H6.5Z" fill="white"/>
<path d="M4.09998 0.100098L9.09998 13.6001C9.19998 14.0001 9.59998 14.3001 10.1 14.3001H11.8L6.59998 0.200104H4.09998V0.100098Z" fill="#F96262"/>
</svg>
