<svg width="414" height="338" viewBox="0 0 414 338" fill="none" xmlns="http://www.w3.org/2000/svg">
<defs>
<filter id="filter0_f_1674_9095" x="82.135" y="128.039" width="270.117" height="243.578" filterUnits="userSpaceOnUse" color-interpolation-filters="sRGB">
<feFlood flood-opacity="0" result="BackgroundImageFix"/>
<feBlend mode="normal" in="SourceGraphic" in2="BackgroundImageFix" result="shape"/>
<feGaussianBlur stdDeviation="36" result="effect1_foregroundBlur_1674_9095"/>
</filter>
<filter id="filter1_di_1674_9095" x="151.077" y="211.902" width="134.042" height="83.0195" filterUnits="userSpaceOnUse" color-interpolation-filters="sRGB">
<feFlood flood-opacity="0" result="BackgroundImageFix"/>
<feColorMatrix in="SourceAlpha" type="matrix" values="0 0 0 0 0 0 0 0 0 0 0 0 0 0 0 0 0 0 127 0" result="hardAlpha"/>
<feOffset dx="8" dy="8"/>
<feGaussianBlur stdDeviation="8"/>
<feColorMatrix type="matrix" values="0 0 0 0 1 0 0 0 0 0.87451 0 0 0 0 0.423529 0 0 0 1 0"/>
<feBlend mode="normal" in2="BackgroundImageFix" result="effect1_dropShadow_1674_9095"/>
<feBlend mode="normal" in="SourceGraphic" in2="effect1_dropShadow_1674_9095" result="shape"/>
<feColorMatrix in="SourceAlpha" type="matrix" values="0 0 0 0 0 0 0 0 0 0 0 0 0 0 0 0 0 0 127 0" result="hardAlpha"/>
<feOffset dx="16" dy="16"/>
<feGaussianBlur stdDeviation="16"/>
<feComposite in2="hardAlpha" operator="arithmetic" k2="-1" k3="1"/>
<feColorMatrix type="matrix" values="0 0 0 0 0 0 0 0 0 0 0 0 0 0 0 0 0 0 0.25 0"/>
<feBlend mode="normal" in2="shape" result="effect2_innerShadow_1674_9095"/>
</filter>
<filter id="filter2_i_1674_9095" x="175.463" y="239.035" width="69.2705" height="39.8867" filterUnits="userSpaceOnUse" color-interpolation-filters="sRGB">
<feFlood flood-opacity="0" result="BackgroundImageFix"/>
<feBlend mode="normal" in="SourceGraphic" in2="BackgroundImageFix" result="shape"/>
<feColorMatrix in="SourceAlpha" type="matrix" values="0 0 0 0 0 0 0 0 0 0 0 0 0 0 0 0 0 0 127 0" result="hardAlpha"/>
<feOffset dy="8"/>
<feGaussianBlur stdDeviation="8"/>
<feComposite in2="hardAlpha" operator="arithmetic" k2="-1" k3="1"/>
<feColorMatrix type="matrix" values="0 0 0 0 0.51276 0 0 0 0 0.0415645 0 0 0 0 0.0415645 0 0 0 0.4 0"/>
<feBlend mode="normal" in2="shape" result="effect1_innerShadow_1674_9095"/>
</filter>
<filter id="filter3_d_1674_9095" x="129.85" y="147.289" width="87.7112" height="85.5078" filterUnits="userSpaceOnUse" color-interpolation-filters="sRGB">
<feFlood flood-opacity="0" result="BackgroundImageFix"/>
<feColorMatrix in="SourceAlpha" type="matrix" values="0 0 0 0 0 0 0 0 0 0 0 0 0 0 0 0 0 0 127 0" result="hardAlpha"/>
<feOffset dy="16"/>
<feGaussianBlur stdDeviation="8"/>
<feComposite in2="hardAlpha" operator="out"/>
<feColorMatrix type="matrix" values="0 0 0 0 0.68776 0 0 0 0 0.0242277 0 0 0 0 0.501971 0 0 0 0.4 0"/>
<feBlend mode="normal" in2="BackgroundImageFix" result="effect1_dropShadow_1674_9095"/>
<feBlend mode="normal" in="SourceGraphic" in2="effect1_dropShadow_1674_9095" result="shape"/>
</filter>
<filter id="filter4_d_1674_9095" x="202.636" y="147.289" width="87.7112" height="85.5078" filterUnits="userSpaceOnUse" color-interpolation-filters="sRGB">
<feFlood flood-opacity="0" result="BackgroundImageFix"/>
<feColorMatrix in="SourceAlpha" type="matrix" values="0 0 0 0 0 0 0 0 0 0 0 0 0 0 0 0 0 0 127 0" result="hardAlpha"/>
<feOffset dy="16"/>
<feGaussianBlur stdDeviation="8"/>
<feComposite in2="hardAlpha" operator="out"/>
<feColorMatrix type="matrix" values="0 0 0 0 0.68776 0 0 0 0 0.0242277 0 0 0 0 0.501971 0 0 0 0.4 0"/>
<feBlend mode="normal" in2="BackgroundImageFix" result="effect1_dropShadow_1674_9095"/>
<feBlend mode="normal" in="SourceGraphic" in2="effect1_dropShadow_1674_9095" result="shape"/>
</filter>
<filter id="filter5_d_1674_9095" x="-126.535" y="36.0352" width="307.347" height="296.461" filterUnits="userSpaceOnUse" color-interpolation-filters="sRGB">
<feFlood flood-opacity="0" result="BackgroundImageFix"/>
<feColorMatrix in="SourceAlpha" type="matrix" values="0 0 0 0 0 0 0 0 0 0 0 0 0 0 0 0 0 0 127 0" result="hardAlpha"/>
<feOffset dy="16"/>
<feGaussianBlur stdDeviation="8"/>
<feComposite in2="hardAlpha" operator="out"/>
<feColorMatrix type="matrix" values="0 0 0 0 0.68776 0 0 0 0 0.0242277 0 0 0 0 0.501971 0 0 0 0.4 0"/>
<feBlend mode="normal" in2="BackgroundImageFix" result="effect1_dropShadow_1674_9095"/>
<feBlend mode="normal" in="SourceGraphic" in2="effect1_dropShadow_1674_9095" result="shape"/>
</filter>
<filter id="filter6_d_1674_9095" x="233.206" y="36.0352" width="307.347" height="296.461" filterUnits="userSpaceOnUse" color-interpolation-filters="sRGB">
<feFlood flood-opacity="0" result="BackgroundImageFix"/>
<feColorMatrix in="SourceAlpha" type="matrix" values="0 0 0 0 0 0 0 0 0 0 0 0 0 0 0 0 0 0 127 0" result="hardAlpha"/>
<feOffset dy="16"/>
<feGaussianBlur stdDeviation="8"/>
<feComposite in2="hardAlpha" operator="out"/>
<feColorMatrix type="matrix" values="0 0 0 0 0.68776 0 0 0 0 0.0242277 0 0 0 0 0.501971 0 0 0 0.4 0"/>
<feBlend mode="normal" in2="BackgroundImageFix" result="effect1_dropShadow_1674_9095"/>
<feBlend mode="normal" in="SourceGraphic" in2="effect1_dropShadow_1674_9095" result="shape"/>
</filter>
<radialGradient id="paint0_radial_1674_9095" cx="0" cy="0" r="1" gradientUnits="userSpaceOnUse" gradientTransform="translate(127.189 218.304) rotate(61.3895) scale(19.9779)">
<stop stop-color="#FFCE21"/>
<stop offset="1" stop-color="#F2911E"/>
</radialGradient>
<radialGradient id="paint1_radial_1674_9095" cx="0" cy="0" r="1" gradientUnits="userSpaceOnUse" gradientTransform="translate(3.18882 7.97204) rotate(61.3895) scale(19.9779 19.9779)">
<stop stop-color="#FFCE21"/>
<stop offset="1" stop-color="#F2911E"/>
</radialGradient>
<radialGradient id="paint2_radial_1674_9095" cx="0" cy="0" r="1" gradientUnits="userSpaceOnUse" gradientTransform="translate(182.993 172.066) rotate(78.559) scale(136.645)">
<stop stop-color="#FFEA9F"/>
<stop offset="0.122763" stop-color="#FFE380"/>
<stop offset="0.415997" stop-color="#FFD250"/>
<stop offset="0.643669" stop-color="#FFC122"/>
<stop offset="1" stop-color="#FFB422"/>
</radialGradient>
<radialGradient id="paint3_radial_1674_9095" cx="0" cy="0" r="1" gradientUnits="userSpaceOnUse" gradientTransform="translate(182.993 172.066) rotate(78.559) scale(136.645)">
<stop offset="0.557292" stop-color="#E35D12" stop-opacity="0"/>
<stop offset="1" stop-color="#FF24F6" stop-opacity="0.3"/>
</radialGradient>
<linearGradient id="paint4_linear_1674_9095" x1="210.098" y1="219.902" x2="210.098" y2="270.923" gradientUnits="userSpaceOnUse">
<stop stop-color="#60310F"/>
<stop offset="0.450755" stop-color="#7D3807"/>
</linearGradient>
<linearGradient id="paint5_linear_1674_9095" x1="210.098" y1="239.035" x2="210.098" y2="270.923" gradientUnits="userSpaceOnUse">
<stop stop-color="#F04343"/>
<stop offset="0.231992" stop-color="#EF4343"/>
<stop offset="0.377834" stop-color="#E13737"/>
<stop offset="1" stop-color="#C72121"/>
</linearGradient>
<linearGradient id="paint6_linear_1674_9095" x1="168.419" y1="147.428" x2="181.624" y2="196.71" gradientUnits="userSpaceOnUse">
<stop stop-color="#FF8F8F"/>
<stop offset="1" stop-color="#F96868"/>
</linearGradient>
<linearGradient id="paint7_linear_1674_9095" x1="251.779" y1="147.428" x2="238.573" y2="196.71" gradientUnits="userSpaceOnUse">
<stop stop-color="#FF8F8F"/>
<stop offset="1" stop-color="#F96262"/>
</linearGradient>
<linearGradient id="paint8_linear_1674_9095" x1="1.01086" y1="36.7138" x2="66.2766" y2="280.289" gradientUnits="userSpaceOnUse">
<stop stop-color="#FF8F8F"/>
<stop offset="1" stop-color="#F96868"/>
</linearGradient>
<linearGradient id="paint9_linear_1674_9095" x1="413.008" y1="36.7138" x2="347.742" y2="280.289" gradientUnits="userSpaceOnUse">
<stop stop-color="#FF8F8F"/>
<stop offset="1" stop-color="#F96262"/>
</linearGradient>
<clipPath id="clip0_1674_9095">
<rect width="414" height="338" fill="white"/>
</clipPath>
</defs>
<g clip-path="url(#clip0_1674_9095)">
<rect width="414" height="338" fill="white"/>
<circle cx="136.755" cy="223.087" r="12.7553" fill="url(#paint0_radial_1674_9095)"/>
<ellipse cx="12.7553" cy="12.7553" rx="12.7553" ry="12.7553" transform="matrix(-1 0 0 1 296.196 210.332)" fill="url(#paint1_radial_1674_9095)"/>
<circle cx="210.098" cy="229.465" r="76.5316" fill="url(#paint2_radial_1674_9095)"/>
<circle cx="210.098" cy="229.465" r="76.5316" fill="url(#paint3_radial_1674_9095)"/>
<g filter="url(#filter0_f_1674_9095)">
<path d="M205.315 293.241C244.941 293.241 277.064 261.118 277.064 221.492C277.064 214.019 275.921 206.813 273.801 200.039C277.942 208.988 280.252 218.956 280.252 229.464C280.252 268.209 248.843 299.618 210.098 299.618C187.245 299.618 166.944 288.69 154.135 271.775C167.153 285.024 185.274 293.241 205.315 293.241Z" fill="#C1092A" fill-opacity="0.6"/>
</g>
<g filter="url(#filter1_di_1674_9095)">
<path d="M210.098 270.923C235.476 270.923 256.586 252.904 260.991 229.132C261.925 224.092 257.624 219.902 252.428 219.902H167.767C162.572 219.902 158.271 224.092 159.205 229.132C163.61 252.904 184.72 270.923 210.098 270.923Z" fill="url(#paint4_linear_1674_9095)"/>
</g>
<g filter="url(#filter2_i_1674_9095)">
<path d="M244.734 257.805C235.563 265.959 223.419 270.923 210.099 270.923C196.778 270.923 184.633 265.959 175.463 257.804C178.137 247.165 192.626 239.035 210.098 239.035C227.571 239.035 242.06 247.165 244.734 257.805Z" fill="url(#paint5_linear_1674_9095)"/>
</g>
<g filter="url(#filter3_d_1674_9095)">
<path d="M172.746 149.013C171.791 147.624 170.057 146.989 168.419 147.428C166.781 147.866 165.597 149.284 165.464 150.964L162.365 163.432L148.817 169.716C147.118 170.172 145.915 171.677 145.853 173.424C145.791 175.171 146.885 176.749 148.548 177.311L161.712 184.154L161.868 196.53C161.733 198.236 162.712 199.832 164.298 200.492C165.883 201.151 167.719 200.726 168.853 199.436L179.202 187.669L194.047 192.685C195.675 193.235 197.477 192.686 198.52 191.322C199.564 189.958 199.613 188.086 198.644 186.676L192.591 175.88L200.57 163.371C201.729 162.053 201.888 160.14 200.961 158.658C200.033 157.176 198.239 156.474 196.54 156.929L181.664 158.261L172.746 149.013Z" fill="url(#paint6_linear_1674_9095)"/>
</g>
<g filter="url(#filter4_d_1674_9095)">
<path d="M247.451 149.013C248.406 147.624 250.141 146.989 251.779 147.428C253.416 147.866 254.601 149.284 254.733 150.964L257.833 163.432L271.381 169.716C273.08 170.172 274.283 171.677 274.345 173.424C274.407 175.171 273.313 176.749 271.65 177.311L258.486 184.154L258.33 196.53C258.464 198.236 257.485 199.832 255.9 200.492C254.315 201.151 252.479 200.726 251.345 199.436L240.996 187.669L226.15 192.685C224.523 193.235 222.721 192.686 221.677 191.322C220.634 189.958 220.584 188.086 221.554 186.676L227.607 175.88L219.628 163.371C218.469 162.053 218.31 160.14 219.237 158.658C220.164 157.176 221.959 156.474 223.658 156.929L238.533 158.261L247.451 149.013Z" fill="url(#paint7_linear_1674_9095)"/>
</g>
<g opacity="0.15" filter="url(#filter5_d_1674_9095)">
<path d="M22.3973 44.5497C17.6777 37.6859 9.10512 34.545 1.01086 36.7138C-7.08339 38.8827 -12.937 45.8891 -13.5924 54.1931L-28.9121 115.816L-95.8709 146.875C-104.268 149.125 -110.216 156.564 -110.522 165.198C-110.829 173.833 -105.421 181.632 -97.2024 184.409L-32.1407 218.229L-31.3677 279.399C-32.0332 287.83 -27.1945 295.719 -19.3587 298.979C-11.5229 302.238 -2.45134 300.135 3.15566 293.76L54.3028 235.602L127.676 260.395C135.72 263.112 144.628 260.398 149.784 253.657C154.94 246.917 155.186 237.665 150.394 230.696L120.476 177.335L159.914 115.515C165.643 109.001 166.426 99.5425 161.844 92.2181C157.261 84.8936 148.391 81.4254 139.994 83.6754L66.4735 90.2571L22.3973 44.5497Z" fill="url(#paint8_linear_1674_9095)"/>
</g>
<g opacity="0.15" filter="url(#filter6_d_1674_9095)">
<path d="M391.621 44.5497C396.341 37.6859 404.913 34.545 413.008 36.7138C421.102 38.8827 426.956 45.8891 427.611 54.1931L442.931 115.816L509.889 146.875C518.286 149.125 524.235 156.564 524.541 165.198C524.847 173.833 519.44 181.632 511.221 184.409L446.159 218.229L445.386 279.399C446.052 287.83 441.213 295.719 433.377 298.979C425.541 302.238 416.47 300.135 410.863 293.76L359.716 235.602L286.342 260.395C278.299 263.112 269.391 260.398 264.235 253.657C259.078 246.917 258.832 237.665 263.624 230.696L293.542 177.335L254.105 115.515C248.376 109.001 247.592 99.5425 252.175 92.2181C256.757 84.8936 265.628 81.4254 274.025 83.6754L347.545 90.257L391.621 44.5497Z" fill="url(#paint9_linear_1674_9095)"/>
</g>
</g>
</svg>
