<svg width="24" height="24" viewBox="0 0 24 24" fill="none" xmlns="http://www.w3.org/2000/svg">
<path d="M21.6488 19.8756C20.2209 17.4072 18.0206 15.6372 15.4528 14.7981C16.723 14.042 17.7098 12.8898 18.2618 11.5185C18.8137 10.1473 18.9003 8.63272 18.5082 7.20749C18.1161 5.78226 17.267 4.52515 16.0912 3.62921C14.9155 2.73327 13.4782 2.24805 12 2.24805C10.5218 2.24805 9.08451 2.73327 7.90878 3.62921C6.73306 4.52515 5.88394 5.78226 5.49183 7.20749C5.09971 8.63272 5.18629 10.1473 5.73825 11.5185C6.29021 12.8898 7.27704 14.042 8.5472 14.7981C5.97938 15.6362 3.77907 17.4062 2.35126 19.8756C2.2989 19.961 2.26417 20.056 2.24912 20.155C2.23407 20.254 2.239 20.355 2.26363 20.4521C2.28825 20.5492 2.33207 20.6404 2.3925 20.7202C2.45293 20.8001 2.52874 20.867 2.61547 20.9171C2.7022 20.9672 2.79808 20.9995 2.89745 21.0119C2.99683 21.0243 3.0977 21.0167 3.19409 20.9896C3.29049 20.9624 3.38047 20.9162 3.45872 20.8537C3.53697 20.7912 3.6019 20.7136 3.6497 20.6256C5.41595 17.5731 8.53782 15.7506 12 15.7506C15.4622 15.7506 18.5841 17.5731 20.3503 20.6256C20.3981 20.7136 20.4631 20.7912 20.5413 20.8537C20.6196 20.9162 20.7095 20.9624 20.8059 20.9896C20.9023 21.0167 21.0032 21.0243 21.1026 21.0119C21.2019 20.9995 21.2978 20.9672 21.3845 20.9171C21.4713 20.867 21.5471 20.8001 21.6075 20.7202C21.6679 20.6404 21.7118 20.5492 21.7364 20.4521C21.761 20.355 21.766 20.254 21.7509 20.155C21.7358 20.056 21.7011 19.961 21.6488 19.8756ZM6.75001 9.0006C6.75001 7.96225 7.05792 6.94721 7.63479 6.08385C8.21167 5.2205 9.03161 4.54759 9.99092 4.15023C10.9502 3.75287 12.0058 3.6489 13.0242 3.85147C14.0426 4.05405 14.9781 4.55406 15.7123 5.28829C16.4465 6.02251 16.9466 6.95797 17.1491 7.97637C17.3517 8.99477 17.2477 10.0504 16.8504 11.0097C16.453 11.969 15.7801 12.7889 14.9168 13.3658C14.0534 13.9427 13.0384 14.2506 12 14.2506C10.6081 14.2491 9.27359 13.6955 8.28934 12.7113C7.3051 11.727 6.7515 10.3925 6.75001 9.0006Z" fill="#1A212B"/>
</svg>
