<svg width="79" height="78" viewBox="0 0 79 78" fill="none" xmlns="http://www.w3.org/2000/svg">
<mask id="path-1-inside-1_926_10009" fill="white">
<path fill-rule="evenodd" clip-rule="evenodd" d="M8 0C8 4.25464 4.41828 7.7037 0 7.7037V70.2963C4.41828 70.2963 8 73.7454 8 78H69C74.5229 78 79 73.5229 79 68V10C79 4.47715 74.5229 0 69 0H8Z"/>
</mask>
<path fill-rule="evenodd" clip-rule="evenodd" d="M8 0C8 4.25464 4.41828 7.7037 0 7.7037V70.2963C4.41828 70.2963 8 73.7454 8 78H69C74.5229 78 79 73.5229 79 68V10C79 4.47715 74.5229 0 69 0H8Z" fill="white"/>
<path d="M0 7.7037V5.7037H-2V7.7037H0ZM8 0V-2H6V0H8ZM0 70.2963H-2V72.2963H0V70.2963ZM8 78H6V80H8V78ZM0 9.7037C5.45103 9.7037 10 5.42968 10 0H6C6 3.0796 3.38552 5.7037 0 5.7037V9.7037ZM2 70.2963V7.7037H-2V70.2963H2ZM0 72.2963C3.38552 72.2963 6 74.9204 6 78H10C10 72.5703 5.45103 68.2963 0 68.2963V72.2963ZM69 76H8V80H69V76ZM77 68C77 72.4183 73.4183 76 69 76V80C75.6274 80 81 74.6274 81 68H77ZM77 10V68H81V10H77ZM69 2C73.4183 2 77 5.58172 77 10H81C81 3.37258 75.6274 -2 69 -2V2ZM8 2H69V-2H8V2Z" fill="#E9E9EC" mask="url(#path-1-inside-1_926_10009)"/>
</svg>
