<svg width="182" height="78" viewBox="0 0 182 78" fill="none" xmlns="http://www.w3.org/2000/svg">
<mask id="path-1-inside-1_926_10005" fill="white">
<path fill-rule="evenodd" clip-rule="evenodd" d="M181 7.7037C181.339 7.7037 181.672 7.68344 182 7.6441V70.3559C181.672 70.3166 181.339 70.2963 181 70.2963C176.582 70.2963 173 73.7454 173 78H10C4.47715 78 0 73.5229 0 68V10C0 4.47715 4.47715 0 10 0H173C173 4.25464 176.582 7.7037 181 7.7037Z"/>
</mask>
<path fill-rule="evenodd" clip-rule="evenodd" d="M181 7.7037C181.339 7.7037 181.672 7.68344 182 7.6441V70.3559C181.672 70.3166 181.339 70.2963 181 70.2963C176.582 70.2963 173 73.7454 173 78H10C4.47715 78 0 73.5229 0 68V10C0 4.47715 4.47715 0 10 0H173C173 4.25464 176.582 7.7037 181 7.7037Z" fill="white"/>
<path d="M182 7.6441H184V5.38957L181.762 5.65837L182 7.6441ZM182 70.3559L181.762 72.3416L184 72.6104V70.3559H182ZM173 78V80H175V78H173ZM173 0H175V-2H173V0ZM181.762 5.65837C181.513 5.68822 181.259 5.7037 181 5.7037V9.7037C181.418 9.7037 181.832 9.67866 182.238 9.62984L181.762 5.65837ZM184 70.3559V7.6441H180V70.3559H184ZM181 72.2963C181.259 72.2963 181.513 72.3118 181.762 72.3416L182.238 68.3702C181.832 68.3213 181.418 68.2963 181 68.2963V72.2963ZM175 78C175 74.9204 177.614 72.2963 181 72.2963V68.2963C175.549 68.2963 171 72.5703 171 78H175ZM10 80H173V76H10V80ZM-2 68C-2 74.6274 3.37258 80 10 80V76C5.58172 76 2 72.4183 2 68H-2ZM-2 10V68H2V10H-2ZM10 -2C3.37258 -2 -2 3.37258 -2 10H2C2 5.58172 5.58172 2 10 2V-2ZM173 -2H10V2H173V-2ZM181 5.7037C177.614 5.7037 175 3.0796 175 0H171C171 5.42968 175.549 9.7037 181 9.7037V5.7037Z" fill="#E9E9EC" mask="url(#path-1-inside-1_926_10005)"/>
</svg>
