<svg width="36" height="30" viewBox="0 0 36 30" fill="none" xmlns="http://www.w3.org/2000/svg">
<defs>
<filter id="filter0_f_1674_9686" x="-62.2749" y="-60.5859" width="163.775" height="159.613" filterUnits="userSpaceOnUse" color-interpolation-filters="sRGB">
<feFlood flood-opacity="0" result="BackgroundImageFix"/>
<feBlend mode="normal" in="SourceGraphic" in2="BackgroundImageFix" result="shape"/>
<feGaussianBlur stdDeviation="36" result="effect1_foregroundBlur_1674_9686"/>
</filter>
<filter id="filter1_di_1674_9686" x="2.5" y="6.52734" width="48" height="40" filterUnits="userSpaceOnUse" color-interpolation-filters="sRGB">
<feFlood flood-opacity="0" result="BackgroundImageFix"/>
<feColorMatrix in="SourceAlpha" type="matrix" values="0 0 0 0 0 0 0 0 0 0 0 0 0 0 0 0 0 0 127 0" result="hardAlpha"/>
<feOffset dx="8" dy="8"/>
<feGaussianBlur stdDeviation="8"/>
<feColorMatrix type="matrix" values="0 0 0 0 1 0 0 0 0 0.87451 0 0 0 0 0.423529 0 0 0 1 0"/>
<feBlend mode="normal" in2="BackgroundImageFix" result="effect1_dropShadow_1674_9686"/>
<feBlend mode="normal" in="SourceGraphic" in2="effect1_dropShadow_1674_9686" result="shape"/>
<feColorMatrix in="SourceAlpha" type="matrix" values="0 0 0 0 0 0 0 0 0 0 0 0 0 0 0 0 0 0 127 0" result="hardAlpha"/>
<feOffset dx="16" dy="16"/>
<feGaussianBlur stdDeviation="16"/>
<feComposite in2="hardAlpha" operator="arithmetic" k2="-1" k3="1"/>
<feColorMatrix type="matrix" values="0 0 0 0 0 0 0 0 0 0 0 0 0 0 0 0 0 0 0.25 0"/>
<feBlend mode="normal" in2="shape" result="effect2_innerShadow_1674_9686"/>
</filter>
<filter id="filter2_i_1674_9686" x="13.0693" y="17.5273" width="10.8613" height="13" filterUnits="userSpaceOnUse" color-interpolation-filters="sRGB">
<feFlood flood-opacity="0" result="BackgroundImageFix"/>
<feBlend mode="normal" in="SourceGraphic" in2="BackgroundImageFix" result="shape"/>
<feColorMatrix in="SourceAlpha" type="matrix" values="0 0 0 0 0 0 0 0 0 0 0 0 0 0 0 0 0 0 127 0" result="hardAlpha"/>
<feOffset dy="8"/>
<feGaussianBlur stdDeviation="8"/>
<feComposite in2="hardAlpha" operator="arithmetic" k2="-1" k3="1"/>
<feColorMatrix type="matrix" values="0 0 0 0 0.51276 0 0 0 0 0.0415645 0 0 0 0 0.0415645 0 0 0 0.4 0"/>
<feBlend mode="normal" in2="shape" result="effect1_innerShadow_1674_9686"/>
</filter>
<filter id="filter3_d_1674_9686" x="-7.57373" y="3.14062" width="40.7354" height="40.3906" filterUnits="userSpaceOnUse" color-interpolation-filters="sRGB">
<feFlood flood-opacity="0" result="BackgroundImageFix"/>
<feColorMatrix in="SourceAlpha" type="matrix" values="0 0 0 0 0 0 0 0 0 0 0 0 0 0 0 0 0 0 127 0" result="hardAlpha"/>
<feOffset dy="16"/>
<feGaussianBlur stdDeviation="8"/>
<feComposite in2="hardAlpha" operator="out"/>
<feColorMatrix type="matrix" values="0 0 0 0 0.68776 0 0 0 0 0.0242277 0 0 0 0 0.501971 0 0 0 0.4 0"/>
<feBlend mode="normal" in2="BackgroundImageFix" result="effect1_dropShadow_1674_9686"/>
<feBlend mode="normal" in="SourceGraphic" in2="effect1_dropShadow_1674_9686" result="shape"/>
</filter>
<filter id="filter4_d_1674_9686" x="3.83838" y="3.14062" width="40.7354" height="40.3906" filterUnits="userSpaceOnUse" color-interpolation-filters="sRGB">
<feFlood flood-opacity="0" result="BackgroundImageFix"/>
<feColorMatrix in="SourceAlpha" type="matrix" values="0 0 0 0 0 0 0 0 0 0 0 0 0 0 0 0 0 0 127 0" result="hardAlpha"/>
<feOffset dy="16"/>
<feGaussianBlur stdDeviation="8"/>
<feComposite in2="hardAlpha" operator="out"/>
<feColorMatrix type="matrix" values="0 0 0 0 0.68776 0 0 0 0 0.0242277 0 0 0 0 0.501971 0 0 0 0.4 0"/>
<feBlend mode="normal" in2="BackgroundImageFix" result="effect1_dropShadow_1674_9686"/>
<feBlend mode="normal" in="SourceGraphic" in2="effect1_dropShadow_1674_9686" result="shape"/>
</filter>
<radialGradient id="paint0_radial_1674_9686" cx="0" cy="0" r="1" gradientUnits="userSpaceOnUse" gradientTransform="translate(5.5 14.2773) rotate(61.3895) scale(3.13249)">
<stop stop-color="#FFCE21"/>
<stop offset="1" stop-color="#F2911E"/>
</radialGradient>
<radialGradient id="paint1_radial_1674_9686" cx="0" cy="0" r="1" gradientUnits="userSpaceOnUse" gradientTransform="translate(0.5 1.25) rotate(61.3895) scale(3.13249)">
<stop stop-color="#FFCE21"/>
<stop offset="1" stop-color="#F2911E"/>
</radialGradient>
<radialGradient id="paint2_radial_1674_9686" cx="0" cy="0" r="1" gradientUnits="userSpaceOnUse" gradientTransform="translate(14.25 7.02734) rotate(78.559) scale(21.4257)">
<stop stop-color="#FFEA9F"/>
<stop offset="0.122763" stop-color="#FFE380"/>
<stop offset="0.415997" stop-color="#FFD250"/>
<stop offset="0.643669" stop-color="#FFC122"/>
<stop offset="1" stop-color="#FFB422"/>
</radialGradient>
<radialGradient id="paint3_radial_1674_9686" cx="0" cy="0" r="1" gradientUnits="userSpaceOnUse" gradientTransform="translate(14.25 7.02734) rotate(78.559) scale(21.4257)">
<stop offset="0.557292" stop-color="#E35D12" stop-opacity="0"/>
<stop offset="1" stop-color="#FF24F6" stop-opacity="0.3"/>
</radialGradient>
<linearGradient id="paint4_linear_1674_9686" x1="18.5" y1="14.5273" x2="18.5" y2="22.5273" gradientUnits="userSpaceOnUse">
<stop stop-color="#60310F"/>
<stop offset="0.450755" stop-color="#7D3807"/>
</linearGradient>
<linearGradient id="paint5_linear_1674_9686" x1="18.5001" y1="17.5273" x2="18.5001" y2="22.5273" gradientUnits="userSpaceOnUse">
<stop stop-color="#F04343"/>
<stop offset="0.231992" stop-color="#EF4343"/>
<stop offset="0.377834" stop-color="#E13737"/>
<stop offset="1" stop-color="#C72121"/>
</linearGradient>
<linearGradient id="paint6_linear_1674_9686" x1="11.9648" y1="3.16344" x2="14.0354" y2="10.8908" gradientUnits="userSpaceOnUse">
<stop stop-color="#FF8F8F"/>
<stop offset="1" stop-color="#F96868"/>
</linearGradient>
<linearGradient id="paint7_linear_1674_9686" x1="25.0352" y1="3.16344" x2="22.9646" y2="10.8908" gradientUnits="userSpaceOnUse">
<stop stop-color="#FF8F8F"/>
<stop offset="1" stop-color="#F96262"/>
</linearGradient>
</defs>
<circle cx="7" cy="15.0273" r="2" fill="url(#paint0_radial_1674_9686)"/>
<circle cx="2" cy="2" r="2" transform="matrix(-1 0 0 1 32 13.0273)" fill="url(#paint1_radial_1674_9686)"/>
<circle cx="18.5" cy="16.0273" r="12" fill="url(#paint2_radial_1674_9686)"/>
<circle cx="18.5" cy="16.0273" r="12" fill="url(#paint3_radial_1674_9686)"/>
<g filter="url(#filter0_f_1674_9686)">
<path d="M17.7501 26.0279C23.9633 26.0279 29.0001 20.9911 29.0001 14.7779C29.0001 13.6061 28.8209 12.4762 28.4886 11.4141C29.1377 12.8172 29.5 14.3802 29.5 16.0278C29.5 22.1029 24.5751 27.0278 18.5 27.0278C14.9166 27.0278 11.7335 25.3144 9.7251 22.6622C11.7662 24.7395 14.6077 26.0279 17.7501 26.0279Z" fill="#C1092A" fill-opacity="0.6"/>
</g>
<g filter="url(#filter1_di_1674_9686)">
<path d="M18.5 22.5273C22.4792 22.5273 25.7893 19.702 26.4799 15.9746C26.6263 15.1843 25.9519 14.5273 25.1373 14.5273H11.8627C11.0481 14.5273 10.3737 15.1843 10.5201 15.9746C11.2107 19.702 14.5208 22.5273 18.5 22.5273Z" fill="url(#paint4_linear_1674_9686)"/>
</g>
<g filter="url(#filter2_i_1674_9686)">
<path d="M23.9308 20.4704C22.4929 21.749 20.5887 22.5273 18.5001 22.5273C16.4115 22.5273 14.5072 21.7489 13.0693 20.4703C13.4886 18.802 15.7604 17.5273 18.5001 17.5273C21.2398 17.5273 23.5116 18.8021 23.9308 20.4704Z" fill="url(#paint5_linear_1674_9686)"/>
</g>
<g filter="url(#filter3_d_1674_9686)">
<path d="M12.6433 3.41203C12.4936 3.19428 12.2216 3.09463 11.9648 3.16344C11.708 3.23225 11.5223 3.45452 11.5015 3.71797L11.0155 5.67294L8.89126 6.6583C8.62486 6.72968 8.43615 6.96569 8.42644 7.23961C8.41672 7.51354 8.58828 7.76097 8.84902 7.84907L10.9131 8.92201L10.9376 10.8626C10.9165 11.1301 11.07 11.3804 11.3186 11.4838C11.5672 11.5872 11.855 11.5205 12.0329 11.3182L13.6555 9.47316L15.9833 10.2597C16.2385 10.3459 16.5211 10.2598 16.6847 10.046C16.8482 9.83211 16.856 9.53861 16.704 9.31753L15.7549 7.62466L17.006 5.66341C17.1878 5.45674 17.2126 5.15668 17.0673 4.92431C16.9219 4.69194 16.6404 4.58191 16.3741 4.65329L14.0416 4.8621L12.6433 3.41203Z" fill="url(#paint6_linear_1674_9686)"/>
</g>
<g filter="url(#filter4_d_1674_9686)">
<path d="M24.3567 3.41203C24.5064 3.19428 24.7784 3.09463 25.0352 3.16344C25.292 3.23225 25.4777 3.45452 25.4985 3.71797L25.9845 5.67294L28.1087 6.6583C28.3751 6.72968 28.5638 6.96569 28.5736 7.23961C28.5833 7.51354 28.4117 7.76097 28.151 7.84907L26.0869 8.92201L26.0624 10.8626C26.0835 11.1301 25.93 11.3804 25.6814 11.4838C25.4328 11.5872 25.145 11.5205 24.9671 11.3182L23.3445 9.47316L21.0167 10.2597C20.7615 10.3459 20.4789 10.2598 20.3153 10.046C20.1518 9.83211 20.144 9.53861 20.296 9.31753L21.2451 7.62466L19.994 5.66341C19.8122 5.45674 19.7874 5.15668 19.9327 4.92431C20.0781 4.69194 20.3596 4.58191 20.6259 4.65329L22.9584 4.8621L24.3567 3.41203Z" fill="url(#paint7_linear_1674_9686)"/>
</g>
</svg>
