<svg width="35" height="35" viewBox="0 0 35 35" fill="none" xmlns="http://www.w3.org/2000/svg">
<path d="M0 17.5C0 3.5 3.5 0 17.5 0C31.5 0 35 3.5 35 17.5C35 31.5 31.5 35 17.5 35C3.5 35 0 31.5 0 17.5Z" fill="#FFC8C8"/>
<path d="M27 18C27 22.9706 22.9706 27 18 27C13.0294 27 9 22.9706 9 18C9 13.0294 13.0294 9 18 9C22.9706 9 27 13.0294 27 18Z" stroke="#F96262" stroke-width="2" stroke-linecap="round" stroke-linejoin="round"/>
<path d="M18 14V18M18 22H18.01" stroke="#F96262" stroke-width="2" stroke-linecap="round" stroke-linejoin="round"/>
</svg>
