<svg width="24" height="26" viewBox="0 0 24 26" fill="none" xmlns="http://www.w3.org/2000/svg">
<path fill-rule="evenodd" clip-rule="evenodd" d="M5.26497 4.5812L5.26497 4.58123C10.6567 5.78549 15.5618 8.50755 19.3641 12.4013L19.3688 12.4061L19.3688 12.4061C19.4331 12.4729 19.4965 12.5401 19.5588 12.6076C20.2706 11.9283 20.7531 11.2879 20.9781 10.6942C16.5803 6.25643 10.8118 3.24068 4.50472 2.10355C3.7422 1.97162 3.27604 2.07599 2.98054 2.24337C2.68735 2.40944 2.42267 2.71652 2.21841 3.26879L2.21715 3.27219L2.21714 3.27219C2.0674 3.67259 1.92729 4.07473 1.79691 4.47916C2.79128 4.27124 3.98157 4.30433 5.25787 4.57967L5.26497 4.5812ZM20.9834 9.30131C16.5342 5.09084 10.8536 2.23143 4.6788 1.11881C2.84634 0.800617 1.80104 1.51451 1.2805 2.9219C1.03785 3.57073 0.819388 4.22463 0.625652 4.88562C0.430821 5.55035 0.260993 6.22225 0.116699 6.90338C0.251002 6.32266 0.728879 5.87359 1.45964 5.60974C2.34076 5.2916 3.58954 5.24276 5.04698 5.55718C10.2523 6.71981 14.9837 9.34694 18.6486 13.1C18.703 13.1564 18.7565 13.213 18.8091 13.2697C15.4794 16.1568 10.2012 18.9073 5.48177 20.1365C5.28573 19.3386 5.12174 18.5293 4.98283 17.7173C4.5155 14.9957 4.36444 11.4133 4.80536 8.39221C4.85432 8.05676 4.91057 7.72824 4.97451 7.40858C4.60964 7.36949 4.27581 7.3408 3.97007 7.32242C1.11595 7.15084 0.710034 7.87775 0.361855 9.42873C-0.00850432 11.0785 0.063856 19.3612 2.21867 23.5361C3.02673 25.1186 3.82931 25.1488 5.06699 24.8595C5.18451 24.832 5.30234 24.8051 5.42072 24.778L5.42215 24.7777L5.42373 24.7773C5.86016 24.6777 6.30424 24.5762 6.76829 24.4394C7.30453 24.2814 7.86745 24.0761 8.47608 23.7718L8.45905 23.7741C13.5893 22.1427 19.3295 18.8406 22.9219 15.3991C24.0131 14.352 24.2735 13.0727 23.1894 11.6172C22.861 11.1799 22.4939 10.7716 22.106 10.3767C21.7441 10.0083 21.364 9.65158 20.9801 9.29403L20.9834 9.30131ZM3.99086 17.9011C4.13207 18.7264 4.29928 19.5531 4.49995 20.3717C3.97245 20.4867 3.45449 20.5807 2.94978 20.6517C2.95008 20.6874 2.95065 20.7229 2.95148 20.7582L2.28203 20.8921C1.8047 19.2375 1.50611 17.2942 1.34575 15.4331C1.22789 14.0651 1.18742 12.7762 1.1987 11.7342C1.2103 10.6637 1.27617 9.92829 1.34385 9.62682C1.5396 8.75487 1.68089 8.59431 1.86715 8.49411C2.00345 8.42077 2.26248 8.33557 2.76237 8.30423C3.04754 8.28636 3.39015 8.2871 3.80369 8.30955C3.35168 11.4489 3.51281 15.117 3.99086 17.9011ZM5.89854 21.6492C6.07171 22.2179 6.36693 22.8054 6.79906 23.2214C11.3147 22.0326 16.5943 19.2987 20.4054 16.2554C20.1419 15.6184 19.7371 14.7017 19.3962 14.0944C15.9524 17.0472 10.5828 19.84 5.73565 21.0977C5.788 21.2824 5.84226 21.4663 5.89854 21.6492ZM11.2509 16.0697C11.3466 16.022 11.4316 15.9809 11.5113 15.9422C11.7297 15.8365 11.9087 15.7499 12.1596 15.6007C12.2953 15.52 12.4251 15.4471 12.5532 15.3752L12.5532 15.3752C12.747 15.2664 12.9371 15.1597 13.1381 15.0312C13.2367 14.9682 13.3677 14.8975 13.5154 14.8178C14.1534 14.4735 15.1035 13.9608 15.1035 13.172C15.1035 11.6949 11.7125 9.98184 9.30858 8.76748C9.15019 8.68746 8.99608 8.60961 8.84751 8.53414C7.59816 8.04865 7.19719 8.29139 7.01992 9.49701C6.67803 11.8233 6.69914 14.1941 7.07479 16.5244C7.21829 17.4023 7.5855 17.6369 8.42543 17.3295C9.5566 16.9047 10.1711 16.6077 11.2509 16.0697Z" fill="#817F7F" fill-opacity="0.5"/>
<path d="M5.26497 4.58123L5.16735 4.55954L5.14568 4.65705L5.24317 4.67883L5.26497 4.58123ZM5.26497 4.5812L5.36259 4.6029L5.38442 4.50468L5.28606 4.48345L5.26497 4.5812ZM19.3641 12.4013L19.2926 12.4712L19.2926 12.4712L19.3641 12.4013ZM19.3688 12.4061L19.4375 12.4788L19.5114 12.409L19.4403 12.3362L19.3688 12.4061ZM19.3688 12.4061L19.3001 12.3334L19.2267 12.4028L19.2968 12.4755L19.3688 12.4061ZM19.5588 12.6076L19.4854 12.6754L19.5544 12.7501L19.6279 12.6799L19.5588 12.6076ZM20.9781 10.6942L21.0716 10.7296L21.0945 10.6695L21.0492 10.6238L20.9781 10.6942ZM4.50472 2.10355L4.52247 2.00513L4.52177 2.00501L4.50472 2.10355ZM2.98054 2.24337L2.93125 2.15636L2.98054 2.24337ZM2.21841 3.26879L2.12461 3.2341L2.12461 3.2341L2.21841 3.26879ZM2.21715 3.27219L2.18125 3.36553L2.2758 3.40189L2.31094 3.30688L2.21715 3.27219ZM2.21714 3.27219L2.25304 3.17886L2.15883 3.14262L2.12348 3.23716L2.21714 3.27219ZM1.79691 4.47916L1.70173 4.44847L1.64893 4.61226L1.81738 4.57704L1.79691 4.47916ZM5.25787 4.57967L5.27896 4.48192L5.27896 4.48192L5.25787 4.57967ZM4.6788 1.11881L4.69653 1.02039L4.69591 1.02028L4.6788 1.11881ZM20.9834 9.30131L20.9147 9.37394L21.0746 9.26032L20.9834 9.30131ZM1.2805 2.9219L1.37417 2.95693L1.37429 2.95659L1.2805 2.9219ZM0.625652 4.88562L0.721615 4.91375L0.625652 4.88562ZM0.116699 6.90338L0.0188703 6.88266L0.214128 6.92591L0.116699 6.90338ZM1.45964 5.60974L1.4936 5.70379L1.45964 5.60974ZM5.04698 5.55718L5.06878 5.45959L5.06807 5.45943L5.04698 5.55718ZM18.6486 13.1L18.7207 13.0306L18.7202 13.0301L18.6486 13.1ZM18.8091 13.2697L18.8746 13.3453L18.9528 13.2776L18.8825 13.2017L18.8091 13.2697ZM5.48177 20.1365L5.38466 20.1603L5.40885 20.2588L5.50697 20.2332L5.48177 20.1365ZM4.98283 17.7173L5.0814 17.7004L5.08138 17.7004L4.98283 17.7173ZM4.80536 8.39221L4.70641 8.37777L4.80536 8.39221ZM4.97451 7.40858L5.07256 7.42819L5.09404 7.32081L4.98516 7.30915L4.97451 7.40858ZM3.97007 7.32242L3.96407 7.42224L3.97007 7.32242ZM0.361855 9.42873L0.459426 9.45063L0.361855 9.42873ZM2.21867 23.5361L2.30773 23.4906L2.30753 23.4903L2.21867 23.5361ZM5.06699 24.8595L5.08975 24.9568H5.08975L5.06699 24.8595ZM5.42072 24.778L5.443 24.8755L5.44304 24.8755L5.42072 24.778ZM5.42215 24.7777L5.39988 24.6802L5.39983 24.6802L5.42215 24.7777ZM5.42373 24.7773L5.40146 24.6799H5.40145L5.42373 24.7773ZM6.76829 24.4394L6.79656 24.5353H6.79656L6.76829 24.4394ZM8.47608 23.7718L8.5208 23.8612L8.4623 23.6727L8.47608 23.7718ZM8.45905 23.7741L8.42874 23.6789L8.47282 23.8732L8.45905 23.7741ZM22.9219 15.3991L22.9911 15.4713L22.9912 15.4713L22.9219 15.3991ZM23.1894 11.6172L23.2696 11.5575L23.2694 11.5571L23.1894 11.6172ZM22.106 10.3767L22.1774 10.3067V10.3066L22.106 10.3767ZM20.9801 9.29403L21.0483 9.22086L20.8889 9.33501L20.9801 9.29403ZM4.49995 20.3717L4.52125 20.4694L4.6215 20.4475L4.59707 20.3479L4.49995 20.3717ZM3.99086 17.9011L4.08943 17.8842L4.08942 17.8841L3.99086 17.9011ZM2.94978 20.6517L2.93586 20.5526L2.84903 20.5648L2.84978 20.6525L2.94978 20.6517ZM2.95148 20.7582L2.97109 20.8563L3.05342 20.8398L3.05145 20.7559L2.95148 20.7582ZM2.28203 20.8921L2.18594 20.9199L2.21144 21.0082L2.30164 20.9902L2.28203 20.8921ZM1.34575 15.4331L1.44539 15.4245L1.34575 15.4331ZM1.1987 11.7342L1.09871 11.7331L1.1987 11.7342ZM1.34385 9.62682L1.44142 9.64872L1.34385 9.62682ZM1.86715 8.49411L1.81977 8.40604L1.81977 8.40604L1.86715 8.49411ZM2.76237 8.30423L2.75612 8.20443L2.76237 8.30423ZM3.80369 8.30955L3.90267 8.3238L3.91825 8.21562L3.80911 8.20969L3.80369 8.30955ZM6.79906 23.2214L6.72971 23.2935L6.77018 23.3324L6.82452 23.3181L6.79906 23.2214ZM5.89854 21.6492L5.9942 21.6201L5.99412 21.6198L5.89854 21.6492ZM20.4054 16.2554L20.4678 16.3336L20.5266 16.2867L20.4978 16.2172L20.4054 16.2554ZM19.3962 14.0944L19.4834 14.0455L19.4237 13.9391L19.3311 14.0185L19.3962 14.0944ZM5.73565 21.0977L5.71054 21.0009L5.61156 21.0266L5.63944 21.125L5.73565 21.0977ZM11.5113 15.9422L11.4677 15.8522L11.5113 15.9422ZM11.2509 16.0697L11.2063 15.9802L11.2509 16.0697ZM12.1596 15.6007L12.2107 15.6866L12.1596 15.6007ZM12.5532 15.3752L12.6021 15.4624L12.604 15.4613L12.5532 15.3752ZM12.5532 15.3752L12.5043 15.288L12.5024 15.2891L12.5532 15.3752ZM13.1381 15.0312L13.192 15.1155L13.1381 15.0312ZM13.5154 14.8178L13.468 14.7298L13.5154 14.8178ZM9.30858 8.76748L9.35367 8.67822L9.30858 8.76748ZM8.84751 8.53414L8.89303 8.44454L8.88373 8.44093L8.84751 8.53414ZM7.01992 9.49701L6.92098 9.48246L6.92098 9.48247L7.01992 9.49701ZM7.07479 16.5244L6.97606 16.5403L6.9761 16.5405L7.07479 16.5244ZM8.42543 17.3295L8.45981 17.4234L8.46059 17.4231L8.42543 17.3295ZM5.36258 4.60292L5.36259 4.6029L5.16735 4.55951L5.16735 4.55954L5.36258 4.60292ZM19.4356 12.3315C15.6196 8.42362 10.6972 5.69206 5.28676 4.48364L5.24317 4.67883C10.6163 5.87892 15.504 8.59149 19.2926 12.4712L19.4356 12.3315ZM19.4403 12.3362L19.4356 12.3314L19.2926 12.4712L19.2972 12.476L19.4403 12.3362ZM19.4374 12.4788L19.4375 12.4788L19.3001 12.3334L19.3001 12.3334L19.4374 12.4788ZM19.6323 12.5397C19.5695 12.4717 19.5056 12.404 19.4408 12.3367L19.2968 12.4755C19.3606 12.5418 19.4235 12.6085 19.4854 12.6754L19.6323 12.5397ZM20.8846 10.6587C20.6672 11.2323 20.1968 11.8605 19.4898 12.5352L19.6279 12.6799C20.3444 11.9961 20.839 11.3434 21.0716 10.7296L20.8846 10.6587ZM4.48698 2.20196C10.7743 3.33553 16.5241 6.34173 20.9071 10.7646L21.0492 10.6238C16.6366 6.17113 10.8494 3.14584 4.52246 2.00513L4.48698 2.20196ZM3.02982 2.33038C3.29949 2.17764 3.74048 2.07281 4.48767 2.20208L4.52177 2.00501C3.74392 1.87044 3.25259 1.97434 2.93125 2.15636L3.02982 2.33038ZM2.3122 3.30348C2.5108 2.7665 2.76275 2.48166 3.02982 2.33038L2.93125 2.15636C2.61194 2.33722 2.33454 2.66653 2.12461 3.2341L2.3122 3.30348ZM2.31094 3.30688L2.3122 3.30348L2.12461 3.2341L2.12336 3.23751L2.31094 3.30688ZM2.18124 3.36553L2.18125 3.36553L2.25305 3.17886L2.25304 3.17886L2.18124 3.36553ZM1.89209 4.50984C2.02198 4.1069 2.16159 3.70621 2.3108 3.30722L2.12348 3.23716C1.97321 3.63897 1.83259 4.04256 1.70173 4.44847L1.89209 4.50984ZM5.27896 4.48192C3.99257 4.2044 2.78773 4.16982 1.77644 4.38127L1.81738 4.57704C2.79484 4.37266 3.97056 4.40425 5.23678 4.67742L5.27896 4.48192ZM5.28606 4.48345L5.27896 4.48192L5.23678 4.67742L5.24388 4.67896L5.28606 4.48345ZM4.66107 1.21722C10.8171 2.32646 16.4799 5.17709 20.9147 9.37394L21.0521 9.22867C16.5885 5.00458 10.8901 2.1364 4.69653 1.02039L4.66107 1.21722ZM1.37429 2.95659C1.62896 2.26804 2.00774 1.76004 2.53697 1.46027C3.06646 1.16035 3.76066 1.06088 4.66169 1.21733L4.69591 1.02028C3.76449 0.858549 3.0198 0.956925 2.43839 1.28625C1.85672 1.61573 1.45258 2.16837 1.18671 2.88721L1.37429 2.95659ZM0.721615 4.91375C0.914649 4.25515 1.13234 3.60355 1.37416 2.95693L1.18684 2.88687C0.943356 3.53791 0.724127 4.19411 0.529689 4.8575L0.721615 4.91375ZM0.214528 6.92411C0.358287 6.2455 0.52749 5.57607 0.721615 4.91375L0.529689 4.8575C0.334153 5.52463 0.163699 6.199 0.0188703 6.88266L0.214528 6.92411ZM1.42568 5.51568C0.675494 5.78654 0.163797 6.25592 0.0192708 6.88085L0.214128 6.92591C0.338206 6.38941 0.782264 5.96063 1.4936 5.70379L1.42568 5.51568ZM5.06807 5.45943C3.59904 5.14251 2.32997 5.18917 1.42568 5.51568L1.4936 5.70379C2.35156 5.39402 3.58005 5.34301 5.0259 5.65493L5.06807 5.45943ZM18.7202 13.0301C15.0415 9.263 10.2928 6.62638 5.06878 5.45959L5.02519 5.65478C10.2119 6.81324 14.9259 9.43087 18.5771 13.1698L18.7202 13.0301ZM18.8825 13.2017C18.8294 13.1446 18.7755 13.0875 18.7207 13.0306L18.5766 13.1694C18.6306 13.2254 18.6837 13.2815 18.7358 13.3377L18.8825 13.2017ZM5.50697 20.2332C10.2403 19.0005 15.5325 16.2431 18.8746 13.3453L18.7436 13.1942C15.4263 16.0705 10.1622 18.8142 5.45657 20.0397L5.50697 20.2332ZM4.88426 17.7342C5.02351 18.5481 5.18797 19.3598 5.38466 20.1603L5.57888 20.1126C5.38349 19.3174 5.21997 18.5104 5.0814 17.7004L4.88426 17.7342ZM4.70641 8.37777C4.26373 11.4109 4.41546 15.004 4.88427 17.7342L5.08138 17.7004C4.61553 14.9873 4.46515 11.4157 4.90431 8.40665L4.70641 8.37777ZM4.87645 7.38897C4.81215 7.71047 4.7556 8.04073 4.70641 8.37777L4.90431 8.40665C4.95304 8.0728 5.009 7.746 5.07256 7.42819L4.87645 7.38897ZM3.96407 7.42224C4.26798 7.44051 4.60023 7.46905 4.96385 7.50801L4.98516 7.30915C4.61906 7.26992 4.28365 7.24109 3.97608 7.2226L3.96407 7.42224ZM0.459426 9.45063C0.633847 8.67367 0.816705 8.14107 1.2839 7.81131C1.75529 7.4786 2.53895 7.33657 3.96407 7.42224L3.97608 7.2226C2.54708 7.13669 1.70072 7.27232 1.16857 7.64792C0.632232 8.02647 0.438042 8.63281 0.264283 9.40683L0.459426 9.45063ZM2.30753 23.4903C1.23953 21.421 0.683874 18.323 0.442953 15.5269C0.322657 14.1307 0.281116 12.8135 0.29271 11.743C0.304335 10.6696 0.369348 9.85189 0.459426 9.45063L0.264283 9.40683C0.169181 9.83046 0.104355 10.6667 0.092722 11.7408C0.081058 12.8178 0.122841 14.1415 0.243692 15.5441C0.485065 18.3455 1.043 21.4763 2.12981 23.582L2.30753 23.4903ZM5.04423 24.7621C4.42638 24.9065 3.9425 24.9639 3.51648 24.8059C3.09409 24.6493 2.70672 24.272 2.30773 23.4906L2.12961 23.5816C2.53868 24.3827 2.95662 24.8117 3.44696 24.9935C3.93366 25.1739 4.46992 25.1017 5.08975 24.9568L5.04423 24.7621ZM5.39845 24.6805C5.28011 24.7076 5.16203 24.7346 5.04423 24.7621L5.08975 24.9568C5.20698 24.9294 5.32456 24.9026 5.443 24.8755L5.39845 24.6805ZM5.39983 24.6802L5.39841 24.6806L5.44304 24.8755L5.44446 24.8752L5.39983 24.6802ZM5.40145 24.6799L5.39988 24.6802L5.44442 24.8752L5.446 24.8748L5.40145 24.6799ZM6.74002 24.3435C6.27939 24.4793 5.83825 24.5801 5.40146 24.6799L5.446 24.8748C5.88208 24.7752 6.32909 24.6731 6.79656 24.5353L6.74002 24.3435ZM8.43136 23.6823C7.82894 23.9835 7.27169 24.1868 6.74002 24.3435L6.79656 24.5353C7.33737 24.3759 7.90596 24.1686 8.5208 23.8612L8.43136 23.6823ZM8.47282 23.8732L8.48986 23.8708L8.4623 23.6727L8.44527 23.6751L8.47282 23.8732ZM22.8527 15.3269C19.2725 18.7567 13.546 22.0515 8.42874 23.6789L8.48935 23.8694C13.6326 22.2339 19.3865 18.9244 22.9911 15.4713L22.8527 15.3269ZM23.1092 11.6769C23.6405 12.3902 23.8347 13.0495 23.7719 13.6509C23.7091 14.2533 23.3869 14.8143 22.8527 15.3269L22.9912 15.4713C23.5481 14.9367 23.9017 14.3346 23.9708 13.6717C24.0401 13.0078 23.8224 12.2997 23.2696 11.5575L23.1092 11.6769ZM22.0347 10.4468C22.4206 10.8397 22.7845 11.2446 23.1094 11.6772L23.2694 11.5571C22.9375 11.1152 22.5672 10.7035 22.1774 10.3067L22.0347 10.4468ZM20.912 9.3672C21.2958 9.72477 21.6745 10.0801 22.0347 10.4468L22.1774 10.3066C21.8137 9.93645 21.4321 9.57839 21.0483 9.22086L20.912 9.3672ZM21.0746 9.26032L21.0714 9.25305L20.8889 9.33501L20.8922 9.34229L21.0746 9.26032ZM4.59707 20.3479C4.39705 19.532 4.2303 18.7075 4.08943 17.8842L3.89229 17.9179C4.03384 18.7452 4.20151 19.5743 4.40282 20.3955L4.59707 20.3479ZM2.96369 20.7507C3.47111 20.6794 3.99154 20.5849 4.52125 20.4694L4.47864 20.274C3.95336 20.3885 3.43787 20.4821 2.93586 20.5526L2.96369 20.7507ZM3.05145 20.7559C3.05064 20.7211 3.05008 20.6861 3.04977 20.6508L2.84978 20.6525C2.85009 20.6888 2.85067 20.7248 2.85151 20.7606L3.05145 20.7559ZM2.93187 20.6602L2.26241 20.7941L2.30164 20.9902L2.97109 20.8563L2.93187 20.6602ZM1.24612 15.4417C1.40681 17.3066 1.70621 19.2569 2.18594 20.9199L2.37811 20.8644C1.90319 19.2182 1.60541 17.2818 1.44539 15.4245L1.24612 15.4417ZM1.09871 11.7331C1.08739 12.7784 1.12798 14.0705 1.24612 15.4417L1.44539 15.4245C1.32779 14.0597 1.28745 12.7741 1.2987 11.7353L1.09871 11.7331ZM1.24628 9.60491C1.17609 9.91759 1.11031 10.6623 1.09871 11.7331L1.2987 11.7353C1.31029 10.6651 1.37626 9.93898 1.44142 9.64872L1.24628 9.60491ZM1.81977 8.40604C1.7096 8.46532 1.61283 8.54492 1.52011 8.72535C1.43094 8.89888 1.3445 9.16739 1.24628 9.60491L1.44142 9.64872C1.53895 9.2143 1.62103 8.96656 1.698 8.81677C1.77143 8.67388 1.83844 8.6231 1.91453 8.58217L1.81977 8.40604ZM2.75612 8.20443C2.24845 8.23625 1.97354 8.32331 1.81977 8.40604L1.91453 8.58217C2.03336 8.51823 2.27651 8.43488 2.76863 8.40403L2.75612 8.20443ZM3.80911 8.20969C3.3929 8.1871 3.04623 8.18624 2.75612 8.20443L2.76863 8.40403C3.04885 8.38647 3.38739 8.3871 3.79827 8.4094L3.80911 8.20969ZM4.08942 17.8841C3.61284 15.1086 3.45239 11.4511 3.90267 8.3238L3.70471 8.29529C3.25098 11.4466 3.41279 15.1254 3.8923 17.918L4.08942 17.8841ZM6.86842 23.1494C6.45259 22.7491 6.16434 22.1788 5.9942 21.6201L5.80288 21.6783C5.97909 22.257 6.28126 22.8617 6.72971 23.2935L6.86842 23.1494ZM20.343 16.1773C16.5418 19.2127 11.2746 21.9398 6.7736 23.1247L6.82452 23.3181C11.3547 22.1255 16.6468 19.3848 20.4678 16.3336L20.343 16.1773ZM19.309 14.1434C19.6468 14.7451 20.0497 15.6572 20.313 16.2937L20.4978 16.2172C20.234 15.5796 19.8274 14.6582 19.4834 14.0455L19.309 14.1434ZM5.76077 21.1945C10.6219 19.9331 16.0053 17.1335 19.4613 14.1703L19.3311 14.0185C15.8995 16.9608 10.5437 19.7468 5.71054 21.0009L5.76077 21.1945ZM5.99412 21.6198C5.93807 21.4376 5.88401 21.2544 5.83186 21.0704L5.63944 21.125C5.69198 21.3104 5.74646 21.4949 5.80296 21.6786L5.99412 21.6198ZM11.4677 15.8522C11.388 15.8908 11.3025 15.9322 11.2063 15.9802L11.2955 16.1592C11.3906 16.1118 11.4751 16.0709 11.5549 16.0323L11.4677 15.8522ZM12.1085 15.5147C11.8615 15.6616 11.6858 15.7467 11.4677 15.8522L11.5549 16.0323C11.7735 15.9264 11.9559 15.8382 12.2107 15.6866L12.1085 15.5147ZM12.5042 15.288C12.3762 15.3599 12.2454 15.4333 12.1085 15.5147L12.2107 15.6866C12.3452 15.6067 12.4739 15.5344 12.6021 15.4624L12.5042 15.288ZM12.5024 15.2891L12.5023 15.2891L12.604 15.4613L12.6041 15.4613L12.5024 15.2891ZM13.0843 14.9469C12.886 15.0737 12.6984 15.179 12.5043 15.288L12.6022 15.4624C12.7957 15.3537 12.9882 15.2457 13.192 15.1155L13.0843 14.9469ZM13.468 14.7298C13.3214 14.8089 13.1867 14.8815 13.0843 14.9469L13.192 15.1155C13.2867 15.0549 13.414 14.9862 13.5629 14.9058L13.468 14.7298ZM15.0035 13.172C15.0035 13.523 14.7925 13.823 14.4839 14.0854C14.176 14.3473 13.7886 14.5568 13.468 14.7298L13.5629 14.9058C13.8802 14.7346 14.2868 14.5156 14.6135 14.2378C14.9395 13.9606 15.2035 13.6099 15.2035 13.172H15.0035ZM9.26349 8.85673C10.4668 9.46458 11.9098 10.1937 13.0521 10.9544C13.6233 11.3349 14.1148 11.7203 14.4624 12.099C14.812 12.4799 15.0035 12.8404 15.0035 13.172H15.2035C15.2035 12.7651 14.9711 12.3575 14.6098 11.9638C14.2465 11.5679 13.7399 11.1722 13.1629 10.788C12.0088 10.0193 10.5543 9.28474 9.35367 8.67822L9.26349 8.85673ZM8.80222 8.62329C8.95091 8.69883 9.10512 8.77673 9.26349 8.85673L9.35367 8.67822C9.19526 8.59819 9.04125 8.5204 8.8928 8.44498L8.80222 8.62329ZM7.11885 9.51156C7.16265 9.21368 7.21933 8.98281 7.29597 8.81026C7.37203 8.63901 7.46503 8.53117 7.57927 8.46937C7.69422 8.40718 7.84406 8.38435 8.04755 8.40948C8.25167 8.43468 8.50212 8.50721 8.81129 8.62735L8.88373 8.44093C8.56822 8.31832 8.30005 8.23914 8.07206 8.21099C7.84345 8.18276 7.64772 8.20494 7.4841 8.29346C7.31977 8.38236 7.2012 8.53091 7.11318 8.72908C7.02574 8.92595 6.96582 9.17753 6.92098 9.48246L7.11885 9.51156ZM7.17351 16.5085C6.79946 14.1881 6.77848 11.8276 7.11885 9.51155L6.92098 9.48247C6.57759 11.819 6.59881 14.2 6.97606 16.5403L7.17351 16.5085ZM8.39106 17.2356C7.97644 17.3873 7.71396 17.3907 7.54073 17.2859C7.36638 17.1804 7.24448 16.9426 7.17348 16.5082L6.9761 16.5405C7.04859 16.984 7.18206 17.3026 7.43717 17.457C7.6934 17.6121 8.03449 17.5791 8.45981 17.4234L8.39106 17.2356ZM11.2063 15.9802C10.1277 16.5176 9.51669 16.8128 8.39028 17.2359L8.46059 17.4231C9.5965 16.9965 10.2146 16.6978 11.2955 16.1592L11.2063 15.9802Z" fill="#817F7F" fill-opacity="0.5"/>
</svg>
