<svg width="24" height="24" viewBox="0 0 24 24" fill="none" xmlns="http://www.w3.org/2000/svg">
<path fill-rule="evenodd" clip-rule="evenodd" d="M11.2279 15.0257C11.5855 14.8476 11.7941 14.7604 12.1366 14.5567C12.4777 14.3539 12.7812 14.2007 13.1152 13.9873C13.6394 13.6523 15.0805 13.0996 15.0805 12.1281C15.0805 10.5536 11.2279 8.71113 8.82453 7.49019C7.57519 7.00471 7.17421 7.24745 6.99694 8.45306C6.65506 10.7793 6.67616 13.1501 7.05181 15.4804C7.19532 16.3583 7.56252 16.593 8.40246 16.2855C9.53362 15.8607 10.1481 15.5637 11.2279 15.0257Z" fill="url(#paint0_linear_163_8724)"/>
<path fill-rule="evenodd" clip-rule="evenodd" d="M5.02404 4.51324C10.2294 5.67586 14.9608 8.30299 18.6257 12.056C20.1154 13.6021 20.9364 15.2583 20.6232 16.1762C21.2876 15.5684 21.9224 14.9279 22.5318 14.2548C24.1739 12.4721 24.1739 11.6399 22.5318 9.85723C17.8893 4.77024 11.5836 1.32315 4.65585 0.0748611C2.82339 -0.243331 1.77809 0.470562 1.25755 1.87795C0.770871 3.17928 0.381526 4.501 0.09375 5.85943C0.38999 4.57851 2.35787 3.93804 5.02404 4.51324Z" fill="url(#paint1_linear_163_8724)"/>
<path fill-rule="evenodd" clip-rule="evenodd" d="M18.8076 12.2072C14.8682 15.6322 8.18012 18.8693 2.92682 19.6077C2.94978 22.2766 4.42811 23.7154 6.29325 23.3202C11.8911 22.0347 18.7959 18.2858 22.899 14.3552C23.9902 13.308 24.2505 12.0288 23.1664 10.5732C22.5316 9.72791 21.7523 8.9908 20.9572 8.25008C21.4534 9.34699 20.6428 10.6927 18.8076 12.2072Z" fill="url(#paint2_linear_163_8724)"/>
<path fill-rule="evenodd" clip-rule="evenodd" d="M5.87556 20.6052C5.48251 19.3276 5.1875 18.004 4.95985 16.6734C4.44063 13.6495 4.31181 9.56318 4.95153 6.36463C1.1806 5.96061 0.724355 6.66766 0.338877 8.38478C-0.0314816 10.0346 0.0408794 18.3172 2.19569 22.4922C3.00375 24.0746 3.80633 24.1048 5.04402 23.8155C6.09627 23.5696 7.17369 23.3675 8.4531 22.7278C7.039 22.9298 6.21828 21.7308 5.87556 20.6052Z" fill="#F4BB1B"/>
<defs>
<linearGradient id="paint0_linear_163_8724" x1="7.83761" y1="17.3083" x2="7.79558" y2="7.17211" gradientUnits="userSpaceOnUse">
<stop stop-color="#E94531"/>
<stop offset="1" stop-color="#F09185"/>
</linearGradient>
<linearGradient id="paint1_linear_163_8724" x1="16.3684" y1="17.0473" x2="16.3382" y2="0.537513" gradientUnits="userSpaceOnUse">
<stop stop-color="#2D61AD"/>
<stop offset="0.1292" stop-color="#2C68B2"/>
<stop offset="0.3576" stop-color="#2A7ABF"/>
<stop offset="0.6584" stop-color="#2698D2"/>
<stop offset="1" stop-color="#29BBE7"/>
</linearGradient>
<linearGradient id="paint2_linear_163_8724" x1="27.0965" y1="13.361" x2="4.57942" y2="24.7041" gradientUnits="userSpaceOnUse">
<stop stop-color="#E94531"/>
<stop offset="1" stop-color="#F09185"/>
</linearGradient>
</defs>
</svg>
