<svg width="40" height="40" viewBox="0 0 40 40" fill="none" xmlns="http://www.w3.org/2000/svg">
<rect width="40" height="40" rx="20" fill="#F96262" fill-opacity="0.2"/>
<path d="M15.02 21C12.81 21 11.02 22.79 11.02 25C11.02 27.21 12.81 29 15.02 29C17.23 29 19.02 27.21 19.02 25C19.02 22.79 17.23 21 15.02 21ZM15.02 27C13.92 27 13.02 26.1 13.02 25C13.02 23.9 13.92 23 15.02 23C16.12 23 17.02 23.9 17.02 25C17.02 26.1 16.12 27 15.02 27ZM21 21V29H29V21H21ZM27 27H23V23H27V27ZM15 10L10 19H20L15 10ZM15 14.12L16.6 17H13.4L15 14.12ZM27.25 10.5C26.19 10.5 25.44 11.06 25 11.67C24.56 11.06 23.81 10.5 22.75 10.5C21.19 10.5 20 11.78 20 13.25C20 15.25 22.42 16.67 25 19C27.58 16.67 30 15.25 30 13.25C30 11.78 28.81 10.5 27.25 10.5ZM25 16.35C23.55 15.13 22 13.95 22 13.25C22 12.82 22.35 12.5 22.75 12.5C23.06 12.5 23.27 12.67 23.48 12.87L25 14.3L26.52 12.87C26.73 12.67 26.94 12.5 27.25 12.5C27.65 12.5 28 12.82 28 13.25C28 13.95 26.45 15.13 25 16.35Z" fill="#F96262"/>
</svg>
