<svg width="137" height="137" viewBox="0 0 137 137" fill="none" xmlns="http://www.w3.org/2000/svg">
<path d="M68.2063 136.413C105.876 136.413 136.413 105.876 136.413 68.2063C136.413 30.537 105.876 0 68.2063 0C30.537 0 0 30.537 0 68.2063C0 105.876 30.537 136.413 68.2063 136.413Z" fill="#FEE0E0"/>
<mask id="mask0_1674_9422" style="mask-type:alpha" maskUnits="userSpaceOnUse" x="0" y="0" width="137" height="137">
<path d="M68.2063 136.413C105.876 136.413 136.413 105.876 136.413 68.2063C136.413 30.537 105.876 0 68.2063 0C30.537 0 0 30.537 0 68.2063C0 105.876 30.537 136.413 68.2063 136.413Z" fill="#FEE0E0"/>
</mask>
<g mask="url(#mask0_1674_9422)">
<path d="M112.35 31.6836H24.3618V145.214H112.35V31.6836Z" fill="#F9F9F9"/>
<path d="M111.601 32.8516H25.7407V44.1537H111.601V32.8516Z" fill="#F96262"/>
<path d="M87.6174 93.0156H61.9254C61.2359 93.0156 60.6963 93.5552 60.6963 94.2448C60.6963 94.9343 61.2359 95.4739 61.9254 95.4739H87.6174C88.307 95.4739 88.8466 94.9343 88.8466 94.2448C88.8466 93.5552 88.307 93.0156 87.6174 93.0156Z" fill="#111111"/>
<path d="M102.907 88.4258H79.6134C78.9239 88.4258 78.3843 88.9654 78.3843 89.6549C78.3843 90.3444 78.9239 90.884 79.6134 90.884H102.907C103.597 90.884 104.136 90.3444 104.136 89.6549C104.136 88.9654 103.597 88.4258 102.907 88.4258Z" fill="#111111"/>
<path d="M92.4147 86.2708H102.907C103.597 86.2708 104.136 85.7311 104.136 85.0416C104.136 84.3521 103.597 83.8125 102.907 83.8125H92.4147C91.7252 83.8125 91.1855 84.3521 91.1855 85.0416C91.1855 85.7311 91.7551 86.2708 92.4147 86.2708Z" fill="#111111"/>
<path d="M61.9254 86.2708H62.615H73.1076H85.429C86.1185 86.2708 86.6581 85.7311 86.6581 85.0416C86.6581 84.3521 86.1185 83.8125 85.429 83.8125H73.1076H62.615H61.9254C61.2359 83.8125 60.6963 84.3521 60.6963 85.0416C60.6963 85.7311 61.2359 86.2708 61.9254 86.2708Z" fill="#111111"/>
<path d="M57.8186 93.0156H32.1266C31.4371 93.0156 30.8975 93.5552 30.8975 94.2448C30.8975 94.9343 31.4371 95.4739 32.1266 95.4739H57.8186C58.5081 95.4739 59.0478 94.9343 59.0478 94.2448C59.0478 93.5552 58.4782 93.0156 57.8186 93.0156Z" fill="#111111"/>
<path d="M70.8891 88.4258H61.8953H49.7838C49.0943 88.4258 48.5547 88.9654 48.5547 89.6549C48.5547 90.3444 49.0943 90.884 49.7838 90.884H61.8953H70.8891H73.1075C73.797 90.884 74.3366 90.3444 74.3366 89.6549C74.3366 88.9654 73.797 88.4258 73.1075 88.4258H70.8891Z" fill="#111111"/>
<path d="M32.0968 90.884H41.0905C41.78 90.884 42.3197 90.3444 42.3197 89.6549C42.3197 88.9654 41.78 88.4258 41.0905 88.4258H32.0968C31.4073 88.4258 30.8677 88.9654 30.8677 89.6549C30.8677 90.3145 31.4373 90.884 32.0968 90.884Z" fill="#111111"/>
<path d="M32.0968 86.2708H55.6303C56.3199 86.2708 56.8595 85.7311 56.8595 85.0416C56.8595 84.3521 56.3199 83.8125 55.6303 83.8125H32.0968C31.4073 83.8125 30.8677 84.3521 30.8677 85.0416C30.8677 85.7311 31.4373 86.2708 32.0968 86.2708Z" fill="#111111"/>
<path d="M58.9578 61.9609H57.8186H33.2658H32.1266C31.4371 61.9609 30.8975 62.5006 30.8975 63.1901C30.8975 63.8796 31.4371 64.4192 32.1266 64.4192H33.2658H57.8186H58.9578C59.6473 64.4192 60.187 63.8796 60.187 63.1901C60.187 62.5006 59.6174 61.9609 58.9578 61.9609Z" fill="#111111"/>
<path d="M59.1978 57.375H58.7182H50.1741H49.8444C49.1548 57.375 48.6152 57.9146 48.6152 58.6041C48.6152 59.2937 49.1548 59.8333 49.8444 59.8333H50.324H58.8681H59.1978C59.8873 59.8333 60.427 59.2937 60.427 58.6041C60.397 57.9146 59.8574 57.375 59.1978 57.375Z" fill="#111111"/>
<path d="M32.0963 59.802H41.09C41.7795 59.802 42.3192 59.2624 42.3192 58.5729C42.3192 57.8834 41.7795 57.3438 41.09 57.3438H32.0963C31.4068 57.3438 30.8672 57.8834 30.8672 58.5729C30.8672 59.2624 31.4368 59.802 32.0963 59.802Z" fill="#111111"/>
<path d="M59.1978 67.207H58.7182H50.1741H49.8444C49.1548 67.207 48.6152 67.7467 48.6152 68.4362C48.6152 69.1257 49.1548 69.6653 49.8444 69.6653H50.324H58.8681H59.1978C59.8873 69.6653 60.427 69.1257 60.427 68.4362C60.397 67.7467 59.8574 67.207 59.1978 67.207Z" fill="#111111"/>
<path d="M32.0963 69.638H41.09C41.7795 69.638 42.3192 69.0983 42.3192 68.4088C42.3192 67.7193 41.7795 67.1797 41.09 67.1797H32.0963C31.4068 67.1797 30.8672 67.7193 30.8672 68.4088C30.8672 69.0983 31.4368 69.638 32.0963 69.638Z" fill="#111111"/>
<path d="M32.0963 55.2161H35.3041H55.6298H58.8376C59.5271 55.2161 60.0668 54.6765 60.0668 53.987C60.0668 53.2974 59.5271 52.7578 58.8376 52.7578H55.6298H35.3041H32.0963C31.4068 52.7578 30.8672 53.2974 30.8672 53.987C30.8672 54.6765 31.4368 55.2161 32.0963 55.2161Z" fill="#111111"/>
<path d="M87.617 114H61.9249C61.2354 114 60.6958 114.54 60.6958 115.229C60.6958 115.919 61.2354 116.458 61.9249 116.458H87.617C88.3065 116.458 88.8461 115.919 88.8461 115.229C88.8461 114.54 88.3065 114 87.617 114Z" fill="#111111"/>
<path d="M102.907 109.414H79.6129C78.9234 109.414 78.3838 109.954 78.3838 110.643C78.3838 111.333 78.9234 111.872 79.6129 111.872H102.907C103.596 111.872 104.136 111.333 104.136 110.643C104.136 109.954 103.596 109.414 102.907 109.414Z" fill="#111111"/>
<path d="M92.4137 107.255H102.906C103.596 107.255 104.136 106.716 104.136 106.026C104.136 105.336 103.596 104.797 102.906 104.797H92.4137C91.7242 104.797 91.1846 105.336 91.1846 106.026C91.1846 106.716 91.7542 107.255 92.4137 107.255Z" fill="#111111"/>
<path d="M61.9249 107.255H62.6145H73.1071H85.4285C86.118 107.255 86.6576 106.716 86.6576 106.026C86.6576 105.336 86.118 104.797 85.4285 104.797H73.1071H62.6145H61.9249C61.2354 104.797 60.6958 105.336 60.6958 106.026C60.6958 106.716 61.2354 107.255 61.9249 107.255Z" fill="#111111"/>
<path d="M57.8186 114H32.1266C31.4371 114 30.8975 114.54 30.8975 115.229C30.8975 115.919 31.4371 116.458 32.1266 116.458H57.8186C58.5081 116.458 59.0478 115.919 59.0478 115.229C59.0478 114.54 58.4782 114 57.8186 114Z" fill="#111111"/>
<path d="M70.8895 109.414H61.8958H49.7843C49.0948 109.414 48.5552 109.954 48.5552 110.643C48.5552 111.333 49.0948 111.872 49.7843 111.872H61.8958H70.8895H73.108C73.7975 111.872 74.3371 111.333 74.3371 110.643C74.3371 109.954 73.7975 109.414 73.108 109.414H70.8895Z" fill="#111111"/>
<path d="M32.0958 111.841H41.0895C41.7791 111.841 42.3187 111.301 42.3187 110.612C42.3187 109.922 41.7791 109.383 41.0895 109.383H32.0958C31.4063 109.383 30.8667 109.922 30.8667 110.612C30.8667 111.301 31.4363 111.841 32.0958 111.841Z" fill="#111111"/>
<path d="M32.0958 107.255H55.6294C56.3189 107.255 56.8585 106.716 56.8585 106.026C56.8585 105.336 56.3189 104.797 55.6294 104.797H32.0958C31.4063 104.797 30.8667 105.336 30.8667 106.026C30.8667 106.716 31.4363 107.255 32.0958 107.255Z" fill="#111111"/>
<path d="M87.6179 133.102H61.9259C61.2364 133.102 60.6968 133.641 60.6968 134.331C60.6968 135.02 61.2364 135.56 61.9259 135.56H87.6179C88.3074 135.56 88.8471 135.02 88.8471 134.331C88.8471 133.641 88.3074 133.102 87.6179 133.102Z" fill="#111111"/>
<path d="M102.907 128.516H79.6134C78.9239 128.516 78.3843 129.055 78.3843 129.745C78.3843 130.434 78.9239 130.974 79.6134 130.974H102.907C103.597 130.974 104.136 130.434 104.136 129.745C104.136 129.055 103.597 128.516 102.907 128.516Z" fill="#111111"/>
<path d="M92.4147 126.357H102.907C103.597 126.357 104.136 125.817 104.136 125.128C104.136 124.438 103.597 123.898 102.907 123.898H92.4147C91.7252 123.898 91.1855 124.438 91.1855 125.128C91.1855 125.817 91.7551 126.357 92.4147 126.357Z" fill="#111111"/>
<path d="M61.9259 126.357H62.6154H73.1081H85.4295C86.119 126.357 86.6586 125.817 86.6586 125.128C86.6586 124.438 86.119 123.898 85.4295 123.898H73.1081H62.6154H61.9259C61.2364 123.898 60.6968 124.438 60.6968 125.128C60.6968 125.817 61.2364 126.357 61.9259 126.357Z" fill="#111111"/>
<path d="M57.8191 133.102H32.1271C31.4376 133.102 30.8979 133.641 30.8979 134.331C30.8979 135.02 31.4376 135.56 32.1271 135.56H57.8191C58.5086 135.56 59.0483 135.02 59.0483 134.331C59.0483 133.641 58.4787 133.102 57.8191 133.102Z" fill="#111111"/>
<path d="M70.8905 128.516H61.8968H49.7853C49.0958 128.516 48.5562 129.055 48.5562 129.745C48.5562 130.434 49.0958 130.974 49.7853 130.974H61.8968H70.8905H73.109C73.7985 130.974 74.3381 130.434 74.3381 129.745C74.3381 129.055 73.7985 128.516 73.109 128.516H70.8905Z" fill="#111111"/>
<path d="M32.0968 130.943H41.0905C41.78 130.943 42.3197 130.403 42.3197 129.714C42.3197 129.024 41.78 128.484 41.0905 128.484H32.0968C31.4073 128.484 30.8677 129.024 30.8677 129.714C30.8677 130.403 31.4373 130.943 32.0968 130.943Z" fill="#111111"/>
<path d="M32.0968 126.357H55.6303C56.3199 126.357 56.8595 125.817 56.8595 125.128C56.8595 124.438 56.3199 123.898 55.6303 123.898H32.0968C31.4073 123.898 30.8677 124.438 30.8677 125.128C30.8677 125.817 31.4373 126.357 32.0968 126.357Z" fill="#111111"/>
</g>
</svg>
