<svg width="21" height="24" viewBox="0 0 21 24" fill="none" xmlns="http://www.w3.org/2000/svg">
<path d="M20.0377 4.88538L15.4223 0.27C15.3365 0.184307 15.2347 0.116356 15.1226 0.0700282C15.0106 0.0237007 14.8905 -9.50639e-05 14.7692 2.85414e-07H5.53846C5.04883 2.85414e-07 4.57925 0.194505 4.23303 0.540726C3.88681 0.886947 3.69231 1.35652 3.69231 1.84615V3.69231H1.84615C1.35652 3.69231 0.886947 3.88681 0.540726 4.23303C0.194505 4.57926 0 5.04883 0 5.53846V22.1538C0 22.6435 0.194505 23.1131 0.540726 23.4593C0.886947 23.8055 1.35652 24 1.84615 24H14.7692C15.2589 24 15.7284 23.8055 16.0747 23.4593C16.4209 23.1131 16.6154 22.6435 16.6154 22.1538V20.3077H18.4615C18.9512 20.3077 19.4207 20.1132 19.767 19.767C20.1132 19.4207 20.3077 18.9512 20.3077 18.4615V5.53846C20.3078 5.41721 20.284 5.29712 20.2377 5.18506C20.1913 5.07301 20.1234 4.97117 20.0377 4.88538ZM14.7692 22.1538H1.84615V5.53846H10.695L14.7692 9.61269V22.1538ZM18.4615 18.4615H16.6154V9.23077C16.6155 9.10951 16.5917 8.98943 16.5454 8.87737C16.499 8.76531 16.4311 8.66348 16.3454 8.57769L11.73 3.96231C11.6442 3.87661 11.5424 3.80866 11.4303 3.76234C11.3183 3.71601 11.1982 3.69221 11.0769 3.69231H5.53846V1.84615H14.3873L18.4615 5.92038V18.4615ZM12 14.7692C12 15.014 11.9027 15.2488 11.7296 15.4219C11.5565 15.5951 11.3217 15.6923 11.0769 15.6923H5.53846C5.29365 15.6923 5.05886 15.5951 4.88575 15.4219C4.71264 15.2488 4.61538 15.014 4.61538 14.7692C4.61538 14.5244 4.71264 14.2896 4.88575 14.1165C5.05886 13.9434 5.29365 13.8462 5.53846 13.8462H11.0769C11.3217 13.8462 11.5565 13.9434 11.7296 14.1165C11.9027 14.2896 12 14.5244 12 14.7692ZM12 18.4615C12 18.7064 11.9027 18.9411 11.7296 19.1143C11.5565 19.2874 11.3217 19.3846 11.0769 19.3846H5.53846C5.29365 19.3846 5.05886 19.2874 4.88575 19.1143C4.71264 18.9411 4.61538 18.7064 4.61538 18.4615C4.61538 18.2167 4.71264 17.9819 4.88575 17.8088C5.05886 17.6357 5.29365 17.5385 5.53846 17.5385H11.0769C11.3217 17.5385 11.5565 17.6357 11.7296 17.8088C11.9027 17.9819 12 18.2167 12 18.4615Z" fill="#1F1F1F"/>
</svg>
