<svg width="29" height="30" viewBox="0 0 29 30" fill="none" xmlns="http://www.w3.org/2000/svg">
<path d="M14.2205 3.57753C14.2205 3.69252 14.1183 3.79474 14.0033 3.79474C13.8883 3.79474 13.7861 3.69252 13.7861 3.57753V0.217207C13.7861 0.102215 13.8883 0 14.0033 0C14.1183 0 14.2205 0.102215 14.2205 0.217207V3.57753Z" fill="#C7CFF2"/>
<path d="M15.7923 2.05715H14.2207V0.447266H15.7923L15.3323 1.25221L15.7923 2.05715Z" fill="#D9DDF9"/>
<path d="M27.3426 10.4395H0.677246V27.5733H27.3426V10.4395Z" fill="#D9DDF9"/>
<path d="M28.0197 27.5703H0V29.9979H28.0197V27.5703Z" fill="#BBC5EA"/>
<path d="M28.0197 8.00977H0V10.4374H28.0197V8.00977Z" fill="#BBC5EA"/>
<path d="M4.17809 10.4355H2.0188V27.5694H4.17809V10.4355Z" fill="#C5CCEF"/>
<path d="M4.6637 10.7677C4.6637 10.9466 4.51038 11.0999 4.33151 11.0999H1.87834C1.69947 11.0999 1.54614 10.9466 1.54614 10.7677C1.54614 10.5889 1.69947 10.4355 1.87834 10.4355H4.34428C4.52316 10.4355 4.6637 10.5761 4.6637 10.7677Z" fill="#9CACE5"/>
<path d="M4.6637 27.2365C4.6637 27.4154 4.51038 27.5687 4.33151 27.5687H1.87834C1.69947 27.5687 1.54614 27.4154 1.54614 27.2365C1.54614 27.0576 1.69947 26.9043 1.87834 26.9043H4.34428C4.52316 26.9043 4.6637 27.0576 4.6637 27.2365Z" fill="#9CACE5"/>
<path d="M8.81628 10.4355H6.65698V27.5694H8.81628V10.4355Z" fill="#C5CCEF"/>
<path d="M9.30173 10.7677C9.30173 10.9466 9.1484 11.0999 8.96953 11.0999H6.50359C6.32471 11.0999 6.17139 10.9466 6.17139 10.7677C6.17139 10.5889 6.32471 10.4355 6.50359 10.4355H8.96953C9.1484 10.4355 9.30173 10.5761 9.30173 10.7677Z" fill="#9CACE5"/>
<path d="M9.30173 27.2365C9.30173 27.4154 9.1484 27.5687 8.96953 27.5687H6.50359C6.32471 27.5687 6.17139 27.4154 6.17139 27.2365C6.17139 27.0576 6.32471 26.9043 6.50359 26.9043H8.96953C9.1484 26.9043 9.30173 27.0576 9.30173 27.2365Z" fill="#9CACE5"/>
<path d="M21.3632 10.4355H19.2039V27.5694H21.3632V10.4355Z" fill="#C5CCEF"/>
<path d="M21.8486 10.7677C21.8486 10.9466 21.6953 11.0999 21.5164 11.0999H19.0505C18.8716 11.0999 18.7183 10.9466 18.7183 10.7677C18.7183 10.5889 18.8716 10.4355 19.0505 10.4355H21.5164C21.6953 10.4355 21.8486 10.5761 21.8486 10.7677Z" fill="#9CACE5"/>
<path d="M21.8486 27.2365C21.8486 27.4154 21.6953 27.5687 21.5164 27.5687H19.0505C18.8716 27.5687 18.7183 27.4154 18.7183 27.2365C18.7183 27.0576 18.8716 26.9043 19.0505 26.9043H21.5164C21.6953 26.9043 21.8486 27.0576 21.8486 27.2365Z" fill="#9CACE5"/>
<path d="M25.9884 10.4355H23.8291V27.5694H25.9884V10.4355Z" fill="#C5CCEF"/>
<path d="M26.4738 10.7677C26.4738 10.9466 26.3205 11.0999 26.1416 11.0999H23.6757C23.4968 11.0999 23.3435 10.9466 23.3435 10.7677C23.3435 10.5889 23.4968 10.4355 23.6757 10.4355H26.1416C26.3333 10.4355 26.4738 10.5761 26.4738 10.7677Z" fill="#9CACE5"/>
<path d="M26.4738 27.2365C26.4738 27.4154 26.3205 27.5687 26.1416 27.5687H23.6757C23.4968 27.5687 23.3435 27.4154 23.3435 27.2365C23.3435 27.0576 23.4968 26.9043 23.6757 26.9043H26.1416C26.3333 26.9043 26.4738 27.0576 26.4738 27.2365Z" fill="#9CACE5"/>
<path d="M16.904 27.5718V20.7617C16.904 19.1646 15.6007 17.8613 14.0036 17.8613C12.4065 17.8613 11.1033 19.1646 11.1033 20.7617V27.5718H16.904Z" fill="#C5CCEF"/>
<path d="M14.0035 3.32227L0.677246 8.01139H14.0035H27.3426L14.0035 3.32227Z" fill="#C7CFF2"/>
<path d="M14.0035 3.89648L3.97363 7.42291H14.0035H24.0461L14.0035 3.89648Z" fill="#D9DDF9"/>
</svg>
