<svg width="30" height="30" viewBox="0 0 30 30" fill="none" xmlns="http://www.w3.org/2000/svg">
<g id="Lock">
<path id="Vector" d="M8.75 12.536C9.33927 12.5 10.0657 12.5 11 12.5H19C19.9342 12.5 20.6608 12.5 21.25 12.536M8.75 12.536C8.0146 12.5809 7.49286 12.6819 7.04754 12.9087C6.34193 13.2682 5.76825 13.8419 5.40873 14.5475C5 15.3497 5 16.3998 5 18.5V20.25C5 22.3503 5 23.4002 5.40873 24.2025C5.76825 24.9081 6.34193 25.4818 7.04754 25.8413C7.8497 26.25 8.8998 26.25 11 26.25H19C21.1002 26.25 22.1502 26.25 22.9525 25.8413C23.6581 25.4818 24.2318 24.9081 24.5913 24.2025C25 23.4002 25 22.3503 25 20.25V18.5C25 16.3998 25 15.3497 24.5913 14.5475C24.2318 13.8419 23.6581 13.2682 22.9525 12.9087C22.5071 12.6819 21.9854 12.5809 21.25 12.536M8.75 12.536V10C8.75 6.54822 11.5482 3.75 15 3.75C18.4517 3.75 21.25 6.54822 21.25 10V12.536" stroke="#817F7F" stroke-width="2" stroke-linecap="round" stroke-linejoin="round"/>
</g>
</svg>
