<svg width="35" height="35" viewBox="0 0 35 35" fill="none" xmlns="http://www.w3.org/2000/svg">
<rect width="35" height="35" rx="12" fill="#F96262"/>
<path d="M22.5 26.25H16.5C16.3011 26.25 16.1103 26.171 15.9697 26.0303C15.829 25.8897 15.75 25.6989 15.75 25.5C15.75 25.3011 15.829 25.1103 15.9697 24.9697C16.1103 24.829 16.3011 24.75 16.5 24.75H22.5C22.5663 24.75 22.6299 24.7237 22.6768 24.6768C22.7237 24.6299 22.75 24.5663 22.75 24.5V22.5C22.75 22.3011 22.829 22.1103 22.9697 21.9697C23.1103 21.829 23.3011 21.75 23.5 21.75C23.6989 21.75 23.8897 21.829 24.0303 21.9697C24.171 22.1103 24.25 22.3011 24.25 22.5V24.5C24.2474 24.9633 24.0622 25.4069 23.7345 25.7345C23.4069 26.0622 22.9633 26.2474 22.5 26.25Z" fill="white"/>
<path d="M23.5 13.25C23.3019 13.2474 23.1126 13.1676 22.9725 13.0275C22.8324 12.8874 22.7526 12.6981 22.75 12.5V10.5C22.75 10.4337 22.7237 10.3701 22.6768 10.3232C22.6299 10.2763 22.5663 10.25 22.5 10.25H16.5C16.3011 10.25 16.1103 10.171 15.9697 10.0303C15.829 9.88968 15.75 9.69891 15.75 9.5C15.75 9.30109 15.829 9.11032 15.9697 8.96967C16.1103 8.82902 16.3011 8.75 16.5 8.75H22.5C22.9633 8.75263 23.4069 8.93784 23.7345 9.26546C24.0622 9.59309 24.2474 10.0367 24.25 10.5V12.5C24.2474 12.6981 24.1676 12.8874 24.0275 13.0275C23.8874 13.1676 23.6981 13.2474 23.5 13.25Z" fill="white"/>
<path d="M27.19 17.2098C27.1521 17.1206 27.0978 17.0392 27.03 16.9698L25.03 14.9698C24.8878 14.8374 24.6998 14.7652 24.5055 14.7687C24.3112 14.7721 24.1258 14.8508 23.9884 14.9882C23.851 15.1256 23.7723 15.311 23.7688 15.5053C23.7654 15.6996 23.8375 15.8877 23.97 16.0298L24.69 16.7498H19.5C19.3011 16.7498 19.1103 16.8289 18.9697 16.9695C18.829 17.1102 18.75 17.3009 18.75 17.4998C18.75 17.6988 18.829 17.8895 18.9697 18.0302C19.1103 18.1708 19.3011 18.2498 19.5 18.2498H24.69L23.97 18.9698C23.8295 19.1105 23.7507 19.3011 23.7507 19.4998C23.7507 19.6986 23.8295 19.8892 23.97 20.0298C24.1106 20.1703 24.3012 20.2492 24.5 20.2492C24.6988 20.2492 24.8894 20.1703 25.03 20.0298L27.03 18.0298C27.0978 17.9605 27.1521 17.8791 27.19 17.7898C27.2296 17.6983 27.2501 17.5996 27.2501 17.4998C27.2501 17.4001 27.2296 17.3014 27.19 17.2098Z" fill="white"/>
<path d="M16.58 8.39992C16.3707 8.23619 16.1268 8.12228 15.8669 8.06683C15.607 8.01139 15.3379 8.01586 15.08 8.07992L9.08 9.57992C8.70018 9.67382 8.36278 9.89229 8.1217 10.2004C7.88061 10.5086 7.74974 10.8887 7.75 11.2799V23.7199C7.74974 24.1112 7.88061 24.4912 8.1217 24.7994C8.36278 25.1075 8.70018 25.326 9.08 25.4199L15.08 26.9199C15.2196 26.9347 15.3604 26.9347 15.5 26.9199C15.7302 26.9212 15.9583 26.8769 16.1713 26.7894C16.3842 26.7019 16.5776 26.5731 16.7404 26.4103C16.9032 26.2475 17.032 26.0541 17.1195 25.8412C17.207 25.6283 17.2513 25.4001 17.25 25.1699V9.77992C17.249 9.51437 17.1883 9.25244 17.0723 9.01356C16.9563 8.77467 16.788 8.56495 16.58 8.39992Z" fill="white"/>
</svg>
