<svg width="158" height="186" viewBox="0 0 158 186" fill="none" xmlns="http://www.w3.org/2000/svg">
<path fill-rule="evenodd" clip-rule="evenodd" d="M141.5 104.803H16.5V162.653C16.4997 163.997 16.9328 165.306 17.735 166.384C18.5371 167.463 19.6657 168.254 20.9531 168.641L77.2031 185.516C78.3755 185.866 79.6245 185.866 80.7969 185.516L137.047 168.641C138.334 168.254 139.463 167.463 140.265 166.384C141.067 165.306 141.5 163.997 141.5 162.653V104.803Z" fill="url(#paint0_linear_4602_9646)"/>
<path fill-rule="evenodd" clip-rule="evenodd" d="M141.5 104.803H78.9999C78.9999 104.803 78.3937 185.778 78.9999 185.778C79.6062 185.778 80.2093 185.691 80.7968 185.516L137.047 168.641C138.334 168.254 139.463 167.463 140.265 166.384C141.067 165.306 141.5 163.997 141.5 162.653V104.803Z" fill="url(#paint1_linear_4602_9646)"/>
<path fill-rule="evenodd" clip-rule="evenodd" d="M78.9999 125.081L16.4999 104.803L0.640549 128.316C0.369459 128.717 0.19533 129.176 0.131903 129.656C0.0684757 130.136 0.117486 130.624 0.275067 131.082C0.432648 131.54 0.694488 131.955 1.03992 132.294C1.38536 132.634 1.80494 132.888 2.26555 133.037L58.4999 151.306C59.1442 151.516 59.8392 151.51 60.48 151.29C61.1209 151.07 61.673 150.648 62.053 150.087L78.9999 125.081Z" fill="url(#paint2_linear_4602_9646)"/>
<path fill-rule="evenodd" clip-rule="evenodd" d="M141.5 104.803L79 125.081L95.9469 150.087C96.327 150.648 96.879 151.07 97.5199 151.29C98.1607 151.51 98.8557 151.516 99.5 151.306L155.734 133.037C156.195 132.888 156.615 132.634 156.96 132.294C157.305 131.955 157.567 131.54 157.725 131.082C157.882 130.624 157.931 130.136 157.868 129.656C157.805 129.176 157.63 128.717 157.359 128.316L141.5 104.803Z" fill="url(#paint3_linear_4602_9646)"/>
<path fill-rule="evenodd" clip-rule="evenodd" d="M63.8718 62.2063C63.491 61.6472 62.9391 61.2267 62.299 61.0081C61.6588 60.7894 60.965 60.7844 60.3218 60.9937L4.0843 79.2656C3.62336 79.4141 3.20333 79.6679 2.85749 80.0069C2.51165 80.3459 2.24951 80.7608 2.09183 81.2187C1.93415 81.6765 1.88526 82.1648 1.94904 82.6449C2.01283 83.125 2.18752 83.5836 2.4593 83.9844L16.4999 104.803L78.9999 84.4563L63.8718 62.2063Z" fill="url(#paint4_linear_4602_9646)"/>
<path fill-rule="evenodd" clip-rule="evenodd" d="M155.541 83.9844C155.811 83.5832 155.985 83.1247 156.048 82.645C156.111 82.1653 156.062 81.6775 155.904 81.22C155.747 80.7625 155.485 80.3479 155.14 80.0087C154.795 79.6696 154.376 79.4152 153.916 79.2656L97.6781 60.9937C97.0349 60.7844 96.3411 60.7894 95.7009 61.0081C95.0608 61.2267 94.5089 61.6472 94.1281 62.2063L79 84.4563L141.5 104.803L155.541 83.9844Z" fill="url(#paint5_linear_4602_9646)"/>
<path fill-rule="evenodd" clip-rule="evenodd" d="M141.5 104.803L79 84.4563L16.5 104.803L79 125.081L141.5 104.803Z" fill="url(#paint6_linear_4602_9646)"/>
<path fill-rule="evenodd" clip-rule="evenodd" d="M79 125.081V84.4563L16.5 104.803L79 125.081Z" fill="url(#paint7_linear_4602_9646)"/>
<path fill-rule="evenodd" clip-rule="evenodd" d="M66.4437 93.4313C65.2014 92.6237 64.0267 91.7166 62.9312 90.7188C62.3171 90.182 61.5174 89.9067 60.703 89.9515C59.8886 89.9963 59.124 90.3577 58.5725 90.9586C58.0209 91.5595 57.7262 92.3522 57.7512 93.1675C57.7762 93.9827 58.1189 94.7559 58.7062 95.3219C59.9843 96.4969 61.425 97.6157 63.025 98.6625C63.7186 99.1012 64.557 99.2495 65.359 99.0752C66.161 98.9009 66.8623 98.418 67.3113 97.731C67.7603 97.044 67.9209 96.2079 67.7586 95.4034C67.5963 94.5988 67.124 93.8905 66.4437 93.4313ZM56.7062 83.8313C55.8181 82.6345 55.03 81.3667 54.35 80.0407C53.9741 79.3018 53.3201 78.7425 52.5319 78.4858C51.7436 78.2291 50.8857 78.296 50.1468 78.6719C49.408 79.0478 48.8486 79.7018 48.592 80.49C48.3353 81.2782 48.4022 82.1362 48.7781 82.875C49.5718 84.4313 50.5343 85.9907 51.675 87.5375C52.1725 88.1881 52.9056 88.6173 53.7165 88.7328C54.5273 88.8482 55.3511 88.6408 56.0105 88.155C56.67 87.6693 57.1123 86.944 57.2424 86.1354C57.3725 85.3268 57.18 84.4994 56.7062 83.8313ZM52.1375 71.0782C52.1687 69.8188 52.3531 68.5969 52.6906 67.425C52.8036 67.0305 52.8379 66.6175 52.7913 66.2097C52.7448 65.8018 52.6184 65.4072 52.4193 65.0482C52.2202 64.6893 51.9524 64.3731 51.6311 64.1176C51.3099 63.8621 50.9414 63.6725 50.5468 63.5594C50.1522 63.4464 49.7393 63.4121 49.3315 63.4587C48.9236 63.5052 48.529 63.6316 48.17 63.8307C47.8111 64.0298 47.4948 64.2976 47.2394 64.6189C46.9839 64.9401 46.7943 65.3086 46.6812 65.7032C46.1978 67.4024 45.9311 69.1558 45.8875 70.9219C45.8667 71.7507 46.1761 72.5538 46.7475 73.1545C47.3189 73.7552 48.1055 74.1043 48.9343 74.125C49.7631 74.1458 50.5662 73.8364 51.1669 73.265C51.7676 72.6936 52.1167 71.907 52.1375 71.0782ZM56.9437 60.6407C57.7468 59.8969 58.6468 59.2094 59.6312 58.5875C59.9784 58.3686 60.279 58.0834 60.516 57.7483C60.753 57.4132 60.9216 57.0346 61.0123 56.6343C61.103 56.234 61.1139 55.8198 61.0445 55.4152C60.9751 55.0107 60.8267 54.6238 60.6078 54.2766C60.3888 53.9294 60.1036 53.6288 59.7685 53.3918C59.4334 53.1548 59.0549 52.9862 58.6546 52.8955C58.2542 52.8048 57.84 52.7939 57.4355 52.8633C57.0309 52.9327 56.644 53.0811 56.2968 53.3C55.0144 54.1058 53.8092 55.0284 52.6968 56.0563C52.1042 56.6232 51.7582 57.4004 51.7335 58.2201C51.7087 59.0399 52.0072 59.8365 52.5646 60.4381C53.1219 61.0397 53.8934 61.3982 54.7127 61.4361C55.5319 61.474 56.3332 61.1883 56.9437 60.6407ZM68.5656 55.25C70.215 54.9488 71.8838 54.765 73.5593 54.7C74.3679 54.6376 75.1205 54.2637 75.6587 53.657C76.1968 53.0504 76.4784 52.2585 76.4439 51.4483C76.4095 50.6381 76.0617 49.8729 75.474 49.3142C74.8863 48.7554 74.1046 48.4467 73.2937 48.4532C71.2312 48.5407 69.275 48.7625 67.4281 49.1032C66.613 49.254 65.8911 49.7225 65.4214 50.4055C64.9517 51.0886 64.7726 51.9302 64.9234 52.7453C65.0742 53.5605 65.5427 54.2823 66.2257 54.752C66.9088 55.2217 67.7505 55.4009 68.5656 55.25ZM84.8531 55.0657C87.5187 55.0969 90 55.0032 92.3031 54.8C93.121 54.7172 93.8734 54.3154 94.3971 53.6816C94.9208 53.0479 95.1737 52.2333 95.1009 51.4144C95.0281 50.5955 94.6356 49.8382 94.0084 49.3067C93.3811 48.7753 92.5697 48.5124 91.75 48.575C89.6406 48.7594 87.3687 48.8469 84.925 48.8157C84.0962 48.8061 83.2975 49.1262 82.7047 49.7055C82.1119 50.2849 81.7735 51.0759 81.764 51.9047C81.7545 52.7335 82.0746 53.5322 82.6539 54.125C83.2332 54.7178 84.0243 55.0561 84.8531 55.0657ZM102.575 52.8844C105.669 51.9375 108.281 50.725 110.469 49.3344C110.815 49.1138 111.114 48.8272 111.35 48.491C111.585 48.1547 111.752 47.7754 111.841 47.3746C111.929 46.9739 111.938 46.5596 111.867 46.1554C111.796 45.7512 111.646 45.3649 111.425 45.0188C111.204 44.6726 110.918 44.3733 110.582 44.1379C110.245 43.9025 109.866 43.7357 109.465 43.6469C109.064 43.5581 108.65 43.5491 108.246 43.6204C107.842 43.6917 107.455 43.842 107.109 44.0625C105.126 45.2923 102.986 46.2488 100.747 46.9063C99.9541 47.1487 99.2901 47.6961 98.901 48.4281C98.5118 49.1601 98.4294 50.0167 98.6718 50.8094C98.9142 51.6022 99.4617 52.2661 100.194 52.6553C100.926 53.0444 101.782 53.1268 102.575 52.8844ZM118.481 40.5875C119.887 37.6669 120.539 34.4406 120.378 31.2032C120.359 30.7932 120.259 30.391 120.085 30.0195C119.91 29.6481 119.664 29.3146 119.361 29.0382C119.058 28.7618 118.703 28.5479 118.317 28.4086C117.931 28.2694 117.521 28.2075 117.111 28.2266C116.701 28.2457 116.299 28.3453 115.927 28.5198C115.556 28.6944 115.222 28.9403 114.946 29.2437C114.67 29.5471 114.456 29.902 114.316 30.288C114.177 30.6741 114.115 31.0838 114.134 31.4938C114.247 33.6925 113.806 35.8843 112.853 37.8688C112.534 38.6092 112.513 39.4442 112.795 40.1996C113.077 40.9549 113.639 41.5723 114.365 41.923C115.091 42.2737 115.925 42.3305 116.691 42.0817C117.458 41.8329 118.099 41.2976 118.481 40.5875ZM116.491 20.1532C114.212 17.075 111.122 14.9313 107.753 14.2407C106.954 14.1053 106.133 14.2857 105.464 14.7439C104.795 15.202 104.33 15.9021 104.167 16.6964C104.004 17.4908 104.156 18.3173 104.59 19.0019C105.025 19.6864 105.709 20.1753 106.497 20.3657C108.441 20.7625 110.153 22.0969 111.469 23.875C111.713 24.2048 112.02 24.4832 112.372 24.6943C112.724 24.9054 113.114 25.0451 113.52 25.1055C113.926 25.1658 114.34 25.1456 114.738 25.0461C115.136 24.9465 115.511 24.7694 115.841 24.525C116.17 24.2807 116.449 23.9737 116.66 23.6218C116.871 23.2698 117.011 22.8797 117.071 22.4737C117.131 22.0678 117.111 21.6539 117.012 21.2557C116.912 20.8576 116.735 20.4829 116.491 20.1532Z" fill="#F96262"/>
<path fill-rule="evenodd" clip-rule="evenodd" d="M75.6655 14.8469C79.0468 -4.30001 108.35 -3.06251 91.2905 14.8469H75.6655Z" fill="url(#paint8_linear_4602_9646)"/>
<path fill-rule="evenodd" clip-rule="evenodd" d="M75.6655 19.6969C79.0468 38.8406 108.35 37.6063 91.2905 19.6969H75.6655Z" fill="url(#paint9_linear_4602_9646)"/>
<path fill-rule="evenodd" clip-rule="evenodd" d="M75.3843 20.4281H96.3093C97.1381 20.4281 97.933 20.0989 98.519 19.5128C99.1051 18.9268 99.4343 18.1319 99.4343 17.3031C99.4343 16.4743 99.1051 15.6794 98.519 15.0934C97.933 14.5073 97.1381 14.1781 96.3093 14.1781H75.3843C74.5797 14.2141 73.82 14.5591 73.2633 15.1412C72.7067 15.7233 72.396 16.4977 72.396 17.3031C72.396 18.1085 72.7067 18.8829 73.2633 19.465C73.82 20.0471 74.5797 20.3921 75.3843 20.4281Z" fill="url(#paint10_linear_4602_9646)"/>
<defs>
<linearGradient id="paint0_linear_4602_9646" x1="16.5" y1="145.291" x2="141.5" y2="145.291" gradientUnits="userSpaceOnUse">
<stop stop-color="#FFCECE"/>
<stop offset="1" stop-color="#F96262"/>
</linearGradient>
<linearGradient id="paint1_linear_4602_9646" x1="78.7312" y1="145.291" x2="141.5" y2="145.291" gradientUnits="userSpaceOnUse">
<stop stop-color="#BA7777"/>
<stop offset="1" stop-color="#F96262"/>
</linearGradient>
<linearGradient id="paint2_linear_4602_9646" x1="16.9155" y1="104.778" x2="25.6507" y2="162.57" gradientUnits="userSpaceOnUse">
<stop stop-color="#FFD6D6"/>
<stop offset="1" stop-color="#F96262"/>
</linearGradient>
<linearGradient id="paint3_linear_4602_9646" x1="79.2531" y1="124.869" x2="145.14" y2="162.762" gradientUnits="userSpaceOnUse">
<stop stop-color="#FFD6D6"/>
<stop offset="1" stop-color="#F96262"/>
</linearGradient>
<linearGradient id="paint4_linear_4602_9646" x1="8.31867" y1="92.675" x2="17.7469" y2="48.2303" gradientUnits="userSpaceOnUse">
<stop stop-color="#FFD6D6"/>
<stop offset="1" stop-color="#F96262"/>
</linearGradient>
<linearGradient id="paint5_linear_4602_9646" x1="95.7313" y1="60.2406" x2="99.1025" y2="115.099" gradientUnits="userSpaceOnUse">
<stop stop-color="#FFD6D6"/>
<stop offset="1" stop-color="#F96262"/>
</linearGradient>
<linearGradient id="paint6_linear_4602_9646" x1="16.5" y1="104.769" x2="141.5" y2="104.769" gradientUnits="userSpaceOnUse">
<stop stop-color="#FFCECE"/>
<stop offset="1" stop-color="#F96262"/>
</linearGradient>
<linearGradient id="paint7_linear_4602_9646" x1="85.4281" y1="83.5568" x2="86.7747" y2="134.036" gradientUnits="userSpaceOnUse">
<stop stop-color="#BA7777"/>
<stop offset="1" stop-color="#F96262"/>
</linearGradient>
<linearGradient id="paint8_linear_4602_9646" x1="75.6655" y1="7.89687" x2="96.5874" y2="7.89687" gradientUnits="userSpaceOnUse">
<stop stop-color="#FFD6D6"/>
<stop offset="1" stop-color="#F96262"/>
</linearGradient>
<linearGradient id="paint9_linear_4602_9646" x1="75.6655" y1="26.6469" x2="96.5874" y2="26.6469" gradientUnits="userSpaceOnUse">
<stop stop-color="#FFD6D6"/>
<stop offset="1" stop-color="#F96262"/>
</linearGradient>
<linearGradient id="paint10_linear_4602_9646" x1="44.597" y1="14.8463" x2="106.234" y2="87.5753" gradientUnits="userSpaceOnUse">
<stop stop-color="#F96262"/>
<stop offset="1" stop-color="#F96262"/>
</linearGradient>
</defs>
</svg>
