<svg width="258" height="211" viewBox="0 0 258 211" fill="none" xmlns="http://www.w3.org/2000/svg">
<defs>
<linearGradient id="paint0_linear_926_5009" x1="-1212.11" y1="216.593" x2="322.508" y2="-238.272" gradientUnits="userSpaceOnUse">
<stop stop-color="#00589F"/>
<stop offset="0.5054" stop-color="#38AAA0"/>
<stop offset="1" stop-color="#CCF86F"/>
</linearGradient>
<linearGradient id="paint1_linear_926_5009" x1="-5.04732" y1="-272" x2="-5.04732" y2="39.472" gradientUnits="userSpaceOnUse">
<stop stop-color="#F4BB1B"/>
<stop offset="0.4875" stop-color="#F4BB1B"/>
<stop offset="0.669792" stop-color="#F4BB1B"/>
<stop offset="1" stop-color="#F4BB1B"/>
</linearGradient>
<linearGradient id="paint2_linear_926_5009" x1="80.4416" y1="56.2446" x2="79.8599" y2="-261.65" gradientUnits="userSpaceOnUse">
<stop stop-color="#2D61AD"/>
<stop offset="0.1292" stop-color="#2C68B2"/>
<stop offset="0.3576" stop-color="#2A7ABF"/>
<stop offset="0.6584" stop-color="#2698D2"/>
<stop offset="1" stop-color="#29BBE7"/>
</linearGradient>
<linearGradient id="paint3_linear_926_5009" x1="-350.097" y1="-32.5757" x2="635.582" y2="191.639" gradientUnits="userSpaceOnUse">
<stop stop-color="#1837D8"/>
<stop offset="0.5074" stop-color="#00C1FF"/>
<stop offset="1" stop-color="#70E6FF"/>
</linearGradient>
<linearGradient id="paint4_linear_926_5009" x1="287.01" y1="-14.7358" x2="-146.554" y2="203.676" gradientUnits="userSpaceOnUse">
<stop stop-color="#E94531"/>
<stop offset="1" stop-color="#F09185"/>
</linearGradient>
<linearGradient id="paint5_linear_926_5009" x1="-209.469" y1="-543.352" x2="30.6545" y2="648.621" gradientUnits="userSpaceOnUse">
<stop stop-color="#DD4874"/>
<stop offset="0.5269" stop-color="#F28859"/>
<stop offset="1" stop-color="#FAE65B"/>
</linearGradient>
</defs>
<g opacity="0.25">
<path fill-rule="evenodd" clip-rule="evenodd" d="M-18.5382 17.3205C-11.6525 13.8896 -7.63628 12.2113 -1.04169 8.29007C5.52637 4.38464 11.3696 1.43411 17.8007 -2.67543C27.8949 -9.12573 55.6439 -19.7681 55.6439 -38.474C55.6439 -68.7904 -18.5382 -104.267 -64.8151 -127.776C-88.8712 -137.124 -96.5919 -132.45 -100.005 -109.236C-106.588 -64.4438 -106.182 -18.7946 -98.9488 26.0755C-96.1856 42.9797 -89.115 47.4979 -72.9422 41.5775C-51.1616 33.3981 -39.3292 27.6798 -18.5382 17.3205Z" fill="#EC6656"/>
<path fill-rule="evenodd" clip-rule="evenodd" d="M-137.993 -185.098C-37.7644 -162.712 53.3381 -112.126 123.906 -39.8619C152.589 -10.0921 168.398 21.7986 162.368 39.472C175.161 27.7682 187.384 15.4362 199.118 2.47568C230.735 -31.85 230.735 -47.8738 199.118 -82.1995C109.727 -180.149 -11.6885 -246.523 -145.083 -270.558C-180.367 -276.685 -200.494 -262.939 -210.517 -235.84C-219.888 -210.783 -227.385 -185.334 -232.926 -159.177C-227.222 -183.841 -189.33 -196.173 -137.993 -185.098Z" fill="url(#paint0_linear_926_5009)"/>
<path fill-rule="evenodd" clip-rule="evenodd" d="M-137.993 -185.098C-37.7644 -162.712 53.3381 -112.126 123.906 -39.8619C152.589 -10.0921 168.398 21.7986 162.368 39.472C175.161 27.7682 187.384 15.4362 199.118 2.47568C230.735 -31.85 230.735 -47.8738 199.118 -82.1995C109.727 -180.149 -11.6885 -246.523 -145.083 -270.558C-180.367 -276.685 -200.494 -262.939 -210.517 -235.84C-219.888 -210.783 -227.385 -185.334 -232.926 -159.177C-227.222 -183.841 -189.33 -196.173 -137.993 -185.098Z" fill="url(#paint1_linear_926_5009)"/>
<path fill-rule="evenodd" clip-rule="evenodd" d="M-137.993 -185.098C-37.7644 -162.712 53.3381 -112.126 123.906 -39.8619C152.589 -10.0921 168.398 21.7986 162.368 39.472C175.161 27.7682 187.384 15.4362 199.118 2.47568C230.735 -31.85 230.735 -47.8738 199.118 -82.1995C109.727 -180.149 -11.6885 -246.523 -145.083 -270.558C-180.367 -276.685 -200.494 -262.939 -210.517 -235.84C-219.888 -210.783 -227.385 -185.334 -232.926 -159.177C-227.222 -183.841 -189.33 -196.173 -137.993 -185.098Z" fill="url(#paint2_linear_926_5009)"/>
<path fill-rule="evenodd" clip-rule="evenodd" d="M127.408 -36.9517C51.5553 28.9962 -77.2228 91.3272 -178.375 105.545C-177.933 156.934 -149.468 184.638 -113.554 177.029C-5.76879 152.276 127.184 80.0915 206.187 4.40695C227.199 -15.7558 232.212 -40.3872 211.338 -68.4135C199.114 -84.6903 184.109 -98.8833 168.799 -113.146C178.354 -92.0249 162.746 -66.1129 127.408 -36.9517Z" fill="url(#paint3_linear_926_5009)"/>
<path fill-rule="evenodd" clip-rule="evenodd" d="M127.408 -36.9517C51.5553 28.9962 -77.2228 91.3272 -178.375 105.545C-177.933 156.934 -149.468 184.638 -113.554 177.029C-5.76879 152.276 127.184 80.0915 206.187 4.40695C227.199 -15.7558 232.212 -40.3872 211.338 -68.4135C199.114 -84.6903 184.109 -98.8833 168.799 -113.146C178.354 -92.0249 162.746 -66.1129 127.408 -36.9517Z" fill="#F4BB1B"/>
<path fill-rule="evenodd" clip-rule="evenodd" d="M127.408 -36.9517C51.5553 28.9962 -77.2228 91.3272 -178.375 105.545C-177.933 156.934 -149.468 184.638 -113.554 177.029C-5.76879 152.276 127.184 80.0915 206.187 4.40695C227.199 -15.7558 232.212 -40.3872 211.338 -68.4135C199.114 -84.6903 184.109 -98.8833 168.799 -113.146C178.354 -92.0249 162.746 -66.1129 127.408 -36.9517Z" fill="url(#paint4_linear_926_5009)"/>
<path fill-rule="evenodd" clip-rule="evenodd" d="M-121.597 124.753C-129.165 100.152 -134.846 74.6666 -139.229 49.0444C-149.227 -9.17959 -151.707 -87.8618 -139.389 -149.45C-211.998 -157.229 -220.783 -143.615 -228.206 -110.552C-235.337 -78.7853 -233.943 80.6969 -192.453 161.085C-176.894 191.555 -161.44 192.137 -137.608 186.566C-117.347 181.83 -96.6017 177.94 -71.9666 165.623C-99.195 169.513 -114.998 146.424 -121.597 124.753Z" fill="url(#paint5_linear_926_5009)"/>
<path fill-rule="evenodd" clip-rule="evenodd" d="M-121.597 124.753C-129.165 100.152 -134.846 74.6666 -139.229 49.0444C-149.227 -9.17959 -151.707 -87.8618 -139.389 -149.45C-211.998 -157.229 -220.783 -143.615 -228.206 -110.552C-235.337 -78.7853 -233.943 80.6969 -192.453 161.085C-176.894 191.555 -161.44 192.137 -137.608 186.566C-117.347 181.83 -96.6017 177.94 -71.9666 165.623C-99.195 169.513 -114.998 146.424 -121.597 124.753Z" fill="#F4BB1B"/>
</g>

</svg>
