<svg width="38" height="38" viewBox="0 0 38 38" fill="none" xmlns="http://www.w3.org/2000/svg">
<defs>
<linearGradient id="paint0_linear_926_12109" x1="20.2235" y1="27.6665" x2="20.1816" y2="12.6773" gradientUnits="userSpaceOnUse">
<stop stop-color="#E94531"/>
<stop offset="1" stop-color="#F09185"/>
</linearGradient>
<linearGradient id="paint1_linear_926_12109" x1="23.7895" y1="47.2403" x2="19.7337" y2="16.7822" gradientUnits="userSpaceOnUse">
<stop offset="0.16" stop-color="#F2CA8C"/>
<stop offset="0.8431" stop-color="#FFE9C9"/>
</linearGradient>
<linearGradient id="paint2_linear_926_12109" x1="16.8686" y1="39.9552" x2="13.4073" y2="13.9614" gradientUnits="userSpaceOnUse">
<stop offset="0.0387338" stop-color="#F2CA8C"/>
<stop offset="0.8431" stop-color="#FFE9C9"/>
</linearGradient>
<linearGradient id="paint3_linear_926_12109" x1="11.3035" y1="35.4994" x2="11.3035" y2="25.5486" gradientUnits="userSpaceOnUse">
<stop stop-color="#FF8600"/>
<stop offset="0.9944" stop-color="#FFC66E"/>
</linearGradient>
<linearGradient id="paint4_linear_926_12109" x1="11.3034" y1="35.1323" x2="11.3034" y2="26.0489" gradientUnits="userSpaceOnUse">
<stop stop-color="#FDE49F"/>
<stop offset="0.9944" stop-color="white"/>
</linearGradient>
<linearGradient id="paint5_linear_926_12109" x1="11.3029" y1="34.7643" x2="11.3029" y2="26.3953" gradientUnits="userSpaceOnUse">
<stop stop-color="#FBB900"/>
<stop offset="0.9944" stop-color="#FFE26E"/>
</linearGradient>
<linearGradient id="paint6_linear_926_12109" x1="30.2393" y1="35.1293" x2="30.2393" y2="27.4533" gradientUnits="userSpaceOnUse">
<stop stop-color="#FF8600"/>
<stop offset="0.9944" stop-color="#FFC66E"/>
</linearGradient>
<linearGradient id="paint7_linear_926_12109" x1="30.2389" y1="34.8435" x2="30.2389" y2="27.8366" gradientUnits="userSpaceOnUse">
<stop stop-color="#FDE49F"/>
<stop offset="0.9944" stop-color="white"/>
</linearGradient>
<linearGradient id="paint8_linear_926_12109" x1="30.2399" y1="34.5577" x2="30.2399" y2="28.1018" gradientUnits="userSpaceOnUse">
<stop stop-color="#FBB900"/>
<stop offset="0.9944" stop-color="#FFE26E"/>
</linearGradient>
<linearGradient id="paint9_linear_926_12109" x1="2.95612" y1="15.0508" x2="0.451415" y2="11.3124" gradientUnits="userSpaceOnUse">
<stop offset="0.048268" stop-color="#D30E39"/>
<stop offset="0.0510475" stop-color="#D30F39"/>
<stop offset="0.2778" stop-color="#EB3A5D"/>
<stop offset="0.393" stop-color="#F44B6A"/>
<stop offset="0.8057" stop-color="#FD9FB9"/>
</linearGradient>
<linearGradient id="paint10_linear_926_12109" x1="1.79224" y1="23.1976" x2="0.999256" y2="20.9611" gradientUnits="userSpaceOnUse">
<stop offset="0.048268" stop-color="#D30E39"/>
<stop offset="0.0510475" stop-color="#D30F39"/>
<stop offset="0.2778" stop-color="#EB3A5D"/>
<stop offset="0.393" stop-color="#F44B6A"/>
<stop offset="0.8057" stop-color="#FD9FB9"/>
</linearGradient>
<linearGradient id="paint11_linear_926_12109" x1="4.78657" y1="18.9763" x2="2.73054" y2="19.4918" gradientUnits="userSpaceOnUse">
<stop offset="0.1111" stop-color="#FBB900"/>
<stop offset="0.1176" stop-color="#FBBA03"/>
<stop offset="0.2106" stop-color="#FCC829"/>
<stop offset="0.303" stop-color="#FED447"/>
<stop offset="0.3934" stop-color="#FEDC5D"/>
<stop offset="0.481" stop-color="#FFE06A"/>
<stop offset="0.5626" stop-color="#FFE26E"/>
<stop offset="0.6505" stop-color="#FFE473"/>
<stop offset="0.7583" stop-color="#FFE982"/>
<stop offset="0.8766" stop-color="#FFF39B"/>
<stop offset="0.9994" stop-color="#FFFFBD"/>
</linearGradient>
<linearGradient id="paint12_linear_926_12109" x1="4.05092" y1="20.6828" x2="4.00533" y2="19.2371" gradientUnits="userSpaceOnUse">
<stop stop-color="#278CCA"/>
<stop offset="0.2778" stop-color="#27A2D8"/>
<stop offset="0.393" stop-color="#28B1E0"/>
<stop offset="0.8057" stop-color="#69D7FF"/>
</linearGradient>
<linearGradient id="paint13_linear_926_12109" x1="1.60927" y1="18.1916" x2="1.6014" y2="17.0588" gradientUnits="userSpaceOnUse">
<stop stop-color="#278CCA"/>
<stop offset="0.2778" stop-color="#27A2D8"/>
<stop offset="0.393" stop-color="#28B1E0"/>
<stop offset="0.8057" stop-color="#69D7FF"/>
</linearGradient>
<linearGradient id="paint14_linear_926_12109" x1="2.81492" y1="19.6835" x2="2.70172" y2="16.9708" gradientUnits="userSpaceOnUse">
<stop stop-color="#278CCA"/>
<stop offset="0.2778" stop-color="#27A2D8"/>
<stop offset="0.393" stop-color="#28B1E0"/>
<stop offset="0.8057" stop-color="#69D7FF"/>
</linearGradient>
<linearGradient id="paint15_linear_926_12109" x1="-0.234577" y1="17.6022" x2="-0.43689" y2="13.8661" gradientUnits="userSpaceOnUse">
<stop stop-color="#278CCA"/>
<stop offset="0.2778" stop-color="#27A2D8"/>
<stop offset="0.393" stop-color="#28B1E0"/>
<stop offset="0.8057" stop-color="#69D7FF"/>
</linearGradient>
<linearGradient id="paint16_linear_926_12109" x1="38.8968" y1="24.6917" x2="33.9312" y2="26.1847" gradientUnits="userSpaceOnUse">
<stop offset="0.1111" stop-color="#FBB900"/>
<stop offset="0.1176" stop-color="#FBBA03"/>
<stop offset="0.2106" stop-color="#FCC829"/>
<stop offset="0.303" stop-color="#FED447"/>
<stop offset="0.3934" stop-color="#FEDC5D"/>
<stop offset="0.481" stop-color="#FFE06A"/>
<stop offset="0.5626" stop-color="#FFE26E"/>
<stop offset="0.6505" stop-color="#FFE473"/>
<stop offset="0.7583" stop-color="#FFE982"/>
<stop offset="0.8766" stop-color="#FFF39B"/>
<stop offset="0.9994" stop-color="#FFFFBD"/>
</linearGradient>
<linearGradient id="paint17_linear_926_12109" x1="37.074" y1="28.2174" x2="36.9954" y2="25.2296" gradientUnits="userSpaceOnUse">
<stop stop-color="#278CCA"/>
<stop offset="0.2778" stop-color="#27A2D8"/>
<stop offset="0.393" stop-color="#28B1E0"/>
<stop offset="0.8057" stop-color="#69D7FF"/>
</linearGradient>
<linearGradient id="paint18_linear_926_12109" x1="38.0646" y1="17.4431" x2="34.4694" y2="19.4858" gradientUnits="userSpaceOnUse">
<stop offset="0.1111" stop-color="#FBB900"/>
<stop offset="0.1176" stop-color="#FBBA03"/>
<stop offset="0.2106" stop-color="#FCC829"/>
<stop offset="0.303" stop-color="#FED447"/>
<stop offset="0.3934" stop-color="#FEDC5D"/>
<stop offset="0.481" stop-color="#FFE06A"/>
<stop offset="0.5626" stop-color="#FFE26E"/>
<stop offset="0.6505" stop-color="#FFE473"/>
<stop offset="0.7583" stop-color="#FFE982"/>
<stop offset="0.8766" stop-color="#FFF39B"/>
<stop offset="0.9994" stop-color="#FFFFBD"/>
</linearGradient>
<linearGradient id="paint19_linear_926_12109" x1="36.4636" y1="19.0819" x2="36.4442" y2="17.6925" gradientUnits="userSpaceOnUse">
<stop stop-color="#278CCA"/>
<stop offset="0.2778" stop-color="#27A2D8"/>
<stop offset="0.393" stop-color="#28B1E0"/>
<stop offset="0.8057" stop-color="#69D7FF"/>
</linearGradient>
<linearGradient id="paint20_linear_926_12109" x1="37.5959" y1="20.4617" x2="41.0623" y2="20.8394" gradientUnits="userSpaceOnUse">
<stop offset="0.048268" stop-color="#D30E39"/>
<stop offset="0.0510475" stop-color="#D30F39"/>
<stop offset="0.2778" stop-color="#EB3A5D"/>
<stop offset="0.393" stop-color="#F44B6A"/>
<stop offset="0.8057" stop-color="#FD9FB9"/>
</linearGradient>
<linearGradient id="paint21_linear_926_12109" x1="38.5175" y1="22.6892" x2="37.4251" y2="19.7894" gradientUnits="userSpaceOnUse">
<stop offset="0.048268" stop-color="#D30E39"/>
<stop offset="0.0510475" stop-color="#D30F39"/>
<stop offset="0.2778" stop-color="#EB3A5D"/>
<stop offset="0.393" stop-color="#F44B6A"/>
<stop offset="0.8057" stop-color="#FD9FB9"/>
</linearGradient>
</defs>
<circle cx="19" cy="19" r="19" fill="#FFC8C8"/>
<mask id="mask0_926_12109" style="mask-type:alpha" maskUnits="userSpaceOnUse" x="0" y="0" width="38" height="38">
<circle cx="19" cy="19" r="19" fill="#FFC8C8"/>
</mask>
<g mask="url(#mask0_926_12109)">
<path d="M33.4513 21.3594H6.09488C5.6348 21.3594 5.26367 21.7287 5.26367 22.1865V35.5556H34.2825V22.1865C34.2825 21.7318 33.9083 21.3594 33.4513 21.3594Z" fill="#FAB3B3"/>
<path d="M36.0198 19.6613L33.7082 25.6689C33.1004 25.4356 32.4189 25.7364 32.1856 26.3443L22.7582 22.7188L18.525 21.0888C18.7583 20.4809 18.4544 19.7994 17.8496 19.5661L20.1612 13.5585C20.2379 13.3559 20.3669 13.1871 20.5234 13.0612C20.8396 12.8064 21.2786 12.7235 21.6838 12.8801L35.3444 18.1387C35.9523 18.372 36.2531 19.0535 36.0198 19.6613Z" fill="url(#paint0_linear_926_12109)"/>
<path d="M32.8609 27.871L26.8379 43.524C26.6046 44.1318 25.9231 44.4357 25.3153 44.1993L14.4543 40.0183L11.6546 38.9408C11.0468 38.7075 10.7429 38.026 10.9793 37.4181L16.9992 21.7652C17.607 21.9985 18.2885 21.6977 18.5218 21.0898L22.7551 22.7199L32.1824 26.3484C31.9522 26.9562 32.253 27.6377 32.8609 27.871Z" fill="url(#paint1_linear_926_12109)"/>
<path d="M19.63 21.8799C19.805 21.9474 20.0045 21.8584 20.072 21.6834C20.1396 21.5084 20.0505 21.3089 19.8756 21.2414C19.7006 21.1738 19.501 21.2629 19.4335 21.4378C19.366 21.6159 19.4519 21.8123 19.63 21.8799Z" fill="white"/>
<path d="M21.0295 22.4189C21.2045 22.4865 21.404 22.3975 21.4716 22.2225C21.5391 22.0475 21.4501 21.848 21.2751 21.7804C21.1001 21.7129 20.9006 21.8019 20.833 21.9769C20.7655 22.1519 20.8515 22.3514 21.0295 22.4189Z" fill="white"/>
<path d="M22.4293 22.958C22.6043 23.0255 22.8038 22.9365 22.8713 22.7615C22.9389 22.5866 22.8499 22.387 22.6749 22.3195C22.4999 22.252 22.3004 22.341 22.2328 22.516C22.1653 22.694 22.2543 22.8905 22.4293 22.958Z" fill="white"/>
<path d="M23.83 23.4971C24.005 23.5646 24.2046 23.4756 24.2721 23.3006C24.3396 23.1256 24.2506 22.9261 24.0756 22.8586C23.9007 22.791 23.7011 22.88 23.6336 23.055C23.566 23.23 23.6551 23.4295 23.83 23.4971Z" fill="white"/>
<path d="M25.2326 24.0361C25.4076 24.1037 25.6072 24.0146 25.6747 23.8397C25.7422 23.6647 25.6532 23.4652 25.4782 23.3976C25.3032 23.3301 25.1037 23.4191 25.0362 23.5941C24.9686 23.7721 25.0546 23.9686 25.2326 24.0361Z" fill="white"/>
<path d="M27.0952 24.2851C27.1123 24.0977 26.9742 23.9319 26.7868 23.9148C26.5994 23.8977 26.4336 24.0357 26.4165 24.2231C26.3994 24.4106 26.5374 24.5764 26.7249 24.5935C26.9123 24.6106 27.0781 24.4725 27.0952 24.2851Z" fill="white"/>
<path d="M28.3612 25.071C28.5117 24.958 28.5421 24.7444 28.4292 24.5939C28.3162 24.4434 28.1026 24.4129 27.9521 24.5259C27.8016 24.6389 27.7711 24.8525 27.8841 25.003C27.9971 25.1535 28.2107 25.1839 28.3612 25.071Z" fill="white"/>
<path d="M29.8947 25.3632C29.9119 25.1758 29.7738 25.01 29.5864 24.9929C29.399 24.9758 29.2331 25.1139 29.216 25.3013C29.1989 25.4887 29.337 25.6545 29.5244 25.6716C29.7118 25.6887 29.8776 25.5507 29.8947 25.3632Z" fill="white"/>
<path d="M31.2302 26.081C31.343 25.9303 31.3123 25.7168 31.1617 25.604C31.011 25.4912 30.7975 25.5219 30.6847 25.6725C30.5719 25.8232 30.6026 26.0367 30.7532 26.1495C30.9039 26.2623 31.1174 26.2316 31.2302 26.081Z" fill="white"/>
<path d="M22.3219 30.2634C22.1285 30.7638 21.7847 31.1261 21.2904 31.344C20.7962 31.562 20.2958 31.5742 19.7893 31.3808C19.2828 31.1844 18.9175 30.8406 18.6995 30.3463C18.4816 29.8521 18.4662 29.3548 18.6596 28.8544C18.8561 28.3479 19.1999 27.9856 19.6911 27.7677C20.1822 27.5528 20.6826 27.5405 21.1922 27.737C21.6987 27.9335 22.064 28.2742 22.285 28.7654C22.503 29.2565 22.5153 29.7569 22.3219 30.2634ZM20.8177 30.288C21.0203 30.199 21.1615 30.0547 21.2413 29.849C21.3211 29.6433 21.315 29.4377 21.2229 29.2351C21.1308 29.0294 20.9834 28.8882 20.7778 28.8083C20.5721 28.7285 20.3664 28.7347 20.1638 28.8268C19.9581 28.9189 19.8169 29.0662 19.7371 29.2719C19.6573 29.4776 19.6634 29.6802 19.7555 29.8828C19.8476 30.0854 19.995 30.2235 20.2006 30.3033C20.4094 30.3801 20.6151 30.377 20.8177 30.288ZM25.8583 29.8122L19.1354 35.2918L18.4417 34.5366L25.1308 29.0324L25.8583 29.8122ZM25.5943 33.9595C25.8153 34.4507 25.8276 34.948 25.6311 35.4575C25.4347 35.9641 25.0908 36.3263 24.5997 36.5443C24.1085 36.7591 23.6081 36.7714 23.0985 36.575C22.592 36.3785 22.2267 36.0377 22.0057 35.5466C21.7847 35.0554 21.7724 34.5581 21.9689 34.0485C22.1653 33.542 22.5091 33.1798 23.0003 32.9618C23.4915 32.7469 23.9919 32.7346 24.5014 32.9311C25.011 33.1245 25.3763 33.4683 25.5943 33.9595ZM24.13 35.479C24.3326 35.39 24.4738 35.2457 24.5536 35.0401C24.6334 34.8344 24.6273 34.6287 24.5352 34.4261C24.4431 34.2204 24.2958 34.0792 24.0901 33.9994C23.8844 33.9196 23.6787 33.9257 23.4761 34.0178C23.2705 34.1099 23.1292 34.2573 23.0494 34.4629C22.9696 34.6686 22.9758 34.8712 23.0678 35.0738C23.1599 35.2764 23.3073 35.4146 23.513 35.4944C23.7217 35.5711 23.9274 35.5681 24.13 35.479Z" fill="#D8AB71"/>
<path d="M22.6074 18.9045C22.3618 19.0365 22.0947 19.0457 21.8031 18.9321C21.5268 18.8247 21.3303 18.6497 21.2168 18.4041C21.1032 18.1585 21.1001 17.8976 21.2045 17.6213C21.3119 17.3419 21.49 17.1516 21.7417 17.0503C21.9903 16.949 22.2544 16.9521 22.5306 17.0595C22.6596 17.1086 22.7762 17.1792 22.8806 17.2744C22.985 17.3665 23.0556 17.4678 23.0955 17.5783L22.6903 17.7564C22.6718 17.6888 22.635 17.6274 22.5828 17.5752C22.5276 17.5231 22.4662 17.4831 22.3925 17.4555C22.2421 17.3972 22.1009 17.4033 21.9658 17.4678C21.8307 17.5323 21.7325 17.6458 21.6711 17.8024C21.6097 17.962 21.6066 18.1125 21.6619 18.2506C21.7171 18.3887 21.8184 18.487 21.9689 18.5422C22.1346 18.6067 22.2851 18.5944 22.4171 18.5054L22.6074 18.9045Z" fill="white"/>
<path d="M24.866 19.0278C24.7586 19.3072 24.5805 19.5006 24.3288 19.605C24.0801 19.7093 23.8131 19.7093 23.5306 19.5988C23.2513 19.4914 23.0518 19.3133 22.9382 19.0677C22.8215 18.8222 22.8185 18.5612 22.9259 18.2788C23.0333 17.9964 23.2114 17.806 23.46 17.7078C23.7056 17.6096 23.9727 17.6127 24.2521 17.7201C24.5345 17.8306 24.734 18.0025 24.8507 18.242C24.9704 18.4845 24.9735 18.7454 24.866 19.0278ZM24.4055 18.8498C24.4669 18.6932 24.4669 18.5428 24.4117 18.4047C24.3564 18.2665 24.2521 18.1683 24.1047 18.11C23.9543 18.0516 23.8131 18.0578 23.6811 18.1222C23.546 18.1867 23.4508 18.3003 23.3894 18.4568C23.328 18.6165 23.325 18.7669 23.3772 18.9081C23.4324 19.0493 23.5337 19.1476 23.6841 19.2059C23.8346 19.2642 23.9758 19.2581 24.1108 19.1905C24.2459 19.1261 24.3441 19.0094 24.4055 18.8498Z" fill="white"/>
<path d="M26.57 19.9437C26.4871 20.1586 26.352 20.3059 26.1586 20.3827C25.9683 20.4625 25.7565 20.4564 25.5263 20.3673C25.296 20.2783 25.1364 20.1402 25.0504 19.956C24.9645 19.7718 24.9614 19.5722 25.0443 19.3543L25.471 18.2461L25.8977 18.4119L25.4833 19.4863C25.4434 19.5907 25.4372 19.6889 25.4649 19.781C25.4925 19.8731 25.5631 19.9376 25.6767 19.9805C25.7903 20.0235 25.8885 20.0235 25.9683 19.9744C26.0481 19.9253 26.1095 19.8485 26.1525 19.7442L26.5669 18.6697L26.9967 18.8355L26.57 19.9437Z" fill="white"/>
<path d="M28.483 20.034C28.4339 20.166 28.3572 20.2611 28.2559 20.3225C28.1546 20.3839 28.0471 20.4116 27.9305 20.4085C27.8169 20.4024 27.691 20.3747 27.559 20.3256L27.3441 20.2427L27.0863 20.915L26.6565 20.7492L27.3411 18.9688L27.9949 19.2205C28.2067 19.3003 28.3572 19.4108 28.4523 19.5459C28.5475 19.6779 28.5567 19.8406 28.483 20.034ZM28.0533 19.8713C28.1054 19.7362 28.0318 19.6288 27.8292 19.552L27.6419 19.4783L27.4792 19.8989L27.6603 19.9695C27.866 20.0493 27.998 20.0156 28.0533 19.8713Z" fill="white"/>
<path d="M30.4684 21.1841C30.361 21.4634 30.1829 21.6568 29.9312 21.7612C29.6826 21.8656 29.4155 21.8656 29.1331 21.7551C28.8537 21.6476 28.6542 21.4696 28.5406 21.224C28.4239 20.9784 28.4209 20.7175 28.5283 20.435C28.6358 20.1526 28.8138 19.9623 29.0625 19.8641C29.308 19.7658 29.5751 19.7689 29.8545 19.8763C30.1369 19.9869 30.3364 20.1588 30.4531 20.3982C30.5728 20.6438 30.5759 20.9017 30.4684 21.1841ZM30.008 21.006C30.0694 20.8495 30.0694 20.6991 30.0141 20.5609C29.9588 20.4228 29.8545 20.3245 29.7071 20.2662C29.5567 20.2079 29.4155 20.214 29.2835 20.2785C29.1484 20.343 29.0532 20.4565 28.9919 20.6131C28.9305 20.7727 28.9274 20.9231 28.9796 21.0644C29.0348 21.2056 29.1361 21.3038 29.2866 21.3621C29.437 21.4205 29.5782 21.4143 29.7133 21.3468C29.8483 21.2823 29.9466 21.1687 30.008 21.006Z" fill="white"/>
<path d="M32.0255 22.8138L31.5374 22.6266L31.2703 21.1868L31.2642 21.1837L30.8252 22.3503L30.4077 22.1906L31.0923 20.4102L31.5834 20.5974L31.8505 22.0341L31.8567 22.0372L32.2926 20.8706L32.7101 21.0303L32.0255 22.8138Z" fill="white"/>
<path opacity="0.23" d="M25.4066 35.9482L14.871 38.3887L12.0714 37.3112C11.4636 37.0779 11.1597 36.3964 11.396 35.7886L17.419 20.1326C18.0268 20.3659 18.7083 20.0651 18.9416 19.4572C19.1749 18.8494 18.871 18.1679 18.2663 17.9346L20.5778 11.927C20.6546 11.7244 20.7835 11.5555 20.9401 11.4297L21.9746 15.8993C21.3391 16.0467 20.9462 16.6791 21.0935 17.3145C21.2409 17.95 21.8733 18.3429 22.5087 18.1955L23.1779 21.0873L26.2907 34.533C26.4381 35.1685 26.0421 35.8009 25.4066 35.9482Z" fill="#703800"/>
<path d="M4.51392 19.0176L3.0619 12.746C2.91455 12.1105 3.31056 11.4782 3.94601 11.3308L18.2053 8.03077C18.8407 7.88342 19.4731 8.27943 19.6204 8.91488L21.0725 15.1865C20.437 15.3338 20.0441 15.9662 20.1914 16.6017L5.9291 19.9017C5.78175 19.2663 5.14937 18.8733 4.51392 19.0176Z" fill="#F4BB1B"/>
<path d="M8.83024 37.6526L5.04517 21.312C5.68062 21.1647 6.07355 20.5323 5.9262 19.8969L20.1885 16.5938C20.3359 17.2292 20.9682 17.6221 21.6037 17.4748L25.3857 33.8123C25.533 34.4477 25.137 35.0801 24.5016 35.2275L10.2423 38.5306C9.60997 38.681 8.97452 38.285 8.83024 37.6526Z" fill="url(#paint2_linear_926_12109)"/>
<path d="M7.28946 19.937C7.47365 19.894 7.58723 19.7098 7.54425 19.5256C7.50127 19.3414 7.31708 19.2278 7.1329 19.2708C6.94871 19.3138 6.83513 19.498 6.8781 19.6822C6.92108 19.8633 7.10527 19.9769 7.28946 19.937Z" fill="white"/>
<path d="M8.75052 19.5971C8.93471 19.5541 9.04829 19.3699 9.00531 19.1858C8.96233 19.0016 8.77815 18.888 8.59396 18.931C8.40977 18.9739 8.29618 19.1581 8.33916 19.3423C8.38214 19.5265 8.56633 19.6401 8.75052 19.5971Z" fill="white"/>
<path d="M10.3531 19.1865C10.4981 19.0664 10.5183 18.8516 10.3982 18.7067C10.2782 18.5617 10.0634 18.5415 9.91845 18.6616C9.77351 18.7816 9.75331 18.9964 9.87333 19.1414C9.99336 19.2863 10.2082 19.3065 10.3531 19.1865Z" fill="white"/>
<path d="M11.908 18.7262C11.9842 18.5542 11.9065 18.3529 11.7345 18.2767C11.5624 18.2004 11.3611 18.2781 11.2849 18.4502C11.2087 18.6222 11.2863 18.8235 11.4584 18.8998C11.6305 18.976 11.8317 18.8983 11.908 18.7262Z" fill="white"/>
<path d="M13.1372 18.5815C13.3214 18.5385 13.435 18.3543 13.392 18.1701C13.3491 17.9859 13.1649 17.8724 12.9807 17.9153C12.7965 17.9583 12.6829 18.1425 12.7259 18.3267C12.7689 18.5078 12.953 18.6214 13.1372 18.5815Z" fill="white"/>
<path d="M14.599 18.2416C14.7832 18.1987 14.8968 18.0145 14.8538 17.8303C14.8108 17.6461 14.6267 17.5325 14.4425 17.5755C14.2583 17.6185 14.1447 17.8027 14.1877 17.9868C14.2307 18.171 14.4148 18.2846 14.599 18.2416Z" fill="white"/>
<path d="M16.0601 17.9057C16.2443 17.8627 16.3579 17.6785 16.3149 17.4943C16.2719 17.3102 16.0877 17.1966 15.9035 17.2396C15.7193 17.2825 15.6058 17.4667 15.6487 17.6509C15.6917 17.8351 15.8759 17.9487 16.0601 17.9057Z" fill="white"/>
<path d="M17.5213 17.5659C17.7055 17.5229 17.819 17.3387 17.7761 17.1545C17.7331 16.9703 17.5489 16.8567 17.3647 16.8997C17.1805 16.9427 17.0669 17.1269 17.1099 17.3111C17.156 17.4922 17.3371 17.6088 17.5213 17.5659Z" fill="white"/>
<path d="M18.9857 17.226C19.1699 17.183 19.2835 16.9988 19.2405 16.8147C19.1976 16.6305 19.0134 16.5169 18.8292 16.5599C18.645 16.6028 18.5314 16.787 18.5744 16.9712C18.6174 17.1554 18.8016 17.269 18.9857 17.226Z" fill="white"/>
<path d="M14.2144 25.3713C14.3341 25.8932 14.2543 26.3844 13.9657 26.8448C13.6802 27.3022 13.272 27.5939 12.7409 27.7167C12.2098 27.8395 11.7156 27.7566 11.2582 27.4711C10.8008 27.1856 10.5091 26.7804 10.3894 26.2585C10.2666 25.7274 10.3495 25.2363 10.635 24.7819C10.9205 24.3276 11.3288 24.039 11.8598 23.9162C12.3909 23.7934 12.8821 23.8733 13.3426 24.1557C13.803 24.435 14.0916 24.8403 14.2144 25.3713ZM12.9834 26.2339C13.1031 26.0467 13.1369 25.8471 13.0878 25.6323C13.0387 25.4174 12.9189 25.2516 12.7286 25.1319C12.5383 25.0122 12.3357 24.9784 12.1208 25.0275C11.9059 25.0766 11.7401 25.1964 11.6204 25.3867C11.5007 25.577 11.4669 25.7796 11.516 25.9945C11.5651 26.2094 11.6849 26.3752 11.8752 26.4887C12.0655 26.6054 12.2651 26.6361 12.48 26.587C12.6979 26.5379 12.8637 26.4212 12.9834 26.2339ZM16.8913 23.0137L14.3955 31.3206L13.3978 31.0842L15.8537 22.7773L16.8913 23.0137ZM19.0002 26.5962C19.4576 26.8786 19.7492 27.2838 19.872 27.8149C19.9948 28.346 19.9119 28.8371 19.6265 29.2915C19.341 29.7458 18.9327 30.0344 18.4016 30.1572C17.8705 30.2799 17.3794 30.2001 16.9189 29.9177C16.4615 29.6353 16.1699 29.2301 16.0471 28.699C15.9243 28.1679 16.0072 27.6768 16.2926 27.2224C16.5781 26.7681 16.9864 26.4795 17.5175 26.3567C18.0486 26.2339 18.5397 26.3138 19.0002 26.5962ZM18.638 28.6775C18.7577 28.4903 18.7915 28.2907 18.7424 28.0758C18.6932 27.8609 18.5735 27.6952 18.3832 27.5754C18.1929 27.4557 17.9903 27.422 17.7754 27.4711C17.5605 27.5202 17.3947 27.6399 17.275 27.8302C17.1553 28.0206 17.1215 28.2232 17.1706 28.4381C17.2197 28.653 17.3395 28.8187 17.5298 28.9323C17.7201 29.049 17.9196 29.0797 18.1345 29.0305C18.3525 28.9814 18.5183 28.8648 18.638 28.6775Z" fill="#D8AB71"/>
<path d="M8.21723 15.6591C8.0883 15.9047 7.87034 16.0612 7.56643 16.1318C7.27787 16.1994 7.01693 16.1625 6.7867 16.0244C6.55646 15.8863 6.40604 15.6714 6.33851 15.3828C6.27097 15.0912 6.31088 14.8333 6.4613 14.6092C6.61172 14.3851 6.82968 14.2408 7.11824 14.1733C7.25331 14.1426 7.38838 14.1365 7.52652 14.1549C7.66466 14.1733 7.78132 14.2163 7.87648 14.2869L7.64317 14.6614C7.59099 14.6154 7.52652 14.5847 7.45285 14.5724C7.37917 14.5601 7.3055 14.5601 7.22875 14.5785C7.07219 14.6154 6.95861 14.6982 6.88186 14.8302C6.80512 14.9623 6.7867 15.1096 6.82661 15.2723C6.86651 15.4411 6.94633 15.567 7.06912 15.6499C7.19191 15.7328 7.33005 15.7573 7.48661 15.7205C7.65852 15.6806 7.77517 15.5885 7.83657 15.4411L8.21723 15.6591Z" fill="white"/>
<path d="M10.1546 14.491C10.2221 14.7827 10.1822 15.0436 10.0349 15.2708C9.88753 15.4979 9.6665 15.6453 9.3718 15.7128C9.08017 15.7804 8.81616 15.7435 8.58286 15.6054C8.34955 15.4672 8.19913 15.2524 8.1316 14.9607C8.06406 14.666 8.10397 14.4082 8.25439 14.1902C8.40174 13.9692 8.62584 13.8249 8.91747 13.7574C9.21217 13.6898 9.47617 13.7205 9.70641 13.8525C9.93971 13.9845 10.0871 14.1963 10.1546 14.491ZM9.67571 14.6016C9.63887 14.4358 9.55599 14.313 9.43319 14.2301C9.30733 14.1472 9.16919 14.1227 9.01263 14.1595C8.85607 14.1963 8.74249 14.2792 8.66881 14.4082C8.59514 14.5371 8.57672 14.6844 8.61356 14.8502C8.65346 15.019 8.73328 15.1449 8.85914 15.2309C8.98193 15.3168 9.12314 15.3414 9.2797 15.3045C9.43626 15.2677 9.54985 15.1848 9.62659 15.0528C9.6972 14.9208 9.71562 14.7704 9.67571 14.6016Z" fill="white"/>
<path d="M12.0817 14.2971C12.1339 14.5212 12.1032 14.7177 11.9896 14.8896C11.8761 15.0615 11.698 15.1751 11.4555 15.2303C11.213 15.2856 11.0042 15.261 10.8293 15.1567C10.6543 15.0523 10.5407 14.8865 10.4885 14.6624L10.2214 13.5051L10.6666 13.4007L10.9275 14.5212C10.952 14.6317 11.0042 14.7177 11.0779 14.776C11.1516 14.8343 11.2498 14.8527 11.3665 14.8251C11.4862 14.7975 11.566 14.7422 11.6059 14.6563C11.6458 14.5703 11.652 14.4721 11.6274 14.3616L11.3665 13.2411L11.8147 13.1367L12.0817 14.2971Z" fill="white"/>
<path d="M13.715 13.301C13.7457 13.4361 13.7365 13.5589 13.6874 13.6663C13.6382 13.7738 13.5646 13.8567 13.4663 13.918C13.3681 13.9794 13.2515 14.0255 13.1133 14.0562L12.8892 14.1084L13.0519 14.8083L12.6037 14.9127L12.174 13.0554L12.8554 12.8989C13.0765 12.8467 13.2637 12.8528 13.4142 12.9112C13.5707 12.9695 13.6689 13.0984 13.715 13.301ZM13.2668 13.4054C13.233 13.2642 13.1133 13.2181 12.9015 13.2672L12.705 13.3133L12.8063 13.7523L12.9967 13.7093C13.2115 13.6571 13.3036 13.5558 13.2668 13.4054Z" fill="white"/>
<path d="M16.0045 13.1395C16.072 13.4311 16.0321 13.692 15.8847 13.9192C15.7374 14.1464 15.5164 14.2937 15.2217 14.3613C14.93 14.4288 14.666 14.392 14.4327 14.2538C14.1994 14.1157 14.049 13.9008 13.9815 13.6092C13.9139 13.3145 13.9538 13.0566 14.1042 12.8386C14.2516 12.6176 14.4757 12.4733 14.7673 12.4058C15.062 12.3383 15.326 12.369 15.5563 12.501C15.7865 12.633 15.9338 12.8448 16.0045 13.1395ZM15.5225 13.25C15.4857 13.0842 15.4028 12.9614 15.28 12.8785C15.1541 12.7957 15.016 12.7711 14.8594 12.8079C14.7029 12.8448 14.5893 12.9277 14.5156 13.0566C14.4419 13.1855 14.4235 13.3329 14.4603 13.4986C14.5002 13.6675 14.5801 13.7933 14.7059 13.8793C14.8287 13.9653 14.9699 13.9898 15.1265 13.953C15.283 13.9161 15.3966 13.8333 15.4734 13.7013C15.544 13.5692 15.5624 13.4188 15.5225 13.25Z" fill="white"/>
<path d="M18.2064 13.615L17.6969 13.7317L16.6685 12.691L16.6593 12.6941L16.9509 13.9067L16.515 14.008L16.0852 12.1507L16.5979 12.031L17.6232 13.0717L17.6324 13.0686L17.3408 11.8591L17.7767 11.7578L18.2064 13.615Z" fill="white"/>
<path opacity="0.23" d="M16.0474 30.161C16.0474 32.1625 14.6507 33.8386 12.7781 34.2653C12.4742 34.3329 12.1611 34.3697 11.8387 34.3697C11.4151 34.3697 11.0099 34.3083 10.6231 34.1916C10.445 34.1395 10.2731 34.075 10.1074 33.9982C9.51795 33.7312 9.00223 33.3352 8.59394 32.8409C8.47422 32.6967 8.36678 32.5462 8.26547 32.3866C8.04752 32.0366 7.87868 31.6529 7.76816 31.2446C7.67607 30.8977 7.62695 30.5355 7.62695 30.1579C7.62695 28.181 8.99302 26.5202 10.8318 26.0689C11.1542 25.9891 11.4918 25.9492 11.8357 25.9492C11.9155 25.9492 11.9922 25.9523 12.069 25.9554C12.2593 25.9646 12.4435 25.9891 12.6246 26.0229C13.2693 26.1457 13.8617 26.4158 14.3652 26.7965C14.5125 26.907 14.6507 27.0267 14.7827 27.1557C15.2953 27.6591 15.6821 28.2946 15.8847 29.0098C15.9922 29.3782 16.0474 29.7619 16.0474 30.161Z" fill="#703800"/>
<path d="M15.5131 30.2235C15.5131 32.225 14.1164 33.9011 12.2438 34.3278C11.9399 34.3954 11.6268 34.4322 11.3044 34.4322C10.8808 34.4322 10.4756 34.3708 10.0888 34.2541C9.91073 34.202 9.73882 34.1375 9.57305 34.0608C8.98365 33.7937 8.46792 33.3977 8.05964 32.9034C7.93992 32.7592 7.83247 32.6087 7.73117 32.4491C7.51321 32.0991 7.34437 31.7154 7.23386 31.3071C7.14177 30.9602 7.09265 30.598 7.09265 30.2204C7.09265 28.2435 8.45872 26.5827 10.2975 26.1314C10.6199 26.0516 10.9575 26.0117 11.3014 26.0117C11.3812 26.0117 11.4579 26.0148 11.5347 26.0179C11.725 26.0271 11.9092 26.0516 12.0903 26.0854C12.735 26.2082 13.3274 26.4783 13.8309 26.859C13.9782 26.9695 14.1164 27.0892 14.2484 27.2182C14.761 27.7216 15.1478 28.3571 15.3504 29.0723C15.4579 29.4407 15.5131 29.8244 15.5131 30.2235Z" fill="url(#paint3_linear_926_12109)"/>
<path d="M11.3043 33.8999C13.3337 33.8999 14.9789 32.2547 14.9789 30.2253C14.9789 28.1959 13.3337 26.5508 11.3043 26.5508C9.27492 26.5508 7.62976 28.1959 7.62976 30.2253C7.62976 32.2547 9.27492 33.8999 11.3043 33.8999Z" fill="url(#paint4_linear_926_12109)"/>
<path d="M11.3039 33.3668C13.0383 33.3668 14.4443 31.9607 14.4443 30.2263C14.4443 28.4919 13.0383 27.0859 11.3039 27.0859C9.56946 27.0859 8.16345 28.4919 8.16345 30.2263C8.16345 31.9607 9.56946 33.3668 11.3039 33.3668Z" fill="url(#paint5_linear_926_12109)"/>
<path opacity="0.3" d="M13.8341 26.8673L9.57018 34.0691C8.98077 33.802 8.46505 33.406 8.05676 32.9118L12.0936 26.0938C12.7382 26.2165 13.3307 26.4867 13.8341 26.8673Z" fill="white"/>
<path opacity="0.3" d="M15.3537 29.0768L12.244 34.3293C11.9401 34.3968 11.627 34.4336 11.3046 34.4336C10.881 34.4336 10.4758 34.3722 10.089 34.2556L14.2547 27.2227C14.7674 27.7292 15.1511 28.3646 15.3537 29.0768Z" fill="white"/>
<path opacity="0.3" d="M11.5371 26.0239L7.73059 32.4551C7.51263 32.1052 7.34379 31.7214 7.23328 31.3131L10.2969 26.1405C10.6193 26.0607 10.9569 26.0208 11.3008 26.0208C11.3806 26.0177 11.4604 26.0208 11.5371 26.0239Z" fill="white"/>
<path d="M10.8378 30.0662C11.0374 29.8667 11.1387 29.6241 11.1387 29.3417C11.1387 29.0562 11.0374 28.8137 10.8378 28.6142C10.6383 28.4177 10.3927 28.3164 10.1103 28.3164C9.82787 28.3164 9.58229 28.4177 9.38275 28.6142C9.18321 28.8106 9.08191 29.0562 9.08191 29.3417C9.08191 29.6211 9.18321 29.8667 9.38275 30.0662C9.58229 30.2657 9.82787 30.367 10.1103 30.367C10.3927 30.367 10.6383 30.2657 10.8378 30.0662ZM10.3252 29.5535C10.2638 29.6119 10.1932 29.6426 10.1103 29.6426C10.0274 29.6426 9.9568 29.6149 9.89541 29.5535C9.83401 29.4952 9.80638 29.4246 9.80638 29.3417C9.80638 29.2588 9.83708 29.1882 9.89541 29.1268C9.9568 29.0654 10.0243 29.0378 10.1103 29.0378C10.1932 29.0378 10.2638 29.0685 10.3252 29.1268C10.3866 29.1882 10.4142 29.2558 10.4142 29.3417C10.4142 29.4246 10.3835 29.4921 10.3252 29.5535Z" fill="#E6A225"/>
<path d="M13.2255 30.3759C13.026 30.1794 12.7804 30.0781 12.498 30.0781C12.2156 30.0781 11.97 30.1794 11.7704 30.3759C11.5709 30.5754 11.4696 30.8179 11.4696 31.1034C11.4696 31.3889 11.5709 31.6314 11.7704 31.831C11.97 32.0275 12.2156 32.1288 12.498 32.1288C12.7804 32.1288 13.026 32.0275 13.2255 31.831C13.4251 31.6345 13.5264 31.3889 13.5264 31.1034C13.5264 30.8179 13.4251 30.5724 13.2255 30.3759ZM12.7098 31.3122C12.6484 31.3705 12.5778 31.4012 12.4949 31.4012C12.412 31.4012 12.3414 31.3736 12.28 31.3122C12.2186 31.2539 12.191 31.1833 12.191 31.1004C12.191 31.0175 12.2217 30.9469 12.28 30.8855C12.3414 30.8241 12.409 30.7965 12.4949 30.7965C12.5778 30.7965 12.6484 30.8272 12.7098 30.8855C12.7712 30.9469 12.7988 31.0144 12.7988 31.1004C12.8019 31.1863 12.7712 31.2539 12.7098 31.3122Z" fill="#E6A225"/>
<path d="M12.6457 28.4989C12.6396 28.4774 12.6242 28.459 12.6027 28.4467L12.1392 28.2226C12.0993 28.2042 12.0502 28.2196 12.0287 28.2564L9.975 31.888C9.96272 31.9095 9.95965 31.931 9.96886 31.9555C9.975 31.977 9.99034 31.9954 10.0118 32.0077L10.4539 32.2257C10.4662 32.2318 10.4784 32.2349 10.4907 32.2349C10.5214 32.2349 10.549 32.2195 10.5644 32.1919L12.6396 28.5665C12.6519 28.545 12.6549 28.5204 12.6457 28.4989Z" fill="#E6A225"/>
<path d="M11.0553 29.3414C11.0553 29.5993 10.9632 29.8203 10.779 30.0045C10.5948 30.1887 10.3707 30.2808 10.1098 30.2808C9.84887 30.2808 9.62478 30.1887 9.44059 30.0045C9.2564 29.8203 9.16431 29.5993 9.16431 29.3414C9.16431 29.0805 9.2564 28.8564 9.44059 28.6753C9.62478 28.4942 9.84887 28.4021 10.1098 28.4021C10.3707 28.4021 10.5948 28.4942 10.779 28.6753C10.9632 28.8564 11.0553 29.0805 11.0553 29.3414ZM10.383 29.6116C10.4598 29.5379 10.4966 29.4458 10.4966 29.3414C10.4966 29.234 10.4598 29.145 10.383 29.0682C10.3063 28.9915 10.2142 28.9547 10.1098 28.9547C10.0024 28.9547 9.91334 28.9915 9.83659 29.0682C9.75985 29.145 9.72301 29.2371 9.72301 29.3414C9.72301 29.4489 9.75985 29.5379 9.83659 29.6116C9.91334 29.6853 10.0054 29.7221 10.1098 29.7221C10.2142 29.7252 10.3063 29.6853 10.383 29.6116ZM12.5657 28.5249L10.4905 32.1503L10.0484 31.9324L12.1021 28.3008L12.5657 28.5249ZM13.1673 30.4343C13.3515 30.6154 13.4436 30.8395 13.4436 31.1004C13.4436 31.3614 13.3515 31.5855 13.1673 31.7666C12.9831 31.9477 12.759 32.0398 12.4981 32.0398C12.2372 32.0398 12.0131 31.9477 11.8289 31.7666C11.6447 31.5855 11.5526 31.3614 11.5526 31.1004C11.5526 30.8395 11.6447 30.6154 11.8289 30.4343C12.0131 30.2532 12.2372 30.1611 12.4981 30.1611C12.759 30.1611 12.9831 30.2532 13.1673 30.4343ZM12.7713 31.3737C12.8481 31.3 12.8849 31.2079 12.8849 31.1035C12.8849 30.9961 12.8481 30.907 12.7713 30.8303C12.6946 30.7536 12.6025 30.7167 12.4981 30.7167C12.3907 30.7167 12.3016 30.7536 12.2249 30.8303C12.1482 30.907 12.1113 30.9991 12.1113 31.1035C12.1113 31.211 12.1482 31.3 12.2249 31.3737C12.3016 31.4473 12.3937 31.4842 12.4981 31.4842C12.6025 31.4842 12.6946 31.4473 12.7713 31.3737Z" fill="white"/>
<path opacity="0.23" d="M33.0106 31.0612C33.0106 32.6053 31.9331 33.8977 30.4903 34.2262C30.257 34.2783 30.0145 34.309 29.7658 34.309C29.4404 34.309 29.1242 34.2599 28.8295 34.1709C28.6914 34.131 28.5594 34.0788 28.4304 34.0205C27.9761 33.8148 27.577 33.5078 27.2639 33.1302C27.1718 33.0197 27.0889 32.9031 27.0122 32.7803C26.8433 32.5101 26.7144 32.2154 26.6285 31.8992C26.5579 31.6322 26.5179 31.3528 26.5179 31.0612C26.5179 29.5355 27.5709 28.2554 28.9891 27.9085C29.2378 27.8471 29.4987 27.8164 29.7658 27.8164C29.8272 27.8164 29.8855 27.8195 29.9469 27.8225C30.0943 27.8318 30.2355 27.8471 30.3767 27.8747C30.874 27.9699 31.3314 28.1756 31.7182 28.4703C31.8318 28.5562 31.9392 28.6483 32.0405 28.7496C32.4365 29.1395 32.7343 29.6307 32.8909 30.1802C32.9676 30.4564 33.0106 30.7542 33.0106 31.0612Z" fill="#703800"/>
<path d="M33.486 31.0612C33.486 32.6053 32.4085 33.8977 30.9657 34.2262C30.7324 34.2783 30.4899 34.309 30.2413 34.309C29.9159 34.309 29.5997 34.2599 29.305 34.1709C29.1668 34.131 29.0348 34.0788 28.9059 34.0205C28.4516 33.8148 28.0525 33.5078 27.7394 33.1302C27.6473 33.0197 27.5644 32.9031 27.4876 32.7803C27.3188 32.5101 27.1899 32.2154 27.1039 31.8992C27.0333 31.6322 26.9934 31.3528 26.9934 31.0612C26.9934 29.5355 28.0464 28.2554 29.4646 27.9085C29.7133 27.8471 29.9742 27.8164 30.2413 27.8164C30.3027 27.8164 30.361 27.8195 30.4224 27.8225C30.5697 27.8318 30.7109 27.8471 30.8522 27.8747C31.3495 27.9699 31.8069 28.1756 32.1937 28.4703C32.3072 28.5562 32.4147 28.6483 32.516 28.7496C32.912 29.1395 33.2098 29.6307 33.3663 30.1802C33.4431 30.4564 33.486 30.7542 33.486 31.0612Z" fill="url(#paint6_linear_926_12109)"/>
<path d="M30.2379 33.8934C31.8027 33.8934 33.0713 32.6249 33.0713 31.06C33.0713 29.4951 31.8027 28.2266 30.2379 28.2266C28.673 28.2266 27.4044 29.4951 27.4044 31.06C27.4044 32.6249 28.673 33.8934 30.2379 33.8934Z" fill="url(#paint7_linear_926_12109)"/>
<path d="M30.2388 33.4809C31.5765 33.4809 32.6609 32.3965 32.6609 31.0588C32.6609 29.7211 31.5765 28.6367 30.2388 28.6367C28.9012 28.6367 27.8168 29.7211 27.8168 31.0588C27.8168 32.3965 28.9012 33.4809 30.2388 33.4809Z" fill="url(#paint8_linear_926_12109)"/>
<path opacity="0.3" d="M32.1934 28.4666L28.9057 34.0199C28.4513 33.8142 28.0523 33.5073 27.7391 33.1297L30.8489 27.8711C31.3462 27.9632 31.8036 28.1719 32.1934 28.4666Z" fill="white"/>
<path opacity="0.3" d="M33.3632 30.1727L30.9657 34.2249C30.7324 34.277 30.4899 34.3077 30.2412 34.3077C29.9158 34.3077 29.5996 34.2586 29.3049 34.1696L32.5159 28.7422C32.912 29.1321 33.2067 29.6232 33.3632 30.1727Z" fill="white"/>
<path opacity="0.3" d="M30.4196 27.8176L27.4817 32.7784C27.3129 32.5082 27.184 32.2135 27.098 31.8974L29.4618 27.9066C29.7104 27.8452 29.9714 27.8145 30.2384 27.8145C30.2998 27.8114 30.3612 27.8114 30.4196 27.8176Z" fill="white"/>
<path d="M29.8794 30.9327C30.0329 30.7793 30.1127 30.592 30.1127 30.374C30.1127 30.1561 30.036 29.9658 29.8794 29.8123C29.7259 29.6588 29.5356 29.582 29.3177 29.582C29.0997 29.582 28.9094 29.6588 28.7559 29.8123C28.6024 29.9658 28.5226 30.153 28.5226 30.374C28.5226 30.592 28.5993 30.7793 28.7559 30.9327C28.9094 31.0862 29.0997 31.1661 29.3177 31.1661C29.5387 31.1661 29.7259 31.0862 29.8794 30.9327ZM29.4834 30.5367C29.4374 30.5828 29.3821 30.6043 29.3177 30.6043C29.2532 30.6043 29.1979 30.5828 29.1519 30.5367C29.1058 30.4907 29.0844 30.4385 29.0844 30.374C29.0844 30.3096 29.1058 30.2543 29.155 30.2083C29.201 30.1622 29.2563 30.1377 29.3207 30.1377C29.3852 30.1377 29.4405 30.1592 29.4865 30.2083C29.5325 30.2543 29.5571 30.3096 29.5571 30.374C29.554 30.4385 29.5295 30.4907 29.4834 30.5367Z" fill="#E6A225"/>
<path d="M31.721 31.1716C31.5675 31.0182 31.3772 30.9414 31.1592 30.9414C30.9413 30.9414 30.7509 31.0182 30.5974 31.1716C30.4439 31.3251 30.3641 31.5124 30.3641 31.7334C30.3641 31.9514 30.4409 32.1417 30.5974 32.2952C30.7509 32.4487 30.9413 32.5254 31.1592 32.5254C31.3772 32.5254 31.5675 32.4487 31.721 32.2952C31.8745 32.1417 31.9543 31.9544 31.9543 31.7334C31.9543 31.5124 31.8776 31.3251 31.721 31.1716ZM31.325 31.8961C31.2789 31.9422 31.2237 31.9637 31.1592 31.9637C31.0948 31.9637 31.0395 31.9422 30.9934 31.8961C30.9474 31.8501 30.9259 31.7979 30.9259 31.7334C30.9259 31.669 30.9474 31.6137 30.9965 31.5676C31.0426 31.5216 31.0978 31.497 31.1623 31.497C31.2268 31.497 31.282 31.5185 31.3281 31.5676C31.3741 31.6137 31.3987 31.669 31.3987 31.7334C31.3956 31.7979 31.371 31.8501 31.325 31.8961Z" fill="#E6A225"/>
<path d="M31.2758 29.7262C31.2697 29.7078 31.2574 29.6955 31.2421 29.6863L30.886 29.5144C30.8553 29.4991 30.8184 29.5114 30.8 29.542L29.216 32.3417C29.2068 32.3571 29.2037 32.3755 29.2099 32.3939C29.216 32.4123 29.2283 32.4246 29.2436 32.4338L29.5844 32.6026C29.5936 32.6057 29.6028 32.6088 29.612 32.6088C29.6335 32.6088 29.6581 32.5965 29.6673 32.575L31.2666 29.7784C31.2789 29.7631 31.282 29.7447 31.2758 29.7262Z" fill="#E6A225"/>
<path d="M30.0484 30.3754C30.0484 30.575 29.9777 30.7469 29.8365 30.8881C29.6953 31.0293 29.5234 31.0999 29.3208 31.0999C29.1182 31.0999 28.9463 31.0293 28.8051 30.8881C28.6639 30.7469 28.5933 30.575 28.5933 30.3754C28.5933 30.1728 28.6639 30.0009 28.8051 29.8628C28.9463 29.7216 29.1182 29.651 29.3208 29.651C29.5234 29.651 29.6953 29.7216 29.8365 29.8628C29.9777 30.004 30.0484 30.1728 30.0484 30.3754ZM29.5296 30.5842C29.5879 30.5259 29.6186 30.4583 29.6186 30.3754C29.6186 30.2926 29.5879 30.2219 29.5296 30.1636C29.4712 30.1053 29.4006 30.0746 29.3177 30.0746C29.2349 30.0746 29.1642 30.1053 29.1059 30.1636C29.0476 30.2219 29.0169 30.2926 29.0169 30.3754C29.0169 30.4583 29.0476 30.5259 29.1059 30.5842C29.1642 30.6425 29.2349 30.6701 29.3177 30.6701C29.4006 30.6701 29.4712 30.6425 29.5296 30.5842ZM31.2149 29.7461L29.6155 32.5427L29.2748 32.3739L30.8588 29.5742L31.2149 29.7461ZM31.6753 31.2196C31.8166 31.3608 31.8872 31.5328 31.8872 31.7323C31.8872 31.9349 31.8166 32.1068 31.6753 32.2449C31.5341 32.3862 31.3622 32.4568 31.1596 32.4568C30.957 32.4568 30.7851 32.3862 30.6439 32.2449C30.5027 32.1037 30.4321 31.9318 30.4321 31.7323C30.4321 31.5297 30.5027 31.3578 30.6439 31.2196C30.7851 31.0784 30.957 31.0078 31.1596 31.0078C31.3622 31.0078 31.5341 31.0784 31.6753 31.2196ZM31.3714 31.9441C31.4298 31.8858 31.4605 31.8182 31.4605 31.7354C31.4605 31.6525 31.4298 31.5819 31.3714 31.5235C31.3131 31.4652 31.2425 31.4345 31.1596 31.4345C31.0767 31.4345 31.0061 31.4652 30.9478 31.5235C30.8895 31.5819 30.8588 31.6525 30.8588 31.7354C30.8588 31.8182 30.8895 31.8858 30.9478 31.9441C31.0061 32.0024 31.0767 32.0301 31.1596 32.0301C31.2425 32.0301 31.3131 32.0024 31.3714 31.9441Z" fill="white"/>
<path d="M19.7731 31.6258C11.7593 31.6258 5.26367 30.7685 5.26367 29.7109V40.0326C5.26367 40.5586 6.18987 40.9844 7.33381 40.9844H32.2123C33.3563 40.9844 34.2825 40.5586 34.2825 40.0326V29.7109C34.2825 30.7685 27.7868 31.6258 19.7731 31.6258Z" fill="#FFC8C8"/>
<path d="M4.5906 23.078L4.33273 22.375L4.07487 23.078L3.42407 23.4218L4.07487 23.7656L4.33273 24.4686L4.5906 23.7656L5.2414 23.4218L4.5906 23.078Z" fill="white"/>
<path d="M4.21881 26.5927L4.07146 26.1875L3.92104 26.5927L3.54346 26.7923L3.92104 26.9918L4.07146 27.397L4.21881 26.9918L4.5964 26.7923L4.21881 26.5927Z" fill="white"/>
<path d="M7.1471 24.3721L6.76952 23.3438L6.395 24.3721L5.44336 24.8725L6.395 25.3729L6.76952 26.4013L7.1471 25.3729L8.09874 24.8725L7.1471 24.3721Z" fill="white"/>
<path d="M36.3134 23.0554L36.5375 22.4414L36.7616 23.0554L37.3295 23.3531L36.7616 23.654L36.5375 24.2649L36.3134 23.654L35.7455 23.3531L36.3134 23.0554Z" fill="white"/>
<path d="M35.0185 21.4803L35.1935 20.9922L35.3715 21.4803L35.8228 21.7167L35.3715 21.9561L35.1935 22.4411L35.0185 21.9561L34.5673 21.7167L35.0185 21.4803Z" fill="white"/>
<path d="M33.7926 23.648L34.1026 22.8008L34.4096 23.648L35.1924 24.0594L34.4096 24.4708L34.1026 25.318L33.7926 24.4708L33.0098 24.0594L33.7926 23.648Z" fill="white"/>
<path d="M0.863647 12.3439C0.863647 12.3439 0.900485 13.9985 2.18673 14.3791L2.9327 14.063C1.57277 13.7038 1.53286 11.7852 1.53286 11.7852L0.863647 12.3439Z" fill="url(#paint9_linear_926_12109)"/>
<path d="M-0.0456543 22.2568C-0.0456543 22.2568 0.648121 23.1348 1.49846 22.8155L1.77167 22.3397C0.890637 22.6989 0.086347 21.6797 0.086347 21.6797L-0.0456543 22.2568Z" fill="url(#paint10_linear_926_12109)"/>
<path d="M3.55249 19.526C3.55249 19.526 3.4389 20.2965 4.00682 20.5759L4.37826 20.4868C3.77658 20.2136 3.90858 19.3203 3.90858 19.3203L3.55249 19.526Z" fill="url(#paint11_linear_926_12109)"/>
<path d="M3.55249 19.526C3.55249 19.526 3.4389 20.2965 4.00682 20.5759L4.37826 20.4868C3.77658 20.2136 3.90858 19.3203 3.90858 19.3203L3.55249 19.526Z" fill="url(#paint12_linear_926_12109)"/>
<path d="M2.77294 17.125C2.77294 17.125 0.848177 17.9723 -0.195557 17.3245C-0.195557 17.3245 0.894224 18.5248 2.44141 17.9538L2.68392 17.5732L2.77294 17.125Z" fill="url(#paint13_linear_926_12109)"/>
<path d="M2.64705 19.4826L2.09448 18.7121C2.09448 18.7121 2.13746 17.5671 2.77291 17.125L3.27943 17.6192C3.27943 17.6192 2.62556 18.3867 2.64705 19.4826Z" fill="url(#paint14_linear_926_12109)"/>
<path d="M-0.195317 17.3251C-0.195317 17.3251 -1.96659 15.7258 -0.253643 14.0742L0.259014 14.5163C0.259014 14.5163 -1.04565 15.5723 -0.195317 17.3251Z" fill="url(#paint15_linear_926_12109)"/>
<path d="M37.8851 25.961C37.8851 25.961 37.8483 27.6157 36.562 27.9963L35.816 27.6801C37.176 27.321 37.2159 25.4023 37.2159 25.4023L37.8851 25.961Z" fill="url(#paint16_linear_926_12109)"/>
<path d="M37.8851 25.961C37.8851 25.961 37.8483 27.6157 36.562 27.9963L35.816 27.6801C37.176 27.321 37.2159 25.4023 37.2159 25.4023L37.8851 25.961Z" fill="url(#paint17_linear_926_12109)"/>
<path d="M37.176 18.3506C37.176 18.3506 36.4822 19.2285 35.6319 18.9093L35.3586 18.4334C36.2397 18.7926 37.044 17.7734 37.044 17.7734L37.176 18.3506Z" fill="url(#paint18_linear_926_12109)"/>
<path d="M37.176 18.3506C37.176 18.3506 36.4822 19.2285 35.6319 18.9093L35.3586 18.4334C36.2397 18.7926 37.044 17.7734 37.044 17.7734L37.176 18.3506Z" fill="url(#paint19_linear_926_12109)"/>
<path d="M37.8115 20.1133C37.8115 20.1133 39.7363 20.9605 40.78 20.3128C40.78 20.3128 39.6902 21.5131 38.1431 20.9421L37.9005 20.5615L37.8115 20.1133Z" fill="url(#paint20_linear_926_12109)"/>
<path d="M37.9372 22.4709L38.4898 21.7004C38.4898 21.7004 38.4468 20.5553 37.8113 20.1133L37.3048 20.6075C37.3048 20.6075 37.9587 21.375 37.9372 22.4709Z" fill="url(#paint21_linear_926_12109)"/>
</g>
</svg>
