<svg width="38" height="38" viewBox="0 0 38 38" fill="none" xmlns="http://www.w3.org/2000/svg">
<circle cx="19" cy="19" r="19" fill="#FFEBC7"/>
<mask id="mask0_926_12060" style="mask-type:alpha" maskUnits="userSpaceOnUse" x="0" y="0" width="38" height="38">
<circle cx="19" cy="19" r="19" fill="#FFEBC7"/>
</mask>
<g mask="url(#mask0_926_12060)">
<path d="M41.0315 35.1965C45.6955 30.6783 45.6955 23.3529 41.0315 18.8347C36.3675 14.3165 28.8057 14.3165 24.1417 18.8347C19.4777 23.3529 19.4777 30.6783 24.1417 35.1965C28.8057 39.7147 36.3675 39.7147 41.0315 35.1965Z" fill="#FEE475"/>
<path d="M40.8178 34.9897C45.3639 30.5857 45.3639 23.4455 40.8178 19.0416C36.2718 14.6377 28.9012 14.6377 24.3551 19.0416C19.8091 23.4455 19.8091 30.5857 24.3551 34.9897C28.9012 39.3936 36.2718 39.3936 40.8178 34.9897Z" fill="#FED425"/>
<path d="M40.8362 19.0625L24.3768 35.0073C25.4819 36.0712 26.7998 36.9157 28.2686 37.4875L43.3964 22.8393C42.8061 21.4163 41.9344 20.133 40.8362 19.0625Z" fill="#FFE67C"/>
<path d="M43.9319 29.5234L35.1737 38.0078C39.5254 37.0504 42.9435 33.7324 43.9319 29.5234Z" fill="#FFE67C"/>
<path d="M26.8683 17.1959L22.448 21.478C21.9607 22.3158 21.5763 23.2135 21.3224 24.1643L29.6413 16.1055C28.6598 16.3515 27.7332 16.7238 26.8683 17.1959Z" fill="#FFE67C"/>
<path d="M39.3056 17.8125L23.0864 33.5246C23.2786 33.7839 23.4777 34.0366 23.6836 34.276L40.0812 18.391C39.8272 18.1849 39.5733 17.992 39.3056 17.8125Z" fill="#FFE67C"/>
<path d="M32.8124 35.3946C37.4713 35.3946 41.248 31.7359 41.248 27.2227C41.248 22.7095 37.4713 19.0508 32.8124 19.0508C28.1536 19.0508 24.3768 22.7095 24.3768 27.2227C24.3768 31.7359 28.1536 35.3946 32.8124 35.3946Z" fill="#FFE67C"/>
<path d="M38.5514 32.794C41.8457 29.6027 41.8457 24.4286 38.5514 21.2373C35.2571 18.046 29.9161 18.046 26.6218 21.2373C23.3275 24.4286 23.3275 29.6027 26.6218 32.794C29.9161 35.9853 35.2572 35.9853 38.5514 32.794Z" fill="#FEB724"/>
<path d="M24.6102 27.4533C24.6102 22.9385 28.3853 19.2814 33.0458 19.2814C35.256 19.2814 37.2671 20.1059 38.7771 21.4557C37.2396 19.8466 35.0363 18.8359 32.5928 18.8359C27.9323 18.8359 24.1572 22.493 24.1572 27.0078C24.1572 29.375 25.2005 31.5094 26.8616 32.9988C25.4613 31.5493 24.6102 29.601 24.6102 27.4533Z" fill="#FB9D12"/>
<path d="M32.5858 15.8842C39.1064 15.8842 44.3984 20.9442 44.522 27.2344C44.522 27.1613 44.5288 27.0881 44.5288 27.015C44.5288 20.6251 39.1819 15.4453 32.5858 15.4453C25.9897 15.4453 20.6428 20.6251 20.6428 27.015C20.6428 27.0881 20.6497 27.1613 20.6497 27.2344C20.7732 20.9509 26.0652 15.8842 32.5858 15.8842Z" fill="white"/>
<path d="M13.3347 35.1965C17.9987 30.6783 17.9987 23.3529 13.3347 18.8347C8.6707 14.3165 1.10888 14.3165 -3.5551 18.8347C-8.21909 23.3529 -8.21909 30.6783 -3.5551 35.1965C1.10888 39.7147 8.6707 39.7147 13.3347 35.1965Z" fill="#FEE475"/>
<path d="M13.121 34.9897C17.6671 30.5857 17.6671 23.4455 13.121 19.0416C8.57499 14.6377 1.2044 14.6377 -3.34165 19.0416C-7.8877 23.4455 -7.8877 30.5857 -3.34165 34.9897C1.2044 39.3936 8.575 39.3936 13.121 34.9897Z" fill="#FED425"/>
<path d="M13.1396 19.0625L-3.31982 35.0073C-2.21475 36.0712 -0.896904 36.9157 0.571948 37.4875L15.6997 22.8393C15.1095 21.4163 14.2378 20.133 13.1396 19.0625Z" fill="#FFE67C"/>
<path d="M16.2351 29.5234L7.47693 38.0078C11.8286 37.0504 15.2467 33.7324 16.2351 29.5234Z" fill="#FFE67C"/>
<path d="M-0.828445 17.1959L-5.24873 21.478C-5.73606 22.3158 -6.12043 23.2135 -6.37439 24.1643L1.94453 16.1055C0.963006 16.3515 0.0363927 16.7238 -0.828445 17.1959Z" fill="#FFE67C"/>
<path d="M11.6088 17.8125L-4.61035 33.5246C-4.41817 33.7839 -4.21912 34.0366 -4.0132 34.276L12.3844 18.391C12.1304 18.1849 11.8765 17.992 11.6088 17.8125Z" fill="#FFE67C"/>
<path d="M5.11578 35.3946C9.77463 35.3946 13.5514 31.7359 13.5514 27.2227C13.5514 22.7095 9.77463 19.0508 5.11578 19.0508C0.456924 19.0508 -3.31982 22.7095 -3.31982 27.2227C-3.31982 31.7359 0.456924 35.3946 5.11578 35.3946Z" fill="#FFE67C"/>
<path d="M10.8547 32.794C14.1489 29.6027 14.1489 24.4286 10.8546 21.2373C7.56037 18.046 2.2193 18.046 -1.07498 21.2373C-4.36926 24.4286 -4.36926 29.6027 -1.07498 32.794C2.2193 35.9853 7.56037 35.9853 10.8547 32.794Z" fill="#FEB724"/>
<path d="M-3.08654 27.4533C-3.08654 22.9385 0.688547 19.2814 5.34906 19.2814C7.55921 19.2814 9.5703 20.1059 11.0803 21.4557C9.54284 19.8466 7.33957 18.8359 4.89605 18.8359C0.235538 18.8359 -3.53955 22.493 -3.53955 27.0078C-3.53955 29.375 -2.49625 31.5094 -0.835214 32.9988C-2.23543 31.5493 -3.08654 29.601 -3.08654 27.4533Z" fill="#FB9D12"/>
<path d="M4.88905 15.8842C11.4097 15.8842 16.7016 20.9442 16.8252 27.2344C16.8252 27.1613 16.832 27.0881 16.832 27.015C16.832 20.6251 11.4852 15.4453 4.88905 15.4453C-1.70706 15.4453 -7.05396 20.6251 -7.05396 27.015C-7.05396 27.0881 -7.04709 27.1613 -7.04709 27.2344C-6.92354 20.9509 -1.63156 15.8842 4.88905 15.8842Z" fill="white"/>
<path d="M28.8881 37.0225C34.5931 31.4958 34.5931 22.5354 28.8881 17.0088C23.1831 11.4821 13.9336 11.4821 8.22857 17.0088C2.5236 22.5354 2.5236 31.4958 8.22857 37.0225C13.9336 42.5491 23.1831 42.5491 28.8881 37.0225Z" fill="#FEE475"/>
<path d="M28.6269 36.7694C34.1877 31.3826 34.1877 22.6487 28.6269 17.2618C23.0662 11.8749 14.0505 11.8749 8.48982 17.2618C2.92911 22.6487 2.92911 31.3826 8.48982 36.7694C14.0505 42.1563 23.0662 42.1563 28.6269 36.7694Z" fill="#FED425"/>
<path d="M28.6494 17.2891L8.51636 36.7927C9.86808 38.0941 11.4801 39.127 13.2768 39.8265L31.781 21.9088C31.059 20.1683 29.9927 18.5985 28.6494 17.2891Z" fill="#FFE67C"/>
<path d="M32.4359 30.082L21.7229 40.4601C27.0458 39.2889 31.2269 35.2304 32.4359 30.082Z" fill="#FFE67C"/>
<path d="M11.5639 15.0018L6.15706 20.2397C5.56096 21.2645 5.09079 22.3625 4.78015 23.5255L14.9558 13.668C13.7552 13.9689 12.6218 14.4244 11.5639 15.0018Z" fill="#FFE67C"/>
<path d="M26.7771 15.7578L6.93787 34.9768C7.17295 35.294 7.41642 35.6031 7.6683 35.8959L27.7258 16.4654C27.4152 16.2133 27.1045 15.9774 26.7771 15.7578Z" fill="#FFE67C"/>
<path d="M18.8348 37.2612C24.5335 37.2612 29.1532 32.7859 29.1532 27.2654C29.1532 21.7448 24.5335 17.2695 18.8348 17.2695C13.1361 17.2695 8.51636 21.7448 8.51636 27.2654C8.51636 32.7859 13.1361 37.2612 18.8348 37.2612Z" fill="#FFE67C"/>
<path d="M25.8545 34.0837C29.884 30.1801 29.884 23.8511 25.8545 19.9476C21.8249 16.044 15.2918 16.044 11.2622 19.9476C7.23266 23.8511 7.23266 30.1801 11.2622 34.0837C15.2918 37.9873 21.8249 37.9873 25.8545 34.0837Z" fill="#FEB724"/>
<path d="M8.80168 27.5525C8.80168 22.03 13.4194 17.5567 19.1201 17.5567C21.8235 17.5567 24.2835 18.5652 26.1306 20.2162C24.2499 18.248 21.5549 17.0117 18.566 17.0117C12.8652 17.0117 8.24756 21.485 8.24756 27.0076C8.24756 29.903 9.52372 32.5138 11.5555 34.3357C9.84276 32.5626 8.80168 30.1796 8.80168 27.5525Z" fill="#FB9D12"/>
<path d="M18.5575 13.4001C26.5335 13.4001 33.0066 19.5895 33.1577 27.2836C33.1577 27.1942 33.1661 27.1047 33.1661 27.0152C33.1661 19.1991 26.6258 12.8633 18.5575 12.8633C10.4892 12.8633 3.94885 19.1991 3.94885 27.0152C3.94885 27.1047 3.95725 27.1942 3.95725 27.2836C4.10837 19.5977 10.5815 13.4001 18.5575 13.4001Z" fill="#FFE67C"/>
</g>
</svg>
