<svg width="35" height="36" viewBox="0 0 35 36" fill="none" xmlns="http://www.w3.org/2000/svg">
<rect y="0.5" width="35" height="35" rx="12" fill="#C1EEFF"/>
<path d="M9.5 12.4341C9.5 11.9771 9.8736 11.5912 10.3725 11.533L16.5 10.8172L22.6275 11.533C23.1264 11.5912 23.5 11.9771 23.5 12.4341V21.0988C23.5 22.3354 22.8079 23.4872 21.663 24.1559L17.0408 26.8557C16.7113 27.0481 16.2887 27.0481 15.9592 26.8557L11.337 24.1559C10.1921 23.4872 9.5 22.3354 9.5 21.0988V12.4341Z" fill="#6283F9"/>
<path fill-rule="evenodd" clip-rule="evenodd" d="M12.3725 9.7158C11.8736 9.77408 11.5 10.16 11.5 10.617V11.4012L16.5 10.8172L22.6275 11.533C23.1264 11.5912 23.5 11.9771 23.5 12.4341V21.0988C23.5 21.6478 23.3636 22.18 23.1117 22.6607L23.663 22.3387C24.8079 21.67 25.5 20.5183 25.5 19.2816V10.617C25.5 10.16 25.1264 9.77408 24.6275 9.7158L18.5 9L12.3725 9.7158Z" fill="white"/>
<path fill-rule="evenodd" clip-rule="evenodd" d="M14.25 17.7451V17.0636C14.25 16.1228 15.0895 15.36 16.125 15.36C17.1605 15.36 18 16.1228 18 17.0636V17.7451C18.4142 17.7451 18.75 18.0501 18.75 18.4265V20.1301C18.75 20.5064 18.4142 20.8115 18 20.8115H14.25C13.8358 20.8115 13.5 20.5064 13.5 20.1301V18.4265C13.5 18.0501 13.8358 17.7451 14.25 17.7451ZM17.25 17.0636V17.7451H15V17.0636C15 16.4991 15.5037 16.0415 16.125 16.0415C16.7463 16.0415 17.25 16.4991 17.25 17.0636Z" fill="white"/>
</svg>
