<svg width="24" height="24" viewBox="0 0 24 24" fill="none" xmlns="http://www.w3.org/2000/svg">
<circle cx="12" cy="12" r="7" stroke="#151515" stroke-width="2"/>
<path d="M11 12.2852C11 11.6638 11.5037 11.1602 12.125 11.1602H13V13.1602C13 13.7124 12.5523 14.1602 12 14.1602C11.4477 14.1602 11 13.7124 11 13.1602V12.2852Z" fill="#151515"/>
<circle cx="12" cy="15.75" r="1" fill="#151515"/>
<path fill-rule="evenodd" clip-rule="evenodd" d="M11.0202 9.88329C10.9744 9.94045 10.9225 9.99248 10.8654 10.0384C10.8922 10.0129 10.9539 9.95334 11.0202 9.88329Z" fill="#151515"/>
<path d="M12 13.1992C12.5933 13.1992 13.1733 13.0233 13.6667 12.6936C14.16 12.364 14.5446 11.8954 14.7716 11.3473C14.9987 10.7991 15.0581 10.1959 14.9423 9.61395C14.8266 9.03201 14.5409 8.49746 14.1213 8.0779C13.7017 7.65834 13.1672 7.37262 12.5853 7.25686C12.0033 7.14111 11.4001 7.20052 10.8519 7.42758C10.3038 7.65464 9.78428 8.14524 9.45464 8.63859C9.31983 8.809 9.23935 9.02436 9.23935 9.25851C9.23935 9.8108 9.68706 10.2585 10.2393 10.2585C10.4763 10.2585 10.694 10.1761 10.8654 10.0384C10.8922 10.0129 10.9539 9.95334 11.0202 9.88329C11.0862 9.81352 11.1567 9.73331 11.2018 9.66587C11.3073 9.508 11.4572 9.38496 11.6326 9.3123C11.808 9.23964 12.0011 9.22062 12.1873 9.25767C12.3735 9.29471 12.5446 9.38614 12.6788 9.5204C12.8131 9.65466 12.9045 9.82571 12.9415 10.0119C12.9786 10.1982 12.9596 10.3912 12.8869 10.5666C12.8143 10.742 12.6912 10.8919 12.5333 10.9974C12.3755 11.1029 12.1899 11.1592 12 11.1592L12 13.1992Z" fill="#151515"/>
</svg>
