<svg width="346" height="185" viewBox="0 0 346 185" fill="none" xmlns="http://www.w3.org/2000/svg">
<rect width="346" height="185" rx="10" fill="#F96262"/>
<path d="M232.505 42.591C232.505 39.765 235.482 35.0213 238.157 33.6588C250.47 27.3508 279.386 13.675 283.726 12.4134C290.69 10.4453 291.699 15.2898 291.548 31.5898C291.548 31.5898 291.75 79.228 291.497 82.7605C291.245 86.2929 290.488 97.0418 283.07 102.441C276.711 107.084 244.111 122.223 235.331 126.261C233.968 126.866 233.11 126.362 233.11 124.898L232.505 42.591Z" fill="#F4A640"/>
<path d="M232.504 44.1057C232.504 41.3302 235.431 36.6875 238.055 35.3249C250.167 29.1178 278.629 15.6944 282.918 14.4832C289.731 12.5151 290.791 17.3092 290.589 33.3064C290.589 33.3064 290.791 80.0867 290.538 83.5182C290.286 86.9498 289.529 97.5473 282.262 102.846C276.005 107.438 243.909 122.275 235.28 126.211C233.968 126.817 233.11 126.312 233.11 124.848L232.504 44.1057Z" fill="#FEB546"/>
<path d="M233.262 45.6177C233.313 44.0029 234.927 41.5806 236.542 40.1171C238.157 38.6032 239.822 37.8462 241.387 37.0893C256.375 30.0243 270.353 24.7255 285.19 18.1652C287.612 17.1055 290.791 14.6832 292.154 15.7429C293.214 16.6008 293.668 18.5184 293.668 20.4866C293.567 35.9286 293.466 51.3706 293.365 66.8631C293.314 77.6625 293.214 88.4618 293.163 99.3116C293.163 100.624 294.021 101.936 293.012 103.652C292.002 105.317 288.823 106.578 289.075 105.115" fill="#D0D0DF"/>
<path d="M233.464 45.2171C235.029 41.6342 238.763 39.4138 241.539 38.3035C254.205 33.1057 266.821 27.8575 279.488 22.6596C283.676 20.9439 291.246 15.6956 292.306 19.0767C293.113 21.5494 293.163 26.9996 293.113 31.3395C292.81 55.31 292.457 79.23 292.154 103.201C292.154 104.967 293.113 106.783 291.498 108.752C290.136 110.417 287.259 111.376 285.947 111.628C280.194 112.789 274.441 113.899 268.688 115.06" fill="#DDDCE7"/>
<path d="M232.606 47.5869C232.606 47.5869 239.368 38.9071 246.534 36.8885C253.7 34.87 269.697 30.2273 275.399 27.4013C281.152 24.6257 289.883 20.084 290.841 22.0016C291.75 23.9192 291.598 39.8155 291.649 52.0783C291.699 64.2906 291.851 85.8388 291.548 95.7298C291.195 105.722 291.397 109.607 289.731 112.131C287.612 115.31 276.762 116.42 276.762 116.42" fill="#E7E5F0"/>
<path d="M234.069 42.9478C234.119 41.3834 235.684 40.1722 237.298 39.9199C238.913 39.6676 240.478 40.1218 242.042 40.576C256.727 44.8654 270.352 50.1137 284.886 54.8069C287.258 55.5638 292.052 55.7152 293.364 57.7842C294.424 59.4496 293.162 61.5691 293.162 63.5372C293.061 78.9288 292.96 94.2699 292.859 109.661C292.809 120.41 292.708 131.159 292.658 141.959C292.658 143.271 293.515 145.239 292.506 146.147C291.497 147.055 288.419 145.945 288.671 144.633" fill="#D0D0DF"/>
<path d="M234.271 42.7416C235.785 40.3193 239.468 40.9753 242.143 41.8837C254.507 46.2236 266.871 50.5635 279.234 54.9035C283.322 56.3165 290.74 56.8716 291.8 61.0096C292.557 64.088 292.607 69.5886 292.557 73.878C292.254 97.5962 291.951 121.314 291.598 144.982C291.598 146.748 292.557 149.322 290.942 150.028C289.579 150.634 286.804 149.473 285.542 148.716C279.941 145.537 274.289 142.307 268.687 139.128" fill="#DDDCE7"/>
<path d="M233.414 44.4586C233.414 44.4586 240.025 40.8756 247.039 44.3072C254.054 47.7387 269.697 55.157 275.299 56.6709C280.901 58.2353 289.479 60.3043 290.388 62.9285C291.296 65.5526 291.094 81.3479 291.145 93.5602C291.195 105.773 291.347 127.472 291.044 137.111C290.741 146.85 290.892 150.888 289.278 152.099C287.209 153.663 276.561 146.548 276.561 146.548" fill="#E7E5F0"/>
<path d="M232.051 43.6483C232.051 40.8223 234.978 38.8542 237.602 40.0149C249.714 45.2632 281.859 59.3427 286.3 63.7835C289.479 66.9628 290.287 71.9083 290.135 88.0568C290.135 88.0568 290.337 135.897 290.085 139.177C289.833 142.457 289.076 152.5 281.809 150.986C275.551 149.674 243.456 134.181 234.827 129.993C233.514 129.337 232.657 128.024 232.657 126.561L232.051 43.6483Z" fill="#F4A640"/>
<path d="M232.505 158.913C232.505 158.307 232.505 157.752 232.555 157.197C232.858 152.907 234.069 148.87 235.18 144.984C235.684 143.269 236.189 141.654 236.593 139.988C238.006 134.236 237.905 129.795 236.29 126.515C236.138 126.262 236.239 125.909 236.492 125.758L241.891 122.73C242.194 122.578 242.547 122.679 242.648 122.982C245.222 127.978 245.525 134.135 243.607 141.755C243.153 143.571 242.648 145.338 242.144 147.053C241.033 150.737 240.024 154.169 239.772 157.701C239.519 161.284 240.377 166.179 243.506 168.703C243.859 168.955 243.758 169.51 243.355 169.661L240.579 170.772C240.377 170.873 240.226 171.074 240.226 171.327L240.428 174.405C240.478 174.859 239.923 175.162 239.519 174.91C234.372 171.125 232.505 164.514 232.505 158.913Z" fill="#EBB644"/>
<g opacity="0.38">
<path opacity="0.38" d="M243.708 141.755C245.625 134.084 245.272 127.928 242.749 122.982C242.597 122.679 242.244 122.578 241.992 122.73L236.592 125.758C236.34 125.909 236.239 126.212 236.39 126.515C237.955 129.694 238.106 133.933 236.844 139.383C239.216 140.089 241.487 141.099 243.708 142.158C243.657 142.007 243.708 141.856 243.708 141.755Z" fill="#EBB644"/>
</g>
<path d="M232 45.7196C232 42.944 234.876 41.0264 237.45 42.1366C249.309 47.284 280.849 61.0607 285.24 65.4511C288.369 68.5799 289.176 73.4244 289.025 89.2702C289.025 89.2702 289.226 136.151 288.974 139.381C288.722 142.611 287.965 152.451 280.849 150.937C274.693 149.625 243.254 134.486 234.776 130.348C233.463 129.692 232.656 128.43 232.656 126.967L232 45.7196Z" fill="#FEB546"/>
<path d="M245.981 64.1364C245.981 63.7831 246.132 63.4299 246.435 63.228C246.738 63.0262 247.091 62.9757 247.444 63.1271L272.979 72.5639C273.383 72.7153 273.635 73.119 273.635 73.5732L273.231 91.9422C273.231 92.2954 273.029 92.5982 272.777 92.8001C272.474 93.0019 272.121 93.0524 271.818 92.9514L246.687 84.423C246.233 84.2716 245.93 83.8679 245.93 83.4137L245.93 64.1364L245.981 64.1364Z" fill="#E7E5F0"/>
<path d="M272.705 73.2437L272.301 91.5622C272.301 91.6631 272.251 91.764 272.2 91.8145C272.15 91.865 272.049 91.9154 271.948 91.865L246.817 83.3365C246.716 83.286 246.615 83.1851 246.615 83.0337L246.615 63.8069C246.615 63.6555 246.665 63.605 246.766 63.5545C246.817 63.5041 246.918 63.4536 247.019 63.5041L272.503 72.8904C272.654 73.0418 272.705 73.1427 272.705 73.2437ZM274.269 73.2437C274.269 72.4867 273.815 71.7802 273.109 71.5279L247.574 62.1416C246.363 61.6369 245 62.5453 245 63.8573L245 83.0842C245 83.8916 245.505 84.5981 246.262 84.8504L271.393 93.3789C272.553 93.7826 273.815 92.9247 273.866 91.6631L274.269 73.3446C274.269 73.2941 274.269 73.2437 274.269 73.2437Z" fill="#1F1F1F"/>
<path d="M249.257 80.5937L250.266 80.8965" stroke="#1F1F1F" stroke-width="0.5185" stroke-linecap="round" stroke-linejoin="round"/>
<path d="M252.285 81.6016L267.323 86.7994" stroke="#1F1F1F" stroke-width="0.5185" stroke-linecap="round" stroke-linejoin="round" stroke-dasharray="4.21 4.21"/>
<path d="M268.333 87.1055L269.342 87.4587" stroke="#1F1F1F" stroke-width="0.5185" stroke-linecap="round" stroke-linejoin="round"/>
<path d="M249.158 75.1914L250.167 75.4942" stroke="#1F1F1F" stroke-width="0.5185" stroke-linecap="round" stroke-linejoin="round"/>
<path d="M252.184 76.1992L267.323 81.3466" stroke="#1F1F1F" stroke-width="0.5185" stroke-linecap="round" stroke-linejoin="round" stroke-dasharray="4.23 4.23"/>
<path d="M268.333 81.6523L269.343 82.0056" stroke="#1F1F1F" stroke-width="0.5185" stroke-linecap="round" stroke-linejoin="round"/>
<path d="M249.257 69.8906L250.266 70.2439" stroke="#1F1F1F" stroke-width="0.5185" stroke-linecap="round" stroke-linejoin="round"/>
<path d="M252.285 70.8984L267.323 76.0458" stroke="#1F1F1F" stroke-width="0.5185" stroke-linecap="round" stroke-linejoin="round" stroke-dasharray="4.2 4.2"/>
<path d="M268.333 76.3984L269.342 76.7012" stroke="#1F1F1F" stroke-width="0.5185" stroke-linecap="round" stroke-linejoin="round"/>
</svg>
