<svg width="14" height="15" viewBox="0 0 14 15" fill="none" xmlns="http://www.w3.org/2000/svg">
<g id="Group">
<g id="Group_2">
<path id="Vector" d="M11.4462 4.21599C11.0689 2.05857 9.19855 0.5 7.00011 0.5C4.80167 0.5 2.93134 2.05857 2.55405 4.21599C2.29975 5.70896 2.79191 7.21836 3.87475 8.26013C4.54434 8.90145 4.94933 9.81077 4.94933 10.7539V11.1641L5.76964 12.0117H7.00011H8.23058L9.05089 11.1641V10.7539C9.05089 9.81183 9.45514 8.90213 10.1255 8.26013C11.2083 7.21836 11.7005 5.70896 11.4462 4.21599Z" fill="#FED843"/>
<path id="Vector_2" d="M9.05078 11.1641V10.7539C9.05078 9.81183 9.45503 8.90213 10.1254 8.26013C11.2082 7.21836 11.7004 5.70896 11.4461 4.21599C11.0688 2.05857 9.19844 0.5 7 0.5V12.0117H8.23047L9.05078 11.1641Z" fill="#FABE2C"/>
<g id="Group_3">
<path id="Vector_3" d="M0.431641 2.30518L1.01154 1.72527L2.219 2.93273L1.6391 3.51263L0.431641 2.30518Z" fill="#FED843"/>
<path id="Vector_4" d="M0 4.60156H1.66797V5.42188H0V4.60156Z" fill="#FED843"/>
<path id="Vector_5" d="M0.440674 7.7085L1.64693 6.50224L2.22684 7.08214L1.02058 8.2884L0.440674 7.7085Z" fill="#FED843"/>
</g>
<path id="Vector_6" d="M7 11.1641H4.94922V12.4492C4.94922 13.5812 5.86797 14.5 7 14.5C8.13203 14.5 9.05078 13.5812 9.05078 12.4492V11.1641H7Z" fill="#EDF5FF"/>
<path id="Vector_7" d="M9.05078 12.4492V11.1641H7V14.5C8.13203 14.5 9.05078 13.5812 9.05078 12.4492Z" fill="#D5E8FE"/>
</g>
<g id="Group_4">
<path id="Vector_8" d="M11.7788 2.93359L12.9862 1.72615L13.5662 2.30611L12.3588 3.51355L11.7788 2.93359Z" fill="#FABE2C"/>
</g>
<g id="Group_5">
<path id="Vector_9" d="M12.332 4.60156H14V5.42188H12.332V4.60156Z" fill="#FABE2C"/>
</g>
<g id="Group_6">
<path id="Vector_10" d="M11.77 7.0835L12.35 6.50354L13.5566 7.71012L12.9766 8.29009L11.77 7.0835Z" fill="#FABE2C"/>
</g>
<g id="Group_7">
<path id="Vector_11" d="M8.23047 4.19141C8.23047 4.58105 8.04289 4.95156 7.72898 5.18262C7.52938 5.32973 7.41016 5.56516 7.41016 5.81262V6.24219H6.58984V5.81262C6.58984 5.41613 6.73914 5.03441 7 4.74293C7.07246 4.66199 7.15367 4.58789 7.24281 4.52227C7.34918 4.44379 7.41016 4.3232 7.41016 4.19141C7.41016 3.96527 7.22613 3.78125 7 3.78125C6.77387 3.78125 6.58984 3.96527 6.58984 4.19141V4.60156H5.76953V4.19141C5.76953 3.51301 6.3216 2.96094 7 2.96094C7.6784 2.96094 8.23047 3.51301 8.23047 4.19141Z" fill="#47568C"/>
</g>
<g id="Group_8">
<path id="Vector_12" d="M6.58984 7.0625H7.41016V7.88281H6.58984V7.0625Z" fill="#47568C"/>
</g>
<g id="Group_9">
<path id="Vector_13" d="M7 7.0625H7.41016V7.88281H7V7.0625Z" fill="#29376D"/>
<path id="Vector_14" d="M8.23047 4.19141C8.23047 4.58105 8.04289 4.95156 7.72898 5.18262C7.52938 5.32973 7.41016 5.56516 7.41016 5.81262V6.24219H7V4.74293C7.07246 4.66199 7.15367 4.58789 7.24281 4.52227C7.34918 4.44379 7.41016 4.3232 7.41016 4.19141C7.41016 3.96527 7.22613 3.78125 7 3.78125V2.96094C7.6784 2.96094 8.23047 3.51301 8.23047 4.19141Z" fill="#29376D"/>
</g>
</g>
</svg>
