<svg width="16" height="19" viewBox="0 0 16 19" fill="none" xmlns="http://www.w3.org/2000/svg">
<g id="checklist question">
<path id="Vector" d="M14 2C14 18.0087 14.0225 17.0825 13.9513 17.3263C13.8813 17.5572 13.7389 17.7596 13.5451 17.9034C13.3513 18.0472 13.1163 18.1249 12.875 18.125H1.625C1.32663 18.125 1.04048 18.0065 0.829505 17.7955C0.618526 17.5845 0.5 17.2984 0.5 17V2C0.5 1.70163 0.618526 1.41548 0.829505 1.2045C1.04048 0.993526 1.32663 0.875 1.625 0.875H12.875C13.1734 0.875 13.4595 0.993526 13.6705 1.2045C13.8815 1.41548 14 1.70163 14 2Z" fill="#6FABE6"/>
<path id="Vector_2" d="M14.0001 1.99995C14.0001 18.0087 14.0226 17.0825 13.9513 17.3262C13.7113 17.3975 14.5026 17.375 2.37506 17.375C2.07669 17.375 1.79054 17.2564 1.57956 17.0455C1.36858 16.8345 1.25006 16.5483 1.25006 16.25C1.25006 0.259954 1.22381 1.17495 1.29881 0.923704C1.53881 0.852454 0.747556 0.874954 12.8751 0.874954C13.1734 0.874954 13.4596 0.99348 13.6706 1.20446C13.8815 1.41544 14.0001 1.70158 14.0001 1.99995Z" fill="#82BCF4"/>
<path id="Vector_3" d="M2 2.375H12.5V16.625H2V2.375Z" fill="#DAD7E5"/>
<path id="Vector_4" d="M12.5 2.375V15.875H4.25C3.85218 15.875 3.47064 15.717 3.18934 15.4357C2.90804 15.1544 2.75 14.7728 2.75 14.375V2.375H12.5Z" fill="#EDEBF2"/>
<path id="Vector_5" d="M8.75 4.25H5.75C5.45163 4.25 5.16548 4.13147 4.9545 3.9205C4.74353 3.70952 4.625 3.42337 4.625 3.125V2.375C4.625 2.27554 4.66451 2.18016 4.73484 2.10984C4.80516 2.03951 4.90054 2 5 2C5.09946 2 5.19484 2.03951 5.26517 2.10984C5.33549 2.18016 5.375 2.27554 5.375 2.375V3.125C5.375 3.22446 5.41451 3.31984 5.48483 3.39016C5.55516 3.46049 5.65054 3.5 5.75 3.5H8.75C8.84946 3.5 8.94484 3.46049 9.01517 3.39016C9.08549 3.31984 9.125 3.22446 9.125 3.125V2.375C9.125 2.27554 9.16451 2.18016 9.23484 2.10984C9.30516 2.03951 9.40054 2 9.5 2C9.59946 2 9.69484 2.03951 9.76517 2.10984C9.83549 2.18016 9.875 2.27554 9.875 2.375V3.125C9.875 3.42337 9.75647 3.70952 9.5455 3.9205C9.33452 4.13147 9.04837 4.25 8.75 4.25Z" fill="#425B72"/>
<path id="Vector_6" d="M4.25 0.875H10.25V2.375H4.25V0.875Z" fill="#FFCC66"/>
<path id="Vector_7" d="M10.25 0.875V1.625H5.75C5.55109 1.625 5.36032 1.54598 5.21967 1.40533C5.07902 1.26468 5 1.07391 5 0.875H10.25Z" fill="#FFDE76"/>
<path id="Vector_8" d="M3.23382 7.14132C3.16321 7.07071 3.12354 6.97493 3.12354 6.87507C3.12354 6.77521 3.16321 6.67943 3.23382 6.60882C3.30443 6.53821 3.40021 6.49854 3.50007 6.49854C3.59993 6.49854 3.69571 6.53821 3.76632 6.60882L4.25007 7.09632L5.48382 5.85882C5.55443 5.78821 5.65021 5.74854 5.75007 5.74854C5.84993 5.74854 5.94571 5.78821 6.01632 5.85882C6.08693 5.92943 6.1266 6.02521 6.1266 6.12507C6.1266 6.22493 6.08693 6.32071 6.01632 6.39132C3.97257 8.43132 4.45257 8.37507 3.23382 7.14132Z" fill="#F26674"/>
<g id="Group">
<path id="Vector_9" d="M8.75 9.875H7.25C7.15054 9.875 7.05516 9.83549 6.98483 9.76517C6.91451 9.69484 6.875 9.59946 6.875 9.5C6.875 9.40054 6.91451 9.30516 6.98483 9.23483C7.05516 9.16451 7.15054 9.125 7.25 9.125H8.75C8.84946 9.125 8.94484 9.16451 9.01517 9.23483C9.08549 9.30516 9.125 9.40054 9.125 9.5C9.125 9.59946 9.08549 9.69484 9.01517 9.76517C8.94484 9.83549 8.84946 9.875 8.75 9.875Z" fill="#C6C3D8"/>
<path id="Vector_10" d="M8 11.375H7.25C7.15054 11.375 7.05516 11.3355 6.98483 11.2652C6.91451 11.1948 6.875 11.0995 6.875 11C6.875 10.9005 6.91451 10.8052 6.98483 10.7348C7.05516 10.6645 7.15054 10.625 7.25 10.625H8C8.09946 10.625 8.19484 10.6645 8.26517 10.7348C8.33549 10.8052 8.375 10.9005 8.375 11C8.375 11.0995 8.33549 11.1948 8.26517 11.2652C8.19484 11.3355 8.09946 11.375 8 11.375Z" fill="#C6C3D8"/>
<path id="Vector_11" d="M11 6.5H7.25C7.15054 6.5 7.05516 6.46049 6.98483 6.39016C6.91451 6.31984 6.875 6.22446 6.875 6.125C6.875 6.02554 6.91451 5.93016 6.98483 5.85984C7.05516 5.78951 7.15054 5.75 7.25 5.75H11C11.0995 5.75 11.1948 5.78951 11.2652 5.85984C11.3355 5.93016 11.375 6.02554 11.375 6.125C11.375 6.22446 11.3355 6.31984 11.2652 6.39016C11.1948 6.46049 11.0995 6.5 11 6.5Z" fill="#C6C3D8"/>
<path id="Vector_12" d="M11 8H7.25C7.15054 8 7.05516 7.96049 6.98483 7.89017C6.91451 7.81984 6.875 7.72446 6.875 7.625C6.875 7.52554 6.91451 7.43016 6.98483 7.35983C7.05516 7.28951 7.15054 7.25 7.25 7.25H11C11.0995 7.25 11.1948 7.28951 11.2652 7.35983C11.3355 7.43016 11.375 7.52554 11.375 7.625C11.375 7.72446 11.3355 7.81984 11.2652 7.89017C11.1948 7.96049 11.0995 8 11 8Z" fill="#C6C3D8"/>
</g>
<path id="Vector_13" d="M3.875 9.5H5.375V11H3.875V9.5Z" fill="#9DCC6B"/>
<path id="Vector_14" d="M8 13.25H7.25C7.15054 13.25 7.05516 13.2105 6.98483 13.1402C6.91451 13.0698 6.875 12.9745 6.875 12.875C6.875 12.7755 6.91451 12.6802 6.98483 12.6098C7.05516 12.5395 7.15054 12.5 7.25 12.5H8C8.09946 12.5 8.19484 12.5395 8.26517 12.6098C8.33549 12.6802 8.375 12.7755 8.375 12.875C8.375 12.9745 8.33549 13.0698 8.26517 13.1402C8.19484 13.2105 8.09946 13.25 8 13.25Z" fill="#C6C3D8"/>
<path id="Vector_15" d="M8.75 14.75H7.25C7.15054 14.75 7.05516 14.7105 6.98483 14.6402C6.91451 14.5698 6.875 14.4745 6.875 14.375C6.875 14.2755 6.91451 14.1802 6.98483 14.1098C7.05516 14.0395 7.15054 14 7.25 14H8.75C8.84946 14 8.94484 14.0395 9.01517 14.1098C9.08549 14.1802 9.125 14.2755 9.125 14.375C9.125 14.4745 9.08549 14.5698 9.01517 14.6402C8.94484 14.7105 8.84946 14.75 8.75 14.75Z" fill="#C6C3D8"/>
<path id="Vector_16" d="M3.875 12.875H5.375V14.375H3.875V12.875Z" fill="#9DCC6B"/>
<path id="Vector_17" d="M5.375 12.875V14C5.07663 14 4.79048 13.8815 4.5795 13.6705C4.36853 13.4595 4.25 13.1734 4.25 12.875H5.375Z" fill="#B5E08C"/>
<path id="Vector_18" d="M5.375 9.5V10.625C5.07663 10.625 4.79048 10.5065 4.5795 10.2955C4.36853 10.0845 4.25 9.79837 4.25 9.5H5.375Z" fill="#B5E08C"/>
<path id="Vector_19" d="M15.5 11.75C15.5008 12.2662 15.3684 12.774 15.1156 13.2241C14.8628 13.6742 14.498 14.0515 14.0567 14.3194C13.6154 14.5873 13.1124 14.7368 12.5963 14.7533C12.0803 14.7699 11.5688 14.653 11.1111 14.414C10.6535 14.175 10.2653 13.822 9.98411 13.389C9.70289 12.956 9.53817 12.4578 9.50588 11.9425C9.47358 11.4273 9.57481 10.9124 9.79977 10.4477C10.0247 9.983 10.3658 9.58423 10.79 9.28995C11.2397 8.978 11.7661 8.79499 12.3123 8.76076C12.8586 8.72652 13.4037 8.84236 13.8889 9.09573C14.374 9.3491 14.7805 9.73035 15.0645 10.1982C15.3485 10.666 15.4991 11.2027 15.5 11.75Z" fill="#FFCC66"/>
<path id="Vector_20" d="M15.5 11.75C15.5017 12.3622 15.313 12.9598 14.96 13.46C14.4598 13.813 13.8622 14.0017 13.25 14C12.7027 13.9991 12.166 13.8485 11.6982 13.5645C11.2304 13.2805 10.8491 12.8739 10.5957 12.3888C10.3424 11.9037 10.2265 11.3585 10.2608 10.8123C10.295 10.2661 10.478 9.73963 10.79 9.28995C11.2396 8.978 11.7661 8.79499 12.3123 8.76076C12.8585 8.72652 13.4037 8.84236 13.8888 9.09573C14.3739 9.3491 14.7805 9.73035 15.0645 10.1982C15.3485 10.666 15.4991 11.2027 15.5 11.75Z" fill="#FFDE76"/>
<path id="Vector_21" d="M12.4999 9.875C11.3749 9.875 11.0299 11.375 11.7499 11.375C11.8494 11.375 11.9448 11.3355 12.0151 11.2652C12.0854 11.1948 12.1249 11.0995 12.1249 11C12.1248 10.9336 12.1422 10.8683 12.1756 10.8109C12.2089 10.7534 12.2569 10.7058 12.3146 10.673C12.3723 10.6402 12.4377 10.6233 12.5041 10.624C12.5706 10.6248 12.6356 10.6431 12.6926 10.6772C12.7495 10.7114 12.7964 10.76 12.8285 10.8182C12.8605 10.8764 12.8765 10.942 12.8748 11.0084C12.8732 11.0748 12.8539 11.1396 12.819 11.1961C12.7841 11.2526 12.7348 11.2988 12.6762 11.33C12.5323 11.4148 12.4085 11.5298 12.3133 11.667C12.2182 11.8043 12.1539 11.9605 12.1249 12.125V12.2975C12.1249 12.397 12.1645 12.4923 12.2348 12.5627C12.3051 12.633 12.4005 12.6725 12.4999 12.6725C12.5994 12.6725 12.6948 12.633 12.7651 12.5627C12.8354 12.4923 12.8749 12.397 12.8749 12.2975C12.8715 12.2369 12.8842 12.1764 12.9119 12.1223C12.9396 12.0683 12.9812 12.0226 13.0324 11.99C13.2527 11.8711 13.427 11.6822 13.5278 11.4532C13.6286 11.2241 13.6502 10.968 13.5891 10.7253C13.528 10.4826 13.3877 10.2673 13.1904 10.1133C12.9932 9.95925 12.7502 9.87541 12.4999 9.875Z" fill="#F26674"/>
<path id="Vector_22" d="M12.6425 12.9051C12.5857 12.8817 12.524 12.8727 12.4629 12.8788C12.4018 12.8849 12.3431 12.9059 12.292 12.9399C12.2409 12.974 12.1989 13.0201 12.1698 13.0742C12.1407 13.1283 12.1253 13.1887 12.125 13.2501C12.125 13.3495 12.1645 13.4449 12.2348 13.5153C12.3052 13.5856 12.4005 13.6251 12.5 13.6251C12.5861 13.6241 12.6691 13.5935 12.7353 13.5385C12.8015 13.4835 12.8467 13.4073 12.8635 13.3229C12.8802 13.2385 12.8673 13.1509 12.8271 13.0748C12.7869 12.9987 12.7217 12.9388 12.6425 12.9051Z" fill="#F26674"/>
</g>
</svg>
