<svg width="36" height="30" viewBox="0 0 36 30" fill="none" xmlns="http://www.w3.org/2000/svg">
<defs>
<filter id="filter0_f_1674_9694" x="-62.2749" y="-61.6133" width="163.775" height="159.613" filterUnits="userSpaceOnUse" color-interpolation-filters="sRGB">
<feFlood flood-opacity="0" result="BackgroundImageFix"/>
<feBlend mode="normal" in="SourceGraphic" in2="BackgroundImageFix" result="shape"/>
<feGaussianBlur stdDeviation="36" result="effect1_foregroundBlur_1674_9694"/>
</filter>
<filter id="filter1_di_1674_9694" x="3" y="4" width="47" height="38.9883" filterUnits="userSpaceOnUse" color-interpolation-filters="sRGB">
<feFlood flood-opacity="0" result="BackgroundImageFix"/>
<feColorMatrix in="SourceAlpha" type="matrix" values="0 0 0 0 0 0 0 0 0 0 0 0 0 0 0 0 0 0 127 0" result="hardAlpha"/>
<feOffset dx="8" dy="8"/>
<feGaussianBlur stdDeviation="8"/>
<feColorMatrix type="matrix" values="0 0 0 0 1 0 0 0 0 0.87451 0 0 0 0 0.423529 0 0 0 1 0"/>
<feBlend mode="normal" in2="BackgroundImageFix" result="effect1_dropShadow_1674_9694"/>
<feBlend mode="normal" in="SourceGraphic" in2="effect1_dropShadow_1674_9694" result="shape"/>
<feColorMatrix in="SourceAlpha" type="matrix" values="0 0 0 0 0 0 0 0 0 0 0 0 0 0 0 0 0 0 127 0" result="hardAlpha"/>
<feOffset dx="16" dy="16"/>
<feGaussianBlur stdDeviation="16"/>
<feComposite in2="hardAlpha" operator="arithmetic" k2="-1" k3="1"/>
<feColorMatrix type="matrix" values="0 0 0 0 0 0 0 0 0 0 0 0 0 0 0 0 0 0 0.25 0"/>
<feBlend mode="normal" in2="shape" result="effect2_innerShadow_1674_9694"/>
</filter>
<filter id="filter2_i_1674_9694" x="15.0493" y="16.5" width="6.90186" height="9.88672" filterUnits="userSpaceOnUse" color-interpolation-filters="sRGB">
<feFlood flood-opacity="0" result="BackgroundImageFix"/>
<feBlend mode="normal" in="SourceGraphic" in2="BackgroundImageFix" result="shape"/>
<feColorMatrix in="SourceAlpha" type="matrix" values="0 0 0 0 0 0 0 0 0 0 0 0 0 0 0 0 0 0 127 0" result="hardAlpha"/>
<feOffset dy="8"/>
<feGaussianBlur stdDeviation="8"/>
<feComposite in2="hardAlpha" operator="arithmetic" k2="-1" k3="1"/>
<feColorMatrix type="matrix" values="0 0 0 0 0.51276 0 0 0 0 0.0415645 0 0 0 0 0.0415645 0 0 0 0.4 0"/>
<feBlend mode="normal" in2="shape" result="effect1_innerShadow_1674_9694"/>
</filter>
<filter id="filter3_ddii_1674_9694" x="4.5" y="0.5" width="24" height="21.5" filterUnits="userSpaceOnUse" color-interpolation-filters="sRGB">
<feFlood flood-opacity="0" result="BackgroundImageFix"/>
<feColorMatrix in="SourceAlpha" type="matrix" values="0 0 0 0 0 0 0 0 0 0 0 0 0 0 0 0 0 0 127 0" result="hardAlpha"/>
<feOffset dx="4" dy="4"/>
<feGaussianBlur stdDeviation="4"/>
<feColorMatrix type="matrix" values="0 0 0 0 0.0727691 0 0 0 0 0.00493009 0 0 0 0 0.216927 0 0 0 0.4 0"/>
<feBlend mode="normal" in2="BackgroundImageFix" result="effect1_dropShadow_1674_9694"/>
<feColorMatrix in="SourceAlpha" type="matrix" values="0 0 0 0 0 0 0 0 0 0 0 0 0 0 0 0 0 0 127 0" result="hardAlpha"/>
<feOffset dx="1" dy="1"/>
<feGaussianBlur stdDeviation="2"/>
<feComposite in2="hardAlpha" operator="out"/>
<feColorMatrix type="matrix" values="0 0 0 0 0.0119274 0 0 0 0 0.0199607 0 0 0 0 0.21276 0 0 0 0.4 0"/>
<feBlend mode="normal" in2="effect1_dropShadow_1674_9694" result="effect2_dropShadow_1674_9694"/>
<feBlend mode="normal" in="SourceGraphic" in2="effect2_dropShadow_1674_9694" result="shape"/>
<feColorMatrix in="SourceAlpha" type="matrix" values="0 0 0 0 0 0 0 0 0 0 0 0 0 0 0 0 0 0 127 0" result="hardAlpha"/>
<feOffset dx="6" dy="6"/>
<feGaussianBlur stdDeviation="16"/>
<feComposite in2="hardAlpha" operator="arithmetic" k2="-1" k3="1"/>
<feColorMatrix type="matrix" values="0 0 0 0 0.76276 0 0 0 0 0.388636 0 0 0 0 0.122215 0 0 0 1 0"/>
<feBlend mode="normal" in2="shape" result="effect3_innerShadow_1674_9694"/>
<feColorMatrix in="SourceAlpha" type="matrix" values="0 0 0 0 0 0 0 0 0 0 0 0 0 0 0 0 0 0 127 0" result="hardAlpha"/>
<feOffset dx="-6" dy="-6"/>
<feGaussianBlur stdDeviation="16"/>
<feComposite in2="hardAlpha" operator="arithmetic" k2="-1" k3="1"/>
<feColorMatrix type="matrix" values="0 0 0 0 0.354427 0 0 0 0 0.180009 0 0 0 0 0.0538352 0 0 0 1 0"/>
<feBlend mode="normal" in2="effect3_innerShadow_1674_9694" result="effect4_innerShadow_1674_9694"/>
</filter>
<filter id="filter4_dii_1674_9694" x="14.5005" y="0.5" width="24" height="21.5" filterUnits="userSpaceOnUse" color-interpolation-filters="sRGB">
<feFlood flood-opacity="0" result="BackgroundImageFix"/>
<feColorMatrix in="SourceAlpha" type="matrix" values="0 0 0 0 0 0 0 0 0 0 0 0 0 0 0 0 0 0 127 0" result="hardAlpha"/>
<feOffset dx="4" dy="4"/>
<feGaussianBlur stdDeviation="4"/>
<feColorMatrix type="matrix" values="0 0 0 0 0.075147 0 0 0 0 0.00953788 0 0 0 0 0.15865 0 0 0 0.4 0"/>
<feBlend mode="normal" in2="BackgroundImageFix" result="effect1_dropShadow_1674_9694"/>
<feBlend mode="normal" in="SourceGraphic" in2="effect1_dropShadow_1674_9694" result="shape"/>
<feColorMatrix in="SourceAlpha" type="matrix" values="0 0 0 0 0 0 0 0 0 0 0 0 0 0 0 0 0 0 127 0" result="hardAlpha"/>
<feOffset dx="6" dy="6"/>
<feGaussianBlur stdDeviation="16"/>
<feComposite in2="hardAlpha" operator="arithmetic" k2="-1" k3="1"/>
<feColorMatrix type="matrix" values="0 0 0 0 0.76276 0 0 0 0 0.388636 0 0 0 0 0.122215 0 0 0 1 0"/>
<feBlend mode="normal" in2="shape" result="effect2_innerShadow_1674_9694"/>
<feColorMatrix in="SourceAlpha" type="matrix" values="0 0 0 0 0 0 0 0 0 0 0 0 0 0 0 0 0 0 127 0" result="hardAlpha"/>
<feOffset dx="-6" dy="-6"/>
<feGaussianBlur stdDeviation="16"/>
<feComposite in2="hardAlpha" operator="arithmetic" k2="-1" k3="1"/>
<feColorMatrix type="matrix" values="0 0 0 0 0.354427 0 0 0 0 0.180009 0 0 0 0 0.0538352 0 0 0 1 0"/>
<feBlend mode="normal" in2="effect2_innerShadow_1674_9694" result="effect3_innerShadow_1674_9694"/>
</filter>
<radialGradient id="paint0_radial_1674_9694" cx="0" cy="0" r="1" gradientUnits="userSpaceOnUse" gradientTransform="translate(5.5 13.25) rotate(61.3895) scale(3.13249)">
<stop stop-color="#FFCE21"/>
<stop offset="1" stop-color="#F2911E"/>
</radialGradient>
<radialGradient id="paint1_radial_1674_9694" cx="0" cy="0" r="1" gradientUnits="userSpaceOnUse" gradientTransform="translate(0.5 1.25) rotate(61.3895) scale(3.13249)">
<stop stop-color="#FFCE21"/>
<stop offset="1" stop-color="#F2911E"/>
</radialGradient>
<radialGradient id="paint2_radial_1674_9694" cx="0" cy="0" r="1" gradientUnits="userSpaceOnUse" gradientTransform="translate(14.25 6) rotate(78.559) scale(21.4257)">
<stop stop-color="#FFEA9F"/>
<stop offset="0.122763" stop-color="#FFE380"/>
<stop offset="0.415997" stop-color="#FFD250"/>
<stop offset="0.643669" stop-color="#FFC122"/>
<stop offset="1" stop-color="#FFB422"/>
</radialGradient>
<radialGradient id="paint3_radial_1674_9694" cx="0" cy="0" r="1" gradientUnits="userSpaceOnUse" gradientTransform="translate(14.25 6) rotate(78.559) scale(21.4257)">
<stop offset="0.557292" stop-color="#E35D12" stop-opacity="0"/>
<stop offset="1" stop-color="#FF24F6" stop-opacity="0.3"/>
</radialGradient>
<linearGradient id="paint4_linear_1674_9694" x1="18.5" y1="12" x2="18.5" y2="18.9896" gradientUnits="userSpaceOnUse">
<stop stop-color="#60310F"/>
<stop offset="0.450755" stop-color="#7D3807"/>
</linearGradient>
<linearGradient id="paint5_linear_1674_9694" x1="18.5002" y1="16.5" x2="18.5002" y2="18.3878" gradientUnits="userSpaceOnUse">
<stop stop-color="#F04343"/>
<stop offset="0.231992" stop-color="#EF4343"/>
<stop offset="0.377834" stop-color="#E13737"/>
<stop offset="1" stop-color="#C72121"/>
</linearGradient>
</defs>
<circle cx="7" cy="14" r="2" fill="url(#paint0_radial_1674_9694)"/>
<circle cx="2" cy="2" r="2" transform="matrix(-1 0 0 1 32 12)" fill="url(#paint1_radial_1674_9694)"/>
<circle cx="18.5" cy="15" r="12" fill="url(#paint2_radial_1674_9694)"/>
<circle cx="18.5" cy="15" r="12" fill="url(#paint3_radial_1674_9694)"/>
<g filter="url(#filter0_f_1674_9694)">
<path d="M17.7501 25.0005C23.9633 25.0005 29.0001 19.9637 29.0001 13.7505C29.0001 12.5788 28.8209 11.4489 28.4886 10.3867C29.1377 11.7898 29.5 13.3528 29.5 15.0005C29.5 21.0756 24.5751 26.0005 18.5 26.0005C14.9166 26.0005 11.7335 24.2871 9.7251 21.6348C11.7662 23.7122 14.6077 25.0005 17.7501 25.0005Z" fill="#C1092A" fill-opacity="0.6"/>
</g>
<g filter="url(#filter1_di_1674_9694)">
<path d="M18.5 12C14.7695 12 11.5 14.5 11.0188 17.7337C10.8975 18.3447 11.3772 18.8647 12.0174 18.9774C12.1882 19.0075 12.3621 18.9774 12.5304 18.9352C13.4137 18.7137 16.4208 18 18.5 18C20.5792 18 23.5863 18.7137 24.4696 18.9352C24.6379 18.9774 24.8118 19.0075 24.9826 18.9774C25.6228 18.8647 26.1025 18.3447 25.9812 17.7337C25.5 14.5 22.2305 12 18.5 12Z" fill="url(#paint4_linear_1674_9694)"/>
</g>
<g filter="url(#filter2_i_1674_9694)">
<path fill-rule="evenodd" clip-rule="evenodd" d="M21.951 18.3878C21.5834 17.3057 20.1779 16.5 18.5002 16.5C16.8224 16.5 15.4169 17.3057 15.0493 18.3878C16.1757 18.1803 17.4551 18 18.5002 18C19.5452 18 20.8247 18.1803 21.951 18.3878Z" fill="url(#paint5_linear_1674_9694)"/>
</g>
<g filter="url(#filter3_ddii_1674_9694)">
<path fill-rule="evenodd" clip-rule="evenodd" d="M11.5151 6.87885C11.582 6.61095 11.8535 6.44807 12.1214 6.51505L16.1214 7.51505C16.3398 7.56964 16.4948 7.76345 16.5 7.9885C16.5052 8.21355 16.3594 8.41435 16.1438 8.47903L11.1438 9.97903C10.8793 10.0584 10.6006 9.90829 10.5212 9.64379C10.4419 9.3793 10.592 9.10055 10.8565 9.02121L14.1139 8.04396L11.8789 7.48519C11.611 7.41822 11.4481 7.14675 11.5151 6.87885Z" fill="#894819"/>
</g>
<g filter="url(#filter4_dii_1674_9694)">
<path fill-rule="evenodd" clip-rule="evenodd" d="M25.4854 6.87885C25.4185 6.61095 25.147 6.44807 24.8791 6.51505L20.8791 7.51505C20.6607 7.56964 20.5057 7.76345 20.5005 7.9885C20.4953 8.21355 20.6411 8.41435 20.8567 8.47903L25.8567 9.97903C26.1212 10.0584 26.3999 9.90829 26.4793 9.64379C26.5586 9.3793 26.4085 9.10055 26.144 9.02121L22.8865 8.04396L25.1216 7.48519C25.3895 7.41822 25.5524 7.14675 25.4854 6.87885Z" fill="#894819"/>
</g>
</svg>
