<svg width="45" height="45" viewBox="0 0 45 45" fill="none" xmlns="http://www.w3.org/2000/svg">
<circle cx="22.5" cy="22.5" r="22.5" fill="#F6F6F6"/>
<path d="M32.7555 31.6065L29.3182 28.2458L29.2376 28.1233C29.0878 27.9742 28.883 27.8902 28.6692 27.8902C28.4554 27.8902 28.2505 27.9742 28.1007 28.1233C25.1795 30.8033 20.6781 30.949 17.582 28.4637C14.4859 25.9784 13.7557 21.6334 15.8757 18.3102C17.9957 14.987 22.3081 13.7168 25.9528 15.3421C29.5976 16.9674 31.4438 20.9838 30.267 24.7276C30.1823 24.9981 30.2515 25.2922 30.4487 25.4992C30.6459 25.7062 30.9411 25.7946 31.223 25.7311C31.505 25.6676 31.7309 25.4619 31.8156 25.1914C33.2224 20.7486 31.0977 15.9676 26.8161 13.9411C22.5345 11.9146 17.3808 13.2508 14.6891 17.0854C11.9973 20.92 12.5752 26.1021 16.0489 29.2795C19.5227 32.4569 24.8498 32.6759 28.5841 29.7949L31.6277 32.7705C31.942 33.0765 32.4502 33.0765 32.7645 32.7705C33.0785 32.4602 33.0785 31.9606 32.7645 31.6503L32.7555 31.6065Z" fill="#1F1F1F"/>
</svg>
