<svg width="35" height="35" viewBox="0 0 35 35" fill="none" xmlns="http://www.w3.org/2000/svg">
<path d="M0 17.5C0 3.5 3.5 0 17.5 0C31.5 0 35 3.5 35 17.5C35 31.5 31.5 35 17.5 35C3.5 35 0 31.5 0 17.5Z" fill="#E2E2E2"/>
<path fill-rule="evenodd" clip-rule="evenodd" d="M17.4998 15C18.8808 15 19.9998 16.119 19.9998 17.5C19.9998 18.881 18.8808 20 17.4998 20C16.1188 20 14.9998 18.881 14.9998 17.5C14.9998 16.119 16.1188 15 17.4998 15Z" fill="#8C8C8C" stroke="white" stroke-width="1.5" stroke-linecap="round" stroke-linejoin="round"/>
<path fill-rule="evenodd" clip-rule="evenodd" d="M25.6679 12.75C24.9839 11.558 23.4709 11.15 22.2889 11.839C21.2599 12.436 19.9739 11.688 19.9739 10.492C19.9739 9.116 18.8659 8 17.4999 8C16.1338 8 15.0248 9.116 15.0248 10.492C15.0248 11.688 13.7398 12.436 12.7118 11.839C11.5278 11.15 10.0148 11.558 9.33183 12.75C8.64882 13.943 9.05383 15.467 10.2378 16.154C11.2648 16.753 11.2648 18.247 10.2378 18.846C9.05383 19.534 8.64882 21.058 9.33183 22.25C10.0148 23.442 11.5278 23.85 12.7108 23.162H12.7118C13.7398 22.564 15.0248 23.312 15.0248 24.508C15.0248 25.884 16.1338 27 17.4999 27C18.8659 27 19.9739 25.884 19.9739 24.508C19.9739 23.312 21.2599 22.564 22.2889 23.162C23.4709 23.85 24.9839 23.442 25.6679 22.25C26.3519 21.058 25.9459 19.534 24.7629 18.846H24.7619C23.7339 18.247 23.7339 16.753 24.7629 16.154C25.9459 15.467 26.3519 13.943 25.6679 12.75Z" fill="#8C8C8C" stroke="#8C8C8C" stroke-width="1.5" stroke-linecap="round" stroke-linejoin="round"/>
<path fill-rule="evenodd" clip-rule="evenodd" d="M17.5 15C18.881 15 20 16.119 20 17.5C20 18.881 18.881 20 17.5 20C16.119 20 15 18.881 15 17.5C15 16.119 16.119 15 17.5 15Z" fill="#8C8C8C" stroke="white" stroke-width="1.5" stroke-linecap="round" stroke-linejoin="round"/>
</svg>
