<svg width="27" height="42" viewBox="0 0 27 42" fill="none" xmlns="http://www.w3.org/2000/svg">
<defs>
<linearGradient id="paint0_linear_1312_66978" x1="5.41122" y1="14.2327" x2="20.8098" y2="14.2327" gradientUnits="userSpaceOnUse">
<stop stop-color="#BBBBBB"/>
<stop offset="1" stop-color="white"/>
</linearGradient>
<linearGradient id="paint1_linear_1312_66978" x1="19.3038" y1="34.1583" x2="5.61331" y2="20.4678" gradientUnits="userSpaceOnUse">
<stop stop-color="#BBBBBB"/>
<stop offset="1" stop-color="white"/>
</linearGradient>
<linearGradient id="paint2_linear_1312_66978" x1="5.96921" y1="20.8239" x2="22.5384" y2="37.3931" gradientUnits="userSpaceOnUse">
<stop stop-color="#BBBBBB"/>
<stop offset="1" stop-color="white"/>
</linearGradient>
<linearGradient id="paint3_linear_1312_66978" x1="25.9595" y1="40.8139" x2="0.396917" y2="15.2514" gradientUnits="userSpaceOnUse">
<stop stop-color="#BBBBBB"/>
<stop offset="1" stop-color="white"/>
</linearGradient>
<linearGradient id="paint4_linear_1312_66978" x1="16.0681" y1="6.7635" x2="13.618" y2="7.9535" gradientUnits="userSpaceOnUse">
<stop stop-color="white"/>
<stop offset="1" stop-color="#121E3D"/>
</linearGradient>
</defs>
<path d="M7.90002 18.0998V15.2998C7.90002 13.8998 9.00002 12.7998 10.4 12.7998H15.8C17.2 12.7998 18.3 13.8998 18.3 15.2998V18.0998H20.8V15.2998C20.8 12.4998 18.6 10.2998 15.8 10.2998H10.4C7.60002 10.2998 5.40002 12.4998 5.40002 15.2998V18.0998H7.90002Z" fill="url(#paint0_linear_1312_66978)"/>
<path d="M13.1 41.0999C20.3349 41.0999 26.2 35.2348 26.2 27.9999C26.2 20.765 20.3349 14.8999 13.1 14.8999C5.86508 14.8999 0 20.765 0 27.9999C0 35.2348 5.86508 41.0999 13.1 41.0999Z" fill="url(#paint1_linear_1312_66978)"/>
<path d="M13.1 40.4001C19.9483 40.4001 25.5 34.8484 25.5 28.0001C25.5 21.1518 19.9483 15.6001 13.1 15.6001C6.25168 15.6001 0.700012 21.1518 0.700012 28.0001C0.700012 34.8484 6.25168 40.4001 13.1 40.4001Z" fill="url(#paint2_linear_1312_66978)"/>
<path d="M13.1 38.5999C18.9542 38.5999 23.7 33.8541 23.7 27.9999C23.7 22.1457 18.9542 17.3999 13.1 17.3999C7.24579 17.3999 2.5 22.1457 2.5 27.9999C2.5 33.8541 7.24579 38.5999 13.1 38.5999Z" fill="url(#paint3_linear_1312_66978)"/>
<path d="M9.06969 34V32.256C9.41635 31.9947 9.82702 31.672 10.3017 31.288C10.7764 30.8987 11.2644 30.48 11.7657 30.032C12.267 29.5787 12.731 29.1253 13.1577 28.672C13.5844 28.2187 13.931 27.7867 14.1977 27.376C14.4697 26.9653 14.6057 26.6133 14.6057 26.32C14.6057 25.9947 14.5257 25.6987 14.3657 25.432C14.2057 25.16 13.9924 24.944 13.7257 24.784C13.4644 24.624 13.171 24.544 12.8457 24.544C12.5204 24.544 12.2244 24.624 11.9577 24.784C11.691 24.944 11.4777 25.16 11.3177 25.432C11.1577 25.6987 11.0777 25.9947 11.0777 26.32H9.12569C9.12569 25.616 9.29635 24.984 9.63769 24.424C9.97902 23.8587 10.4297 23.4133 10.9897 23.088C11.555 22.7573 12.1737 22.592 12.8457 22.592C13.5284 22.592 14.1497 22.76 14.7097 23.096C15.2697 23.4267 15.7177 23.8747 16.0537 24.44C16.3897 25.0053 16.5577 25.632 16.5577 26.32C16.5577 26.6827 16.491 27.048 16.3577 27.416C16.2244 27.784 16.0377 28.1547 15.7977 28.528C15.5577 28.9013 15.275 29.28 14.9497 29.664C14.6244 30.0427 14.2644 30.432 13.8697 30.832C13.4804 31.2267 13.0697 31.632 12.6377 32.048H16.6137V34H9.06969Z" fill="#1F1F1F"/>
<path opacity="0.45" d="M3.20001 28.6999C3.20001 22.8999 7.9 18.0999 13.8 18.0999C16.5 18.0999 19 19.1999 20.9 20.8999C19 18.7999 16.2 17.3999 13.1 17.3999C7.30001 17.3999 2.5 22.0999 2.5 27.9999C2.5 31.0999 3.8 33.8999 6 35.7999C4.3 33.8999 3.20001 31.3999 3.20001 28.6999Z" fill="white"/>
<path opacity="0.67" d="M19.8 19.7998C21.3 21.5998 22.7 24.4998 22.7 26.9998C22.7 32.7998 18 37.5998 12.1 37.5998C9.60002 37.5998 6.70002 36.1998 4.90002 34.6998C6.80002 37.0998 9.80002 38.5998 13.1 38.5998C18.9 38.5998 23.7 33.8998 23.7 27.9998C23.7 24.6998 22.2 21.6998 19.8 19.7998Z" fill="#93908F"/>
<path d="M14.5 0L9.79999 12.8C9.59999 13.5 9.99999 14.2 10.8 14.2H11.8L17 0.0999908H14.5V0Z" fill="#28AFDF"/>
<path d="M16.9999 0L11.7 14.2H14.2L19.3999 0H16.9999Z" fill="white"/>
<path d="M19.3999 0L15.3999 10.8L14.2 14.1H15.8999C16.0999 14.1 16.3999 14 16.4999 13.9C16.5999 13.8 16.6999 13.6 16.7999 13.5L21.7999 0H19.3999Z" fill="#F96262"/>
<path opacity="0.69" d="M18.2 10L16.9 13.5C16.8 13.7 16.7 13.8 16.6 13.9C16.4 14.1 16.2 14.1 16 14.1H10.8C10.1 14.1 9.59999 13.4 9.79999 12.7L14.5 0L18.2 10Z" fill="url(#paint4_linear_1312_66978)"/>
<path d="M11.4 0H9L14.2 14.1H15.9C16.1 14.1 16.4 14 16.5 13.9L15.4 10.8L11.4 0Z" fill="#28AFDF"/>
<path d="M6.5 0L11.8 14.2H14.2L9 0H6.5Z" fill="white"/>
<path d="M4.09998 0L9.09998 13.5C9.19998 13.9 9.59998 14.2 10.1 14.2H11.8L6.59998 0.0999908H4.09998V0Z" fill="#F96262"/>
</svg>
