<svg width="35" height="35" viewBox="0 0 35 35" fill="none" xmlns="http://www.w3.org/2000/svg">
<rect width="35" height="35" rx="17.5" fill="#F96262"/>
<path d="M22.9677 22.1753C22.9645 22.1719 22.9635 22.1673 22.9601 22.164L21.0502 20.254C21.6431 19.4918 21.9999 18.5373 21.9999 17.4991C21.9999 16.461 21.6431 15.5065 21.0502 14.7442L22.9601 12.8343C22.9615 12.833 22.9619 12.831 22.9633 12.8296C23.1874 12.9368 23.4317 12.9991 23.6874 12.9991C24.1382 12.9991 24.562 12.8234 24.8806 12.5048C25.5386 11.8467 25.5386 10.7766 24.8808 10.1185C24.2431 9.48133 23.1315 9.48133 22.4943 10.1185C21.976 10.6368 21.8724 11.4082 22.1704 12.0351C22.1687 12.0368 22.1664 12.0373 22.1647 12.039L20.2548 13.9489C19.4926 13.356 18.5381 12.9991 17.4999 12.9991C16.4618 12.9991 15.5073 13.356 14.745 13.9489L12.8351 12.039C12.8334 12.0372 12.8311 12.0368 12.8293 12.0351C13.1275 11.4082 13.0239 10.6368 12.5058 10.1185C11.8681 9.48133 10.7565 9.48133 10.1193 10.1185C9.46125 10.7766 9.46125 11.8467 10.119 12.5048C10.4379 12.8234 10.8617 12.9991 11.3124 12.9991C11.5682 12.9991 11.8125 12.9368 12.0366 12.8297C12.038 12.8311 12.0383 12.8329 12.0398 12.8343L13.9497 14.7442C13.3568 15.5065 12.9999 16.461 12.9999 17.4991C12.9999 18.5373 13.3568 19.4918 13.9497 20.254L12.0398 22.164C12.0364 22.1673 12.0355 22.1719 12.0322 22.1753C11.4066 21.892 10.6187 21.9942 10.1193 22.4935C9.46125 23.1516 9.46125 24.2217 10.119 24.8798C10.4379 25.1984 10.8617 25.3741 11.3124 25.3741C11.7632 25.3741 12.187 25.1984 12.5056 24.8798C13.0238 24.3615 13.1275 23.5901 12.8294 22.9632C12.8312 22.9615 12.8334 22.961 12.8351 22.9593L14.745 21.0494C15.5073 21.6423 16.4618 21.9991 17.4999 21.9991C18.5381 21.9991 19.4926 21.6423 20.2548 21.0494L22.1647 22.9593C22.1665 22.9611 22.1689 22.9615 22.1705 22.9632C21.8724 23.59 21.976 24.3614 22.494 24.8797C22.8129 25.1984 23.2367 25.3741 23.6874 25.3741C24.1382 25.3741 24.562 25.1984 24.8806 24.8798C25.5386 24.2217 25.5386 23.1516 24.8808 22.4935C24.3811 21.9942 23.5931 21.892 22.9677 22.1753ZM23.29 10.914C23.396 10.8074 23.5372 10.7491 23.6874 10.7491C23.8377 10.7491 23.9789 10.8074 24.0851 10.914C24.3043 11.1331 24.3043 11.4902 24.0848 11.7094C23.8728 11.9225 23.5023 11.9225 23.2897 11.7094C23.0705 11.4902 23.0705 11.1331 23.29 10.914ZM11.7098 11.7093C11.4978 11.9225 11.1273 11.9225 10.9147 11.7093C10.6955 11.4902 10.6955 11.1331 10.915 10.914C11.021 10.8074 11.1622 10.7491 11.3124 10.7491C11.4627 10.7491 11.6039 10.8074 11.7101 10.914C11.9293 11.1331 11.9293 11.4902 11.7098 11.7093ZM11.7098 24.0843C11.4978 24.2975 11.1273 24.2975 10.9147 24.0843C10.6955 23.8652 10.6955 23.5081 10.915 23.2889C11.021 23.1824 11.1622 23.1241 11.3124 23.1241C11.4627 23.1241 11.6039 23.1824 11.7101 23.289C11.9293 23.5081 11.9293 23.8652 11.7098 24.0843ZM15.997 16.6338C15.504 15.9767 15.2488 15.4602 15.1824 15.1843C15.4797 15.2541 15.9957 15.5166 16.6322 15.994C16.5214 16.098 16.4106 16.2024 16.3069 16.306C16.1987 16.4141 16.0998 16.5243 15.997 16.6338ZM14.1249 17.4991C14.1249 17.036 14.219 16.5945 14.3885 16.1924C14.4179 16.2502 14.4438 16.3061 14.4771 16.3659C14.6758 16.7238 14.9366 17.1079 15.2438 17.4991C14.9366 17.8904 14.6758 18.2745 14.4771 18.6324C14.4438 18.6922 14.4179 18.7481 14.3885 18.8059C14.219 18.4038 14.1249 17.9622 14.1249 17.4991ZM15.997 18.3645C16.0998 18.474 16.1987 18.5842 16.3068 18.6923C16.4105 18.796 16.5214 18.9003 16.6322 19.0043C15.9956 19.4817 15.4796 19.7441 15.1823 19.8139C15.2488 19.538 15.504 19.0215 15.997 18.3645ZM17.1023 17.8968C16.9666 17.7612 16.8424 17.6293 16.7225 17.4991C16.8424 17.369 16.9666 17.2371 17.1023 17.1015C17.2372 16.9665 17.3694 16.8412 17.4998 16.7211C17.6303 16.8413 17.7626 16.9664 17.8976 17.1015C18.0333 17.2371 18.1576 17.369 18.2775 17.4992C18.1576 17.6293 18.0333 17.7612 17.8976 17.8969C17.7626 18.0319 17.6303 18.1569 17.4999 18.2771C17.3695 18.1569 17.2373 18.0318 17.1023 17.8968ZM20.8749 17.4991C20.8749 17.9622 20.7809 18.4038 20.6114 18.8059C20.5819 18.7481 20.5561 18.6922 20.5228 18.6324C20.3241 18.2744 20.0633 17.8904 19.7561 17.4991C20.0633 17.1079 20.3241 16.7238 20.5228 16.3659C20.5561 16.3061 20.5819 16.2502 20.6114 16.1924C20.7809 16.5945 20.8749 17.036 20.8749 17.4991ZM19.0029 16.6338C18.9001 16.5244 18.8012 16.4141 18.6931 16.306C18.5895 16.2025 18.4787 16.0983 18.3682 15.9944C18.9965 15.524 19.51 15.262 19.8167 15.1882C19.7488 15.4647 19.4939 15.9795 19.0029 16.6338ZM18.6931 18.6923C18.8012 18.5842 18.9001 18.474 19.0029 18.3645C19.4959 19.0215 19.7511 19.538 19.8175 19.8139C19.5202 19.7441 19.0042 19.4817 18.3677 19.0043C18.4785 18.9003 18.5893 18.796 18.6931 18.6923ZM18.8075 14.388C18.3808 14.6048 17.935 14.9041 17.4999 15.2469C17.0649 14.9042 16.6191 14.6048 16.1924 14.388C16.5947 14.2182 17.0365 14.1241 17.4999 14.1241C17.9634 14.1241 18.4052 14.2182 18.8075 14.388ZM16.1924 20.6103C16.6191 20.3935 17.0649 20.0942 17.4999 19.7513C17.935 20.0941 18.3808 20.3935 18.8075 20.6103C18.4052 20.78 17.9634 20.8741 17.4999 20.8741C17.0365 20.8741 16.5947 20.78 16.1924 20.6103ZM24.0848 24.0843C23.8728 24.2975 23.5023 24.2975 23.2897 24.0843C23.0705 23.8652 23.0705 23.5081 23.29 23.2889C23.396 23.1824 23.5372 23.1241 23.6874 23.1241C23.8377 23.1241 23.9789 23.1824 24.0851 23.289C24.3043 23.5081 24.3043 23.8652 24.0848 24.0843Z" fill="white"/>
</svg>
