<svg width="192" height="192" viewBox="0 0 192 192" fill="none" xmlns="http://www.w3.org/2000/svg">
<defs>
<radialGradient id="paint0_radial_1674_9685" cx="0" cy="0" r="1" gradientUnits="userSpaceOnUse" gradientTransform="translate(10.5828 127.151) rotate(180) scale(41.7328 41.7328)">
<stop offset="0.0503081" stop-color="#E94E1B"/>
<stop offset="0.1482" stop-color="#EB5317"/>
<stop offset="0.6602" stop-color="#F56706"/>
<stop offset="1" stop-color="#F96F00"/>
</radialGradient>
<radialGradient id="paint1_radial_1674_9685" cx="0" cy="0" r="1" gradientUnits="userSpaceOnUse" gradientTransform="translate(115.993 38.7959) scale(202.959 202.959)">
<stop offset="0.1213" stop-color="#F9B233"/>
<stop offset="0.3101" stop-color="#F6A22F"/>
<stop offset="0.6783" stop-color="#F07825"/>
<stop offset="1" stop-color="#E94E1B"/>
</radialGradient>
<radialGradient id="paint2_radial_1674_9685" cx="0" cy="0" r="1" gradientUnits="userSpaceOnUse" gradientTransform="translate(103.925 90.1789) rotate(180) scale(40.0851 40.0851)">
<stop stop-color="white"/>
<stop offset="1" stop-color="#B1DCFF"/>
</radialGradient>
<radialGradient id="paint3_radial_1674_9685" cx="0" cy="0" r="1" gradientUnits="userSpaceOnUse" gradientTransform="translate(82.3567 60.1876) scale(108.68 108.68)">
<stop offset="0.1213" stop-color="#F9B233"/>
<stop offset="0.3101" stop-color="#F6A22F"/>
<stop offset="0.6783" stop-color="#F07825"/>
<stop offset="1" stop-color="#E94E1B"/>
</radialGradient>
<radialGradient id="paint4_radial_1674_9685" cx="0" cy="0" r="1" gradientUnits="userSpaceOnUse" gradientTransform="translate(72.3025 100.866) rotate(180) scale(23.8859 23.8859)">
<stop stop-color="#F96F00"/>
<stop offset="0.3398" stop-color="#F56706"/>
<stop offset="0.8518" stop-color="#EB5317"/>
<stop offset="0.9497" stop-color="#E94E1B"/>
</radialGradient>
<radialGradient id="paint5_radial_1674_9685" cx="0" cy="0" r="1" gradientUnits="userSpaceOnUse" gradientTransform="translate(63.651 127.389) rotate(180) scale(20.653)">
<stop stop-color="#F96F00"/>
<stop offset="0.3398" stop-color="#F56706"/>
<stop offset="0.8518" stop-color="#EB5317"/>
<stop offset="0.9497" stop-color="#E94E1B"/>
</radialGradient>
<radialGradient id="paint6_radial_1674_9685" cx="0" cy="0" r="1" gradientUnits="userSpaceOnUse" gradientTransform="translate(76.3713 128.923) rotate(180) scale(4.55716)">
<stop stop-color="#F96F00"/>
<stop offset="0.3398" stop-color="#F56706"/>
<stop offset="0.8518" stop-color="#EB5317"/>
<stop offset="0.9497" stop-color="#E94E1B"/>
</radialGradient>
<radialGradient id="paint7_radial_1674_9685" cx="0" cy="0" r="1" gradientUnits="userSpaceOnUse" gradientTransform="translate(31.6685 140.032) rotate(180) scale(14.4213 14.4213)">
<stop offset="0.1213" stop-color="#F9B233"/>
<stop offset="0.3101" stop-color="#F6A22F"/>
<stop offset="0.6783" stop-color="#F07825"/>
<stop offset="1" stop-color="#E94E1B"/>
</radialGradient>
<radialGradient id="paint8_radial_1674_9685" cx="0" cy="0" r="1" gradientUnits="userSpaceOnUse" gradientTransform="translate(106.341 53.3979) scale(38.2905 38.2904)">
<stop stop-color="#FFBFA6"/>
<stop offset="0.1835" stop-color="#FFB8A2"/>
<stop offset="0.4457" stop-color="#FFA598"/>
<stop offset="0.7536" stop-color="#FF8788"/>
<stop offset="1" stop-color="#FF6978"/>
</radialGradient>
<radialGradient id="paint9_radial_1674_9685" cx="0" cy="0" r="1" gradientUnits="userSpaceOnUse" gradientTransform="translate(89.514 117.858) rotate(-159.733) scale(10.2924 10.2923)">
<stop stop-color="#2483FE"/>
<stop offset="0.379" stop-color="#1769D4"/>
<stop offset="0.787" stop-color="#0A50AD"/>
<stop offset="1" stop-color="#05479E"/>
</radialGradient>
<radialGradient id="paint10_radial_1674_9685" cx="0" cy="0" r="1" gradientUnits="userSpaceOnUse" gradientTransform="translate(89.1447 114.481) rotate(-159.733) scale(4.56769 4.56769)">
<stop stop-color="#2483FE"/>
<stop offset="0.379" stop-color="#1769D4"/>
<stop offset="0.787" stop-color="#0A50AD"/>
<stop offset="1" stop-color="#05479E"/>
</radialGradient>
<radialGradient id="paint11_radial_1674_9685" cx="0" cy="0" r="1" gradientUnits="userSpaceOnUse" gradientTransform="translate(116.866 86.9961) rotate(159.035) scale(10.2923 10.2923)">
<stop stop-color="#2483FE"/>
<stop offset="0.379" stop-color="#1769D4"/>
<stop offset="0.787" stop-color="#0A50AD"/>
<stop offset="1" stop-color="#05479E"/>
</radialGradient>
<radialGradient id="paint12_radial_1674_9685" cx="0" cy="0" r="1" gradientUnits="userSpaceOnUse" gradientTransform="translate(116.538 90.3751) rotate(159.035) scale(4.56764)">
<stop stop-color="#2483FE"/>
<stop offset="0.379" stop-color="#1769D4"/>
<stop offset="0.787" stop-color="#0A50AD"/>
<stop offset="1" stop-color="#05479E"/>
</radialGradient>
<radialGradient id="paint13_radial_1674_9685" cx="0" cy="0" r="1" gradientUnits="userSpaceOnUse" gradientTransform="translate(133.82 18.4957) rotate(4.67297) scale(86.5281 86.5281)">
<stop offset="0.0307263" stop-color="#FFFFCC"/>
<stop offset="0.4521" stop-color="#FFCDCC"/>
<stop offset="0.5827" stop-color="#FFC6C5"/>
<stop offset="0.7694" stop-color="#FFB3B3"/>
<stop offset="0.9888" stop-color="#FF9595"/>
<stop offset="1" stop-color="#FF9393"/>
</radialGradient>
<radialGradient id="paint14_radial_1674_9685" cx="0" cy="0" r="1" gradientUnits="userSpaceOnUse" gradientTransform="translate(130.538 100.643) scale(153.197 153.196)">
<stop offset="0.1213" stop-color="#F9B233"/>
<stop offset="0.3101" stop-color="#F6A22F"/>
<stop offset="0.6783" stop-color="#F07825"/>
<stop offset="1" stop-color="#E94E1B"/>
</radialGradient>
<radialGradient id="paint15_radial_1674_9685" cx="0" cy="0" r="1" gradientUnits="userSpaceOnUse" gradientTransform="translate(63.7777 91.4856) rotate(180) scale(20.313 20.313)">
<stop stop-color="white"/>
<stop offset="1" stop-color="#B1DCFF"/>
</radialGradient>
</defs>
<path d="M95.7063 191.413C148.563 191.413 191.413 148.563 191.413 95.7063C191.413 42.8492 148.563 0 95.7063 0C42.8492 0 0 42.8492 0 95.7063C0 148.563 42.8492 191.413 95.7063 191.413Z" fill="#FEE0E0"/>
<path d="M59.426 86.8645C59.426 86.8645 54.8989 80.4033 51.2432 80.7646C47.5875 81.1259 48.0126 82.3799 48.0126 82.3799L46.9712 90.839L52.0296 89.0111L51.0094 83.9952L52.1996 83.3788L54.9414 88.0547L59.426 86.8645Z" fill="#28AFDF"/>
<path d="M49.6279 81.615L50.7969 82.1038L52.1784 81.5938C52.1784 81.5938 52.2634 82.784 52.1784 83.3791L50.9882 83.9954V84.0379L50.4568 82.5289L49.6279 81.615Z" fill="#C6C6C6" fill-opacity="0.2"/>
<path d="M48.3954 82.6351C48.3954 82.6351 47.9704 81.3812 51.626 81.0198C51.8386 80.9986 52.0511 80.9986 52.2424 81.0198L49.5857 81.7L49.0968 83.0815L49.2031 88.4162L51.3285 88.5012L47.354 91.0942L48.3954 82.6351Z" fill="#C6C6C6" fill-opacity="0.2"/>
<path d="M75.5791 140.765L65.2072 138.13L52.051 118.024L56.8756 86.1641L43.5707 90.4999C43.5707 90.4999 30.117 97.7687 30.2657 115.409L29.3306 138.3C29.3306 138.3 37.8321 164.591 40 166.143L62.7417 168.31C62.7417 168.31 74.0275 165.994 72.4972 151.137C74.8139 143.231 75.5791 140.765 75.5791 140.765Z" fill="#28AFDF"/>
<path d="M43.1879 90.7109C43.0391 90.8385 42.8903 90.966 42.7416 91.1148C39.6172 93.984 34.9201 103.038 34.3463 109.754C33.5811 118.66 35.4515 130.775 35.6215 131.667C34.8564 131.816 34.1125 131.965 33.3686 132.156L32.0721 114.877C31.9446 99.1062 41.2325 92.0287 43.1879 90.7109Z" fill="white"/>
<path d="M35.2178 134.833C35.1965 134.769 35.1328 134.706 35.069 134.727C35.0052 134.748 34.9415 134.812 34.9627 134.876C35.0265 135.152 35.069 135.428 35.1115 135.662C35.1328 135.726 35.1965 135.79 35.2603 135.768C35.3241 135.747 35.3878 135.683 35.3666 135.62C35.3241 135.386 35.2815 135.109 35.2178 134.833ZM34.9202 133.239C34.899 133.175 34.8352 133.112 34.7714 133.133C34.7077 133.154 34.6439 133.218 34.6652 133.282C34.7077 133.558 34.7715 133.813 34.814 134.089C34.8352 134.153 34.899 134.217 34.9627 134.196C35.0265 134.174 35.0903 134.111 35.069 134.047C35.0265 133.792 34.984 133.515 34.9202 133.239ZM34.6439 131.645C34.6227 131.581 34.5589 131.518 34.4952 131.539C34.4314 131.56 34.3676 131.624 34.3889 131.688C34.4314 131.964 34.4739 132.219 34.5164 132.495C34.5377 132.559 34.6014 132.623 34.6652 132.601C34.7289 132.58 34.7927 132.516 34.7714 132.453C34.7502 132.198 34.7077 131.921 34.6439 131.645ZM34.2401 129.945C34.1763 129.966 34.1126 130.03 34.1338 130.094C34.1763 130.37 34.2188 130.625 34.2614 130.901C34.2826 130.965 34.3464 131.029 34.4101 131.007C34.4739 130.986 34.5377 130.922 34.5164 130.859C34.4739 130.604 34.4314 130.327 34.3889 130.051C34.3889 129.987 34.3251 129.924 34.2401 129.945ZM34.1551 128.457C34.1551 128.393 34.0701 128.329 34.0063 128.351C33.9426 128.351 33.8788 128.436 33.9 128.499C33.9426 128.776 33.9851 129.031 34.0063 129.307C34.0063 129.371 34.0913 129.435 34.1551 129.413C34.2188 129.413 34.2826 129.328 34.2614 129.265C34.2401 128.988 34.1976 128.733 34.1551 128.457ZM33.9425 126.842C33.9425 126.778 33.8575 126.714 33.7938 126.735C33.73 126.735 33.6663 126.82 33.6875 126.884C33.73 127.16 33.7513 127.416 33.7938 127.692C33.7938 127.756 33.8788 127.819 33.9425 127.798C34.0063 127.798 34.0701 127.713 34.0488 127.649C34.0276 127.394 33.9851 127.118 33.9425 126.842ZM33.6237 125.12C33.56 125.12 33.4962 125.184 33.4962 125.269C33.5175 125.545 33.56 125.8 33.5812 126.077C33.5812 126.14 33.6662 126.204 33.73 126.183C33.7938 126.183 33.8575 126.098 33.8363 126.034C33.815 125.758 33.7725 125.503 33.7513 125.226C33.7513 125.163 33.6875 125.12 33.6237 125.12ZM33.6025 123.632C33.6025 123.569 33.5387 123.505 33.4537 123.505C33.3899 123.505 33.3262 123.569 33.3262 123.654C33.3474 123.93 33.3687 124.185 33.4112 124.461C33.4112 124.525 33.475 124.589 33.56 124.589C33.6237 124.589 33.6875 124.525 33.6875 124.44C33.645 124.164 33.6237 123.909 33.6025 123.632ZM33.4537 122.017C33.4537 121.953 33.3899 121.89 33.3049 121.89C33.2412 121.89 33.1774 121.953 33.1774 122.038C33.1987 122.315 33.2199 122.57 33.2412 122.846C33.2412 122.91 33.3049 122.973 33.3899 122.973C33.4537 122.973 33.5175 122.91 33.5175 122.825C33.4962 122.548 33.475 122.293 33.4537 122.017ZM33.3474 120.402C33.3474 120.338 33.2837 120.274 33.1987 120.274C33.1349 120.274 33.0711 120.338 33.0711 120.423C33.0924 120.699 33.1136 120.954 33.1136 121.231C33.1136 121.294 33.1774 121.358 33.2624 121.358C33.3262 121.358 33.3899 121.294 33.3899 121.209C33.3899 120.933 33.3687 120.678 33.3474 120.402ZM33.2624 118.786C33.2624 118.723 33.1987 118.659 33.1136 118.659C33.0499 118.659 32.9861 118.723 32.9861 118.808C33.0074 119.084 33.0074 119.339 33.0286 119.615C33.0286 119.679 33.0924 119.743 33.1774 119.743C33.2412 119.743 33.3049 119.679 33.3049 119.594C33.2837 119.318 33.2837 119.063 33.2624 118.786ZM33.2199 117.171C33.2199 117.107 33.1562 117.044 33.0924 117.044C33.0286 117.044 32.9649 117.107 32.9649 117.171C32.9649 117.447 32.9861 117.724 32.9861 117.979C32.9861 118.043 33.0499 118.106 33.1136 118.106C33.1774 118.106 33.2412 118.043 33.2412 117.979C33.2199 117.703 33.2199 117.426 33.2199 117.171ZM33.1987 115.535C33.1987 115.471 33.1349 115.407 33.0711 115.407C33.0074 115.407 32.9436 115.471 32.9436 115.535C32.9436 115.811 32.9436 116.087 32.9436 116.342C32.9436 116.406 33.0074 116.47 33.0711 116.47C33.1349 116.47 33.1987 116.406 33.1987 116.342C33.1987 116.087 33.1987 115.811 33.1987 115.535ZM33.1987 113.919C33.1987 113.856 33.1349 113.792 33.0711 113.792C33.0074 113.792 32.9436 113.856 32.9436 113.919C32.9436 114.196 32.9436 114.451 32.9224 114.727C32.9224 114.791 32.9861 114.854 33.0499 114.854C33.1136 114.854 33.1774 114.791 33.1774 114.727C33.1987 114.472 33.1987 114.196 33.1987 113.919ZM33.2624 112.304C33.2624 112.24 33.1987 112.176 33.1349 112.155C33.0711 112.155 33.0074 112.219 32.9861 112.283C32.9649 112.559 32.9649 112.814 32.9436 113.09C32.9436 113.154 33.0074 113.218 33.0711 113.218C33.1349 113.218 33.1987 113.154 33.1987 113.09C33.2412 112.857 33.2412 112.58 33.2624 112.304ZM33.3474 110.689C33.3474 110.625 33.3049 110.561 33.2199 110.54C33.1562 110.54 33.0924 110.582 33.0711 110.667C33.0499 110.944 33.0286 111.199 33.0074 111.475C33.0074 111.539 33.0499 111.603 33.1349 111.624C33.1987 111.624 33.2624 111.581 33.2837 111.496C33.3262 111.241 33.3262 110.965 33.3474 110.689ZM33.3687 108.946C33.3049 108.946 33.2199 108.988 33.2199 109.073C33.1987 109.35 33.1562 109.605 33.1349 109.881C33.1349 109.945 33.1774 110.009 33.2624 110.03C33.3262 110.03 33.3899 109.987 33.4112 109.902C33.4325 109.626 33.4537 109.371 33.4962 109.095C33.4962 109.01 33.4537 108.946 33.3687 108.946ZM33.6875 107.479C33.6875 107.416 33.645 107.331 33.5812 107.331C33.5175 107.331 33.4325 107.373 33.4325 107.437C33.3899 107.713 33.3687 107.968 33.3262 108.245C33.3262 108.308 33.3687 108.393 33.4325 108.393C33.4962 108.393 33.5812 108.351 33.5812 108.287C33.6237 108.011 33.645 107.756 33.6875 107.479ZM33.9851 105.907C34.0063 105.843 33.9638 105.758 33.8788 105.737C33.815 105.715 33.73 105.758 33.7088 105.843C33.645 106.119 33.5812 106.374 33.5387 106.65C33.5175 106.714 33.5812 106.799 33.645 106.799C33.7088 106.82 33.7938 106.757 33.7938 106.693C33.8788 106.438 33.9213 106.162 33.9851 105.907ZM34.4526 104.355C34.4739 104.291 34.4314 104.206 34.3676 104.185C34.3039 104.164 34.2189 104.206 34.1976 104.27C34.1126 104.525 34.0276 104.78 33.9425 105.056C33.9213 105.12 33.9638 105.205 34.0276 105.226C34.0913 105.248 34.1763 105.205 34.1976 105.141C34.2826 104.865 34.3676 104.61 34.4526 104.355ZM35.0265 102.867C35.0478 102.804 35.0265 102.718 34.9627 102.697C34.899 102.676 34.814 102.697 34.7927 102.761C34.6864 103.016 34.5802 103.271 34.4952 103.526C34.4739 103.59 34.4951 103.675 34.5802 103.696C34.6439 103.717 34.7289 103.696 34.7502 103.611C34.814 103.356 34.9202 103.101 35.0265 102.867ZM35.6429 101.209C35.5791 101.167 35.4941 101.209 35.4728 101.273C35.3453 101.507 35.239 101.762 35.1115 102.017C35.0903 102.081 35.1115 102.166 35.1753 102.187C35.239 102.208 35.3241 102.187 35.3453 102.123C35.4516 101.89 35.5791 101.635 35.6854 101.401C35.7279 101.337 35.7066 101.252 35.6429 101.209ZM36.408 99.7855C36.3442 99.7429 36.2592 99.7642 36.2167 99.828C36.0892 100.062 35.9617 100.296 35.8341 100.551C35.7916 100.614 35.8341 100.699 35.8979 100.721C35.9617 100.763 36.0467 100.721 36.0679 100.657C36.1955 100.423 36.323 100.189 36.4505 99.9555C36.493 99.913 36.4718 99.828 36.408 99.7855ZM37.2794 98.574C37.3219 98.5102 37.3007 98.4252 37.2369 98.3827C37.1731 98.3402 37.0881 98.3615 37.0456 98.4252C36.8968 98.659 36.7693 98.8928 36.6205 99.1266C36.578 99.1904 36.5993 99.2754 36.6631 99.3179C36.7268 99.3604 36.8118 99.3391 36.8543 99.2754C37.0031 99.0416 37.1306 98.8078 37.2794 98.574ZM38.1508 97.2137C38.1933 97.15 38.1721 97.065 38.1083 97.0225C38.0446 96.9799 37.9595 97.0012 37.917 97.065C37.7683 97.2775 37.6195 97.5113 37.4707 97.7451C37.4282 97.8088 37.4494 97.8939 37.5132 97.9364C37.577 97.9789 37.662 97.9576 37.7045 97.8939C37.8533 97.6601 38.002 97.4475 38.1508 97.2137ZM39.0435 95.7047C38.9797 95.6622 38.8947 95.6835 38.8522 95.726C38.7034 95.9385 38.5334 96.1723 38.3846 96.3848C38.3421 96.4486 38.3634 96.5336 38.4271 96.5761C38.4909 96.6186 38.5759 96.5974 38.6184 96.5336C38.7672 96.2998 38.9372 96.0873 39.086 95.8747C39.1285 95.8322 39.1072 95.7472 39.0435 95.7047ZM40.0424 94.5995C40.0849 94.5357 40.0849 94.4507 40.0212 94.4082C39.9574 94.3657 39.8724 94.3657 39.8299 94.4295C39.6599 94.642 39.5111 94.8546 39.341 95.0883C39.2985 95.1521 39.3198 95.2371 39.3623 95.2796C39.4261 95.3221 39.5111 95.3009 39.5536 95.2584C39.7236 95.0033 39.8936 94.7908 40.0424 94.5995ZM41.0414 93.303C41.0839 93.2393 41.0839 93.1542 41.0201 93.1117C40.9563 93.0692 40.8713 93.0692 40.8288 93.133C40.6588 93.3243 40.51 93.5368 40.3187 93.7706C40.2762 93.8344 40.2762 93.9194 40.34 93.9619C40.4037 94.0044 40.4888 94.0044 40.5313 93.9406C40.7225 93.7281 40.8713 93.5156 41.0414 93.303ZM42.0615 92.049C42.1041 91.9853 42.104 91.9003 42.0403 91.8577C41.9765 91.8152 41.8915 91.8152 41.849 91.879C41.7002 92.0703 41.5302 92.2828 41.3389 92.5166C41.2964 92.5804 41.2964 92.6654 41.3602 92.7079C41.4239 92.7504 41.5089 92.7504 41.5515 92.6867C41.7427 92.4529 41.9128 92.2403 42.0615 92.049Z" fill="#111111"/>
<path d="M35.5368 136.407C35.5581 136.535 35.6006 136.662 35.6218 136.79C35.6431 136.853 35.6006 136.938 35.5156 136.938C35.4518 136.96 35.3668 136.917 35.3668 136.832C35.3455 136.705 35.303 136.577 35.2818 136.45C35.2605 136.386 35.303 136.301 35.3881 136.301C35.4518 136.301 35.5368 136.343 35.5368 136.407Z" fill="#111111"/>
<path d="M42.2528 159.403C42.8904 156.279 50.9669 150.157 50.9669 150.157L32.2422 140.402L43.7406 132.878L41.4026 117.384L34.5376 118.468L42.019 114.111C42.019 114.111 39.1072 97.6177 54.8138 90.3064L56.8542 86.1406L52.0508 118L65.0157 138.702L73.2197 141.337C73.2197 141.337 74.7925 143.229 72.4758 151.114C74.0274 165.97 62.7203 168.287 62.7203 168.287L39.9786 166.119C39.9574 166.098 39.9361 166.077 39.8936 166.055C40.8713 163.909 41.7639 161.72 42.2528 159.403Z" fill="#868686" fill-opacity="0.2"/>
<path d="M43.4857 135.324L32.3486 140.659C32.3486 140.659 32.5824 161.764 41.4028 161.764C50.2232 161.764 52.5398 148.544 52.5398 148.544L43.4857 135.324Z" fill="url(#paint0_radial_1674_9685)"/>
<path d="M38.1934 144.526C37.407 148.011 36.5356 151.497 35.6217 154.961C32.8587 149.988 32.7524 140.997 32.7524 140.997L39.6175 137.703C39.1711 139.977 38.7035 142.251 38.1934 144.526Z" fill="#C6C6C6" fill-opacity="0.2"/>
<path d="M42.6991 159.764C46.2697 156.491 50.0317 149.35 50.0317 149.35C50.0317 149.35 41.1263 137.682 40.5312 136.747L43.4855 135.344L52.5396 148.564C52.5396 148.564 50.223 161.784 41.4026 161.784C39.8936 161.784 38.6396 161.167 37.5981 160.147C37.7894 159.956 42.5078 159.935 42.6991 159.764Z" fill="#C6C6C6" fill-opacity="0.2"/>
<path d="M42.6991 159.765C46.2697 156.492 50.0317 149.351 50.0317 149.351L52.5396 148.543C52.5396 148.543 50.223 161.763 41.4026 161.763C39.8936 161.763 38.6396 161.147 37.5981 160.126C37.7894 159.956 42.5078 159.935 42.6991 159.765Z" fill="#F9B233"/>
<path d="M63.3582 148.559C62.5293 157.613 60.2764 173.341 58.6611 184.096C68.3954 188.155 78.9799 190.663 90.1169 191.301C100.425 191.875 110.436 190.812 119.894 188.325C119.511 177.294 118.108 156.614 113.22 148.07C99.2136 150.068 66.8651 148.325 63.3582 148.559Z" fill="#590800"/>
<path d="M119.171 188.497C119.426 188.433 119.66 188.369 119.915 188.306C119.532 177.275 118.129 156.595 113.241 148.051C112.943 148.093 112.624 148.136 112.306 148.178C113.475 149.857 114.197 151.876 114.282 154.044C114.346 155.405 117.895 164.501 119.171 188.497Z" fill="#936037"/>
<path d="M102.338 171.898L91.1158 172.6L87.2051 191.069C88.1615 191.154 89.1392 191.218 90.1169 191.282C91.966 191.388 95.8554 191.431 95.9829 191.431L93.9851 178.955C93.9851 178.976 101.105 175.979 102.338 171.898Z" fill="#936037" fill-opacity="0.2"/>
<path d="M63.9748 148.559C63.9111 148.559 63.8686 148.559 63.8048 148.559C62.9759 157.677 60.7017 173.511 59.0864 184.265C60.2341 184.733 61.4031 185.2 62.5933 185.625L64.2936 173.213C71.3499 171.428 70.7548 162.48 70.7548 162.48C70.7548 162.48 78.1937 163.755 86.8865 163.755C97.1734 163.755 109.203 161.97 112.646 154.191C111.052 154.425 109.224 154.531 107.227 154.531C99.6601 154.531 89.7771 153.043 81.318 151.555C72.859 150.046 65.8452 148.559 63.9748 148.559Z" fill="#936037" fill-opacity="0.2"/>
<path d="M76.1528 71.9227L95.8552 70.5625C95.8552 70.5625 111.413 72.4116 119.915 88.5646C123.868 96.0672 117.832 110.541 116.153 123.846C114.24 139.149 122.168 149.138 116.833 153.75C107.247 162.061 70.1167 161.657 60.9988 155.153C56.663 152.05 60.2761 148.756 60.2761 148.756C57.2368 136.79 50.6269 106.992 54.4738 87.8419C57.003 75.1958 68.969 73.4318 76.1528 71.9227Z" fill="url(#paint1_radial_1674_9685)"/>
<path d="M99.6812 120.743C86.7801 122.252 61.573 118.66 54.623 119.637C53.6878 112.454 53.1352 104.951 53.369 98.0647C62.1893 101.465 116.557 106.906 119.469 87.8203C119.469 87.8203 121.807 90.8596 121.211 96.0243C121.02 101.232 119.362 107.565 117.917 114.111C116.769 114.111 112.582 119.234 99.6812 120.743Z" fill="url(#paint2_radial_1674_9685)"/>
<path d="M87.8423 94.0025C87.7998 94.3851 87.7573 94.7464 87.6936 95.129C87.5235 95.3628 87.3535 95.6178 87.1835 95.8729C85.2494 97.977 83.9529 100.464 83.2727 103.29C82.1675 107.945 81.4874 112.663 80.8073 117.403C80.3185 120.867 79.8296 124.311 79.2133 127.754C78.7457 124.757 78.2143 121.803 77.5554 118.848C76.8753 116.425 75.8339 114.215 74.4311 112.196C76.5565 109.752 78.0443 106.925 78.9369 103.758L79.7233 97.9558C82.5714 75.4479 64.7818 76.1493 62.7202 76.6381C65.2069 75.1503 67.9699 74.1089 70.6054 73.3438C70.9242 73.5775 71.243 73.8113 71.5831 74.0239C73.3684 75.6604 75.4088 76.8294 77.7255 77.5733C79.7871 78.6785 81.785 79.9537 83.6978 81.3352C85.6319 82.9293 87.5023 84.5658 89.4364 86.1599C88.2887 88.5828 87.7361 91.2183 87.8423 94.0025Z" fill="#FFB7B1"/>
<path d="M61.1902 148.756C59.1923 140.849 55.0903 124.973 54.0063 109.755C58.2571 108.501 62.3804 106.737 66.3336 104.442C70.053 101.572 73.7725 98.703 77.4707 95.8337C79.2347 94.0484 80.8713 92.178 82.3591 90.2227C87.4175 91.9655 91.5408 93.4532 91.5408 93.4532C91.5408 93.4532 90.9244 107.693 88.6077 116.96C88.3739 119.234 83.0392 127.162 81.1901 129.032C80.3612 129.861 78.9584 135.026 81.1051 138.618C83.8256 143.145 90.393 146.205 90.393 146.205L80.4887 150.69L73.6875 137.385L67.1838 142.337L67.9489 149.309C63.7619 159.213 95.6215 159.51 95.6215 159.51C82.0828 160.509 66.7587 158.788 61.3389 154.92C57.0244 151.795 61.1902 148.756 61.1902 148.756Z" fill="#FFB7B1" fill-opacity="0.2"/>
<path d="M119.022 98.9357C121.679 80.9762 104.803 73.431 97.7046 72.1133C101.955 72.7722 113.114 75.6839 119.894 88.5638C123.847 96.0664 117.811 110.54 116.132 123.845C114.219 139.148 122.147 149.137 116.812 153.75C116.132 154.323 115.324 154.876 114.41 155.365C117.79 152.772 118.045 148.904 117.322 146.906L104.612 149.499C104.612 149.499 116.451 146.374 115.324 140.147C112.2 122.846 117.981 106.417 119.022 98.9357Z" fill="#F6F6F6"/>
<path d="M56.344 82.5908L41.5938 111.007C41.5938 111.007 38.5758 123.334 46.1421 126.884C53.7085 130.433 60.5948 121.613 60.5948 121.613C60.5948 121.613 62.3164 119.913 66.9922 111.857C71.6893 103.802 64.5693 71.7725 56.344 82.5908Z" fill="url(#paint3_radial_1674_9685)"/>
<path d="M41.1263 117.893C43.1879 114.174 59.0009 101.273 62.8691 97.4044C66.7373 93.5362 64.6331 85.5234 64.6331 85.5234C68.225 93.0473 69.8191 107.139 66.9286 112.112C62.2314 120.167 60.5311 121.868 60.5311 121.868C60.5311 121.868 53.6661 130.709 46.0785 127.139C42.3803 125.396 41.2113 121.591 40.9775 118.127C41.02 118.063 41.0838 117.978 41.1263 117.893Z" fill="#FFB7B1"/>
<path d="M74.1124 128.224C74.1124 128.224 70.8606 126.056 72.0933 117.704C73.326 109.351 79.5109 94.3456 79.5109 94.3456C79.5109 94.3456 83.5917 86.9492 78.2994 81.742C75.749 79.234 69.2028 75.0683 62.6353 76.8536C56.5992 80.2542 53.8149 87.5231 53.8149 87.5231C53.8149 87.5231 56.3016 77.8525 62.6353 74.9833L72.6884 72.5391C72.6884 72.5391 89.0964 81.6357 90.4779 90.9237C91.8594 100.212 87.2261 123.57 79.1921 129.138C75.5152 127.31 74.1124 128.224 74.1124 128.224Z" fill="url(#paint4_radial_1674_9685)"/>
<path d="M62.6566 75.0262L72.7097 72.582L67.5662 74.8987C67.5662 74.8987 76.7479 75.5151 81.8063 84.1867C83.9105 87.7998 90.0103 87.566 90.5204 90.9667C90.5629 91.2217 90.5842 91.498 90.6267 91.7743C89.1177 92.6032 92.2208 97.6616 90.9243 98.8519C87.3536 102.125 82.1464 97.9379 82.1464 97.9379C82.1464 97.9379 77.1092 104.229 76.3441 114.431C76.9604 116.365 86.0996 115.834 85.6745 119.723C83.9105 123.953 81.7213 127.417 79.2134 129.16C75.4939 127.311 74.1124 128.225 74.1124 128.225C74.1124 128.225 70.8606 126.057 72.0933 117.704C73.326 109.351 79.5109 94.346 79.5109 94.346C79.5109 94.346 83.5917 86.9497 78.2994 81.7425C75.749 79.2345 69.2028 75.0687 62.6353 76.8541C56.5992 80.2547 53.8149 87.5235 53.8149 87.5235C53.8149 87.5235 56.3229 77.8743 62.6566 75.0262Z" fill="#F5A02E"/>
<path d="M63.9531 133.345L72.8585 129.52L77.9594 131.687L66.6311 139.849L63.9531 133.345Z" fill="#111111"/>
<path d="M64.3781 132.539L46.3335 136.854L53.7511 147.374L68.5013 139.34L64.3781 132.539Z" fill="url(#paint5_radial_1674_9685)"/>
<path d="M55.4303 144.463L47.9702 137.641L54.3039 146.589L66.8437 139.745L55.4303 144.463Z" fill="#C6C6C6" fill-opacity="0.2"/>
<path d="M74.644 124.949L77.1095 117.191L82.5292 118.849L79.4262 126.798L74.644 124.949Z" fill="#111111"/>
<path d="M79.7451 150.242C68.9268 142.973 72.8588 129.52 72.8588 129.52L77.9597 131.687C77.9597 131.687 76.9608 143.058 88.4804 146.926L79.7451 150.242Z" fill="#111111"/>
<path d="M73.8577 124.207L72.4125 128.437C72.4125 128.437 70.5421 131.901 74.5804 133.325C76.387 133.899 77.6835 133.793 78.8524 131.88C79.575 129.606 80.7653 126.715 80.7653 126.715L74.3678 124.377L73.8577 124.207Z" fill="url(#paint6_radial_1674_9685)"/>
<path d="M74.4738 125.398L73.1348 129.16L78.2995 131.265L79.8297 127.205L74.4738 125.398Z" fill="#111111"/>
<path d="M73.8788 127.055C74.1764 127.161 77.747 128.755 79.171 128.946L78.831 129.839C78.4909 129.69 74.3251 128.181 73.645 127.692L73.8788 127.055Z" fill="#575756"/>
<path d="M34.8989 130.245C34.8989 130.245 34.0275 129.225 33.5386 130.437L32.6885 137.684L33.3048 138.194L36.4079 137.599L36.2591 136.855L34.8989 130.245Z" fill="url(#paint7_radial_1674_9685)"/>
<path d="M34.8989 130.242L35.579 137.107L32.6885 137.681L33.3048 138.191L36.4079 137.596L36.2591 136.852L34.8989 130.242Z" fill="#C6C6C6"/>
<path d="M35.579 137.109L32.6885 137.683L33.3048 138.193L36.4079 137.598L35.579 137.109Z" fill="#B2B2B2"/>
<path d="M35.2391 133.855C35.2816 134.387 35.3241 134.939 35.3879 135.471C35.4516 136.002 35.4941 136.555 35.5579 137.086L35.5791 137.044C34.7927 137.214 34.0064 137.362 33.2412 137.554C34.0276 137.426 34.814 137.256 35.6004 137.107H35.6216V137.086C35.5791 136.555 35.4941 136.002 35.4516 135.471C35.3879 134.939 35.3241 134.408 35.2391 133.855Z" fill="#A96DFF"/>
<path d="M91.1156 172.602L87.1836 190.37C87.1836 190.391 88.5013 175.428 91.1156 172.602Z" fill="#936037" fill-opacity="0.2"/>
<path d="M94.1763 64.4417C89.6492 64.2716 75.8979 61.4023 75.8979 61.4023L76.1955 71.8593L92.7098 85.8018L96.8756 74.3672C96.8968 74.346 94.6226 66.1632 94.1763 64.4417Z" fill="url(#paint8_radial_1674_9685)" fill-opacity="0.15"/>
<path d="M94.1763 64.4417C89.6492 64.2716 75.8979 61.4023 75.8979 61.4023L76.1955 71.8593L92.7098 85.8018L82.0191 76.2588L82.3166 73.8359C82.3591 73.8359 100.382 89.5 94.1763 64.4417Z" fill="#FFCCC8"/>
<path d="M77.1943 63.0187C77.1943 63.0187 63.1029 62.2961 65.4621 75.5585C68.6077 83.6562 92.8159 85.6329 92.8159 85.6329C92.8159 85.6329 85.6321 74.8784 76.5354 71.5415L77.1943 63.0187Z" fill="#28AFDF"/>
<path d="M69.1177 72.0327C69.1177 72.0327 73.5597 71.6927 76.8116 72.6916C80.0634 73.6905 87.2048 79.1315 87.2048 79.1315C84.1229 75.0933 76.514 71.4801 76.514 71.4801L77.4067 64.7852C72.2845 66.9318 70.818 69.0784 70.5204 70.545C70.3079 71.6714 69.1177 72.0327 69.1177 72.0327Z" fill="#B2B2B2" fill-opacity="0.2"/>
<path d="M96.1741 85.7589C96.2166 85.9715 96.5141 87.693 97.3218 89.7972C98.1719 92.0288 99.596 94.6643 101.743 96.2796C102.827 97.0873 104.081 97.6824 105.59 97.8737C107.099 98.065 108.841 97.8737 110.903 97.0873C112.412 96.5134 114.091 95.5995 115.94 94.303C116.195 94.133 116.535 94.1967 116.705 94.4305C116.875 94.6856 116.812 95.0256 116.578 95.1957C114.665 96.5347 112.922 97.4698 111.307 98.1075C109.118 98.9576 107.162 99.1914 105.462 98.9789C104.187 98.8088 103.039 98.405 102.04 97.8099C100.531 96.9385 99.3622 95.6845 98.427 94.3243C97.4918 92.964 96.8117 91.5187 96.3016 90.201C95.4089 87.8631 95.0264 85.8227 95.0264 85.8014L95.834 85.3976C95.8128 85.3764 96.1316 85.4614 96.1741 85.7589Z" fill="#C6C6C6"/>
<path d="M96.5781 84.9718C96.6206 85.1843 96.9182 86.9059 97.7258 89.01C98.576 91.2417 100 93.8771 102.147 95.4924C103.231 96.3001 104.485 96.8952 105.994 97.0865C107.503 97.2778 109.245 97.0865 111.307 96.3001C112.816 95.7262 114.495 94.8123 116.344 93.5158C116.599 93.3458 116.939 93.4096 117.109 93.6434C117.279 93.8984 117.216 94.2385 116.982 94.4085C115.069 95.7475 113.326 96.6827 111.711 97.3203C109.522 98.1704 107.566 98.4042 105.866 98.1917C104.591 98.0217 103.443 97.6178 102.444 97.0227C100.935 96.1513 99.7662 94.8973 98.831 93.5371C97.8959 92.1768 97.2157 90.7316 96.7057 89.4138C95.813 87.0759 95.4942 85.1843 95.4942 85.163C95.4517 84.8655 95.6429 84.5892 95.9405 84.5254C96.2381 84.4829 96.5144 84.6742 96.5781 84.9718Z" fill="#DBE4FF"/>
<path d="M94.1762 85.8832C94.1975 85.9257 94.5588 87.456 94.1337 89.6451C93.7087 91.8343 92.4759 94.6823 89.3516 97.3178C87.545 98.8268 86.7374 100.4 86.4398 101.909C86.1635 103.418 86.4398 104.927 86.9499 106.266C87.4813 107.647 88.2677 108.859 88.9053 109.709C89.2241 110.134 89.5216 110.474 89.7342 110.708C89.8405 110.814 89.9255 110.92 89.9892 110.963C90.0105 110.984 90.0317 111.005 90.053 111.027L90.0742 111.048C90.2868 111.26 90.2868 111.6 90.0742 111.834C89.8617 112.047 89.5216 112.047 89.2878 111.834C89.2666 111.813 88.714 111.282 88.0339 110.368C87.3325 109.454 86.5036 108.157 85.9085 106.648C85.3346 105.182 85.0158 103.46 85.3559 101.696C85.6747 99.9108 86.6736 98.1042 88.629 96.4676C91.562 94.0022 92.646 91.4092 93.0498 89.4326C93.2411 88.4549 93.2623 87.6048 93.2198 87.0309C93.1986 86.7333 93.1773 86.5208 93.1561 86.3508C93.1348 86.2658 93.1348 86.2233 93.1348 86.1807V86.1382C93.0285 85.8619 94.1762 85.8832 94.1762 85.8832Z" fill="#C6C6C6"/>
<path d="M93.645 85.738C93.6662 85.7805 94.0276 87.3108 93.6025 89.4999C93.1774 91.6891 91.9447 94.5371 88.8204 97.1726C87.0138 98.6816 86.2061 100.254 85.9086 101.763C85.6323 103.272 85.9086 104.781 86.4187 106.12C86.95 107.502 87.7364 108.713 88.374 109.564C88.6928 109.989 88.9904 110.329 89.2029 110.563C89.3092 110.669 89.3942 110.775 89.458 110.818C89.4792 110.839 89.5005 110.86 89.5217 110.881L89.543 110.903C89.7555 111.115 89.7555 111.455 89.543 111.689C89.3304 111.902 88.9904 111.902 88.7566 111.689C88.7353 111.668 88.1827 111.136 87.5026 110.222C86.8012 109.309 85.9723 108.012 85.3772 106.503C84.8034 105.037 84.4846 103.315 84.8246 101.551C85.1434 99.7656 86.1424 97.959 88.0977 96.3224C91.0308 93.857 92.1147 91.264 92.5185 89.2874C92.7098 88.3097 92.7311 87.4595 92.6886 86.8857C92.6673 86.5881 92.6461 86.3756 92.6248 86.2056C92.6036 86.1205 92.6036 86.078 92.6036 86.0355V85.993C92.5398 85.6955 92.7098 85.3979 93.0074 85.3341C93.2837 85.2491 93.645 85.738 93.645 85.738Z" fill="#DBE4FF"/>
<path d="M87.4814 110.667C87.4814 110.667 89.9257 116.874 91.6472 116.385C93.3688 115.896 94.8778 112.559 94.2614 111.921C93.6663 111.262 88.2678 107.756 87.4814 110.667Z" fill="#28AFDF"/>
<path opacity="0.5" d="M92.476 112.729C92.8798 112.049 93.73 111.688 93.7513 111.667C92.4335 110.774 88.9691 108.755 88.0127 110.051C88.8416 109.711 91.8171 111.943 92.476 112.729Z" fill="url(#paint9_radial_1674_9685)"/>
<path opacity="0.5" d="M91.5837 114.132C91.5837 114.132 89.9684 116.534 91.5412 116.088C93.114 115.641 94.4955 112.602 93.9429 112.007C93.3903 111.412 91.5837 114.132 91.5837 114.132Z" fill="url(#paint10_radial_1674_9685)"/>
<path d="M114.92 94.2185C114.92 94.2185 117.3 87.9911 119.001 88.4587C120.701 88.9263 122.274 92.2419 121.679 92.9007C121.105 93.5171 115.77 97.109 114.92 94.2185Z" fill="#8747FC"/>
<path opacity="0.5" d="M119.893 92.0742C120.297 92.7331 121.169 93.0944 121.19 93.1157C119.893 94.0296 116.45 96.07 115.473 94.7947C116.302 95.1348 119.256 92.8819 119.893 92.0742Z" fill="url(#paint11_radial_1674_9685)"/>
<path opacity="0.5" d="M119.001 90.6898C119.001 90.6898 117.364 88.3094 118.937 88.7344C120.51 89.1595 121.934 92.1988 121.381 92.7939C120.828 93.389 119.001 90.6898 119.001 90.6898Z" fill="url(#paint12_radial_1674_9685)"/>
<path d="M94.4736 64.7812C94.2611 66.269 96.9603 74.048 96.9603 74.048L92.582 85.5251C92.582 85.5251 104.994 80.3604 106.291 74.9831C107.609 69.6271 100.127 66.354 97.1941 65.3126C96.4715 65.0788 94.4736 64.7812 94.4736 64.7812Z" fill="#28AFDF"/>
<path d="M98.9583 69.5402C99.2771 70.8154 98.9371 71.8781 98.4482 72.6645C98.1507 73.1746 94.6438 80.2522 94.3675 80.5285C94.0912 80.8048 97.0242 74.2373 97.0242 74.2373C96.6842 73.2384 94.9626 68.18 94.5588 65.8633C95.1539 65.9908 98.5758 68.0737 98.9583 69.5402Z" fill="#B2B2B2" fill-opacity="0.2"/>
<path d="M101.806 79.722C101.806 79.722 109.033 73.0908 96.833 65.6094C100.68 67.3522 111.307 72.1343 101.806 79.722Z" fill="#B2B2B2" fill-opacity="0.2"/>
<path opacity="0.5" d="M74.1336 39.5081C74.1336 39.4869 74.1548 39.4869 74.1336 39.5081C74.0486 39.5931 74.1548 39.4869 74.1336 39.5081Z" fill="url(#paint13_radial_1674_9685)"/>
<path d="M93.9 21.7875C73.1987 20.8736 64.3358 31.9469 61.2965 40.1509C58.2572 48.3549 64.5484 54.7523 66.3762 54.4972C68.204 54.2422 68.3103 54.5823 68.3103 54.5823C71.3071 65.6981 84.4845 71.3303 95.3665 69.2475C106.992 67.0158 110.01 50.2465 107.949 45.6769L107.928 33.5196C107.928 33.5409 110.436 22.5101 93.9 21.7875Z" fill="#FFCCC8"/>
<path d="M107.949 45.6724L107.927 33.5152C107.927 33.5152 108.756 29.8808 106.312 26.6289L107.226 33.7915L107.375 45.7574C107.375 45.7574 107.949 46.7989 107.991 48.6267C108.076 54.3865 105.356 68.0103 92.3696 69.5831C93.3898 69.5193 94.3888 69.3918 95.3664 69.2005C106.992 67.0113 110.01 50.242 107.949 45.6724Z" fill="#FFE2D1"/>
<path d="M99.5745 46.2654C107.906 48.0294 105.164 36.4673 105.164 36.4673C105.164 36.4673 103.825 33.9806 100.382 33.7681C97.5129 33.5768 95.9826 36.1272 95.9826 36.1272C95.9826 36.1272 95.2388 45.3514 99.5745 46.2654Z" fill="white"/>
<path d="M96.0464 36.1929C101.317 33.3024 105.186 36.2992 105.186 36.2992C105.186 36.2992 103.995 31.177 97.853 33.2599C96.2377 33.8125 96.0464 36.1929 96.0464 36.1929Z" fill="#590800"/>
<path d="M101.445 40.828C101.572 42.2307 100.956 43.4422 100.106 43.506C99.2344 43.591 98.448 42.507 98.3204 41.083C98.1929 39.6803 98.8093 38.4688 99.6594 38.405C100.531 38.3413 101.317 39.4252 101.445 40.828Z" fill="#590800"/>
<path d="M99.1492 38.6197C98.6816 38.6622 98.3628 39.236 98.4266 39.9161C98.4903 40.5963 98.9154 41.0851 99.3617 41.0639C99.8293 41.0214 100.148 40.4475 100.084 39.7674C100.021 39.0872 99.5955 38.5772 99.1492 38.6197Z" fill="white"/>
<path d="M98.236 53.5977L86.5464 54.214C86.5464 54.214 87.0565 62.0992 93.2201 61.5679C93.9002 61.5041 97.0671 61.2066 97.0671 61.2066C97.0671 61.2066 97.9385 54.0865 98.236 53.5977Z" fill="#590800"/>
<path d="M97.1522 53.9169C97.1947 53.8319 97.2584 53.7256 97.3009 53.6406L87.1841 54.172C87.1841 54.172 87.6942 55.7023 89.7558 55.681C91.4561 55.6597 93.2627 55.596 94.5592 55.5535C96.0044 55.4897 96.5358 55.0646 97.1522 53.9169Z" fill="white"/>
<path d="M94.7079 52.6196C87.4391 52.8747 86.7165 54.1286 86.4614 54.2349L98.5974 53.5973C98.5761 53.5973 98.8312 52.4921 94.7079 52.6196Z" fill="#FF736C" fill-opacity="0.45"/>
<path d="M87.6089 58.168C87.6089 58.168 87.7151 58.423 87.9064 58.7843C88.8629 60.3996 90.5419 61.8024 93.2199 61.5686C93.5812 61.5473 95.9404 61.3348 95.9404 61.3348C94.0063 58.9331 87.6089 58.168 87.6089 58.168Z" fill="#E30613"/>
<path d="M97.1517 60.6758L96.9605 61.2284C96.9605 61.2284 94.24 61.5472 92.4759 61.4197C90.7118 61.2921 90.1167 61.0371 90.1167 61.0371C90.1167 61.0371 90.6268 62.8224 93.9211 62.7162C98.6183 62.5674 97.1517 60.6758 97.1517 60.6758Z" fill="#FF736C" fill-opacity="0.45"/>
<path d="M95.4939 50.5433L97.7681 48.0991L95.4727 44.2734L97.0454 48.1417L95.4939 50.5433Z" fill="#FFE2D1"/>
<path d="M97.0667 48.1403C97.0667 48.119 95.4727 48.2678 95.1539 48.2891L93.6661 44.8672C93.3686 46.1849 92.3271 48.9479 92.5184 49.373C92.9435 50.3507 95.3027 50.6908 95.3027 50.6908L97.0667 48.1403Z" fill="#FFD1CD"/>
<path d="M97.0669 48.1427C97.0669 48.1214 95.4729 48.2702 95.1541 48.2915C95.1541 48.2915 92.3273 48.9503 92.5186 49.3754C92.9436 50.3531 95.3028 50.6932 95.3028 50.6932L97.0669 48.1427Z" fill="#FFD1CD"/>
<path d="M77.598 41.4661C77.9381 45.2067 79.8509 48.7774 85.3557 47.6084C91.413 46.312 88.1399 36.5777 88.1399 36.5777C88.1399 36.5777 86.5034 34.4735 82.3801 35.5787C78.2569 36.7052 77.343 38.5968 77.598 41.4661Z" fill="white"/>
<path d="M88.3526 37.0656C82.8266 34.8339 77.5981 39.2972 77.5981 39.2972C77.5981 39.2972 78.342 35.7266 82.4865 34.6214C88.1188 33.1336 88.3526 37.0656 88.3526 37.0656Z" fill="#590800"/>
<path d="M86.227 42.3143C86.3545 43.7171 85.7381 44.9286 84.888 44.9923C84.0166 45.0773 83.2302 43.9934 83.1027 42.5694C82.9751 41.1666 83.5915 39.9552 84.4417 39.8914C85.2918 39.8064 86.0995 40.8903 86.227 42.3143Z" fill="#590800"/>
<path d="M83.9954 40.0845C83.5278 40.127 83.209 40.7009 83.2728 41.381C83.3365 42.0611 83.7616 42.55 84.2079 42.5287C84.6755 42.4862 84.9943 41.9123 84.9306 41.2322C84.8668 40.5521 84.463 40.042 83.9954 40.0845Z" fill="white"/>
<path d="M89.9893 69.3087C70.3507 64.9942 71.7747 52.7094 71.7747 52.7094L71.4559 44.6329C71.4559 44.6329 74.4314 44.1441 74.9203 37.7254C78.2996 36.6202 86.9287 33.4321 91.222 22.8477C82.0616 25.8019 82.0616 25.8019 82.0616 25.8019L72.221 30.2015L72.9437 34.261C69.5005 34.8136 62.6993 36.3651 61.2965 40.1696C58.2572 48.3736 64.5484 54.771 66.3762 54.516C68.204 54.2609 68.3103 54.601 68.3103 54.601C71.3071 65.7168 84.4845 71.3491 95.3665 69.2662C95.8341 69.1812 96.2804 69.0536 96.7268 68.9474C94.8352 68.9686 91.8384 69.7125 89.9893 69.3087Z" fill="#FFC0BA"/>
<path d="M88.7141 8.96647C70.3719 7.26616 61.5303 18.552 60.8927 21.485C60.0638 20.7624 59.5537 19.6572 59.5537 19.6572C59.1286 20.5498 59.3199 21.3362 59.66 21.9101C58.9374 21.7826 57.9809 21.8463 57.237 22.739C57.237 22.739 58.3635 22.739 59.3412 23.1428C51.2009 27.4149 59.4049 46.6922 59.4049 46.6922C59.4049 46.6922 63.6345 56.639 70.457 59.572L68.5654 54.6411C64.6121 54.1098 62.4017 48.6688 62.0404 46.0758C61.5728 42.4626 64.2083 41.74 66.1212 44.0354L67.4177 47.8186L68.5441 47.7336L68.4166 43.3128C68.4166 43.3128 72.1785 41.6762 72.1785 35.6189C79.1498 36.5328 90.1168 28.6051 93.0924 24.5668L90.2231 29.7103C90.2231 29.7103 95.9829 30.0078 99.7661 23.8017C99.7661 23.8017 103.252 27.8824 107.035 27.7337L108.161 38.0418L110.053 30.6242C110.074 30.6455 114.941 11.3894 88.7141 8.96647Z" fill="#590800"/>
<path d="M91.7322 26.1631C92.051 25.7168 92.4123 25.2704 92.7949 24.8453C92.051 23.9739 85.3773 35.196 61.2753 30.9665C59.3412 30.9665 57.4921 30.6689 55.7493 30.1376C55.3668 37.2576 59.3837 46.7156 59.3837 46.7156C59.3837 46.7156 63.6133 56.6624 70.4358 59.5955L68.5442 54.6646C64.591 54.1332 62.3805 48.6922 62.0192 46.0993C61.5516 42.4861 64.1871 41.7635 66.1 44.0589L67.3965 47.8421L68.5229 47.7571L68.3954 43.3362C68.3954 43.3362 72.1573 41.6997 72.1573 35.6423C78.3422 36.45 87.6089 30.3714 91.7322 26.1631Z" fill="#936037" fill-opacity="0.1"/>
<path d="M62.7417 45.3987C63.5068 44.9524 63.9107 45.2924 64.1445 45.7387C64.0382 45.7813 65.8235 53.879 65.951 50.1171C65.7385 42.5932 62.7417 45.3987 62.7417 45.3987Z" fill="#590800"/>
<path d="M61.7427 22.3145L72.7309 20.4229C72.7309 20.4016 64.3357 18.8288 61.7427 22.3145Z" fill="#936037"/>
<path d="M96.748 11.3906C96.748 11.3906 111.286 16.0877 109.097 31.8369C109.713 30.9442 113.029 16.6191 96.748 11.3906Z" fill="#C13C32"/>
<path d="M99.2557 21.1016C99.2557 21.1016 99.3407 27.9241 90.7754 29.4331C97.1303 26.8401 99.2557 21.1016 99.2557 21.1016Z" fill="#C13C32"/>
<path d="M43.6133 120.657C43.6133 120.657 42.8482 110.753 53.6664 105.503C62.7843 101.167 78.2572 86.4384 78.2572 86.4384L79.6174 83.8242C79.6174 83.8242 80.255 84.1855 80.7439 85.2695L87.949 83.9092C87.949 83.9092 92.9436 85.397 93.56 85.397C94.1764 86.481 93.56 88.5001 93.56 88.5001C93.56 88.5001 95.8767 90.668 94.7927 92.0495C95.1115 93.4522 95.4091 94.9825 94.4739 95.7689L93.5175 98.7232C93.5175 98.7232 92.5611 101.486 90.2656 100.721L90.5419 98.872C88.374 98.9783 84.1233 97.618 84.1233 97.618C84.1233 97.618 81.7853 96.3428 80.0213 98.1919C77.7683 100.572 65.101 121.741 65.101 121.741C65.101 121.741 58.1297 132.262 49.4794 130.243C45.93 128.691 43.4645 125.461 43.6133 120.657Z" fill="#FFCCC8"/>
<path d="M53.6661 105.504C57.4706 103.697 62.3802 100.084 66.801 96.4922C66.801 96.4922 67.3324 103.06 69.2877 105.079C71.6044 107.48 74.8563 105.865 74.8563 105.865C70.478 112.794 65.122 121.763 65.122 121.763C65.122 121.763 58.1507 132.284 49.5004 130.265C45.951 128.713 41.2326 123.888 41.3814 119.085C41.3814 119.064 42.8479 110.754 53.6661 105.504Z" fill="url(#paint14_radial_1674_9685)"/>
<path d="M61.9341 100.423C63.3794 99.3599 66.695 95.4492 66.695 95.4492L67.7577 95.7255L67.0138 96.3419C67.0138 96.3419 67.5452 103.058 69.5005 105.077C71.8172 107.479 75.069 105.864 75.069 105.864C74.0701 107.458 73.0074 109.158 71.966 110.837C71.2858 110.71 69.0117 112.261 65.7173 110.263C60.7439 107.266 61.9554 100.784 61.9341 100.423Z" fill="url(#paint15_radial_1674_9685)"/>
<path d="M82.8265 96.7667C81.445 96.3204 79.9998 95.619 79.7447 94.3438C79.0433 95.5977 78.9796 97.213 78.9796 97.213L72.7097 104.567C67.9063 103.993 67.1411 97.0217 67.1411 97.0217C67.1411 97.0217 66.8223 104.758 71.0944 106.076C71.0944 106.076 56.7267 123.44 55.7915 124.354C54.325 125.8 52.3272 126.692 50.053 126.692C45.6534 126.692 41.4452 122.824 41.6577 118.297C41.6577 118.212 41.679 118.127 41.679 118.042C41.4664 118.701 41.4027 119.083 41.4027 119.083C41.2751 123.015 44.442 126.99 47.545 129.136C48.1614 129.583 48.8203 129.944 49.5216 130.263C58.1932 132.282 65.1433 121.761 65.1433 121.761C65.1433 121.74 65.1858 121.698 65.2283 121.634C65.2495 121.591 65.292 121.506 65.3558 121.442C65.3983 121.379 65.4408 121.294 65.4833 121.23C65.5046 121.187 65.5258 121.145 65.5683 121.102C65.5683 121.081 65.5896 121.081 65.5896 121.06C65.6108 121.017 65.6534 120.954 65.6746 120.911C65.7384 120.826 65.7809 120.72 65.8446 120.614C65.8659 120.592 65.8659 120.571 65.8872 120.55C65.9297 120.465 65.9934 120.38 66.0572 120.274L66.0784 120.252C66.291 119.891 66.5248 119.508 66.8011 119.062C66.8861 118.913 66.9711 118.764 67.0774 118.616C67.0774 118.594 67.0986 118.594 67.0986 118.573C69.054 115.343 72.1783 110.22 74.8988 105.906C77.2367 102.186 79.2984 99.0621 80.0848 98.2332C81.275 96.958 82.7628 97.1493 83.5704 97.4043C83.2941 97.1705 83.0603 96.9792 82.8265 96.7667Z" fill="#FFB7B1" fill-opacity="0.2"/>
<path d="M93.6024 91.9653L90.8181 90.35L93.8787 91.4127C94.5375 91.604 94.4525 90.6476 93.9849 89.8612C93.6024 89.2023 92.9222 88.6922 92.9222 88.6922L89.3091 85.1641C89.3091 85.1641 92.7947 87.6295 93.2198 87.7145C93.5173 87.7783 93.7299 87.0769 93.5599 85.4191C94.1762 86.5031 93.5599 88.5222 93.5599 88.5222C93.5599 88.5222 95.8765 90.6901 94.7926 92.0716C95.1114 93.4743 95.409 95.0046 94.4738 95.791L93.5174 98.7453C93.5174 98.7453 93.4748 98.7666 93.4111 98.8303L93.9849 95.5785C93.9849 95.536 93.0923 94.5158 93.0923 94.5158L94.07 94.9409C94.5163 94.7708 94.7288 92.0716 93.6024 91.9653Z" fill="#FFE2D1"/>
<path d="M163.783 71.418H101.402V151.907H163.783V71.418Z" fill="#F9F9F9"/>
<path d="M163.251 72.2461H102.38V80.2588H163.251V72.2461Z" fill="#F96262"/>
<path d="M141.53 75.7955C141.53 75.7955 142.337 74.0527 143.358 72.2461H127.077C128.565 75.7317 130.988 75.1154 130.988 75.1154C130.988 75.1154 132.816 77.007 134.325 76.6244C134.325 76.6244 137.662 78.0697 138.788 76.7094L141.53 75.7955Z" fill="#FFB7B1"/>
<path d="M146.248 114.902H128.034C127.545 114.902 127.162 115.285 127.162 115.774C127.162 116.263 127.545 116.645 128.034 116.645H146.248C146.737 116.645 147.12 116.263 147.12 115.774C147.12 115.285 146.737 114.902 146.248 114.902Z" fill="#111111"/>
<path d="M157.088 111.645H140.574C140.085 111.645 139.702 112.027 139.702 112.516C139.702 113.005 140.085 113.387 140.574 113.387H157.088C157.577 113.387 157.959 113.005 157.959 112.516C157.959 112.027 157.577 111.645 157.088 111.645Z" fill="#111111"/>
<path d="M149.649 110.118H157.088C157.576 110.118 157.959 109.735 157.959 109.246C157.959 108.758 157.576 108.375 157.088 108.375H149.649C149.16 108.375 148.777 108.758 148.777 109.246C148.777 109.735 149.181 110.118 149.649 110.118Z" fill="#111111"/>
<path d="M128.034 110.118H128.522H135.961H144.697C145.185 110.118 145.568 109.735 145.568 109.246C145.568 108.758 145.185 108.375 144.697 108.375H135.961H128.522H128.034C127.545 108.375 127.162 108.758 127.162 109.246C127.162 109.735 127.545 110.118 128.034 110.118Z" fill="#111111"/>
<path d="M125.122 114.902H106.907C106.418 114.902 106.036 115.285 106.036 115.774C106.036 116.263 106.418 116.645 106.907 116.645H125.122C125.611 116.645 125.993 116.263 125.993 115.774C125.993 115.285 125.589 114.902 125.122 114.902Z" fill="#111111"/>
<path d="M134.388 111.645H128.012H119.426C118.937 111.645 118.554 112.027 118.554 112.516C118.554 113.005 118.937 113.387 119.426 113.387H128.012H134.388H135.961C136.45 113.387 136.833 113.005 136.833 112.516C136.833 112.027 136.45 111.645 135.961 111.645H134.388Z" fill="#111111"/>
<path d="M106.886 113.387H113.262C113.751 113.387 114.134 113.005 114.134 112.516C114.134 112.027 113.751 111.645 113.262 111.645H106.886C106.397 111.645 106.015 112.027 106.015 112.516C106.015 112.984 106.418 113.387 106.886 113.387Z" fill="#111111"/>
<path d="M106.886 110.118H123.57C124.059 110.118 124.442 109.735 124.442 109.246C124.442 108.758 124.059 108.375 123.57 108.375H106.886C106.397 108.375 106.015 108.758 106.015 109.246C106.015 109.735 106.418 110.118 106.886 110.118Z" fill="#111111"/>
<path d="M125.93 92.8867H125.122H107.715H106.908C106.419 92.8867 106.036 93.2693 106.036 93.7581C106.036 94.247 106.419 94.6295 106.908 94.6295H107.715H125.122H125.93C126.419 94.6295 126.801 94.247 126.801 93.7581C126.801 93.2693 126.397 92.8867 125.93 92.8867Z" fill="#111111"/>
<path d="M126.1 89.6328H125.76H119.702H119.469C118.98 89.6328 118.597 90.0154 118.597 90.5042C118.597 90.9931 118.98 91.3756 119.469 91.3756H119.809H125.866H126.1C126.589 91.3756 126.971 90.9931 126.971 90.5042C126.95 90.0154 126.567 89.6328 126.1 89.6328Z" fill="#111111"/>
<path d="M106.886 91.3522H113.262C113.751 91.3522 114.134 90.9696 114.134 90.4808C114.134 89.9919 113.751 89.6094 113.262 89.6094H106.886C106.397 89.6094 106.015 89.9919 106.015 90.4808C106.015 90.9696 106.418 91.3522 106.886 91.3522Z" fill="#111111"/>
<path d="M126.1 96.6016H125.76H119.702H119.469C118.98 96.6016 118.597 96.9841 118.597 97.473C118.597 97.9618 118.98 98.3444 119.469 98.3444H119.809H125.866H126.1C126.589 98.3444 126.971 97.9618 126.971 97.473C126.95 96.9841 126.567 96.6016 126.1 96.6016Z" fill="#111111"/>
<path d="M106.886 98.3249H113.262C113.751 98.3249 114.134 97.9423 114.134 97.4534C114.134 96.9646 113.751 96.582 113.262 96.582H106.886C106.397 96.582 106.015 96.9646 106.015 97.4534C106.015 97.9423 106.418 98.3249 106.886 98.3249Z" fill="#111111"/>
<path d="M106.886 88.1022H109.16H123.57H125.845C126.333 88.1022 126.716 87.7196 126.716 87.2308C126.716 86.7419 126.333 86.3594 125.845 86.3594H123.57H109.16H106.886C106.397 86.3594 106.015 86.7419 106.015 87.2308C106.015 87.7196 106.418 88.1022 106.886 88.1022Z" fill="#111111"/>
<path d="M146.248 129.781H128.034C127.545 129.781 127.162 130.164 127.162 130.653C127.162 131.141 127.545 131.524 128.034 131.524H146.248C146.737 131.524 147.12 131.141 147.12 130.653C147.12 130.164 146.737 129.781 146.248 129.781Z" fill="#111111"/>
<path d="M157.088 126.527H140.574C140.085 126.527 139.702 126.91 139.702 127.399C139.702 127.888 140.085 128.27 140.574 128.27H157.088C157.577 128.27 157.959 127.888 157.959 127.399C157.959 126.91 157.577 126.527 157.088 126.527Z" fill="#111111"/>
<path d="M149.649 124.997H157.088C157.576 124.997 157.959 124.614 157.959 124.125C157.959 123.636 157.576 123.254 157.088 123.254H149.649C149.16 123.254 148.777 123.636 148.777 124.125C148.777 124.614 149.181 124.997 149.649 124.997Z" fill="#111111"/>
<path d="M128.034 124.997H128.522H135.961H144.697C145.185 124.997 145.568 124.614 145.568 124.125C145.568 123.636 145.185 123.254 144.697 123.254H135.961H128.522H128.034C127.545 123.254 127.162 123.636 127.162 124.125C127.162 124.614 127.545 124.997 128.034 124.997Z" fill="#111111"/>
<path d="M125.122 129.781H106.908C106.419 129.781 106.036 130.164 106.036 130.653C106.036 131.141 106.419 131.524 106.908 131.524H125.122C125.611 131.524 125.994 131.141 125.994 130.653C125.994 130.164 125.59 129.781 125.122 129.781Z" fill="#111111"/>
<path d="M134.389 126.527H128.013H119.426C118.937 126.527 118.555 126.91 118.555 127.399C118.555 127.888 118.937 128.27 119.426 128.27H128.013H134.389H135.962C136.45 128.27 136.833 127.888 136.833 127.399C136.833 126.91 136.45 126.527 135.962 126.527H134.389Z" fill="#111111"/>
<path d="M106.886 128.247H113.262C113.751 128.247 114.134 127.864 114.134 127.375C114.134 126.886 113.751 126.504 113.262 126.504H106.886C106.397 126.504 106.015 126.886 106.015 127.375C106.015 127.864 106.418 128.247 106.886 128.247Z" fill="#111111"/>
<path d="M106.886 124.997H123.57C124.059 124.997 124.442 124.614 124.442 124.125C124.442 123.636 124.059 123.254 123.57 123.254H106.886C106.397 123.254 106.015 123.636 106.015 124.125C106.015 124.614 106.418 124.997 106.886 124.997Z" fill="#111111"/>
<path d="M146.248 143.324H128.034C127.545 143.324 127.162 143.707 127.162 144.196C127.162 144.684 127.545 145.067 128.034 145.067H146.248C146.737 145.067 147.12 144.684 147.12 144.196C147.12 143.707 146.737 143.324 146.248 143.324Z" fill="#111111"/>
<path d="M157.088 140.07H140.574C140.085 140.07 139.702 140.453 139.702 140.942C139.702 141.431 140.085 141.813 140.574 141.813H157.088C157.577 141.813 157.959 141.431 157.959 140.942C157.959 140.453 157.577 140.07 157.088 140.07Z" fill="#111111"/>
<path d="M149.649 138.54H157.088C157.576 138.54 157.959 138.157 157.959 137.668C157.959 137.179 157.576 136.797 157.088 136.797H149.649C149.16 136.797 148.777 137.179 148.777 137.668C148.777 138.157 149.181 138.54 149.649 138.54Z" fill="#111111"/>
<path d="M128.034 138.54H128.522H135.961H144.697C145.185 138.54 145.568 138.157 145.568 137.668C145.568 137.179 145.185 136.797 144.697 136.797H135.961H128.522H128.034C127.545 136.797 127.162 137.179 127.162 137.668C127.162 138.157 127.545 138.54 128.034 138.54Z" fill="#111111"/>
<path d="M125.122 143.324H106.908C106.419 143.324 106.036 143.707 106.036 144.196C106.036 144.684 106.419 145.067 106.908 145.067H125.122C125.611 145.067 125.994 144.684 125.994 144.196C125.994 143.707 125.59 143.324 125.122 143.324Z" fill="#111111"/>
<path d="M134.389 140.07H128.013H119.426C118.937 140.07 118.555 140.453 118.555 140.942C118.555 141.431 118.937 141.813 119.426 141.813H128.013H134.389H135.962C136.45 141.813 136.833 141.431 136.833 140.942C136.833 140.453 136.45 140.07 135.962 140.07H134.389Z" fill="#111111"/>
<path d="M106.886 141.79H113.262C113.751 141.79 114.134 141.407 114.134 140.918C114.134 140.429 113.751 140.047 113.262 140.047H106.886C106.397 140.047 106.015 140.429 106.015 140.918C106.015 141.407 106.418 141.79 106.886 141.79Z" fill="#111111"/>
<path d="M106.886 138.54H123.57C124.059 138.54 124.442 138.157 124.442 137.668C124.442 137.179 124.059 136.797 123.57 136.797H106.886C106.397 136.797 106.015 137.179 106.015 137.668C106.015 138.157 106.418 138.54 106.886 138.54Z" fill="#111111"/>
<path d="M146.397 66.3999C146.397 66.3999 142.04 63.9982 139.914 64.2745C135.919 61.9578 134.983 64.0194 134.983 64.0194C134.983 64.0194 134.877 63.4243 132.752 63.0205C130.626 62.5954 130.223 64.4445 130.223 64.4445C130.223 64.4445 126.843 63.4668 126.503 65.4009C126.163 67.3138 126.652 70.2468 126.652 70.2468C126.652 70.2468 127.906 72.5635 128.48 73.5199C129.054 74.4764 130.966 73.7537 131.158 73.6687C131.923 75.454 133.581 75.8579 134.813 74.9865C135.196 77.8345 138.405 76.2829 138.49 75.4328C140.297 75.7941 141.19 75.2628 141.657 74.5189L142.847 71.3308H150.69L146.397 66.3999Z" fill="#FFCCC8"/>
<path d="M150.308 71.3095H150.711L146.397 66.3999C146.397 66.3999 142.04 63.9982 139.914 64.2745C135.919 61.9578 134.983 64.0194 134.983 64.0194C134.983 64.0194 134.877 63.4243 132.752 63.0205C130.626 62.5954 130.223 64.4445 130.223 64.4445C130.223 64.4445 127.098 63.5519 126.567 65.1884C127.63 63.7219 130.286 64.8271 130.286 64.8271C130.286 64.8271 130.669 63.5519 131.71 63.3393C132.943 63.0843 135.047 64.4658 135.047 64.4658C135.047 64.4658 136.046 62.3829 139.681 64.8058C141.678 64.147 146.269 66.7187 146.269 66.7187C146.269 66.7187 150.201 71.182 150.308 71.3095Z" fill="#FFE2D1"/>
<path d="M130.967 73.5423C131.094 73.4786 130.308 69.9504 130.308 69.9504L130.371 65.0195C130.371 65.0195 129.351 67.5275 129.457 68.6965C129.542 69.8654 130.945 73.4573 130.967 73.5423Z" fill="#FFCBCC"/>
<path d="M134.41 69.1637C134.41 69.1637 134.984 65.2742 134.962 65.168C134.899 65.2742 133.56 69.0149 133.56 69.0149C133.56 69.0149 134.388 74.9235 134.835 74.9235L134.41 69.1637Z" fill="#FFCBCC"/>
<path d="M143.23 68.1641C142.847 69.8431 140.828 69.8856 140.786 69.8644C143.039 71.4159 140.977 74.9653 141.041 75.1566C141.274 75.0078 141.487 74.8165 141.678 74.5615L142.932 71.2671L146.248 71.3309L143.23 68.1641Z" fill="#FFCBCC"/>
<path d="M138.363 69.7377C138.363 69.7377 139.723 66.4646 139.362 66.082C139.404 66.2096 137.577 69.4827 137.577 69.4827C137.577 69.4827 137.853 74.286 137.895 74.4348C138.108 75.37 138.193 75.7951 136.896 76.5177C137.704 76.3477 138.448 75.7738 138.491 75.37L138.363 69.7377Z" fill="#FFCBCC"/>
</svg>
