<svg width="24" height="24" viewBox="0 0 24 24" fill="none" xmlns="http://www.w3.org/2000/svg">
<path d="M3.2969 5.2337C3.52232 4.27269 4.27268 3.52233 5.23369 3.29691C6.06652 3.10155 6.93326 3.10155 7.76609 3.29691C8.7271 3.52233 9.47746 4.27269 9.70288 5.2337C9.89824 6.06653 9.89824 6.93327 9.70288 7.7661C9.47746 8.72711 8.7271 9.47747 7.76609 9.70289C6.93326 9.89825 6.06652 9.89825 5.23369 9.70289C4.27268 9.47747 3.52232 8.72711 3.2969 7.7661C3.10155 6.93327 3.10155 6.06653 3.2969 5.2337Z" stroke="#817F7F" stroke-opacity="0.5" stroke-width="2"/>
<path d="M3.2969 16.2337C3.52232 15.2727 4.27268 14.5223 5.23369 14.2969C6.06652 14.1016 6.93326 14.1016 7.76609 14.2969C8.7271 14.5223 9.47746 15.2727 9.70288 16.2337C9.89824 17.0665 9.89824 17.9333 9.70288 18.7661C9.47746 19.7271 8.7271 20.4775 7.76609 20.7029C6.93326 20.8982 6.06652 20.8982 5.23369 20.7029C4.27268 20.4775 3.52232 19.7271 3.2969 18.7661C3.10155 17.9333 3.10155 17.0665 3.2969 16.2337Z" stroke="#817F7F" stroke-opacity="0.5" stroke-width="2"/>
<path d="M14.2969 5.2337C14.5223 4.27269 15.2727 3.52233 16.2337 3.29691C17.0665 3.10155 17.9333 3.10155 18.7661 3.29691C19.7271 3.52233 20.4775 4.27269 20.7029 5.2337C20.8982 6.06653 20.8982 6.93327 20.7029 7.7661C20.4775 8.72711 19.7271 9.47747 18.7661 9.70289C17.9333 9.89825 17.0665 9.89825 16.2337 9.70289C15.2727 9.47747 14.5223 8.72711 14.2969 7.7661C14.1016 6.93327 14.1016 6.06653 14.2969 5.2337Z" stroke="#817F7F" stroke-opacity="0.5" stroke-width="2"/>
<path d="M14.2969 16.2337C14.5223 15.2727 15.2727 14.5223 16.2337 14.2969C17.0665 14.1016 17.9333 14.1016 18.7661 14.2969C19.7271 14.5223 20.4775 15.2727 20.7029 16.2337C20.8982 17.0665 20.8982 17.9333 20.7029 18.7661C20.4775 19.7271 19.7271 20.4775 18.7661 20.7029C17.9333 20.8982 17.0665 20.8982 16.2337 20.7029C15.2727 20.4775 14.5223 19.7271 14.2969 18.7661C14.1016 17.9333 14.1016 17.0665 14.2969 16.2337Z" stroke="#817F7F" stroke-opacity="0.5" stroke-width="2"/>
</svg>
