<svg width="35" height="36" viewBox="0 0 35 36" fill="none" xmlns="http://www.w3.org/2000/svg">
<rect y="0.5" width="35" height="35" rx="12" fill="#FFC8C8"/>
<path d="M23.9281 13.2855C23.9281 15.6524 22.0094 17.5711 19.6425 17.5711C17.2757 17.5711 15.357 15.6524 15.357 13.2855C15.357 10.9187 17.2757 9 19.6425 9C22.0094 9 23.9281 10.9187 23.9281 13.2855Z" fill="white" fill-opacity="0.7"/>
<path d="M26.4996 22.1865C26.4996 24.3843 23.4296 25.2633 19.6427 25.2633C15.8558 25.2633 12.7859 24.3843 12.7859 22.1865C12.7859 20.2117 15.8558 19.1098 19.6427 19.1098C23.4296 19.1098 26.4996 19.9888 26.4996 22.1865Z" fill="white" fill-opacity="0.7"/>
<path d="M19.6422 15.0222C19.6422 17.389 17.7235 19.3077 15.3567 19.3077C12.9899 19.3077 11.0712 17.389 11.0712 15.0222C11.0712 12.6554 12.9899 10.7367 15.3567 10.7367C17.7235 10.7367 19.6422 12.6554 19.6422 15.0222Z" fill="#F96262"/>
<path d="M22.2137 23.9232C22.2137 26.1209 19.1438 27 15.3569 27C11.5699 27 8.5 26.1209 8.5 23.9232C8.5 21.9483 11.5699 20.8464 15.3569 20.8464C19.1438 20.8464 22.2137 21.7255 22.2137 23.9232Z" fill="#F96262"/>
</svg>
