<svg width="14" height="14" viewBox="0 0 14 14" fill="none" xmlns="http://www.w3.org/2000/svg">
<g clip-path="url(#clip0_3810_5140)">
<path d="M10.0144 3.44828C10.0481 3.41903 10.0877 3.39741 10.1305 3.38488C10.1734 3.37235 10.2184 3.3692 10.2626 3.37566C10.3059 3.38179 10.3473 3.39754 10.3837 3.42177C10.4202 3.44599 10.4507 3.47808 10.4731 3.51566C10.4991 3.56751 10.5139 3.62425 10.5165 3.68219C10.5354 3.9089 10.4917 4.13645 10.39 4.33996C10.342 4.44281 10.2725 4.53412 10.186 4.60764C10.1158 4.66457 10.032 4.70233 9.94288 4.71724L9.90125 4.72367C9.88131 4.79833 9.85888 4.86126 9.84789 4.89465C9.77701 5.08697 9.38034 5.75276 8.88122 5.99496C8.87998 6.16295 8.87669 6.35531 8.93525 6.50069C9.03543 6.74792 9.57509 7.05948 9.61227 7.07563C9.61227 7.07563 9.31911 8.2032 7.92494 8.2032C6.1521 8.2032 6.2244 7.03218 6.2244 7.03218C6.26158 7.01603 6.71689 6.74792 6.81693 6.50069C6.88357 6.33571 6.87002 6.10982 6.87114 5.92784C6.6943 5.81623 6.53676 5.67664 6.40468 5.51451C6.21683 5.28409 6.07978 5.01658 6.0025 4.72952L5.92338 4.71728C5.83422 4.70237 5.75044 4.66461 5.68021 4.60768C5.59378 4.53416 5.52422 4.44285 5.47628 4.34C5.37461 4.13648 5.33084 3.90894 5.34976 3.68222C5.35238 3.62429 5.36715 3.56756 5.39309 3.5157C5.41551 3.47812 5.44606 3.44603 5.48251 3.4218C5.51895 3.39758 5.56036 3.38182 5.60369 3.3757C5.64785 3.36924 5.69288 3.37239 5.73572 3.38492C5.77855 3.39745 5.81818 3.41907 5.85189 3.44831C5.85189 3.44831 6.04897 1.59961 7.94229 1.59961C9.83561 1.59961 10.0144 3.44828 10.0144 3.44828Z" fill="white"/>
<path d="M10.332 2.04709C10.3145 1.97112 10.2916 1.89646 10.2636 1.82367C10.1607 1.56083 10.0031 1.25745 9.6839 1.08225L9.30929 0.800586C8.93562 0.181846 8.24682 0.0609022 7.65957 0.101953C6.96233 0.150865 6.46539 0.337954 6.01228 0.870178C5.35199 1.64572 5.33352 2.67164 5.58299 3.37968C5.58902 3.37794 5.59517 3.37665 5.60139 3.37581C5.64521 3.3694 5.6899 3.37251 5.73241 3.38495C5.77492 3.39739 5.81424 3.41885 5.84769 3.44788L6.17466 3.09213C6.31137 2.89772 6.69903 2.41585 6.9937 2.35694C7.20437 2.31485 7.42891 2.36047 7.64745 2.35167C8.04362 2.33576 8.37125 2.14813 8.72262 2.01123C8.7694 1.99302 8.81661 1.97568 8.86444 1.9598C8.89087 1.94914 8.91933 1.94447 8.94778 1.94613C8.98047 1.95243 9.01007 1.96956 9.03182 1.99477C9.4398 2.39288 9.82293 2.96511 9.8921 3.56201C9.95518 3.50457 10.018 3.44788 10.018 3.44788C10.0515 3.41885 10.0908 3.39739 10.1333 3.38495C10.1758 3.37251 10.2205 3.3694 10.2643 3.37581C10.2735 3.37714 10.2827 3.37907 10.2917 3.38158C10.4279 2.95942 10.4239 2.43575 10.332 2.04709Z" fill="#7A7473"/>
<path d="M8.78814 6.00187C8.78157 6.14516 8.79115 6.28873 8.81668 6.42988C8.83994 6.53249 8.88975 6.62719 8.96113 6.7045C9.08935 6.85011 9.25545 6.96586 9.41845 7.06942C9.46536 7.10162 9.51442 7.13056 9.56531 7.15601C9.58676 7.16773 9.61188 7.17081 9.63552 7.16461C9.65917 7.15841 9.67955 7.14341 9.69249 7.12267C9.70473 7.10133 9.70809 7.07604 9.70186 7.05225C9.69562 7.02846 9.68028 7.00807 9.65914 6.99549C9.60404 6.96789 9.55098 6.93639 9.50036 6.90123C9.40523 6.84135 9.31418 6.77523 9.2278 6.70329C9.14671 6.63448 9.06329 6.56241 9.02232 6.46927C8.96109 6.33004 8.97302 6.15271 8.9741 6.00187C8.97499 5.88225 8.7891 5.88213 8.78821 6.00187H8.78814Z" fill="#211715"/>
<path d="M6.77817 5.98139C6.77894 6.12674 6.78669 6.27827 6.74649 6.41955C6.71364 6.51466 6.65537 6.59894 6.57799 6.66326C6.50125 6.73495 6.41861 6.80006 6.33095 6.8579C6.28239 6.89328 6.23104 6.92467 6.1774 6.95174C6.15625 6.9643 6.14089 6.98468 6.13465 7.00847C6.12841 7.03226 6.13179 7.05755 6.14405 7.07888C6.15688 7.09973 6.17725 7.11483 6.20094 7.12104C6.22462 7.12725 6.24978 7.12409 6.27119 7.11222C6.33105 7.08197 6.38821 7.04666 6.44206 7.00669C6.54372 6.9389 6.63916 6.8622 6.72724 6.7775C6.81916 6.6937 6.88759 6.58735 6.92575 6.46897C6.97048 6.3117 6.96495 6.1432 6.96405 5.98139C6.96344 5.86181 6.77755 5.86153 6.77817 5.98139Z" fill="#211715"/>
<path d="M5.66093 3.32052C5.40266 2.54378 5.51663 1.6311 6.03712 0.985642C6.28943 0.672728 6.60877 0.429485 6.99515 0.310012C7.19175 0.251533 7.39412 0.214565 7.59871 0.199757C7.78669 0.182111 7.976 0.184058 8.16358 0.205566C8.37027 0.228965 8.57063 0.291429 8.75401 0.389635C8.94958 0.498323 9.11338 0.656207 9.22919 0.847658C9.29146 0.949587 9.45229 0.856294 9.38971 0.753822C9.16172 0.38065 8.79045 0.141938 8.36585 0.0523623C7.95604 -0.0341535 7.51335 -0.00716087 7.10722 0.0872165C6.69245 0.18316 6.31612 0.401631 6.02713 0.714244C5.70219 1.06269 5.4823 1.49584 5.39278 1.96381C5.30279 2.43249 5.33344 2.91636 5.48186 3.36994C5.51942 3.48291 5.699 3.4345 5.66108 3.32052H5.66093Z" fill="#211715"/>
<path d="M6.25517 3.13917C6.39444 2.93741 6.55972 2.7549 6.74673 2.59637C6.84068 2.51892 6.93649 2.4575 7.05387 2.4405C7.24116 2.41339 7.43227 2.44948 7.62033 2.44557C7.98196 2.43782 8.30506 2.28493 8.63203 2.14784C8.71909 2.11136 8.80712 2.07488 8.89739 2.04715C8.93151 2.03661 8.94065 2.03646 8.96632 2.06078C8.99606 2.08893 9.02441 2.1186 9.05284 2.14822C9.16967 2.27008 9.27695 2.40074 9.37373 2.53906C9.58948 2.84907 9.76127 3.2057 9.80185 3.58515C9.80255 3.60958 9.81256 3.63282 9.82984 3.6501C9.84713 3.66738 9.87037 3.6774 9.8948 3.67809C9.9194 3.67793 9.94295 3.66808 9.96034 3.65069C9.97774 3.63329 9.98758 3.60975 9.98774 3.58515C9.94187 3.2169 9.81161 2.86421 9.6071 2.55455C9.50655 2.39736 9.39362 2.24843 9.2694 2.10919C9.21305 2.04571 9.15496 1.98274 9.09296 1.92469C9.01194 1.84887 8.92454 1.8417 8.82187 1.87644C8.46744 1.99649 8.13575 2.20175 7.75928 2.24988C7.55759 2.27568 7.3561 2.24024 7.15402 2.2469C7.00229 2.24774 6.85424 2.29371 6.72872 2.37896C6.47673 2.55095 6.2693 2.79775 6.09445 3.04545C6.08222 3.06678 6.07886 3.09207 6.0851 3.11586C6.09133 3.13965 6.10667 3.16004 6.1278 3.17263C6.1492 3.18455 6.17439 3.18774 6.19809 3.18153C6.22179 3.17531 6.24217 3.16018 6.25498 3.13928L6.25517 3.13917Z" fill="#211715"/>
<path d="M9.6371 1.1625C9.89398 1.30602 10.055 1.55225 10.1627 1.81969C10.2778 2.1053 10.3126 2.41996 10.304 2.7259C10.2998 2.91768 10.272 3.10822 10.2215 3.29325C10.1892 3.40862 10.3686 3.45788 10.4007 3.34267C10.4953 2.98765 10.5167 2.61712 10.4638 2.25355C10.4262 1.94516 10.3178 1.64964 10.147 1.39013C10.0403 1.23013 9.8978 1.09719 9.73078 1.00186C9.62622 0.94342 9.53238 1.10394 9.63695 1.16234L9.6371 1.1625Z" fill="#211715"/>
<path d="M4.97048 13.9085C4.97241 13.8562 4.97396 13.8101 4.9759 13.7718C4.96428 13.0922 4.93628 12.172 4.89515 11.2319L4.8756 11.2575L4.81115 11.3417C4.63541 11.5636 4.26851 11.9971 4.03422 12.2021C3.80062 12.4064 3.43519 12.5316 3.12762 12.4826C2.64872 12.4051 2.43929 11.9495 2.24376 11.505C1.96256 10.8657 1.76265 10.1781 1.56274 9.53952C1.9633 9.45239 2.60113 9.16 3.00168 8.94933C3.15992 9.33845 3.29945 9.68514 3.45904 10.059C3.74636 9.31433 3.82029 8.90715 4.10218 8.17092C4.1545 8.03429 4.19373 7.91145 4.29357 7.80433C4.38729 7.70387 4.51129 7.64117 4.6365 7.58459C5.02125 7.41071 5.94299 7.05791 6.40937 6.84878C6.49488 6.64147 6.62209 6.45395 6.78309 6.29785C7.04323 6.55804 7.34742 6.77007 7.68155 6.9241C7.70014 6.93255 7.7209 6.94289 7.7269 6.9624C7.72983 6.98002 7.72612 6.9981 7.71648 7.01314C7.70172 7.03749 7.68527 7.06078 7.66726 7.08285L8.07389 7.08234C8.05597 7.06047 8.0396 7.03737 8.0249 7.01321C8.01529 6.99817 8.0116 6.98009 8.01453 6.96248C8.02053 6.94312 8.04129 6.93262 8.05987 6.92418C8.39401 6.77015 8.6982 6.55812 8.95834 6.29793C9.1102 6.44452 9.23177 6.61952 9.31614 6.813C9.72517 6.97673 10.7684 7.37791 11.1614 7.56778C11.2876 7.62878 11.426 7.68354 11.5215 7.78605C11.6234 7.89522 11.6825 8.04199 11.7359 8.18141C12.0199 8.92307 12.1392 9.65141 12.2942 10.4604H11.0461C10.9982 11.6461 10.9538 12.9537 10.9355 13.8551C10.9351 13.8733 10.9351 13.8911 10.9347 13.9086L4.97048 13.9085Z" fill="white"/>
<path d="M8.01841 13.8382C8.22204 13.6143 8.41294 13.3792 8.59022 13.134C8.64257 13.0577 8.6873 13.0165 8.69226 12.9594C8.69415 12.8849 8.68981 12.8103 8.67929 12.7365C8.57035 11.5123 8.40882 9.59878 8.20078 7.81281C8.2068 7.73989 8.22307 7.66818 8.24911 7.59981C8.27908 7.50779 8.34174 7.29669 8.30875 7.37179C8.27525 7.33124 8.24218 7.291 8.21104 7.25293C8.15659 7.18628 8.10814 7.12614 8.07414 7.08203L7.66751 7.08253C7.63355 7.12661 7.58525 7.18655 7.531 7.25293C7.50923 7.27954 7.48654 7.30715 7.46342 7.33527C7.48108 7.43003 7.51512 7.53088 7.53735 7.62607C7.54122 7.64496 7.5461 7.66313 7.55083 7.68203C7.56256 7.72236 7.56935 7.76398 7.57104 7.80595C7.42001 9.45045 7.22571 11.4831 7.0899 12.8897C7.08039 12.9431 7.08467 12.998 7.10233 13.0492C7.1255 13.0938 7.15311 13.136 7.18474 13.175C7.35592 13.4122 7.54494 13.636 7.75015 13.8444C7.78426 13.8792 7.82858 13.9023 7.87667 13.9102C7.90327 13.9089 7.9293 13.9021 7.95316 13.8903C7.97701 13.8785 7.99817 13.8619 8.01532 13.8415L8.01841 13.8382Z" fill="#F96262"/>
<path d="M7.59954 7.89339C7.79364 7.89339 7.98773 7.88909 8.18183 7.88901C8.20648 7.88901 8.23012 7.87922 8.24756 7.86179C8.26499 7.84436 8.27478 7.82072 8.27478 7.79607C8.27478 7.77142 8.26499 7.74778 8.24756 7.73035C8.23012 7.71292 8.20648 7.70312 8.18183 7.70312C7.98773 7.70312 7.79364 7.70742 7.59954 7.7075C7.57489 7.7075 7.55125 7.71729 7.53382 7.73472C7.51638 7.75215 7.50659 7.7758 7.50659 7.80045C7.50659 7.8251 7.51638 7.84874 7.53382 7.86617C7.55125 7.8836 7.57489 7.89339 7.59954 7.89339Z" fill="#211715"/>
<path d="M7.37515 7.36848C7.39978 7.48819 7.43711 7.60518 7.46535 7.72411C7.49083 7.83154 7.4648 7.949 7.45473 8.05786C7.43369 8.28573 7.41254 8.5136 7.39126 8.74147C7.34722 9.21393 7.30281 9.68627 7.25804 10.1585C7.17478 11.0377 7.09073 11.9168 7.00589 12.7958C6.99489 12.9096 6.97723 13.0207 7.03668 13.125C7.10357 13.2313 7.17814 13.3327 7.25978 13.4282C7.33724 13.5267 7.41797 13.6226 7.50198 13.7159C7.54164 13.76 7.58191 13.8035 7.62281 13.8464C7.66223 13.8938 7.70886 13.9346 7.76099 13.9675C7.81308 13.996 7.87343 14.0055 7.93177 13.9945C7.99011 13.9835 8.04284 13.9527 8.08099 13.9072C8.15697 13.8267 8.22792 13.7404 8.29941 13.6559C8.44738 13.4809 8.58281 13.2985 8.71886 13.1144C8.74764 13.0796 8.76855 13.039 8.78016 12.9953C8.78814 12.9465 8.789 12.8968 8.78272 12.8477C8.77435 12.7518 8.76483 12.6559 8.75635 12.5601C8.73928 12.3672 8.72225 12.1743 8.70526 11.9815C8.66623 11.5395 8.6264 11.0976 8.58579 10.6559C8.54007 10.1627 8.49216 9.66976 8.44208 9.17695C8.41644 8.92652 8.38996 8.67608 8.36265 8.42565C8.34884 8.29914 8.33474 8.17263 8.32036 8.04612C8.31318 7.98321 8.30596 7.92028 8.29871 7.85733C8.29306 7.79609 8.3009 7.73436 8.32167 7.67648C8.34878 7.58764 8.37903 7.4998 8.40203 7.40973C8.43166 7.29378 8.25243 7.24428 8.2228 7.36031C8.19976 7.45039 8.16952 7.53822 8.14241 7.62706C8.1214 7.68674 8.10965 7.74929 8.10755 7.81252C8.10864 7.87166 8.12157 7.93331 8.12827 7.9921C8.15649 8.23913 8.1837 8.48626 8.20991 8.73349C8.26183 9.22191 8.31088 9.71063 8.35707 10.1996C8.43677 11.0366 8.50946 11.8741 8.58389 12.7115C8.58831 12.7613 8.59408 12.811 8.59795 12.8609C8.604 12.8957 8.60291 12.9315 8.59474 12.9659C8.57167 13.0061 8.54495 13.0441 8.51492 13.0794C8.48444 13.1227 8.45397 13.1659 8.42221 13.2083C8.28972 13.3854 8.14523 13.5536 7.99912 13.7195C7.97201 13.7502 7.94068 13.8014 7.89897 13.8136C7.86539 13.8233 7.83314 13.7956 7.80963 13.7721C7.72377 13.6862 7.6421 13.5957 7.56255 13.5039C7.48301 13.4122 7.40698 13.3191 7.33437 13.2225C7.30068 13.1777 7.26761 13.1324 7.23473 13.087C7.19798 13.0462 7.17805 12.993 7.17896 12.9381C7.1862 12.7452 7.21536 12.5509 7.23388 12.3585C7.25378 12.1513 7.27366 11.9442 7.29351 11.737C7.3364 11.2896 7.37906 10.8422 7.42151 10.3948C7.4654 9.93265 7.50898 9.4704 7.55225 9.00802C7.57334 8.78227 7.59437 8.55655 7.61534 8.33085C7.62525 8.22388 7.63515 8.11693 7.64504 8.00999C7.64989 7.95751 7.65472 7.90503 7.65952 7.85257C7.66435 7.78678 7.6578 7.72064 7.64016 7.65708C7.61228 7.54426 7.57769 7.43246 7.55426 7.31883C7.53017 7.20172 7.35095 7.25129 7.37503 7.36825L7.37515 7.36848Z" fill="#211715"/>
<path d="M8.0745 6.98926L7.66887 6.98976C7.64422 6.98976 7.62058 6.99955 7.60315 7.01698C7.58572 7.03441 7.57593 7.05806 7.57593 7.08271C7.57593 7.10736 7.58572 7.131 7.60315 7.14843C7.62058 7.16586 7.64422 7.17565 7.66887 7.17565L8.0745 7.17515C8.09915 7.17515 8.12279 7.16535 8.14022 7.14792C8.15765 7.13049 8.16744 7.10685 8.16744 7.0822C8.16744 7.05755 8.15765 7.03391 8.14022 7.01648C8.12279 6.99905 8.09915 6.98926 8.0745 6.98926Z" fill="#211715"/>
<path d="M8.64674 7.76827C8.86714 7.54753 9.03788 7.28574 9.19922 7.02038C9.23795 6.95629 9.27667 6.89192 9.31567 6.82787C9.33992 6.78802 9.37516 6.74681 9.36137 6.69678C9.3472 6.65918 9.32848 6.62345 9.30564 6.5904C9.22965 6.45817 9.1349 6.33767 9.02433 6.23264C9.0067 6.21559 8.98314 6.20605 8.95861 6.20605C8.93409 6.20605 8.91052 6.21559 8.89289 6.23264C8.67116 6.45495 8.41599 6.64116 8.13663 6.78449C8.07599 6.81571 7.98823 6.83871 7.94687 6.89591C7.92896 6.9241 7.9204 6.95723 7.9224 6.99056C7.92441 7.0239 7.93687 7.05576 7.95802 7.08161C8.03707 7.19725 8.13195 7.30374 8.22094 7.41168C8.319 7.53061 8.41806 7.64872 8.51527 7.76827C8.53277 7.78556 8.55638 7.79526 8.58099 7.79526C8.60559 7.79526 8.6292 7.78556 8.6467 7.76827C8.66363 7.75058 8.67308 7.72704 8.67308 7.70255C8.67308 7.67807 8.66363 7.65453 8.6467 7.63683C8.54776 7.51515 8.44691 7.39498 8.34715 7.27392C8.29046 7.20515 8.23384 7.13625 8.17838 7.06646C8.16057 7.044 8.10418 6.98901 8.10751 6.96291L8.09489 7.00996C8.09059 7.01875 8.07889 7.01744 8.09558 7.01039C8.10674 7.00566 8.11762 7.00016 8.12862 6.9949C8.14808 6.98584 8.16745 6.97655 8.18671 6.96705C8.22853 6.9464 8.26984 6.92475 8.31063 6.90211C8.39725 6.85409 8.48144 6.802 8.56321 6.74584C8.72853 6.63333 8.88291 6.50551 9.02429 6.36408H8.89285C9.01461 6.48093 9.1156 6.61765 9.19148 6.76838V6.67455C8.98622 7.00923 8.79491 7.35672 8.51527 7.63683C8.43069 7.72161 8.56209 7.85308 8.64674 7.76827Z" fill="#211715"/>
<path d="M7.22641 7.6368C6.94677 7.35669 6.7555 7.0092 6.5502 6.67452V6.76835C6.62608 6.61762 6.72707 6.48089 6.84883 6.36405H6.71739C6.85876 6.50549 7.01314 6.63331 7.17847 6.74581C7.25791 6.80024 7.33968 6.85097 7.42377 6.89801C7.46453 6.92078 7.50584 6.94259 7.54769 6.96342C7.56698 6.97297 7.58634 6.98233 7.60578 6.9915C7.6174 6.99688 7.62883 7.00226 7.6404 7.00753C7.64424 7.00919 7.64797 7.01111 7.65156 7.01326C7.6605 7.01845 7.65892 7.01713 7.64676 7.00978L7.63409 6.96288C7.63742 6.98886 7.58104 7.04397 7.56322 7.06643C7.50777 7.13614 7.45115 7.20511 7.39445 7.27389C7.29469 7.39495 7.19384 7.51512 7.0949 7.6368C7.07811 7.65457 7.06876 7.67808 7.06876 7.70252C7.06876 7.72696 7.07811 7.75048 7.0949 7.76824C7.11241 7.78551 7.13602 7.79519 7.16062 7.79519C7.18521 7.79519 7.20882 7.78551 7.22634 7.76824C7.40448 7.54932 7.59192 7.33714 7.7617 7.11159C7.79732 7.07245 7.81822 7.02213 7.82079 6.96927C7.81835 6.87725 7.73277 6.84743 7.66325 6.81363C7.52229 6.74475 7.38683 6.66515 7.25805 6.57553C7.11143 6.47396 6.97443 6.35917 6.84875 6.23261C6.83111 6.21557 6.80755 6.20605 6.78303 6.20605C6.75851 6.20605 6.73495 6.21557 6.71731 6.23261C6.60675 6.33765 6.512 6.45815 6.436 6.59036C6.41316 6.62343 6.39445 6.65915 6.38027 6.69675C6.36726 6.74399 6.39836 6.78245 6.42144 6.8204C6.46195 6.88694 6.50199 6.95378 6.54242 7.02035C6.70368 7.28571 6.8745 7.5475 7.0949 7.76824C7.17959 7.85302 7.31107 7.72162 7.22641 7.6368Z" fill="#211715"/>
<path d="M4.55965 7.75302C4.65333 8.48721 4.69666 9.22852 4.73891 9.96719C4.78941 10.85 4.82787 11.7334 4.85428 12.6174C4.86118 12.8381 4.86733 13.0588 4.87275 13.2796C4.87783 13.4894 4.8853 13.699 4.8776 13.9087C4.87318 14.0284 5.05907 14.0282 5.06348 13.9087C5.07743 13.5295 5.05609 13.1474 5.04478 12.7682C5.03187 12.336 5.01638 11.9039 4.99831 11.4718C4.96225 10.6046 4.91861 9.73727 4.85281 8.87173C4.82442 8.49828 4.79286 8.12465 4.74546 7.7531C4.7447 7.72869 4.73467 7.70549 4.7174 7.68822C4.70013 7.67095 4.67693 7.66091 4.65251 7.66016C4.6279 7.66029 4.60434 7.67012 4.58694 7.68752C4.56954 7.70493 4.5597 7.72849 4.55957 7.7531L4.55965 7.75302Z" fill="#211715"/>
<path d="M11.0277 13.9081C11.0347 13.4808 11.0478 13.0536 11.061 12.6265C11.0761 12.1419 11.0929 11.6573 11.1114 11.1728C11.1293 10.696 11.1487 10.2192 11.1695 9.74255C11.187 9.34005 11.2061 8.93762 11.2266 8.53528C11.2399 8.28041 11.2526 8.02524 11.2736 7.77085C11.275 7.75319 11.2765 7.73557 11.2782 7.71794C11.278 7.69335 11.2682 7.66981 11.2508 7.65241C11.2334 7.63502 11.2099 7.62517 11.1853 7.625C11.1608 7.62551 11.1374 7.63547 11.1201 7.65279C11.1028 7.67011 11.0928 7.69346 11.0923 7.71794C11.0708 7.94914 11.0597 8.1815 11.0472 8.41332C11.0262 8.80134 11.0074 9.18948 10.9908 9.57773C10.9699 10.0489 10.9505 10.52 10.9327 10.9913C10.9141 11.4789 10.8968 11.9666 10.8811 12.4544C10.8673 12.8855 10.8554 13.3167 10.8453 13.7478C10.8442 13.8013 10.8432 13.8547 10.8423 13.9081C10.8403 14.0278 11.0262 14.0278 11.0282 13.9081L11.0277 13.9081Z" fill="#211715"/>
<path d="M2.27753 7.04341C2.19078 6.70014 1.94708 5.84358 1.85742 5.72914C1.79306 5.647 1.71685 5.58376 1.57553 5.64394C1.45439 5.6956 1.47403 5.83548 1.49695 5.95108C1.52217 6.07838 1.67223 6.67915 1.75987 6.99102C1.72658 6.95365 1.68244 6.92762 1.63363 6.91656C1.58481 6.90551 1.53377 6.90998 1.48762 6.92936C1.3915 6.9732 1.35444 7.05515 1.36521 7.11436C1.36521 7.11436 1.37369 7.16083 1.38596 7.2274C1.35142 7.20863 1.31268 7.19889 1.27336 7.19911C1.23404 7.19933 1.19541 7.20949 1.16108 7.22864C1.07808 7.2731 0.99455 7.39207 1.03533 7.47789L1.09017 7.59295L1.07305 7.57889C0.967635 7.49218 0.784534 7.54555 0.754792 7.66115C0.731943 7.74987 0.770515 7.85455 0.819892 7.93568C0.825778 7.94532 0.832052 7.95566 0.838674 7.96666L0.848317 7.99637C0.915276 8.20371 1.04582 8.52053 1.24093 8.74631C1.33155 8.85087 1.43623 8.95486 1.51841 9.06713C1.60059 9.17939 1.62107 9.30413 1.66119 9.43848L1.67905 9.49788C1.89143 9.41942 2.48918 9.19609 2.80724 9.04478L2.79593 9.01295C2.76464 8.86857 2.7301 8.6809 2.75062 8.5586C2.78721 8.4207 2.8333 8.28549 2.88857 8.15395C2.93375 8.04711 2.95352 7.93125 2.94631 7.81547C2.93186 7.6838 2.89778 7.49586 2.79996 7.35873C2.78056 7.33201 2.75634 7.30916 2.72855 7.29134C2.72539 7.28905 2.72203 7.28704 2.71852 7.28534C2.60199 7.21389 2.44874 7.21358 2.31672 7.21919L2.30569 7.16304C2.30104 7.13915 2.29124 7.09767 2.27753 7.04341Z" fill="white"/>
<path d="M2.39514 7.13833C2.3635 6.97928 2.31594 6.82228 2.27214 6.66629C2.20932 6.44249 2.14407 6.219 2.06921 5.99887C2.01499 5.83893 1.96108 5.63031 1.79208 5.5532C1.64128 5.48439 1.43262 5.56289 1.39532 5.73216C1.37065 5.844 1.40276 5.96177 1.4282 6.07098C1.4984 6.37225 1.57475 6.67217 1.65723 6.97072C1.68887 7.08594 1.86826 7.03699 1.83646 6.92127C1.76555 6.66304 1.6996 6.40334 1.63644 6.14309C1.61614 6.05933 1.59426 5.97541 1.57962 5.8904C1.57188 5.8449 1.56437 5.78444 1.5847 5.75195C1.60038 5.73547 1.62033 5.72366 1.64232 5.71783C1.66431 5.712 1.68749 5.71237 1.70928 5.71892C1.72922 5.72837 1.74683 5.7421 1.76087 5.75912C1.76648 5.76508 1.78581 5.78824 1.78147 5.78235C1.77508 5.77368 1.7848 5.78735 1.78608 5.78963C1.79789 5.81054 1.80827 5.83177 1.81814 5.85369C1.82841 5.87642 1.81532 5.84594 1.82093 5.86019C1.82388 5.86759 1.8269 5.87495 1.82984 5.88231C1.8372 5.90095 1.84432 5.91965 1.85122 5.93842C1.86671 5.98079 1.88162 6.02343 1.89602 6.06622C1.96488 6.27074 2.0258 6.478 2.08443 6.68562C2.13129 6.85156 2.18229 7.01867 2.2161 7.18798C2.22265 7.21175 2.23838 7.23194 2.25982 7.24411C2.28126 7.25628 2.30666 7.25944 2.33042 7.25289C2.35419 7.24634 2.37438 7.23061 2.38655 7.20917C2.39873 7.18773 2.40188 7.16233 2.39533 7.13857L2.39514 7.13833Z" fill="#211715"/>
<path d="M0.758602 8.02108C0.834944 8.27388 0.952598 8.5123 1.1068 8.72668C1.2002 8.85014 1.31294 8.95687 1.40983 9.07735C1.50251 9.19257 1.53074 9.32443 1.57152 9.46319C1.60517 9.57774 1.78452 9.52903 1.75075 9.41377C1.70911 9.27199 1.67848 9.12696 1.58809 9.00621C1.4941 8.8805 1.38036 8.77238 1.28153 8.65089C1.12178 8.45451 1.01552 8.2108 0.937713 7.97166C0.900845 7.85839 0.721308 7.90687 0.758447 8.02108H0.758602Z" fill="#211715"/>
<path d="M2.41846 7.93226C2.40839 7.86217 2.38566 7.79509 2.36928 7.72639C2.35533 7.66239 2.31765 7.60606 2.26382 7.56874C2.2068 7.53593 2.14285 7.51702 2.07716 7.51355C2.05573 7.51088 2.03445 7.50709 2.01342 7.5022C2.01106 7.50187 2.00875 7.50124 2.00656 7.50031C2.01903 7.51084 1.99587 7.48203 1.99266 7.47478C1.98376 7.45616 1.98142 7.43507 1.98604 7.41495C1.98925 7.40181 1.99423 7.38916 2.00083 7.37735C2.00497 7.36933 2.0104 7.36186 2.01442 7.3538C2.02391 7.33486 2.0181 7.35121 2.01442 7.35326C2.06049 7.3356 2.10912 7.32555 2.15841 7.32352C2.29008 7.3107 2.43856 7.29889 2.55947 7.32514C2.61632 7.33326 2.66935 7.35853 2.71147 7.39756C2.74856 7.44195 2.77656 7.49321 2.79388 7.5484C2.83341 7.65186 2.85417 7.76153 2.85518 7.87228C2.85131 8.04899 2.76611 8.20002 2.71077 8.3657C2.6971 8.40667 2.68366 8.44776 2.67166 8.48927C2.66821 8.50132 2.66461 8.5134 2.66213 8.52568C2.66004 8.53609 2.65911 8.54674 2.65772 8.55728C2.66116 8.53137 2.65454 8.58148 2.65384 8.59085C2.64056 8.73914 2.67541 8.89381 2.70643 9.03799C2.73157 9.15491 2.9108 9.10542 2.88566 8.98858C2.85751 8.8576 2.8261 8.71869 2.84031 8.58392C2.84178 8.57025 2.85255 8.54973 2.84244 8.56704C2.83435 8.58086 2.84148 8.57273 2.84388 8.56487C2.84825 8.55019 2.85193 8.53528 2.85635 8.5206C2.86959 8.47665 2.884 8.43304 2.89875 8.38959C2.91374 8.34536 2.92919 8.30125 2.94565 8.25757C2.95185 8.24115 2.95812 8.22473 2.96501 8.20854C2.95882 8.22326 2.96164 8.21586 2.96618 8.20695C2.97071 8.19805 2.97466 8.19011 2.97853 8.18147C3.02815 8.06788 3.04923 7.94387 3.03991 7.82027C3.02982 7.68199 2.99637 7.54642 2.94096 7.41933C2.91335 7.3512 2.8695 7.29086 2.81323 7.24356C2.75697 7.19626 2.68999 7.16343 2.61814 7.14793C2.4665 7.11999 2.31138 7.11652 2.15864 7.13763C2.08738 7.14112 2.01706 7.15536 1.95006 7.17988C1.91805 7.19499 1.88961 7.21673 1.86663 7.24365C1.84365 7.27058 1.82665 7.30208 1.81676 7.33606C1.80114 7.37794 1.79561 7.4229 1.80062 7.46731C1.80562 7.51171 1.82103 7.55432 1.84557 7.59166C1.86414 7.62007 1.88903 7.6438 1.91829 7.66099C1.94754 7.67819 1.98038 7.68839 2.01423 7.6908C2.06299 7.69785 2.15051 7.69468 2.17925 7.74196C2.19346 7.77588 2.2034 7.81143 2.20883 7.8478C2.22183 7.89168 2.23203 7.93635 2.23935 7.98153C2.24603 8.00522 2.26177 8.02532 2.28317 8.03748C2.30457 8.04963 2.3299 8.05287 2.35367 8.04647C2.37704 8.03935 2.39679 8.02354 2.40884 8.00229C2.4209 7.98104 2.42434 7.95598 2.41846 7.93226Z" fill="#211715"/>
<path d="M1.25601 8.00541C1.26039 8.0209 1.25748 7.98876 1.25706 8.01071C1.25663 8.03267 1.26135 8.00254 1.25624 8.01846C1.25485 8.0228 1.24424 8.05099 1.25237 8.03314C1.24783 8.04302 1.24265 8.05261 1.23688 8.06183C1.23397 8.06652 1.2308 8.07101 1.22774 8.07554C1.22855 8.07434 1.23653 8.06489 1.22975 8.07295C1.22379 8.08014 1.21744 8.08701 1.21074 8.09351C1.20687 8.09711 1.20299 8.10044 1.19931 8.10385C1.20222 8.10126 1.21438 8.09479 1.20055 8.10253C1.19757 8.1042 1.19451 8.1061 1.19165 8.10792C1.18026 8.1152 1.18309 8.11024 1.19327 8.10792C1.18812 8.10912 1.16558 8.11497 1.17391 8.11346C1.18553 8.11133 1.16787 8.11388 1.16508 8.11408C1.1607 8.11431 1.15633 8.11446 1.15195 8.1145C1.14757 8.11454 1.11508 8.11241 1.13177 8.1145C1.11966 8.11278 1.10769 8.11019 1.09595 8.10676C1.08972 8.10505 1.06884 8.09785 1.07272 8.09951C1.0774 8.10149 1.05688 8.09127 1.05219 8.08844C1.0475 8.08561 1.04247 8.0824 1.03782 8.07907C1.04127 8.08151 1.04971 8.09003 1.03759 8.07818C1.02934 8.07012 1.02098 8.0623 1.01315 8.05382C1.00533 8.04533 0.998902 8.03759 0.992086 8.02919C0.982133 8.01699 0.998592 8.03809 0.988988 8.02531C0.986083 8.02144 0.983179 8.01757 0.980352 8.0135C0.965209 7.99247 0.950919 7.9709 0.937016 7.94894C0.910897 7.90985 0.887477 7.86901 0.866921 7.82672C0.866688 7.82614 0.860453 7.81061 0.864326 7.82053C0.862467 7.81572 0.860686 7.81092 0.85902 7.80608C0.855148 7.79481 0.851507 7.78343 0.848525 7.77192C0.846821 7.76538 0.845582 7.75879 0.843956 7.75225C0.84353 7.75055 0.840935 7.73409 0.842639 7.74745C0.840974 7.73447 0.841632 7.72154 0.84109 7.70872C0.84109 7.70651 0.842445 7.69021 0.840509 7.70485C0.841188 7.70014 0.842119 7.69547 0.843297 7.69087C0.844896 7.68621 0.84619 7.68145 0.84717 7.67662C0.848022 7.66763 0.84535 7.68157 0.844149 7.68339C0.847441 7.67848 0.863048 7.65659 0.847635 7.67418C0.853676 7.66728 0.860066 7.66105 0.866495 7.65481C0.870987 7.65032 0.879042 7.64827 0.864055 7.65648C0.868121 7.65423 0.8718 7.65121 0.875673 7.64873C0.879546 7.64625 0.884077 7.64428 0.888104 7.64184C0.902433 7.63309 0.879042 7.64323 0.889034 7.64107C0.898444 7.63901 0.907545 7.63475 0.917033 7.63251C0.921797 7.63138 0.926792 7.63084 0.931478 7.62956C0.943329 7.62631 0.910295 7.63007 0.932563 7.62983C0.942516 7.62983 0.952391 7.62983 0.962305 7.62983C0.968308 7.62983 0.977796 7.63398 0.959788 7.62921C0.964551 7.63045 0.969547 7.63107 0.974349 7.63227C0.979151 7.63347 0.983876 7.63526 0.988678 7.63646C1.00452 7.64033 0.983295 7.63123 0.990692 7.637C0.995571 7.64087 1.02256 7.65725 1.00696 7.64498C1.02475 7.6617 1.04826 7.67101 1.07268 7.67101C1.0971 7.67101 1.1206 7.6617 1.1384 7.64498C1.15568 7.62747 1.16538 7.60386 1.16538 7.57926C1.16538 7.55465 1.15568 7.53104 1.1384 7.51354C1.08955 7.4743 1.03008 7.45058 0.967635 7.44541C0.905193 7.44024 0.842632 7.45386 0.787995 7.48453C0.664302 7.55319 0.635411 7.69184 0.668949 7.82145C0.6881 7.88751 0.716929 7.95036 0.754497 8.00796C0.788483 8.06543 0.826873 8.12017 0.869322 8.1717C0.912406 8.22229 0.96847 8.26017 1.03148 8.28127C1.09449 8.30237 1.16206 8.30589 1.22693 8.29144C1.35995 8.26046 1.47288 8.09034 1.43493 7.95611C1.42837 7.93234 1.41265 7.91214 1.3912 7.89996C1.36976 7.88779 1.34436 7.88463 1.32059 7.89118C1.29681 7.89774 1.27662 7.91346 1.26444 7.93491C1.25227 7.95635 1.24911 7.98175 1.25566 8.00552L1.25601 8.00541Z" fill="#211715"/>
<path d="M1.48456 7.19042C1.36838 7.06262 1.16158 7.09267 1.04396 7.20033C1.01129 7.22858 0.984557 7.26305 0.965317 7.30172C0.946077 7.34039 0.934714 7.3825 0.931889 7.4256C0.931347 7.50809 0.984364 7.58613 1.02483 7.65491C1.0916 7.76845 1.17138 7.87759 1.24736 7.98532C1.27898 8.03511 1.31671 8.08073 1.35967 8.12114C1.42361 8.17087 1.5034 8.19577 1.58428 8.19123C1.78857 8.18248 1.90056 7.98246 1.84917 7.7949C1.81761 7.67965 1.63823 7.72856 1.66991 7.84432C1.67754 7.86519 1.67991 7.88763 1.6768 7.90964C1.67369 7.93164 1.66521 7.95255 1.65209 7.97049C1.64477 7.97879 1.6365 7.98621 1.62746 7.9926C1.61082 8.0025 1.59154 8.00703 1.57224 8.00558C1.55026 8.0055 1.52846 8.00171 1.50776 7.99435C1.50003 7.99023 1.49206 7.98657 1.4839 7.98339C1.48228 7.983 1.47228 7.97595 1.4839 7.98412C1.49629 7.99284 1.47968 7.97994 1.47833 7.97855C1.45202 7.9519 1.42839 7.92274 1.40776 7.89149C1.35467 7.8162 1.30266 7.7398 1.25042 7.66393C1.21294 7.60909 1.17855 7.5522 1.1474 7.49353C1.13619 7.47398 1.12628 7.45371 1.11774 7.43285C1.12006 7.43927 1.11774 7.42433 1.11774 7.42262C1.11979 7.41122 1.12363 7.40021 1.12912 7.39001C1.14003 7.3679 1.15538 7.34828 1.17421 7.33237C1.19304 7.31646 1.21495 7.3046 1.23857 7.29753C1.25791 7.28996 1.27905 7.2882 1.29938 7.2925C1.31971 7.29679 1.33834 7.30694 1.35297 7.3217C1.43363 7.41038 1.56476 7.27864 1.48441 7.19026L1.48456 7.19042Z" fill="#211715"/>
<path d="M1.99139 7.63105C1.99483 7.65298 1.99273 7.67542 1.98529 7.69633C1.97785 7.71724 1.9653 7.73596 1.94879 7.75079C1.93764 7.76155 1.92363 7.76885 1.90843 7.77182C1.89323 7.77479 1.87749 7.7733 1.86312 7.76752C1.82091 7.74063 1.78698 7.70257 1.76507 7.65758C1.72343 7.58926 1.68064 7.5218 1.63727 7.45449C1.56682 7.34466 1.48623 7.23092 1.45688 7.10181C1.45688 7.10138 1.45277 7.08302 1.45544 7.09406C1.45812 7.1051 1.4597 7.08244 1.45579 7.09154C1.45188 7.10064 1.46261 7.0685 1.4587 7.07822C1.46666 7.0593 1.47986 7.04305 1.49673 7.03136C1.51757 7.01602 1.54222 7.0067 1.568 7.00443C1.59378 7.00216 1.61969 7.00703 1.64288 7.0185C1.6954 7.04333 1.73242 7.10142 1.76681 7.1463C1.80639 7.1982 1.84488 7.25141 1.87947 7.30679C1.94267 7.40806 2.10358 7.31484 2.03999 7.21299C1.99687 7.1455 1.95034 7.08025 1.90057 7.0175C1.85057 6.95306 1.80062 6.88738 1.72471 6.85209C1.55672 6.77398 1.32482 6.84718 1.27738 7.04035C1.25743 7.12167 1.28973 7.20439 1.32211 7.27786C1.36167 7.36218 1.40759 7.44337 1.45947 7.52071C1.51187 7.60289 1.5628 7.686 1.61508 7.76818C1.65848 7.84659 1.72622 7.90877 1.80805 7.94532C1.853 7.9593 1.90078 7.96152 1.94683 7.95177C1.99288 7.94202 2.03566 7.92063 2.07109 7.88963C2.10787 7.85789 2.13666 7.81792 2.15511 7.77298C2.17356 7.72803 2.18115 7.67936 2.17727 7.63093C2.17123 7.51192 1.98531 7.51119 1.99139 7.63093V7.63105Z" fill="#211715"/>
<path d="M6.43446 6.73567C5.93364 6.96761 5.4128 7.15815 4.90258 7.37002C4.63149 7.48252 4.31234 7.58434 4.14667 7.84346C4.10249 7.91795 4.06609 7.99679 4.03804 8.07872C4.00338 8.17008 3.9686 8.2614 3.93537 8.3533C3.8743 8.52222 3.81749 8.69266 3.76308 8.86383C3.6414 9.24669 3.52382 9.63008 3.38038 10.0056C3.37402 10.0293 3.37727 10.0546 3.38941 10.076C3.40156 10.0974 3.42162 10.1132 3.44528 10.1199C3.46903 10.1259 3.49418 10.1225 3.51549 10.1104C3.53679 10.0983 3.5526 10.0785 3.55961 10.055C3.68624 9.72361 3.79394 9.38626 3.8999 9.04782C4.00469 8.71319 4.10902 8.37289 4.24794 8.05053C4.27867 7.97416 4.32439 7.90473 4.3824 7.84632C4.44756 7.78758 4.52141 7.73924 4.60132 7.70303C4.7031 7.65269 4.81323 7.60711 4.91013 7.56664C5.17448 7.45619 5.44069 7.35027 5.70612 7.24269C5.98159 7.13104 6.25852 7.02105 6.52829 6.89612C6.54943 6.88354 6.56477 6.86315 6.57101 6.83936C6.57725 6.81556 6.57388 6.79027 6.56164 6.76894C6.54882 6.74807 6.52843 6.73295 6.50474 6.72674C6.48105 6.72053 6.45587 6.7237 6.43446 6.7356V6.73567Z" fill="#211715"/>
<path d="M3.78788 10.578C3.54169 10.0328 3.31657 9.4789 3.0913 8.92479C3.08721 8.91127 3.08016 8.89882 3.07064 8.88838C3.06113 8.87793 3.0494 8.86974 3.03631 8.86442C3.02322 8.85909 3.00911 8.85675 2.995 8.85759C2.9809 8.85842 2.96716 8.86239 2.95479 8.86922C2.72209 8.99152 2.48464 9.10436 2.24244 9.20773C2.01557 9.30993 1.77977 9.39106 1.53804 9.45008C1.51439 9.45682 1.49434 9.47258 1.4822 9.49396C1.47005 9.51535 1.4668 9.54065 1.47313 9.56441C1.6117 10.0074 1.74446 10.4524 1.90111 10.8895C1.98127 11.1132 2.06798 11.3345 2.16352 11.5521C2.2323 11.718 2.31195 11.8793 2.40196 12.0348C2.48907 12.1861 2.60564 12.3183 2.74477 12.4237C2.89499 12.5297 3.07437 12.5865 3.25821 12.5864C3.46346 12.5849 3.6654 12.5345 3.84721 12.4392C4.00249 12.3538 4.14271 12.2435 4.26228 12.1126C4.50963 11.8576 4.74124 11.5877 4.95584 11.3045C4.96815 11.2832 4.97155 11.2579 4.96531 11.2341C4.95906 11.2103 4.94368 11.1899 4.9225 11.1773C4.90108 11.1655 4.87593 11.1624 4.85226 11.1686C4.82859 11.1748 4.80822 11.1899 4.79536 11.2107L4.76027 11.2565C4.75288 11.2662 4.74552 11.2759 4.73808 11.2855C4.73588 11.2884 4.73374 11.2913 4.73154 11.2941C4.74513 11.2768 4.73433 11.2902 4.72681 11.2995C4.6823 11.3553 4.63712 11.4105 4.59127 11.4651C4.47784 11.601 4.36177 11.7348 4.24141 11.8646C4.1346 11.9798 4.02485 12.1034 3.89531 12.1938C3.74368 12.3005 3.56856 12.3689 3.38481 12.3934C3.22066 12.418 3.05298 12.3881 2.90746 12.3082C2.77807 12.2276 2.66962 12.1174 2.59099 11.9868C2.50073 11.8407 2.42195 11.6878 2.35537 11.5295C2.26829 11.3337 2.18793 11.1352 2.1143 10.9339C1.94266 10.4669 1.80061 9.98974 1.65225 9.51503L1.58734 9.62939C1.83945 9.56696 2.08532 9.48158 2.32187 9.37434C2.56864 9.26962 2.81084 9.15473 3.04847 9.02967L2.91195 8.97413C3.14327 9.54307 3.37447 10.1119 3.62724 10.6718C3.63982 10.6929 3.6602 10.7083 3.684 10.7145C3.70779 10.7208 3.73309 10.7174 3.75442 10.7051C3.77526 10.6923 3.79035 10.6719 3.79656 10.6482C3.80277 10.6246 3.79962 10.5994 3.78776 10.578L3.78788 10.578Z" fill="#211715"/>
<path d="M9.24135 6.88252C9.74891 7.08754 10.2644 7.28141 10.7668 7.49352C10.8708 7.53739 10.9795 7.58418 11.0836 7.6332C11.237 7.70551 11.4073 7.76875 11.506 7.91452C11.6183 8.08046 11.6793 8.28494 11.7423 8.47335C11.8085 8.67155 11.8656 8.87274 11.9161 9.07551C12.0323 9.54105 12.1147 10.0141 12.2048 10.4852C12.2116 10.5088 12.2273 10.5289 12.2487 10.541C12.2701 10.5531 12.2954 10.5564 12.3191 10.5501C12.3426 10.5431 12.3625 10.5273 12.3746 10.506C12.3867 10.4847 12.3901 10.4595 12.384 10.4358C12.3016 10.0045 12.2253 9.57156 12.124 9.14413C12.0746 8.93559 12.019 8.72844 11.9541 8.52416C11.8949 8.32168 11.8203 8.124 11.731 7.93283C11.6881 7.84072 11.6281 7.75761 11.5541 7.68793C11.4776 7.62401 11.3923 7.57129 11.301 7.53135C11.1883 7.47783 11.0753 7.42532 10.9607 7.37586C10.6764 7.25322 10.3888 7.13816 10.101 7.02384C9.83109 6.91664 9.56007 6.81216 9.29077 6.70341C9.26701 6.69701 9.24168 6.70024 9.22028 6.71239C9.19888 6.72454 9.18313 6.74463 9.17645 6.76832C9.17049 6.79206 9.17391 6.81719 9.186 6.83848C9.19808 6.85977 9.21791 6.87559 9.24135 6.88264V6.88252Z" fill="#211715"/>
<path d="M10.0801 3.51417C10.1023 3.4959 10.1279 3.48231 10.1556 3.47423C10.1832 3.46615 10.2121 3.46375 10.2407 3.46717C10.2692 3.47058 10.2968 3.47975 10.3217 3.49411C10.3467 3.50847 10.3684 3.52773 10.3857 3.55073C10.4156 3.60711 10.4298 3.6705 10.4269 3.73426C10.4308 3.81257 10.4263 3.89106 10.4137 3.96844C10.3669 4.24197 10.2228 4.57548 9.91798 4.6278C9.89431 4.63452 9.87423 4.65028 9.86208 4.67168C9.84993 4.69308 9.84668 4.71839 9.85303 4.74216C9.86007 4.76563 9.87589 4.78547 9.89719 4.79756C9.91849 4.80965 9.94364 4.81306 9.96739 4.80707C10.2831 4.75285 10.4704 4.45466 10.5568 4.17001C10.6023 4.02059 10.6206 3.86424 10.611 3.70835C10.6011 3.55534 10.5548 3.41139 10.4138 3.33177C10.3404 3.29135 10.2563 3.27455 10.173 3.28367C10.0897 3.29279 10.0112 3.32738 9.9483 3.38273C9.93107 3.40027 9.92141 3.42387 9.92141 3.44845C9.92141 3.47304 9.93107 3.49664 9.9483 3.51417C9.96597 3.53114 9.98952 3.54062 10.014 3.54062C10.0385 3.54062 10.0621 3.53114 10.0797 3.51417H10.0801Z" fill="#211715"/>
<path d="M9.84666 4.48606C9.84159 4.57535 9.82503 4.66361 9.7974 4.74867C9.78799 4.78031 9.77765 4.81168 9.76715 4.84297C9.76367 4.85331 9.76038 4.86372 9.75658 4.87395C9.75399 4.88092 9.74248 4.90659 9.75437 4.88007C9.71453 4.96693 9.66872 5.05094 9.61728 5.13148C9.47138 5.37311 9.28542 5.58815 9.06736 5.76738C8.9474 5.86672 8.80685 5.93815 8.65589 5.9765C8.53936 6.00326 8.58869 6.18257 8.7053 6.15573C9.01399 6.08478 9.27269 5.86307 9.4767 5.63056C9.65143 5.43836 9.79711 5.22165 9.90913 4.9873C9.98196 4.82969 10.0239 4.65958 10.0327 4.48618C10.0365 4.36651 9.85065 4.36666 9.84678 4.48618L9.84666 4.48606Z" fill="#211715"/>
<path d="M5.9173 3.3832C5.86228 3.33448 5.79505 3.30162 5.7228 3.28814C5.65056 3.27465 5.576 3.28105 5.50711 3.30664C5.35514 3.36659 5.27916 3.49443 5.25987 3.65174C5.22346 3.9624 5.30276 4.27559 5.48263 4.53149C5.58015 4.67396 5.72922 4.77295 5.89836 4.80754C5.9221 4.81338 5.94718 4.80991 5.96844 4.79784C5.9897 4.78577 6.00553 4.76601 6.01269 4.74263C6.01905 4.71887 6.01581 4.69355 6.00367 4.67215C5.99152 4.65075 5.97145 4.63499 5.94778 4.62827C5.64312 4.57595 5.49897 4.24244 5.45208 3.96891C5.43987 3.8944 5.43535 3.81884 5.43856 3.7434C5.44084 3.67966 5.44367 3.60623 5.48004 3.5512C5.49729 3.52817 5.51904 3.50888 5.54396 3.49449C5.56889 3.48011 5.59647 3.47093 5.62505 3.46751C5.65362 3.46409 5.68259 3.46651 5.71021 3.47461C5.73782 3.48271 5.76351 3.49633 5.78571 3.51464C5.80344 3.5315 5.82696 3.5409 5.85143 3.5409C5.87589 3.5409 5.89942 3.5315 5.91715 3.51464C5.93438 3.49711 5.94404 3.47351 5.94404 3.44892C5.94404 3.42434 5.93438 3.40074 5.91715 3.3832H5.9173Z" fill="#211715"/>
<path d="M5.8459 4.45636C5.95883 5.10786 6.3119 5.74542 6.91554 6.05985C7.07864 6.14482 7.25642 6.198 7.4394 6.21654C7.464 6.21637 7.48754 6.20653 7.50494 6.18914C7.52233 6.17174 7.53218 6.14819 7.53234 6.12359C7.53181 6.09911 7.52184 6.07578 7.50453 6.05846C7.48721 6.04115 7.46388 6.03118 7.4394 6.03065C6.81717 5.96617 6.33235 5.40811 6.13697 4.84758C6.08772 4.70401 6.05033 4.55663 6.02517 4.40695C6.01844 4.38329 6.00268 4.36323 5.9813 4.35109C5.95991 4.33894 5.93461 4.3357 5.91085 4.34204C5.88738 4.34906 5.86753 4.36487 5.85543 4.38616C5.84333 4.40746 5.83991 4.43261 5.8459 4.45636Z" fill="#211715"/>
<path d="M12.0738 11.8266C12.2799 11.6431 13.0765 10.9397 13.2511 10.7648C13.1078 10.6165 12.8337 10.4722 12.5047 10.4416C12.2224 10.4089 11.9367 10.4241 11.6595 10.4866C11.38 10.5563 11.0179 10.729 10.824 10.9513C10.5867 10.7249 10.2353 10.6249 9.91705 10.6144C9.59477 10.6051 9.27407 10.6627 8.97514 10.7834C8.73197 10.8807 8.53528 11.0201 8.40039 11.2789C8.5869 11.4419 9.46364 12.0428 9.65766 12.1967L12.0738 11.8266Z" fill="#F96262"/>
<path d="M8.3577 10.7843C8.30987 10.8295 8.26554 10.8783 8.2251 10.9302C8.29654 11.0049 8.37251 11.0751 8.45258 11.1404L8.47485 11.157C8.60377 10.9739 8.77355 10.8641 8.97539 10.7834C9.27432 10.6626 9.59503 10.6051 9.91731 10.6143C10.2356 10.6248 10.5869 10.7248 10.8242 10.9513C11.0182 10.7288 11.3802 10.5563 11.6597 10.4866C11.9369 10.424 12.2227 10.4088 12.505 10.4416C12.6749 10.4571 12.8404 10.5043 12.9929 10.5808L12.9993 10.5744C13.0488 10.5274 13.1477 10.4286 13.2317 10.3395C12.9276 10.1096 12.7571 10.0753 12.3985 10.0404C12.1256 10.0138 11.8155 10.0049 11.5488 10.0714C11.282 10.1379 10.9398 10.2493 10.7502 10.4602C10.5368 10.3097 10.2382 10.2244 9.91738 10.2139C9.5951 10.2046 9.27439 10.2621 8.97547 10.383C8.83809 10.4345 8.70805 10.5038 8.58863 10.5891C8.50803 10.6498 8.43093 10.7149 8.3577 10.7843Z" fill="white"/>
<path d="M11.3132 11.3505C11.3019 11.3414 11.2905 11.3324 11.2791 11.3236C11.1328 11.2106 11.0268 11.1929 10.8763 11.2771L10.7958 11.347C10.7344 11.2818 10.6822 11.2277 10.66 11.2084C10.6279 11.1794 10.5889 11.1592 10.5467 11.1497C10.5045 11.1402 10.4605 11.1417 10.4191 11.1542C10.3241 11.1896 10.2844 11.2415 10.2844 11.3211C10.2844 11.3211 10.2805 11.3498 10.2753 11.3887C10.225 11.3354 10.1796 11.2895 10.145 11.2584C10.1157 11.2322 9.97291 11.1616 9.87776 11.2332C9.79395 11.2962 9.78094 11.3804 9.82954 11.4545C9.83463 11.4631 9.83927 11.4719 9.84345 11.481L9.82219 11.4698C9.79525 11.4549 9.76544 11.446 9.73476 11.4435C9.70407 11.441 9.67321 11.4452 9.64425 11.4556C9.61528 11.466 9.58888 11.4825 9.56681 11.504C9.54473 11.5254 9.52749 11.5514 9.51624 11.58C9.50121 11.6486 9.50984 11.7202 9.54072 11.7831C9.60229 11.9022 9.87121 12.2006 10.0164 12.354C10.349 12.5893 10.8797 12.4254 11.3048 12.3266C11.3646 12.3119 11.4215 12.2874 11.4733 12.2541C11.6324 12.1438 11.7142 12.0081 11.8441 11.8646C11.8993 11.8114 11.9482 11.7521 11.9899 11.6878C12.0322 11.6052 12.0671 11.5154 12.0435 11.4256C12.0339 11.3785 12.0075 11.3366 11.9692 11.3077C11.906 11.2659 11.8213 11.2859 11.7512 11.3145C11.6464 11.3573 11.5489 11.4163 11.4624 11.4892C11.4162 11.4393 11.3663 11.3929 11.3132 11.3505Z" fill="white"/>
<path d="M11.4267 12.1743C11.337 12.2363 11.2229 12.251 11.1192 12.276C10.9944 12.3062 10.8692 12.3357 10.7426 12.3569C10.5275 12.3929 10.2833 12.41 10.0896 12.2918C9.98719 12.2293 9.8937 12.39 9.99578 12.4523C10.2254 12.5924 10.5049 12.581 10.761 12.5414C10.8957 12.5204 11.0286 12.4892 11.1611 12.4573C11.2827 12.428 11.4154 12.4077 11.5206 12.335C11.5414 12.3221 11.5565 12.3018 11.5627 12.2781C11.5689 12.2544 11.5657 12.2293 11.5539 12.2079C11.5413 12.1867 11.5209 12.1714 11.4972 12.1652C11.4734 12.1589 11.4481 12.1623 11.4267 12.1745V12.1743Z" fill="#211715"/>
<path d="M11.605 11.518C11.5098 11.3887 11.3907 11.2788 11.2542 11.1942C11.1925 11.1555 11.1216 11.134 11.0487 11.1318C10.9713 11.1347 10.8959 11.1571 10.8295 11.1969C10.8082 11.2094 10.7927 11.2298 10.7865 11.2536C10.7802 11.2775 10.7837 11.3028 10.7961 11.3241C10.8086 11.3454 10.829 11.3609 10.8528 11.3671C10.8767 11.3734 10.902 11.3699 10.9233 11.3575C10.9451 11.3442 10.9685 11.3338 10.993 11.3265C11.0063 11.3223 11.02 11.3192 11.0338 11.3172C11.0174 11.3194 11.0475 11.3175 11.0531 11.3176C11.0554 11.3176 11.0785 11.3193 11.0668 11.318C11.0568 11.3168 11.0743 11.3195 11.0762 11.3199C11.088 11.3225 11.0996 11.3258 11.111 11.3298C11.1149 11.3312 11.1304 11.3379 11.1197 11.3329C11.1257 11.3357 11.1317 11.3387 11.1376 11.3418C11.1518 11.3492 11.1655 11.3573 11.179 11.3661C11.2805 11.4326 11.3703 11.5156 11.4445 11.6117C11.4575 11.6324 11.4779 11.6474 11.5015 11.6536C11.5251 11.6598 11.5503 11.6567 11.5717 11.645C11.5929 11.6325 11.6082 11.6121 11.6145 11.5883C11.6207 11.5645 11.6173 11.5392 11.6051 11.5179L11.605 11.518Z" fill="#211715"/>
<path d="M11.1768 11.6163C11.0751 11.5206 10.9839 11.412 10.8883 11.3101C10.8409 11.2598 10.7939 11.2083 10.7441 11.1602C10.7041 11.1195 10.6551 11.0888 10.601 11.0706C10.547 11.0525 10.4894 11.0473 10.433 11.0556C10.3677 11.0642 10.3077 11.0957 10.2635 11.1444C10.2192 11.1931 10.1937 11.2559 10.1914 11.3217C10.1888 11.4413 10.3747 11.4413 10.3773 11.3217C10.3779 11.2964 10.3756 11.299 10.3885 11.2796C10.3807 11.2912 10.4012 11.2669 10.4051 11.2641C10.4001 11.2679 10.4269 11.2522 10.4317 11.2499C10.4517 11.2403 10.4738 11.2356 10.496 11.2362C10.5182 11.2367 10.54 11.2425 10.5595 11.2531C10.6206 11.2823 10.6686 11.3481 10.7141 11.3964C10.8244 11.5129 10.9287 11.6382 11.0456 11.7482C11.1327 11.8302 11.2644 11.699 11.177 11.6168L11.1768 11.6163Z" fill="#211715"/>
<path d="M9.72346 12.1313C9.38266 11.8618 9.01518 11.6252 8.6654 11.3675C8.62337 11.3365 8.58162 11.3052 8.54016 11.2735C8.52923 11.2651 8.55197 11.2828 8.54147 11.2745L8.52772 11.2638C8.51998 11.2578 8.51254 11.2518 8.50503 11.2457C8.4919 11.2352 8.47893 11.2244 8.4663 11.2134L8.48083 11.326C8.54828 11.1937 8.64729 11.0801 8.76911 10.9952C8.90574 10.9077 9.05503 10.8418 9.21172 10.7998C9.55476 10.6981 9.93281 10.6669 10.2809 10.7621C10.4585 10.807 10.6224 10.8945 10.7584 11.0172C10.776 11.0344 10.7996 11.044 10.8242 11.044C10.8487 11.044 10.8723 11.0344 10.8899 11.0172C11.0874 10.7943 11.387 10.6529 11.6716 10.5796C11.8565 10.5344 12.0467 10.5142 12.237 10.5196C12.4199 10.5168 12.6022 10.5413 12.7778 10.5924C12.9308 10.6381 13.0706 10.7198 13.1856 10.8306V10.6991C13.0517 10.8327 12.9085 10.9574 12.768 11.0838C12.5854 11.248 12.4023 11.4114 12.2185 11.5741C12.1484 11.6364 12.0782 11.6986 12.0081 11.7609C11.9186 11.8406 12.0505 11.9717 12.1396 11.8923C12.468 11.5999 12.7984 11.3097 13.1229 11.0128C13.1883 10.953 13.2541 10.8932 13.317 10.8306C13.3341 10.813 13.3436 10.7894 13.3436 10.7649C13.3436 10.7403 13.3341 10.7168 13.317 10.6991C13.0612 10.4389 12.6907 10.3538 12.3388 10.3368C11.9553 10.3117 11.5718 10.3851 11.2246 10.5498C11.049 10.6306 10.8906 10.7446 10.7584 10.8856H10.8898C10.616 10.6285 10.2324 10.5236 9.86376 10.5203C9.65023 10.519 9.43748 10.5461 9.23112 10.601C9.04751 10.6453 8.87148 10.7166 8.70881 10.8126C8.54447 10.9156 8.41043 11.0604 8.32038 11.2322C8.3103 11.25 8.30626 11.2706 8.30888 11.2909C8.3115 11.3112 8.32063 11.3301 8.3349 11.3448C8.4799 11.4708 8.64158 11.5799 8.79746 11.6917C8.99423 11.8329 9.19247 11.9721 9.38901 12.1134C9.4314 12.1438 9.47368 12.1745 9.51584 12.2054C9.53261 12.2177 9.54934 12.2301 9.56619 12.2426L9.58737 12.2587C9.59717 12.2661 9.57079 12.2457 9.59236 12.2626C9.61015 12.2793 9.63366 12.2887 9.65808 12.2887C9.68251 12.2887 9.70602 12.2793 9.7238 12.2626C9.74109 12.2451 9.75079 12.2215 9.75079 12.1969C9.75079 12.1723 9.74109 12.1486 9.7238 12.1311L9.72346 12.1313Z" fill="#211715"/>
<path d="M8.49942 11.0605C8.51843 11.075 8.49888 11.0597 8.49167 11.0536C8.48199 11.0455 8.4724 11.0372 8.4629 11.0288C8.43885 11.0078 8.41515 10.9862 8.39168 10.9646C8.35565 10.9339 8.32199 10.9006 8.29099 10.8649V10.9963C8.50438 10.7206 8.8078 10.5326 9.13524 10.4236C9.47919 10.3038 9.84826 10.2748 10.2067 10.3395C10.3844 10.3718 10.5536 10.4403 10.7036 10.5409C10.7214 10.5512 10.742 10.5553 10.7624 10.5527C10.7827 10.5501 10.8017 10.5408 10.8162 10.5263C10.9261 10.4147 11.0597 10.3291 11.2071 10.2761C11.3622 10.2133 11.5234 10.167 11.6881 10.1378C11.8792 10.1101 12.0729 10.105 12.2651 10.1225C12.4236 10.1291 12.5811 10.1499 12.7358 10.1848C12.8997 10.2325 13.0524 10.3125 13.185 10.4201L13.1662 10.2741C13.0905 10.3541 13.0134 10.4329 12.9338 10.509C12.8471 10.5918 12.9786 10.7231 13.0652 10.6404C13.1449 10.5644 13.2219 10.4855 13.2976 10.4056C13.3074 10.3954 13.3147 10.3831 13.3191 10.3697C13.3235 10.3563 13.3249 10.3421 13.323 10.3281C13.3212 10.3141 13.3163 10.3007 13.3087 10.2888C13.301 10.277 13.2908 10.267 13.2788 10.2596C13.1467 10.1548 12.9974 10.0737 12.8375 10.0202C12.6725 9.97618 12.5032 9.94989 12.3325 9.94176C12.1294 9.92163 11.9248 9.92317 11.722 9.94637C11.5408 9.97156 11.363 10.0176 11.1922 10.0835C11.0063 10.1536 10.8209 10.2464 10.6849 10.3949L10.7975 10.3804C10.4944 10.1699 10.1019 10.1057 9.73969 10.1227C9.35629 10.1406 8.95183 10.2479 8.62435 10.4527C8.44698 10.5625 8.28979 10.702 8.15963 10.865C8.14317 10.8829 8.13403 10.9064 8.13403 10.9307C8.13403 10.9551 8.14317 10.9785 8.15963 10.9965C8.23238 11.081 8.31506 11.1564 8.40589 11.2211C8.42722 11.2334 8.45252 11.2368 8.47633 11.2305C8.50014 11.2243 8.52053 11.2089 8.53307 11.1877C8.54492 11.1663 8.54806 11.1411 8.54186 11.1175C8.53565 11.0938 8.52056 11.0734 8.49973 11.0605L8.49942 11.0605Z" fill="#211715"/>
<path d="M9.86934 11.3892C9.81686 11.3603 9.7572 11.3472 9.69747 11.3513C9.63773 11.3554 9.58044 11.3767 9.53242 11.4124C9.49378 11.4403 9.46287 11.4775 9.44262 11.5206C9.42236 11.5637 9.41343 11.6113 9.41666 11.6588C9.42406 11.7572 9.46197 11.8508 9.5251 11.9266C9.58706 12.0099 9.65413 12.0895 9.7226 12.1677C9.79665 12.2526 9.87239 12.3359 9.94981 12.4177C10.0321 12.5049 10.1634 12.3732 10.0813 12.2861C9.93603 12.1383 9.80011 11.9816 9.67427 11.817C9.6529 11.7902 9.63432 11.7612 9.61882 11.7306C9.60763 11.7038 9.60204 11.675 9.6024 11.6459C9.60289 11.6386 9.60289 11.6311 9.6024 11.6237C9.60278 11.6206 9.61084 11.5897 9.60561 11.6044C9.60038 11.6191 9.61208 11.5938 9.6139 11.5908C9.62621 11.5707 9.60228 11.602 9.61978 11.583C9.63124 11.5692 9.6453 11.5577 9.66118 11.5492C9.67886 11.5399 9.69854 11.5351 9.7185 11.5352C9.73846 11.5353 9.7581 11.5402 9.7757 11.5497C9.79713 11.5615 9.82228 11.5646 9.84595 11.5584C9.86962 11.5522 9.89 11.5371 9.90288 11.5163C9.91509 11.495 9.91844 11.4697 9.9122 11.4459C9.90596 11.4222 9.89064 11.4018 9.86953 11.3892H9.86934Z" fill="#211715"/>
<path d="M10.7244 11.7439C10.6287 11.6403 10.5354 11.5343 10.4403 11.4302C10.3932 11.3788 10.3459 11.3276 10.2973 11.2776C10.2614 11.2363 10.2209 11.1994 10.1766 11.1674C10.0351 11.0774 9.83793 11.0911 9.74472 11.2423C9.63818 11.4151 9.79572 11.5725 9.89893 11.6988C10.0157 11.8443 10.1401 11.9835 10.2718 12.1157C10.357 12.1998 10.4887 12.0685 10.4032 11.9843C10.2996 11.8821 10.202 11.7748 10.1089 11.6629C10.0615 11.6059 10.015 11.5484 9.96802 11.4911C9.94619 11.4651 9.92674 11.4372 9.90993 11.4078C9.90512 11.4 9.90094 11.3919 9.89742 11.3835C9.89688 11.3819 9.893 11.361 9.89401 11.3696C9.8949 11.3773 9.89664 11.3532 9.89378 11.3646C9.8989 11.3431 9.91175 11.3242 9.9299 11.3115C9.94806 11.2988 9.97023 11.2933 9.99222 11.2959C10.0141 11.299 10.0355 11.3048 10.0561 11.3131C10.0454 11.3086 10.0688 11.3196 10.0736 11.3224C10.0775 11.3246 10.0814 11.3277 10.0855 11.3296C10.1006 11.3369 10.0748 11.3171 10.0819 11.3268C10.0964 11.3428 10.1121 11.3578 10.1288 11.3715C10.1486 11.3912 10.1681 11.4111 10.1874 11.4313C10.23 11.4756 10.2715 11.5207 10.3129 11.5661C10.4066 11.6688 10.4988 11.7731 10.593 11.8753C10.6743 11.9634 10.8054 11.8317 10.7244 11.7439L10.7244 11.7439Z" fill="#211715"/>
<path d="M11.5787 11.516C11.6335 11.4772 11.6916 11.4434 11.7524 11.4149C11.7936 11.3958 11.8557 11.3651 11.9026 11.3785C11.9415 11.3895 11.9556 11.4404 11.9584 11.4761C11.9575 11.5389 11.9386 11.6 11.9039 11.6523C11.8744 11.6967 11.84 11.7377 11.8014 11.7745C11.7602 11.8184 11.7215 11.8644 11.6833 11.911C11.6099 12.0097 11.5236 12.0981 11.4268 12.174C11.406 12.1869 11.3909 12.2073 11.3847 12.2309C11.3785 12.2546 11.3816 12.2797 11.3934 12.3011C11.406 12.3223 11.4264 12.3376 11.4502 12.3438C11.474 12.3501 11.4993 12.3467 11.5206 12.3345C11.6542 12.2398 11.7511 12.1172 11.8556 11.9932C11.9015 11.9386 11.9521 11.8884 11.9985 11.8344C12.0534 11.7707 12.0952 11.6969 12.1217 11.6172C12.1729 11.4647 12.1301 11.2485 11.954 11.2002C11.7946 11.1565 11.6098 11.2679 11.4848 11.3556C11.464 11.3685 11.449 11.3889 11.4428 11.4126C11.4366 11.4362 11.4397 11.4614 11.4515 11.4828C11.4641 11.5039 11.4845 11.5192 11.5083 11.5255C11.5321 11.5317 11.5573 11.5284 11.5787 11.5161V11.516Z" fill="#211715"/>
<path d="M7.55948 5.11335C7.68145 5.17632 7.81727 5.20768 7.9545 5.20455C8.09508 5.20366 8.23817 5.1764 8.3509 5.08837C8.36821 5.07088 8.37792 5.04726 8.37792 5.02265C8.37792 4.99804 8.36821 4.97443 8.3509 4.95693C8.33318 4.94007 8.30965 4.93066 8.28519 4.93066C8.26072 4.93066 8.23719 4.94007 8.21947 4.95693C8.24696 4.93552 8.22334 4.95356 8.21614 4.95809C8.20812 4.96324 8.19983 4.96801 8.19135 4.97246C8.1855 4.97552 8.1565 4.98768 8.17973 4.97881C8.16838 4.98315 8.15712 4.98753 8.14557 4.99124C8.07976 5.0122 8.01076 5.02138 7.94176 5.01835C7.87594 5.02017 7.81026 5.01133 7.74727 4.99217C7.73476 4.9883 7.72256 4.98396 7.71021 4.9797C7.70634 4.97835 7.70246 4.97626 7.69828 4.97506C7.72117 4.98176 7.70494 4.97804 7.69882 4.97506C7.68351 4.96785 7.66838 4.9603 7.65343 4.9524C7.63203 4.94049 7.60684 4.9373 7.58314 4.94352C7.55945 4.94973 7.53906 4.96486 7.52626 4.98574C7.51408 5.00709 7.51076 5.03236 7.51699 5.05613C7.52322 5.07991 7.53852 5.10029 7.5596 5.11292L7.55948 5.11335Z" fill="#211715"/>
<path d="M7.91226 4.17632C7.93072 4.24293 7.94549 4.31051 7.95653 4.37874L7.9532 4.35403C7.95451 4.36328 7.95475 4.37265 7.95393 4.38196L7.95726 4.35725C7.95666 4.36153 7.95563 4.36575 7.9542 4.36983L7.96358 4.34761C7.96233 4.35043 7.96084 4.35314 7.95912 4.3557L7.97368 4.33688C7.97172 4.3393 7.9695 4.34149 7.96706 4.34342L7.98584 4.32886C7.98071 4.33207 7.97537 4.33491 7.96985 4.33738L7.99204 4.32801C7.98335 4.33167 7.97425 4.33427 7.96493 4.33576L7.98964 4.33242C7.98121 4.33345 7.9727 4.33345 7.96427 4.33242L7.98898 4.33576C7.97942 4.33444 7.97004 4.33212 7.96048 4.3308C7.93625 4.32516 7.9108 4.32849 7.88883 4.34017C7.87829 4.34633 7.86906 4.3545 7.86168 4.36423C7.8543 4.37396 7.84891 4.38504 7.84581 4.39685C7.84272 4.40866 7.84198 4.42097 7.84364 4.43306C7.8453 4.44516 7.84932 4.45681 7.85549 4.46735C7.86139 4.47784 7.86936 4.48702 7.87891 4.49434C7.88847 4.50166 7.8994 4.50697 7.91106 4.50995C7.93186 4.51274 7.95204 4.51808 7.97303 4.51901C8.00441 4.51922 8.0354 4.5119 8.06338 4.49767C8.08092 4.48985 8.09648 4.47817 8.10889 4.46351C8.1213 4.44885 8.13024 4.43157 8.13506 4.41298C8.1414 4.38244 8.14107 4.35089 8.13409 4.3205C8.12309 4.25532 8.10803 4.19068 8.09126 4.12686C8.08471 4.10309 8.06898 4.08289 8.04753 4.07072C8.02609 4.05854 8.00069 4.05538 7.97692 4.06194C7.95314 4.06849 7.93295 4.08422 7.92077 4.10566C7.9086 4.1271 7.90544 4.15251 7.91199 4.17628L7.91226 4.17632Z" fill="#211715"/>
<path d="M6.83172 3.60643C6.79791 3.7163 6.8201 3.96899 7.02807 3.99048C7.30303 3.98886 7.31774 3.68334 7.22519 3.5397C7.14936 3.42209 6.92641 3.37318 6.83172 3.60643Z" fill="#211715"/>
<path d="M9.03429 3.60647C9.0681 3.7163 9.04591 3.96899 8.83795 3.99048C8.56299 3.98886 8.54823 3.68334 8.64083 3.53966C8.71666 3.42209 8.93957 3.37318 9.03429 3.60647Z" fill="#211715"/>
</g>
<defs>
<clipPath id="clip0_3810_5140">
<rect width="14" height="14" fill="white"/>
</clipPath>
</defs>
</svg>
