<svg width="35" height="36" viewBox="0 0 35 36" fill="none" xmlns="http://www.w3.org/2000/svg">
<rect y="0.5" width="35" height="35" rx="12" fill="#FFC8C8"/>
<path d="M9.5 11.6C9.5 10.1641 10.5956 9 11.9471 9H24.3706C24.9943 9 25.5 9.53726 25.5 10.2V25.8C25.5 26.4627 24.9943 27 24.3706 27H11.9471C10.5956 27 9.5 25.8359 9.5 24.4V11.6Z" fill="#F96262"/>
<path d="M11.3824 23.5C11.3824 22.6716 12.0144 22 12.7941 22H23.6176V25H12.7941C12.0144 25 11.3824 24.3284 11.3824 23.5Z" fill="white"/>
<path fill-rule="evenodd" clip-rule="evenodd" d="M12.3235 13.25C12.3235 12.8358 12.6396 12.5 13.0294 12.5H19.1471C19.5369 12.5 19.8529 12.8358 19.8529 13.25C19.8529 13.6642 19.5369 14 19.1471 14H13.0294C12.6396 14 12.3235 13.6642 12.3235 13.25Z" fill="#FFE4E4"/>
<path fill-rule="evenodd" clip-rule="evenodd" d="M12.3235 16.75C12.3235 16.3358 12.6396 16 13.0294 16H21.0294C21.4193 16 21.7353 16.3358 21.7353 16.75C21.7353 17.1642 21.4193 17.5 21.0294 17.5H13.0294C12.6396 17.5 12.3235 17.1642 12.3235 16.75Z" fill="#FFE4E4"/>
</svg>
