<svg width="22" height="22" viewBox="0 0 22 22" fill="none" xmlns="http://www.w3.org/2000/svg">
<path d="M15.9982 15.9983C18.7587 13.2378 18.7587 8.7622 15.9982 6.00173C13.2378 3.24126 8.76216 3.24126 6.00169 6.00173C3.24122 8.7622 3.24122 13.2378 6.00169 15.9983C8.76216 18.7587 13.2378 18.7587 15.9982 15.9983Z" fill="white"/>
<path fill-rule="evenodd" clip-rule="evenodd" d="M6.50345 6.50345C4.02008 8.98683 4.02008 13.0132 6.50345 15.4965C8.98683 17.9799 13.0132 17.9799 15.4965 15.4965C17.9799 13.0132 17.9799 8.98683 15.4965 6.50345C13.0132 4.02008 8.98683 4.02008 6.50345 6.50345ZM5.5 16.5C2.46243 13.4624 2.46243 8.53757 5.5 5.5C8.53757 2.46243 13.4624 2.46243 16.5 5.5C19.5376 8.53757 19.5376 13.4624 16.5 16.5C13.4624 19.5376 8.53757 19.5376 5.5 16.5Z" fill="#1F1F1F"/>
<path fill-rule="evenodd" clip-rule="evenodd" d="M10.5601 5.28094V3.96094H11.4401V5.28094H10.5601Z" fill="#1F1F1F"/>
<path fill-rule="evenodd" clip-rule="evenodd" d="M14.52 6.76138L15.4192 6.16016L15.84 6.43893L14.9409 7.04016L14.52 6.76138Z" fill="#1F1F1F"/>
<path fill-rule="evenodd" clip-rule="evenodd" d="M16.72 10.5586H18.04V10.9986H16.72V10.5586Z" fill="#1F1F1F"/>
<path fill-rule="evenodd" clip-rule="evenodd" d="M15.3781 14.9609L16.28 15.8601L15.8618 16.2809L14.96 15.3818L15.3781 14.9609Z" fill="#1F1F1F"/>
<path fill-rule="evenodd" clip-rule="evenodd" d="M11.88 16.7188V17.5988H11V16.7188H11.88Z" fill="#1F1F1F"/>
<path fill-rule="evenodd" clip-rule="evenodd" d="M7.47991 15.3811L6.58009 16.2809L6.15991 15.8608L7.05973 14.9609L7.47991 15.3811Z" fill="#1F1F1F"/>
<path fill-rule="evenodd" clip-rule="evenodd" d="M5.28015 11.44H4.40015V11H5.28015V11.44Z" fill="#1F1F1F"/>
<path fill-rule="evenodd" clip-rule="evenodd" d="M7.05973 7.48016L6.15991 6.58034L6.58009 6.16016L7.47991 7.05998L7.05973 7.48016Z" fill="#1F1F1F"/>
<path d="M12.7599 2.19922H9.67993V3.95922H12.7599V2.19922Z" fill="#1F1F1F"/>
<path d="M13.2 1.32031H8.80005V2.64031H13.2V1.32031Z" fill="#1F1F1F"/>
<path d="M17.1019 4.74589L16.2715 5.37109L17.538 7.0533L18.3684 6.4281L17.1019 4.74589Z" fill="#1F1F1F"/>
<path d="M17.4345 3.80839L16.6042 4.43359L18.526 6.98569L19.3563 6.36049L17.4345 3.80839Z" fill="#1F1F1F"/>
<path fill-rule="evenodd" clip-rule="evenodd" d="M6.50345 6.50345C4.02008 8.98683 4.02008 13.0132 6.50345 15.4965C8.98683 17.9799 13.0132 17.9799 15.4965 15.4965C17.9799 13.0132 17.9799 8.98683 15.4965 6.50345C13.0132 4.02008 8.98683 4.02008 6.50345 6.50345ZM5.5 16.5C2.46243 13.4624 2.46243 8.53757 5.5 5.5C8.53757 2.46243 13.4624 2.46243 16.5 5.5C19.5376 8.53757 19.5376 13.4624 16.5 16.5C13.4624 19.5376 8.53757 19.5376 5.5 16.5Z" fill="#1F1F1F"/>
<path d="M11.3333 9V11L12.3333 12" stroke="#151515" stroke-width="2" stroke-linecap="square"/>
</svg>
