<svg width="195" height="195" viewBox="0 0 195 195" fill="none" xmlns="http://www.w3.org/2000/svg">
<g id="Group">
<path id="Vector" d="M100.503 168.687H188.784C188.784 168.687 187.966 159.055 174.804 160.919C176.916 146.333 159.554 131.402 138.274 145.33C111.903 118.527 42.874 126.182 36.8531 149.378C28.0911 138.501 18.2999 147.648 23.7827 156.586C10.4666 156.586 7.33548 169.035 7.33548 169.035L100.503 168.687Z" fill="#FFA143"/>
<g id="Group_2">
<path id="Vector_2" d="M97.8982 15.2671C95.3244 15.2671 93.2377 17.3538 93.2377 19.9276V25.3105C93.2377 27.8843 95.3244 29.971 97.8982 29.971C100.472 29.971 102.559 27.8843 102.559 25.3105V19.9276C102.559 17.3538 100.473 15.2671 97.8982 15.2671Z" fill="#3C4870"/>
<path id="Vector_3" d="M104.712 22.6187H90.2755C87.6397 22.6187 85.5031 24.7553 85.5031 27.3911V41.8273C85.5031 44.4631 87.6397 46.5997 90.2755 46.5997H104.712C107.348 46.5997 109.484 44.4631 109.484 41.8273V27.3911C109.484 24.7553 107.347 22.6187 104.712 22.6187Z" fill="#A63009"/>
<g id="Group_3">
<g id="Group_4">
<g id="Group_5">
<g id="Group_6">
<g id="Group_7">
<path id="Vector_4" d="M151.414 17.3526C153.074 18.2528 153.69 20.3279 152.79 21.9884L136.365 52.2828C136.002 52.9526 135.165 53.2011 134.495 52.8379L130.909 50.8938C130.239 50.5307 129.991 49.6931 130.354 49.0233L146.779 18.7284C147.679 17.0685 149.754 16.4524 151.414 17.3526Z" fill="#3C4870"/>
<path id="Vector_5" d="M123.741 28.0861L157.514 46.3968C160.652 40.6079 160.197 33.8267 156.901 28.627C155.353 26.1761 153.173 24.0773 150.443 22.5979L147.543 21.0252C143.28 18.7147 138.485 18.3504 134.181 19.628C129.868 20.9078 126.048 23.8299 123.741 28.0861Z" fill="#FFA143"/>
</g>
<path id="Vector_6" d="M149.233 41.9084L157.513 46.3977C160.651 40.6089 160.196 33.8277 156.9 28.6279C156.568 32.6505 155.022 38.4887 149.233 41.9084Z" fill="#CC3609"/>
</g>
</g>
<g id="Group_8">
<g id="Group_9">
<g id="Group_10">
<path id="Vector_7" d="M43.0073 17.3526C41.3474 18.2528 40.7308 20.3279 41.631 21.9884L58.0563 52.2833C58.4194 52.9531 59.2571 53.2016 59.9269 52.8384L63.5127 50.8944C64.1825 50.5312 64.431 49.6936 64.0679 49.0238L47.6431 18.7289C46.7429 17.0684 44.6672 16.4524 43.0073 17.3526Z" fill="#3C4870"/>
<path id="Vector_8" d="M70.6812 28.0861L36.9079 46.3968C33.7697 40.6079 34.225 33.8267 37.5212 28.627C39.0687 26.1761 41.2492 24.0773 43.9788 22.5979L46.879 21.0252C51.1412 18.7147 55.9367 18.3504 60.2406 19.628C64.5534 20.9078 68.3735 23.8299 70.6812 28.0861Z" fill="#FFA143"/>
</g>
<path id="Vector_9" d="M45.1878 41.9084L36.9079 46.3977C33.7697 40.6089 34.225 33.8277 37.5212 28.6279C37.8537 32.6505 39.3989 38.4887 45.1878 41.9084Z" fill="#CC3609"/>
</g>
</g>
</g>
<g id="Group_11">
<g id="Group_12">
<path id="Vector_10" d="M78.1958 151.436C76.1075 150.64 73.769 151.688 72.9731 153.776L67.5139 168.098C66.7179 170.186 67.7657 172.524 69.854 173.32C71.9423 174.116 74.2808 173.069 75.0767 170.98L80.536 156.659C81.3319 154.57 80.2842 152.232 78.1958 151.436Z" fill="#3C4870"/>
<path id="Vector_11" d="M116.229 151.436C118.317 150.64 120.655 151.688 121.451 153.776L126.911 168.098C127.707 170.186 126.659 172.524 124.57 173.32C122.482 174.116 120.144 173.069 119.348 170.98L113.888 156.659C113.093 154.57 114.14 152.232 116.229 151.436Z" fill="#3C4870"/>
</g>
<path id="Vector_12" d="M145.812 145.811C172.655 118.968 172.655 75.4468 145.812 48.6037C118.968 21.7605 75.447 21.7605 48.6039 48.6036C21.7607 75.4468 21.7607 118.968 48.6039 145.811C75.447 172.655 118.968 172.655 145.812 145.811Z" fill="#CC3609"/>
<path id="Vector_13" d="M143.29 143.29C168.741 117.839 168.741 76.5756 143.29 51.1249C117.84 25.6741 76.5758 25.6741 51.1251 51.1249C25.6743 76.5756 25.6743 117.839 51.1251 143.29C76.5758 168.741 117.84 168.741 143.29 143.29Z" fill="#A63009"/>
<path id="Vector_14" d="M135.552 135.552C156.729 114.375 156.729 80.0401 135.552 58.8631C114.375 37.6861 80.0403 37.6861 58.8633 58.8631C37.6862 80.0401 37.6862 114.375 58.8633 135.552C80.0403 156.729 114.375 156.729 135.552 135.552Z" fill="#FFC543"/>
<path id="Vector_15" d="M148.209 97.2069C148.209 125.37 125.374 148.201 97.2103 148.201C69.0471 148.201 46.2163 125.37 46.2163 97.2069C46.2163 69.0437 69.0476 46.2124 97.2103 46.2124C116.177 46.2124 132.727 56.5652 141.514 71.9313C145.773 79.3801 148.209 88.0093 148.209 97.2069Z" fill="white"/>
<path id="Vector_16" d="M148.209 97.2068H97.2103L141.514 71.9312C145.773 79.3799 148.209 88.0092 148.209 97.2068Z" fill="#BBE9F8"/>
<path id="Vector_17" d="M96.9519 98.2095C96.5537 98.1069 96.2432 97.7728 96.1845 97.3488C96.1127 96.8332 96.4352 96.345 96.9371 96.2073L121.494 89.4842C122.046 89.3334 122.616 89.6581 122.767 90.2099C122.918 90.7612 122.593 91.3312 122.041 91.4826L105.164 96.103L121.714 95.9615C122.285 95.9555 122.754 96.4163 122.759 96.9884C122.764 97.5606 122.304 98.0279 121.732 98.0329L97.2197 98.2424C97.1275 98.2429 97.0375 98.2314 96.9519 98.2095Z" fill="#A2CFF0"/>
<path id="Vector_18" d="M97.2109 60.6558V97.2069L119.26 84.627" stroke="#3C4870" stroke-width="4" stroke-miterlimit="10" stroke-linecap="round"/>
<g id="Group_13">
<g id="Group_14">
<path id="Vector_19" d="M99.653 53.0003C99.653 51.6514 98.5592 50.5576 97.2103 50.5576C95.8614 50.5576 94.7676 51.6514 94.7676 53.0003C94.7676 54.3492 95.8614 55.443 97.2103 55.443C98.5597 55.443 99.653 54.3492 99.653 53.0003Z" fill="#3C4870"/>
<path id="Vector_20" d="M99.653 141.413C99.653 140.064 98.5592 138.97 97.2103 138.97C95.8614 138.97 94.7676 140.063 94.7676 141.413C94.7676 142.762 95.8614 143.856 97.2103 143.856C98.5597 143.856 99.653 142.762 99.653 141.413Z" fill="#3C4870"/>
</g>
<g id="Group_15">
<path id="Vector_21" d="M141.417 99.6491C142.766 99.6491 143.86 98.5553 143.86 97.2064C143.86 95.8575 142.766 94.7637 141.417 94.7637C140.068 94.7637 138.974 95.8575 138.974 97.2064C138.974 98.5558 140.068 99.6491 141.417 99.6491Z" fill="#3C4870"/>
<path id="Vector_22" d="M53.0041 99.6491C54.353 99.6491 55.4468 98.5553 55.4468 97.2064C55.4468 95.8575 54.353 94.7637 53.0041 94.7637C51.6552 94.7637 50.5614 95.8575 50.5614 97.2064C50.5614 98.5558 51.6552 99.6491 53.0041 99.6491Z" fill="#3C4870"/>
</g>
<g id="Group_16">
<path id="Vector_23" d="M77.2227 57.7011C76.548 56.5327 75.0543 56.1328 73.8859 56.807C72.7174 57.4812 72.3176 58.9754 72.9917 60.1433C73.6665 61.3117 75.1602 61.7116 76.3286 61.0374C77.497 60.3633 77.8974 58.8696 77.2227 57.7011Z" fill="#3C4870"/>
<path id="Vector_24" d="M121.429 134.269C120.755 133.101 119.26 132.701 118.092 133.375C116.924 134.05 116.524 135.544 117.198 136.712C117.872 137.881 119.366 138.281 120.535 137.606C121.703 136.932 122.104 135.438 121.429 134.269Z" fill="#3C4870"/>
</g>
<g id="Group_17">
<path id="Vector_25" d="M136.716 77.2191C137.884 76.5444 138.284 75.0507 137.61 73.8823C136.935 72.7139 135.442 72.314 134.273 72.9882C133.105 73.6629 132.705 75.1566 133.379 76.325C134.054 77.4934 135.548 77.8939 136.716 77.2191Z" fill="#3C4870"/>
<path id="Vector_26" d="M60.1479 121.425C61.3163 120.75 61.7162 119.257 61.042 118.088C60.3673 116.92 58.8736 116.52 57.7052 117.194C56.5368 117.869 56.1369 119.363 56.8111 120.531C57.4858 121.699 58.9795 122.1 60.1479 121.425Z" fill="#3C4870"/>
</g>
<g id="Group_18">
<path id="Vector_27" d="M60.1479 72.9884C58.9795 72.3137 57.4858 72.7141 56.8111 73.8825C56.1363 75.051 56.5368 76.5447 57.7052 77.2194C58.8736 77.8941 60.3673 77.4937 61.042 76.3253C61.7168 75.1568 61.3163 73.6626 60.1479 72.9884Z" fill="#3C4870"/>
<path id="Vector_28" d="M136.716 117.194C135.548 116.52 134.054 116.92 133.379 118.089C132.704 119.257 133.105 120.751 134.273 121.425C135.442 122.1 136.935 121.7 137.61 120.531C138.284 119.363 137.884 117.869 136.716 117.194Z" fill="#3C4870"/>
</g>
<g id="Group_19">
<path id="Vector_29" d="M121.429 60.144C122.104 58.9756 121.703 57.4819 120.535 56.8077C119.366 56.133 117.873 56.5335 117.198 57.7019C116.523 58.8703 116.924 60.364 118.092 61.0387C119.261 61.7129 120.755 61.3125 121.429 60.144Z" fill="#3C4870"/>
<path id="Vector_30" d="M77.2227 136.712C77.8974 135.544 77.497 134.05 76.3286 133.375C75.1602 132.701 73.6665 133.101 72.9917 134.269C72.317 135.438 72.7174 136.932 73.8859 137.606C75.0543 138.281 76.548 137.88 77.2227 136.712Z" fill="#3C4870"/>
</g>
</g>
<path id="Vector_31" d="M102.16 99.25C103.291 96.521 101.995 93.3923 99.2663 92.262C96.5375 91.1317 93.409 92.4277 92.2786 95.1568C91.1482 97.8858 92.4439 101.014 95.1726 102.145C97.9014 103.275 101.03 101.979 102.16 99.25Z" fill="#CC3609"/>
<path id="Vector_32" d="M99.653 97.2069C99.653 95.858 98.5592 94.7642 97.2103 94.7642C95.8614 94.7642 94.7676 95.858 94.7676 97.2069C94.7676 98.5558 95.8614 99.6496 97.2103 99.6496C98.5597 99.649 99.653 98.5558 99.653 97.2069Z" fill="#FFC543"/>
</g>
</g>
</g>
<g id="Group_20">
<path id="Vector_33" d="M159.636 150.458C159.636 150.458 176.045 138.725 177.105 122.465" stroke="#FFA143" stroke-width="2" stroke-miterlimit="10" stroke-linecap="round"/>
<path id="Vector_34" d="M172.357 120.932C172.357 120.932 171.54 127.896 175.565 129.84" stroke="#FFA143" stroke-width="2" stroke-miterlimit="10" stroke-linecap="round"/>
<path id="Vector_35" d="M174.241 133.048C174.241 133.048 181.7 133.004 183.961 125.386" stroke="#FFA143" stroke-width="2" stroke-miterlimit="10" stroke-linecap="round"/>
<path id="Vector_36" d="M172.288 136.641C172.288 136.641 167.224 134.678 165.948 129.839" stroke="#FFA143" stroke-width="2" stroke-miterlimit="10" stroke-linecap="round"/>
<path id="Vector_37" d="M174.067 120.109C174.067 119.127 173.271 118.331 172.288 118.331C171.306 118.331 170.51 119.128 170.51 120.109C170.51 121.092 171.306 121.888 172.288 121.888C173.271 121.888 174.067 121.092 174.067 120.109Z" fill="#A63009"/>
<path id="Vector_38" d="M185.739 124.786C185.739 123.804 184.942 123.008 183.961 123.008C182.978 123.008 182.182 123.804 182.182 124.786C182.182 125.768 182.979 126.565 183.961 126.565C184.943 126.565 185.739 125.769 185.739 124.786Z" fill="#A63009"/>
<path id="Vector_39" d="M167.726 129.217C167.726 128.234 166.93 127.438 165.948 127.438C164.965 127.438 164.169 128.235 164.169 129.217C164.169 130.199 164.966 130.995 165.948 130.995C166.93 130.995 167.726 130.199 167.726 129.217Z" fill="#A63009"/>
<path id="Vector_40" d="M178.884 122.464C178.884 121.483 178.087 120.686 177.105 120.686C176.123 120.686 175.327 121.483 175.327 122.464C175.327 123.447 176.123 124.243 177.105 124.243C178.087 124.243 178.884 123.446 178.884 122.464Z" fill="#A63009"/>
</g>
<g id="Group_21">
<path id="Vector_41" d="M42.8493 146.749C42.8493 146.749 25.6187 142.166 19.6697 129.05" stroke="#FFA143" stroke-width="2" stroke-miterlimit="10" stroke-linecap="round"/>
<path id="Vector_42" d="M23.1184 126.301C23.1184 126.301 25.9659 131.805 23.244 134.668" stroke="#FFA143" stroke-width="2" stroke-miterlimit="10" stroke-linecap="round"/>
<path id="Vector_43" d="M25.3395 136.908C25.3395 136.908 19.1579 139.199 14.9115 133.604" stroke="#FFA143" stroke-width="2" stroke-miterlimit="10" stroke-linecap="round"/>
<path id="Vector_44" d="M28.0757 139.271C28.0757 139.271 31.6506 136.067 31.1975 131.667" stroke="#FFA143" stroke-width="2" stroke-miterlimit="10" stroke-linecap="round"/>
<path id="Vector_45" d="M21.4475 126.154C21.1409 125.342 21.5512 124.435 22.3636 124.129C23.176 123.822 24.0828 124.232 24.3894 125.045C24.6961 125.857 24.2857 126.764 23.4733 127.07C22.6609 127.377 21.7536 126.966 21.4475 126.154Z" fill="#A63009"/>
<path id="Vector_46" d="M13.2544 133.664C12.9477 132.852 13.358 131.945 14.1704 131.638C14.9829 131.332 15.8896 131.742 16.1962 132.554C16.5029 133.367 16.0926 134.274 15.2802 134.58C14.4672 134.887 13.5605 134.477 13.2544 133.664Z" fill="#A63009"/>
<path id="Vector_47" d="M29.5327 131.708C29.226 130.895 29.6363 129.988 30.4487 129.682C31.2611 129.375 32.1679 129.785 32.4745 130.598C32.7812 131.41 32.3709 132.317 31.5585 132.624C30.746 132.93 29.8387 132.52 29.5327 131.708Z" fill="#A63009"/>
<path id="Vector_48" d="M18.199 129.605C17.8924 128.793 18.3027 127.886 19.1151 127.579C19.9275 127.273 20.8343 127.683 21.1409 128.495C21.4475 129.308 21.0372 130.214 20.2248 130.521C19.4118 130.827 18.5051 130.417 18.199 129.605Z" fill="#A63009"/>
</g>
<path id="Vector_49" d="M180.656 136.384C180.656 136.384 172.741 137.795 173.6 146.443C181.408 144.73 180.656 136.384 180.656 136.384Z" fill="#FFA143"/>
<path id="Vector_50" d="M186.829 147.578C186.829 147.578 180.934 142.112 174.55 148.009C180.622 153.208 186.829 147.578 186.829 147.578Z" fill="#FFA143"/>
<path id="Vector_51" d="M19.8408 154.05C19.8408 154.05 13.9455 148.583 7.56149 154.481C13.6334 159.679 19.8408 154.05 19.8408 154.05Z" fill="#FFA143"/>
</g>
</svg>
