<svg width="201" height="286" viewBox="0 0 201 286" fill="none" xmlns="http://www.w3.org/2000/svg">
<defs>
<linearGradient id="paint0_linear_926_5016" x1="-892.259" y1="482.96" x2="624.665" y2="33.3388" gradientUnits="userSpaceOnUse">
<stop stop-color="#00589F"/>
<stop offset="0.5054" stop-color="#38AAA0"/>
<stop offset="1" stop-color="#CCF86F"/>
</linearGradient>
<linearGradient id="paint1_linear_926_5016" x1="300.886" y1="0" x2="300.886" y2="307.881" gradientUnits="userSpaceOnUse">
<stop stop-color="#F4BB1B"/>
<stop offset="0.4875" stop-color="#F4BB1B"/>
<stop offset="0.669792" stop-color="#F4BB1B"/>
<stop offset="1" stop-color="#F4BB1B"/>
</linearGradient>
<linearGradient id="paint2_linear_926_5016" x1="385.389" y1="324.46" x2="384.814" y2="10.2305" gradientUnits="userSpaceOnUse">
<stop stop-color="#2D61AD"/>
<stop offset="0.1292" stop-color="#2C68B2"/>
<stop offset="0.3576" stop-color="#2A7ABF"/>
<stop offset="0.6584" stop-color="#2698D2"/>
<stop offset="1" stop-color="#29BBE7"/>
</linearGradient>
<linearGradient id="paint3_linear_926_5016" x1="-40.1859" y1="236.664" x2="934.129" y2="458.294" gradientUnits="userSpaceOnUse">
<stop stop-color="#1837D8"/>
<stop offset="0.5074" stop-color="#00C1FF"/>
<stop offset="1" stop-color="#70E6FF"/>
</linearGradient>
<linearGradient id="paint4_linear_926_5016" x1="589.576" y1="254.298" x2="161.01" y2="470.191" gradientUnits="userSpaceOnUse">
<stop stop-color="#E94531"/>
<stop offset="1" stop-color="#F09185"/>
</linearGradient>
<linearGradient id="paint5_linear_926_5016" x1="98.8208" y1="-268.224" x2="336.176" y2="910.007" gradientUnits="userSpaceOnUse">
<stop stop-color="#DD4874"/>
<stop offset="0.5269" stop-color="#F28859"/>
<stop offset="1" stop-color="#FAE65B"/>
</linearGradient>
</defs>
<g opacity="0.25">
<path fill-rule="evenodd" clip-rule="evenodd" d="M287.55 285.984C294.357 282.593 298.327 280.934 304.845 277.058C311.337 273.197 317.113 270.281 323.47 266.219C333.448 259.843 360.877 249.323 360.877 230.833C360.877 200.866 287.55 165.799 241.807 142.56C218.028 133.32 210.397 137.94 207.023 160.887C200.516 205.163 200.917 250.285 208.067 294.638C210.798 311.348 217.787 315.814 233.774 309.962C255.303 301.876 266.999 296.224 287.55 285.984Z" fill="#EC6656"/>
<path fill-rule="evenodd" clip-rule="evenodd" d="M169.473 85.9002C268.546 108.028 358.598 158.03 428.352 229.462C456.705 258.888 472.331 290.411 466.371 307.881C479.017 296.312 491.099 284.122 502.698 271.311C533.95 237.381 533.95 221.542 502.698 187.612C414.337 90.7917 294.321 25.1836 162.465 1.42488C127.588 -4.63125 107.693 8.95623 97.7853 35.743C88.5224 60.511 81.112 85.6673 75.6348 111.522C81.2731 87.1425 118.728 74.9526 169.473 85.9002Z" fill="url(#paint0_linear_926_5016)"/>
<path fill-rule="evenodd" clip-rule="evenodd" d="M169.473 85.9002C268.546 108.028 358.598 158.03 428.352 229.462C456.705 258.888 472.331 290.411 466.371 307.881C479.017 296.312 491.099 284.122 502.698 271.311C533.95 237.381 533.95 221.542 502.698 187.612C414.337 90.7917 294.321 25.1836 162.465 1.42488C127.588 -4.63125 107.693 8.95623 97.7853 35.743C88.5224 60.511 81.112 85.6673 75.6348 111.522C81.2731 87.1425 118.728 74.9526 169.473 85.9002Z" fill="url(#paint1_linear_926_5016)"/>
<path fill-rule="evenodd" clip-rule="evenodd" d="M169.473 85.9002C268.546 108.028 358.598 158.03 428.352 229.462C456.705 258.888 472.331 290.411 466.371 307.881C479.017 296.312 491.099 284.122 502.698 271.311C533.95 237.381 533.95 221.542 502.698 187.612C414.337 90.7917 294.321 25.1836 162.465 1.42488C127.588 -4.63125 107.693 8.95623 97.7853 35.743C88.5224 60.511 81.112 85.6673 75.6348 111.522C81.2731 87.1425 118.728 74.9526 169.473 85.9002Z" fill="url(#paint2_linear_926_5016)"/>
<path fill-rule="evenodd" clip-rule="evenodd" d="M431.814 232.338C356.836 297.526 229.542 359.138 129.557 373.192C129.994 423.988 158.131 451.373 193.63 443.852C300.173 419.385 431.592 348.032 509.685 273.22C530.454 253.29 535.409 228.942 514.776 201.239C502.693 185.15 487.861 171.121 472.727 157.023C482.172 177.9 466.744 203.513 431.814 232.338Z" fill="url(#paint3_linear_926_5016)"/>
<path fill-rule="evenodd" clip-rule="evenodd" d="M431.814 232.338C356.836 297.526 229.542 359.138 129.557 373.192C129.994 423.988 158.131 451.373 193.63 443.852C300.173 419.385 431.592 348.032 509.685 273.22C530.454 253.29 535.409 228.942 514.776 201.239C502.693 185.15 487.861 171.121 472.727 157.023C482.172 177.9 466.744 203.513 431.814 232.338Z" fill="#F4BB1B"/>
<path fill-rule="evenodd" clip-rule="evenodd" d="M431.814 232.338C356.836 297.526 229.542 359.138 129.557 373.192C129.994 423.988 158.131 451.373 193.63 443.852C300.173 419.385 431.592 348.032 509.685 273.22C530.454 253.29 535.409 228.942 514.776 201.239C502.693 185.15 487.861 171.121 472.727 157.023C482.172 177.9 466.744 203.513 431.814 232.338Z" fill="url(#paint4_linear_926_5016)"/>
<path fill-rule="evenodd" clip-rule="evenodd" d="M185.68 392.179C178.199 367.862 172.584 342.67 168.251 317.343C158.369 259.791 155.917 182.016 168.093 121.138C96.321 113.448 87.6372 126.905 80.3005 159.587C73.2514 190.987 74.6287 348.631 115.641 428.092C131.021 458.211 146.296 458.786 169.853 453.279C189.881 448.598 210.387 444.753 234.738 432.578C207.824 436.423 192.203 413.601 185.68 392.179Z" fill="url(#paint5_linear_926_5016)"/>
<path fill-rule="evenodd" clip-rule="evenodd" d="M185.68 392.179C178.199 367.862 172.584 342.67 168.251 317.343C158.369 259.791 155.917 182.016 168.093 121.138C96.321 113.448 87.6372 126.905 80.3005 159.587C73.2514 190.987 74.6287 348.631 115.641 428.092C131.021 458.211 146.296 458.786 169.853 453.279C189.881 448.598 210.387 444.753 234.738 432.578C207.824 436.423 192.203 413.601 185.68 392.179Z" fill="#F4BB1B"/>
</g>
</svg>
