<svg width="13" height="13" viewBox="0 0 13 13" fill="none" xmlns="http://www.w3.org/2000/svg">
<path d="M12.5938 3.25001V3.65626C12.5938 3.71013 12.5723 3.76179 12.5343 3.79989C12.4962 3.83798 12.4445 3.85938 12.3906 3.85938H11.7812V4.16407C11.7812 4.33233 11.6448 4.46876 11.4766 4.46876H1.52344C1.35517 4.46876 1.21875 4.33233 1.21875 4.16407V3.85938H0.609375C0.555503 3.85938 0.503837 3.83798 0.465744 3.79989C0.427651 3.76179 0.40625 3.71013 0.40625 3.65626V3.25001C0.40625 3.20982 0.41817 3.17054 0.440502 3.13713C0.462834 3.10372 0.494573 3.07769 0.531705 3.06232L6.42233 0.827944C6.47206 0.807352 6.52794 0.807352 6.57767 0.827944L12.4683 3.06232C12.5054 3.07769 12.5372 3.10372 12.5595 3.13713C12.5818 3.17054 12.5938 3.20982 12.5938 3.25001ZM11.9844 10.9688H1.01562C0.679072 10.9688 0.40625 11.2416 0.40625 11.5781V11.9844C0.40625 12.0383 0.427651 12.0899 0.465744 12.128C0.503837 12.1661 0.555503 12.1875 0.609375 12.1875H12.3906C12.4445 12.1875 12.4962 12.1661 12.5343 12.128C12.5723 12.0899 12.5938 12.0383 12.5938 11.9844V11.5781C12.5938 11.2416 12.3209 10.9688 11.9844 10.9688ZM2.4375 4.87501V9.75001H1.52344C1.35517 9.75001 1.21875 9.88643 1.21875 10.0547V10.5625H11.7812V10.0547C11.7812 9.88643 11.6448 9.75001 11.4766 9.75001H10.5625V4.87501H8.9375V9.75001H7.3125V4.87501H5.6875V9.75001H4.0625V4.87501H2.4375Z" fill="#BEBBB8"/>
</svg>
