<svg width="414" height="338" viewBox="0 0 414 338" fill="none" xmlns="http://www.w3.org/2000/svg">
<defs>
<filter id="filter0_f_1674_8914" x="63.8801" y="113.34" width="298.414" height="276.02" filterUnits="userSpaceOnUse" color-interpolation-filters="sRGB">
<feFlood flood-opacity="0" result="BackgroundImageFix"/>
<feBlend mode="normal" in="SourceGraphic" in2="BackgroundImageFix" result="shape"/>
<feGaussianBlur stdDeviation="48" result="effect1_foregroundBlur_1674_8914"/>
</filter>
<filter id="filter1_ddii_1674_8914" x="168.374" y="224.125" width="88.1663" height="84.1211" filterUnits="userSpaceOnUse" color-interpolation-filters="sRGB">
<feFlood flood-opacity="0" result="BackgroundImageFix"/>
<feColorMatrix in="SourceAlpha" type="matrix" values="0 0 0 0 0 0 0 0 0 0 0 0 0 0 0 0 0 0 127 0" result="hardAlpha"/>
<feOffset dy="16"/>
<feGaussianBlur stdDeviation="16"/>
<feColorMatrix type="matrix" values="0 0 0 0 0.282353 0 0 0 0 0.054902 0 0 0 0 0.301961 0 0 0 0.2 0"/>
<feBlend mode="normal" in2="BackgroundImageFix" result="effect1_dropShadow_1674_8914"/>
<feColorMatrix in="SourceAlpha" type="matrix" values="0 0 0 0 0 0 0 0 0 0 0 0 0 0 0 0 0 0 127 0" result="hardAlpha"/>
<feOffset dy="4"/>
<feGaussianBlur stdDeviation="4"/>
<feComposite in2="hardAlpha" operator="out"/>
<feColorMatrix type="matrix" values="0 0 0 0 0.282353 0 0 0 0 0.054902 0 0 0 0 0.301961 0 0 0 0.2 0"/>
<feBlend mode="normal" in2="effect1_dropShadow_1674_8914" result="effect2_dropShadow_1674_8914"/>
<feBlend mode="normal" in="SourceGraphic" in2="effect2_dropShadow_1674_8914" result="shape"/>
<feColorMatrix in="SourceAlpha" type="matrix" values="0 0 0 0 0 0 0 0 0 0 0 0 0 0 0 0 0 0 127 0" result="hardAlpha"/>
<feOffset dx="6" dy="6"/>
<feGaussianBlur stdDeviation="16"/>
<feComposite in2="hardAlpha" operator="arithmetic" k2="-1" k3="1"/>
<feColorMatrix type="matrix" values="0 0 0 0 0.76276 0 0 0 0 0.388636 0 0 0 0 0.122215 0 0 0 1 0"/>
<feBlend mode="normal" in2="shape" result="effect3_innerShadow_1674_8914"/>
<feColorMatrix in="SourceAlpha" type="matrix" values="0 0 0 0 0 0 0 0 0 0 0 0 0 0 0 0 0 0 127 0" result="hardAlpha"/>
<feOffset dx="-6" dy="-6"/>
<feGaussianBlur stdDeviation="16"/>
<feComposite in2="hardAlpha" operator="arithmetic" k2="-1" k3="1"/>
<feColorMatrix type="matrix" values="0 0 0 0 0.354427 0 0 0 0 0.180009 0 0 0 0 0.0538352 0 0 0 1 0"/>
<feBlend mode="normal" in2="effect3_innerShadow_1674_8914" result="effect4_innerShadow_1674_8914"/>
</filter>
<filter id="filter2_ddii_1674_8914" x="133.395" y="171.086" width="96.2876" height="77.4531" filterUnits="userSpaceOnUse" color-interpolation-filters="sRGB">
<feFlood flood-opacity="0" result="BackgroundImageFix"/>
<feColorMatrix in="SourceAlpha" type="matrix" values="0 0 0 0 0 0 0 0 0 0 0 0 0 0 0 0 0 0 127 0" result="hardAlpha"/>
<feOffset dy="16"/>
<feGaussianBlur stdDeviation="16"/>
<feColorMatrix type="matrix" values="0 0 0 0 0.282353 0 0 0 0 0.054902 0 0 0 0 0.301961 0 0 0 0.2 0"/>
<feBlend mode="normal" in2="BackgroundImageFix" result="effect1_dropShadow_1674_8914"/>
<feColorMatrix in="SourceAlpha" type="matrix" values="0 0 0 0 0 0 0 0 0 0 0 0 0 0 0 0 0 0 127 0" result="hardAlpha"/>
<feOffset dy="4"/>
<feGaussianBlur stdDeviation="4"/>
<feComposite in2="hardAlpha" operator="out"/>
<feColorMatrix type="matrix" values="0 0 0 0 0.282353 0 0 0 0 0.054902 0 0 0 0 0.301961 0 0 0 0.2 0"/>
<feBlend mode="normal" in2="effect1_dropShadow_1674_8914" result="effect2_dropShadow_1674_8914"/>
<feBlend mode="normal" in="SourceGraphic" in2="effect2_dropShadow_1674_8914" result="shape"/>
<feColorMatrix in="SourceAlpha" type="matrix" values="0 0 0 0 0 0 0 0 0 0 0 0 0 0 0 0 0 0 127 0" result="hardAlpha"/>
<feOffset dx="6" dy="6"/>
<feGaussianBlur stdDeviation="16"/>
<feComposite in2="hardAlpha" operator="arithmetic" k2="-1" k3="1"/>
<feColorMatrix type="matrix" values="0 0 0 0 0.76276 0 0 0 0 0.388636 0 0 0 0 0.122215 0 0 0 1 0"/>
<feBlend mode="normal" in2="shape" result="effect3_innerShadow_1674_8914"/>
<feColorMatrix in="SourceAlpha" type="matrix" values="0 0 0 0 0 0 0 0 0 0 0 0 0 0 0 0 0 0 127 0" result="hardAlpha"/>
<feOffset dx="-6" dy="-6"/>
<feGaussianBlur stdDeviation="16"/>
<feComposite in2="hardAlpha" operator="arithmetic" k2="-1" k3="1"/>
<feColorMatrix type="matrix" values="0 0 0 0 0.354427 0 0 0 0 0.180009 0 0 0 0 0.0538352 0 0 0 1 0"/>
<feBlend mode="normal" in2="effect3_innerShadow_1674_8914" result="effect4_innerShadow_1674_8914"/>
</filter>
<filter id="filter3_ddii_1674_8914" x="184.517" y="171.086" width="96.2876" height="77.4531" filterUnits="userSpaceOnUse" color-interpolation-filters="sRGB">
<feFlood flood-opacity="0" result="BackgroundImageFix"/>
<feColorMatrix in="SourceAlpha" type="matrix" values="0 0 0 0 0 0 0 0 0 0 0 0 0 0 0 0 0 0 127 0" result="hardAlpha"/>
<feOffset dy="16"/>
<feGaussianBlur stdDeviation="16"/>
<feColorMatrix type="matrix" values="0 0 0 0 0.282353 0 0 0 0 0.054902 0 0 0 0 0.301961 0 0 0 0.2 0"/>
<feBlend mode="normal" in2="BackgroundImageFix" result="effect1_dropShadow_1674_8914"/>
<feColorMatrix in="SourceAlpha" type="matrix" values="0 0 0 0 0 0 0 0 0 0 0 0 0 0 0 0 0 0 127 0" result="hardAlpha"/>
<feOffset dy="4"/>
<feGaussianBlur stdDeviation="4"/>
<feComposite in2="hardAlpha" operator="out"/>
<feColorMatrix type="matrix" values="0 0 0 0 0.282353 0 0 0 0 0.054902 0 0 0 0 0.301961 0 0 0 0.2 0"/>
<feBlend mode="normal" in2="effect1_dropShadow_1674_8914" result="effect2_dropShadow_1674_8914"/>
<feBlend mode="normal" in="SourceGraphic" in2="effect2_dropShadow_1674_8914" result="shape"/>
<feColorMatrix in="SourceAlpha" type="matrix" values="0 0 0 0 0 0 0 0 0 0 0 0 0 0 0 0 0 0 127 0" result="hardAlpha"/>
<feOffset dx="6" dy="6"/>
<feGaussianBlur stdDeviation="16"/>
<feComposite in2="hardAlpha" operator="arithmetic" k2="-1" k3="1"/>
<feColorMatrix type="matrix" values="0 0 0 0 0.76276 0 0 0 0 0.388636 0 0 0 0 0.122215 0 0 0 1 0"/>
<feBlend mode="normal" in2="shape" result="effect3_innerShadow_1674_8914"/>
<feColorMatrix in="SourceAlpha" type="matrix" values="0 0 0 0 0 0 0 0 0 0 0 0 0 0 0 0 0 0 127 0" result="hardAlpha"/>
<feOffset dx="-6" dy="-6"/>
<feGaussianBlur stdDeviation="16"/>
<feComposite in2="hardAlpha" operator="arithmetic" k2="-1" k3="1"/>
<feColorMatrix type="matrix" values="0 0 0 0 0.354427 0 0 0 0 0.180009 0 0 0 0 0.0538352 0 0 0 1 0"/>
<feBlend mode="normal" in2="effect3_innerShadow_1674_8914" result="effect4_innerShadow_1674_8914"/>
</filter>
<linearGradient id="paint0_linear_1674_8914" x1="363.388" y1="158.543" x2="356.184" y2="172.774" gradientUnits="userSpaceOnUse">
<stop stop-color="#E94531"/>
<stop offset="1" stop-color="#F09185"/>
</linearGradient>
<linearGradient id="paint1_linear_1674_8914" x1="385.292" y1="165.722" x2="372.936" y2="189.567" gradientUnits="userSpaceOnUse">
<stop stop-color="#E94531"/>
<stop offset="1" stop-color="#F09185"/>
</linearGradient>
<linearGradient id="paint2_linear_1674_8914" x1="375.631" y1="190.501" x2="372.478" y2="196.535" gradientUnits="userSpaceOnUse">
<stop stop-color="#E94531"/>
<stop offset="1" stop-color="#F09185"/>
</linearGradient>
<linearGradient id="paint3_linear_1674_8914" x1="285.174" y1="143.331" x2="333.224" y2="129.807" gradientUnits="userSpaceOnUse">
<stop stop-color="#E94531"/>
<stop offset="1" stop-color="#F09185"/>
</linearGradient>
<linearGradient id="paint4_linear_1674_8914" x1="323.371" y1="225.579" x2="330.662" y2="205.489" gradientUnits="userSpaceOnUse">
<stop stop-color="#E94531"/>
<stop offset="1" stop-color="#F09185"/>
</linearGradient>
<linearGradient id="paint5_linear_1674_8914" x1="24.766" y1="250.318" x2="38.1205" y2="241.595" gradientUnits="userSpaceOnUse">
<stop stop-color="#E94531"/>
<stop offset="1" stop-color="#F09185"/>
</linearGradient>
<linearGradient id="paint6_linear_1674_8914" x1="9.38391" y1="233.148" x2="32.0067" y2="218.676" gradientUnits="userSpaceOnUse">
<stop stop-color="#E94531"/>
<stop offset="1" stop-color="#F09185"/>
</linearGradient>
<linearGradient id="paint7_linear_1674_8914" x1="30.1422" y1="216.519" x2="35.8901" y2="212.869" gradientUnits="userSpaceOnUse">
<stop stop-color="#E94531"/>
<stop offset="1" stop-color="#F09185"/>
</linearGradient>
<linearGradient id="paint8_linear_1674_8914" x1="84.8944" y1="302.6" x2="36.5192" y2="290.286" gradientUnits="userSpaceOnUse">
<stop stop-color="#E94531"/>
<stop offset="1" stop-color="#F09185"/>
</linearGradient>
<linearGradient id="paint9_linear_1674_8914" x1="92.939" y1="212.269" x2="76.5795" y2="226.022" gradientUnits="userSpaceOnUse">
<stop stop-color="#E94531"/>
<stop offset="1" stop-color="#F09185"/>
</linearGradient>
<linearGradient id="paint10_linear_1674_8914" x1="173.467" y1="144.036" x2="143.87" y2="207.266" gradientUnits="userSpaceOnUse">
<stop stop-color="#99CC29"/>
<stop offset="0.258035" stop-color="#4DACF1"/>
<stop offset="0.482007" stop-color="#2192E3"/>
<stop offset="1" stop-color="#1073BA"/>
</linearGradient>
<radialGradient id="paint11_radial_1674_8914" cx="0" cy="0" r="1" gradientUnits="userSpaceOnUse" gradientTransform="translate(137.144 224.75) rotate(61.3895) scale(16.8567)">
<stop stop-color="#FFCE21"/>
<stop offset="1" stop-color="#E9A326"/>
</radialGradient>
<radialGradient id="paint12_radial_1674_8914" cx="0" cy="0" r="1" gradientUnits="userSpaceOnUse" gradientTransform="translate(2.69063 6.72656) rotate(61.3895) scale(16.8567 16.8567)">
<stop stop-color="#FFCE21"/>
<stop offset="1" stop-color="#E9A326"/>
</radialGradient>
<radialGradient id="paint13_radial_1674_8914" cx="0" cy="0" r="1" gradientUnits="userSpaceOnUse" gradientTransform="translate(184.23 185.737) rotate(78.559) scale(115.297 115.297)">
<stop stop-color="#FFF7D9"/>
<stop offset="0.122763" stop-color="#FFE690"/>
<stop offset="0.518601" stop-color="#FFCE22"/>
<stop offset="1" stop-color="#FFB422"/>
</radialGradient>
<radialGradient id="paint14_radial_1674_8914" cx="0" cy="0" r="1" gradientUnits="userSpaceOnUse" gradientTransform="translate(184.23 185.737) rotate(78.559) scale(115.297 115.297)">
<stop offset="0.857147" stop-color="#EDFF22" stop-opacity="0"/>
<stop offset="1" stop-color="#FF24F6" stop-opacity="0.3"/>
</radialGradient>
<clipPath id="clip0_1674_8914">
<rect width="414" height="338" fill="white"/>
</clipPath>
<clipPath id="clip1_1674_8914">
<rect width="172.2" height="172.2" fill="white" transform="translate(121 140)"/>
</clipPath>
</defs>
<g clip-path="url(#clip0_1674_8914)">
<rect width="414" height="338" fill="white"/>
<path d="M-66.8847 118.447C-84.8853 118.447 -102.983 117.134 -121 114.49L-120.935 114.004C0.0256119 131.68 116.77 90.1327 199.346 0L199.702 0.324335C179.334 22.5737 156.501 42.1636 131.819 58.5749C107.429 74.7917 81.158 87.9759 53.703 97.7384C26.2643 107.501 -2.43933 113.906 -31.5808 116.744C-43.2569 117.88 -55.0465 118.447 -66.8847 118.447Z" fill="#474747"/>
<path fill-rule="evenodd" clip-rule="evenodd" d="M83.4609 119.614C74.2822 111.036 65.3954 102.263 56.7195 93.1812C65.7846 89.8243 74.7039 86.0944 83.4447 82.0078C83.8015 94.5758 83.8014 107.063 83.4609 119.614Z" fill="#FFBB00"/>
<path d="M73.5526 95.7911C70.0011 96.3587 68.2335 96.6019 64.682 97.0722C63.6604 97.7858 63.1414 98.1425 62.1198 98.8561C63.3685 100.153 64.0009 100.802 65.282 102.083C65.7199 101.791 65.9307 101.629 66.3523 101.337C69.9362 100.851 71.7363 100.591 75.3202 100.007C78.2554 97.8506 79.6987 96.7641 82.5691 94.5586C83.0556 94.4776 83.2826 94.4289 83.7691 94.3316C83.7529 92.5153 83.7367 91.6234 83.688 89.8071C82.488 90.0342 81.888 90.1477 80.7042 90.3585C77.8824 92.564 76.4554 93.6505 73.5526 95.7911ZM78.0771 84.5205C75.3202 86.6935 73.9094 87.7638 71.0876 89.872C67.601 90.4072 65.8496 90.6504 62.363 91.1045C60.5467 92.4018 59.6224 93.0343 57.7737 94.2992C59.0062 95.6127 59.6386 96.2614 60.8873 97.5587C62.1522 96.683 62.7847 96.2452 64.0334 95.3695C67.5686 94.9154 69.32 94.6559 72.8552 94.1046C75.7256 91.9802 77.1527 90.8937 79.9582 88.7206C81.4339 88.4611 82.1637 88.3152 83.6556 88.0395C83.607 86.2394 83.5745 85.3313 83.5097 83.5312C81.3366 83.9367 80.2501 84.1475 78.0771 84.5205ZM77.5095 114.084C79.1474 115.624 79.9744 116.403 81.6285 117.927C82.0664 117.846 82.2934 117.813 82.7313 117.732C83.0556 117.505 83.2178 117.376 83.5421 117.149C83.6232 114.894 83.6394 113.775 83.688 111.521C82.6015 112.316 82.0502 112.721 80.9474 113.5C79.5852 113.743 78.9041 113.857 77.5095 114.084ZM71.866 108.651C73.4715 110.224 74.2823 111.002 75.904 112.543C77.6554 112.267 78.5311 112.121 80.2663 111.829C81.661 110.824 82.3583 110.321 83.7367 109.3C83.7691 107.046 83.7853 105.927 83.8016 103.689C81.6934 105.278 80.6393 106.056 78.4987 107.613C75.8391 108.051 74.5094 108.246 71.866 108.651ZM76.0337 101.694C72.4174 102.278 70.6173 102.553 67.0172 103.04C66.8226 103.17 66.7416 103.235 66.5469 103.364C68.0227 104.856 68.7686 105.602 70.2768 107.078C73.2769 106.64 74.785 106.413 77.8014 105.91C80.2339 104.143 81.4339 103.251 83.8178 101.435C83.8178 99.3101 83.8178 98.2398 83.8016 96.1154C83.607 96.1479 83.5097 96.1641 83.3151 96.2127C80.4285 98.4344 78.969 99.5372 76.0337 101.694Z" fill="#FF5B07"/>
<path fill-rule="evenodd" clip-rule="evenodd" d="M148.928 84.4586C138.241 77.8259 127.814 70.95 117.516 63.7173C125.819 58.6577 133.895 53.2413 141.744 47.4844C144.501 59.7767 146.868 72.0528 148.928 84.4586Z" fill="#FFBB00"/>
<path d="M129.679 72.1813C136.133 70.1056 139.376 68.9866 145.814 66.5703C145.474 64.7865 145.295 63.8946 144.939 62.1269C136.976 65.1433 132.987 66.5055 124.992 68.9866C126.857 70.2677 127.798 70.9002 129.679 72.1813ZM129.695 55.9321C124.879 59.1431 122.446 60.6999 117.516 63.7162C117.808 63.927 117.938 64.0243 118.23 64.2189C126.792 61.5756 135.16 58.7376 143.593 55.6565C143.22 53.8888 143.025 53.0131 142.62 51.2617C137.463 53.2564 134.868 54.1807 129.695 55.9321ZM141.436 79.8194C143.982 78.9275 145.263 78.4734 147.809 77.5329C147.501 75.7328 147.355 74.8409 147.031 73.057C142.879 74.5976 140.787 75.3436 136.619 76.7382C138.533 77.9869 139.49 78.6032 141.436 79.8194Z" fill="#FF5B07"/>
<path fill-rule="evenodd" clip-rule="evenodd" d="M116.997 103.659C107.024 96.005 97.3262 88.1399 87.7908 79.9504C96.4992 75.7341 105.045 71.1447 113.365 66.2148C114.938 78.6855 116.138 91.1238 116.997 103.659Z" fill="#00B1B1"/>
<path d="M89.8015 78.961C98.4126 81.653 106.943 84.0693 115.667 86.3072C115.489 84.3612 115.392 83.3882 115.181 81.4422C107.186 79.5124 103.245 78.4258 95.5585 76.0582C93.2719 77.242 92.1205 77.8258 89.8015 78.961ZM106.829 95.8264C110.721 96.8805 112.683 97.3832 116.656 98.3238C116.527 96.3616 116.446 95.3886 116.3 93.4263C108.726 91.6101 105.013 90.6046 97.6991 88.3991C101.299 91.4155 103.132 92.8912 106.829 95.8264ZM109.521 68.4688C107.283 69.7499 106.148 70.3985 103.894 71.631C108.062 72.7824 110.17 73.3338 114.419 74.3716C114.192 72.4419 114.078 71.4688 113.819 69.5391C112.083 69.1174 111.224 68.9066 109.521 68.4688Z" fill="#00B8D4"/>
<path fill-rule="evenodd" clip-rule="evenodd" d="M48.5949 132.264C40.292 122.842 32.2971 113.242 24.5293 103.366C33.8701 100.901 43.0975 98.0469 52.2113 94.8359C51.3518 107.355 50.1518 119.794 48.5949 132.264Z" fill="#00B1B1"/>
<path d="M42.7569 125.649C45.3678 126.151 46.6652 126.378 49.3085 126.833C49.4544 125.633 49.5355 125.016 49.6653 123.816C45.5949 123.119 43.5678 122.746 39.5622 121.935C40.8271 123.427 41.4596 124.157 42.7569 125.649ZM36.1243 117.848C41.6218 119.016 44.411 119.551 50.0382 120.508C50.1031 119.908 50.1355 119.6 50.2004 119C43.8759 117.93 40.746 117.313 34.5675 115.967C35.1837 116.73 35.508 117.103 36.1243 117.848ZM31.2106 111.848C38.8163 113.6 42.6921 114.378 50.541 115.708C50.6707 114.508 50.7194 113.908 50.8329 112.692C43.2434 111.427 35.6378 109.87 28.1781 108.037C29.3781 109.578 29.9781 110.324 31.2106 111.848ZM24.5293 103.367C24.6915 103.562 24.7563 103.675 24.9185 103.87C33.6593 105.962 42.3029 107.778 51.141 109.4C51.1896 108.8 51.2221 108.491 51.2707 107.891C43.0488 106.529 34.7945 104.81 26.7023 102.767C25.8266 103.026 25.405 103.14 24.5293 103.367ZM39.0271 99.1992C36.6756 99.929 35.508 100.286 33.1566 100.967C40.3893 102.621 44.0705 103.351 51.5302 104.616C51.6275 103.416 51.6761 102.816 51.7572 101.616C46.6165 100.74 44.0705 100.27 39.0271 99.1992Z" fill="#00B8D4"/>
<path fill-rule="evenodd" clip-rule="evenodd" d="M177.437 60.1951C166.669 55.2814 156.128 50.1083 145.652 44.5946C153.469 38.7079 161.042 32.4807 168.34 25.9453C171.696 37.297 174.713 48.6812 177.437 60.1951Z" fill="#00B1B1"/>
<path d="M164.042 53.9999C168.274 51.8106 170.383 50.6592 174.583 48.3078C174.437 47.7564 174.372 47.4807 174.226 46.9131C169.556 49.5402 167.204 50.8052 162.485 53.2377C163.118 53.5458 163.426 53.6917 164.042 53.9999ZM159.112 51.5673C164.885 48.6483 167.756 47.1077 173.448 43.8806C173.156 42.7779 173.01 42.2265 172.718 41.1238C166.101 44.886 162.761 46.6699 156.031 50.0267C157.263 50.643 157.88 50.9673 159.112 51.5673ZM170.593 57.0972C172.767 55.9296 173.853 55.3458 176.026 54.1458C175.75 53.0268 175.621 52.4755 175.345 51.3565C172.199 53.1079 170.626 53.9674 167.464 55.6377C168.712 56.2215 169.345 56.5134 170.593 57.0972ZM152.69 48.3078C160.442 44.4968 164.285 42.4535 171.891 38.1074C171.745 37.5561 171.664 37.2804 171.502 36.729C164.869 40.5562 158.042 44.1887 151.166 47.5132C151.766 47.8375 152.074 47.9997 152.69 48.3078ZM148.652 42.3076C147.452 43.2319 146.852 43.686 145.652 44.5941C146.528 45.0644 146.966 45.3077 147.841 45.7617C155.577 42.0805 163.247 38.0426 170.658 33.7289C170.35 32.6262 170.188 32.091 169.864 30.9883C162.972 35.0263 155.852 38.8372 148.652 42.3076Z" fill="#00B8D4"/>
<path fill-rule="evenodd" clip-rule="evenodd" d="M207 36.713C195.162 32.3507 183.534 27.6964 171.972 22.653C179.253 15.9555 186.243 8.94988 192.924 1.65234C197.951 13.2311 202.622 24.8747 207 36.713Z" fill="#FFBB00"/>
<path d="M199.167 30.3894C198.827 31.0705 199.07 31.8327 199.719 32.0921C200.367 32.3516 201.162 32.011 201.503 31.3137C201.843 30.6326 201.6 29.8704 200.951 29.611C200.303 29.3677 199.508 29.7083 199.167 30.3894ZM196.913 25.9946C196.589 26.6757 196.832 27.4217 197.481 27.6812C198.113 27.9406 198.908 27.6001 199.249 26.919C199.589 26.2379 199.33 25.4919 198.681 25.2324C198.032 24.973 197.238 25.3135 196.913 25.9946ZM194.935 21.3729C194.611 22.0377 194.87 22.7999 195.502 23.0594C196.151 23.3189 196.93 22.9783 197.254 22.2972C197.578 21.6161 197.319 20.8701 196.67 20.6107C196.038 20.3674 195.259 20.708 194.935 21.3729ZM202.751 25.8973C202.832 25.9298 202.914 25.9298 202.995 25.9298C202.703 25.1838 202.557 24.8108 202.265 24.0648C202.232 24.1135 202.184 24.1459 202.168 24.2108C201.843 24.8919 202.119 25.6541 202.751 25.8973ZM189.729 23.0432C189.405 23.7081 189.648 24.454 190.281 24.7297C190.913 24.9892 191.708 24.6649 192.032 24C192.356 23.3351 192.113 22.5729 191.464 22.3134C190.832 22.054 190.054 22.3783 189.729 23.0432ZM190.054 19.3944C190.378 18.7295 190.102 17.9836 189.47 17.7241C188.837 17.4646 188.059 17.789 187.751 18.4376C187.427 19.1025 187.686 19.8485 188.318 20.108C188.967 20.3836 189.746 20.0593 190.054 19.3944ZM187.751 15.0483C188.059 14.3997 187.8 13.6537 187.151 13.378C186.518 13.1185 185.756 13.4267 185.448 14.0915C185.14 14.7402 185.399 15.4862 186.032 15.7619C186.681 16.0213 187.443 15.7132 187.751 15.0483ZM192.616 17.0268C192.308 17.6917 192.567 18.4376 193.2 18.6971C193.832 18.9566 194.611 18.616 194.935 17.9511C195.243 17.2862 194.984 16.5403 194.335 16.2808C193.702 16.0376 192.924 16.3619 192.616 17.0268ZM195.389 10.9941C195.097 11.659 195.373 12.405 196.005 12.6482C196.524 12.8428 197.124 12.6482 197.497 12.1942C197.157 11.3671 196.978 10.9617 196.638 10.1346C196.102 10.1671 195.616 10.4752 195.389 10.9941ZM197.773 15.2916C197.465 15.9727 197.74 16.7187 198.373 16.9619C198.713 17.0916 199.086 17.043 199.411 16.8808C199.038 15.9565 198.843 15.5024 198.47 14.578C198.178 14.724 197.935 14.9672 197.773 15.2916ZM193.248 6.46967C192.956 7.13455 193.248 7.86431 193.881 8.12377C194.481 8.35081 195.146 8.05891 195.486 7.49132C195.178 6.76157 195.016 6.4048 194.692 5.67504C194.108 5.57774 193.508 5.88587 193.248 6.46967ZM194.011 31.8813C194.902 32.2219 195.357 32.4002 196.248 32.7408C196.394 32.157 196.167 31.5732 195.616 31.3462C195.065 31.1191 194.4 31.3624 194.011 31.8813ZM190.491 9.09678C190.783 8.43189 190.508 7.70214 189.859 7.44267C189.227 7.19942 188.464 7.52376 188.173 8.17243C187.881 8.8211 188.156 9.56706 188.789 9.82653C189.437 10.086 190.2 9.74545 190.491 9.09678ZM192.875 13.3942C193.183 12.7293 192.908 11.9834 192.259 11.7401C191.61 11.4806 190.864 11.8212 190.556 12.4861C190.248 13.151 190.524 13.8969 191.156 14.1402C191.805 14.3834 192.567 14.0591 192.875 13.3942ZM185.708 10.5076C185.886 10.1184 185.837 9.6968 185.659 9.37247C184.962 10.086 184.621 10.4428 183.924 11.1401C183.956 11.1563 183.989 11.1887 184.021 11.205C184.653 11.4644 185.399 11.1563 185.708 10.5076ZM191.092 3.64795C191.189 3.72903 191.302 3.81012 191.432 3.85877C192.065 4.10202 192.827 3.76147 193.102 3.09658C193.313 2.59386 193.2 2.05871 192.859 1.73438C192.162 2.49656 191.805 2.88576 191.092 3.64795ZM193.719 26.7082C193.086 26.4487 192.292 26.773 191.951 27.4379C191.61 28.1028 191.854 28.865 192.502 29.1245C193.135 29.3839 193.929 29.0596 194.27 28.3947C194.611 27.7298 194.351 26.9676 193.719 26.7082ZM201.357 34.6706C202.232 34.9949 202.67 35.1571 203.546 35.4814C203.595 34.9625 203.351 34.476 202.865 34.2814C202.362 34.0706 201.762 34.249 201.357 34.6706ZM204.73 30.5353H204.746C204.503 29.8867 204.389 29.5623 204.146 28.9299C203.87 29.5948 204.114 30.2921 204.73 30.5353ZM172.637 22.5891C172.588 22.6864 172.572 22.7999 172.54 22.9135C173.399 23.3027 173.837 23.4973 174.713 23.8702C174.777 23.8054 174.842 23.7405 174.891 23.6432C175.215 23.0108 174.988 22.2486 174.356 21.9567C173.74 21.681 172.961 21.9567 172.637 22.5891ZM177.826 17.87C177.956 17.6106 177.972 17.3187 177.924 17.0592C177.291 17.6592 176.983 17.9673 176.35 18.5674C176.918 18.6971 177.534 18.4214 177.826 17.87ZM199.849 19.8647C199.524 20.5458 199.8 21.2918 200.432 21.535C200.708 21.6323 201 21.6161 201.276 21.5188C200.919 20.6107 200.74 20.1566 200.367 19.2485C200.157 19.4106 199.962 19.6052 199.849 19.8647ZM179.642 25.8487C179.626 25.8973 179.626 25.946 179.61 25.9946C180.518 26.3838 180.956 26.5784 181.864 26.9514C181.88 26.9352 181.897 26.919 181.913 26.8866C182.253 26.2379 182.01 25.4757 181.378 25.2C180.745 24.9243 179.967 25.2162 179.642 25.8487ZM182.934 16.3943C183.243 15.7456 182.983 14.9997 182.351 14.724C181.718 14.4483 180.956 14.7564 180.648 15.4051C180.34 16.0538 180.583 16.7997 181.216 17.0754C181.848 17.3511 182.61 17.043 182.934 16.3943ZM186.567 23.6919C185.935 23.4162 185.156 23.7243 184.832 24.373C184.508 25.0216 184.751 25.7838 185.367 26.0595C185.999 26.3352 186.778 26.0271 187.118 25.3622C187.443 24.7135 187.199 23.9675 186.567 23.6919ZM184.897 20.9837C185.221 20.335 184.962 19.589 184.329 19.3133C183.697 19.0376 182.934 19.3458 182.61 19.9944C182.286 20.6431 182.545 21.3891 183.162 21.6648C183.794 21.9404 184.572 21.6485 184.897 20.9837ZM179.48 20.5782C178.848 20.3026 178.086 20.5945 177.761 21.2269C177.437 21.8756 177.68 22.6216 178.296 22.9135C178.929 23.2054 179.691 22.9135 180.015 22.2648C180.356 21.6161 180.113 20.8539 179.48 20.5782ZM186.745 28.9785C187.654 29.3515 188.124 29.5299 189.032 29.9029C189.291 29.2704 189.064 28.5893 188.464 28.3298C187.848 28.0542 187.102 28.3623 186.745 28.9785Z" fill="#FF5B07"/>
<path fill-rule="evenodd" clip-rule="evenodd" d="M12.626 141.476C5.26356 131.292 -1.77452 120.978 -8.56934 110.404C0.982331 108.848 10.4691 106.902 19.8586 104.566C17.7829 116.956 15.3828 129.216 12.626 141.476Z" fill="#FFBB00"/>
<path d="M0.949876 124.984C1.17691 125.308 1.29043 125.486 1.51746 125.811C4.35539 124.27 5.76625 123.492 8.55554 121.902C11.7827 122.34 13.3881 122.551 16.6477 122.908C16.7288 122.519 16.7612 122.324 16.8423 121.935C13.4368 121.546 11.734 121.335 8.36093 120.881C5.4257 122.551 3.93376 123.362 0.949876 124.984ZM4.61487 130.319C4.8419 130.643 4.95542 130.805 5.18245 131.146C7.09603 130.108 8.05282 129.573 9.93396 128.519C12.0908 128.795 13.1773 128.941 15.3666 129.184C15.4477 128.795 15.4963 128.6 15.5774 128.211C13.2422 127.935 12.0746 127.805 9.75557 127.497C7.71226 128.616 6.67439 129.184 4.61487 130.319ZM14.0206 108.816C10.7772 108.41 9.17177 108.199 5.97707 107.713C5.66895 107.778 5.523 107.81 5.21488 107.875C2.4256 109.513 1.01474 110.307 -1.83941 111.881C-4.46652 111.426 -5.76386 111.199 -8.37476 110.697C-8.08285 111.151 -7.9369 111.378 -7.66121 111.848C-5.27735 112.302 -4.07732 112.513 -1.67724 112.918C1.33908 111.264 2.8148 110.405 5.76625 108.686C9.13934 109.189 10.8259 109.416 14.2314 109.837C16.372 108.524 17.4423 107.859 19.5505 106.513C19.6316 105.994 19.6802 105.734 19.7613 105.199C17.4747 106.675 16.3396 107.388 14.0206 108.816ZM10.2583 138.249C10.5015 138.573 10.6151 138.735 10.8583 139.06C11.3286 138.8 11.5556 138.671 12.0259 138.411C12.5448 138.476 12.7881 138.508 13.307 138.573C13.4043 138.184 13.4368 137.989 13.5341 137.6C12.853 137.519 12.5124 137.487 11.8313 137.389C11.1989 137.73 10.8907 137.892 10.2583 138.249ZM2.76615 127.659C2.99319 127.984 3.10671 128.146 3.33374 128.486C5.7176 127.189 6.90143 126.54 9.23664 125.211C11.9286 125.567 13.2908 125.746 15.999 126.054C16.0801 125.665 16.1125 125.47 16.1936 125.081C13.3233 124.757 11.88 124.578 9.02582 124.189C6.56087 125.584 5.29597 126.281 2.76615 127.659ZM7.64739 117.573C4.63108 119.308 3.09049 120.167 0.00930595 121.838C-0.525846 121.757 -0.785311 121.708 -1.30425 121.627C-0.996129 122.081 -0.850185 122.308 -0.542068 122.762C-0.250166 122.811 -0.104215 122.827 0.187686 122.875C3.28509 121.205 4.82568 120.346 7.85822 118.594C11.3124 119.081 13.0638 119.292 16.5504 119.697C16.8747 119.502 17.0207 119.405 17.345 119.21C17.4423 118.692 17.491 118.432 17.5883 117.897C17.0855 118.205 16.8423 118.351 16.3234 118.659C12.8368 118.27 11.1016 118.059 7.64739 117.573ZM6.9663 114.264C3.9662 116 2.45804 116.859 -0.606928 118.529C-1.8394 118.319 -2.45564 118.221 -3.70433 118.01C-3.41243 118.465 -3.26648 118.692 -2.95836 119.146C-1.95292 119.324 -1.4502 119.405 -0.444761 119.567C2.6202 117.897 4.14458 117.037 7.14468 115.302C10.5826 115.789 12.3016 116.016 15.772 116.421C16.7126 115.854 17.1828 115.562 18.1072 114.994C18.2045 114.475 18.2532 114.216 18.3342 113.681C17.2153 114.378 16.6639 114.718 15.545 115.4C12.107 114.978 10.388 114.751 6.9663 114.264ZM6.26897 110.956C3.3013 112.691 1.80937 113.535 -1.22316 115.205C-3.15296 114.881 -4.12597 114.718 -6.05576 114.362C-5.76386 114.816 -5.61791 115.043 -5.32601 115.497C-3.62325 115.805 -2.76375 115.951 -1.061 116.243C1.97154 114.573 3.47969 113.729 6.44736 111.994C9.85287 112.497 11.5556 112.724 14.9936 113.129C16.5342 112.189 17.3126 111.702 18.837 110.745C18.918 110.226 18.9667 109.967 19.064 109.432C17.3612 110.502 16.5017 111.037 14.7828 112.091C11.361 111.686 9.65827 111.459 6.26897 110.956ZM8.36093 135.606C8.58797 135.93 8.7177 136.092 8.94473 136.416C9.90152 135.898 10.388 135.622 11.3286 135.103C12.3989 135.233 12.9341 135.298 14.0206 135.427C14.1017 135.038 14.1503 134.843 14.2314 134.454C12.9827 134.308 12.3665 134.227 11.134 134.081C10.0313 134.697 9.47989 135.006 8.36093 135.606ZM6.47979 132.962C6.70683 133.287 6.82034 133.449 7.06359 133.773C8.50688 132.995 9.22042 132.589 10.6313 131.795C12.253 132.006 13.0638 132.103 14.7017 132.297C14.7828 131.908 14.8314 131.714 14.9125 131.324C13.1124 131.114 12.2205 131 10.4367 130.773C8.86365 131.665 8.06903 132.103 6.47979 132.962Z" fill="#FF5B07"/>
<path d="M515.04 39.4416L515.151 39.7912C493.807 46.6897 471.841 50.9704 449.858 52.5224C428.13 54.0573 406.301 52.9317 384.965 49.1627C363.639 45.4021 342.73 39.0067 322.836 30.1298C302.711 21.1591 283.534 9.62171 265.831 -4.15836L266.053 -4.4483C337.793 51.3968 428.54 67.394 515.04 39.4416Z" fill="#474747"/>
<path fill-rule="evenodd" clip-rule="evenodd" d="M396.17 74.2305C393.39 65.3109 390.866 56.3744 388.581 47.3184C395.675 48.4781 402.804 49.3479 409.967 49.9107C405.593 58.1566 401.013 66.2319 396.17 74.2305Z" fill="#FFBB00"/>
<path d="M398.524 55.1814C396.017 54.2434 394.78 53.7573 392.316 52.7596C391.395 52.8449 390.926 52.8876 390.005 52.9728C390.337 54.2775 390.508 54.9256 390.866 56.2217C391.258 56.1876 391.446 56.1705 391.838 56.1364C394.328 57.1426 395.599 57.6287 398.131 58.5752C400.817 58.2597 402.148 58.0892 404.817 57.7054C405.158 57.8248 405.337 57.8845 405.678 58.0039C406.326 56.8272 406.65 56.2302 407.281 55.0535C406.428 54.7635 405.993 54.6186 405.141 54.3116C402.497 54.6868 401.176 54.8659 398.524 55.1814ZM405.576 49.5619C402.992 49.9456 401.696 50.1332 399.086 50.4573C396.631 49.5193 395.411 49.0332 392.989 48.0441C391.335 48.2146 390.508 48.2914 388.845 48.4193C389.161 49.7239 389.331 50.372 389.655 51.6681C390.798 51.5658 391.361 51.5147 392.495 51.4038C394.942 52.4015 396.179 52.8875 398.669 53.8255C401.303 53.51 402.625 53.331 405.243 52.9472C406.292 53.3139 406.821 53.5015 407.878 53.8597C408.509 52.6829 408.825 52.0774 409.447 50.8922C407.895 50.3805 407.128 50.1077 405.576 49.5619ZM394.362 68.4669C394.857 70.07 395.104 70.863 395.616 72.4661C395.931 72.577 396.093 72.6367 396.4 72.7561C396.699 72.7305 396.844 72.7049 397.142 72.6793C398.012 71.2468 398.455 70.5305 399.308 69.0979C398.31 69.2087 397.807 69.2684 396.81 69.3793C395.829 69.0126 395.334 68.825 394.362 68.4669ZM392.708 62.873C393.168 64.4761 393.407 65.2777 393.885 66.8808C395.113 67.3413 395.735 67.5715 396.972 68.0234C398.251 67.887 398.882 67.8188 400.152 67.6568C400.997 66.2157 401.423 65.4994 402.259 64.0497C400.314 64.3056 399.342 64.4249 397.389 64.6381C395.496 63.9389 394.567 63.5893 392.708 62.873ZM397.944 59.9055C395.394 58.959 394.132 58.4644 391.617 57.4667C391.446 57.4837 391.361 57.4837 391.19 57.5008C391.608 59.0101 391.813 59.7605 392.239 61.2784C394.345 62.1055 395.394 62.5063 397.526 63.2908C399.752 63.0435 400.852 62.8986 403.06 62.6172C403.845 61.2357 404.237 60.5536 404.996 59.1636C404.859 59.1124 404.791 59.0954 404.655 59.0442C401.994 59.4194 400.647 59.59 397.944 59.9055Z" fill="#FF5B07"/>
<path fill-rule="evenodd" clip-rule="evenodd" d="M267.69 25.2938C269.327 16.0502 271.212 6.91754 273.36 -2.20664C279.21 2.2446 285.247 6.44002 291.447 10.3711C283.653 15.5898 275.765 20.5441 267.69 25.2938Z" fill="#00B1B1"/>
<path d="M270.879 8.56365C274.145 12.5288 275.833 14.4901 279.304 18.3189C280.446 17.6026 281.018 17.2359 282.152 16.5111C277.846 11.7784 275.765 9.35669 271.783 4.4194C271.416 6.08221 271.228 6.90083 270.879 8.56365ZM282.22 4.23181C278.63 1.73332 276.865 0.445682 273.36 -2.2063C273.292 -1.95048 273.266 -1.82257 273.207 -1.57528C277.453 3.69457 281.768 8.79388 286.271 13.842C287.388 13.1002 287.95 12.725 289.067 11.9831C286.253 8.93032 284.889 7.37837 282.22 4.23181ZM268.832 18.8134C270.171 20.3569 270.845 21.1328 272.209 22.6507C273.377 21.96 273.957 21.6018 275.117 20.9026C272.883 18.4126 271.783 17.1591 269.634 14.618C269.301 16.2979 269.139 17.1421 268.832 18.8134Z" fill="#00B8D4"/>
<path fill-rule="evenodd" clip-rule="evenodd" d="M423.722 76.2188C420.081 67.6147 416.695 58.9596 413.549 50.1679C420.737 50.6369 427.934 50.8075 435.14 50.6796C431.558 59.3092 427.764 67.7938 423.722 76.2188Z" fill="#00B1B1"/>
<path d="M415.203 50.2682C419.782 55.1714 424.404 59.8614 429.239 64.5088C429.836 63.1785 430.134 62.5219 430.714 61.1917C426.254 57.0048 424.106 54.8729 419.995 50.507C418.077 50.4302 417.122 50.3791 415.203 50.2682ZM420.021 67.4166C422.153 69.5313 423.244 70.5716 425.453 72.6438C426.084 71.3306 426.391 70.6654 427.013 69.3437C422.784 65.3871 420.754 63.3746 416.832 59.2645C418.077 62.539 418.708 64.1762 420.021 67.4166ZM431.814 50.7116C429.896 50.7202 428.924 50.7202 427.005 50.6946C429.273 52.9799 430.433 54.1055 432.812 56.3311C433.375 55.0008 433.656 54.3272 434.193 52.9884C433.23 52.076 432.752 51.6326 431.814 50.7116Z" fill="#00B8D4"/>
<path fill-rule="evenodd" clip-rule="evenodd" d="M292.402 38.5436C292.88 29.7605 293.587 21.0371 294.534 12.2967C300.733 16.1084 307.094 19.6557 313.592 22.9302C306.66 28.345 299.616 33.5296 292.402 38.5436Z" fill="#FFBB00"/>
<path d="M293.05 27.5935C295.727 29.93 297.083 31.0811 299.855 33.3409C300.204 33.0936 300.375 32.9742 300.716 32.7184C297.638 30.2028 296.12 28.9237 293.152 26.3144C293.11 26.8175 293.084 27.0819 293.05 27.5935ZM293.382 23.5089C296.989 26.7237 298.84 28.2842 302.6 31.3455C303.291 30.8424 303.632 30.5866 304.306 30.0835C299.923 26.5361 297.774 24.7113 293.613 20.9593C293.51 21.9826 293.468 22.4857 293.382 23.5089ZM292.683 32.9742C294.082 34.168 294.789 34.7564 296.196 35.9246C296.896 35.4301 297.245 35.1828 297.936 34.6967C295.872 33.0083 294.849 32.1385 292.837 30.399C292.786 31.4222 292.743 31.9424 292.683 32.9742ZM293.886 18.1794C298.652 22.5198 301.117 24.626 306.165 28.702C306.506 28.4462 306.668 28.3183 307.009 28.0625C302.558 24.5152 298.2 20.7717 294.022 16.9174C293.962 17.4205 293.937 17.6678 293.886 18.1794ZM296.947 13.7537C295.975 13.1739 295.497 12.884 294.534 12.2956C294.448 13.0289 294.406 13.3956 294.32 14.1289C298.976 18.4779 303.854 22.6903 308.851 26.647C309.525 26.1268 309.849 25.871 310.522 25.3508C305.858 21.6756 301.313 17.7786 296.947 13.7537Z" fill="#FF5B07"/>
<path fill-rule="evenodd" clip-rule="evenodd" d="M368.985 69.5938C367.075 60.4525 365.429 51.3028 364.031 42.0762C370.972 43.9181 377.99 45.4616 385.059 46.7151C379.909 54.509 374.562 62.1068 368.985 69.5938Z" fill="#00B1B1"/>
<path d="M367.63 63.1732C369.13 64.4523 369.898 65.0833 371.424 66.3368C371.961 65.612 372.234 65.2539 372.763 64.5205C370.392 62.5763 369.216 61.5871 366.922 59.6003C367.212 61.0329 367.348 61.7492 367.63 63.1732ZM366.214 55.7033C369.343 58.4747 370.947 59.8561 374.238 62.5337C374.502 62.167 374.63 61.9879 374.895 61.6212C371.194 58.6026 369.395 57.0592 365.898 53.9211C366.026 54.6289 366.095 54.987 366.214 55.7033ZM365.233 50.0156C369.506 53.9467 371.731 55.8653 376.319 59.6173C376.839 58.8755 377.095 58.5173 377.615 57.7754C373.172 54.1684 368.832 50.3738 364.671 46.4512C364.892 47.8668 365.003 48.5916 365.233 50.0156ZM364.031 42.0767C364.065 42.2643 364.074 42.3581 364.099 42.5543C368.985 47.1164 373.906 51.4738 379.022 55.7715C379.278 55.3963 379.406 55.2173 379.653 54.8506C374.835 50.9536 370.128 46.8094 365.651 42.5202C365.003 42.3326 364.679 42.2473 364.031 42.0767ZM374.937 44.7117C373.155 44.3279 372.268 44.1233 370.495 43.6969C374.562 47.4234 376.677 49.2482 381.034 52.8041C381.537 52.0622 381.785 51.6955 382.279 50.9451C379.278 48.4892 377.811 47.2443 374.937 44.7117Z" fill="#00B8D4"/>
<path fill-rule="evenodd" clip-rule="evenodd" d="M316.449 52.5354C316.321 43.181 316.44 33.8862 316.816 24.5404C323.313 27.6954 329.948 30.5947 336.684 33.2041C330.11 39.8468 323.399 46.2678 316.449 52.5354Z" fill="#00B1B1"/>
<path d="M318.726 45.3983C318.171 45.3556 317.711 45.7308 317.711 46.2425C317.711 46.7541 318.154 47.2146 318.709 47.2572C319.263 47.2999 319.723 46.9247 319.723 46.413C319.715 45.8929 319.271 45.4494 318.726 45.3983ZM321.13 42.6354C320.576 42.5928 320.133 42.968 320.124 43.4882C320.124 43.9998 320.559 44.4518 321.113 44.4944C321.668 44.537 322.119 44.1533 322.119 43.6417C322.119 43.13 321.685 42.6781 321.13 42.6354ZM323.774 40.009C323.228 39.9749 322.785 40.3501 322.776 40.8703C322.768 41.3905 323.202 41.8254 323.757 41.868C324.302 41.9021 324.754 41.5184 324.754 41.0067C324.746 40.4866 324.311 40.0517 323.774 40.009ZM322.725 46.6347C322.725 46.7029 322.75 46.7626 322.768 46.8138C323.202 46.413 323.424 46.2084 323.85 45.7991C323.808 45.7905 323.774 45.7735 323.723 45.7735C323.177 45.7394 322.725 46.1231 322.725 46.6347ZM321.258 36.8795C320.721 36.8369 320.261 37.2121 320.252 37.7323C320.235 38.2439 320.67 38.6959 321.207 38.7385C321.744 38.7811 322.196 38.3974 322.213 37.8858C322.222 37.3656 321.795 36.9222 321.258 36.8795ZM323.842 36.1036C324.379 36.1462 324.823 35.7539 324.84 35.2423C324.857 34.7307 324.43 34.2872 323.902 34.2531C323.364 34.2105 322.921 34.6028 322.912 35.1059C322.878 35.6175 323.305 36.078 323.842 36.1036ZM326.213 33.3237C326.741 33.3578 327.185 32.9655 327.193 32.4624C327.21 31.9508 326.792 31.5159 326.264 31.4818C325.735 31.4477 325.3 31.8314 325.283 32.343C325.257 32.8461 325.684 33.2896 326.213 33.3237ZM326.127 37.2121C325.59 37.1865 325.147 37.5617 325.138 38.0819C325.13 38.585 325.564 39.037 326.102 39.0625C326.639 39.0881 327.074 38.7044 327.091 38.1927C327.099 37.6896 326.664 37.2547 326.127 37.2121ZM330.979 37.4594C330.442 37.4338 330.007 37.8346 330.007 38.3462C330.007 38.7555 330.297 39.1137 330.698 39.2416C331.167 38.7726 331.406 38.5509 331.875 38.0819C331.73 37.7323 331.389 37.4765 330.979 37.4594ZM328.668 40.299C328.131 40.2734 327.688 40.6657 327.688 41.1773C327.688 41.4502 327.807 41.6889 328.003 41.868C328.532 41.3564 328.805 41.1005 329.325 40.5804C329.154 40.4098 328.924 40.299 328.668 40.299ZM333.495 34.7392C332.966 34.7222 332.531 35.1229 332.54 35.626C332.54 36.1036 332.915 36.4788 333.384 36.5555C333.802 36.1377 334.006 35.933 334.416 35.5067C334.331 35.0973 333.964 34.7648 333.495 34.7392ZM316.338 42.2603C316.338 42.9765 316.338 43.3347 316.338 44.051C316.773 43.9913 317.114 43.6672 317.122 43.2323C317.131 42.7804 316.79 42.3882 316.338 42.2603ZM330.996 33.571C331.525 33.588 331.951 33.1958 331.96 32.6927C331.96 32.181 331.551 31.7547 331.022 31.7376C330.502 31.712 330.067 32.1128 330.058 32.6159C330.041 33.1105 330.468 33.5539 330.996 33.571ZM328.685 36.3935C329.223 36.4191 329.649 36.0268 329.658 35.5237C329.658 35.0121 329.24 34.5772 328.703 34.5516C328.174 34.5175 327.739 34.9183 327.73 35.4214C327.73 35.933 328.148 36.3679 328.685 36.3935ZM328.788 30.6632C329.103 30.6717 329.376 30.5353 329.547 30.3135C328.873 30.0321 328.549 29.8957 327.884 29.6058C327.884 29.6399 327.867 29.6569 327.867 29.6911C327.841 30.1942 328.259 30.6291 328.788 30.6632ZM334.868 32.4795C334.834 32.5647 334.808 32.6585 334.808 32.7609C334.808 33.2725 335.234 33.6989 335.755 33.7074C336.147 33.7245 336.479 33.4942 336.624 33.1616C335.925 32.9058 335.567 32.7694 334.868 32.4795ZM319.8 40.6401C319.817 40.1284 319.382 39.6765 318.836 39.6253C318.291 39.5742 317.83 39.9494 317.822 40.4695C317.805 40.9812 318.24 41.4331 318.785 41.4843C319.34 41.5269 319.792 41.1432 319.8 40.6401ZM316.364 48.0844C316.372 48.7751 316.381 49.1247 316.389 49.8154C316.764 49.7131 317.02 49.4061 317.02 49.0138C317.029 48.6131 316.756 48.2549 316.364 48.0844ZM320.073 49.2697C320.081 49.2782 320.081 49.2782 320.073 49.2697C320.457 48.9371 320.644 48.7665 321.019 48.4255C320.499 48.4169 320.073 48.7751 320.073 49.2697ZM317.046 24.9755C316.952 24.9669 316.884 24.984 316.798 25.0011C316.764 25.7003 316.747 26.0584 316.713 26.7577C316.781 26.7747 316.841 26.8174 316.909 26.8174C317.429 26.877 317.89 26.5019 317.924 25.9902C317.967 25.4871 317.574 25.0266 317.046 24.9755ZM321.659 27.2523C321.881 27.2693 322.068 27.2011 322.239 27.0988C321.659 26.8259 321.369 26.7065 320.789 26.4336C320.857 26.86 321.207 27.2096 321.659 27.2523ZM326.085 42.968C325.539 42.9339 325.095 43.3262 325.095 43.8378C325.095 44.0595 325.189 44.2556 325.317 44.4176C325.846 43.9231 326.102 43.6673 326.63 43.1727C326.477 43.0703 326.289 42.9851 326.085 42.968ZM316.662 30.6973C316.628 30.6973 316.585 30.7058 316.551 30.7058C316.526 31.4306 316.517 31.7973 316.491 32.5221C316.509 32.5221 316.526 32.5392 316.543 32.5392C317.071 32.5903 317.532 32.2151 317.557 31.712C317.6 31.2089 317.199 30.757 316.662 30.6973ZM324.021 30.3647C324.55 30.3988 324.985 30.0151 325.01 29.512C325.027 29.0003 324.626 28.5655 324.098 28.5314C323.569 28.4972 323.126 28.8724 323.109 29.3841C323.083 29.8872 323.492 30.3306 324.021 30.3647ZM319.979 34.8842C319.996 34.3725 319.578 33.9206 319.05 33.8694C318.512 33.8268 318.06 34.1935 318.043 34.7051C318.026 35.2167 318.444 35.6687 318.973 35.7198C319.519 35.771 319.962 35.3958 319.979 34.8842ZM321.395 32.9741C321.932 33.0167 322.375 32.6415 322.392 32.1298C322.409 31.6182 322 31.1748 321.463 31.1322C320.926 31.0895 320.482 31.4647 320.465 31.9764C320.448 32.488 320.866 32.9399 321.395 32.9741ZM320.243 29.1453C320.269 28.6422 319.868 28.1902 319.34 28.1391C318.811 28.0879 318.367 28.4631 318.333 28.9748C318.299 29.4864 318.717 29.9384 319.237 29.981C319.766 30.0322 320.218 29.6484 320.243 29.1453ZM316.406 36.4617C316.389 37.1951 316.381 37.5617 316.381 38.2951C316.884 38.3036 317.302 37.954 317.31 37.4679C317.336 36.9648 316.926 36.5214 316.406 36.4617Z" fill="#00B8D4"/>
<path fill-rule="evenodd" clip-rule="evenodd" d="M342.346 62.3438C341.323 53.049 340.564 43.7969 340.053 34.4681C346.798 36.9666 353.645 39.1922 360.578 41.1279C354.685 48.3846 348.631 55.4281 342.346 62.3438Z" fill="#FFBB00"/>
<path d="M340.854 47.3967C340.88 47.6952 340.888 47.8401 340.914 48.1386C343.318 48.1897 344.512 48.2068 346.9 48.1897C348.827 49.6564 349.791 50.3812 351.76 51.8053C351.957 51.5751 352.05 51.4642 352.238 51.2425C350.174 49.7417 349.16 48.9828 347.147 47.4479C344.64 47.4649 343.378 47.4479 340.854 47.3967ZM341.263 52.189C341.289 52.4875 341.297 52.6324 341.332 52.9224C342.952 52.9565 343.762 52.965 345.365 52.965C346.661 53.9371 347.318 54.4232 348.631 55.3953C348.827 55.165 348.929 55.0627 349.117 54.841C347.71 53.8092 347.002 53.289 345.612 52.2402C343.881 52.2317 343.011 52.2146 341.263 52.189ZM355.24 41.7431C353.295 40.2935 352.34 39.5601 350.43 38.0764C350.208 38.0082 350.098 37.9655 349.876 37.8973C347.471 37.9314 346.26 37.9314 343.847 37.9058C342.321 36.6523 341.553 36.0213 340.061 34.7508C340.087 35.1515 340.087 35.3562 340.112 35.757C341.485 36.9252 342.184 37.5051 343.583 38.6477C346.141 38.6818 347.412 38.6733 349.944 38.6477C351.94 40.2167 352.946 40.9842 354.992 42.502C356.86 42.4424 357.789 42.3997 359.648 42.2974C359.887 41.9904 360.023 41.8369 360.262 41.5299C358.258 41.6237 357.261 41.6664 355.24 41.7431ZM341.997 59.386C342.031 59.676 342.048 59.8295 342.073 60.1279C342.474 60.1364 342.679 60.1364 343.071 60.1364C343.378 60.3581 343.532 60.4775 343.847 60.7078C344.052 60.4861 344.146 60.3752 344.35 60.1535C343.941 59.8465 343.728 59.7016 343.318 59.3946C342.798 59.4031 342.534 59.3946 341.997 59.386ZM341.05 49.7929C341.076 50.0913 341.084 50.2363 341.11 50.5347C343.122 50.5688 344.129 50.5859 346.124 50.5859C347.736 51.8053 348.546 52.4107 350.191 53.6131C350.388 53.3828 350.481 53.272 350.677 53.0588C348.938 51.7968 348.077 51.1572 346.371 49.8611C344.256 49.844 343.191 49.8355 341.05 49.7929ZM347.906 45.0688C345.314 45.0858 344.009 45.0773 341.4 45.0261C341.084 44.7788 340.939 44.6509 340.624 44.4036C340.649 44.8044 340.666 45.0091 340.692 45.4098C340.863 45.5463 340.948 45.6145 341.127 45.7595C343.753 45.8106 345.058 45.8192 347.659 45.8106C349.722 47.3967 350.763 48.1812 352.878 49.7161C353.159 49.7076 353.295 49.7076 353.56 49.6991C353.816 49.3921 353.943 49.2471 354.199 48.9401C353.764 48.9487 353.543 48.9657 353.108 48.9743C351.002 47.4308 349.961 46.6463 347.906 45.0688ZM348.665 42.6726C346.09 42.6897 344.794 42.6897 342.21 42.647C341.485 42.0586 341.127 41.7687 340.402 41.1803C340.428 41.5811 340.445 41.7858 340.47 42.1865C341.059 42.6726 341.357 42.9028 341.946 43.3889C344.546 43.4315 345.834 43.44 348.418 43.4145C350.456 44.992 351.488 45.768 353.585 47.3029C354.395 47.2773 354.813 47.2688 355.615 47.2347C355.871 46.9277 355.99 46.7742 356.246 46.4672C355.274 46.5013 354.788 46.5269 353.807 46.5525C351.735 45.0261 350.703 44.2502 348.665 42.6726ZM349.433 40.285C346.883 40.3106 345.604 40.3105 343.029 40.2764C341.903 39.3555 341.332 38.8865 340.215 37.957C340.24 38.3578 340.249 38.5539 340.266 38.9632C341.255 39.7819 341.749 40.1912 342.756 41.0098C345.331 41.0439 346.619 41.0524 349.177 41.0183C351.189 42.5873 352.221 43.3633 354.293 44.8897C355.632 44.8471 356.305 44.8215 357.644 44.7618C357.9 44.4548 358.019 44.3013 358.267 44.0029C356.766 44.0711 356.016 44.1052 354.515 44.1563C352.468 42.6214 351.445 41.854 349.433 40.285ZM341.741 56.9813C341.766 57.2798 341.792 57.4248 341.818 57.7232C342.628 57.7318 343.029 57.7403 343.839 57.7488C344.487 58.2263 344.811 58.4651 345.459 58.9426C345.663 58.7209 345.757 58.6101 345.962 58.3883C345.211 57.8426 344.845 57.5612 344.103 57.0069C343.148 57.0069 342.687 57.0069 341.741 56.9813ZM341.494 54.5852C341.519 54.8836 341.545 55.0286 341.57 55.3271C342.79 55.3526 343.395 55.3612 344.606 55.3612C345.578 56.0945 346.073 56.4527 347.053 57.1775C347.258 56.9558 347.352 56.8449 347.556 56.6232C346.474 55.8302 345.936 55.4294 344.862 54.6278C343.506 54.6193 342.832 54.6108 341.494 54.5852Z" fill="#FF5B07"/>
<path d="M355.701 171.013L355.701 171.013C357.985 168.433 359.552 165.601 361.204 162.618C361.486 162.109 361.77 161.595 362.06 161.078L355.701 171.013ZM355.701 171.013C355.361 171.397 354.773 171.434 354.39 171.094L354.388 171.092C354.004 170.755 353.967 170.168 354.306 169.785L354.306 169.785M355.701 171.013L354.306 169.785M354.306 169.785C356.508 167.296 358.02 164.549 359.547 161.776M354.306 169.785L359.547 161.776M361.704 159.814C361.257 159.563 360.689 159.722 360.437 160.169L361.704 159.814ZM361.704 159.814C362.152 160.067 362.311 160.632 362.06 161.078L361.704 159.814ZM359.547 161.776C359.842 161.241 360.137 160.705 360.437 160.17L359.547 161.776Z" fill="#FF4040"/>
<path d="M355.701 171.013L355.701 171.013C357.985 168.433 359.552 165.601 361.204 162.618C361.486 162.109 361.77 161.595 362.06 161.078L355.701 171.013ZM355.701 171.013C355.361 171.397 354.773 171.434 354.39 171.094L354.388 171.092C354.004 170.755 353.967 170.168 354.306 169.785L354.306 169.785M355.701 171.013L354.306 169.785M354.306 169.785C356.508 167.296 358.02 164.549 359.547 161.776M354.306 169.785L359.547 161.776M361.704 159.814C361.257 159.563 360.689 159.722 360.437 160.169L361.704 159.814ZM361.704 159.814C362.152 160.067 362.311 160.632 362.06 161.078L361.704 159.814ZM359.547 161.776C359.842 161.241 360.137 160.705 360.437 160.17L359.547 161.776Z" fill="url(#paint0_linear_1674_8914)"/>
<path d="M355.701 171.013L355.701 171.013C357.985 168.433 359.552 165.601 361.204 162.618C361.486 162.109 361.77 161.595 362.06 161.078L355.701 171.013ZM355.701 171.013C355.361 171.397 354.773 171.434 354.39 171.094L354.388 171.092C354.004 170.755 353.967 170.168 354.306 169.785L354.306 169.785M355.701 171.013L354.306 169.785M354.306 169.785C356.508 167.296 358.02 164.549 359.547 161.776M354.306 169.785L359.547 161.776M361.704 159.814C361.257 159.563 360.689 159.722 360.437 160.169L361.704 159.814ZM361.704 159.814C362.152 160.067 362.311 160.632 362.06 161.078L361.704 159.814ZM359.547 161.776C359.842 161.241 360.137 160.705 360.437 160.17L359.547 161.776Z" stroke="#FF4040"/>
<path d="M359.758 181.573L359.758 181.573C359.263 181.704 358.753 181.406 358.621 180.911C358.49 180.418 358.784 179.911 359.28 179.78C367.762 177.559 376.699 173.664 384.045 168.847L384.045 168.847C384.472 168.566 385.05 168.685 385.334 169.114C385.616 169.54 385.498 170.115 385.07 170.396C377.568 175.316 368.431 179.3 359.758 181.573Z" fill="#FF4040"/>
<path d="M359.758 181.573L359.758 181.573C359.263 181.704 358.753 181.406 358.621 180.911C358.49 180.418 358.784 179.911 359.28 179.78C367.762 177.559 376.699 173.664 384.045 168.847L384.045 168.847C384.472 168.566 385.05 168.685 385.334 169.114C385.616 169.54 385.498 170.115 385.07 170.396C377.568 175.316 368.431 179.3 359.758 181.573Z" fill="url(#paint1_linear_1674_8914)"/>
<path d="M359.758 181.573L359.758 181.573C359.263 181.704 358.753 181.406 358.621 180.911C358.49 180.418 358.784 179.911 359.28 179.78C367.762 177.559 376.699 173.664 384.045 168.847L384.045 168.847C384.472 168.566 385.05 168.685 385.334 169.114C385.616 169.54 385.498 170.115 385.07 170.396C377.568 175.316 368.431 179.3 359.758 181.573Z" stroke="#FF4040"/>
<path d="M376.651 192.906L376.651 192.907C376.617 193.41 376.176 193.797 375.661 193.763C369.668 193.335 363.424 191.946 358.603 188.314C358.193 188.005 358.113 187.421 358.419 187.016L358.419 187.016C358.725 186.61 359.309 186.527 359.719 186.837L359.719 186.837C364.328 190.309 370.26 191.521 375.787 191.913C376.301 191.951 376.687 192.396 376.651 192.906Z" fill="#FF4040"/>
<path d="M376.651 192.906L376.651 192.907C376.617 193.41 376.176 193.797 375.661 193.763C369.668 193.335 363.424 191.946 358.603 188.314C358.193 188.005 358.113 187.421 358.419 187.016L358.419 187.016C358.725 186.61 359.309 186.527 359.719 186.837L359.719 186.837C364.328 190.309 370.26 191.521 375.787 191.913C376.301 191.951 376.687 192.396 376.651 192.906Z" fill="url(#paint2_linear_1674_8914)"/>
<path d="M376.651 192.906L376.651 192.907C376.617 193.41 376.176 193.797 375.661 193.763C369.668 193.335 363.424 191.946 358.603 188.314C358.193 188.005 358.113 187.421 358.419 187.016L358.419 187.016C358.725 186.61 359.309 186.527 359.719 186.837L359.719 186.837C364.328 190.309 370.26 191.521 375.787 191.913C376.301 191.951 376.687 192.396 376.651 192.906Z" stroke="#FF4040"/>
<circle cx="355.225" cy="198.459" r="4.28866" transform="rotate(20.0218 355.225 198.459)" fill="#F4BB1B"/>
<circle cx="336.819" cy="144.584" r="4.28866" transform="rotate(20.0218 336.819 144.584)" fill="#F4BB1B"/>
<path d="M338.095 165.182C338.272 163.616 336.224 162.869 335.351 164.183L334.222 165.884C333.91 166.353 333.362 166.608 332.802 166.545L330.773 166.316C329.206 166.138 328.46 168.187 329.773 169.059L331.474 170.189C331.943 170.5 332.199 171.049 332.135 171.608L331.906 173.637C331.729 175.204 333.777 175.95 334.649 174.637L335.779 172.936C336.091 172.467 336.639 172.211 337.199 172.275L339.228 172.504C340.794 172.681 341.541 170.633 340.228 169.761L338.527 168.631C338.057 168.319 337.802 167.771 337.865 167.211L338.095 165.182Z" fill="#28ADDE"/>
<path fill-rule="evenodd" clip-rule="evenodd" d="M332.212 127.931C332.242 129.114 331.306 130.098 330.122 130.128C326.743 130.213 321.591 132.577 317.363 136.315C314.146 139.161 311.905 142.402 311.23 145.477C313.028 144.22 314.948 143.351 316.915 143.06C320.44 142.538 323.737 143.931 326.181 147.332C328.317 150.304 328.472 153.481 327.165 156.115C325.915 158.633 323.449 160.422 320.734 161.121C317.978 161.831 314.796 161.462 312.113 159.437C310.592 158.289 309.32 156.677 308.378 154.59C304.912 159.648 302.417 166.656 302.533 173.7C302.553 174.884 301.609 175.86 300.425 175.88C299.24 175.899 298.265 174.955 298.245 173.771C298.092 164.48 301.89 155.318 306.909 149.465C306.884 149.308 306.861 149.149 306.838 148.989C306.002 142.953 309.929 137.165 314.522 133.103C319.151 129.009 325.236 125.961 330.014 125.841C331.198 125.811 332.182 126.747 332.212 127.931ZM311.559 150.768C312.293 153.484 313.491 155.104 314.697 156.014C316.215 157.16 318.018 157.392 319.664 156.968C321.351 156.534 322.704 155.456 323.323 154.208C323.885 153.076 323.96 151.589 322.699 149.835C321.101 147.612 319.333 147.037 317.543 147.302C315.758 147.567 313.666 148.718 311.559 150.768Z" fill="#FF4040"/>
<path fill-rule="evenodd" clip-rule="evenodd" d="M332.212 127.931C332.242 129.114 331.306 130.098 330.122 130.128C326.743 130.213 321.591 132.577 317.363 136.315C314.146 139.161 311.905 142.402 311.23 145.477C313.028 144.22 314.948 143.351 316.915 143.06C320.44 142.538 323.737 143.931 326.181 147.332C328.317 150.304 328.472 153.481 327.165 156.115C325.915 158.633 323.449 160.422 320.734 161.121C317.978 161.831 314.796 161.462 312.113 159.437C310.592 158.289 309.32 156.677 308.378 154.59C304.912 159.648 302.417 166.656 302.533 173.7C302.553 174.884 301.609 175.86 300.425 175.88C299.24 175.899 298.265 174.955 298.245 173.771C298.092 164.48 301.89 155.318 306.909 149.465C306.884 149.308 306.861 149.149 306.838 148.989C306.002 142.953 309.929 137.165 314.522 133.103C319.151 129.009 325.236 125.961 330.014 125.841C331.198 125.811 332.182 126.747 332.212 127.931ZM311.559 150.768C312.293 153.484 313.491 155.104 314.697 156.014C316.215 157.16 318.018 157.392 319.664 156.968C321.351 156.534 322.704 155.456 323.323 154.208C323.885 153.076 323.96 151.589 322.699 149.835C321.101 147.612 319.333 147.037 317.543 147.302C315.758 147.567 313.666 148.718 311.559 150.768Z" fill="url(#paint3_linear_1674_8914)"/>
<path fill-rule="evenodd" clip-rule="evenodd" d="M368.537 230.424C350.279 214.879 330.561 218.75 323.323 222.366C321.557 223.249 319.411 222.532 318.529 220.767C317.646 219.001 318.363 216.855 320.128 215.972C329.32 211.38 352.253 207.173 373.17 224.982C374.673 226.261 374.854 228.517 373.575 230.02C372.295 231.523 370.04 231.704 368.537 230.424Z" fill="#FF4040"/>
<path fill-rule="evenodd" clip-rule="evenodd" d="M368.537 230.424C350.279 214.879 330.561 218.75 323.323 222.366C321.557 223.249 319.411 222.532 318.529 220.767C317.646 219.001 318.363 216.855 320.128 215.972C329.32 211.38 352.253 207.173 373.17 224.982C374.673 226.261 374.854 228.517 373.575 230.02C372.295 231.523 370.04 231.704 368.537 230.424Z" fill="url(#paint4_linear_1674_8914)"/>
<path fill-rule="evenodd" clip-rule="evenodd" d="M344.481 229.652C345.015 229.651 345.594 229.603 346.098 229.41C346.696 229.181 347.066 228.741 347.384 228.251C347.794 227.622 348.124 226.914 348.568 226.296C348.733 226.067 348.906 226.02 348.98 225.999C349.169 225.945 349.33 225.971 349.468 226.034C349.632 226.107 349.839 226.257 349.885 226.602C349.892 226.651 349.897 226.725 349.885 226.818C349.875 226.887 349.812 227.089 349.797 227.176C349.76 227.391 349.717 227.603 349.672 227.816C349.522 228.526 349.368 229.118 349.444 229.848C349.548 230.838 349.771 231.503 350.244 231.933C350.703 232.35 351.361 232.543 352.247 232.67C352.332 232.679 352.416 232.691 352.497 232.705C352.884 232.772 353.141 233.143 353.077 233.54C353.013 233.937 352.651 234.215 352.262 234.165C352.181 234.155 352.101 234.144 352.022 234.132C350.808 234.01 349.153 234.55 348.084 235.161C347.754 235.35 347.139 235.989 346.617 236.349C346.233 236.615 345.861 236.747 345.591 236.743C345.41 236.741 345.278 236.683 345.176 236.614C345.029 236.514 344.927 236.374 344.876 236.192C344.848 236.093 344.834 235.969 344.858 235.825C344.87 235.756 344.929 235.59 344.956 235.516C344.976 235.242 344.979 234.969 345.007 234.696C345.076 234.045 344.921 233.56 344.755 232.934C344.6 232.348 344.358 231.927 343.931 231.506C343.87 231.465 343.382 231.134 343.22 230.987C342.984 230.772 342.922 230.533 342.911 230.413C342.893 230.209 342.94 230.054 343.003 229.933C343.095 229.754 343.235 229.624 343.428 229.547C343.547 229.5 343.71 229.471 343.904 229.498C344.053 229.519 344.428 229.636 344.481 229.652ZM347.989 229.828C347.993 229.895 347.999 229.962 348.006 230.03C348.158 231.48 348.578 232.413 349.272 233.044L349.296 233.064C348.598 233.282 347.935 233.567 347.394 233.876C347.172 234.003 346.827 234.309 346.462 234.62C346.506 233.871 346.349 233.274 346.152 232.525C346 231.954 345.793 231.49 345.486 231.062C345.864 231.01 346.238 230.924 346.585 230.791C347.162 230.57 347.613 230.235 347.989 229.828Z" fill="#28ADDE"/>
<path d="M37.6584 243.361L37.6581 243.361C34.3897 244.454 31.6169 246.123 28.6946 247.881C28.1962 248.181 27.6936 248.483 27.1833 248.786L37.6584 243.361ZM37.6584 243.361C38.1442 243.199 38.6722 243.462 38.8338 243.947L38.8348 243.95C38.999 244.434 38.7376 244.96 38.2525 245.123L38.2524 245.123M37.6584 243.361L38.2524 245.123M38.2524 245.123C35.1008 246.177 32.4175 247.8 29.7085 249.438M38.2524 245.123L29.7085 249.438M26.8601 250.059C27.1212 250.5 27.6923 250.646 28.1343 250.384L26.8601 250.059ZM26.8601 250.059C26.5979 249.616 26.7432 249.047 27.1833 248.786L26.8601 250.059ZM29.7085 249.438C29.186 249.754 28.6625 250.071 28.1345 250.384L29.7085 249.438Z" fill="#FF4040"/>
<path d="M37.6584 243.361L37.6581 243.361C34.3897 244.454 31.6169 246.123 28.6946 247.881C28.1962 248.181 27.6936 248.483 27.1833 248.786L37.6584 243.361ZM37.6584 243.361C38.1442 243.199 38.6722 243.462 38.8338 243.947L38.8348 243.95C38.999 244.434 38.7376 244.96 38.2525 245.123L38.2524 245.123M37.6584 243.361L38.2524 245.123M38.2524 245.123C35.1008 246.177 32.4175 247.8 29.7085 249.438M38.2524 245.123L29.7085 249.438M26.8601 250.059C27.1212 250.5 27.6923 250.646 28.1343 250.384L26.8601 250.059ZM26.8601 250.059C26.5979 249.616 26.7432 249.047 27.1833 248.786L26.8601 250.059ZM29.7085 249.438C29.186 249.754 28.6625 250.071 28.1345 250.384L29.7085 249.438Z" fill="url(#paint5_linear_1674_8914)"/>
<path d="M37.6584 243.361L37.6581 243.361C34.3897 244.454 31.6169 246.123 28.6946 247.881C28.1962 248.181 27.6936 248.483 27.1833 248.786L37.6584 243.361ZM37.6584 243.361C38.1442 243.199 38.6722 243.462 38.8338 243.947L38.8348 243.95C38.999 244.434 38.7376 244.96 38.2525 245.123L38.2524 245.123M37.6584 243.361L38.2524 245.123M38.2524 245.123C35.1008 246.177 32.4175 247.8 29.7085 249.438M38.2524 245.123L29.7085 249.438M26.8601 250.059C27.1212 250.5 27.6923 250.646 28.1343 250.384L26.8601 250.059ZM26.8601 250.059C26.5979 249.616 26.7432 249.047 27.1833 248.786L26.8601 250.059ZM29.7085 249.438C29.186 249.754 28.6625 250.071 28.1345 250.384L29.7085 249.438Z" stroke="#FF4040"/>
<path d="M39.4223 232.188L39.4229 232.188C39.9167 232.322 40.2096 232.835 40.076 233.33C39.9433 233.822 39.435 234.114 38.9397 233.98C30.4839 231.662 20.7971 230.567 12.0262 231.066L12.0258 231.066C11.516 231.095 11.0751 230.703 11.0437 230.189C11.0126 229.68 11.4023 229.241 11.9133 229.211C20.8696 228.702 30.7754 229.82 39.4223 232.188Z" fill="#FF4040"/>
<path d="M39.4223 232.188L39.4229 232.188C39.9167 232.322 40.2096 232.835 40.076 233.33C39.9433 233.822 39.435 234.114 38.9397 233.98C30.4839 231.662 20.7971 230.567 12.0262 231.066L12.0258 231.066C11.516 231.095 11.0751 230.703 11.0437 230.189C11.0126 229.68 11.4023 229.241 11.9133 229.211C20.8696 228.702 30.7754 229.82 39.4223 232.188Z" fill="url(#paint6_linear_1674_8914)"/>
<path d="M39.4223 232.188L39.4229 232.188C39.9167 232.322 40.2096 232.835 40.076 233.33C39.9433 233.822 39.435 234.114 38.9397 233.98C30.4839 231.662 20.7971 230.567 12.0262 231.066L12.0258 231.066C11.516 231.095 11.0751 230.703 11.0437 230.189C11.0126 229.68 11.4023 229.241 11.9133 229.211C20.8696 228.702 30.7754 229.82 39.4223 232.188Z" stroke="#FF4040"/>
<path d="M30.4611 213.925L30.4616 213.925C30.7429 213.506 31.3181 213.391 31.7472 213.679C36.7231 217.045 41.4369 221.37 43.7956 226.926C43.996 227.399 43.7737 227.945 43.3061 228.142L43.3059 228.142C42.8379 228.341 42.291 228.121 42.0902 227.647L42.0901 227.647C39.8346 222.336 35.3036 218.321 30.7126 215.217C30.2872 214.928 30.1754 214.349 30.4611 213.925Z" fill="#FF4040"/>
<path d="M30.4611 213.925L30.4616 213.925C30.7429 213.506 31.3181 213.391 31.7472 213.679C36.7231 217.045 41.4369 221.37 43.7956 226.926C43.996 227.399 43.7737 227.945 43.3061 228.142L43.3059 228.142C42.8379 228.341 42.291 228.121 42.0902 227.647L42.0901 227.647C39.8346 222.336 35.3036 218.321 30.7126 215.217C30.2872 214.928 30.1754 214.349 30.4611 213.925Z" fill="url(#paint7_linear_1674_8914)"/>
<path d="M30.4611 213.925L30.4616 213.925C30.7429 213.506 31.3181 213.391 31.7472 213.679C36.7231 217.045 41.4369 221.37 43.7956 226.926C43.996 227.399 43.7737 227.945 43.3061 228.142L43.3059 228.142C42.8379 228.341 42.291 228.121 42.0902 227.647L42.0901 227.647C39.8346 222.336 35.3036 218.321 30.7126 215.217C30.2872 214.928 30.1754 214.349 30.4611 213.925Z" stroke="#FF4040"/>
<circle cx="51.7921" cy="219.833" r="4.28866" transform="rotate(-129.978 51.7921 219.833)" fill="#F4BB1B"/>
<circle cx="40.7956" cy="275.689" r="4.28866" transform="rotate(-129.978 40.7956 275.689)" fill="#F4BB1B"/>
<path d="M49.9892 257.215C49.0525 258.483 50.4531 260.154 51.8651 259.452L53.6941 258.544C54.1987 258.294 54.8011 258.347 55.2542 258.681L56.8968 259.895C58.1649 260.831 59.8353 259.431 59.1341 258.019L58.2259 256.19C57.9754 255.685 58.0283 255.083 58.363 254.63L59.5763 252.987C60.5129 251.719 59.1124 250.049 57.7004 250.75L55.8714 251.658C55.3668 251.908 54.7644 251.856 54.3112 251.521L52.6687 250.308C51.4006 249.371 49.7302 250.771 50.4313 252.183L51.3395 254.012C51.5901 254.517 51.5372 255.119 51.2024 255.573L49.9892 257.215Z" fill="#28ADDE"/>
<path fill-rule="evenodd" clip-rule="evenodd" d="M36.4581 292.418C37.0242 291.378 38.3263 290.993 39.3666 291.559C42.3357 293.175 47.9794 293.704 53.5094 292.581C57.7188 291.725 61.2799 290.038 63.4024 287.713C61.2167 287.903 59.119 287.695 57.2704 286.964C53.9567 285.653 51.7978 282.798 51.3814 278.631C51.0176 274.989 52.4724 272.16 54.9212 270.533C57.2626 268.978 60.2926 268.661 62.9938 269.413C65.7354 270.177 68.3062 272.087 69.6169 275.182C70.36 276.937 70.6559 278.969 70.4281 281.247C75.9587 278.6 81.6237 273.778 85.0452 267.62C85.6204 266.584 86.9258 266.211 87.9611 266.786C88.9963 267.362 89.3694 268.667 88.7942 269.702C84.2818 277.825 76.4109 283.86 69.1384 286.42C69.0813 286.568 69.0222 286.717 68.9613 286.867C66.6671 292.513 60.3726 295.562 54.3636 296.783C48.3082 298.014 41.5142 297.611 37.3165 295.326C36.2763 294.76 35.892 293.458 36.4581 292.418ZM65.762 282.967C66.4845 280.248 66.2569 278.246 65.6678 276.854C64.926 275.103 63.4804 274 61.8432 273.544C60.1657 273.077 58.4548 273.334 57.2945 274.105C56.2417 274.805 55.4341 276.055 55.6489 278.204C55.921 280.929 57.1651 282.311 58.8477 282.976C60.5255 283.64 62.9126 283.688 65.762 282.967Z" fill="#FF4040"/>
<path fill-rule="evenodd" clip-rule="evenodd" d="M36.4581 292.418C37.0242 291.378 38.3263 290.993 39.3666 291.559C42.3357 293.175 47.9794 293.704 53.5094 292.581C57.7188 291.725 61.2799 290.038 63.4024 287.713C61.2167 287.903 59.119 287.695 57.2704 286.964C53.9567 285.653 51.7978 282.798 51.3814 278.631C51.0176 274.989 52.4724 272.16 54.9212 270.533C57.2626 268.978 60.2926 268.661 62.9938 269.413C65.7354 270.177 68.3062 272.087 69.6169 275.182C70.36 276.937 70.6559 278.969 70.4281 281.247C75.9587 278.6 81.6237 273.778 85.0452 267.62C85.6204 266.584 86.9258 266.211 87.9611 266.786C88.9963 267.362 89.3694 268.667 88.7942 269.702C84.2818 277.825 76.4109 283.86 69.1384 286.42C69.0813 286.568 69.0222 286.717 68.9613 286.867C66.6671 292.513 60.3726 295.562 54.3636 296.783C48.3082 298.014 41.5142 297.611 37.3165 295.326C36.2763 294.76 35.892 293.458 36.4581 292.418ZM65.762 282.967C66.4845 280.248 66.2569 278.246 65.6678 276.854C64.926 275.103 63.4804 274 61.8432 273.544C60.1657 273.077 58.4548 273.334 57.2945 274.105C56.2417 274.805 55.4341 276.055 55.6489 278.204C55.921 280.929 57.1651 282.311 58.8477 282.976C60.5255 283.64 62.9126 283.688 65.762 282.967Z" fill="url(#paint8_linear_1674_8914)"/>
<path fill-rule="evenodd" clip-rule="evenodd" d="M56.2466 185.49C64.2861 208.081 83.2981 214.588 91.3741 215.075C93.3444 215.194 94.8452 216.888 94.7263 218.858C94.6074 220.828 92.9139 222.329 90.9437 222.21C80.6876 221.591 58.7229 213.768 49.5126 187.887C48.8508 186.027 49.8218 183.983 51.6814 183.321C53.5409 182.66 55.5849 183.631 56.2466 185.49Z" fill="#FF4040"/>
<path fill-rule="evenodd" clip-rule="evenodd" d="M56.2466 185.49C64.2861 208.081 83.2981 214.588 91.3741 215.075C93.3444 215.194 94.8452 216.888 94.7263 218.858C94.6074 220.828 92.9139 222.329 90.9437 222.21C80.6876 221.591 58.7229 213.768 49.5126 187.887C48.8508 186.027 49.8218 183.983 51.6814 183.321C53.5409 182.66 55.5849 183.631 56.2466 185.49Z" fill="url(#paint9_linear_1674_8914)"/>
<path fill-rule="evenodd" clip-rule="evenodd" d="M76.6947 198.19C76.2317 197.923 75.7055 197.676 75.1732 197.591C74.5409 197.49 74.0004 197.687 73.4795 197.951C72.8104 198.291 72.1701 198.74 71.4769 199.053C71.2196 199.169 71.0468 199.123 70.9714 199.104C70.7811 199.056 70.6543 198.953 70.5661 198.83C70.4613 198.684 70.3567 198.451 70.4891 198.129C70.5081 198.083 70.5404 198.017 70.598 197.942C70.6403 197.887 70.796 197.744 70.8528 197.676C70.9921 197.509 71.1355 197.346 71.2811 197.184C71.7658 196.645 72.1953 196.208 72.4941 195.539C72.8998 194.629 73.0388 193.942 72.8439 193.332C72.6555 192.742 72.1814 192.246 71.478 191.693C71.4086 191.643 71.342 191.591 71.2784 191.538C70.9773 191.286 70.9398 190.836 71.1939 190.524C71.4477 190.213 71.9002 190.153 72.2125 190.391C72.2776 190.44 72.3414 190.49 72.4034 190.539C73.3941 191.252 75.0971 191.612 76.3292 191.617C76.709 191.619 77.5611 191.373 78.1928 191.322C78.6589 191.284 79.0468 191.355 79.2788 191.493C79.4345 191.586 79.5201 191.702 79.5734 191.813C79.6509 191.974 79.6694 192.146 79.6228 192.328C79.5971 192.428 79.5468 192.543 79.454 192.655C79.4092 192.709 79.2758 192.823 79.2148 192.874C79.0605 193.101 78.9217 193.336 78.7604 193.558C78.3756 194.088 78.2675 194.586 78.0981 195.211C77.9394 195.796 77.9389 196.281 78.098 196.859C78.1299 196.925 78.3872 197.456 78.4537 197.664C78.5505 197.968 78.4854 198.206 78.4345 198.315C78.3481 198.501 78.2297 198.612 78.1151 198.686C77.9458 198.794 77.7591 198.837 77.5543 198.807C77.4272 198.789 77.2716 198.733 77.1175 198.612C76.9982 198.519 76.7321 198.23 76.6947 198.19ZM73.7443 196.283C73.7738 196.223 73.8024 196.163 73.8304 196.1C74.4246 194.768 74.5266 193.751 74.2409 192.857L74.231 192.827C74.9438 192.988 75.6612 193.072 76.2832 193.075C76.5393 193.076 76.9913 192.983 77.4625 192.897C77.0502 193.523 76.8871 194.119 76.6843 194.866C76.5298 195.437 76.4776 195.942 76.5292 196.467C76.1759 196.322 75.8092 196.21 75.4424 196.151C74.8316 196.054 74.2732 196.119 73.7443 196.283Z" fill="#28ADDE"/>
<g clip-path="url(#clip1_1674_8914)">
<path d="M205.755 173.633C176.696 174.709 156.875 197.4 150.597 208.611L143.738 154.884C143.206 150.719 147.437 147.576 151.271 149.289L205.755 173.633Z" fill="url(#paint10_linear_1674_8914)"/>
<path fill-rule="evenodd" clip-rule="evenodd" d="M149.703 155.995C150.528 154.759 152.198 154.425 153.435 155.249L189.758 179.465C190.994 180.289 191.329 181.959 190.504 183.196C189.68 184.432 188.009 184.766 186.773 183.942L150.45 159.727C149.213 158.902 148.879 157.232 149.703 155.995Z" fill="#69C0FF"/>
<ellipse cx="145.216" cy="228.786" rx="10.7625" ry="10.7625" fill="url(#paint11_radial_1674_8914)"/>
<ellipse cx="10.7625" cy="10.7625" rx="10.7625" ry="10.7625" transform="matrix(-1 0 0 1 279.747 218.023)" fill="url(#paint12_radial_1674_8914)"/>
<ellipse cx="207.1" cy="234.169" rx="64.575" ry="64.575" fill="url(#paint13_radial_1674_8914)"/>
<ellipse cx="207.1" cy="234.169" rx="64.575" ry="64.575" fill="url(#paint14_radial_1674_8914)"/>
<g filter="url(#filter0_f_1674_8914)">
<path d="M203.065 287.98C236.499 287.98 263.604 260.876 263.604 227.441C263.604 221.136 262.64 215.056 260.851 209.34C264.344 216.89 266.294 225.301 266.294 234.168C266.294 266.859 239.792 293.361 207.1 293.361C187.817 293.361 170.688 284.141 159.88 269.869C170.864 281.047 186.155 287.98 203.065 287.98Z" fill="#C1092A" fill-opacity="0.8"/>
</g>
<path fill-rule="evenodd" clip-rule="evenodd" d="M269.676 222.008C275.18 225.822 277.425 233.196 274.123 242.278C271.643 249.097 267.615 253.279 262.992 255.654C258.499 257.963 253.786 258.388 250.15 258.387C250.15 258.387 250.15 258.387 250.15 258.387H213.826C211.597 258.387 209.791 256.58 209.791 254.351C209.791 252.123 211.597 250.316 213.826 250.316H250.15C253.241 250.316 256.465 249.933 259.304 248.475C262.013 247.083 264.711 244.539 266.537 239.519C268.913 232.985 266.848 229.869 265.078 228.643C262.857 227.104 259.939 227.399 258.385 228.954C256.981 230.358 256.781 232.276 257.413 233.812C258.045 235.348 259.1 235.8 260.121 235.596C262.307 235.159 264.433 236.576 264.87 238.762C265.307 240.947 263.89 243.074 261.704 243.511C255.998 244.652 251.672 241.068 249.949 236.886C248.228 232.705 248.7 227.224 252.677 223.246C257.303 218.62 264.624 218.508 269.676 222.008Z" fill="#F96262"/>
<path fill-rule="evenodd" clip-rule="evenodd" d="M256.482 222.457C257.008 222.982 257.008 223.834 256.483 224.359C254.221 226.621 253.93 229.727 254.925 232.145C255.921 234.562 258.066 236.058 260.649 235.542C261.377 235.396 262.086 235.869 262.232 236.597C262.377 237.326 261.905 238.035 261.176 238.18C257.032 239.009 253.796 236.469 252.437 233.169C251.079 229.87 251.46 225.576 254.58 222.457C255.105 221.931 255.957 221.931 256.482 222.457Z" fill="#FFB1B1"/>
<path fill-rule="evenodd" clip-rule="evenodd" d="M261.739 248.63C262.113 249.273 261.895 250.096 261.252 250.47C257.315 252.759 253.029 252.978 250.163 253.006C250.159 253.006 250.154 253.006 250.15 253.006H213.827C213.084 253.006 212.481 252.404 212.481 251.661C212.481 250.918 213.084 250.315 213.827 250.315H250.143C252.938 250.287 256.609 250.057 259.9 248.143C260.542 247.77 261.366 247.988 261.739 248.63Z" fill="#FFB1B1"/>
<g filter="url(#filter1_ddii_1674_8914)">
<path fill-rule="evenodd" clip-rule="evenodd" d="M212.664 249.037C214.793 247.006 216.14 244.454 216.682 242.862C217.4 240.751 219.692 239.622 221.802 240.34C223.913 241.058 225.042 243.351 224.324 245.461C223.427 248.097 221.439 251.821 218.237 254.877C214.963 258.001 210.257 260.555 204.183 260.214C201.958 260.089 200.255 258.184 200.38 255.958C200.505 253.733 202.41 252.03 204.636 252.155C207.985 252.343 210.607 251 212.664 249.037Z" fill="#894819"/>
</g>
<g filter="url(#filter2_ddii_1674_8914)">
<path fill-rule="evenodd" clip-rule="evenodd" d="M180.577 195.309C177.136 195.864 173.955 197.833 172.155 199.48C170.51 200.984 167.958 200.871 166.453 199.226C164.949 197.581 165.063 195.028 166.707 193.524C169.347 191.11 173.915 188.207 179.293 187.34C184.935 186.43 191.299 187.823 196.655 193.811C198.141 195.473 197.999 198.024 196.338 199.51C194.676 200.996 192.125 200.854 190.639 199.193C187.278 195.435 183.753 194.797 180.577 195.309Z" fill="#894819"/>
</g>
<g filter="url(#filter3_ddii_1674_8914)">
<path fill-rule="evenodd" clip-rule="evenodd" d="M231.699 195.309C228.258 195.864 225.077 197.833 223.277 199.48C221.632 200.984 219.079 200.871 217.575 199.226C216.071 197.581 216.184 195.028 217.829 193.524C220.468 191.11 225.037 188.207 230.414 187.34C236.057 186.43 242.42 187.823 247.777 193.811C249.263 195.473 249.121 198.024 247.459 199.51C245.798 200.996 243.247 200.854 241.761 199.193C238.399 195.435 234.874 194.797 231.699 195.309Z" fill="#894819"/>
</g>
<path d="M209.791 153.452C209.791 156.424 207.381 158.833 204.409 158.833C201.437 158.833 199.028 156.424 199.028 153.452C199.028 150.48 201.437 148.07 204.409 148.07C207.381 148.07 209.791 150.48 209.791 153.452Z" fill="#27BBFA"/>
<path d="M255.531 169.596C255.531 172.568 253.122 174.977 250.15 174.977C247.178 174.977 244.769 172.568 244.769 169.596C244.769 166.624 247.178 164.215 250.15 164.215C253.122 164.215 255.531 166.624 255.531 169.596Z" fill="#9027FA"/>
<path d="M193.647 220.717C193.647 223.689 191.238 226.098 188.266 226.098C185.294 226.098 182.884 223.689 182.884 220.717C182.884 217.745 185.294 215.336 188.266 215.336C191.238 215.336 193.647 217.745 193.647 220.717Z" fill="#27BBFA"/>
<path d="M139.834 199.194C139.834 202.166 137.425 204.575 134.453 204.575C131.481 204.575 129.072 202.166 129.072 199.194C129.072 196.222 131.481 193.812 134.453 193.812C137.425 193.812 139.834 196.222 139.834 199.194Z" fill="#F96262"/>
<path d="M169.431 255.694C169.431 258.666 167.022 261.075 164.05 261.075C161.078 261.075 158.669 258.666 158.669 255.694C158.669 252.722 161.078 250.312 164.05 250.312C167.022 250.312 169.431 252.722 169.431 255.694Z" fill="#9027FA"/>
<path d="M244.769 215.334C244.769 218.306 242.359 220.716 239.387 220.716C236.415 220.716 234.006 218.306 234.006 215.334C234.006 212.362 236.415 209.953 239.387 209.953C242.359 209.953 244.769 212.362 244.769 215.334Z" fill="#F96262"/>
<path d="M268.984 201.881C268.984 204.853 266.575 207.263 263.603 207.263C260.631 207.263 258.222 204.853 258.222 201.881C258.222 198.909 260.631 196.5 263.603 196.5C266.575 196.5 268.984 198.909 268.984 201.881Z" fill="#27BBFA"/>
</g>
</g>
</svg>
