<svg width="35" height="35" viewBox="0 0 35 35" fill="none" xmlns="http://www.w3.org/2000/svg">
<path d="M0 17.5C0 3.5 3.5 0 17.5 0C31.5 0 35 3.5 35 17.5C35 31.5 31.5 35 17.5 35C3.5 35 0 31.5 0 17.5Z" fill="#FFDEBF"/>
<path d="M23 13V10C23 9.73478 22.8946 9.48043 22.7071 9.29289C22.5196 9.10536 22.2652 9 22 9H12C11.4696 9 10.9609 9.21071 10.5858 9.58579C10.2107 9.96086 10 10.4696 10 11C10 11.5304 10.2107 12.0391 10.5858 12.4142C10.9609 12.7893 11.4696 13 12 13H24C24.2652 13 24.5196 13.1054 24.7071 13.2929C24.8946 13.4804 25 13.7348 25 14V17M25 21V24C25 24.2652 24.8946 24.5196 24.7071 24.7071C24.5196 24.8946 24.2652 25 24 25H12C11.4696 25 10.9609 24.7893 10.5858 24.4142C10.2107 24.0391 10 23.5304 10 23V11" fill="white"/>
<path d="M23 13V10C23 9.73478 22.8946 9.48043 22.7071 9.29289C22.5196 9.10536 22.2652 9 22 9H12C11.4696 9 10.9609 9.21071 10.5858 9.58579C10.2107 9.96086 10 10.4696 10 11M10 11C10 11.5304 10.2107 12.0391 10.5858 12.4142C10.9609 12.7893 11.4696 13 12 13H24C24.2652 13 24.5196 13.1054 24.7071 13.2929C24.8946 13.4804 25 13.7348 25 14V17M10 11V23C10 23.5304 10.2107 24.0391 10.5858 24.4142C10.9609 24.7893 11.4696 25 12 25H24C24.2652 25 24.5196 24.8946 24.7071 24.7071C24.8946 24.5196 25 24.2652 25 24V21" stroke="#F9AA62" stroke-width="2" stroke-linecap="round" stroke-linejoin="round"/>
<path d="M26 17V21H22C21.4696 21 20.9609 20.7893 20.5858 20.4142C20.2107 20.0391 20 19.5304 20 19C20 18.4696 20.2107 17.9609 20.5858 17.5858C20.9609 17.2107 21.4696 17 22 17H26Z" stroke="#F9AA62" stroke-width="2" stroke-linecap="round" stroke-linejoin="round"/>
</svg>
