<svg width="40" height="40" viewBox="0 0 40 40" fill="none" xmlns="http://www.w3.org/2000/svg">
<rect width="40" height="40" rx="20" fill="#F96262" fill-opacity="0.2"/>
<path d="M17 13H15C13.8954 13 13 13.8954 13 15V27C13 28.1046 13.8954 29 15 29H25C26.1046 29 27 28.1046 27 27V15C27 13.8954 26.1046 13 25 13H23M17 13C17 14.1046 17.8954 15 19 15H21C22.1046 15 23 14.1046 23 13M17 13C17 11.8954 17.8954 11 19 11H21C22.1046 11 23 11.8954 23 13M20 20H23M20 24H23M17 20H17.01M17 24H17.01" stroke="#F96262" stroke-width="2" stroke-linecap="round"/>
</svg>
